<svg width="30" height="30" viewBox="0 0 30 30" fill="none" xmlns="http://www.w3.org/2000/svg">
<g clip-path="url(#clip0_691_4961)">
<g clip-path="url(#clip1_691_4961)">
<g clip-path="url(#clip2_691_4961)">
<g clip-path="url(#clip3_691_4961)">
<g clip-path="url(#clip4_691_4961)">
<g clip-path="url(#clip5_691_4961)">
<path d="M24.2275 11.8463C22.8762 11.8463 21.685 10.8888 21.3937 9.57125L21.1063 8.26875C20.03 3.4 15.7962 0 10.81 0C4.84875 0 0 4.84875 0 10.81V23.75C0 27.1962 2.80375 30 6.25 30H23.75C27.1962 30 30 27.1962 30 23.75V17.6188C30 14.4363 27.41 11.8463 24.2275 11.8463ZM10.81 2.5C14.5537 2.5 17.8563 5.15375 18.665 8.8075L18.9525 10.11C19.5037 12.605 21.6737 14.3463 24.2275 14.3463C26.0325 14.3463 27.5 15.8138 27.5 17.6188V18.75H2.5V10.81C2.5 6.2275 6.2275 2.5 10.81 2.5ZM23.75 27.5H6.25C4.1825 27.5 2.5 25.8175 2.5 23.75V21.25H6.25V23.75C6.25 24.44 6.81 25 7.5 25C8.19 25 8.75 24.44 8.75 23.75V21.25H11.25V23.75C11.25 24.44 11.81 25 12.5 25C13.19 25 13.75 24.44 13.75 23.75V21.25H16.25V23.75C16.25 24.44 16.81 25 17.5 25C18.19 25 18.75 24.44 18.75 23.75V21.25H21.25V23.75C21.25 24.44 21.81 25 22.5 25C23.19 25 23.75 24.44 23.75 23.75V21.25H27.5V23.75C27.5 25.8175 25.8175 27.5 23.75 27.5Z" fill="white"/>
</g>
</g>
</g>
</g>
</g>
</g>
<defs>
<clipPath id="clip0_691_4961">
<rect width="30" height="30" fill="white"/>
</clipPath>
<clipPath id="clip1_691_4961">
<rect width="30" height="30" fill="white"/>
</clipPath>
<clipPath id="clip2_691_4961">
<rect width="30" height="30" fill="white"/>
</clipPath>
<clipPath id="clip3_691_4961">
<rect width="30" height="30" fill="white"/>
</clipPath>
<clipPath id="clip4_691_4961">
<rect width="30" height="30" fill="white"/>
</clipPath>
<clipPath id="clip5_691_4961">
<rect width="30" height="30" fill="white"/>
</clipPath>
</defs>
</svg>
