<svg width="30" height="30" viewBox="0 0 30 30" fill="none" xmlns="http://www.w3.org/2000/svg">
<g clip-path="url(#clip0_691_4940)">
<g clip-path="url(#clip1_691_4940)">
<path d="M23.75 30H6.25C2.8 30 0 27.2 0 23.75V6.25C0 2.8 2.8 0 6.25 0H23.75C27.2 0 30 2.8 30 6.25V23.75C30 27.2 27.2 30 23.75 30ZM6.25 2.5C4.1875 2.5 2.5 4.1875 2.5 6.25V23.75C2.5 25.8125 4.1875 27.5 6.25 27.5H23.75C25.8125 27.5 27.5 25.8125 27.5 23.75V6.25C27.5 4.1875 25.8125 2.5 23.75 2.5H6.25ZM15 25C9.4875 25 5 20.5125 5 15C5 9.4875 9.4875 5 15 5C20.5125 5 25 9.4875 25 15C25 20.5125 20.5125 25 15 25ZM15 7.5C10.8625 7.5 7.5 10.8625 7.5 15C7.5 19.1375 10.8625 22.5 15 22.5C19.1375 22.5 22.5 19.1375 22.5 15C22.5 10.8625 19.1375 7.5 15 7.5ZM15 16.875C16.0375 16.875 16.875 16.0375 16.875 15C16.875 13.9625 16.0375 13.125 15 13.125C13.9625 13.125 13.125 13.9625 13.125 15C13.125 16.0375 13.9625 16.875 15 16.875Z" fill="white"/>
</g>
</g>
<defs>
<clipPath id="clip0_691_4940">
<rect width="30" height="30" fill="white"/>
</clipPath>
<clipPath id="clip1_691_4940">
<rect width="30" height="30" fill="white"/>
</clipPath>
</defs>
</svg>
