<svg width="30" height="30" viewBox="0 0 30 30" fill="none" xmlns="http://www.w3.org/2000/svg">
<g clip-path="url(#clip0_691_4953)">
<g clip-path="url(#clip1_691_4953)">
<g clip-path="url(#clip2_691_4953)">
<g clip-path="url(#clip3_691_4953)">
<path d="M29.3637 1.38047L28.6238 0.63922C27.775 -0.212031 26.3963 -0.21328 25.5463 0.63672L24.85 1.32922C24.145 2.03297 23.75 2.98797 23.75 3.98297V4.48297L16.1287 12.1042C14.435 10.7867 12.3075 10.0005 10 10.0005C4.48625 10.0005 0 14.4867 0 20.0005C0 25.5142 4.48625 30.0005 10 30.0005C15.5137 30.0005 20 25.5142 20 20.0005C20 17.693 19.2138 15.5655 17.8963 13.8717L25.5175 6.25047H26.0125C27.0062 6.25047 27.9588 5.85672 28.6625 5.15422L29.3613 4.45797C30.2113 3.60922 30.2125 2.23047 29.3637 1.38047ZM10 27.5005C5.86375 27.5005 2.5 24.1367 2.5 20.0005C2.5 15.8642 5.86375 12.5005 10 12.5005C14.1363 12.5005 17.5 15.8642 17.5 20.0005C17.5 24.1367 14.1363 27.5005 10 27.5005ZM10.8837 21.6167C11.3725 22.1055 11.3725 22.8955 10.8837 23.3842C10.64 23.628 10.32 23.7505 10 23.7505C9.68 23.7505 9.36 23.628 9.11625 23.3842L6.61625 20.8842C6.1275 20.3955 6.1275 19.6055 6.61625 19.1167C7.105 18.628 7.895 18.628 8.38375 19.1167L10.8837 21.6167Z" fill="white"/>
</g>
</g>
</g>
</g>
<defs>
<clipPath id="clip0_691_4953">
<rect width="30" height="30" fill="white"/>
</clipPath>
<clipPath id="clip1_691_4953">
<rect width="30" height="30" fill="white"/>
</clipPath>
<clipPath id="clip2_691_4953">
<rect width="30" height="30" fill="white"/>
</clipPath>
<clipPath id="clip3_691_4953">
<rect width="30" height="30" fill="white"/>
</clipPath>
</defs>
</svg>
