<svg width="30" height="30" viewBox="0 0 30 30" fill="none" xmlns="http://www.w3.org/2000/svg">
<g clip-path="url(#clip0_691_4935)">
<path d="M28.7502 0H27.4702C25.8165 0 24.3752 1.06125 23.889 2.64125C23.799 2.93375 23.699 3.26125 23.5902 3.61875L23.3777 3.5525C22.784 3.36875 22.3465 3.23375 22.0377 3.12875C21.384 2.905 20.674 3.25375 20.4502 3.90875C20.2265 4.56125 20.5765 5.2725 21.229 5.495C21.5552 5.60625 22.0152 5.74875 22.639 5.94125L22.8777 6.015C22.5927 6.9825 22.2827 8.0425 21.9602 9.15L21.5677 9.0275C20.9577 8.83875 20.5077 8.7 20.1915 8.5925C19.5365 8.3725 18.8277 8.72125 18.6052 9.37375C18.384 10.0275 18.7352 10.7375 19.3877 10.9588C19.719 11.0713 20.189 11.2175 20.8265 11.415L21.259 11.5488C20.9352 12.66 20.6102 13.7775 20.2927 14.8625C19.2502 17.82 17.5065 21.2488 15.594 21.2488C13.9465 21.2488 13.754 19.9375 13.749 19.3737V15.0137C13.764 14.4375 13.9852 13.7487 14.969 13.7487C15.6602 13.7487 16.219 13.1887 16.219 12.4987C16.219 11.8087 15.6602 11.2487 14.969 11.2487H1.22021C0.528965 11.25 -0.0297852 11.81 -0.0297852 12.5C-0.0297852 13.19 0.528965 13.75 1.22021 13.75C1.65896 13.75 1.97771 13.8487 2.17146 14.0437C2.44771 14.3225 2.50396 14.805 2.50146 15V20.415C2.50146 24.135 4.03022 27.1725 6.69397 28.7475C8.04147 29.5425 9.64897 29.9762 11.2515 30.0012C15.2365 30.0012 18.934 27.58 20.129 24.07C20.6077 22.665 21.5765 19.395 22.644 15.7425C23.1527 14.2912 25.6977 5.2575 26.2777 3.38C26.4402 2.855 26.9202 2.50125 27.4715 2.50125H28.7515C29.4427 2.50125 30.0015 1.94125 30.0015 1.25125C30.0015 0.56125 29.4427 0.00125 28.7515 0.00125L28.7502 0ZM17.7615 23.2625C16.9077 25.7713 14.1802 27.5 11.2502 27.5C10.0815 27.4813 8.93897 27.1687 7.96522 26.5937C6.08022 25.48 5.00022 23.2288 5.00022 20.415V15.0487C5.00272 14.9525 5.01271 14.4062 4.80896 13.75H11.4565C11.3152 14.1812 11.2502 14.615 11.2502 15V19.3625C11.2477 19.5575 11.2677 21.3088 12.5152 22.5688C13.049 23.1075 14.0165 23.7488 15.5952 23.7488C16.399 23.7488 17.1365 23.515 17.8115 23.115C17.794 23.1663 17.7777 23.215 17.7627 23.2612L17.7615 23.2625ZM11.2502 30C11.3015 30 11.199 30 11.2502 30Z" fill="white"/>
</g>
<defs>
<clipPath id="clip0_691_4935">
<rect width="30" height="30" fill="white"/>
</clipPath>
</defs>
</svg>
