<svg width="30" height="30" viewBox="0 0 30 30" fill="none" xmlns="http://www.w3.org/2000/svg">
<g clip-path="url(#clip0_691_4930)">
<path d="M23.4461 20.0004C22.5852 19.9984 21.7326 20.1669 20.9372 20.4962C20.1419 20.8256 19.4197 21.3092 18.8123 21.9192C17.0474 23.6942 14.9478 25.1015 12.6352 26.0596C10.3226 27.0176 7.84298 27.5073 5.33981 27.5004H3.90231C3.62494 27.5008 3.35369 27.4189 3.12291 27.2651C2.89213 27.1112 2.71221 26.8923 2.60593 26.6361C2.49965 26.3799 2.47179 26.0979 2.52589 25.8259C2.57998 25.5538 2.7136 25.304 2.90981 25.1079L3.77606 24.2417C6.17959 24.1178 8.45146 23.1057 10.1511 21.4017L15.5586 16.0004C16.0862 16.1422 16.6277 16.2261 17.1736 16.2504C17.2811 16.2504 17.3898 16.2504 17.4998 16.2504C19.49 16.2489 21.3985 15.4587 22.8073 14.0529L24.0573 12.8029C24.7913 12.0676 25.3647 11.1881 25.7414 10.2199C26.1182 9.25171 26.29 8.21591 26.2461 7.17793C26.2043 6.13538 25.9436 5.1133 25.4808 4.17818C25.018 3.24307 24.3634 2.41588 23.5598 1.75043C22.0584 0.561264 20.1687 -0.0276446 18.2576 0.0980106C16.3464 0.223666 14.5501 1.05492 13.2173 2.43043L12.4261 3.22293C11.4698 4.17579 10.7732 5.35748 10.4025 6.65559C10.0319 7.95369 9.99954 9.32504 10.3086 10.6392L4.84856 16.0992C3.14366 17.7982 2.1314 20.0704 2.00856 22.4742L1.14231 23.3404C0.596578 23.8861 0.224946 24.5814 0.0744304 25.3383C-0.0760852 26.0952 0.00127842 26.8798 0.296734 27.5927C0.59219 28.3057 1.09246 28.915 1.73427 29.3436C2.37607 29.7721 3.13057 30.0007 3.90231 30.0004H5.33981C8.17127 30.0081 10.9761 29.4542 13.5921 28.3706C16.208 27.2871 18.5831 25.6955 20.5798 23.6879C21.1467 23.1212 21.8688 22.7352 22.655 22.5787C23.4412 22.4223 24.2561 22.5025 24.9967 22.8091C25.7374 23.1157 26.3705 23.6351 26.816 24.3014C27.2615 24.9678 27.4995 25.7513 27.4998 26.5529V28.7504C27.4998 29.0819 27.6315 29.3999 27.8659 29.6343C28.1003 29.8687 28.4183 30.0004 28.7498 30.0004C29.0813 30.0004 29.3993 29.8687 29.6337 29.6343C29.8681 29.3999 29.9998 29.0819 29.9998 28.7504V26.5529C29.9975 24.8156 29.3062 23.1501 28.0776 21.9217C26.849 20.6934 25.1834 20.0024 23.4461 20.0004ZM14.1961 4.98543L14.9873 4.19293C16.014 3.16125 17.4068 2.57716 18.8623 2.56793C19.9891 2.55694 21.0833 2.94531 21.9511 3.66418C22.4879 4.10749 22.9255 4.65877 23.2354 5.28221C23.5453 5.90566 23.7205 6.58733 23.7498 7.28293C23.7787 7.97483 23.664 8.66521 23.4129 9.3106C23.1619 9.95599 22.7799 10.5424 22.2911 11.0329L21.0411 12.2829C20.5499 12.7741 19.9619 13.1575 19.3144 13.4088C18.6669 13.66 17.9741 13.7737 17.2803 13.7424C16.5864 13.7111 15.9067 13.5356 15.2844 13.2271C14.6622 12.9186 14.111 12.4838 13.6661 11.9504C12.8761 10.9302 12.4927 9.65312 12.5902 8.36647C12.6876 7.07982 13.259 5.87507 14.1936 4.98543H14.1961ZM6.61606 17.8667L11.4111 13.0704C11.5248 13.2329 11.6161 13.4079 11.7448 13.5617C12.1597 14.0518 12.6347 14.4877 13.1586 14.8592L8.38356 19.6342C7.35585 20.6651 6.0411 21.3621 4.61106 21.6342C4.88544 20.2053 5.58417 18.8924 6.61606 17.8667V17.8667Z" fill="white"/>
</g>
<defs>
<clipPath id="clip0_691_4930">
<rect width="30" height="30" fill="white"/>
</clipPath>
</defs>
</svg>
