<svg xmlns="http://www.w3.org/2000/svg" width="30" height="30" viewBox="0 0 30 30" fill="none">
  <g clip-path="url(#clip0_1369_483)">
    <path d="M23.4462 20.0005C22.5854 19.9984 21.7327 20.1669 20.9374 20.4963C20.142 20.8256 19.4198 21.3092 18.8124 21.9192C17.0475 23.6943 14.9479 25.1016 12.6354 26.0596C10.3228 27.0176 7.8431 27.5074 5.33994 27.5005H3.90244C3.62507 27.5009 3.35381 27.419 3.12303 27.2651C2.89226 27.1112 2.71233 26.8923 2.60605 26.6361C2.49977 26.3799 2.47191 26.098 2.52601 25.8259C2.58011 25.5539 2.71372 25.304 2.90994 25.108L3.77619 24.2417C6.17971 24.1178 8.45158 23.1057 10.1512 21.4017L15.5587 16.0005C16.0863 16.1423 16.6279 16.2261 17.1737 16.2505C17.2812 16.2505 17.3899 16.2505 17.4999 16.2505C19.4901 16.2489 21.3986 15.4587 22.8074 14.053L24.0574 12.803C24.7914 12.0677 25.3648 11.1881 25.7416 10.2199C26.1183 9.25175 26.2901 8.21594 26.2462 7.17796C26.2045 6.13541 25.9437 5.11333 25.4809 4.17821C25.0181 3.2431 24.3636 2.41591 23.5599 1.75046C22.0585 0.561295 20.1688 -0.0276141 18.2577 0.0980412C16.3465 0.223696 14.5502 1.05495 13.2174 2.43046L12.4262 3.22296C11.4699 4.17582 10.7733 5.35751 10.4027 6.65562C10.032 7.95372 9.99967 9.32507 10.3087 10.6392L4.84869 16.0992C3.14378 17.7982 2.13152 20.0704 2.00869 22.4742L1.14244 23.3405C0.5967 23.8861 0.225068 24.5814 0.0745524 25.3383C-0.0759631 26.0953 0.00140049 26.8798 0.296856 27.5928C0.592313 28.3057 1.09259 28.915 1.73439 29.3436C2.37619 29.7722 3.13069 30.0008 3.90244 30.0005H5.33994C8.17139 30.0082 10.9763 29.4542 13.5922 28.3707C16.2081 27.2871 18.5832 25.6955 20.5799 23.688C21.1468 23.1212 21.8689 22.7352 22.6551 22.5788C23.4413 22.4223 24.2562 22.5025 24.9969 22.8091C25.7375 23.1158 26.3706 23.6351 26.8161 24.3015C27.2616 24.9679 27.4996 25.7514 27.4999 26.553V28.7505C27.4999 29.082 27.6316 29.3999 27.8661 29.6343C28.1005 29.8688 28.4184 30.0005 28.7499 30.0005C29.0815 30.0005 29.3994 29.8688 29.6338 29.6343C29.8682 29.3999 29.9999 29.082 29.9999 28.7505V26.553C29.9976 24.8156 29.3064 23.1501 28.0778 21.9218C26.8491 20.6934 25.1835 20.0024 23.4462 20.0005ZM14.1962 4.98546L14.9874 4.19296C16.0141 3.16128 17.407 2.57719 18.8624 2.56796C19.9892 2.55697 21.0835 2.94534 21.9512 3.66421C22.488 4.10752 22.9256 4.6588 23.2355 5.28225C23.5454 5.90569 23.7207 6.58736 23.7499 7.28296C23.7788 7.97486 23.6641 8.66524 23.413 9.31063C23.162 9.95602 22.78 10.5424 22.2912 11.033L21.0412 12.283C20.5501 12.7741 19.962 13.1575 19.3145 13.4088C18.667 13.6601 17.9742 13.7737 17.2804 13.7424C16.5865 13.7111 15.9068 13.5356 15.2845 13.2271C14.6623 12.9186 14.1111 12.4838 13.6662 11.9505C12.8762 10.9302 12.4929 9.65315 12.5903 8.3665C12.6878 7.07985 13.2591 5.8751 14.1937 4.98546H14.1962ZM6.61619 17.8667L11.4112 13.0705C11.5249 13.233 11.6162 13.408 11.7449 13.5617C12.1598 14.0518 12.6348 14.4878 13.1587 14.8592L8.38369 19.6342C7.35598 20.6651 6.04123 21.3622 4.61119 21.6342C4.88557 20.2054 5.5843 18.8924 6.61619 17.8667Z" fill="white"/>
  </g>
  <defs>
    <clipPath id="clip0_1369_483">
      <rect width="30" height="30" fill="white"/>
    </clipPath>
  </defs>
</svg>