<svg width="30" height="30" viewBox="0 0 30 30" fill="none" xmlns="http://www.w3.org/2000/svg">
<g clip-path="url(#clip0_691_4980)">
<g clip-path="url(#clip1_691_4980)">
<g clip-path="url(#clip2_691_4980)">
<g clip-path="url(#clip3_691_4980)">
<path d="M25.499 9.28495C25.103 8.89795 24.47 8.90695 24.085 9.30095C23.698 9.69695 23.706 10.329 24.101 10.715C24.698 11.298 25 11.899 25 12.5C25 14.629 20.894 17 15 17C9.106 17 5 14.629 5 12.5C5 10.371 9.106 7.99995 15 7.99995C15.641 7.99995 16.283 8.02895 16.908 8.08695C17.474 8.14095 17.945 7.73295 17.996 7.18295C18.046 6.63295 17.642 6.14595 17.092 6.09495C16.405 6.03295 15.701 5.99995 15 5.99995C8.271 5.99995 3 8.85495 3 12.5V20.5C3 24.145 8.271 27 15 27C21.729 27 27 24.145 27 20.5V12.5C27 11.356 26.48 10.244 25.499 9.28495ZM14 24.976C12.523 24.907 11.176 24.688 10 24.365V18.429C11.23 18.727 12.576 18.917 14 18.978V24.976ZM16 18.978C17.424 18.917 18.77 18.727 20 18.429V24.365C18.824 24.688 17.477 24.907 16 24.976V18.978ZM5 20.5V16.139C5.802 16.793 6.819 17.359 8 17.812V23.6469C6.109 22.7769 5 21.605 5 20.5ZM22 23.6469V17.812C23.181 17.359 24.198 16.793 25 16.139V20.5C25 21.606 23.891 22.7769 22 23.6469ZM15.293 12.255L25.306 3.25595C25.716 2.88895 26.347 2.91895 26.719 3.33095C27.088 3.74195 27.054 4.37495 26.644 4.74395L16.631 13.744C16.44 13.915 16.2 14 15.962 14C15.689 14 15.416 13.889 15.218 13.669C14.849 13.258 14.883 12.624 15.293 12.255Z" fill="white"/>
</g>
</g>
</g>
</g>
<defs>
<clipPath id="clip0_691_4980">
<rect width="30" height="30" fill="white"/>
</clipPath>
<clipPath id="clip1_691_4980">
<rect width="30" height="30" fill="white"/>
</clipPath>
<clipPath id="clip2_691_4980">
<rect width="30" height="30" fill="white"/>
</clipPath>
<clipPath id="clip3_691_4980">
<rect width="24" height="24" fill="white" transform="translate(3 3)"/>
</clipPath>
</defs>
</svg>
