<svg width="30" height="30" viewBox="0 0 30 30" fill="none" xmlns="http://www.w3.org/2000/svg">
<g clip-path="url(#clip0_691_4989)">
<g clip-path="url(#clip1_691_4989)">
<g clip-path="url(#clip2_691_4989)">
<g clip-path="url(#clip3_691_4989)">
<g clip-path="url(#clip4_691_4989)">
<path d="M15 0C12.0333 0 9.13319 0.879735 6.66645 2.52796C4.19972 4.17618 2.27713 6.51886 1.14181 9.25975C0.00649929 12.0006 -0.290551 15.0166 0.288228 17.9264C0.867006 20.8361 2.29562 23.5088 4.39341 25.6066C6.49119 27.7044 9.16394 29.133 12.0737 29.7118C14.9834 30.2906 17.9994 29.9935 20.7403 28.8582C23.4812 27.7229 25.8238 25.8003 27.4721 23.3336C29.1203 20.8668 30 17.9667 30 15C29.9957 11.0231 28.414 7.21026 25.6019 4.39815C22.7897 1.58604 18.9769 0.00430135 15 0ZM15 27.5C12.5277 27.5 10.111 26.7669 8.05538 25.3934C5.99976 24.0199 4.39761 22.0676 3.45151 19.7835C2.50542 17.4995 2.25788 14.9861 2.74019 12.5614C3.22251 10.1366 4.41302 7.90932 6.16117 6.16117C7.90933 4.41301 10.1366 3.2225 12.5614 2.74018C14.9861 2.25787 17.4995 2.50541 19.7836 3.45151C22.0676 4.3976 24.0199 5.99976 25.3934 8.05537C26.7669 10.111 27.5 12.5277 27.5 15C27.4964 18.3141 26.1782 21.4914 23.8348 23.8348C21.4914 26.1782 18.3141 27.4964 15 27.5Z" fill="white"/>
<path d="M15 8.75C13.7639 8.75 12.5555 9.11656 11.5277 9.80331C10.4999 10.4901 9.6988 11.4662 9.22576 12.6082C8.75271 13.7503 8.62894 15.0069 8.87009 16.2193C9.11125 17.4317 9.70651 18.5453 10.5806 19.4194C11.4547 20.2935 12.5683 20.8888 13.7807 21.1299C14.9931 21.3711 16.2497 21.2473 17.3918 20.7742C18.5338 20.3012 19.5099 19.5001 20.1967 18.4723C20.8834 17.4445 21.25 16.2361 21.25 15C21.248 13.343 20.5889 11.7544 19.4172 10.5828C18.2456 9.4111 16.657 8.75198 15 8.75ZM15 18.75C14.2583 18.75 13.5333 18.5301 12.9166 18.118C12.2999 17.706 11.8193 17.1203 11.5355 16.4351C11.2516 15.7498 11.1774 14.9958 11.3221 14.2684C11.4668 13.541 11.8239 12.8728 12.3484 12.3483C12.8728 11.8239 13.541 11.4667 14.2684 11.3221C14.9958 11.1774 15.7498 11.2516 16.4351 11.5355C17.1203 11.8193 17.706 12.2999 18.118 12.9166C18.5301 13.5333 18.75 14.2583 18.75 15C18.75 15.9946 18.3549 16.9484 17.6517 17.6517C16.9484 18.3549 15.9946 18.75 15 18.75Z" fill="white"/>
<path d="M15 16.25C15.6904 16.25 16.25 15.6904 16.25 15C16.25 14.3096 15.6904 13.75 15 13.75C14.3096 13.75 13.75 14.3096 13.75 15C13.75 15.6904 14.3096 16.25 15 16.25Z" fill="white"/>
</g>
</g>
</g>
</g>
</g>
<defs>
<clipPath id="clip0_691_4989">
<rect width="30" height="30" fill="white"/>
</clipPath>
<clipPath id="clip1_691_4989">
<rect width="30" height="30" fill="white"/>
</clipPath>
<clipPath id="clip2_691_4989">
<rect width="30" height="30" fill="white"/>
</clipPath>
<clipPath id="clip3_691_4989">
<rect width="30" height="30" fill="white"/>
</clipPath>
<clipPath id="clip4_691_4989">
<rect width="30" height="30" fill="white"/>
</clipPath>
</defs>
</svg>
