<svg width="30" height="30" viewBox="0 0 30 30" fill="none" xmlns="http://www.w3.org/2000/svg">
<g clip-path="url(#clip0_691_4946)">
<g clip-path="url(#clip1_691_4946)">
<g clip-path="url(#clip2_691_4946)">
<path d="M12.5001 16.875V11.875C12.5001 10.8375 13.3376 10 14.3751 10C15.4126 10 16.2501 10.8375 16.2501 11.875V16.875C16.2501 17.9125 15.4126 18.75 14.3751 18.75C13.3376 18.75 12.5001 17.9125 12.5001 16.875ZM19.3751 18.75C20.4126 18.75 21.2501 17.9125 21.2501 16.875V11.875C21.2501 10.8375 20.4126 10 19.3751 10C18.3376 10 17.5001 10.8375 17.5001 11.875V16.875C17.5001 17.9125 18.3376 18.75 19.3751 18.75ZM25.6251 2.5C24.5876 2.5 23.7501 3.3375 23.7501 4.375V21.875C23.7501 24.2875 21.7876 26.25 19.3751 26.25H12.8626C11.1126 26.25 9.4376 25.5875 8.1626 24.3875L5.7626 22.1375L9.2251 18.5125C10.2251 17.5125 10.2251 15.9 9.2251 14.9C8.2251 13.9 6.6126 13.9 5.6126 14.9L2.5376 18.1125C1.7251 18.9375 1.2876 20.025 1.2876 21.1875C1.2876 22.35 1.7376 23.45 2.6126 24.325L5.6001 27.1375C7.5751 28.9875 10.1626 30.0125 12.8751 30.0125H19.3876C23.8626 30.0125 27.5126 26.3625 27.5126 21.8875V4.375C27.5126 3.3375 26.6751 2.5 25.6376 2.5H25.6251ZM10.0001 12.5V1.975C10.0001 1.0375 9.3626 0.175003 8.4376 0.0250029C7.2626 -0.162497 6.2501 0.737503 6.2501 1.875V11.95C7.5126 11.6375 8.8501 11.825 10.0001 12.5Z" fill="white"/>
</g>
</g>
</g>
<defs>
<clipPath id="clip0_691_4946">
<rect width="30" height="30" fill="white"/>
</clipPath>
<clipPath id="clip1_691_4946">
<rect width="30" height="30" fill="white"/>
</clipPath>
<clipPath id="clip2_691_4946">
<rect width="30" height="30" fill="white"/>
</clipPath>
</defs>
</svg>
