<svg width="30" height="30" viewBox="0 0 30 30" fill="none" xmlns="http://www.w3.org/2000/svg">
<g clip-path="url(#clip0_691_4971)">
<g clip-path="url(#clip1_691_4971)">
<g clip-path="url(#clip2_691_4971)">
<g clip-path="url(#clip3_691_4971)">
<g clip-path="url(#clip4_691_4971)">
<path d="M30 25.625C30 25.625 30 25.6287 30 25.63C30 27.3562 28.6013 28.755 26.875 28.755C25.1487 28.755 23.75 27.3562 23.75 25.63C23.75 23.9037 25.1487 22.505 26.875 22.505C27.0888 22.505 27.2975 22.5275 27.5 22.5675V17.6713C27.5 17.3038 27.3463 16.9687 27.0688 16.7275C26.79 16.4862 26.4387 16.3838 26.0725 16.4338L22.86 16.8925C21.9425 17.0237 21.25 17.8225 21.25 18.7487V26.8788C21.25 28.605 19.8513 30.0038 18.125 30.0038C16.3987 30.0038 15 28.605 15 26.8788C15 25.1525 16.3987 23.7538 18.125 23.7538C18.3388 23.7538 18.5475 23.7762 18.75 23.8162V18.7487C18.75 16.5862 20.365 14.7238 22.5062 14.4175L25.72 13.9587C26.7963 13.8025 27.885 14.125 28.7075 14.8388C29.5287 15.5513 30 16.5838 30 17.6713V25.625ZM2.5 7.5C2.5 3.36375 5.86375 0 10 0C14.1363 0 17.5 3.36375 17.5 7.5C17.5 11.6363 14.1363 15 10 15C5.86375 15 2.5 11.6363 2.5 7.5ZM5 7.5C5 10.2575 7.2425 12.5 10 12.5C12.7575 12.5 15 10.2575 15 7.5C15 4.7425 12.7575 2.5 10 2.5C7.2425 2.5 5 4.7425 5 7.5ZM16.1588 19.9462C16.4188 19.3062 16.1088 18.5775 15.47 18.3187C14.1288 17.775 12.7088 17.5 11.2513 17.5C5.0475 17.5 0 22.5475 0 28.75C0 29.44 0.56 30 1.25 30C1.94 30 2.5 29.44 2.5 28.75C2.5 23.925 6.425 20 11.25 20C12.385 20 13.49 20.2137 14.5312 20.635C15.1713 20.8937 15.9 20.585 16.1588 19.9462Z" fill="white"/>
</g>
</g>
</g>
</g>
</g>
<defs>
<clipPath id="clip0_691_4971">
<rect width="30" height="30" fill="white"/>
</clipPath>
<clipPath id="clip1_691_4971">
<rect width="30" height="30" fill="white"/>
</clipPath>
<clipPath id="clip2_691_4971">
<rect width="30" height="30" fill="white"/>
</clipPath>
<clipPath id="clip3_691_4971">
<rect width="30" height="30" fill="white"/>
</clipPath>
<clipPath id="clip4_691_4971">
<rect width="30" height="30" fill="white"/>
</clipPath>
</defs>
</svg>
