<svg width="24" height="25" viewBox="0 0 24 25" fill="none" xmlns="http://www.w3.org/2000/svg">
<g clip-path="url(#clip0_507_1953)">
<path d="M22.3189 5.35856L8.49988 19.1766C8.40697 19.2698 8.29655 19.3438 8.17497 19.3944C8.05339 19.4449 7.92303 19.4708 7.79138 19.4708C7.65972 19.4708 7.52937 19.4449 7.40778 19.3944C7.2862 19.3438 7.17579 19.2698 7.08288 19.1766L1.73888 13.8276C1.64597 13.7343 1.53555 13.6603 1.41397 13.6098C1.29239 13.5593 1.16203 13.5333 1.03038 13.5333C0.898723 13.5333 0.768365 13.5593 0.646783 13.6098C0.5252 13.6603 0.414787 13.7343 0.321877 13.8276C0.2286 13.9205 0.154588 14.0309 0.104086 14.1525C0.0535845 14.274 0.0275879 14.4044 0.0275879 14.5361C0.0275879 14.6677 0.0535845 14.7981 0.104086 14.9197C0.154588 15.0412 0.2286 15.1517 0.321877 15.2446L5.66788 20.5896C6.23182 21.1525 6.99607 21.4686 7.79288 21.4686C8.58968 21.4686 9.35393 21.1525 9.91788 20.5896L23.7359 6.77456C23.829 6.68167 23.9029 6.57132 23.9533 6.44983C24.0037 6.32834 24.0297 6.19809 24.0297 6.06656C24.0297 5.93502 24.0037 5.80478 23.9533 5.68329C23.9029 5.5618 23.829 5.45145 23.7359 5.35856C23.643 5.26528 23.5326 5.19127 23.411 5.14077C23.2894 5.09027 23.159 5.06427 23.0274 5.06427C22.8957 5.06427 22.7654 5.09027 22.6438 5.14077C22.5222 5.19127 22.4118 5.26528 22.3189 5.35856Z" fill="#374957"/>
</g>
<defs>
<clipPath id="clip0_507_1953">
<rect width="24" height="24" fill="white" transform="translate(0 0.92749)"/>
</clipPath>
</defs>
</svg>
