<svg width="24" height="25" viewBox="0 0 24 25" fill="none" xmlns="http://www.w3.org/2000/svg">
<g clip-path="url(#clip0_507_2349)">
<path d="M0 12.9267C0 12.6615 0.105357 12.4072 0.292893 12.2196C0.48043 12.0321 0.734784 11.9267 1 11.9267H7C7.26522 11.9267 7.51957 12.0321 7.70711 12.2196C7.89464 12.4072 8 12.6615 8 12.9267C8 13.1919 7.89464 13.4463 7.70711 13.6338C7.51957 13.8214 7.26522 13.9267 7 13.9267H1C0.734784 13.9267 0.48043 13.8214 0.292893 13.6338C0.105357 13.4463 0 13.1919 0 12.9267ZM20.886 12.0337C21.3845 11.4109 21.7263 10.6776 21.8829 9.89534C22.0395 9.1131 22.0063 8.30472 21.786 7.53798C21.5657 6.77124 21.1648 6.06848 20.6169 5.48865C20.069 4.90881 19.39 4.46879 18.637 4.20548C17.8839 3.94218 17.0787 3.86326 16.2889 3.97535C15.499 4.08744 14.7476 4.38727 14.0975 4.84969C13.4474 5.31212 12.9177 5.92366 12.5528 6.63305C12.1878 7.34243 11.9983 8.12898 12 8.92673C12 9.19195 12.1054 9.4463 12.2929 9.63384C12.4804 9.82138 12.7348 9.92673 13 9.92673C13.2652 9.92673 13.5196 9.82138 13.7071 9.63384C13.8946 9.4463 14 9.19195 14 8.92673C14 8.33339 14.1759 7.75337 14.5056 7.26002C14.8352 6.76667 15.3038 6.38216 15.8519 6.15509C16.4001 5.92803 17.0033 5.86862 17.5853 5.98438C18.1672 6.10013 18.7018 6.38585 19.1213 6.80541C19.5409 7.22497 19.8266 7.75952 19.9424 8.34146C20.0581 8.9234 19.9987 9.5266 19.7716 10.0748C19.5446 10.623 19.1601 11.0915 18.6667 11.4211C18.1734 11.7508 17.5933 11.9267 17 11.9267H11C10.7348 11.9267 10.4804 12.0321 10.2929 12.2196C10.1054 12.4072 10 12.6615 10 12.9267C10 13.1919 10.1054 13.4463 10.2929 13.6338C10.4804 13.8214 10.7348 13.9267 11 13.9267H20C20.5304 13.9267 21.0391 14.1374 21.4142 14.5125C21.7893 14.8876 22 15.3963 22 15.9267C21.991 18.2637 18.719 18.5747 17.943 16.5937C17.8547 16.3436 17.6706 16.1389 17.4313 16.0245C17.192 15.9101 16.9171 15.8954 16.667 15.9837C16.4169 16.0721 16.2121 16.2561 16.0977 16.4954C15.9833 16.7347 15.9687 17.0096 16.057 17.2597C17.615 21.3417 23.952 20.5057 24 15.9267C23.9983 15.0212 23.6893 14.143 23.1236 13.4358C22.558 12.7286 21.7691 12.2343 20.886 12.0337ZM11 16.9267H1C0.734784 16.9267 0.48043 17.0321 0.292893 17.2196C0.105357 17.4072 0 17.6615 0 17.9267C0 18.1919 0.105357 18.4463 0.292893 18.6338C0.48043 18.8214 0.734784 18.9267 1 18.9267H11C11.5304 18.9267 12.0391 19.1374 12.4142 19.5125C12.7893 19.8876 13 20.3963 13 20.9267C12.991 23.2637 9.719 23.5747 8.943 21.5937C8.89927 21.4699 8.83158 21.3559 8.74378 21.2582C8.65599 21.1605 8.54982 21.0811 8.43134 21.0245C8.31285 20.9678 8.18436 20.9351 8.05322 20.9281C7.92207 20.9211 7.79084 20.94 7.667 20.9837C7.54316 21.0275 7.42915 21.0952 7.33148 21.1829C7.2338 21.2707 7.15438 21.3769 7.09773 21.4954C7.04109 21.6139 7.00834 21.7424 7.00135 21.8735C6.99436 22.0047 7.01327 22.1359 7.057 22.2597C8.615 26.3417 14.952 25.5057 15 20.9267C15 19.8659 14.5786 18.8485 13.8284 18.0983C13.0783 17.3482 12.0609 16.9267 11 16.9267ZM1 8.92673H7C8.06087 8.92673 9.07828 8.50531 9.82843 7.75516C10.5786 7.00501 11 5.9876 11 4.92673C10.952 0.345733 4.613 -0.487267 3.057 3.59373C2.96868 3.84383 2.98333 4.11877 3.09773 4.35807C3.21213 4.59736 3.4169 4.78142 3.667 4.86973C3.9171 4.95805 4.19204 4.9434 4.43133 4.829C4.67063 4.7146 4.85468 4.50983 4.943 4.25973C5.72 2.27773 8.991 2.58973 9 4.92673C9 5.45717 8.78929 5.96587 8.41421 6.34095C8.03914 6.71602 7.53043 6.92673 7 6.92673H1C0.734784 6.92673 0.48043 7.03209 0.292893 7.21963C0.105357 7.40716 0 7.66152 0 7.92673C0 8.19195 0.105357 8.4463 0.292893 8.63384C0.48043 8.82138 0.734784 8.92673 1 8.92673Z" fill="#374957"/>
</g>
<defs>
<clipPath id="clip0_507_2349">
<rect width="24" height="24" fill="white" transform="translate(0 0.92749)"/>
</clipPath>
</defs>
</svg>
