<svg width="24" height="25" viewBox="0 0 24 25" fill="none" xmlns="http://www.w3.org/2000/svg">
<g clip-path="url(#clip0_507_1988)">
<path d="M5.50012 17.9276C6.32855 17.9276 7.00012 17.2561 7.00012 16.4276C7.00012 15.5992 6.32855 14.9276 5.50012 14.9276C4.67169 14.9276 4.00012 15.5992 4.00012 16.4276C4.00012 17.2561 4.67169 17.9276 5.50012 17.9276Z" fill="#374957"/>
<path d="M19 3.92749H5C3.67441 3.92908 2.40356 4.45637 1.46622 5.39371C0.528882 6.33105 0.00158786 7.6019 0 8.92749L0 16.9275C0.00158786 18.2531 0.528882 19.5239 1.46622 20.4613C2.40356 21.3986 3.67441 21.9259 5 21.9275H19C20.3256 21.9259 21.5964 21.3986 22.5338 20.4613C23.4711 19.5239 23.9984 18.2531 24 16.9275V8.92749C23.9984 7.6019 23.4711 6.33105 22.5338 5.39371C21.5964 4.45637 20.3256 3.92908 19 3.92749ZM5 5.92749H19C19.7956 5.92749 20.5587 6.24356 21.1213 6.80617C21.6839 7.36878 22 8.13184 22 8.92749H2C2 8.13184 2.31607 7.36878 2.87868 6.80617C3.44129 6.24356 4.20435 5.92749 5 5.92749ZM19 19.9275H5C4.20435 19.9275 3.44129 19.6114 2.87868 19.0488C2.31607 18.4862 2 17.7231 2 16.9275V10.9275H22V16.9275C22 17.7231 21.6839 18.4862 21.1213 19.0488C20.5587 19.6114 19.7956 19.9275 19 19.9275Z" fill="#374957"/>
</g>
<defs>
<clipPath id="clip0_507_1988">
<rect width="24" height="24" fill="white" transform="translate(0 0.92749)"/>
</clipPath>
</defs>
</svg>
