<svg width="24" height="25" viewBox="0 0 24 25" fill="none" xmlns="http://www.w3.org/2000/svg">
<g clip-path="url(#clip0_507_1964)">
<path d="M18.7462 21.2616C18.8337 21.3596 18.9011 21.474 18.9444 21.5981C18.9877 21.7222 19.0062 21.8536 18.9986 21.9849C18.9911 22.1161 18.9578 22.2446 18.9006 22.3629C18.8434 22.4813 18.7634 22.5872 18.6652 22.6746L17.0792 24.0886C16.8074 24.3576 16.4852 24.5702 16.131 24.7142C15.7767 24.8582 15.3975 24.9307 15.0152 24.9276C14.6186 24.9283 14.2258 24.8508 13.8593 24.6995C13.4927 24.5481 13.1597 24.3259 12.8792 24.0456L11.3352 22.6716C11.2371 22.5842 11.1571 22.4784 11.0999 22.3602C11.0427 22.242 11.0094 22.1137 11.0017 21.9825C10.9864 21.7177 11.0768 21.4577 11.2532 21.2596C11.4296 21.0614 11.6774 20.9415 11.9422 20.9261C12.0733 20.9185 12.2046 20.9368 12.3287 20.9799C12.4527 21.0231 12.5671 21.0902 12.6652 21.1776L14.0002 22.3716V14.9276C14.0002 14.6623 14.1055 14.408 14.2931 14.2205C14.4806 14.0329 14.735 13.9276 15.0002 13.9276C15.2654 13.9276 15.5198 14.0329 15.7073 14.2205C15.8948 14.408 16.0002 14.6623 16.0002 14.9276V22.3726L17.3352 21.1806C17.5331 21.0043 17.7929 20.9139 18.0574 20.9291C18.322 20.9443 18.5697 21.0639 18.7462 21.2616ZM18.3562 8.28856C18.1845 8.23524 18.0287 8.1402 17.9027 8.01194C17.7767 7.88367 17.6844 7.72619 17.6342 7.55356C17.1047 5.85365 16.0233 4.37894 14.5611 3.36297C13.099 2.34699 11.3397 1.8478 9.56188 1.94445C7.78404 2.04109 6.08925 2.72805 4.74586 3.89654C3.40248 5.06503 2.48728 6.64827 2.14518 8.39556C1.79417 10.1626 2.07744 11.9968 2.94518 13.5756C1.93363 14.0978 1.11109 14.9238 0.593099 15.9376C0.0751089 16.9513 -0.112305 18.1018 0.0571826 19.2276C0.317834 20.5354 1.018 21.7147 2.0414 22.5696C3.0648 23.4246 4.34986 23.9038 5.68318 23.9276H8.00018C8.2654 23.9276 8.51975 23.8222 8.70729 23.6347C8.89482 23.4471 9.00018 23.1928 9.00018 22.9276C9.00018 22.6623 8.89482 22.408 8.70729 22.2204C8.51975 22.0329 8.2654 21.9276 8.00018 21.9276H5.68318C4.82914 21.9112 4.00538 21.6083 3.34417 21.0675C2.68296 20.5267 2.22266 19.7794 2.03718 18.9456C1.92859 18.2291 2.04708 17.4967 2.37601 16.851C2.70493 16.2053 3.22779 15.6789 3.87118 15.3456C4.32977 15.0921 4.67011 14.6683 4.81852 14.1657C4.96694 13.6632 4.91149 13.1225 4.66418 12.6606C4.27589 11.92 4.04668 11.1065 3.99124 10.2721C3.9358 9.43781 4.05537 8.6011 4.34227 7.81569C4.62916 7.03028 5.07706 6.3135 5.65723 5.71135C6.23739 5.10919 6.93701 4.63495 7.71121 4.31904C8.48541 4.00313 9.31709 3.85253 10.1529 3.8769C10.9887 3.90127 11.8102 4.10007 12.5647 4.46055C13.3192 4.82103 13.99 5.33523 14.5341 5.97017C15.0782 6.60511 15.4835 7.34676 15.7242 8.14756C15.8722 8.63026 16.1358 9.06952 16.4922 9.42714C16.8486 9.78475 17.287 10.0499 17.7692 10.1996C19.0755 10.597 20.2061 11.4302 20.9725 12.5603C21.739 13.6903 22.095 15.0489 21.9812 16.4096C21.9059 17.4676 21.5193 18.4797 20.8702 19.3186C20.7085 19.5289 20.6371 19.7948 20.6715 20.0578C20.7059 20.3208 20.8434 20.5594 21.0537 20.7211C21.264 20.8827 21.5299 20.9542 21.7929 20.9198C22.056 20.8854 22.2945 20.7479 22.4562 20.5376C23.3372 19.3889 23.8653 18.0089 23.9762 16.5656C24.1272 14.7512 23.6517 12.94 22.629 11.4338C21.6064 9.92759 20.0982 8.81748 18.3562 8.28856Z" fill="#374957"/>
</g>
<defs>
<clipPath id="clip0_507_1964">
<rect width="24" height="24" fill="white" transform="translate(0 0.92749)"/>
</clipPath>
</defs>
</svg>
