<svg width="24" height="25" viewBox="0 0 24 25" fill="none" xmlns="http://www.w3.org/2000/svg">
<g clip-path="url(#clip0_507_2180)">
<path d="M19.9811 7.95016V1.95016C19.9811 1.68494 20.0864 1.43058 20.274 1.24305C20.4615 1.05551 20.7158 0.950155 20.9811 0.950155C21.2463 0.950155 21.5006 1.05551 21.6882 1.24305C21.8757 1.43058 21.9811 1.68494 21.9811 1.95016V7.95016C21.9811 8.21537 21.8757 8.46973 21.6882 8.65726C21.5006 8.8448 21.2463 8.95016 20.9811 8.95016C20.7158 8.95016 20.4615 8.8448 20.274 8.65726C20.0864 8.46973 19.9811 8.21537 19.9811 7.95016ZM16.9811 8.95016C17.2463 8.95016 17.5006 8.8448 17.6882 8.65726C17.8757 8.46973 17.9811 8.21537 17.9811 7.95016V1.95016C17.9811 1.68494 17.8757 1.43058 17.6882 1.24305C17.5006 1.05551 17.2463 0.950155 16.9811 0.950155C16.7158 0.950155 16.4615 1.05551 16.274 1.24305C16.0864 1.43058 15.9811 1.68494 15.9811 1.95016V7.95016C15.9811 8.21537 16.0864 8.46973 16.274 8.65726C16.4615 8.8448 16.7158 8.95016 16.9811 8.95016ZM23.0761 22.0662L22.1641 23.1162C13.9741 30.9562 -5.95594 11.0322 1.76406 2.81616L2.91406 1.81616C3.49589 1.25242 4.27639 0.940615 5.08648 0.948289C5.89658 0.955963 6.67103 1.2825 7.24206 1.85716C7.27307 1.88716 9.12406 4.29416 9.12406 4.29416C9.67387 4.87148 9.98012 5.63842 9.97919 6.43566C9.97826 7.23289 9.67022 7.99912 9.11907 8.57516L7.95906 10.0272C8.5999 11.5847 9.54221 13.0002 10.7318 14.1924C11.9215 15.3846 13.3349 16.33 14.8911 16.9742L16.3551 15.8092C16.9309 15.2574 17.6972 14.9489 18.4947 14.9476C19.2921 14.9463 20.0594 15.2523 20.6371 15.8022C20.6371 15.8022 23.0441 17.6552 23.0751 17.6862C23.6553 18.2672 23.9813 19.0548 23.9815 19.8759C23.9817 20.6971 23.6561 21.4848 23.0761 22.0662ZM21.7001 19.1432C21.7001 19.1432 19.3001 17.3012 19.2751 17.2712C19.0665 17.0718 18.7891 16.9606 18.5006 16.9606C18.2121 16.9606 17.9346 17.0718 17.7261 17.2712C17.7001 17.2982 15.6821 18.9062 15.6821 18.9062C15.546 19.0142 15.3842 19.0849 15.2126 19.1114C15.0409 19.1379 14.8653 19.1192 14.7031 19.0572C12.6865 18.3071 10.8548 17.1319 9.33247 15.6114C7.81012 14.091 6.63268 12.2608 5.88006 10.2452C5.81435 10.0812 5.79324 9.90274 5.81889 9.72797C5.84453 9.55319 5.91602 9.38833 6.02606 9.25016C6.02606 9.25016 7.63306 7.23316 7.66106 7.20616C7.86564 7.0001 7.98044 6.72152 7.98044 6.43116C7.98044 6.1408 7.86564 5.86221 7.66106 5.65616C7.62906 5.62716 5.78806 3.23316 5.78806 3.23316C5.57909 3.04553 5.30627 2.94494 5.02551 2.95201C4.74476 2.95907 4.47734 3.07326 4.27806 3.27116L3.12706 4.27616C-2.51293 11.0552 14.7581 27.3692 20.7001 21.7532L21.6121 20.7032C21.8266 20.5056 21.9558 20.2322 21.9722 19.941C21.9887 19.6498 21.891 19.3636 21.7001 19.1432Z" fill="#374957"/>
</g>
<defs>
<clipPath id="clip0_507_2180">
<rect width="24" height="24" fill="white" transform="translate(0 0.92749)"/>
</clipPath>
</defs>
</svg>
