<svg width="24" height="25" viewBox="0 0 24 25" fill="none" xmlns="http://www.w3.org/2000/svg">
<g clip-path="url(#clip0_507_1951)">
<path d="M22.2931 13.6275L21.2071 14.7135L17.6221 11.1275C17.0506 10.5824 16.291 10.2782 15.5011 10.2782C14.7113 10.2782 13.9517 10.5824 13.3801 11.1275L13.2071 11.3005C13.0168 11.4826 12.7635 11.5842 12.5001 11.5842C12.2368 11.5842 11.9835 11.4826 11.7931 11.3005L6.72014 6.22155C6.6279 6.12604 6.51755 6.04986 6.39555 5.99745C6.27354 5.94504 6.14232 5.91745 6.00954 5.9163C5.87676 5.91514 5.74509 5.94045 5.62219 5.99073C5.49929 6.04101 5.38764 6.11526 5.29375 6.20915C5.19985 6.30305 5.1256 6.4147 5.07532 6.53759C5.02504 6.66049 4.99974 6.79217 5.00089 6.92495C5.00205 7.05773 5.02963 7.18895 5.08204 7.31095C5.13445 7.43296 5.21063 7.5433 5.30614 7.63555L10.3781 12.7085C10.9496 13.254 11.7092 13.5583 12.4991 13.5583C13.2891 13.5583 14.0487 13.254 14.6201 12.7085L14.7931 12.5355C14.9835 12.3535 15.2368 12.2519 15.5001 12.2519C15.7635 12.2519 16.0168 12.3535 16.2071 12.5355L19.7931 16.1275L18.7071 17.2135C18.5673 17.3534 18.4721 17.5316 18.4336 17.7255C18.395 17.9195 18.4148 18.1205 18.4905 18.3032C18.5661 18.4859 18.6943 18.6421 18.8587 18.752C19.0231 18.8618 19.2164 18.9205 19.4141 18.9206H22.5001C22.898 18.9206 23.2795 18.7625 23.5608 18.4812C23.8421 18.1999 24.0001 17.8184 24.0001 17.4205V14.3275C23.9987 14.1304 23.9391 13.9381 23.8286 13.7747C23.7182 13.6114 23.562 13.4843 23.3796 13.4095C23.1972 13.3347 22.9967 13.3155 22.8034 13.3543C22.6101 13.3931 22.4326 13.4882 22.2931 13.6275Z" fill="#374957"/>
<path d="M23 22.9035H5C4.20435 22.9035 3.44129 22.5874 2.87868 22.0248C2.31607 21.4622 2 20.6991 2 19.9035V1.92749C2 1.66227 1.89464 1.40792 1.70711 1.22038C1.51957 1.03285 1.26522 0.92749 1 0.92749C0.734784 0.92749 0.48043 1.03285 0.292893 1.22038C0.105357 1.40792 0 1.66227 0 1.92749L0 19.9035C0.00158786 21.2291 0.528882 22.4999 1.46622 23.4373C2.40356 24.3746 3.67441 24.9019 5 24.9035H23C23.2652 24.9035 23.5196 24.7981 23.7071 24.6106C23.8946 24.4231 24 24.1687 24 23.9035C24 23.6383 23.8946 23.3839 23.7071 23.1964C23.5196 23.0088 23.2652 22.9035 23 22.9035Z" fill="#374957"/>
</g>
<defs>
<clipPath id="clip0_507_1951">
<rect width="24" height="24" fill="white" transform="translate(0 0.92749)"/>
</clipPath>
</defs>
</svg>
