<svg width="24" height="25" viewBox="0 0 24 25" fill="none" xmlns="http://www.w3.org/2000/svg">
<g clip-path="url(#clip0_507_2163)">
<path d="M19 1.9278H13C11.6744 1.92938 10.4036 2.45668 9.46622 3.39402C8.52888 4.33135 8.00159 5.6022 8 6.9278V14.9538C7.13961 14.292 6.08547 13.9315 5 13.9278C4.0111 13.9278 3.0444 14.221 2.22215 14.7704C1.39991 15.3199 0.759043 16.1007 0.380605 17.0144C0.00216642 17.928 -0.0968503 18.9333 0.0960759 19.9032C0.289002 20.8732 0.765206 21.7641 1.46447 22.4633C2.16373 23.1626 3.05465 23.6388 4.02455 23.8317C4.99446 24.0246 5.99979 23.9256 6.91342 23.5472C7.82705 23.1688 8.60794 22.5279 9.15735 21.7056C9.70676 20.8834 10 19.9167 10 18.9278V6.9278C10 6.13215 10.3161 5.36908 10.8787 4.80648C11.4413 4.24387 12.2044 3.9278 13 3.9278H19C19.7957 3.9278 20.5587 4.24387 21.1213 4.80648C21.6839 5.36908 22 6.13215 22 6.9278V14.9538C21.1396 14.292 20.0855 13.9315 19 13.9278C18.0111 13.9278 17.0444 14.221 16.2222 14.7704C15.3999 15.3199 14.759 16.1007 14.3806 17.0144C14.0022 17.928 13.9032 18.9333 14.0961 19.9032C14.289 20.8732 14.7652 21.7641 15.4645 22.4633C16.1637 23.1626 17.0546 23.6388 18.0246 23.8317C18.9945 24.0246 19.9998 23.9256 20.9134 23.5472C21.8271 23.1688 22.6079 22.5279 23.1574 21.7056C23.7068 20.8834 24 19.9167 24 18.9278V6.9278C23.9984 5.6022 23.4711 4.33135 22.5338 3.39402C21.5964 2.45668 20.3256 1.92938 19 1.9278ZM5 21.9278C4.40666 21.9278 3.82664 21.7519 3.33329 21.4222C2.83994 21.0926 2.45543 20.624 2.22836 20.0758C2.0013 19.5277 1.94189 18.9245 2.05765 18.3425C2.1734 17.7606 2.45912 17.226 2.87868 16.8065C3.29824 16.3869 3.83279 16.1012 4.41473 15.9854C4.99668 15.8697 5.59987 15.9291 6.14805 16.1562C6.69623 16.3832 7.16477 16.7677 7.49441 17.2611C7.82406 17.7544 8 18.3345 8 18.9278C8 19.7234 7.68393 20.4865 7.12132 21.0491C6.55871 21.6117 5.79565 21.9278 5 21.9278ZM19 21.9278C18.4067 21.9278 17.8266 21.7519 17.3333 21.4222C16.8399 21.0926 16.4554 20.624 16.2284 20.0758C16.0013 19.5277 15.9419 18.9245 16.0576 18.3425C16.1734 17.7606 16.4591 17.226 16.8787 16.8065C17.2982 16.3869 17.8328 16.1012 18.4147 15.9854C18.9967 15.8697 19.5999 15.9291 20.1481 16.1562C20.6962 16.3832 21.1648 16.7677 21.4944 17.2611C21.8241 17.7544 22 18.3345 22 18.9278C22 19.7234 21.6839 20.4865 21.1213 21.0491C20.5587 21.6117 19.7957 21.9278 19 21.9278Z" fill="#374957"/>
</g>
<defs>
<clipPath id="clip0_507_2163">
<rect width="24" height="24" fill="white" transform="translate(0 0.92749)"/>
</clipPath>
</defs>
</svg>
