<svg width="24" height="25" viewBox="0 0 24 25" fill="none" xmlns="http://www.w3.org/2000/svg">
<g clip-path="url(#clip0_507_2041)">
<path d="M6.96218 6.7453C7.30736 6.7453 7.58716 6.46546 7.58716 6.12032C7.58716 5.77517 7.30732 5.49533 6.96218 5.49533H4.76219C4.417 5.49533 4.13721 5.77517 4.13721 6.12032V11.3343C4.13721 11.6795 4.41705 11.9593 4.76219 11.9593H6.96218C7.30736 11.9593 7.58716 11.6795 7.58716 11.3343C7.58716 10.9891 7.30732 10.7093 6.96218 10.7093H5.39116V9.35235H6.80018C7.14536 9.35235 7.42516 9.0725 7.42516 8.72736C7.42516 8.38217 7.14532 8.10238 6.80018 8.10238H5.39116V6.74539H6.96218V6.7453Z" fill="#374957"/>
<path d="M8.85099 6.09656V11.3586C8.85099 11.7038 9.13084 11.9835 9.47598 11.9835C9.82116 11.9835 10.101 11.7037 10.101 11.3586V9.69558H10.94C12.1053 9.69558 13.05 8.75091 13.05 7.58559C13.05 6.42028 12.1053 5.47561 10.94 5.47561L10.939 5.47163H9.47499C9.43866 5.47064 9.18446 5.46806 9.00179 5.67413C8.84799 5.84756 8.84954 6.05091 8.85099 6.09656ZM10.939 8.44158H10.107V6.71756H10.944C11.419 6.71756 11.804 7.10259 11.804 7.57758C11.804 8.05256 11.419 8.43759 10.944 8.43759L10.939 8.44158Z" fill="#374957"/>
<path d="M19 0.92749H5.00002C2.23997 0.930818 0.00332812 3.16746 0 5.92751V19.9275C0.00332812 22.6875 2.23997 24.9242 5.00002 24.9275H16.343C17.6699 24.9313 18.9432 24.4041 19.879 23.4635L22.535 20.8055C23.4757 19.8701 24.0033 18.5972 24 17.2705V5.92751C23.9967 3.16746 21.76 0.930818 19 0.92749ZM2.00002 19.9275V5.92751C2.00002 4.27066 3.34317 2.92751 5.00002 2.92751H19C20.6569 2.92751 22 4.27066 22 5.92751V15.9275H18C16.3432 15.9275 15 17.2706 15 18.9275V22.9275H5.00002C3.34312 22.9275 2.00002 21.5844 2.00002 19.9275ZM18.465 22.0495C18.063 22.4505 17.5547 22.7281 17 22.8495V18.9275C17 18.3752 17.4477 17.9275 18 17.9275H21.925C21.8013 18.481 21.524 18.9884 21.125 19.3915L18.465 22.0495Z" fill="#374957"/>
<path d="M16.8567 8.18293C16.5837 8.08993 16.3008 8.03893 16.0218 7.96594C15.8004 7.92127 15.5951 7.81763 15.4278 7.66594C15.2606 7.50741 15.2012 7.26596 15.2757 7.04794C15.3706 6.86007 15.5569 6.73561 15.7668 6.71996C15.973 6.70711 16.1798 6.73744 16.3737 6.80897C16.6525 6.89588 16.926 6.99905 17.1927 7.11797C17.4877 7.24697 17.8338 7.32399 18.0717 7.04396C18.2466 6.8333 18.2597 6.53199 18.1038 6.30694C18.0001 6.15633 17.8601 6.03422 17.6967 5.95196C16.9647 5.52216 16.0912 5.40296 15.2707 5.62097C14.8374 5.75813 14.4712 6.05288 14.2447 6.44696C14.1385 6.63389 14.0683 6.83911 14.0377 7.05197C13.9819 7.4348 14.065 7.82499 14.2717 8.15199C14.5051 8.49361 14.8419 8.75124 15.2327 8.88699C15.6417 9.05499 16.0497 9.21797 16.4647 9.36999C16.6434 9.42619 16.8078 9.52032 16.9467 9.64599C17.1034 9.79439 17.1616 10.0192 17.0967 10.225C17.0124 10.422 16.845 10.5714 16.6398 10.633C16.3276 10.7504 15.9856 10.7626 15.6657 10.668C15.3545 10.5554 15.067 10.3858 14.8177 10.168C14.7917 10.147 14.7067 10.083 14.6907 10.068C14.4577 9.90141 14.1394 9.92274 13.9308 10.119C13.675 10.3509 13.6557 10.7461 13.8876 11.0018C13.8876 11.0019 13.8877 11.0019 13.8877 11.002C14.4843 11.6356 15.3175 11.9924 16.1877 11.987C17.219 12.0323 18.1354 11.3343 18.3657 10.328C18.4628 9.71907 18.2354 9.1036 17.7657 8.70404C17.5002 8.47182 17.1912 8.29472 16.8567 8.18293Z" fill="#374957"/>
</g>
<defs>
<clipPath id="clip0_507_2041">
<rect width="24" height="24" fill="white" transform="translate(0 0.92749)"/>
</clipPath>
</defs>
</svg>
