<svg width="24" height="25" viewBox="0 0 24 25" fill="none" xmlns="http://www.w3.org/2000/svg">
<g clip-path="url(#clip0_507_2219)">
<path d="M15.9999 8.927C14.8696 8.92795 13.7525 9.16918 12.7226 9.63467C11.6926 10.1002 10.7734 10.7793 10.0259 11.627C9.54936 11.3954 9.0477 11.2195 8.53086 11.103L9.89986 8.374C9.97586 8.22184 10.0118 8.05283 10.0043 7.88292C9.99674 7.71301 9.94601 7.54783 9.85686 7.40299C9.53942 6.94033 9.1124 6.56342 8.61389 6.30588C8.11539 6.04834 7.56089 5.91817 6.99986 5.927C6.43967 5.919 5.88619 6.04956 5.38862 6.30707C4.89106 6.56457 4.46484 6.94104 4.14786 7.40299C4.05872 7.54783 4.00798 7.71301 4.00046 7.88292C3.99293 8.05283 4.02887 8.22184 4.10486 8.374L5.46886 11.101C4.43983 11.3276 3.47523 11.7835 2.64698 12.4349C1.81874 13.0862 1.14822 13.9162 0.685432 14.8628C0.222644 15.8094 -0.0204727 16.8482 -0.0257898 17.9019C-0.0311069 18.9556 0.201513 19.9969 0.654724 20.9481C1.10793 21.8993 1.77004 22.736 2.59167 23.3956C3.4133 24.0553 4.37325 24.521 5.39995 24.7579C6.42664 24.9949 7.49358 24.997 8.5212 24.7641C9.54883 24.5313 10.5106 24.0694 11.3349 23.413C12.3582 24.1519 13.5419 24.6382 14.7892 24.832C16.0365 25.0259 17.3119 24.9219 18.5113 24.5285C19.7107 24.1351 20.7999 23.4635 21.6901 22.5685C22.5802 21.6736 23.2459 20.5807 23.6329 19.3792C24.0198 18.1777 24.1169 16.9018 23.9163 15.6556C23.7157 14.4094 23.223 13.2283 22.4786 12.2089C21.7342 11.1896 20.7591 10.3608 19.6331 9.7904C18.5071 9.22 17.2621 8.92414 15.9999 8.927ZM11.2339 20.557C10.5698 19.6942 10.1554 18.6656 10.0359 17.5834C9.91629 16.5012 10.0962 15.407 10.5559 14.42C11.3482 15.2144 11.8469 16.2545 11.9701 17.3697C12.0933 18.4849 11.8337 19.6088 11.2339 20.557ZM1.99986 17.927C1.99775 17.1073 2.19773 16.2997 2.58209 15.5757C2.96645 14.8517 3.52335 14.2336 4.20351 13.7761C4.88366 13.3186 5.6661 13.0359 6.48158 12.9528C7.29706 12.8698 8.12045 12.989 8.87886 13.3C8.16531 14.6893 7.87641 16.258 8.04819 17.8104C8.21997 19.3628 8.84482 20.8303 9.84486 22.03C9.09605 22.5524 8.21826 22.8593 7.30709 22.9173C6.39592 22.9754 5.48629 22.7823 4.67724 22.3592C3.86819 21.9361 3.19074 21.2991 2.71866 20.5176C2.24657 19.7361 1.99795 18.84 1.99986 17.927ZM15.9999 22.927C14.8348 22.9274 13.6952 22.5863 12.7219 21.946C13.7064 20.5542 14.1462 18.8496 13.9579 17.1553C13.7695 15.4609 12.9661 13.8945 11.6999 12.753C12.3894 12.0409 13.2446 11.5108 14.1891 11.21C15.1336 10.9092 16.1378 10.847 17.1122 11.0291C18.0865 11.2112 19.0006 11.6318 19.7727 12.2534C20.5448 12.875 21.1508 13.6782 21.5367 14.5912C21.9226 15.5042 22.0763 16.4986 21.984 17.4855C21.8917 18.4724 21.5564 19.4211 21.008 20.2467C20.4595 21.0724 19.7151 21.7493 18.8412 22.2171C17.9673 22.6848 16.9911 22.9287 15.9999 22.927Z" fill="#374957"/>
<path d="M10.5529 5.82269C10.6706 5.88223 10.799 5.91787 10.9306 5.92756C11.0622 5.93725 11.1944 5.9208 11.3196 5.87916C11.4449 5.83751 11.5606 5.7715 11.6602 5.68492C11.7598 5.59834 11.8412 5.4929 11.8999 5.37469L12.8999 3.37469C13.0184 3.13732 13.0378 2.86258 12.9538 2.61091C12.8698 2.35924 12.6892 2.15125 12.4519 2.03269C12.3343 1.97399 12.2064 1.93902 12.0753 1.92976C11.9443 1.92051 11.8127 1.93716 11.6881 1.97876C11.4364 2.06277 11.2284 2.24332 11.1099 2.48069L10.1099 4.48069C9.99084 4.71743 9.97064 4.99173 10.0537 5.24335C10.1368 5.49497 10.3163 5.70334 10.5529 5.82269Z" fill="#374957"/>
<path d="M2.10493 5.37468C2.22349 5.61271 2.43174 5.7939 2.68388 5.87838C2.80873 5.92022 2.9406 5.93705 3.07195 5.92792C3.2033 5.91879 3.33157 5.88388 3.44943 5.82518C3.5673 5.76648 3.67244 5.68514 3.75887 5.5858C3.84529 5.48647 3.91131 5.37108 3.95314 5.24623C3.99497 5.12138 4.01181 4.98952 4.00268 4.85816C3.99355 4.72681 3.95864 4.59854 3.89993 4.48068L2.89993 2.48068C2.78138 2.24331 2.57339 2.06276 2.32172 1.97874C2.07004 1.89473 1.7953 1.91413 1.55793 2.03268C1.32057 2.15123 1.14001 2.35922 1.056 2.6109C0.971981 2.86257 0.991383 3.13731 1.10993 3.37468L2.10493 5.37468Z" fill="#374957"/>
<path d="M7 4.92749C7.26521 4.92749 7.51957 4.82213 7.7071 4.6346C7.89464 4.44706 8 4.19271 8 3.92749V1.92749C8 1.66227 7.89464 1.40792 7.7071 1.22038C7.51957 1.03285 7.26521 0.92749 7 0.92749C6.73478 0.92749 6.48043 1.03285 6.29289 1.22038C6.10536 1.40792 6 1.66227 6 1.92749V3.92749C6 4.19271 6.10536 4.44706 6.29289 4.6346C6.48043 4.82213 6.73478 4.92749 7 4.92749Z" fill="#374957"/>
</g>
<defs>
<clipPath id="clip0_507_2219">
<rect width="24" height="24" fill="white" transform="translate(0 0.92749)"/>
</clipPath>
</defs>
</svg>
