<svg width="24" height="25" viewBox="0 0 24 25" fill="none" xmlns="http://www.w3.org/2000/svg">
<g clip-path="url(#clip0_507_1924)">
<path d="M7 14.9275C7 15.1927 6.89464 15.4471 6.70711 15.6346C6.51957 15.8221 6.26522 15.9275 6 15.9275H5C4.73478 15.9275 4.48043 15.8221 4.29289 15.6346C4.10536 15.4471 4 15.1927 4 14.9275C4 14.6623 4.10536 14.4079 4.29289 14.2204C4.48043 14.0328 4.73478 13.9275 5 13.9275H6C6.26522 13.9275 6.51957 14.0328 6.70711 14.2204C6.89464 14.4079 7 14.6623 7 14.9275ZM11 13.9275H10C9.73478 13.9275 9.48043 14.0328 9.29289 14.2204C9.10536 14.4079 9 14.6623 9 14.9275C9 15.1927 9.10536 15.4471 9.29289 15.6346C9.48043 15.8221 9.73478 15.9275 10 15.9275H11C11.2652 15.9275 11.5196 15.8221 11.7071 15.6346C11.8946 15.4471 12 15.1927 12 14.9275C12 14.6623 11.8946 14.4079 11.7071 14.2204C11.5196 14.0328 11.2652 13.9275 11 13.9275ZM6 17.9275H5C4.73478 17.9275 4.48043 18.0328 4.29289 18.2204C4.10536 18.4079 4 18.6623 4 18.9275C4 19.1927 4.10536 19.4471 4.29289 19.6346C4.48043 19.8221 4.73478 19.9275 5 19.9275H6C6.26522 19.9275 6.51957 19.8221 6.70711 19.6346C6.89464 19.4471 7 19.1927 7 18.9275C7 18.6623 6.89464 18.4079 6.70711 18.2204C6.51957 18.0328 6.26522 17.9275 6 17.9275ZM11 17.9275H10C9.73478 17.9275 9.48043 18.0328 9.29289 18.2204C9.10536 18.4079 9 18.6623 9 18.9275C9 19.1927 9.10536 19.4471 9.29289 19.6346C9.48043 19.8221 9.73478 19.9275 10 19.9275H11C11.2652 19.9275 11.5196 19.8221 11.7071 19.6346C11.8946 19.4471 12 19.1927 12 18.9275C12 18.6623 11.8946 18.4079 11.7071 18.2204C11.5196 18.0328 11.2652 17.9275 11 17.9275ZM6 5.92749H5C4.73478 5.92749 4.48043 6.03285 4.29289 6.22038C4.10536 6.40792 4 6.66227 4 6.92749C4 7.19271 4.10536 7.44706 4.29289 7.6346C4.48043 7.82213 4.73478 7.92749 5 7.92749H6C6.26522 7.92749 6.51957 7.82213 6.70711 7.6346C6.89464 7.44706 7 7.19271 7 6.92749C7 6.66227 6.89464 6.40792 6.70711 6.22038C6.51957 6.03285 6.26522 5.92749 6 5.92749ZM11 5.92749H10C9.73478 5.92749 9.48043 6.03285 9.29289 6.22038C9.10536 6.40792 9 6.66227 9 6.92749C9 7.19271 9.10536 7.44706 9.29289 7.6346C9.48043 7.82213 9.73478 7.92749 10 7.92749H11C11.2652 7.92749 11.5196 7.82213 11.7071 7.6346C11.8946 7.44706 12 7.19271 12 6.92749C12 6.66227 11.8946 6.40792 11.7071 6.22038C11.5196 6.03285 11.2652 5.92749 11 5.92749ZM6 9.92749H5C4.73478 9.92749 4.48043 10.0328 4.29289 10.2204C4.10536 10.4079 4 10.6623 4 10.9275C4 11.1927 4.10536 11.4471 4.29289 11.6346C4.48043 11.8221 4.73478 11.9275 5 11.9275H6C6.26522 11.9275 6.51957 11.8221 6.70711 11.6346C6.89464 11.4471 7 11.1927 7 10.9275C7 10.6623 6.89464 10.4079 6.70711 10.2204C6.51957 10.0328 6.26522 9.92749 6 9.92749ZM11 9.92749H10C9.73478 9.92749 9.48043 10.0328 9.29289 10.2204C9.10536 10.4079 9 10.6623 9 10.9275C9 11.1927 9.10536 11.4471 9.29289 11.6346C9.48043 11.8221 9.73478 11.9275 10 11.9275H11C11.2652 11.9275 11.5196 11.8221 11.7071 11.6346C11.8946 11.4471 12 11.1927 12 10.9275C12 10.6623 11.8946 10.4079 11.7071 10.2204C11.5196 10.0328 11.2652 9.92749 11 9.92749ZM24 10.9275V19.9275C23.9984 21.2531 23.4711 22.5239 22.5338 23.4613C21.5964 24.3986 20.3256 24.9259 19 24.9275H5C3.67441 24.9259 2.40356 24.3986 1.46622 23.4613C0.528882 22.5239 0.00158786 21.2531 0 19.9275L0 5.92749C0.00158786 4.6019 0.528882 3.33105 1.46622 2.39371C2.40356 1.45637 3.67441 0.929078 5 0.92749L11 0.92749C12.3256 0.929078 13.5964 1.45637 14.5338 2.39371C15.4711 3.33105 15.9984 4.6019 16 5.92749H19C20.3256 5.92908 21.5964 6.45637 22.5338 7.39371C23.4711 8.33105 23.9984 9.6019 24 10.9275ZM5 22.9275H14V5.92749C14 5.13184 13.6839 4.36878 13.1213 3.80617C12.5587 3.24356 11.7956 2.92749 11 2.92749H5C4.20435 2.92749 3.44129 3.24356 2.87868 3.80617C2.31607 4.36878 2 5.13184 2 5.92749V19.9275C2 20.7231 2.31607 21.4862 2.87868 22.0488C3.44129 22.6114 4.20435 22.9275 5 22.9275ZM22 10.9275C22 10.1318 21.6839 9.36878 21.1213 8.80617C20.5587 8.24356 19.7956 7.92749 19 7.92749H16V22.9275H19C19.7956 22.9275 20.5587 22.6114 21.1213 22.0488C21.6839 21.4862 22 20.7231 22 19.9275V10.9275ZM19 13.9275C18.8022 13.9275 18.6089 13.9861 18.4444 14.096C18.28 14.2059 18.1518 14.3621 18.0761 14.5448C18.0004 14.7275 17.9806 14.9286 18.0192 15.1226C18.0578 15.3166 18.153 15.4947 18.2929 15.6346C18.4327 15.7744 18.6109 15.8697 18.8049 15.9083C18.9989 15.9469 19.2 15.9271 19.3827 15.8514C19.5654 15.7757 19.7216 15.6475 19.8315 15.4831C19.9414 15.3186 20 15.1253 20 14.9275C20 14.6623 19.8946 14.4079 19.7071 14.2204C19.5196 14.0328 19.2652 13.9275 19 13.9275ZM19 17.9275C18.8022 17.9275 18.6089 17.9861 18.4444 18.096C18.28 18.2059 18.1518 18.3621 18.0761 18.5448C18.0004 18.7275 17.9806 18.9286 18.0192 19.1226C18.0578 19.3166 18.153 19.4947 18.2929 19.6346C18.4327 19.7745 18.6109 19.8697 18.8049 19.9083C18.9989 19.9469 19.2 19.9271 19.3827 19.8514C19.5654 19.7757 19.7216 19.6475 19.8315 19.4831C19.9414 19.3186 20 19.1253 20 18.9275C20 18.6623 19.8946 18.4079 19.7071 18.2204C19.5196 18.0328 19.2652 17.9275 19 17.9275ZM19 9.92749C18.8022 9.92749 18.6089 9.98614 18.4444 10.096C18.28 10.2059 18.1518 10.3621 18.0761 10.5448C18.0004 10.7275 17.9806 10.9286 18.0192 11.1226C18.0578 11.3166 18.153 11.4947 18.2929 11.6346C18.4327 11.7744 18.6109 11.8697 18.8049 11.9083C18.9989 11.9469 19.2 11.9271 19.3827 11.8514C19.5654 11.7757 19.7216 11.6475 19.8315 11.4831C19.9414 11.3186 20 11.1253 20 10.9275C20 10.6623 19.8946 10.4079 19.7071 10.2204C19.5196 10.0328 19.2652 9.92749 19 9.92749Z" fill="#374957"/>
</g>
<defs>
<clipPath id="clip0_507_1924">
<rect width="24" height="24" fill="white" transform="translate(0 0.92749)"/>
</clipPath>
</defs>
</svg>
