<svg width="24" height="25" viewBox="0 0 24 25" fill="none" xmlns="http://www.w3.org/2000/svg">
<g clip-path="url(#clip0_507_2160)">
<path d="M13.0001 3.92748V1.92748C13.0001 1.66227 12.8948 1.40791 12.7072 1.22038C12.5197 1.03284 12.2653 0.927483 12.0001 0.927483C11.7349 0.927483 11.4806 1.03284 11.293 1.22038C11.1055 1.40791 11.0001 1.66227 11.0001 1.92748V3.92748C9.14426 3.9296 7.36501 4.66778 6.05271 5.98007C4.74042 7.29237 4.00224 9.07162 4.00012 10.9275V16.9275C4.00012 19.0492 4.84298 21.084 6.34327 22.5843C7.84356 24.0846 9.87839 24.9275 12.0001 24.9275C14.1219 24.9275 16.1567 24.0846 17.657 22.5843C19.1573 21.084 20.0001 19.0492 20.0001 16.9275V10.9275C19.998 9.07162 19.2598 7.29237 17.9475 5.98007C16.6352 4.66778 14.856 3.9296 13.0001 3.92748ZM18.0001 16.9275C18.0001 18.5188 17.368 20.0449 16.2428 21.1701C15.1175 22.2953 13.5914 22.9275 12.0001 22.9275C10.4088 22.9275 8.8827 22.2953 7.75748 21.1701C6.63226 20.0449 6.00012 18.5188 6.00012 16.9275V10.9275C6.00171 9.60189 6.529 8.33104 7.46634 7.3937C8.40368 6.45636 9.67453 5.92907 11.0001 5.92748H13.0001C14.3257 5.92907 15.5966 6.45636 16.5339 7.3937C17.4712 8.33104 17.9985 9.60189 18.0001 10.9275V16.9275Z" fill="#374957"/>
<path d="M12.0001 7.9278C11.7349 7.9278 11.4806 8.03315 11.293 8.22069C11.1055 8.40822 11.0001 8.66258 11.0001 8.92779V10.9278C11.0001 11.193 11.1055 11.4474 11.293 11.6349C11.4806 11.8224 11.7349 11.9278 12.0001 11.9278C12.2653 11.9278 12.5197 11.8224 12.7072 11.6349C12.8948 11.4474 13.0001 11.193 13.0001 10.9278V8.92779C13.0001 8.66258 12.8948 8.40822 12.7072 8.22069C12.5197 8.03315 12.2653 7.9278 12.0001 7.9278Z" fill="#374957"/>
</g>
<defs>
<clipPath id="clip0_507_2160">
<rect width="24" height="24" fill="white" transform="translate(0 0.92749)"/>
</clipPath>
</defs>
</svg>
