<svg width="24" height="25" viewBox="0 0 24 25" fill="none" xmlns="http://www.w3.org/2000/svg">
<g clip-path="url(#clip0_507_2301)">
<path d="M23.7068 17.2516C23.5193 17.0641 23.265 16.9588 22.9998 16.9588C22.7347 16.9588 22.4804 17.0641 22.2928 17.2516L16.6658 22.8796L13.9778 20.2266C13.7922 20.0363 13.5385 19.9275 13.2727 19.9243C13.0069 19.921 12.7506 20.0234 12.5603 20.2091C12.37 20.3947 12.2613 20.6484 12.258 20.9142C12.2547 21.18 12.3572 21.4363 12.5428 21.6266L15.2868 24.3266C15.459 24.5122 15.6668 24.661 15.898 24.7641C16.1291 24.8672 16.3788 24.9225 16.6318 24.9266H16.6648C16.9129 24.9274 17.1586 24.8789 17.3878 24.784C17.617 24.6891 17.825 24.5496 17.9998 24.3736L23.7068 18.6656C23.8943 18.4781 23.9996 18.2238 23.9996 17.9586C23.9996 17.6934 23.8943 17.4391 23.7068 17.2516Z" fill="#374957"/>
<path d="M11.09 22.8856C9.15904 22.7092 7.32103 21.9752 5.79973 20.7729C4.27842 19.5707 3.13945 17.9521 2.52147 16.1142C1.9035 14.2763 1.83317 12.2984 2.31906 10.4213C2.80494 8.54414 3.82608 6.84875 5.25816 5.54151C6.69024 4.23426 8.47147 3.37155 10.385 3.05841C12.2986 2.74526 14.2619 2.99519 16.036 3.77776C17.81 4.56034 19.3183 5.8418 20.3772 7.46614C21.4361 9.09049 21.9999 10.9876 22 12.9266C22 13.2336 21.985 13.5376 21.959 13.8376C21.9468 13.9688 21.9605 14.101 21.9995 14.2268C22.0385 14.3525 22.102 14.4694 22.1863 14.5706C22.2706 14.6717 22.374 14.7553 22.4906 14.8164C22.6073 14.8775 22.7348 14.915 22.866 14.9266C22.9971 14.9398 23.1295 14.9267 23.2554 14.888C23.3813 14.8493 23.4982 14.7859 23.5993 14.7014C23.7004 14.6169 23.7836 14.5131 23.844 14.396C23.9043 14.2789 23.9407 14.151 23.951 14.0196C23.983 13.6566 24 13.2936 24 12.9266C23.9999 10.5998 23.3233 8.32309 22.0525 6.37384C20.7817 4.42458 18.9717 2.88683 16.8427 1.9478C14.7137 1.00877 12.3576 0.708966 10.0613 1.0849C7.76496 1.46083 5.62746 2.49628 3.90904 4.06518C2.19062 5.63408 0.965399 7.66874 0.382551 9.92145C-0.200297 12.1742 -0.115628 14.5477 0.62625 16.7532C1.36813 18.9586 2.73521 20.9008 4.56105 22.3433C6.38689 23.7858 8.59273 24.6663 10.91 24.8776H11.001C11.2662 24.8895 11.5253 24.7954 11.7211 24.6162C11.917 24.437 12.0337 24.1874 12.0455 23.9221C12.0573 23.6569 11.9633 23.3979 11.7841 23.202C11.6049 23.0061 11.3552 22.8895 11.09 22.8776V22.8856Z" fill="#374957"/>
<path d="M11.0002 7.92749V12.5135L8.2932 15.2205C8.19769 15.3127 8.12151 15.4231 8.0691 15.5451C8.01669 15.6671 7.98911 15.7983 7.98795 15.9311C7.9868 16.0639 8.0121 16.1955 8.06238 16.3184C8.11266 16.4413 8.18692 16.553 8.28081 16.6469C8.3747 16.7408 8.48635 16.815 8.60925 16.8653C8.73214 16.9156 8.86382 16.9409 8.9966 16.9397C9.12938 16.9386 9.2606 16.911 9.3826 16.8586C9.50461 16.8062 9.61495 16.73 9.7072 16.6345L12.7072 13.6345C12.8947 13.447 13.0001 13.1927 13.0002 12.9275V7.92749C13.0002 7.66227 12.8948 7.40792 12.7073 7.22038C12.5198 7.03285 12.2654 6.92749 12.0002 6.92749C11.735 6.92749 11.4806 7.03285 11.2931 7.22038C11.1056 7.40792 11.0002 7.66227 11.0002 7.92749Z" fill="#374957"/>
</g>
<defs>
<clipPath id="clip0_507_2301">
<rect width="24" height="24" fill="white" transform="translate(0 0.92749)"/>
</clipPath>
</defs>
</svg>
