<svg width="24" height="25" viewBox="0 0 24 25" fill="none" xmlns="http://www.w3.org/2000/svg">
<g clip-path="url(#clip0_507_1907)">
<path d="M10.0001 8.92756C10.3957 8.92756 10.7824 9.04486 11.1113 9.26462C11.4402 9.48439 11.6965 9.79674 11.8479 10.1622C11.9993 10.5276 12.0389 10.9298 11.9617 11.3177C11.8845 11.7057 11.6941 12.0621 11.4144 12.3418C11.1346 12.6215 10.7783 12.812 10.3903 12.8891C10.0024 12.9663 9.60022 12.9267 9.23477 12.7753C8.86932 12.6239 8.55696 12.3676 8.3372 12.0387C8.11744 11.7098 8.00014 11.3231 8.00014 10.9276C8.00014 10.3971 8.21085 9.88842 8.58593 9.51335C8.961 9.13828 9.46971 8.92756 10.0001 8.92756ZM24.0001 10.9276C23.9901 14.2212 22.8411 17.4099 20.7479 19.9529C18.6548 22.4959 15.7464 24.2365 12.5161 24.8796C12.0884 24.9577 11.6486 24.9403 11.2283 24.8286C10.8081 24.717 10.4177 24.5138 10.0851 24.2336C9.74548 23.9507 9.47222 23.5966 9.28471 23.1964C9.0972 22.7962 9.00005 22.3596 9.00014 21.9176V20.8766C7.31732 20.7086 5.7046 20.1165 4.3128 19.1558C2.92099 18.1951 1.79557 16.8971 1.04179 15.3832C0.288001 13.8693 -0.0695267 12.1889 0.00264053 10.4993C0.0748077 8.80966 0.574312 7.16592 1.45444 5.72181C2.33457 4.27769 3.56657 3.08038 5.03522 2.24184C6.50387 1.4033 8.1612 0.950924 9.85221 0.927024C11.5432 0.903125 13.2127 1.30848 14.7044 2.10518C16.1962 2.90188 17.4616 4.0639 18.3821 5.48256C18.4538 5.593 18.503 5.71647 18.5269 5.84592C18.5508 5.97537 18.549 6.10826 18.5215 6.23701C18.4941 6.36576 18.4416 6.48784 18.367 6.59629C18.2923 6.70474 18.1971 6.79743 18.0866 6.86906C17.9762 6.9407 17.8527 6.98988 17.7233 7.0138C17.5938 7.03772 17.4609 7.0359 17.3322 7.00847C17.2034 6.98103 17.0814 6.9285 16.9729 6.85387C16.8645 6.77925 16.7718 6.684 16.7001 6.57356C15.761 5.12596 14.379 4.0208 12.7603 3.42299C11.1416 2.82519 9.37302 2.76678 7.71841 3.25648C6.0638 3.74618 4.61188 4.75774 3.57928 6.14022C2.54668 7.52271 1.98875 9.20201 1.98875 10.9276C1.98875 12.6531 2.54668 14.3324 3.57928 15.7149C4.61188 17.0974 6.0638 18.1089 7.71841 18.5986C9.37302 19.0883 11.1416 19.0299 12.7603 18.4321C14.379 17.8343 15.761 16.7292 16.7001 15.2816C16.7718 15.1714 16.8644 15.0765 16.9727 15.0022C17.081 14.9279 17.2029 14.8756 17.3315 14.8484C17.46 14.8212 17.5926 14.8196 17.7217 14.8436C17.8509 14.8677 17.974 14.9169 18.0841 14.9886C18.1943 15.0602 18.2892 15.1528 18.3635 15.2611C18.4378 15.3695 18.4901 15.4914 18.5173 15.6199C18.5445 15.7484 18.5461 15.881 18.5221 16.0102C18.498 16.1393 18.4488 16.2624 18.3771 16.3726C17.5636 17.6271 16.478 18.6823 15.2009 19.4599C13.9239 20.2375 12.4881 20.7176 11.0001 20.8646V21.9176C11.0002 22.0667 11.0332 22.214 11.0966 22.349C11.16 22.4839 11.2524 22.6033 11.3671 22.6986C11.4747 22.791 11.6016 22.858 11.7384 22.8949C11.8753 22.9318 12.0188 22.9375 12.1581 22.9116C14.4346 22.4603 16.5349 21.3688 18.2124 19.7651C19.89 18.1615 21.0749 16.1124 21.6281 13.8586C21.4219 13.9039 21.2113 13.9271 21.0001 13.9276C20.4068 13.9276 19.8268 13.7516 19.3334 13.422C18.8401 13.0923 18.4556 12.6238 18.2285 12.0756C18.0014 11.5274 17.942 10.9242 18.0578 10.3423C18.1735 9.76035 18.4593 9.2258 18.8788 8.80624C19.2984 8.38668 19.8329 8.10096 20.4149 7.98521C20.9968 7.86945 21.6 7.92886 22.1482 8.15592C22.6964 8.38299 23.1649 8.7675 23.4945 9.26085C23.8242 9.7542 24.0001 10.3342 24.0001 10.9276ZM22.0001 10.9276C22.0001 10.7298 21.9415 10.5364 21.8316 10.372C21.7217 10.2075 21.5655 10.0794 21.3828 10.0037C21.2001 9.92799 20.999 9.90819 20.805 9.94678C20.6111 9.98536 20.4329 10.0806 20.293 10.2205C20.1532 10.3603 20.0579 10.5385 20.0194 10.7325C19.9808 10.9265 20.0006 11.1275 20.0763 11.3102C20.1519 11.493 20.2801 11.6491 20.4446 11.759C20.609 11.8689 20.8024 11.9276 21.0001 11.9276C21.2654 11.9276 21.5197 11.8222 21.7072 11.6347C21.8948 11.4471 22.0001 11.1928 22.0001 10.9276Z" fill="#374957"/>
</g>
<defs>
<clipPath id="clip0_507_1907">
<rect width="24" height="24" fill="white" transform="translate(0 0.92749)"/>
</clipPath>
</defs>
</svg>
