<svg width="24" height="25" viewBox="0 0 24 25" fill="none" xmlns="http://www.w3.org/2000/svg">
<g clip-path="url(#clip0_507_2228)">
<path d="M20 11.9269H19V5.92686C19 4.866 18.5786 3.84858 17.8284 3.09844C17.0783 2.34829 16.0609 1.92686 15 1.92686H4C2.93913 1.92686 1.92172 2.34829 1.17157 3.09844C0.421427 3.84858 0 4.866 0 5.92686L0 16.9269C0.0021456 17.5578 0.203551 18.1719 0.575468 18.6816C0.947384 19.1912 1.4708 19.5704 2.071 19.7649C2.02573 19.9827 2.00195 20.2044 2 20.4269C2 21.3551 2.36875 22.2454 3.02513 22.9017C3.6815 23.5581 4.57174 23.9269 5.5 23.9269C6.42826 23.9269 7.3185 23.5581 7.97487 22.9017C8.63125 22.2454 9 21.3551 9 20.4269C8.99843 20.2594 8.98473 20.0923 8.959 19.9269H15.041C15.0153 20.0923 15.0016 20.2594 15 20.4269C15 21.3551 15.3687 22.2454 16.0251 22.9017C16.6815 23.5581 17.5717 23.9269 18.5 23.9269C19.4283 23.9269 20.3185 23.5581 20.9749 22.9017C21.6313 22.2454 22 21.3551 22 20.4269C21.998 20.2044 21.9743 19.9827 21.929 19.7649C22.5292 19.5704 23.0526 19.1912 23.4245 18.6816C23.7964 18.1719 23.9979 17.5578 24 16.9269V15.9269C24 14.866 23.5786 13.8486 22.8284 13.0984C22.0783 12.3483 21.0609 11.9269 20 11.9269ZM2 11.9269V7.92686H4V11.9269H2ZM6 7.92686H8V11.9269H6V7.92686ZM10 7.92686H13V17.9269H10V7.92686ZM15 7.92686H17V11.9269H15V7.92686ZM4 3.92686H15C15.5304 3.92686 16.0391 4.13758 16.4142 4.51265C16.7893 4.88772 17 5.39643 17 5.92686H2C2 5.39643 2.21071 4.88772 2.58579 4.51265C2.96086 4.13758 3.46957 3.92686 4 3.92686ZM2 13.9269H8V17.9269H3C2.73478 17.9269 2.48043 17.8215 2.29289 17.634C2.10536 17.4464 2 17.1921 2 16.9269V13.9269ZM7 20.4269C7 20.8247 6.84196 21.2062 6.56066 21.4875C6.27936 21.7688 5.89782 21.9269 5.5 21.9269C5.10218 21.9269 4.72064 21.7688 4.43934 21.4875C4.15804 21.2062 4 20.8247 4 20.4269C4.00044 20.2559 4.03195 20.0865 4.093 19.9269H6.907C6.96805 20.0865 6.99956 20.2559 7 20.4269ZM18.5 21.9269C18.1022 21.9269 17.7206 21.7688 17.4393 21.4875C17.158 21.2062 17 20.8247 17 20.4269C17.0004 20.2559 17.0319 20.0865 17.093 19.9269H19.907C19.9681 20.0865 19.9996 20.2559 20 20.4269C20 20.8247 19.842 21.2062 19.5607 21.4875C19.2794 21.7688 18.8978 21.9269 18.5 21.9269ZM22 16.9269C22 17.1921 21.8946 17.4464 21.7071 17.634C21.5196 17.8215 21.2652 17.9269 21 17.9269H15V13.9269H20C20.5304 13.9269 21.0391 14.1376 21.4142 14.5127C21.7893 14.8877 22 15.3964 22 15.9269V16.9269Z" fill="#374957"/>
</g>
<defs>
<clipPath id="clip0_507_2228">
<rect width="24" height="24" fill="white" transform="translate(0 0.92749)"/>
</clipPath>
</defs>
</svg>
