<svg width="24" height="25" viewBox="0 0 24 25" fill="none" xmlns="http://www.w3.org/2000/svg">
<g clip-path="url(#clip0_507_1937)">
<path d="M20.8999 5.21855C20.5477 4.25477 19.9081 3.42235 19.0675 2.83379C18.227 2.24522 17.226 1.9289 16.1999 1.92755H7.79988C6.77376 1.9289 5.77279 2.24522 4.93224 2.83379C4.09169 3.42235 3.45209 4.25477 3.09988 5.21855L0.399883 12.6456C0.134332 13.377 -0.0010468 14.1494 -0.000117316 14.9276V15.9276C0.00166701 16.7003 0.183315 17.4621 0.530448 18.1526C0.87758 18.843 1.38067 19.4432 1.99988 19.9056C1.99988 19.9136 1.99988 19.9196 1.99988 19.9276V21.9276C1.99988 22.7232 2.31595 23.4863 2.87856 24.0489C3.44117 24.6115 4.20423 24.9276 4.99988 24.9276C5.79553 24.9276 6.55859 24.6115 7.1212 24.0489C7.68381 23.4863 7.99988 22.7232 7.99988 21.9276V20.9276H15.9999V21.9276C15.9999 22.7232 16.316 23.4863 16.8786 24.0489C17.4412 24.6115 18.2042 24.9276 18.9999 24.9276C19.7955 24.9276 20.5586 24.6115 21.1212 24.0489C21.6838 23.4863 21.9999 22.7232 21.9999 21.9276V19.9276C21.9999 19.9196 21.9999 19.9136 21.9999 19.9056C22.6191 19.4432 23.1222 18.843 23.4693 18.1526C23.8165 17.4621 23.9981 16.7003 23.9999 15.9276V14.9276C24.0009 14.1497 23.8655 13.3777 23.5999 12.6466L20.8999 5.21855ZM4.98188 5.90255C5.19332 5.32472 5.57682 4.8256 6.08069 4.47246C6.58456 4.11932 7.18459 3.92914 7.79988 3.92755H16.1999C16.8155 3.92873 17.416 4.11872 17.9203 4.47189C18.4245 4.82505 18.8083 5.3244 19.0199 5.90255L21.2079 11.9276H2.79088L4.98188 5.90255ZM5.99988 21.9276C5.99988 22.1928 5.89453 22.4471 5.70699 22.6347C5.51945 22.8222 5.2651 22.9276 4.99988 22.9276C4.73467 22.9276 4.48031 22.8222 4.29278 22.6347C4.10524 22.4471 3.99988 22.1928 3.99988 21.9276V20.8276C4.32901 20.8944 4.66404 20.9279 4.99988 20.9276H5.99988V21.9276ZM19.9999 21.9276C19.9999 22.1928 19.8945 22.4471 19.707 22.6347C19.5195 22.8222 19.2651 22.9276 18.9999 22.9276C18.7347 22.9276 18.4803 22.8222 18.2928 22.6347C18.1052 22.4471 17.9999 22.1928 17.9999 21.9276V20.9276H18.9999C19.3357 20.9279 19.6708 20.8944 19.9999 20.8276V21.9276ZM21.9999 15.9276C21.9999 16.7232 21.6838 17.4863 21.1212 18.0489C20.5586 18.6115 19.7955 18.9276 18.9999 18.9276H4.99988C4.20423 18.9276 3.44117 18.6115 2.87856 18.0489C2.31595 17.4863 1.99988 16.7232 1.99988 15.9276V14.9276C2.00396 14.5908 2.04453 14.2555 2.12088 13.9276H3.99988V14.9276C3.99988 15.1928 4.10524 15.4471 4.29278 15.6347C4.48031 15.8222 4.73467 15.9276 4.99988 15.9276C5.2651 15.9276 5.51945 15.8222 5.70699 15.6347C5.89453 15.4471 5.99988 15.1928 5.99988 14.9276V13.9276H17.9999V14.9276C17.9999 15.1928 18.1052 15.4471 18.2928 15.6347C18.4803 15.8222 18.7347 15.9276 18.9999 15.9276C19.2651 15.9276 19.5195 15.8222 19.707 15.6347C19.8945 15.4471 19.9999 15.1928 19.9999 14.9276V13.9276H21.8789C21.9553 14.2555 21.9959 14.5908 21.9999 14.9276V15.9276Z" fill="#374957"/>
</g>
<defs>
<clipPath id="clip0_507_1937">
<rect width="24" height="24" fill="white" transform="translate(0 0.92749)"/>
</clipPath>
</defs>
</svg>
