<svg width="24" height="25" viewBox="0 0 24 25" fill="none" xmlns="http://www.w3.org/2000/svg">
<g clip-path="url(#clip0_507_2010)">
<path d="M12.0001 10.9273C11.209 10.9273 10.4356 11.1619 9.77784 11.6015C9.12005 12.041 8.60736 12.6657 8.30461 13.3966C8.00186 14.1275 7.92264 14.9318 8.07698 15.7077C8.23132 16.4836 8.61229 17.1964 9.1717 17.7558C9.73111 18.3152 10.4438 18.6961 11.2198 18.8505C11.9957 19.0048 12.8 18.9256 13.5309 18.6229C14.2618 18.3201 14.8865 17.8074 15.326 17.1496C15.7655 16.4918 16.0001 15.7185 16.0001 14.9273C16.0001 13.8665 15.5787 12.8491 14.8286 12.0989C14.0784 11.3488 13.061 10.9273 12.0001 10.9273ZM12.0001 16.9273C11.6046 16.9273 11.2179 16.81 10.889 16.5903C10.5601 16.3705 10.3037 16.0582 10.1524 15.6927C10.001 15.3273 9.96138 14.9251 10.0386 14.5372C10.1157 14.1492 10.3062 13.7928 10.5859 13.5131C10.8656 13.2334 11.222 13.0429 11.6099 12.9658C11.9979 12.8886 12.4 12.9282 12.7655 13.0796C13.1309 13.231 13.4433 13.4873 13.6631 13.8162C13.8828 14.1451 14.0001 14.5318 14.0001 14.9273C14.0001 15.4578 13.7894 15.9665 13.4143 16.3416C13.0393 16.7166 12.5306 16.9273 12.0001 16.9273Z" fill="#374957"/>
<path d="M22.536 5.04948L19.878 2.39148C19.4149 1.92582 18.8639 1.55666 18.2572 1.30536C17.6504 1.05406 16.9998 0.925625 16.343 0.92748H5C3.67441 0.929067 2.40356 1.45636 1.46622 2.3937C0.528882 3.33104 0.00158786 4.60188 0 5.92748L0 19.9275C0.00158786 21.2531 0.528882 22.5239 1.46622 23.4613C2.40356 24.3986 3.67441 24.9259 5 24.9275H19C20.3256 24.9259 21.5964 24.3986 22.5338 23.4613C23.4711 22.5239 23.9984 21.2531 24 19.9275V8.58448C24.0019 7.92772 23.8734 7.27711 23.6221 6.67032C23.3708 6.06354 23.0017 5.51262 22.536 5.04948ZM17 3.00748V3.92748C17 4.72313 16.6839 5.48619 16.1213 6.0488C15.5587 6.61141 14.7956 6.92748 14 6.92748H10C9.20435 6.92748 8.44129 6.61141 7.87868 6.0488C7.31607 5.48619 7 4.72313 7 3.92748V2.92748H16.343C16.5643 2.92944 16.7847 2.95628 17 3.00748ZM22 19.9275C22 20.7231 21.6839 21.4862 21.1213 22.0488C20.5587 22.6114 19.7956 22.9275 19 22.9275H5C4.20435 22.9275 3.44129 22.6114 2.87868 22.0488C2.31607 21.4862 2 20.7231 2 19.9275V5.92748C2 5.13183 2.31607 4.36877 2.87868 3.80616C3.44129 3.24355 4.20435 2.92748 5 2.92748V3.92748C5.00159 5.25307 5.52888 6.52392 6.46622 7.46126C7.40356 8.3986 8.67441 8.92589 10 8.92748H14C15.2575 8.92358 16.4672 8.44514 17.3871 7.58784C18.3071 6.73054 18.8695 5.55757 18.962 4.30348L21.122 6.46348C21.6824 7.02735 21.9979 7.78947 22 8.58448V19.9275Z" fill="#374957"/>
</g>
<defs>
<clipPath id="clip0_507_2010">
<rect width="24" height="24" fill="white" transform="translate(0 0.92749)"/>
</clipPath>
</defs>
</svg>
