<svg width="24" height="25" viewBox="0 0 24 25" fill="none" xmlns="http://www.w3.org/2000/svg">
<g clip-path="url(#clip0_507_2281)">
<path d="M23 11.9275H18.92C18.8421 11.3765 18.6981 10.837 18.491 10.3205L22.018 8.27649C22.1359 8.21306 22.2398 8.1266 22.3237 8.02225C22.4075 7.9179 22.4695 7.79778 22.5061 7.66901C22.5427 7.54024 22.553 7.40544 22.5365 7.2726C22.52 7.13976 22.477 7.01158 22.41 6.89567C22.3431 6.77977 22.2535 6.67848 22.1467 6.59782C22.0398 6.51716 21.9179 6.45878 21.7881 6.42612C21.6583 6.39346 21.5232 6.3872 21.3909 6.4077C21.2587 6.42821 21.1318 6.47506 21.018 6.54549L17.488 8.59249C17.1505 8.16621 16.765 7.78032 16.339 7.44249L18.385 3.91149C18.5082 3.68254 18.5374 3.41461 18.4664 3.1645C18.3954 2.91439 18.2298 2.70177 18.0046 2.57171C17.7795 2.44166 17.5126 2.40439 17.2604 2.46782C17.0083 2.53125 16.7908 2.69039 16.654 2.91149L14.607 6.43649C14.0906 6.22921 13.551 6.08517 13 6.00749V1.92749C13 1.66227 12.8946 1.40792 12.7071 1.22038C12.5196 1.03285 12.2652 0.92749 12 0.92749C11.7348 0.92749 11.4804 1.03285 11.2929 1.22038C11.1054 1.40792 11 1.66227 11 1.92749V6.00749C10.449 6.08517 9.90941 6.22921 9.393 6.43649L7.349 2.90949C7.21221 2.68839 6.99469 2.52925 6.74255 2.46582C6.49042 2.40239 6.22349 2.43966 5.99836 2.56971C5.77323 2.69977 5.60761 2.91239 5.5366 3.1625C5.4656 3.41261 5.49479 3.68054 5.618 3.90949L7.664 7.44249C7.23801 7.78032 6.85246 8.16621 6.515 8.59249L2.985 6.54549C2.87116 6.47506 2.74435 6.42821 2.61206 6.4077C2.47978 6.3872 2.34473 6.39346 2.21492 6.42612C2.0851 6.45878 1.96316 6.51716 1.85633 6.59782C1.7495 6.67848 1.65995 6.77977 1.59299 6.89567C1.52603 7.01158 1.48302 7.13976 1.46651 7.2726C1.45001 7.40544 1.46034 7.54024 1.4969 7.66901C1.53346 7.79778 1.5955 7.9179 1.67934 8.02225C1.76318 8.1266 1.86712 8.21306 1.985 8.27649L5.509 10.3205C5.30195 10.837 5.15791 11.3765 5.08 11.9275H1C0.734784 11.9275 0.48043 12.0328 0.292893 12.2204C0.105357 12.4079 0 12.6623 0 12.9275C0 13.1927 0.105357 13.4471 0.292893 13.6346C0.48043 13.8221 0.734784 13.9275 1 13.9275H5.08C5.15791 14.4784 5.30195 15.018 5.509 15.5345L1.982 17.5785C1.86412 17.6419 1.76018 17.7284 1.67634 17.8327C1.5925 17.9371 1.53046 18.0572 1.4939 18.186C1.45734 18.3147 1.44701 18.4495 1.46351 18.5824C1.48002 18.7152 1.52303 18.8434 1.58999 18.9593C1.65695 19.0752 1.7465 19.1765 1.85333 19.2572C1.96016 19.3378 2.0821 19.3962 2.21192 19.4289C2.34173 19.4615 2.47678 19.4678 2.60906 19.4473C2.74135 19.4268 2.86816 19.3799 2.982 19.3095L6.512 17.2625C6.84946 17.6888 7.23501 18.0747 7.661 18.4125L5.618 21.9435C5.49479 22.1724 5.4656 22.4404 5.5366 22.6905C5.60761 22.9406 5.77323 23.1532 5.99836 23.2833C6.22349 23.4133 6.49042 23.4506 6.74255 23.3872C6.99469 23.3237 7.21221 23.1646 7.349 22.9435L9.393 19.4165C9.90947 19.624 10.449 19.7687 11 19.8475V23.9275C11 24.1927 11.1054 24.4471 11.2929 24.6346C11.4804 24.8221 11.7348 24.9275 12 24.9275C12.2652 24.9275 12.5196 24.8221 12.7071 24.6346C12.8946 24.4471 13 24.1927 13 23.9275V19.8475C13.5509 19.7694 14.0904 19.6253 14.607 19.4185L16.651 22.9455C16.7878 23.1666 17.0053 23.3257 17.2574 23.3892C17.5096 23.4526 17.7765 23.4153 18.0016 23.2853C18.2268 23.1552 18.3924 22.9426 18.4634 22.6925C18.5344 22.4424 18.5052 22.1744 18.382 21.9455L16.336 18.4145C16.762 18.0767 17.1475 17.6908 17.485 17.2645L21.015 19.3115C21.1288 19.3819 21.2557 19.4288 21.3879 19.4493C21.5202 19.4698 21.6553 19.4635 21.7851 19.4309C21.9149 19.3982 22.0368 19.3398 22.1437 19.2592C22.2505 19.1785 22.34 19.0772 22.407 18.9613C22.474 18.8454 22.517 18.7172 22.5335 18.5844C22.55 18.4515 22.5397 18.3167 22.5031 18.188C22.4665 18.0592 22.4045 17.9391 22.3207 17.8347C22.2368 17.7304 22.1329 17.6439 22.015 17.5805L18.488 15.5365C18.6962 15.0195 18.8413 14.4793 18.92 13.9275H23C23.2652 13.9275 23.5196 13.8221 23.7071 13.6346C23.8946 13.4471 24 13.1927 24 12.9275C24 12.6623 23.8946 12.4079 23.7071 12.2204C23.5196 12.0328 23.2652 11.9275 23 11.9275ZM12 17.9275C5.392 17.7175 5.394 8.13649 12 7.92749C18.608 8.13749 18.606 17.7185 12 17.9275Z" fill="#374957"/>
</g>
<defs>
<clipPath id="clip0_507_2281">
<rect width="24" height="24" fill="white" transform="translate(0 0.92749)"/>
</clipPath>
</defs>
</svg>
