<svg width="24" height="25" viewBox="0 0 24 25" fill="none" xmlns="http://www.w3.org/2000/svg">
<g clip-path="url(#clip0_507_1982)">
<path d="M9.50012 11.9276C10.3285 11.9276 11.0001 11.2561 11.0001 10.4276C11.0001 9.59922 10.3285 8.92764 9.50012 8.92764C8.67169 8.92764 8.00012 9.59922 8.00012 10.4276C8.00012 11.2561 8.67169 11.9276 9.50012 11.9276Z" fill="#374957"/>
<path d="M18.5001 3.92749C19.3285 3.92749 20.0001 3.25592 20.0001 2.42749C20.0001 1.59906 19.3285 0.92749 18.5001 0.92749C17.6717 0.92749 17.0001 1.59906 17.0001 2.42749C17.0001 3.25592 17.6717 3.92749 18.5001 3.92749Z" fill="#374957"/>
<path d="M21.5001 8.92764C22.3285 8.92764 23.0001 8.25607 23.0001 7.42764C23.0001 6.59922 22.3285 5.92764 21.5001 5.92764C20.6717 5.92764 20.0001 6.59922 20.0001 7.42764C20.0001 8.25607 20.6717 8.92764 21.5001 8.92764Z" fill="#374957"/>
<path d="M9.50012 16.9273C10.3285 16.9273 11.0001 16.2558 11.0001 15.4273C11.0001 14.5989 10.3285 13.9273 9.50012 13.9273C8.67169 13.9273 8.00012 14.5989 8.00012 15.4273C8.00012 16.2558 8.67169 16.9273 9.50012 16.9273Z" fill="#374957"/>
<path d="M14.4999 16.9273C15.3283 16.9273 15.9999 16.2558 15.9999 15.4273C15.9999 14.5989 15.3283 13.9273 14.4999 13.9273C13.6715 13.9273 12.9999 14.5989 12.9999 15.4273C12.9999 16.2558 13.6715 16.9273 14.4999 16.9273Z" fill="#374957"/>
<path d="M23.943 11.7815C23.9208 11.5503 23.8189 11.334 23.6547 11.1698C23.4905 11.0056 23.2742 10.9037 23.043 10.8815C20.7327 10.6589 18.5717 9.63957 16.9306 7.99826C15.2894 6.35694 14.2703 4.19586 14.048 1.88549C14.0258 1.6543 13.9239 1.43804 13.7597 1.27382C13.5955 1.1096 13.3792 1.00765 13.148 0.98549C12.769 0.94849 12.387 0.92749 12 0.92749C9.62663 0.92749 7.30655 1.63128 5.33316 2.94986C3.35977 4.26843 1.8217 6.14258 0.913451 8.33529C0.00519943 10.528 -0.232441 12.9408 0.230582 15.2686C0.693605 17.5963 1.83649 19.7345 3.51472 21.4128C5.19295 23.091 7.33115 24.2339 9.65892 24.6969C11.9867 25.1599 14.3995 24.9223 16.5922 24.014C18.7849 23.1058 20.6591 21.5677 21.9776 19.5943C23.2962 17.6209 24 15.3009 24 12.9275C24 12.5405 23.979 12.1585 23.943 11.7815ZM12 22.9275C9.34784 22.9275 6.8043 21.8739 4.92894 19.9986C3.05357 18.1232 2.00001 15.5797 2.00001 12.9275C2.00001 10.2753 3.05357 7.73179 4.92894 5.85642C6.8043 3.98106 9.34784 2.92749 12 2.92749H12.17C12.5864 5.38324 13.7563 7.6487 15.5175 9.40996C17.2788 11.1712 19.5443 12.3411 22 12.7575C22 12.8145 22 12.8705 22 12.9275C21.9971 15.5788 20.9426 18.1206 19.0679 19.9953C17.1931 21.8701 14.6513 22.9246 12 22.9275Z" fill="#374957"/>
</g>
<defs>
<clipPath id="clip0_507_1982">
<rect width="24" height="24" fill="white" transform="translate(0 0.92749)"/>
</clipPath>
</defs>
</svg>
