<svg width="24" height="25" viewBox="0 0 24 25" fill="none" xmlns="http://www.w3.org/2000/svg">
<g clip-path="url(#clip0_507_2165)">
<path d="M23 20.9272H14.816C14.5135 20.0802 13.847 19.4137 13 19.1112V14.9492C14.344 14.9492 15.52 14.9372 16.095 14.9262C16.454 14.9194 16.8112 14.8755 17.161 14.7952C18.9986 14.3676 20.4334 12.9327 20.861 11.0952C21.489 8.46234 19.9136 5.80636 17.302 5.09517L17.13 5.05716C16.83 4.99017 16.6791 4.95717 16.542 4.62816C15.273 1.56708 11.7627 0.114329 8.70159 1.38338C6.94144 2.11308 5.63255 3.63548 5.175 5.48513C4.95848 6.38095 4.93903 7.31306 5.118 8.21714C3.34237 8.98116 2.52234 11.0399 3.28631 12.8155C3.70566 13.7901 4.54448 14.5219 5.56697 14.8051C5.83908 14.8774 6.11855 14.9184 6.39998 14.9272C7.05497 14.9452 8.934 14.9532 10.894 14.9532H11V19.1122C10.1533 19.4145 9.48675 20.0806 9.18398 20.9272H0.999984C0.447703 20.9272 0 21.3749 0 21.9271C0 22.4794 0.447703 22.9271 0.999984 22.9271H9.18398C9.72581 24.4823 11.4258 25.3039 12.981 24.7621C13.8407 24.4626 14.5165 23.7868 14.816 22.9271H23C23.5522 22.9271 24 22.4794 24 21.9271C24 21.3749 23.5523 20.9272 23 20.9272ZM6.456 12.9271C6.32761 12.9225 6.20011 12.9034 6.07598 12.8701C5.58164 12.7314 5.19516 12.3454 5.05598 11.8511C4.84317 11.1222 5.20861 10.3493 5.907 10.0511C6.80508 9.67102 7.30205 8.70234 7.08698 7.75111C6.63108 5.58952 8.01384 3.46763 10.1754 3.01177C10.2476 2.99653 10.3201 2.98331 10.393 2.97211C10.588 2.94328 10.7849 2.92824 10.982 2.92711C12.6069 2.92148 14.0748 3.8963 14.7 5.39611C15.053 6.27333 15.8476 6.89522 16.784 7.02713C18.3549 7.46217 19.2981 9.06445 18.916 10.6491C18.6527 11.7351 17.8029 12.5818 16.716 12.8411C16.5002 12.8917 16.2796 12.9192 16.058 12.9231C15.365 12.9361 7.21102 12.9472 6.456 12.9271ZM12 22.9271C11.4477 22.9271 11 22.4794 11 21.9271C11 21.3749 11.4477 20.9272 12 20.9272C12.5523 20.9272 13 21.3749 13 21.9271C13 22.4794 12.5523 22.9271 12 22.9271Z" fill="#374957"/>
</g>
<defs>
<clipPath id="clip0_507_2165">
<rect width="24" height="24" fill="white" transform="translate(0 0.92749)"/>
</clipPath>
</defs>
</svg>
