<svg width="24" height="25" viewBox="0 0 24 25" fill="none" xmlns="http://www.w3.org/2000/svg">
<g clip-path="url(#clip0_507_1908)">
<path d="M22.5549 14.5894L20.6549 7.75343C20.0979 5.75076 18.8876 3.99171 17.2162 2.75589C15.5448 1.52008 13.5083 0.878411 11.4303 0.932891C9.35238 0.987371 7.35227 1.73487 5.74792 3.05657C4.14358 4.37827 3.02706 6.19833 2.57586 8.22743L1.10486 14.8424C0.942375 15.5734 0.946132 16.3315 1.11585 17.0607C1.28557 17.79 1.61692 18.4719 2.08544 19.056C2.55396 19.6401 3.14768 20.1115 3.82277 20.4354C4.49786 20.7593 5.23708 20.9274 5.98586 20.9274H7.09986C7.32937 22.0577 7.94259 23.0739 8.8356 23.8038C9.72861 24.5337 10.8465 24.9324 11.9999 24.9324C13.1532 24.9324 14.2711 24.5337 15.1641 23.8038C16.0571 23.0739 16.6703 22.0577 16.8999 20.9274H17.7379C18.5087 20.9275 19.2691 20.7493 19.9596 20.4069C20.6502 20.0644 21.2522 19.5669 21.7187 18.9533C22.1852 18.3396 22.5034 17.6265 22.6487 16.8695C22.7939 16.1125 22.7621 15.3321 22.5559 14.5894H22.5549ZM11.9999 22.9274C11.3816 22.9249 10.7792 22.7313 10.2752 22.3733C9.77109 22.0153 9.38994 21.5103 9.18386 20.9274H14.8159C14.6098 21.5103 14.2286 22.0153 13.7246 22.3733C13.2205 22.7313 12.6181 22.9249 11.9999 22.9274ZM20.1259 17.7424C19.8472 18.1121 19.4862 18.4117 19.0715 18.6174C18.6568 18.8231 18.1998 18.9293 17.7369 18.9274H5.98586C5.53664 18.9273 5.09318 18.8264 4.6882 18.632C4.28322 18.4376 3.92707 18.1548 3.64602 17.8043C3.36498 17.4539 3.16622 17.0448 3.06442 16.6073C2.96262 16.1697 2.96038 15.7149 3.05786 15.2764L4.52786 8.66042C4.88221 7.06663 5.75917 5.63703 7.01932 4.59887C8.27946 3.56072 9.85048 2.9736 11.4826 2.93084C13.1148 2.88808 14.7144 3.39214 16.0272 4.36289C17.3399 5.33365 18.2905 6.71537 18.7279 8.28842L20.6279 15.1244C20.7534 15.5698 20.7734 16.0383 20.6863 16.4928C20.5991 16.9472 20.4072 17.3751 20.1259 17.7424Z" fill="#374957"/>
</g>
<defs>
<clipPath id="clip0_507_1908">
<rect width="24" height="24" fill="white" transform="translate(0 0.92749)"/>
</clipPath>
</defs>
</svg>
