<svg width="24" height="25" viewBox="0 0 24 25" fill="none" xmlns="http://www.w3.org/2000/svg">
<g clip-path="url(#clip0_507_1954)">
<path d="M19 0.92749H5C3.67441 0.929078 2.40356 1.45637 1.46622 2.39371C0.528882 3.33105 0.00158786 4.6019 0 5.92749L0 19.9275C0.00158786 21.2531 0.528882 22.5239 1.46622 23.4613C2.40356 24.3986 3.67441 24.9259 5 24.9275H19C20.3256 24.9259 21.5964 24.3986 22.5338 23.4613C23.4711 22.5239 23.9984 21.2531 24 19.9275V5.92749C23.9984 4.6019 23.4711 3.33105 22.5338 2.39371C21.5964 1.45637 20.3256 0.929078 19 0.92749V0.92749ZM22 19.9275C22 20.7231 21.6839 21.4862 21.1213 22.0488C20.5587 22.6114 19.7956 22.9275 19 22.9275H5C4.20435 22.9275 3.44129 22.6114 2.87868 22.0488C2.31607 21.4862 2 20.7231 2 19.9275V5.92749C2 5.13184 2.31607 4.36878 2.87868 3.80617C3.44129 3.24356 4.20435 2.92749 5 2.92749H19C19.7956 2.92749 20.5587 3.24356 21.1213 3.80617C21.6839 4.36878 22 5.13184 22 5.92749V19.9275Z" fill="#374957"/>
<path d="M9.33282 16.8465L5.41382 12.9275C5.22629 12.7401 4.97198 12.6348 4.70682 12.6348C4.44165 12.6348 4.18735 12.7401 3.99982 12.9275C3.81235 13.1151 3.70703 13.3694 3.70703 13.6345C3.70703 13.8997 3.81235 14.154 3.99982 14.3415L7.91882 18.2605C8.10455 18.4463 8.32506 18.5937 8.56776 18.6943C8.81047 18.7948 9.07061 18.8466 9.33332 18.8466C9.59603 18.8466 9.85617 18.7948 10.0989 18.6943C10.3416 18.5937 10.5621 18.4463 10.7478 18.2605L19.9998 9.00854C20.1873 8.82102 20.2926 8.56671 20.2926 8.30154C20.2926 8.03638 20.1873 7.78207 19.9998 7.59454C19.8123 7.40707 19.558 7.30176 19.2928 7.30176C19.0277 7.30176 18.7733 7.40707 18.5858 7.59454L9.33282 16.8465Z" fill="#374957"/>
</g>
<defs>
<clipPath id="clip0_507_1954">
<rect width="24" height="24" fill="white" transform="translate(0 0.92749)"/>
</clipPath>
</defs>
</svg>
