<svg width="24" height="25" viewBox="0 0 24 25" fill="none" xmlns="http://www.w3.org/2000/svg">
<g clip-path="url(#clip0_507_2128)">
<path d="M18.9999 9.35149V7.92749C18.9999 6.07097 18.2624 4.29049 16.9496 2.97774C15.6369 1.66498 13.8564 0.927486 11.9999 0.927486C10.1434 0.927486 8.36288 1.66498 7.05013 2.97774C5.73738 4.29049 4.99988 6.07097 4.99988 7.92749V9.35149C4.10924 9.74019 3.35117 10.38 2.81838 11.1927C2.28558 12.0054 2.00116 12.9557 1.99988 13.9275V19.9275C2.00147 21.2531 2.52876 22.5239 3.4661 23.4613C4.40344 24.3986 5.67428 24.9259 6.99988 24.9275H16.9999C18.3255 24.9259 19.5963 24.3986 20.5337 23.4613C21.471 22.5239 21.9983 21.2531 21.9999 19.9275V13.9275C21.9986 12.9557 21.7142 12.0054 21.1814 11.1927C20.6486 10.38 19.8905 9.74019 18.9999 9.35149ZM6.99988 7.92749C6.99988 6.6014 7.52666 5.32963 8.46434 4.39195C9.40203 3.45427 10.6738 2.92749 11.9999 2.92749C13.326 2.92749 14.5977 3.45427 15.5354 4.39195C16.4731 5.32963 16.9999 6.6014 16.9999 7.92749V8.92749H6.99988V7.92749ZM19.9999 19.9275C19.9999 20.7231 19.6838 21.4862 19.1212 22.0488C18.5586 22.6114 17.7955 22.9275 16.9999 22.9275H6.99988C6.20423 22.9275 5.44117 22.6114 4.87856 22.0488C4.31595 21.4862 3.99988 20.7231 3.99988 19.9275V13.9275C3.99988 13.1318 4.31595 12.3688 4.87856 11.8062C5.44117 11.2436 6.20423 10.9275 6.99988 10.9275H16.9999C17.7955 10.9275 18.5586 11.2436 19.1212 11.8062C19.6838 12.3688 19.9999 13.1318 19.9999 13.9275V19.9275Z" fill="#374957"/>
<path d="M11.9999 14.9272C11.7347 14.9272 11.4803 15.0325 11.2928 15.2201C11.1052 15.4076 10.9999 15.662 10.9999 15.9272V17.9272C10.9999 18.1924 11.1052 18.4467 11.2928 18.6343C11.4803 18.8218 11.7347 18.9272 11.9999 18.9272C12.2651 18.9272 12.5195 18.8218 12.707 18.6343C12.8945 18.4467 12.9999 18.1924 12.9999 17.9272V15.9272C12.9999 15.662 12.8945 15.4076 12.707 15.2201C12.5195 15.0325 12.2651 14.9272 11.9999 14.9272Z" fill="#374957"/>
</g>
<defs>
<clipPath id="clip0_507_2128">
<rect width="24" height="24" fill="white" transform="translate(0 0.92749)"/>
</clipPath>
</defs>
</svg>
