<svg width="24" height="25" viewBox="0 0 24 25" fill="none" xmlns="http://www.w3.org/2000/svg">
<g clip-path="url(#clip0_507_2327)">
<path d="M23.7171 10.4765C22.7681 8.37922 21.2725 6.5758 19.387 5.25522C17.5014 3.93463 15.2954 3.14549 13.0001 2.97049V1.92749C13.0001 1.66227 12.8948 1.40792 12.7072 1.22038C12.5197 1.03285 12.2653 0.92749 12.0001 0.92749C11.7349 0.92749 11.4805 1.03285 11.293 1.22038C11.1055 1.40792 11.0001 1.66227 11.0001 1.92749V2.97049C8.70225 3.14365 6.49331 3.93188 4.6049 5.25251C2.7165 6.57315 1.2182 8.37754 0.267114 10.4765C0.0280608 11.0765 -0.0600254 11.726 0.0105899 12.368C0.0812053 13.01 0.308362 13.6248 0.672113 14.1585C1.03971 14.7032 1.53539 15.1493 2.11564 15.4578C2.69589 15.7662 3.34298 15.9275 4.00011 15.9275H11.0001V21.9275C11.0001 22.1927 10.8948 22.4471 10.7072 22.6346C10.5197 22.8221 10.2653 22.9275 10.0001 22.9275C9.7349 22.9275 9.48054 22.8221 9.29301 22.6346C9.10547 22.4471 9.00011 22.1927 9.00011 21.9275C9.00011 21.6623 8.89476 21.4079 8.70722 21.2204C8.51968 21.0328 8.26533 20.9275 8.00011 20.9275C7.7349 20.9275 7.48054 21.0328 7.29301 21.2204C7.10547 21.4079 7.00011 21.6623 7.00011 21.9275C7.00011 22.7231 7.31618 23.4862 7.87879 24.0488C8.4414 24.6114 9.20446 24.9275 10.0001 24.9275C10.7958 24.9275 11.5588 24.6114 12.1214 24.0488C12.684 23.4862 13.0001 22.7231 13.0001 21.9275V15.9275H19.9831C20.6404 15.9275 21.2876 15.7662 21.868 15.4578C22.4484 15.1493 22.9443 14.7032 23.3121 14.1585C23.6756 13.6247 23.9026 13.0099 23.9732 12.3679C24.0439 11.726 23.9559 11.0765 23.7171 10.4765ZM21.6561 13.0375C21.473 13.313 21.2242 13.5387 20.9322 13.6941C20.6401 13.8494 20.3139 13.9297 19.9831 13.9275H4.00011C3.66919 13.9296 3.34294 13.8493 3.05085 13.6937C2.75875 13.5382 2.51002 13.3123 2.32711 13.0365C2.14579 12.7737 2.03259 12.4701 1.99768 12.1527C1.96277 11.8354 2.00725 11.5144 2.12711 11.2185C3.58111 7.57349 7.73411 4.92749 12.0001 4.92749C14.0738 4.91991 16.1058 5.50899 17.8539 6.62444C19.602 7.7399 20.9924 9.33465 21.8591 11.2185C21.9791 11.5147 22.0233 11.8361 21.9879 12.1537C21.9525 12.4713 21.8384 12.775 21.6561 13.0375Z" fill="#374957"/>
</g>
<defs>
<clipPath id="clip0_507_2327">
<rect width="24" height="24" fill="white" transform="translate(0 0.92749)"/>
</clipPath>
</defs>
</svg>
