<svg width="24" height="25" viewBox="0 0 24 25" fill="none" xmlns="http://www.w3.org/2000/svg">
<g clip-path="url(#clip0_507_2018)">
<path d="M21.1549 4.19949L18.8709 1.84049C18.5904 1.55246 18.2552 1.32333 17.885 1.16655C17.5148 1.00977 17.117 0.928497 16.7149 0.92749H11.9999C10.8477 0.928945 9.73126 1.32758 8.83869 2.05621C7.94612 2.78484 7.33204 3.7989 7.09994 4.92749H6.99994C5.67434 4.92908 4.4035 5.45637 3.46616 6.39371C2.52882 7.33105 2.00153 8.6019 1.99994 9.92749V19.9275C2.00153 21.2531 2.52882 22.5239 3.46616 23.4613C4.4035 24.3986 5.67434 24.9259 6.99994 24.9275H12.9999C14.3255 24.9259 15.5964 24.3986 16.5337 23.4613C17.4711 22.5239 17.9984 21.2531 17.9999 19.9275V19.8275C19.1285 19.5954 20.1426 18.9813 20.8712 18.0887C21.5999 17.1962 21.9985 16.0797 21.9999 14.9275V6.28749C22.0014 5.50791 21.6982 4.75861 21.1549 4.19949ZM12.9999 22.9275H6.99994C6.20429 22.9275 5.44123 22.6114 4.87862 22.0488C4.31601 21.4862 3.99994 20.7231 3.99994 19.9275V9.92749C3.99994 9.13184 4.31601 8.36878 4.87862 7.80617C5.44123 7.24356 6.20429 6.92749 6.99994 6.92749V14.9275C7.00153 16.2531 7.52882 17.5239 8.46616 18.4613C9.4035 19.3986 10.6743 19.9259 11.9999 19.9275H15.9999C15.9999 20.7231 15.6839 21.4862 15.1213 22.0488C14.5587 22.6114 13.7956 22.9275 12.9999 22.9275ZM16.9999 17.9275H11.9999C11.2043 17.9275 10.4412 17.6114 9.87862 17.0488C9.31601 16.4862 8.99994 15.7231 8.99994 14.9275V5.92749C8.99994 5.13184 9.31601 4.36878 9.87862 3.80617C10.4412 3.24356 11.2043 2.92749 11.9999 2.92749H15.9999V4.92749C15.9999 5.45792 16.2107 5.96663 16.5857 6.3417C16.9608 6.71678 17.4695 6.92749 17.9999 6.92749H19.9999V14.9275C19.9999 15.7231 19.6839 16.4862 19.1213 17.0488C18.5587 17.6114 17.7956 17.9275 16.9999 17.9275Z" fill="#374957"/>
</g>
<defs>
<clipPath id="clip0_507_2018">
<rect width="24" height="24" fill="white" transform="translate(0 0.92749)"/>
</clipPath>
</defs>
</svg>
