<svg width="24" height="25" viewBox="0 0 24 25" fill="none" xmlns="http://www.w3.org/2000/svg">
<g clip-path="url(#clip0_507_2290)">
<path d="M21.122 13.9267C21.885 13.9259 22.6166 13.6224 23.1562 13.0829C23.6957 12.5433 23.9992 11.8117 24 11.0487C23.9989 10.2421 23.8076 9.44713 23.4417 8.72833C23.0758 8.00953 22.5455 7.38713 21.894 6.91167L15.009 1.90567C14.1356 1.26742 13.0818 0.923431 12 0.923431C10.9182 0.923431 9.86444 1.26742 8.991 1.90567L2.106 6.91167C1.45445 7.38713 0.924198 8.00953 0.55828 8.72833C0.192362 9.44713 0.00109332 10.2421 0 11.0487C0.000794154 11.8117 0.304266 12.5433 0.843824 13.0829C1.38338 13.6224 2.11495 13.9259 2.878 13.9267H11V23.9267C11 24.1919 11.1054 24.4462 11.2929 24.6338C11.4804 24.8213 11.7348 24.9267 12 24.9267C12.2652 24.9267 12.5196 24.8213 12.7071 24.6338C12.8946 24.4462 13 24.1919 13 23.9267V13.9267H21.122ZM15.5 9.00167C15.827 9.4931 16.001 10.0704 16 10.6607V11.9267H13V5.23968L15.5 9.00167ZM20.718 8.52667C21.1151 8.81653 21.4381 9.19601 21.6609 9.63423C21.8836 10.0725 21.9998 10.5571 22 11.0487C21.9997 11.2815 21.9071 11.5046 21.7425 11.6692C21.5779 11.8338 21.3548 11.9264 21.122 11.9267H18V10.6607C18.0009 9.67645 17.7104 8.71398 17.165 7.89467L14.665 4.12467L20.718 8.52667ZM2 11.0487C2.00019 10.5571 2.11638 10.0725 2.33915 9.63423C2.56191 9.19601 2.88495 8.81653 3.282 8.52667L9.339 4.12667L6.839 7.89667C6.29257 8.71496 6.00064 9.67671 6 10.6607V11.9267H2.878C2.64522 11.9264 2.42205 11.8338 2.25745 11.6692C2.09285 11.5046 2.00026 11.2815 2 11.0487ZM8 11.9267V10.6607C7.99903 10.0704 8.17302 9.4931 8.5 9.00167L11 5.23968V11.9267H8Z" fill="#374957"/>
<path d="M4 19.9275H2V16.9275C2 16.6623 1.89464 16.4079 1.70711 16.2204C1.51957 16.0328 1.26522 15.9275 1 15.9275C0.734784 15.9275 0.48043 16.0328 0.292893 16.2204C0.105357 16.4079 0 16.6623 0 16.9275L0 23.9275C0 24.1927 0.105357 24.4471 0.292893 24.6346C0.48043 24.8221 0.734784 24.9275 1 24.9275C1.26522 24.9275 1.51957 24.8221 1.70711 24.6346C1.89464 24.4471 2 24.1927 2 23.9275V21.9275H4C4.26522 21.9275 4.51957 22.0328 4.70711 22.2204C4.89464 22.4079 5 22.6623 5 22.9275V23.9275C5 24.1927 5.10536 24.4471 5.29289 24.6346C5.48043 24.8221 5.73478 24.9275 6 24.9275C6.26522 24.9275 6.51957 24.8221 6.70711 24.6346C6.89464 24.4471 7 24.1927 7 23.9275V22.9275C7 22.1318 6.68393 21.3688 6.12132 20.8062C5.55871 20.2436 4.79565 19.9275 4 19.9275Z" fill="#374957"/>
<path d="M23.0001 15.9275C22.7349 15.9275 22.4806 16.0328 22.293 16.2204C22.1055 16.4079 22.0001 16.6623 22.0001 16.9275V19.9275H20.0001C19.2045 19.9275 18.4414 20.2436 17.8788 20.8062C17.3162 21.3688 17.0001 22.1318 17.0001 22.9275V23.9275C17.0001 24.1927 17.1055 24.4471 17.293 24.6346C17.4806 24.8221 17.7349 24.9275 18.0001 24.9275C18.2653 24.9275 18.5197 24.8221 18.7072 24.6346C18.8948 24.4471 19.0001 24.1927 19.0001 23.9275V22.9275C19.0001 22.6623 19.1055 22.4079 19.293 22.2204C19.4806 22.0328 19.7349 21.9275 20.0001 21.9275H22.0001V23.9275C22.0001 24.1927 22.1055 24.4471 22.293 24.6346C22.4806 24.8221 22.7349 24.9275 23.0001 24.9275C23.2653 24.9275 23.5197 24.8221 23.7072 24.6346C23.8948 24.4471 24.0001 24.1927 24.0001 23.9275V16.9275C24.0001 16.6623 23.8948 16.4079 23.7072 16.2204C23.5197 16.0328 23.2653 15.9275 23.0001 15.9275Z" fill="#374957"/>
</g>
<defs>
<clipPath id="clip0_507_2290">
<rect width="24" height="24" fill="white" transform="translate(0 0.92749)"/>
</clipPath>
</defs>
</svg>
