<svg width="24" height="25" viewBox="0 0 24 25" fill="none" xmlns="http://www.w3.org/2000/svg">
<path d="M13.1001 19.9275C12.9023 19.9267 12.7092 19.8672 12.5452 19.7566C12.3812 19.6461 12.2537 19.4894 12.1788 19.3063C12.1039 19.1233 12.0849 18.9222 12.1243 18.7284C12.1637 18.5345 12.2596 18.3568 12.4001 18.2175L17.0001 13.6375C17.0938 13.5445 17.1682 13.4339 17.219 13.3121C17.2697 13.1902 17.2959 13.0595 17.2959 12.9275C17.2959 12.7955 17.2697 12.6648 17.219 12.5429C17.1682 12.4211 17.0938 12.3105 17.0001 12.2175L12.4001 7.63749C12.3063 7.54453 12.2319 7.43393 12.1812 7.31207C12.1304 7.19021 12.1043 7.0595 12.1043 6.92749C12.1043 6.79548 12.1304 6.66477 12.1812 6.54291C12.2319 6.42105 12.3063 6.31045 12.4001 6.21749C12.5874 6.03124 12.8409 5.9267 13.1051 5.9267C13.3692 5.9267 13.6227 6.03124 13.8101 6.21749L18.4001 10.8075C18.9619 11.37 19.2774 12.1325 19.2774 12.9275C19.2774 13.7225 18.9619 14.485 18.4001 15.0475L13.8101 19.6375C13.7166 19.7302 13.6058 19.8035 13.484 19.8533C13.3621 19.903 13.2317 19.9283 13.1001 19.9275Z" fill="#374957"/>
<path d="M6.10006 19.9275C5.90228 19.9267 5.7092 19.8672 5.54521 19.7566C5.38123 19.6461 5.25371 19.4894 5.17879 19.3063C5.10386 19.1233 5.08489 18.9222 5.12428 18.7284C5.16366 18.5345 5.25963 18.3568 5.40006 18.2175L10.6901 12.9275L5.40006 7.63749C5.30633 7.54453 5.23193 7.43393 5.18116 7.31207C5.1304 7.19021 5.10426 7.0595 5.10426 6.92749C5.10426 6.79548 5.1304 6.66477 5.18116 6.54291C5.23193 6.42105 5.30633 6.31045 5.40006 6.21749C5.58742 6.03124 5.84087 5.9267 6.10506 5.9267C6.36924 5.9267 6.62269 6.03124 6.81006 6.21749L12.8101 12.2175C12.9038 12.3105 12.9782 12.4211 13.0289 12.5429C13.0797 12.6648 13.1059 12.7955 13.1059 12.9275C13.1059 13.0595 13.0797 13.1902 13.0289 13.3121C12.9782 13.4339 12.9038 13.5445 12.8101 13.6375L6.81006 19.6375C6.71662 19.7302 6.6058 19.8035 6.48396 19.8533C6.36212 19.903 6.23166 19.9283 6.10006 19.9275Z" fill="#374957"/>
</svg>
