<svg width="24" height="25" viewBox="0 0 24 25" fill="none" xmlns="http://www.w3.org/2000/svg">
<g clip-path="url(#clip0_507_2111)">
<path d="M18.7599 16.9275C18.0712 16.9255 17.389 17.0601 16.7526 17.3236C16.1163 17.5871 15.5386 17.9742 15.0529 18.4625C13.6408 19.8825 11.9609 21.0083 10.1107 21.7748C8.26049 22.5412 6.27662 22.933 4.27394 22.9275H3.12295C2.90114 22.9276 2.68427 22.8619 2.4998 22.7388C2.31533 22.6156 2.17155 22.4405 2.08665 22.2356C2.00175 22.0306 1.97955 21.8051 2.02286 21.5876C2.06617 21.3701 2.17304 21.1703 2.32995 21.0135L5.51994 17.8275L17.2879 14.6895C18.3527 14.4047 19.2937 13.7765 19.9649 12.9023C20.6361 12.028 20.9999 10.9567 20.9999 9.85448V5.92748C20.9983 4.60189 20.471 3.33104 19.5337 2.3937C18.5964 1.45636 17.3255 0.92907 15.9999 0.927483L12.0729 0.927483C10.9714 0.928385 9.90101 1.29263 9.02758 1.96375C8.15415 2.63487 7.5265 3.57538 7.24194 4.63948L4.09995 16.4125L0.915949 19.5995C0.479421 20.036 0.182137 20.5921 0.0616926 21.1975C-0.0587516 21.803 0.00305495 22.4306 0.239295 23.0009C0.475536 23.5712 0.875599 24.0586 1.38889 24.4016C1.90218 24.7445 2.50564 24.9275 3.12295 24.9275H4.27394C6.53937 24.9338 8.78354 24.4906 10.8765 23.6236C12.9695 22.7566 14.8696 21.483 16.4669 19.8765C16.9206 19.424 17.4982 19.1161 18.1267 18.9916C18.7552 18.8671 19.4066 18.9315 19.9985 19.1769C20.5904 19.4222 21.0964 19.8373 21.4526 20.3699C21.8088 20.9025 21.9993 21.5287 21.9999 22.1695V23.9275C21.9999 24.1927 22.1053 24.4471 22.2928 24.6346C22.4804 24.8221 22.7347 24.9275 22.9999 24.9275C23.2651 24.9275 23.5195 24.8221 23.707 24.6346C23.8946 24.4471 23.9999 24.1927 23.9999 23.9275V22.1695C23.9981 20.7801 23.4455 19.4482 22.4632 18.4656C21.481 17.483 20.1493 16.9299 18.7599 16.9275ZM16.7719 12.7535L8.34194 15.0015L14.4999 8.84248L17.8559 12.1985C17.5366 12.4561 17.1676 12.645 16.7719 12.7535ZM18.9999 5.92748V9.85448C18.9978 10.0539 18.9757 10.2525 18.9339 10.4475L15.9149 7.42748L18.6999 4.64348C18.8951 5.04352 18.9976 5.48238 18.9999 5.92748ZM12.0729 2.92748H15.9999C16.446 2.9298 16.8858 3.03233 17.2869 3.22748L14.4999 6.01448L11.4799 2.99348C11.6749 2.95173 11.8736 2.92962 12.0729 2.92748ZM9.17294 5.15548C9.28125 4.75946 9.47019 4.39007 9.72794 4.07048L13.0869 7.42748L6.92494 13.5905L9.17294 5.15548Z" fill="#374957"/>
</g>
<defs>
<clipPath id="clip0_507_2111">
<rect width="24" height="24" fill="white" transform="translate(0 0.92749)"/>
</clipPath>
</defs>
</svg>
