<svg width="24" height="25" viewBox="0 0 24 25" fill="none" xmlns="http://www.w3.org/2000/svg">
<g clip-path="url(#clip0_507_2106)">
<path d="M12 0.92749C9.62663 0.92749 7.30655 1.63128 5.33316 2.94986C3.35977 4.26843 1.8217 6.14258 0.913451 8.33529C0.00519943 10.528 -0.232441 12.9408 0.230582 15.2686C0.693605 17.5963 1.83649 19.7345 3.51472 21.4128C5.19295 23.091 7.33115 24.2339 9.65892 24.6969C11.9867 25.1599 14.3995 24.9223 16.5922 24.014C18.7849 23.1058 20.6591 21.5677 21.9776 19.5943C23.2962 17.6209 24 15.3009 24 12.9275C23.9966 9.74595 22.7312 6.6957 20.4815 4.44601C18.2318 2.19632 15.1815 0.930931 12 0.92749V0.92749ZM12 22.9275C10.0222 22.9275 8.08879 22.341 6.4443 21.2422C4.79981 20.1434 3.51809 18.5816 2.76121 16.7543C2.00433 14.9271 1.8063 12.9164 2.19215 10.9766C2.578 9.03678 3.53041 7.25495 4.92894 5.85642C6.32746 4.4579 8.10929 3.50549 10.0491 3.11964C11.9889 2.73379 13.9996 2.93182 15.8268 3.6887C17.6541 4.44557 19.2159 5.7273 20.3147 7.37179C21.4135 9.01628 22 10.9497 22 12.9275C21.9971 15.5788 20.9426 18.1206 19.0679 19.9953C17.1931 21.8701 14.6513 22.9246 12 22.9275Z" fill="#374957"/>
<path d="M12.7171 5.99016C12.1404 5.88509 11.5477 5.90805 10.9809 6.0574C10.4141 6.20676 9.88703 6.47887 9.43701 6.85447C8.987 7.23007 8.62503 7.69998 8.37673 8.23096C8.12843 8.76194 7.99986 9.341 8.00012 9.92716C8.00012 10.1924 8.10548 10.4467 8.29302 10.6343C8.48055 10.8218 8.7349 10.9272 9.00012 10.9272C9.26534 10.9272 9.51969 10.8218 9.70723 10.6343C9.89476 10.4467 10.0001 10.1924 10.0001 9.92716C9.99987 9.63294 10.0645 9.34228 10.1895 9.07592C10.3145 8.80956 10.4967 8.57405 10.7231 8.38619C10.9496 8.19833 11.2147 8.06275 11.4995 7.98911C11.7844 7.91547 12.082 7.90558 12.3711 7.96016C12.7662 8.03685 13.1294 8.22955 13.4144 8.51365C13.6994 8.79776 13.8932 9.16036 13.9711 9.55516C14.0498 9.96956 13.9955 10.3982 13.8159 10.7799C13.6363 11.1616 13.3406 11.4767 12.9711 11.6802C12.3593 12.0346 11.8537 12.5467 11.507 13.163C11.1604 13.7793 10.9853 14.4772 11.0001 15.1842V15.9272C11.0001 16.1924 11.1055 16.4467 11.293 16.6343C11.4805 16.8218 11.7349 16.9272 12.0001 16.9272C12.2653 16.9272 12.5197 16.8218 12.7072 16.6343C12.8948 16.4467 13.0001 16.1924 13.0001 15.9272V15.1842C12.9876 14.8362 13.0669 14.491 13.2302 14.1835C13.3934 13.8759 13.6349 13.6168 13.9301 13.4322C14.6546 13.0342 15.2381 12.4216 15.6002 11.6786C15.9623 10.9355 16.0854 10.0985 15.9524 9.28269C15.8194 8.46685 15.437 7.71225 14.8576 7.12266C14.2783 6.53306 13.5305 6.13743 12.7171 5.99016Z" fill="#374957"/>
<path d="M13.0001 18.9272C13.0001 18.3749 12.5524 17.9272 12.0001 17.9272C11.4478 17.9272 11.0001 18.3749 11.0001 18.9272C11.0001 19.4795 11.4478 19.9272 12.0001 19.9272C12.5524 19.9272 13.0001 19.4795 13.0001 18.9272Z" fill="#374957"/>
</g>
<defs>
<clipPath id="clip0_507_2106">
<rect width="24" height="24" fill="white" transform="translate(0 0.92749)"/>
</clipPath>
</defs>
</svg>
