<svg width="24" height="25" viewBox="0 0 24 25" fill="none" xmlns="http://www.w3.org/2000/svg">
<g clip-path="url(#clip0_507_2255)">
<path d="M22.8289 10.0986L18.9499 6.21965C18.7613 6.03749 18.5087 5.93669 18.2465 5.93897C17.9843 5.94125 17.7335 6.04642 17.5481 6.23183C17.3627 6.41724 17.2575 6.66805 17.2552 6.93024C17.2529 7.19244 17.3537 7.44504 17.5359 7.63365L21.4149 11.5126C21.5301 11.6302 21.6309 11.7611 21.7149 11.9026C21.6999 11.9026 21.6879 11.8946 21.6729 11.8946L5.98889 11.9266C5.72368 11.9266 5.46932 12.032 5.28179 12.2195C5.09425 12.4071 4.98889 12.6614 4.98889 12.9266C4.98889 13.1919 5.09425 13.4462 5.28179 13.6338C5.46932 13.8213 5.72368 13.9266 5.98889 13.9266L21.6669 13.8946C21.6949 13.8946 21.7179 13.8806 21.7449 13.8786C21.6562 14.0478 21.5437 14.2034 21.4109 14.3406L17.5319 18.2196C17.4364 18.3119 17.3602 18.4222 17.3078 18.5442C17.2554 18.6662 17.2278 18.7975 17.2266 18.9302C17.2255 19.063 17.2508 19.1947 17.3011 19.3176C17.3513 19.4405 17.4256 19.5521 17.5195 19.646C17.6134 19.7399 17.725 19.8142 17.8479 19.8645C17.9708 19.9147 18.1025 19.9401 18.2353 19.9389C18.3681 19.9377 18.4993 19.9102 18.6213 19.8577C18.7433 19.8053 18.8536 19.7292 18.9459 19.6336L22.8249 15.7546C23.5748 15.0045 23.996 13.9873 23.996 12.9266C23.996 11.866 23.5748 10.8488 22.8249 10.0986H22.8289Z" fill="#374957"/>
<path d="M7 22.9275H5C4.20435 22.9275 3.44129 22.6114 2.87868 22.0488C2.31607 21.4862 2 20.7231 2 19.9275V5.92749C2 5.13184 2.31607 4.36878 2.87868 3.80617C3.44129 3.24356 4.20435 2.92749 5 2.92749H7C7.26522 2.92749 7.51957 2.82213 7.70711 2.6346C7.89464 2.44706 8 2.19271 8 1.92749C8 1.66227 7.89464 1.40792 7.70711 1.22038C7.51957 1.03285 7.26522 0.92749 7 0.92749H5C3.67441 0.929078 2.40356 1.45637 1.46622 2.39371C0.528882 3.33105 0.00158786 4.6019 0 5.92749L0 19.9275C0.00158786 21.2531 0.528882 22.5239 1.46622 23.4613C2.40356 24.3986 3.67441 24.9259 5 24.9275H7C7.26522 24.9275 7.51957 24.8221 7.70711 24.6346C7.89464 24.4471 8 24.1927 8 23.9275C8 23.6623 7.89464 23.4079 7.70711 23.2204C7.51957 23.0328 7.26522 22.9275 7 22.9275Z" fill="#374957"/>
</g>
<defs>
<clipPath id="clip0_507_2255">
<rect width="24" height="24" fill="white" transform="translate(0 0.92749)"/>
</clipPath>
</defs>
</svg>
