<svg width="24" height="25" viewBox="0 0 24 25" fill="none" xmlns="http://www.w3.org/2000/svg">
<g clip-path="url(#clip0_507_1867)">
<path d="M11.8298 24.9275C11.6982 24.9283 11.5677 24.903 11.4459 24.8533C11.324 24.8035 11.2132 24.7302 11.1198 24.6375C11.026 24.5445 10.9517 24.4339 10.9009 24.3121C10.8501 24.1902 10.824 24.0595 10.824 23.9275C10.824 23.7955 10.8501 23.6648 10.9009 23.5429C10.9517 23.4211 11.026 23.3105 11.1198 23.2175L19.2898 15.0475C19.8516 14.485 20.1671 13.7225 20.1671 12.9275C20.1671 12.1325 19.8516 11.37 19.2898 10.8075L11.1198 2.63749C11.0265 2.54425 10.9526 2.43356 10.9021 2.31174C10.8517 2.18992 10.8257 2.05935 10.8257 1.92749C10.8257 1.66119 10.9315 1.4058 11.1198 1.21749C11.3081 1.02919 11.5635 0.923401 11.8298 0.923401C12.0961 0.923401 12.3515 1.02919 12.5398 1.21749L20.7098 9.38749C21.1754 9.85195 21.5448 10.4037 21.7969 11.0112C22.049 11.6186 22.1787 12.2698 22.1787 12.9275C22.1787 13.5852 22.049 14.2364 21.7969 14.8438C21.5448 15.4513 21.1754 16.003 20.7098 16.4675L12.5398 24.6375C12.4463 24.7302 12.3355 24.8035 12.2137 24.8533C12.0918 24.903 11.9614 24.9283 11.8298 24.9275Z" fill="#374957"/>
<path d="M1.83002 24.9275C1.69841 24.9283 1.56795 24.903 1.44611 24.8533C1.32427 24.8035 1.21346 24.7302 1.12002 24.6375C1.02629 24.5445 0.951894 24.4339 0.901126 24.3121C0.850357 24.1902 0.824219 24.0595 0.824219 23.9275C0.824219 23.7955 0.850357 23.6648 0.901126 23.5429C0.951894 23.4211 1.02629 23.3105 1.12002 23.2175L10.71 13.6375C10.8037 13.5445 10.8781 13.4339 10.9289 13.3121C10.9797 13.1902 11.0058 13.0595 11.0058 12.9275C11.0058 12.7955 10.9797 12.6648 10.9289 12.5429C10.8781 12.4211 10.8037 12.3105 10.71 12.2175L1.12002 2.63749C0.931713 2.44919 0.825925 2.19379 0.825925 1.92749C0.825925 1.66119 0.931713 1.4058 1.12002 1.21749C1.30832 1.02919 1.56372 0.923401 1.83002 0.923401C2.09632 0.923401 2.35171 1.02919 2.54002 1.21749L12.12 10.8075C12.6818 11.37 12.9974 12.1325 12.9974 12.9275C12.9974 13.7225 12.6818 14.485 12.12 15.0475L2.54002 24.6375C2.44658 24.7302 2.33576 24.8035 2.21392 24.8533C2.09209 24.903 1.96162 24.9283 1.83002 24.9275Z" fill="#374957"/>
</g>
<defs>
<clipPath id="clip0_507_1867">
<rect width="24" height="24" fill="white" transform="translate(0 0.92749)"/>
</clipPath>
</defs>
</svg>
