<svg width="24" height="25" viewBox="0 0 24 25" fill="none" xmlns="http://www.w3.org/2000/svg">
<path d="M18.0001 12.9275C17.9953 12.4014 17.7833 11.8984 17.4101 11.5275L13.1201 7.2275C12.9328 7.04125 12.6793 6.93671 12.4151 6.93671C12.1509 6.93671 11.8975 7.04125 11.7101 7.2275C11.6164 7.32046 11.542 7.43106 11.4912 7.55292C11.4405 7.67478 11.4143 7.80549 11.4143 7.9375C11.4143 8.06951 11.4405 8.20022 11.4912 8.32207C11.542 8.44393 11.6164 8.55453 11.7101 8.6475L15.0001 11.9275H5.00012C4.73491 11.9275 4.48055 12.0329 4.29302 12.2204C4.10548 12.4079 4.00012 12.6623 4.00012 12.9275C4.00012 13.1927 4.10548 13.4471 4.29302 13.6346C4.48055 13.8221 4.73491 13.9275 5.00012 13.9275H15.0001L11.7101 17.2175C11.5218 17.4045 11.4155 17.6586 11.4146 17.924C11.4136 18.1893 11.5181 18.4442 11.7051 18.6325C11.8921 18.8208 12.1462 18.9271 12.4116 18.928C12.677 18.929 12.9318 18.8245 13.1201 18.6375L17.4101 14.3375C17.7857 13.9641 17.9979 13.4571 18.0001 12.9275Z" fill="#374957"/>
</svg>
