<svg width="24" height="25" viewBox="0 0 24 25" fill="none" xmlns="http://www.w3.org/2000/svg">
<g clip-path="url(#clip0_507_2227)">
<path d="M19 2.92689H16.461C15.7695 2.1387 14.8807 1.54883 13.8858 1.2179C12.8909 0.886968 11.8258 0.826909 10.8 1.04389C9.55068 1.29866 8.42128 1.96097 7.589 2.92689H5C3.67441 2.92848 2.40356 3.45578 1.46622 4.39311C0.528882 5.33045 0.00158786 6.6013 0 7.92689L0 19.9269C0.00158786 21.2525 0.528882 22.5233 1.46622 23.4607C2.40356 24.398 3.67441 24.9253 5 24.9269H19C20.3256 24.9253 21.5964 24.398 22.5338 23.4607C23.4711 22.5233 23.9984 21.2525 24 19.9269V7.92689C23.9984 6.6013 23.4711 5.33045 22.5338 4.39311C21.5964 3.45578 20.3256 2.92848 19 2.92689ZM12 2.92689C13.0609 2.92689 14.0783 3.34832 14.8284 4.09847C15.5786 4.84861 16 5.86603 16 6.92689C16 7.19211 15.8946 7.44646 15.7071 7.634C15.5196 7.82154 15.2652 7.92689 15 7.92689H12.868L13.832 6.48189C13.9792 6.26123 14.0327 5.99114 13.9808 5.73103C13.9288 5.47091 13.7757 5.24209 13.555 5.09489C13.3343 4.9477 13.0642 4.89419 12.8041 4.94614C12.544 4.99808 12.3152 5.15123 12.168 5.37189L10.465 7.92689H9C8.73478 7.92689 8.48043 7.82154 8.29289 7.634C8.10536 7.44646 8 7.19211 8 6.92689C8 5.86603 8.42143 4.84861 9.17157 4.09847C9.92172 3.34832 10.9391 2.92689 12 2.92689ZM22 19.9269C22 20.7225 21.6839 21.4856 21.1213 22.0482C20.5587 22.6108 19.7956 22.9269 19 22.9269H5C4.20435 22.9269 3.44129 22.6108 2.87868 22.0482C2.31607 21.4856 2 20.7225 2 19.9269V7.92689C2 7.13124 2.31607 6.36818 2.87868 5.80557C3.44129 5.24296 4.20435 4.92689 5 4.92689H6.393C6.1339 5.63668 6.0009 6.3863 6 7.14189C6.00079 7.88028 6.29447 8.58819 6.81658 9.11031C7.3387 9.63243 8.04662 9.9261 8.785 9.92689H15.215C15.932 9.93349 16.6235 9.66099 17.1432 9.16701C17.6629 8.67303 17.9702 7.9963 18 7.27989C18.01 6.48233 17.8939 5.6882 17.656 4.92689H19C19.7956 4.92689 20.5587 5.24296 21.1213 5.80557C21.6839 6.36818 22 7.13124 22 7.92689V19.9269Z" fill="#374957"/>
</g>
<defs>
<clipPath id="clip0_507_2227">
<rect width="24" height="24" fill="white" transform="translate(0 0.92749)"/>
</clipPath>
</defs>
</svg>
