<svg width="24" height="25" viewBox="0 0 24 25" fill="none" xmlns="http://www.w3.org/2000/svg">
<g clip-path="url(#clip0_507_2297)">
<path d="M22.773 8.64887C22.3041 8.10847 21.7245 7.67515 21.0736 7.37822C20.4226 7.0813 19.7155 6.92772 19 6.92787H15.011L15.347 4.88687C15.4659 4.16813 15.3225 3.4306 14.9429 2.80881C14.5633 2.18701 13.9728 1.72238 13.2792 1.49966C12.5856 1.27694 11.835 1.31097 11.1644 1.59554C10.4938 1.88012 9.94777 2.39627 9.626 3.04987L7.712 6.92787H5C3.67441 6.92946 2.40356 7.45675 1.46622 8.39409C0.528882 9.33143 0.00158786 10.6023 0 11.9279L0 16.9279C0.00158786 18.2535 0.528882 19.5243 1.46622 20.4616C2.40356 21.399 3.67441 21.9263 5 21.9279H18.3C19.5035 21.9229 20.6652 21.4862 21.5738 20.697C22.4824 19.9079 23.0776 18.8188 23.251 17.6279L23.956 12.6279C24.0553 11.9186 24.001 11.1963 23.7969 10.5098C23.5928 9.82331 23.2437 9.18869 22.773 8.64887ZM2 16.9279V11.9279C2 11.1322 2.31607 10.3692 2.87868 9.80655C3.44129 9.24394 4.20435 8.92787 5 8.92787H7V19.9279H5C4.20435 19.9279 3.44129 19.6118 2.87868 19.0492C2.31607 18.4866 2 17.7235 2 16.9279ZM21.971 12.3469L21.265 17.3469C21.1618 18.0609 20.8057 18.7141 20.2616 19.1877C19.7175 19.6614 19.0214 19.924 18.3 19.9279H9V8.66187C9.09424 8.57976 9.17226 8.48072 9.23 8.36987L11.419 3.93487C11.5011 3.7868 11.6171 3.66032 11.7576 3.56583C11.8981 3.47134 12.059 3.41153 12.2271 3.39133C12.3952 3.37112 12.5657 3.39109 12.7246 3.44959C12.8834 3.5081 13.0262 3.60347 13.141 3.72787C13.2392 3.84211 13.3111 3.97664 13.3513 4.12184C13.3916 4.26704 13.3994 4.41933 13.374 4.56787L12.846 7.76787C12.8228 7.91085 12.831 8.05716 12.8699 8.19667C12.9089 8.33619 12.9776 8.46558 13.0715 8.5759C13.1654 8.68621 13.2821 8.77482 13.4136 8.8356C13.545 8.89637 13.6882 8.92785 13.833 8.92787H19C19.4294 8.92781 19.8538 9.01993 20.2445 9.19801C20.6353 9.37609 20.9832 9.63598 21.2649 9.9601C21.5465 10.2842 21.7553 10.665 21.8772 11.0768C21.999 11.4886 22.031 11.9217 21.971 12.3469Z" fill="#374957"/>
</g>
<defs>
<clipPath id="clip0_507_2297">
<rect width="24" height="24" fill="white" transform="translate(0 0.92749)"/>
</clipPath>
</defs>
</svg>
