<svg width="24" height="25" viewBox="0 0 24 25" fill="none" xmlns="http://www.w3.org/2000/svg">
<g clip-path="url(#clip0_507_1922)">
<path d="M19 0.92749H5C3.67441 0.929078 2.40356 1.45637 1.46622 2.39371C0.528882 3.33105 0.00158786 4.6019 0 5.92749L0 10.9275C0.00238142 12.7833 0.740644 14.5624 2.05288 15.8746C3.36512 17.1868 5.14422 17.9251 7 17.9275H9V21.9275C9 22.7231 9.31607 23.4862 9.87868 24.0488C10.4413 24.6114 11.2044 24.9275 12 24.9275C12.7956 24.9275 13.5587 24.6114 14.1213 24.0488C14.6839 23.4862 15 22.7231 15 21.9275V17.9275H17C18.8558 17.9251 20.6349 17.1868 21.9471 15.8746C23.2594 14.5624 23.9976 12.7833 24 10.9275V5.92749C23.9984 4.6019 23.4711 3.33105 22.5338 2.39371C21.5964 1.45637 20.3256 0.929078 19 0.92749V0.92749ZM2 5.92749C2 5.13184 2.31607 4.36878 2.87868 3.80617C3.44129 3.24356 4.20435 2.92749 5 2.92749H10V3.92749C10 4.19271 10.1054 4.44706 10.2929 4.6346C10.4804 4.82213 10.7348 4.92749 11 4.92749C11.2652 4.92749 11.5196 4.82213 11.7071 4.6346C11.8946 4.44706 12 4.19271 12 3.92749V2.92749H14V5.92749C14 6.19271 14.1054 6.44706 14.2929 6.6346C14.4804 6.82213 14.7348 6.92749 15 6.92749C15.2652 6.92749 15.5196 6.82213 15.7071 6.6346C15.8946 6.44706 16 6.19271 16 5.92749V2.92749H18V7.92749C18 8.19271 18.1054 8.44706 18.2929 8.6346C18.4804 8.82213 18.7348 8.92749 19 8.92749C19.2652 8.92749 19.5196 8.82213 19.7071 8.6346C19.8946 8.44706 20 8.19271 20 7.92749V3.11149C20.5829 3.31757 21.0879 3.69872 21.4459 4.20279C21.8039 4.70686 21.9974 5.30923 22 5.92749V10.9275H2V5.92749ZM17 15.9275H14C13.7348 15.9275 13.4804 16.0328 13.2929 16.2204C13.1054 16.4079 13 16.6623 13 16.9275V21.9275C13 22.1927 12.8946 22.4471 12.7071 22.6346C12.5196 22.8221 12.2652 22.9275 12 22.9275C11.7348 22.9275 11.4804 22.8221 11.2929 22.6346C11.1054 22.4471 11 22.1927 11 21.9275V16.9275C11 16.6623 10.8946 16.4079 10.7071 16.2204C10.5196 16.0328 10.2652 15.9275 10 15.9275H7C6.02823 15.9262 5.0779 15.6418 4.26521 15.109C3.45252 14.5762 2.81271 13.8181 2.424 12.9275H21.576C21.1873 13.8181 20.5475 14.5762 19.7348 15.109C18.9221 15.6418 17.9718 15.9262 17 15.9275Z" fill="#374957"/>
</g>
<defs>
<clipPath id="clip0_507_1922">
<rect width="24" height="24" fill="white" transform="translate(0 0.92749)"/>
</clipPath>
</defs>
</svg>
