<svg width="24" height="25" viewBox="0 0 24 25" fill="none" xmlns="http://www.w3.org/2000/svg">
<g clip-path="url(#clip0_507_1984)">
<path d="M15 20.9275H5C3.67441 20.9259 2.40356 20.3986 1.46622 19.4613C0.528882 18.5239 0.00158786 17.2531 0 15.9275L0 5.92749C0.00158786 4.6019 0.528882 3.33105 1.46622 2.39371C2.40356 1.45637 3.67441 0.929078 5 0.92749L15 0.92749C16.3256 0.929078 17.5964 1.45637 18.5338 2.39371C19.4711 3.33105 19.9984 4.6019 20 5.92749V15.9275C19.9984 17.2531 19.4711 18.5239 18.5338 19.4613C17.5964 20.3986 16.3256 20.9259 15 20.9275ZM5 2.92749C4.20435 2.92749 3.44129 3.24356 2.87868 3.80617C2.31607 4.36878 2 5.13184 2 5.92749V15.9275C2 16.7231 2.31607 17.4862 2.87868 18.0488C3.44129 18.6114 4.20435 18.9275 5 18.9275H15C15.7956 18.9275 16.5587 18.6114 17.1213 18.0488C17.6839 17.4862 18 16.7231 18 15.9275V5.92749C18 5.13184 17.6839 4.36878 17.1213 3.80617C16.5587 3.24356 15.7956 2.92749 15 2.92749H5ZM24 19.9275V6.92749C24 6.66227 23.8946 6.40792 23.7071 6.22038C23.5196 6.03285 23.2652 5.92749 23 5.92749C22.7348 5.92749 22.4804 6.03285 22.2929 6.22038C22.1054 6.40792 22 6.66227 22 6.92749V19.9275C22 20.7231 21.6839 21.4862 21.1213 22.0488C20.5587 22.6114 19.7956 22.9275 19 22.9275H6C5.73478 22.9275 5.48043 23.0328 5.29289 23.2204C5.10536 23.4079 5 23.6623 5 23.9275C5 24.1927 5.10536 24.4471 5.29289 24.6346C5.48043 24.8221 5.73478 24.9275 6 24.9275H19C20.3256 24.9259 21.5964 24.3986 22.5338 23.4613C23.4711 22.5239 23.9984 21.2531 24 19.9275Z" fill="#374957"/>
</g>
<defs>
<clipPath id="clip0_507_1984">
<rect width="24" height="24" fill="white" transform="translate(0 0.92749)"/>
</clipPath>
</defs>
</svg>
