<svg width="24" height="25" viewBox="0 0 24 25" fill="none" xmlns="http://www.w3.org/2000/svg">
<g clip-path="url(#clip0_507_1942)">
<path d="M22.9999 5.92749H20.4139L22.7069 3.63449C22.8891 3.44589 22.9899 3.19329 22.9876 2.93109C22.9853 2.66889 22.8801 2.41808 22.6947 2.23267C22.5093 2.04726 22.2585 1.94209 21.9963 1.93982C21.7341 1.93754 21.4815 2.03833 21.2929 2.22049L18.9999 4.51349V1.92749C18.9999 1.66227 18.8946 1.40792 18.707 1.22038C18.5195 1.03285 18.2651 0.92749 17.9999 0.92749C17.7347 0.92749 17.4803 1.03285 17.2928 1.22038C17.1053 1.40792 16.9999 1.66227 16.9999 1.92749V6.38349C16.1814 5.5121 15.2152 4.79235 14.1459 4.25749C13.3952 3.92635 12.5568 3.84953 11.7584 4.03871C10.96 4.22789 10.2453 4.67271 9.72291 5.30549C7.96491 7.06349 3.06491 16.0485 0.299914 21.2465C0.0569038 21.7194 -0.029696 22.2573 0.0525918 22.7827C0.13488 23.308 0.381806 23.7936 0.757796 24.1696C1.13379 24.5456 1.61943 24.7925 2.14475 24.8748C2.67008 24.9571 3.20796 24.8705 3.68091 24.6275C8.88091 21.8635 17.8639 16.9625 19.6219 15.2045C20.2545 14.6822 20.6993 13.9677 20.8886 13.1696C21.078 12.3714 21.0015 11.5332 20.6709 10.7825C20.1354 9.71313 19.4153 8.74665 18.5439 7.92749H22.9999C23.2651 7.92749 23.5195 7.82213 23.707 7.6346C23.8946 7.44706 23.9999 7.19271 23.9999 6.92749C23.9999 6.66227 23.8946 6.40792 23.707 6.22038C23.5195 6.03285 23.2651 5.92749 22.9999 5.92749ZM18.2079 13.7905C17.493 14.4022 16.7257 14.95 15.9149 15.4275L13.7069 13.2205C13.5183 13.0383 13.2657 12.9375 13.0035 12.9398C12.7413 12.9421 12.4905 13.0473 12.3051 13.2327C12.1197 13.4181 12.0145 13.6689 12.0122 13.9311C12.01 14.1933 12.1108 14.4459 12.2929 14.6345L14.1629 16.5035C11.4169 18.1465 7.47391 20.3455 2.74191 22.8615C2.64739 22.9116 2.53928 22.9301 2.43347 22.9142C2.32766 22.8984 2.22973 22.849 2.15407 22.7733C2.07842 22.6977 2.02902 22.5997 2.01315 22.4939C1.99729 22.3881 2.01578 22.28 2.06591 22.1855C3.58791 19.3245 4.98891 16.7615 6.22591 14.5675L8.29291 16.6345C8.48152 16.8166 8.73412 16.9174 8.99632 16.9152C9.25851 16.9129 9.50933 16.8077 9.69473 16.6223C9.88014 16.4369 9.98531 16.1861 9.98759 15.9239C9.98987 15.6617 9.88907 15.4091 9.70691 15.2205L7.25091 12.7645C8.34091 10.8755 9.25691 9.36449 9.95991 8.30149L12.2929 10.6345C12.4815 10.8166 12.7341 10.9174 12.9963 10.9152C13.2585 10.9129 13.5093 10.8077 13.6947 10.6223C13.8801 10.4369 13.9853 10.1861 13.9876 9.92389C13.9899 9.66169 13.8891 9.40909 13.7069 9.22049L11.1739 6.68749C12.0209 5.89849 12.5399 5.76549 13.3569 6.09549C14.491 6.74269 15.5079 7.57636 16.3649 8.56149C17.3504 9.41881 18.1844 10.436 18.8319 11.5705C19.0809 12.1505 19.1779 12.8215 18.2079 13.7905Z" fill="#374957"/>
</g>
<defs>
<clipPath id="clip0_507_1942">
<rect width="24" height="24" fill="white" transform="translate(0 0.92749)"/>
</clipPath>
</defs>
</svg>
