<svg width="24" height="25" viewBox="0 0 24 25" fill="none" xmlns="http://www.w3.org/2000/svg">
<g clip-path="url(#clip0_507_2218)">
<path d="M11.9999 24.8546C11.3433 24.8555 10.693 24.7269 10.0862 24.476C9.4794 24.2251 8.9281 23.8569 8.46388 23.3926L1.53388 16.4616C0.596523 15.5239 0.0699463 14.2524 0.0699463 12.9266C0.0699463 11.6008 0.596523 10.3292 1.53388 9.39159L8.46388 2.46059C9.40264 1.52458 10.6742 0.998962 11.9999 0.998962C13.3255 0.998962 14.5971 1.52458 15.5359 2.46059L22.4659 9.39159C23.4032 10.3292 23.9298 11.6008 23.9298 12.9266C23.9298 14.2524 23.4032 15.5239 22.4659 16.4616L15.5359 23.3926C15.0717 23.8569 14.5204 24.2251 13.9136 24.476C13.3068 24.7269 12.6565 24.8555 11.9999 24.8546ZM11.9999 2.99759C11.6059 2.99684 11.2156 3.07393 10.8514 3.22443C10.4873 3.37493 10.1564 3.59588 9.87788 3.87459L2.94788 10.8056C2.38547 11.3682 2.06952 12.1311 2.06952 12.9266C2.06952 13.7221 2.38547 14.485 2.94788 15.0476L9.87788 21.9786C10.1565 22.2574 10.4873 22.4785 10.8514 22.6294C11.2155 22.7803 11.6058 22.8579 11.9999 22.8579C12.394 22.8579 12.7843 22.7803 13.1484 22.6294C13.5125 22.4785 13.8433 22.2574 14.1219 21.9786L21.0519 15.0476C21.6143 14.485 21.9302 13.7221 21.9302 12.9266C21.9302 12.1311 21.6143 11.3682 21.0519 10.8056L14.1219 3.87459C13.8433 3.59588 13.5125 3.37493 13.1484 3.22443C12.7842 3.07393 12.3939 2.99684 11.9999 2.99759Z" fill="#374957"/>
</g>
<defs>
<clipPath id="clip0_507_2218">
<rect width="24" height="24" fill="white" transform="translate(0 0.92749)"/>
</clipPath>
</defs>
</svg>
