<svg width="24" height="25" viewBox="0 0 24 25" fill="none" xmlns="http://www.w3.org/2000/svg">
<g clip-path="url(#clip0_507_2243)">
<path d="M19.989 12.9281H18.653C17.69 10.6612 16.2074 8.65244 14.325 7.06407C13.4278 6.3305 12.3049 5.92922 11.146 5.92807H8.818L8.11 3.24307C8.00593 2.84845 7.82515 2.47819 7.57798 2.15343C7.33082 1.82868 7.0221 1.55578 6.66947 1.35033C6.31684 1.14488 5.9272 1.0109 5.52279 0.956037C5.11838 0.901172 4.70712 0.926499 4.3125 1.03057C3.91788 1.13464 3.54762 1.31542 3.22286 1.56259C2.89811 1.80976 2.62521 2.11847 2.41976 2.4711C2.21431 2.82373 2.08033 3.21337 2.02547 3.61778C1.9706 4.02219 1.99593 4.43345 2.1 4.82807L2.394 5.92807H1C0.734784 5.92807 0.48043 6.03343 0.292893 6.22096C0.105357 6.4085 0 6.66286 0 6.92807C0 7.19329 0.105357 7.44764 0.292893 7.63518C0.48043 7.82271 0.734784 7.92807 1 7.92807H11.146C11.8438 7.9299 12.5195 8.17257 13.059 8.61507C14.4732 9.80565 15.626 11.2758 16.445 12.9331H15.625C15.0239 12.9286 14.4351 13.1026 13.933 13.4331L11.949 14.7551C11.7871 14.8656 11.5961 14.9258 11.4 14.9281H1C0.734784 14.9281 0.48043 15.0334 0.292893 15.221C0.105357 15.4085 0 15.6629 0 15.9281C0 16.1933 0.105357 16.4476 0.292893 16.6352C0.48043 16.8227 0.734784 16.9281 1 16.9281H11.4C11.9919 16.9297 12.571 16.7557 13.064 16.4281L15.047 15.1061C15.2152 14.9896 15.4166 14.9307 15.621 14.9381H19.99C20.3294 14.9369 20.6636 15.0221 20.961 15.1856C21.2584 15.3492 21.5093 15.5858 21.69 15.8731C21.8734 16.1542 21.9811 16.4779 22.0027 16.8129C22.0242 17.1479 21.9589 17.4828 21.813 17.7851C21.0792 19.3237 19.9249 20.6232 18.4836 21.5333C17.0422 22.4435 15.3727 22.927 13.668 22.9281H1C0.734784 22.9281 0.48043 23.0334 0.292893 23.221C0.105357 23.4085 0 23.6629 0 23.9281C0 24.1933 0.105357 24.4476 0.292893 24.6352C0.48043 24.8227 0.734784 24.9281 1 24.9281H13.668C15.7517 24.9238 17.7917 24.3299 19.552 23.2151C21.3124 22.1002 22.7214 20.51 23.616 18.6281C23.9025 18.018 24.0301 17.3454 23.9871 16.6728C23.9441 16.0002 23.7318 15.3493 23.3699 14.7807C23.0081 14.212 22.5085 13.7441 21.9174 13.4202C21.3263 13.0963 20.663 12.927 19.989 12.9281ZM4.037 4.31607C3.97168 4.03553 4.01828 3.74057 4.16691 3.49382C4.31555 3.24708 4.5545 3.06799 4.83304 2.99458C5.11158 2.92117 5.40777 2.95923 5.6587 3.10066C5.90964 3.24209 6.09557 3.47577 6.177 3.75207L6.75 5.92807H4.462L4.037 4.31607ZM0 10.9281C0 10.6629 0.105357 10.4085 0.292893 10.221C0.48043 10.0334 0.734784 9.92807 1 9.92807H10C10.2652 9.92807 10.5196 10.0334 10.7071 10.221C10.8946 10.4085 11 10.6629 11 10.9281C11 11.1933 10.8946 11.4476 10.7071 11.6352C10.5196 11.8227 10.2652 11.9281 10 11.9281H1C0.734784 11.9281 0.48043 11.8227 0.292893 11.6352C0.105357 11.4476 0 11.1933 0 10.9281ZM4 20.9281C3.80222 20.9281 3.60888 20.8694 3.44443 20.7595C3.27998 20.6497 3.15181 20.4935 3.07612 20.3108C3.00043 20.128 2.98063 19.927 3.01922 19.733C3.0578 19.539 3.15304 19.3608 3.29289 19.221C3.43275 19.0811 3.61093 18.9859 3.80491 18.9473C3.99889 18.9087 4.19996 18.9285 4.38268 19.0042C4.56541 19.0799 4.72159 19.2081 4.83147 19.3725C4.94135 19.537 5 19.7303 5 19.9281C5 20.1933 4.89464 20.4476 4.70711 20.6352C4.51957 20.8227 4.26522 20.9281 4 20.9281ZM8 20.9281C7.80222 20.9281 7.60888 20.8694 7.44443 20.7595C7.27998 20.6497 7.15181 20.4935 7.07612 20.3108C7.00043 20.128 6.98063 19.927 7.01922 19.733C7.0578 19.539 7.15304 19.3608 7.29289 19.221C7.43275 19.0811 7.61093 18.9859 7.80491 18.9473C7.99889 18.9087 8.19996 18.9285 8.38268 19.0042C8.56541 19.0799 8.72159 19.2081 8.83147 19.3725C8.94135 19.537 9 19.7303 9 19.9281C9 20.1933 8.89464 20.4476 8.70711 20.6352C8.51957 20.8227 8.26522 20.9281 8 20.9281ZM12 20.9281C11.8022 20.9281 11.6089 20.8694 11.4444 20.7595C11.28 20.6497 11.1518 20.4935 11.0761 20.3108C11.0004 20.128 10.9806 19.927 11.0192 19.733C11.0578 19.539 11.153 19.3608 11.2929 19.221C11.4327 19.0811 11.6109 18.9859 11.8049 18.9473C11.9989 18.9087 12.2 18.9285 12.3827 19.0042C12.5654 19.0799 12.7216 19.2081 12.8315 19.3725C12.9414 19.537 13 19.7303 13 19.9281C13 20.1933 12.8946 20.4476 12.7071 20.6352C12.5196 20.8227 12.2652 20.9281 12 20.9281Z" fill="#374957"/>
</g>
<defs>
<clipPath id="clip0_507_2243">
<rect width="24" height="24" fill="white" transform="translate(0 0.92749)"/>
</clipPath>
</defs>
</svg>
