<svg width="24" height="25" viewBox="0 0 24 25" fill="none" xmlns="http://www.w3.org/2000/svg">
<g clip-path="url(#clip0_507_2308)">
<path d="M12 0.92749C9.62663 0.92749 7.30655 1.63128 5.33316 2.94986C3.35977 4.26843 1.8217 6.14258 0.913451 8.33529C0.00519943 10.528 -0.232441 12.9408 0.230582 15.2686C0.693605 17.5963 1.83649 19.7345 3.51472 21.4128C5.19295 23.091 7.33115 24.2339 9.65892 24.6969C11.9867 25.1599 14.3995 24.9223 16.5922 24.014C18.7849 23.1058 20.6591 21.5677 21.9776 19.5943C23.2962 17.6209 24 15.3009 24 12.9275C23.9966 9.74595 22.7312 6.6957 20.4815 4.44601C18.2318 2.19632 15.1815 0.930931 12 0.92749V0.92749ZM12 22.9275C10.0222 22.9275 8.08879 22.341 6.4443 21.2422C4.79981 20.1434 3.51809 18.5816 2.76121 16.7543C2.00433 14.9271 1.8063 12.9164 2.19215 10.9766C2.578 9.03678 3.53041 7.25495 4.92894 5.85642C6.32746 4.4579 8.10929 3.50549 10.0491 3.11964C11.9889 2.73379 13.9996 2.93182 15.8268 3.6887C17.6541 4.44557 19.2159 5.7273 20.3147 7.37179C21.4135 9.01628 22 10.9497 22 12.9275C21.9971 15.5788 20.9426 18.1206 19.0679 19.9953C17.1931 21.8701 14.6513 22.9246 12 22.9275ZM14 12.9275C14.0016 13.2789 13.9105 13.6246 13.736 13.9297C13.5615 14.2347 13.3097 14.4884 13.0059 14.6652C12.7021 14.8419 12.3571 14.9355 12.0057 14.9365C11.6542 14.9375 11.3087 14.8459 11.004 14.6708C10.6992 14.4958 10.4459 14.2435 10.2697 13.9395C10.0934 13.6354 10.0004 13.2903 10 12.9388C9.99963 12.5874 10.0918 12.242 10.2674 11.9375C10.443 11.6331 10.6956 11.3802 11 11.2045V7.92749C11 7.66227 11.1054 7.40792 11.2929 7.22038C11.4804 7.03285 11.7348 6.92749 12 6.92749C12.2652 6.92749 12.5196 7.03285 12.7071 7.22038C12.8946 7.40792 13 7.66227 13 7.92749V11.2045C13.3031 11.3788 13.5551 11.6297 13.7306 11.9322C13.9061 12.2346 13.999 12.5778 14 12.9275Z" fill="#374957"/>
</g>
<defs>
<clipPath id="clip0_507_2308">
<rect width="24" height="24" fill="white" transform="translate(0 0.92749)"/>
</clipPath>
</defs>
</svg>
