<svg width="24" height="25" viewBox="0 0 24 25" fill="none" xmlns="http://www.w3.org/2000/svg">
<g clip-path="url(#clip0_507_2102)">
<path d="M18 6.92749C15.028 6.92749 13.057 9.15449 12 10.8095C10.943 9.15449 8.972 6.92749 6 6.92749C4.4087 6.92749 2.88258 7.55963 1.75736 8.68485C0.632141 9.81007 0 11.3362 0 12.9275C0 14.5188 0.632141 16.0449 1.75736 17.1701C2.88258 18.2954 4.4087 18.9275 6 18.9275C8.972 18.9275 10.943 16.7005 12 15.0455C13.057 16.7005 15.028 18.9275 18 18.9275C19.5913 18.9275 21.1174 18.2954 22.2426 17.1701C23.3679 16.0449 24 14.5188 24 12.9275C24 11.3362 23.3679 9.81007 22.2426 8.68485C21.1174 7.55963 19.5913 6.92749 18 6.92749ZM6 16.9275C4.93913 16.9275 3.92172 16.5061 3.17157 15.7559C2.42143 15.0058 2 13.9884 2 12.9275C2 11.8666 2.42143 10.8492 3.17157 10.0991C3.92172 9.34892 4.93913 8.92749 6 8.92749C8.693 8.92749 10.382 11.8725 10.9 12.9275C10.386 13.9875 8.708 16.9275 6 16.9275ZM18 16.9275C15.307 16.9275 13.618 13.9825 13.1 12.9275C13.615 11.8695 15.293 8.92749 18 8.92749C19.0609 8.92749 20.0783 9.34892 20.8284 10.0991C21.5786 10.8492 22 11.8666 22 12.9275C22 13.9884 21.5786 15.0058 20.8284 15.7559C20.0783 16.5061 19.0609 16.9275 18 16.9275Z" fill="#374957"/>
</g>
<defs>
<clipPath id="clip0_507_2102">
<rect width="24" height="24" fill="white" transform="translate(0 0.92749)"/>
</clipPath>
</defs>
</svg>
