<svg width="24" height="25" viewBox="0 0 24 25" fill="none" xmlns="http://www.w3.org/2000/svg">
<g clip-path="url(#clip0_507_2346)">
<path d="M20.8068 5.21804C20.7139 5.12513 20.6036 5.05143 20.4822 5.00115C20.3608 4.95087 20.2307 4.92499 20.0993 4.92499C19.9679 4.92499 19.8378 4.95087 19.7164 5.00115C19.595 5.05143 19.4847 5.12513 19.3918 5.21804C19.2989 5.31095 19.2252 5.42125 19.1749 5.54265C19.1246 5.66404 19.0988 5.79415 19.0988 5.92554C19.0988 6.05694 19.1246 6.18705 19.1749 6.30844C19.2252 6.42983 19.2989 6.54013 19.3918 6.63304C21.0588 8.30395 21.9949 10.5678 21.9949 12.928C21.9949 15.2883 21.0588 17.5521 19.3918 19.223C19.2042 19.4107 19.0988 19.6652 19.0988 19.9305C19.0988 20.1959 19.2042 20.4504 19.3918 20.638C19.5795 20.8257 19.8339 20.9311 20.0993 20.9311C20.3647 20.9311 20.6192 20.8257 20.8068 20.638C22.8486 18.5916 23.9953 15.8188 23.9953 12.928C23.9953 10.0372 22.8486 7.26447 20.8068 5.21804Z" fill="#374957"/>
<path d="M18.1003 8.21829C18.0074 8.12505 17.897 8.05102 17.7755 8.00044C17.654 7.94985 17.5237 7.9237 17.392 7.92346C17.2604 7.92323 17.13 7.94893 17.0083 7.99908C16.8866 8.04924 16.776 8.12288 16.6828 8.21579C16.5895 8.3087 16.5155 8.41906 16.4649 8.54058C16.4143 8.6621 16.3882 8.79239 16.3879 8.92402C16.3877 9.05564 16.4134 9.18603 16.4636 9.30772C16.5137 9.42942 16.5874 9.54005 16.6803 9.63329C17.553 10.5074 18.0432 11.6921 18.0432 12.9273C18.0432 14.1625 17.553 15.3472 16.6803 16.2213C16.5874 16.3145 16.5137 16.4251 16.4636 16.5468C16.4134 16.6685 16.3877 16.7989 16.3879 16.9305C16.3882 17.0622 16.4143 17.1925 16.4649 17.314C16.5155 17.4355 16.5895 17.5459 16.6828 17.6388C16.8711 17.8264 17.1262 17.9316 17.392 17.9311C17.5237 17.9309 17.654 17.9047 17.7755 17.8541C17.897 17.8035 18.0074 17.7295 18.1003 17.6363C19.3476 16.3865 20.0481 14.693 20.0481 12.9273C20.0481 11.1616 19.3476 9.46803 18.1003 8.21829Z" fill="#374957"/>
<path d="M13.82 1.12772C10.7793 1.69899 8.07468 3.41757 6.266 5.92772H5C3.67457 5.92984 2.40403 6.4573 1.4668 7.39453C0.529579 8.33175 0.00211562 9.60229 0 10.9277L0 14.9277C0.00211562 16.2532 0.529579 17.5237 1.4668 18.4609C2.40403 19.3981 3.67457 19.9256 5 19.9277H6.266C8.07504 22.4375 10.7795 24.156 13.82 24.7277C13.8796 24.7394 13.9403 24.7451 14.001 24.7447C14.2662 24.7447 14.5206 24.6394 14.7081 24.4518C14.8956 24.2643 15.001 24.0099 15.001 23.7447V2.11372C15.0014 1.96686 14.9694 1.82171 14.9073 1.68861C14.8453 1.5555 14.7546 1.4377 14.6419 1.34357C14.5292 1.24945 14.3971 1.18131 14.255 1.144C14.113 1.1067 13.9644 1.10114 13.82 1.12772ZM13 22.4627C10.7944 21.7596 8.89788 20.319 7.629 18.3827C7.53834 18.2432 7.41432 18.1286 7.26817 18.0491C7.12201 17.9697 6.95835 17.928 6.792 17.9277H5C4.20435 17.9277 3.44129 17.6117 2.87868 17.049C2.31607 16.4864 2 15.7234 2 14.9277V10.9277C2 10.1321 2.31607 9.36901 2.87868 8.8064C3.44129 8.24379 4.20435 7.92772 5 7.92772H6.8C6.96617 7.9277 7.12971 7.88627 7.27585 7.80718C7.42198 7.72809 7.54611 7.61383 7.637 7.47472C8.90329 5.53896 10.7969 4.09767 13 3.39272V22.4627Z" fill="#374957"/>
</g>
<defs>
<clipPath id="clip0_507_2346">
<rect width="24" height="24" fill="white" transform="translate(0 0.92749)"/>
</clipPath>
</defs>
</svg>
