<svg width="24" height="25" viewBox="0 0 24 25" fill="none" xmlns="http://www.w3.org/2000/svg">
<g clip-path="url(#clip0_507_1887)">
<path d="M23.12 10.8375L19.25 6.92751C19.157 6.83378 19.0464 6.75939 18.9246 6.70862C18.8027 6.65785 18.672 6.63171 18.54 6.63171C18.408 6.63171 18.2773 6.65785 18.1554 6.70862C18.0336 6.75939 17.923 6.83378 17.83 6.92751C17.6437 7.11487 17.5392 7.36833 17.5392 7.63251C17.5392 7.8967 17.6437 8.15015 17.83 8.33751L21.39 11.9275H1C0.734784 11.9275 0.48043 12.0329 0.292893 12.2204C0.105357 12.4079 0 12.6623 0 12.9275H0C0 13.1927 0.105357 13.4471 0.292893 13.6346C0.48043 13.8222 0.734784 13.9275 1 13.9275H21.45L17.83 17.5375C17.7363 17.6305 17.6619 17.7411 17.6111 17.8629C17.5603 17.9848 17.5342 18.1155 17.5342 18.2475C17.5342 18.3795 17.5603 18.5102 17.6111 18.6321C17.6619 18.7539 17.7363 18.8645 17.83 18.9575C17.923 19.0512 18.0336 19.1256 18.1554 19.1764C18.2773 19.2272 18.408 19.2533 18.54 19.2533C18.672 19.2533 18.8027 19.2272 18.9246 19.1764C19.0464 19.1256 19.157 19.0512 19.25 18.9575L23.12 15.0775C23.6818 14.515 23.9974 13.7525 23.9974 12.9575C23.9974 12.1625 23.6818 11.4 23.12 10.8375Z" fill="#374957"/>
</g>
<defs>
<clipPath id="clip0_507_1887">
<rect width="24" height="24" fill="white" transform="translate(0 0.92749)"/>
</clipPath>
</defs>
</svg>
