<svg width="24" height="25" viewBox="0 0 24 25" fill="none" xmlns="http://www.w3.org/2000/svg">
<g clip-path="url(#clip0_507_2238)">
<path d="M18.5811 3.06816L12.3161 0.979158C12.111 0.910837 11.8893 0.910837 11.6841 0.979158L5.41912 3.06816C4.42303 3.39904 3.55654 4.03542 2.94277 4.88687C2.329 5.73832 1.99916 6.76155 2.00012 7.81116V12.9282C2.00012 20.4912 11.2001 24.6682 11.5941 24.8422C11.7219 24.8989 11.8603 24.9283 12.0001 24.9283C12.14 24.9283 12.2783 24.8989 12.4061 24.8422C12.8001 24.6682 22.0001 20.4912 22.0001 12.9282V7.81116C22.0011 6.76155 21.6713 5.73832 21.0575 4.88687C20.4437 4.03542 19.5772 3.39904 18.5811 3.06816ZM20.0001 12.9282C20.0001 18.3832 13.6811 21.9612 12.0001 22.8172C10.3171 21.9642 4.00012 18.3972 4.00012 12.9282V7.81116C4.00018 7.18144 4.1984 6.5677 4.56669 6.0569C4.93498 5.5461 5.45467 5.16415 6.05212 4.96516L12.0001 2.98216L17.9481 4.96516C18.5456 5.16415 19.0653 5.5461 19.4336 6.0569C19.8018 6.5677 20.0001 7.18144 20.0001 7.81116V12.9282Z" fill="#374957"/>
<path d="M15.2999 9.22781L11.1119 13.4278L8.86792 11.0878C8.77786 10.9894 8.66901 10.9099 8.54778 10.8542C8.42654 10.7984 8.29538 10.7675 8.16201 10.7632C8.02864 10.759 7.89577 10.7814 7.77122 10.8293C7.64667 10.8772 7.53296 10.9495 7.43679 11.042C7.34062 11.1345 7.26393 11.2453 7.21125 11.3679C7.15856 11.4905 7.13095 11.6224 7.13003 11.7558C7.12911 11.8893 7.1549 12.0215 7.20589 12.1448C7.25688 12.2681 7.33203 12.38 7.42692 12.4738L9.73291 14.8738C9.90489 15.0596 10.1128 15.2085 10.3439 15.3116C10.5751 15.4148 10.8248 15.4699 11.0779 15.4738H11.1109C11.359 15.4746 11.6047 15.4262 11.8339 15.3312C12.0631 15.2363 12.2711 15.0968 12.4459 14.9208L16.7179 10.6488C16.8112 10.5557 16.8853 10.4451 16.9358 10.3234C16.9864 10.2017 17.0125 10.0712 17.0127 9.93937C17.0128 9.80756 16.987 9.67701 16.9367 9.55518C16.8863 9.43334 16.8125 9.32261 16.7194 9.22931C16.6263 9.13601 16.5157 9.06195 16.394 9.01138C16.2723 8.96081 16.1418 8.93471 16.01 8.93457C15.8782 8.93443 15.7476 8.96026 15.6258 9.01057C15.5039 9.06088 15.3932 9.1347 15.2999 9.22781Z" fill="#374957"/>
</g>
<defs>
<clipPath id="clip0_507_2238">
<rect width="24" height="24" fill="white" transform="translate(0 0.92749)"/>
</clipPath>
</defs>
</svg>
