<svg width="24" height="25" viewBox="0 0 24 25" fill="none" xmlns="http://www.w3.org/2000/svg">
<g clip-path="url(#clip0_507_2340)">
<path d="M10.007 3.92749L8 3.91349C7.9963 3.12027 7.67859 2.3608 7.11639 1.80121C6.55418 1.24163 5.79323 0.927482 5 0.92749L3 0.92749C2.20435 0.92749 1.44129 1.24356 0.87868 1.80617C0.31607 2.36878 0 3.13184 0 3.92749L0 5.92749C-2.16263e-06 6.72193 0.315107 7.48393 0.876203 8.04634C1.4373 8.60875 2.19856 8.92564 2.993 8.92749L2.979 10.9205C2.97808 11.0519 3.00306 11.1822 3.05253 11.3039C3.102 11.4257 3.17497 11.5365 3.26729 11.63C3.3596 11.7235 3.46945 11.7979 3.59054 11.849C3.71163 11.9 3.84159 11.9267 3.973 11.9275H3.979C4.24301 11.9275 4.49631 11.8231 4.68364 11.6371C4.87098 11.4511 4.97715 11.1985 4.979 10.9345L4.993 8.92749H5C5.79565 8.92749 6.55871 8.61142 7.12132 8.04881C7.68393 7.4862 8 6.72314 8 5.92749V5.91349L9.993 5.92749H10C10.1313 5.92795 10.2614 5.90254 10.3829 5.85271C10.5045 5.80288 10.6149 5.72961 10.7081 5.63707C10.8013 5.54454 10.8754 5.43456 10.926 5.31341C10.9767 5.19226 11.003 5.06231 11.0035 4.93099C11.004 4.79967 10.9785 4.66954 10.9287 4.54804C10.8789 4.42654 10.8056 4.31604 10.7131 4.22286C10.6205 4.12967 10.5106 4.05563 10.3894 4.00495C10.2683 3.95427 10.1383 3.92795 10.007 3.92749ZM6 5.92749C6 6.19271 5.89464 6.44706 5.70711 6.6346C5.51957 6.82213 5.26522 6.92749 5 6.92749H3C2.73478 6.92749 2.48043 6.82213 2.29289 6.6346C2.10536 6.44706 2 6.19271 2 5.92749V3.92749C2 3.66227 2.10536 3.40792 2.29289 3.22038C2.48043 3.03285 2.73478 2.92749 3 2.92749H5C5.26522 2.92749 5.51957 3.03285 5.70711 3.22038C5.89464 3.40792 6 3.66227 6 3.92749V5.92749Z" fill="#374957"/>
<path d="M20.9997 0.92749H18.9997C18.2053 0.927488 17.4433 1.2426 16.8809 1.80369C16.3185 2.36479 16.0016 3.12605 15.9997 3.92049L14.0057 3.90649H13.9997C13.7345 3.90556 13.4798 4.01003 13.2916 4.19691C13.1034 4.38379 12.9972 4.63777 12.9962 4.90299C12.9953 5.16821 13.0998 5.42293 13.2866 5.61112C13.4735 5.79931 13.7275 5.90556 13.9927 5.90649L15.9997 5.92049V5.92749C15.9997 6.72314 16.3158 7.4862 16.8784 8.04881C17.441 8.61142 18.2041 8.92749 18.9997 8.92749H19.0137L18.9997 10.9205C18.9988 11.0518 19.0238 11.182 19.0732 11.3037C19.1226 11.4254 19.1954 11.5361 19.2877 11.6297C19.3799 11.7232 19.4896 11.7976 19.6106 11.8487C19.7315 11.8998 19.8614 11.9266 19.9927 11.9275H19.9997C20.2637 11.9275 20.517 11.8231 20.7044 11.6371C20.8917 11.4511 20.9979 11.1985 20.9997 10.9345L21.0137 8.92749C21.8069 8.92379 22.5664 8.60608 23.126 8.04388C23.6856 7.48167 23.9997 6.72072 23.9997 5.92749V3.92749C23.9997 3.13184 23.6837 2.36878 23.121 1.80617C22.5584 1.24356 21.7954 0.92749 20.9997 0.92749V0.92749ZM21.9997 5.92749C21.9997 6.19271 21.8944 6.44706 21.7068 6.6346C21.5193 6.82213 21.2649 6.92749 20.9997 6.92749H18.9997C18.7345 6.92749 18.4802 6.82213 18.2926 6.6346C18.1051 6.44706 17.9997 6.19271 17.9997 5.92749V3.92749C17.9997 3.66227 18.1051 3.40792 18.2926 3.22038C18.4802 3.03285 18.7345 2.92749 18.9997 2.92749H20.9997C21.2649 2.92749 21.5193 3.03285 21.7068 3.22038C21.8944 3.40792 21.9997 3.66227 21.9997 3.92749V5.92749Z" fill="#374957"/>
<path d="M21.0067 16.9269L21.0207 14.9329C21.0215 14.8016 20.9964 14.6714 20.9469 14.5497C20.8974 14.4281 20.8244 14.3174 20.7321 14.224C20.6398 14.1306 20.53 14.0563 20.409 14.0053C20.2879 13.9543 20.158 13.9277 20.0267 13.9269H20.0207C19.7567 13.9269 19.5034 14.0313 19.3161 14.2173C19.1287 14.4033 19.0226 14.6559 19.0207 14.9199L19.0067 16.9269H18.9997C18.2041 16.9269 17.441 17.2429 16.8784 17.8056C16.3158 18.3682 15.9997 19.1312 15.9997 19.9269V19.9409L14.0067 19.9269H13.9997C13.7345 19.9259 13.4798 20.0304 13.2916 20.2173C13.1034 20.4042 12.9972 20.6582 12.9962 20.9234C12.9953 21.1886 13.0998 21.4433 13.2866 21.6315C13.4735 21.8197 13.7275 21.9259 13.9927 21.9269L15.9997 21.9409C16.0034 22.7341 16.3211 23.4936 16.8833 24.0531C17.4455 24.6127 18.2065 24.9269 18.9997 24.9269H20.9997C21.7954 24.9269 22.5584 24.6108 23.121 24.0482C23.6837 23.4856 23.9997 22.7225 23.9997 21.9269V19.9269C23.9997 19.1324 23.6846 18.3704 23.1235 17.808C22.5624 17.2456 21.8012 16.9287 21.0067 16.9269ZM21.9997 21.9269C21.9997 22.1921 21.8944 22.4464 21.7068 22.634C21.5193 22.8215 21.2649 22.9269 20.9997 22.9269H18.9997C18.7345 22.9269 18.4802 22.8215 18.2926 22.634C18.1051 22.4464 17.9997 22.1921 17.9997 21.9269V19.9269C17.9997 19.6617 18.1051 19.4073 18.2926 19.2198C18.4802 19.0322 18.7345 18.9269 18.9997 18.9269H20.9997C21.2649 18.9269 21.5193 19.0322 21.7068 19.2198C21.8944 19.4073 21.9997 19.6617 21.9997 19.9269V21.9269Z" fill="#374957"/>
<path d="M10.007 19.9479L8 19.9339V19.9269C8 19.1312 7.68393 18.3682 7.12132 17.8056C6.55871 17.2429 5.79565 16.9269 5 16.9269H4.986L5 14.9339C5.00092 14.8026 4.97597 14.6723 4.92656 14.5507C4.87716 14.429 4.80427 14.3182 4.71206 14.2247C4.61985 14.1312 4.51013 14.0568 4.38915 14.0057C4.26818 13.9546 4.13832 13.9278 4.007 13.9269H4C3.73599 13.9269 3.48269 14.0313 3.29536 14.2173C3.10802 14.4033 3.00185 14.6559 3 14.9199L2.986 16.9269C2.19278 16.9306 1.43331 17.2483 0.873724 17.8105C0.314139 18.3727 -8.63726e-06 19.1336 1.78109e-10 19.9269L1.78109e-10 21.9269C1.7811e-10 22.7225 0.31607 23.4856 0.87868 24.0482C1.44129 24.6108 2.20435 24.9269 3 24.9269H5C5.79444 24.9269 6.55644 24.6118 7.11885 24.0507C7.68126 23.4896 7.99815 22.7283 8 21.9339L9.994 21.9479H10C10.2652 21.9488 10.5199 21.8443 10.7081 21.6575C10.8963 21.4706 11.0026 21.2166 11.0035 20.9514C11.0044 20.6862 10.9 20.4314 10.7131 20.2432C10.5262 20.055 10.2722 19.9488 10.007 19.9479ZM6 21.9269C6 22.1921 5.89464 22.4464 5.70711 22.634C5.51957 22.8215 5.26522 22.9269 5 22.9269H3C2.73478 22.9269 2.48043 22.8215 2.29289 22.634C2.10536 22.4464 2 22.1921 2 21.9269V19.9269C2 19.6617 2.10536 19.4073 2.29289 19.2198C2.48043 19.0322 2.73478 18.9269 3 18.9269H5C5.26522 18.9269 5.51957 19.0322 5.70711 19.2198C5.89464 19.4073 6 19.6617 6 19.9269V21.9269Z" fill="#374957"/>
</g>
<defs>
<clipPath id="clip0_507_2340">
<rect width="24" height="24" fill="white" transform="translate(0 0.92749)"/>
</clipPath>
</defs>
</svg>
