<svg width="24" height="25" viewBox="0 0 24 25" fill="none" xmlns="http://www.w3.org/2000/svg">
<g clip-path="url(#clip0_507_1945)">
<path d="M20 12.9275C19.3866 12.9274 18.7813 13.0686 18.2312 13.3402C17.6811 13.6118 17.201 14.0064 16.828 14.4935L16.758 14.4635C17.0331 13.6116 17.0743 12.7014 16.8774 11.828C16.6805 10.9546 16.2528 10.1502 15.6388 9.49859C15.0248 8.84702 14.2472 8.37224 13.387 8.12386C12.5269 7.87547 11.6159 7.86258 10.749 8.08654L10.658 7.91454C11.3844 7.26826 11.8502 6.37927 11.9681 5.41418C12.0859 4.44909 11.8478 3.47413 11.2983 2.67204C10.7488 1.86995 9.92567 1.29577 8.98315 1.05711C8.04064 0.81845 7.04344 0.931696 6.17844 1.37562C5.31344 1.81955 4.64001 2.56368 4.28437 3.46857C3.92873 4.37345 3.91529 5.37697 4.24656 6.29106C4.57783 7.20515 5.23107 7.96706 6.08387 8.434C6.93667 8.90094 7.93048 9.04086 8.87905 8.82754L8.95205 8.96454C7.9521 9.73186 7.27944 10.8491 7.0691 12.0918C6.85876 13.3346 7.12631 14.6109 7.81805 15.6645L5.93305 17.4275C5.08102 16.9568 4.08656 16.8129 3.13604 17.0228C2.18552 17.2327 1.34417 17.7821 0.769646 18.5679C0.195126 19.3537 -0.0731302 20.322 0.0151468 21.2914C0.103424 22.2609 0.542175 23.1648 1.24918 23.8339C1.95619 24.503 2.88293 24.8914 3.85573 24.9261C4.82854 24.9609 5.78064 24.6398 6.53363 24.0229C7.28662 23.406 7.78882 22.5357 7.9461 21.575C8.10339 20.6144 7.90498 19.6294 7.38805 18.8045L9.22605 17.0865C10.2355 17.7613 11.4563 18.045 12.6599 17.8847C13.8635 17.7244 14.9674 17.131 15.7651 16.2155L16.0441 16.3345C15.923 17.142 16.052 17.9672 16.4136 18.6992C16.7752 19.4312 17.3522 20.035 18.067 20.4296C18.7819 20.8241 19.6003 20.9904 20.4124 20.9062C21.2246 20.822 21.9915 20.4913 22.6101 19.9584C23.2288 19.4256 23.6696 18.7163 23.8733 17.9256C24.0771 17.1349 24.0339 16.3009 23.7498 15.5354C23.4656 14.77 22.9541 14.1099 22.2837 13.6437C21.6134 13.1775 20.8165 12.9276 20 12.9275ZM6.00005 4.92754C6.00005 4.53197 6.11735 4.14529 6.33711 3.8164C6.55687 3.4875 6.86923 3.23115 7.23468 3.07978C7.60013 2.9284 8.00227 2.8888 8.39023 2.96597C8.77819 3.04314 9.13456 3.23362 9.41426 3.51332C9.69397 3.79303 9.88445 4.14939 9.96162 4.53736C10.0388 4.92532 9.99918 5.32745 9.84781 5.6929C9.69643 6.05836 9.44009 6.37071 9.11119 6.59048C8.78229 6.81024 8.39561 6.92754 8.00005 6.92754C7.46962 6.92754 6.96091 6.71682 6.58584 6.34175C6.21076 5.96668 6.00005 5.45797 6.00005 4.92754ZM4.00005 22.9275C3.60449 22.9275 3.21781 22.8102 2.88891 22.5905C2.56001 22.3707 2.30366 22.0584 2.15229 21.6929C2.00091 21.3275 1.96131 20.9253 2.03848 20.5374C2.11565 20.1494 2.30613 19.793 2.58583 19.5133C2.86554 19.2336 3.22191 19.0431 3.60987 18.966C3.99783 18.8888 4.39996 18.9284 4.76542 19.0798C5.13087 19.2312 5.44322 19.4875 5.66299 19.8164C5.88275 20.1453 6.00005 20.532 6.00005 20.9275C6.00005 21.458 5.78934 21.9667 5.41426 22.3417C5.03919 22.7168 4.53048 22.9275 4.00005 22.9275ZM12.0001 15.9275C11.3507 15.9263 10.7194 15.7144 10.2008 15.3237C9.68215 14.933 9.3043 14.3845 9.12395 13.7608C8.94361 13.137 8.97051 12.4716 9.20061 11.8644C9.43071 11.2572 9.8516 10.7411 10.4 10.3935L10.807 10.1765C11.216 9.99864 11.6595 9.91417 12.1052 9.92926C12.5509 9.94434 12.9877 10.0586 13.3837 10.2638C13.7796 10.4689 14.1249 10.7597 14.3944 11.1151C14.6638 11.4705 14.8506 11.8815 14.9412 12.3182C15.0318 12.7549 15.0238 13.2062 14.918 13.6395C14.8122 14.0727 14.6111 14.4769 14.3294 14.8226C14.0476 15.1683 13.6924 15.4469 13.2894 15.6381C12.8865 15.8292 12.446 15.9281 12.0001 15.9275ZM20 18.9275C19.6045 18.9275 19.2178 18.8102 18.8889 18.5905C18.56 18.3707 18.3037 18.0584 18.1523 17.6929C18.0009 17.3275 17.9613 16.9253 18.0385 16.5374C18.1157 16.1494 18.3061 15.793 18.5858 15.5133C18.8655 15.2336 19.2219 15.0431 19.6099 14.966C19.9978 14.8888 20.4 14.9284 20.7654 15.0798C21.1309 15.2312 21.4432 15.4875 21.663 15.8164C21.8828 16.1453 22 16.532 22 16.9275C22 17.458 21.7893 17.9667 21.4143 18.3417C21.0392 18.7168 20.5305 18.9275 20 18.9275Z" fill="#374957"/>
</g>
<defs>
<clipPath id="clip0_507_1945">
<rect width="24" height="24" fill="white" transform="translate(0 0.92749)"/>
</clipPath>
</defs>
</svg>
