<svg width="24" height="25" viewBox="0 0 24 25" fill="none" xmlns="http://www.w3.org/2000/svg">
<g clip-path="url(#clip0_507_1879)">
<path d="M7 0.92749H4C2.93913 0.92749 1.92172 1.34892 1.17157 2.09906C0.421427 2.84921 0 3.86662 0 4.92749L0 7.92749C0 8.98836 0.421427 10.0058 1.17157 10.7559C1.92172 11.5061 2.93913 11.9275 4 11.9275H7C8.06087 11.9275 9.07828 11.5061 9.82843 10.7559C10.5786 10.0058 11 8.98836 11 7.92749V4.92749C11 3.86662 10.5786 2.84921 9.82843 2.09906C9.07828 1.34892 8.06087 0.92749 7 0.92749V0.92749ZM9 7.92749C9 8.45792 8.78929 8.96663 8.41421 9.3417C8.03914 9.71678 7.53043 9.92749 7 9.92749H4C3.46957 9.92749 2.96086 9.71678 2.58579 9.3417C2.21071 8.96663 2 8.45792 2 7.92749V4.92749C2 4.39706 2.21071 3.88835 2.58579 3.51328C2.96086 3.1382 3.46957 2.92749 4 2.92749H7C7.53043 2.92749 8.03914 3.1382 8.41421 3.51328C8.78929 3.88835 9 4.39706 9 4.92749V7.92749Z" fill="#374957"/>
<path d="M7 13.9275H4C2.93913 13.9275 1.92172 14.3489 1.17157 15.0991C0.421427 15.8492 0 16.8666 0 17.9275L0 20.9275C0 21.9884 0.421427 23.0058 1.17157 23.7559C1.92172 24.5061 2.93913 24.9275 4 24.9275H7C8.06087 24.9275 9.07828 24.5061 9.82843 23.7559C10.5786 23.0058 11 21.9884 11 20.9275V17.9275C11 16.8666 10.5786 15.8492 9.82843 15.0991C9.07828 14.3489 8.06087 13.9275 7 13.9275ZM9 20.9275C9 21.4579 8.78929 21.9666 8.41421 22.3417C8.03914 22.7168 7.53043 22.9275 7 22.9275H4C3.46957 22.9275 2.96086 22.7168 2.58579 22.3417C2.21071 21.9666 2 21.4579 2 20.9275V17.9275C2 17.3971 2.21071 16.8884 2.58579 16.5133C2.96086 16.1382 3.46957 15.9275 4 15.9275H7C7.53043 15.9275 8.03914 16.1382 8.41421 16.5133C8.78929 16.8884 9 17.3971 9 17.9275V20.9275Z" fill="#374957"/>
<path d="M20.0001 13.9275H17.0001C15.9393 13.9275 14.9218 14.3489 14.1717 15.0991C13.4215 15.8492 13.0001 16.8666 13.0001 17.9275V20.9275C13.0001 21.9884 13.4215 23.0058 14.1717 23.7559C14.9218 24.5061 15.9393 24.9275 17.0001 24.9275H20.0001C21.061 24.9275 22.0784 24.5061 22.8285 23.7559C23.5787 23.0058 24.0001 21.9884 24.0001 20.9275V17.9275C24.0001 16.8666 23.5787 15.8492 22.8285 15.0991C22.0784 14.3489 21.061 13.9275 20.0001 13.9275ZM22.0001 20.9275C22.0001 21.4579 21.7894 21.9666 21.4143 22.3417C21.0393 22.7168 20.5305 22.9275 20.0001 22.9275H17.0001C16.4697 22.9275 15.961 22.7168 15.5859 22.3417C15.2108 21.9666 15.0001 21.4579 15.0001 20.9275V17.9275C15.0001 17.3971 15.2108 16.8884 15.5859 16.5133C15.961 16.1382 16.4697 15.9275 17.0001 15.9275H20.0001C20.5305 15.9275 21.0393 16.1382 21.4143 16.5133C21.7894 16.8884 22.0001 17.3971 22.0001 17.9275V20.9275Z" fill="#374957"/>
<path d="M14.0001 7.92749H17.0001V10.9275C17.0001 11.1927 17.1055 11.4471 17.293 11.6346C17.4806 11.8221 17.7349 11.9275 18.0001 11.9275C18.2653 11.9275 18.5197 11.8221 18.7072 11.6346C18.8948 11.4471 19.0001 11.1927 19.0001 10.9275V7.92749H22.0001C22.2653 7.92749 22.5197 7.82213 22.7072 7.6346C22.8948 7.44706 23.0001 7.19271 23.0001 6.92749C23.0001 6.66227 22.8948 6.40792 22.7072 6.22038C22.5197 6.03285 22.2653 5.92749 22.0001 5.92749H19.0001V2.92749C19.0001 2.66227 18.8948 2.40792 18.7072 2.22038C18.5197 2.03285 18.2653 1.92749 18.0001 1.92749C17.7349 1.92749 17.4806 2.03285 17.293 2.22038C17.1055 2.40792 17.0001 2.66227 17.0001 2.92749V5.92749H14.0001C13.7349 5.92749 13.4806 6.03285 13.293 6.22038C13.1055 6.40792 13.0001 6.66227 13.0001 6.92749C13.0001 7.19271 13.1055 7.44706 13.293 7.6346C13.4806 7.82213 13.7349 7.92749 14.0001 7.92749Z" fill="#374957"/>
</g>
<defs>
<clipPath id="clip0_507_1879">
<rect width="24" height="24" fill="white" transform="translate(0 0.92749)"/>
</clipPath>
</defs>
</svg>
