<svg width="24" height="25" viewBox="0 0 24 25" fill="none" xmlns="http://www.w3.org/2000/svg">
<g clip-path="url(#clip0_507_1992)">
<path d="M23.7072 1.22064C23.5196 1.03317 23.2653 0.927856 23.0002 0.927856C22.735 0.927856 22.4807 1.03317 22.2932 1.22064L12.0002 11.5136L1.70715 1.22064C1.51963 1.03317 1.26532 0.927856 1.00015 0.927856C0.734988 0.927856 0.48068 1.03317 0.293153 1.22064C0.105682 1.40817 0.000366211 1.66248 0.000366211 1.92764C0.000366211 2.19281 0.105682 2.44712 0.293153 2.63464L10.5862 12.9276L0.293153 23.2206C0.105682 23.4082 0.000366211 23.6625 0.000366211 23.9276C0.000366211 24.1928 0.105682 24.4471 0.293153 24.6346C0.48068 24.8221 0.734988 24.9274 1.00015 24.9274C1.26532 24.9274 1.51963 24.8221 1.70715 24.6346L12.0002 14.3416L22.2932 24.6346C22.4807 24.8221 22.735 24.9274 23.0002 24.9274C23.2653 24.9274 23.5196 24.8221 23.7072 24.6346C23.8946 24.4471 23.9999 24.1928 23.9999 23.9276C23.9999 23.6625 23.8946 23.4082 23.7072 23.2206L13.4142 12.9276L23.7072 2.63464C23.8946 2.44712 23.9999 2.19281 23.9999 1.92764C23.9999 1.66248 23.8946 1.40817 23.7072 1.22064Z" fill="#374957"/>
</g>
<defs>
<clipPath id="clip0_507_1992">
<rect width="24" height="24" fill="white" transform="translate(0 0.92749)"/>
</clipPath>
</defs>
</svg>
