<svg width="24" height="25" viewBox="0 0 24 25" fill="none" xmlns="http://www.w3.org/2000/svg">
<g clip-path="url(#clip0_507_2324)">
<path d="M19.948 24.9277H4.05195C3.3609 24.9317 2.68044 24.7579 2.07591 24.4231C1.47139 24.0883 0.96313 23.6036 0.59995 23.0157C0.241261 22.4418 0.0361304 21.7854 0.00425865 21.1095C-0.0276131 20.4335 0.114844 19.7607 0.41795 19.1557L8.37995 5.13966C8.72258 4.47144 9.24348 3.91109 9.88497 3.52069C10.5265 3.13029 11.2635 2.92507 12.0144 2.92776C12.7654 2.93045 13.5009 3.14095 14.1396 3.53594C14.7782 3.93093 15.2951 4.495 15.633 5.16566L23.555 19.1067C23.869 19.7162 24.0197 20.3966 23.9923 21.0817C23.965 21.7668 23.7605 22.4331 23.399 23.0157C23.0359 23.6035 22.5278 24.088 21.9234 24.4228C21.3191 24.7577 20.6388 24.9315 19.948 24.9277ZM12 4.92766C11.6174 4.92132 11.2409 5.02416 10.9147 5.22411C10.5884 5.42407 10.3259 5.71287 10.158 6.05666L10.132 6.10566L2.18395 20.0947C2.0424 20.3899 1.97876 20.7165 1.99906 21.0433C2.01936 21.37 2.12295 21.6862 2.29995 21.9617C2.48471 22.2593 2.74288 22.5045 3.04968 22.6737C3.35648 22.8428 3.70161 22.9303 4.05195 22.9277H19.952C20.3023 22.9303 20.6474 22.8428 20.9542 22.6737C21.261 22.5045 21.5192 22.2593 21.704 21.9617C21.884 21.6776 21.987 21.3515 22.0028 21.0156C22.0185 20.6796 21.9466 20.3454 21.794 20.0457L13.868 6.10566C13.7026 5.75065 13.4385 5.45077 13.1072 5.24187C12.776 5.03297 12.3916 4.92389 12 4.92766Z" fill="#374957"/>
</g>
<defs>
<clipPath id="clip0_507_2324">
<rect width="24" height="24" fill="white" transform="translate(0 0.92749)"/>
</clipPath>
</defs>
</svg>
