<svg width="24" height="25" viewBox="0 0 24 25" fill="none" xmlns="http://www.w3.org/2000/svg">
<g clip-path="url(#clip0_507_1981)">
<path d="M4.99988 14.9275C5.55216 14.9275 5.99987 14.4798 5.99987 13.9275C5.99987 13.3752 5.55216 12.9275 4.99988 12.9275C4.44759 12.9275 3.99988 13.3752 3.99988 13.9275C3.99988 14.4798 4.44759 14.9275 4.99988 14.9275Z" fill="#374957"/>
<path d="M1 10.9276C1.55228 10.9276 2 10.4799 2 9.92764C2 9.37536 1.55228 8.92764 1 8.92764C0.447715 8.92764 0 9.37536 0 9.92764C0 10.4799 0.447715 10.9276 1 10.9276Z" fill="#374957"/>
<path d="M4.99988 6.92733C5.55216 6.92733 5.99987 6.47962 5.99987 5.92734C5.99987 5.37505 5.55216 4.92734 4.99988 4.92734C4.44759 4.92734 3.99988 5.37505 3.99988 5.92734C3.99988 6.47962 4.44759 6.92733 4.99988 6.92733Z" fill="#374957"/>
<path d="M1 2.92749C1.55228 2.92749 2 2.47977 2 1.92749C2 1.37521 1.55228 0.92749 1 0.92749C0.447715 0.92749 0 1.37521 0 1.92749C0 2.47977 0.447715 2.92749 1 2.92749Z" fill="#374957"/>
<path d="M22.9999 14.9275C23.5521 14.9275 23.9999 14.4798 23.9999 13.9275C23.9999 13.3752 23.5521 12.9275 22.9999 12.9275C22.4476 12.9275 21.9999 13.3752 21.9999 13.9275C21.9999 14.4798 22.4476 14.9275 22.9999 14.9275Z" fill="#374957"/>
<path d="M19 10.9276C19.5523 10.9276 20 10.4799 20 9.92764C20 9.37536 19.5523 8.92764 19 8.92764C18.4477 8.92764 18 9.37536 18 9.92764C18 10.4799 18.4477 10.9276 19 10.9276Z" fill="#374957"/>
<path d="M22.9999 6.92733C23.5521 6.92733 23.9999 6.47962 23.9999 5.92734C23.9999 5.37505 23.5521 4.92734 22.9999 4.92734C22.4476 4.92734 21.9999 5.37505 21.9999 5.92734C21.9999 6.47962 22.4476 6.92733 22.9999 6.92733Z" fill="#374957"/>
<path d="M19 2.92749C19.5523 2.92749 20 2.47977 20 1.92749C20 1.37521 19.5523 0.92749 19 0.92749C18.4477 0.92749 18 1.37521 18 1.92749C18 2.47977 18.4477 2.92749 19 2.92749Z" fill="#374957"/>
<path d="M13.9999 24.9273C14.5522 24.9273 14.9999 24.4796 14.9999 23.9273C14.9999 23.375 14.5522 22.9273 13.9999 22.9273C13.4476 22.9273 12.9999 23.375 12.9999 23.9273C12.9999 24.4796 13.4476 24.9273 13.9999 24.9273Z" fill="#374957"/>
<path d="M10 20.9275C10.5523 20.9275 11 20.4798 11 19.9275C11 19.3752 10.5523 18.9275 10 18.9275C9.44771 18.9275 9 19.3752 9 19.9275C9 20.4798 9.44771 20.9275 10 20.9275Z" fill="#374957"/>
<path d="M13.9999 16.9277C14.5522 16.9277 14.9999 16.4799 14.9999 15.9276C14.9999 15.3754 14.5522 14.9276 13.9999 14.9276C13.4476 14.9276 12.9999 15.3754 12.9999 15.9276C12.9999 16.4799 13.4476 16.9277 13.9999 16.9277Z" fill="#374957"/>
<path d="M10 12.9273C10.5523 12.9273 11 12.4796 11 11.9273C11 11.3751 10.5523 10.9273 10 10.9273C9.44771 10.9273 9 11.3751 9 11.9273C9 12.4796 9.44771 12.9273 10 12.9273Z" fill="#374957"/>
<path d="M15.0001 3.92749C14.4697 3.92749 13.961 3.71678 13.5859 3.3417C13.2108 2.96663 13.0001 2.45792 13.0001 1.92749C13.0001 1.66227 12.8948 1.40792 12.7072 1.22038C12.5197 1.03285 12.2653 0.92749 12.0001 0.92749C11.7349 0.92749 11.4805 1.03285 11.293 1.22038C11.1055 1.40792 11.0001 1.66227 11.0001 1.92749C11.0001 2.45792 10.7894 2.96663 10.4143 3.3417C10.0393 3.71678 9.53055 3.92749 9.00012 3.92749C8.7349 3.92749 8.48055 4.03285 8.29301 4.22038C8.10548 4.40792 8.00012 4.66227 8.00012 4.92749C8.00012 5.19271 8.10548 5.44706 8.29301 5.6346C8.48055 5.82213 8.7349 5.92749 9.00012 5.92749C9.53055 5.92749 10.0393 6.1382 10.4143 6.51328C10.7894 6.88835 11.0001 7.39706 11.0001 7.92749C11.0001 8.19271 11.1055 8.44706 11.293 8.6346C11.4805 8.82213 11.7349 8.92749 12.0001 8.92749C12.2653 8.92749 12.5197 8.82213 12.7072 8.6346C12.8948 8.44706 13.0001 8.19271 13.0001 7.92749C13.0001 7.39706 13.2108 6.88835 13.5859 6.51328C13.961 6.1382 14.4697 5.92749 15.0001 5.92749C15.2653 5.92749 15.5197 5.82213 15.7072 5.6346C15.8948 5.44706 16.0001 5.19271 16.0001 4.92749C16.0001 4.66227 15.8948 4.40792 15.7072 4.22038C15.5197 4.03285 15.2653 3.92749 15.0001 3.92749Z" fill="#374957"/>
<path d="M7 19.9273C6.46957 19.9273 5.96086 19.7166 5.58579 19.3415C5.21071 18.9665 5 18.4578 5 17.9273C5 17.6621 4.89464 17.4078 4.70711 17.2202C4.51957 17.0327 4.26522 16.9273 4 16.9273C3.73478 16.9273 3.48043 17.0327 3.29289 17.2202C3.10536 17.4078 3 17.6621 3 17.9273C3 18.4578 2.78929 18.9665 2.41421 19.3415C2.03914 19.7166 1.53043 19.9273 1 19.9273C0.734784 19.9273 0.48043 20.0327 0.292893 20.2202C0.105357 20.4078 0 20.6621 0 20.9273C0 21.1925 0.105357 21.4469 0.292893 21.6344C0.48043 21.822 0.734784 21.9273 1 21.9273C1.53043 21.9273 2.03914 22.138 2.41421 22.5131C2.78929 22.8882 3 23.3969 3 23.9273C3 24.1925 3.10536 24.4469 3.29289 24.6344C3.48043 24.822 3.73478 24.9273 4 24.9273C4.26522 24.9273 4.51957 24.822 4.70711 24.6344C4.89464 24.4469 5 24.1925 5 23.9273C5 23.3969 5.21071 22.8882 5.58579 22.5131C5.96086 22.138 6.46957 21.9273 7 21.9273C7.26522 21.9273 7.51957 21.822 7.70711 21.6344C7.89464 21.4469 8 21.1925 8 20.9273C8 20.6621 7.89464 20.4078 7.70711 20.2202C7.51957 20.0327 7.26522 19.9273 7 19.9273Z" fill="#374957"/>
<path d="M22.9999 19.9273C22.4694 19.9273 21.9607 19.7166 21.5857 19.3415C21.2106 18.9665 20.9999 18.4578 20.9999 17.9273C20.9999 17.6621 20.8945 17.4078 20.707 17.2202C20.5194 17.0327 20.2651 16.9273 19.9999 16.9273C19.7347 16.9273 19.4803 17.0327 19.2928 17.2202C19.1052 17.4078 18.9999 17.6621 18.9999 17.9273C18.9999 18.4578 18.7892 18.9665 18.4141 19.3415C18.039 19.7166 17.5303 19.9273 16.9999 19.9273C16.7347 19.9273 16.4803 20.0327 16.2928 20.2202C16.1052 20.4078 15.9999 20.6621 15.9999 20.9273C15.9999 21.1925 16.1052 21.4469 16.2928 21.6344C16.4803 21.822 16.7347 21.9273 16.9999 21.9273C17.5303 21.9273 18.039 22.138 18.4141 22.5131C18.7892 22.8882 18.9999 23.3969 18.9999 23.9273C18.9999 24.1925 19.1052 24.4469 19.2928 24.6344C19.4803 24.822 19.7347 24.9273 19.9999 24.9273C20.2651 24.9273 20.5194 24.822 20.707 24.6344C20.8945 24.4469 20.9999 24.1925 20.9999 23.9273C20.9999 23.3969 21.2106 22.8882 21.5857 22.5131C21.9607 22.138 22.4694 21.9273 22.9999 21.9273C23.2651 21.9273 23.5194 21.822 23.707 21.6344C23.8945 21.4469 23.9999 21.1925 23.9999 20.9273C23.9999 20.6621 23.8945 20.4078 23.707 20.2202C23.5194 20.0327 23.2651 19.9273 22.9999 19.9273Z" fill="#374957"/>
</g>
<defs>
<clipPath id="clip0_507_1981">
<rect width="24" height="24" fill="white" transform="translate(0 0.92749)"/>
</clipPath>
</defs>
</svg>
