<svg width="24" height="25" viewBox="0 0 24 25" fill="none" xmlns="http://www.w3.org/2000/svg">
<g clip-path="url(#clip0_507_1968)">
<path d="M2.99985 22.0507C2.79729 22.0505 2.59956 21.9888 2.43285 21.8737C1.64047 21.3591 0.997894 20.6446 0.569987 19.8022C0.142079 18.9598 -0.0560063 18.0195 -0.00427152 17.0761C0.0474633 16.1327 0.347187 15.2196 0.86464 14.4291C1.38209 13.6386 2.09895 12.9986 2.94285 12.5737C2.07461 10.9955 1.7913 9.16139 2.14285 7.39472C2.48471 5.64704 3.39991 4.06339 4.74348 2.89462C6.08705 1.72584 7.78218 1.03876 9.56036 0.942221C11.3385 0.845678 13.0981 1.34519 14.5603 2.36163C16.0225 3.37807 17.1038 4.85333 17.6329 6.55372C17.6831 6.7261 17.7754 6.88331 17.9014 7.01124C18.0275 7.13917 18.1832 7.23382 18.3549 7.28672C19.613 7.67215 20.7563 8.36265 21.6831 9.29675C22.6099 10.2309 23.2913 11.3796 23.6669 12.6407C23.7364 12.8929 23.7044 13.1623 23.5777 13.3911C23.4509 13.6199 23.2396 13.79 22.9889 13.8648C22.7383 13.9397 22.4683 13.9133 22.2368 13.7914C22.0054 13.6695 21.8309 13.4617 21.7509 13.2127C21.469 12.2673 20.9579 11.4062 20.263 10.7059C19.5682 10.0057 18.711 9.48791 17.7679 9.19872C17.286 9.04903 16.8479 8.78396 16.4917 8.42653C16.1355 8.06911 15.8719 7.63013 15.7239 7.14772C15.4835 6.34666 15.0783 5.60471 14.5343 4.96947C13.9903 4.33423 13.3195 3.81974 12.565 3.459C11.8104 3.09826 10.9888 2.89926 10.1528 2.87475C9.31686 2.85024 8.48499 3.00077 7.71061 3.31668C6.93623 3.63259 6.23645 4.10691 5.65617 4.70919C5.0759 5.31147 4.62794 6.02841 4.34105 6.814C4.05417 7.5996 3.93468 8.43649 3.99027 9.27098C4.04586 10.1055 4.2753 10.9191 4.66385 11.6597C4.9116 12.1218 4.9674 12.6628 4.81917 13.1657C4.67094 13.6686 4.33061 14.0929 3.87185 14.3467C3.33306 14.6117 2.87485 15.0159 2.54463 15.5173C2.2144 16.0188 2.02416 16.5994 1.99357 17.1991C1.96298 17.7987 2.09316 18.3956 2.37064 18.9281C2.64812 19.4606 3.06282 19.9093 3.57185 20.2277C3.74764 20.349 3.87996 20.5235 3.94944 20.7254C4.01891 20.9274 4.0219 21.1463 3.95796 21.3501C3.89401 21.5539 3.7665 21.7319 3.59409 21.8579C3.42168 21.984 3.21344 22.0516 2.99985 22.0507ZM19.0999 24.9277C19.4583 24.911 19.8141 24.858 20.1619 24.7697C21.0629 24.5606 21.8872 24.1031 22.5412 23.4491C23.1952 22.795 23.6528 21.9707 23.8619 21.0697C24.1643 19.8035 23.9622 18.4693 23.2983 17.3495C22.6344 16.2296 21.5609 15.412 20.3049 15.0697C20.3049 15.0697 19.6759 14.9247 19.5389 14.5987C19.0551 13.4316 18.2153 12.447 17.1391 11.7852C16.063 11.1234 14.8054 10.8182 13.5456 10.9131C12.2858 11.008 11.0881 11.4981 10.1232 12.3136C9.15824 13.1291 8.47537 14.2283 8.17185 15.4547C7.95577 16.3506 7.93632 17.2826 8.11485 18.1867C7.44883 18.4731 6.88818 18.9593 6.51037 19.5781C6.13256 20.1969 5.95623 20.9177 6.00574 21.641C6.05525 22.3643 6.32815 23.0544 6.78675 23.6159C7.24535 24.1775 7.86701 24.5827 8.56585 24.7757C8.83731 24.8573 9.11705 24.9083 9.39985 24.9277H19.0999ZM17.6999 15.3717C17.8736 15.8034 18.1581 16.1817 18.5247 16.4684C18.8913 16.7551 19.327 16.9401 19.7879 17.0047C20.5436 17.2133 21.1886 17.7077 21.5865 18.3832C21.9843 19.0588 22.1039 19.8626 21.9199 20.6247C21.7906 21.1575 21.5168 21.6442 21.1287 22.0314C20.7405 22.4185 20.253 22.6909 19.7199 22.8187C19.5048 22.8681 19.2854 22.8955 19.0649 22.9007C17.3999 22.9337 10.7939 22.9387 9.46485 22.9007C9.33686 22.8966 9.20973 22.8782 9.08585 22.8457C8.84113 22.7791 8.61777 22.6504 8.43748 22.472C8.25718 22.2937 8.12606 22.0717 8.05685 21.8277C7.95375 21.4763 7.98338 21.0993 8.1401 20.7684C8.29682 20.4374 8.5697 20.1756 8.90685 20.0327C9.34277 19.8481 9.69986 19.516 9.91559 19.0946C10.1313 18.6732 10.1919 18.1893 10.0869 17.7277C9.96119 17.1358 9.9718 16.523 10.1179 15.9357C10.3215 15.1189 10.7777 14.3872 11.4215 13.8448C12.0652 13.3024 12.8636 12.9768 13.7031 12.9146C14.5426 12.8523 15.3803 13.0565 16.097 13.498C16.8137 13.9395 17.3729 14.5959 17.6949 15.3737L17.6999 15.3717Z" fill="#374957"/>
</g>
<defs>
<clipPath id="clip0_507_1968">
<rect width="24" height="24" fill="white" transform="translate(0 0.92749)"/>
</clipPath>
</defs>
</svg>
