<svg width="24" height="25" viewBox="0 0 24 25" fill="none" xmlns="http://www.w3.org/2000/svg">
<g clip-path="url(#clip0_507_2322)">
<path d="M20.4401 17.7818L18.9591 15.5608C19.2017 15.3999 19.4101 15.1928 19.5725 14.9512C19.7349 14.7097 19.8481 14.4385 19.9056 14.1532C19.9631 13.8678 19.9638 13.574 19.9076 13.2884C19.8514 13.0028 19.7394 12.7311 19.5781 12.4888L17.4871 9.35381C17.6702 9.18709 17.8243 8.99108 17.9431 8.77381C18.1332 8.42494 18.2257 8.03129 18.2109 7.63428C18.1961 7.23727 18.0746 6.85158 17.8591 6.51781C17.8341 6.48002 17.8071 6.44363 17.7781 6.40881L13.6781 1.62682C13.4531 1.40394 13.1859 1.22821 12.8922 1.1099C12.5984 0.9916 12.284 0.93311 11.9674 0.937859C11.6507 0.942609 11.3382 1.0105 11.0482 1.13756C10.7581 1.26462 10.4963 1.4483 10.2781 1.67782L6.20611 6.40481C6.17652 6.43844 6.14944 6.47421 6.12511 6.51181C5.83764 6.95449 5.71794 7.48537 5.78763 8.00857C5.85732 8.53177 6.11179 9.01281 6.50511 9.36481L4.42211 12.4888C4.26079 12.7311 4.14884 13.0028 4.09264 13.2884C4.03644 13.574 4.03711 13.8678 4.09461 14.1532C4.1521 14.4385 4.26529 14.7097 4.4277 14.9512C4.59011 15.1928 4.79856 15.3999 5.04111 15.5608L3.56011 17.7818C3.22781 18.2801 3.03696 18.8592 3.00792 19.4573C2.97888 20.0555 3.11273 20.6504 3.39521 21.1785C3.67768 21.7066 4.09819 22.1481 4.61188 22.456C5.12558 22.7639 5.71321 22.9266 6.31211 22.9268H11.0001V23.9268C11.0001 24.192 11.1055 24.4464 11.293 24.6339C11.4805 24.8214 11.7349 24.9268 12.0001 24.9268C12.2653 24.9268 12.5197 24.8214 12.7072 24.6339C12.8947 24.4464 13.0001 24.192 13.0001 23.9268V22.9268H17.6871C18.2861 22.9268 18.8738 22.7642 19.3877 22.4564C19.9015 22.1486 20.3222 21.7071 20.6048 21.1789C20.8874 20.6508 21.0213 20.0559 20.9923 19.4576C20.9633 18.8593 20.7725 18.2801 20.4401 17.7818ZM18.8401 20.2358C18.7298 20.4457 18.5639 20.6212 18.3605 20.7431C18.1572 20.8649 17.9242 20.9285 17.6871 20.9268H6.31211C6.07529 20.9266 5.84297 20.8621 5.6399 20.7403C5.43683 20.6185 5.27061 20.4438 5.15896 20.235C5.0473 20.0261 4.99439 19.7909 5.00587 19.5544C5.01734 19.3178 5.09276 19.0889 5.22411 18.8918L7.50011 15.4818C7.60068 15.3311 7.6584 15.1558 7.6671 14.9748C7.67581 14.7938 7.63516 14.6139 7.54951 14.4542C7.46386 14.2945 7.33643 14.161 7.18083 14.0682C7.02523 13.9753 6.84732 13.9264 6.66611 13.9268H6.26111C6.22272 13.9281 6.18476 13.9183 6.15178 13.8987C6.1188 13.879 6.09218 13.8502 6.07511 13.8158C6.05583 13.7824 6.04662 13.7442 6.04857 13.7057C6.05052 13.6672 6.06356 13.6301 6.08611 13.5988L8.83111 9.48181C8.9301 9.33027 8.9861 9.15471 8.99314 8.97384C9.00019 8.79298 8.95801 8.61359 8.87111 8.45481C8.78342 8.29491 8.65435 8.16153 8.49742 8.06864C8.34049 7.97575 8.16147 7.92676 7.97911 7.92681C7.94082 7.92822 7.90294 7.9186 7.86997 7.8991C7.837 7.8796 7.81032 7.85104 7.79311 7.81681C7.77763 7.79002 7.76858 7.75999 7.76667 7.72911C7.76476 7.69822 7.77004 7.66731 7.78211 7.63881L11.7441 3.03882C11.7709 3.00458 11.8043 2.97604 11.8422 2.95484C11.8802 2.93365 11.922 2.92024 11.9652 2.9154C12.0084 2.91056 12.0521 2.91438 12.0938 2.92665C12.1355 2.93891 12.1744 2.95936 12.2081 2.98682L16.2001 7.63981C16.2122 7.66831 16.2175 7.69922 16.2155 7.73011C16.2136 7.76099 16.2046 7.79102 16.1891 7.81781C16.1715 7.85233 16.1443 7.88101 16.1108 7.90035C16.0772 7.9197 16.0388 7.9289 16.0001 7.92681C15.8191 7.92679 15.6414 7.97591 15.4861 8.06894C15.3308 8.16197 15.2036 8.29542 15.1182 8.45505C15.0328 8.61468 14.9924 8.7945 15.0011 8.97533C15.0099 9.15616 15.0676 9.33121 15.1681 9.48181L17.9131 13.5988C17.9357 13.6301 17.9487 13.6672 17.9506 13.7057C17.9526 13.7442 17.9434 13.7824 17.9241 13.8158C17.907 13.8502 17.8804 13.879 17.8474 13.8987C17.8145 13.9183 17.7765 13.9281 17.7381 13.9268H17.3331C17.1521 13.9268 16.9744 13.9759 16.8191 14.0689C16.6638 14.162 16.5366 14.2954 16.4512 14.455C16.3658 14.6147 16.3254 14.7945 16.3341 14.9753C16.3429 15.1561 16.4006 15.3312 16.5011 15.4818L18.7751 18.8918C18.9088 19.088 18.9858 19.3173 18.9974 19.5545C19.009 19.7917 18.955 20.0274 18.8411 20.2358H18.8401Z" fill="#374957"/>
<path d="M9.00012 18.9269C9.5524 18.9269 10.0001 18.4792 10.0001 17.9269C10.0001 17.3746 9.5524 16.9269 9.00012 16.9269C8.44784 16.9269 8.00012 17.3746 8.00012 17.9269C8.00012 18.4792 8.44784 18.9269 9.00012 18.9269Z" fill="#374957"/>
<path d="M13.9999 18.9269C14.5522 18.9269 14.9999 18.4792 14.9999 17.9269C14.9999 17.3746 14.5522 16.9269 13.9999 16.9269C13.4476 16.9269 12.9999 17.3746 12.9999 17.9269C12.9999 18.4792 13.4476 18.9269 13.9999 18.9269Z" fill="#374957"/>
<path d="M10.9999 14.9275C11.5522 14.9275 11.9999 14.4798 11.9999 13.9275C11.9999 13.3752 11.5522 12.9275 10.9999 12.9275C10.4476 12.9275 9.99988 13.3752 9.99988 13.9275C9.99988 14.4798 10.4476 14.9275 10.9999 14.9275Z" fill="#374957"/>
<path d="M13 11.9275C13.5523 11.9275 14 11.4798 14 10.9275C14 10.3752 13.5523 9.92749 13 9.92749C12.4477 9.92749 12 10.3752 12 10.9275C12 11.4798 12.4477 11.9275 13 11.9275Z" fill="#374957"/>
<path d="M10.9999 8.92749C11.5522 8.92749 11.9999 8.47977 11.9999 7.92749C11.9999 7.3752 11.5522 6.92749 10.9999 6.92749C10.4476 6.92749 9.99988 7.3752 9.99988 7.92749C9.99988 8.47977 10.4476 8.92749 10.9999 8.92749Z" fill="#374957"/>
</g>
<defs>
<clipPath id="clip0_507_2322">
<rect width="24" height="24" fill="white" transform="translate(0 0.92749)"/>
</clipPath>
</defs>
</svg>
