<svg width="24" height="25" viewBox="0 0 24 25" fill="none" xmlns="http://www.w3.org/2000/svg">
<g clip-path="url(#clip0_507_2005)">
<path d="M18.9998 2.92764H9.95584C9.19406 2.92528 8.44195 3.09822 7.7577 3.43306C7.07345 3.7679 6.47541 4.25567 6.00984 4.85864L0.209839 12.3136C0.0732849 12.4892 -0.000854492 12.7052 -0.000854492 12.9276C-0.000854492 13.15 0.0732849 13.3661 0.209839 13.5416L6.00984 20.9966C6.47541 21.5996 7.07345 22.0874 7.7577 22.4222C8.44195 22.7571 9.19406 22.93 9.95584 22.9276H18.9998C20.3254 22.926 21.5963 22.3988 22.5336 21.4614C23.471 20.5241 23.9983 19.2532 23.9998 17.9276V7.92764C23.9983 6.60204 23.471 5.33119 22.5336 4.39386C21.5963 3.45652 20.3254 2.92922 18.9998 2.92764ZM21.9998 17.9276C21.9998 18.7233 21.6838 19.4863 21.1212 20.049C20.5586 20.6116 19.7955 20.9276 18.9998 20.9276H9.95584C9.49875 20.9292 9.04742 20.8256 8.63679 20.6248C8.22616 20.424 7.86725 20.1314 7.58784 19.7696L2.26684 12.9276L7.58784 6.08564C7.86725 5.72388 8.22616 5.43127 8.63679 5.23047C9.04742 5.02966 9.49875 4.92605 9.95584 4.92764H18.9998C19.7955 4.92764 20.5586 5.24371 21.1212 5.80632C21.6838 6.36892 21.9998 7.13199 21.9998 7.92764V17.9276ZM17.2068 11.1346L15.4138 12.9276L17.2068 14.7206C17.3024 14.8129 17.3785 14.9232 17.4309 15.0452C17.4833 15.1672 17.5109 15.2985 17.5121 15.4312C17.5132 15.564 17.4879 15.6957 17.4377 15.8186C17.3874 15.9415 17.3131 16.0531 17.2192 16.147C17.1253 16.2409 17.0137 16.3152 16.8908 16.3655C16.7679 16.4157 16.6362 16.441 16.5034 16.4399C16.3707 16.4387 16.2394 16.4111 16.1174 16.3587C15.9954 16.3063 15.8851 16.2301 15.7928 16.1346L13.9998 14.3416L12.2068 16.1346C12.0182 16.3168 11.7656 16.4176 11.5034 16.4153C11.2412 16.413 10.9904 16.3079 10.805 16.1225C10.6196 15.937 10.5144 15.6862 10.5122 15.424C10.5099 15.1618 10.6107 14.9092 10.7928 14.7206L12.5858 12.9276L10.7928 11.1346C10.6107 10.946 10.5099 10.6934 10.5122 10.4312C10.5144 10.169 10.6196 9.91823 10.805 9.73282C10.9904 9.54741 11.2412 9.44224 11.5034 9.43996C11.7656 9.43768 12.0182 9.53848 12.2068 9.72064L13.9998 11.5136L15.7928 9.72064C15.9814 9.53848 16.234 9.43768 16.4962 9.43996C16.7584 9.44224 17.0093 9.54741 17.1947 9.73282C17.3801 9.91823 17.4852 10.169 17.4875 10.4312C17.4898 10.6934 17.389 10.946 17.2068 11.1346Z" fill="#374957"/>
</g>
<defs>
<clipPath id="clip0_507_2005">
<rect width="24" height="24" fill="white" transform="translate(0 0.92749)"/>
</clipPath>
</defs>
</svg>
