<svg width="24" height="25" viewBox="0 0 24 25" fill="none" xmlns="http://www.w3.org/2000/svg">
<g clip-path="url(#clip0_507_2305)">
<path d="M21 15.9275C20.2044 15.9275 19.4413 16.2436 18.8787 16.8062C18.3161 17.3688 18 18.1318 18 18.9275V21.9275C18 22.7231 18.3161 23.4862 18.8787 24.0488C19.4413 24.6114 20.2044 24.9275 21 24.9275C21.7956 24.9275 22.5587 24.6114 23.1213 24.0488C23.6839 23.4862 24 22.7231 24 21.9275V18.9275C24 18.1318 23.6839 17.3688 23.1213 16.8062C22.5587 16.2436 21.7956 15.9275 21 15.9275ZM22 21.9275C22 22.1927 21.8946 22.4471 21.7071 22.6346C21.5196 22.8221 21.2652 22.9275 21 22.9275C20.7348 22.9275 20.4804 22.8221 20.2929 22.6346C20.1054 22.4471 20 22.1927 20 21.9275V18.9275C20 18.6623 20.1054 18.4079 20.2929 18.2204C20.4804 18.0328 20.7348 17.9275 21 17.9275C21.2652 17.9275 21.5196 18.0328 21.7071 18.2204C21.8946 18.4079 22 18.6623 22 18.9275V21.9275Z" fill="#374957"/>
<path d="M12.9999 12.9275V7.92749C12.9999 7.66227 12.8945 7.40792 12.707 7.22038C12.5194 7.03285 12.2651 6.92749 11.9999 6.92749C11.7347 6.92749 11.4803 7.03285 11.2928 7.22038C11.1052 7.40792 10.9999 7.66227 10.9999 7.92749V11.9275H7.99988C7.73466 11.9275 7.48031 12.0328 7.29277 12.2204C7.10523 12.4079 6.99988 12.6623 6.99988 12.9275C6.99988 13.1927 7.10523 13.4471 7.29277 13.6346C7.48031 13.8221 7.73466 13.9275 7.99988 13.9275H11.9999C12.2651 13.9275 12.5194 13.8221 12.707 13.6346C12.8945 13.4471 12.9999 13.1927 12.9999 12.9275Z" fill="#374957"/>
<path d="M23.0002 2.92772C22.735 2.92772 22.4806 3.03308 22.2931 3.22062C22.1055 3.40815 22.0002 3.66251 22.0002 3.92772V6.30172C20.9582 4.7293 19.5603 3.42464 17.9198 2.49363C16.2792 1.56261 14.4423 1.03145 12.5581 0.943242C10.6738 0.855038 8.79533 1.21227 7.075 1.98597C5.35467 2.75966 3.84096 3.92801 2.65669 5.39623C1.47242 6.86444 0.650953 8.59116 0.258942 10.4363C-0.133069 12.2814 -0.0845825 14.193 0.400467 16.0158C0.885517 17.8387 1.79347 19.5216 3.05065 20.9278C4.30783 22.3341 5.87882 23.4242 7.63617 24.1097C7.75231 24.1545 7.87569 24.1776 8.00017 24.1777C8.23353 24.1781 8.45967 24.0968 8.63942 23.948C8.81917 23.7992 8.94122 23.5922 8.98442 23.3629C9.02763 23.1335 8.98927 22.8963 8.876 22.6923C8.76272 22.4883 8.58166 22.3303 8.36417 22.2457C6.87219 21.6688 5.54039 20.7424 4.48055 19.5442C3.42072 18.3461 2.66378 16.9112 2.27328 15.3599C1.88278 13.8087 1.87011 12.1864 2.23634 10.6293C2.60257 9.07212 3.33702 7.62555 4.37802 6.411C5.41901 5.19644 6.73619 4.24934 8.21898 3.6492C9.70176 3.04905 11.3069 2.81338 12.8996 2.96197C14.4923 3.11055 16.0261 3.63906 17.3723 4.50312C18.7185 5.36717 19.8378 6.54157 20.6362 7.92772H18.0002C17.735 7.92772 17.4806 8.03308 17.2931 8.22062C17.1055 8.40815 17.0002 8.66251 17.0002 8.92772C17.0002 9.19294 17.1055 9.44729 17.2931 9.63483C17.4806 9.82236 17.735 9.92772 18.0002 9.92772H21.0002C21.7958 9.92772 22.5589 9.61165 23.1215 9.04904C23.6841 8.48643 24.0002 7.72337 24.0002 6.92772V3.92772C24.0002 3.66251 23.8948 3.40815 23.7073 3.22062C23.5197 3.03308 23.2654 2.92772 23.0002 2.92772Z" fill="#374957"/>
<path d="M15.3832 16.003C15.2004 15.9273 14.9993 15.9075 14.8052 15.9461C14.6112 15.9848 14.433 16.0801 14.2932 16.22L11.2932 19.22C11.111 19.4086 11.0102 19.6612 11.0125 19.9234C11.0148 20.1856 11.1199 20.4364 11.3053 20.6218C11.4908 20.8072 11.7416 20.9124 12.0038 20.9147C12.266 20.917 12.5186 20.8162 12.7072 20.634L14.0002 19.341V23.927C14.0002 24.1922 14.1055 24.4466 14.2931 24.6341C14.4806 24.8217 14.7349 24.927 15.0002 24.927C15.2654 24.927 15.5197 24.8217 15.7073 24.6341C15.8948 24.4466 16.0002 24.1922 16.0002 23.927V16.927C16.0002 16.7292 15.9416 16.5359 15.8318 16.3714C15.722 16.207 15.5658 16.0787 15.3832 16.003Z" fill="#374957"/>
</g>
<defs>
<clipPath id="clip0_507_2305">
<rect width="24" height="24" fill="white" transform="translate(0 0.92749)"/>
</clipPath>
</defs>
</svg>
