<svg width="24" height="25" viewBox="0 0 24 25" fill="none" xmlns="http://www.w3.org/2000/svg">
<g clip-path="url(#clip0_507_2025)">
<path d="M22 0.92749H17C16.4696 0.92749 15.9609 1.1382 15.5858 1.51328C15.2107 1.88835 15 2.39706 15 2.92749V9.87549C15.0005 10.2615 15.1099 10.6395 15.3156 10.9661C15.5213 11.2927 15.815 11.5546 16.163 11.7217C16.5109 11.8888 16.8989 11.9544 17.2824 11.9108C17.666 11.8673 18.0294 11.7164 18.331 11.4755L19.5 10.5405L20.669 11.4765C20.9707 11.7174 21.3342 11.8683 21.7178 11.9119C22.1014 11.9554 22.4895 11.8897 22.8375 11.7225C23.1855 11.5552 23.4792 11.2932 23.6848 10.9664C23.8905 10.6397 23.9997 10.2616 24 9.87549V2.92749C24 2.39706 23.7893 1.88835 23.4142 1.51328C23.0391 1.1382 22.5304 0.92749 22 0.92749V0.92749ZM21.919 9.91449L20.125 8.47949C19.9476 8.33749 19.7272 8.26012 19.5 8.26012C19.2728 8.26012 19.0524 8.33749 18.875 8.47949L17 9.87549V2.92749H22L21.919 9.91449ZM24 14.9275V19.9275C23.9984 21.2531 23.4711 22.5239 22.5338 23.4613C21.5964 24.3986 20.3256 24.9259 19 24.9275H5C3.67441 24.9259 2.40356 24.3986 1.46622 23.4613C0.528882 22.5239 0.00158786 21.2531 0 19.9275L0 8.92749C0.00158786 7.6019 0.528882 6.33105 1.46622 5.39371C2.40356 4.45637 3.67441 3.92908 5 3.92749H12C12.2652 3.92749 12.5196 4.03285 12.7071 4.22038C12.8946 4.40792 13 4.66227 13 4.92749C13 5.19271 12.8946 5.44706 12.7071 5.6346C12.5196 5.82213 12.2652 5.92749 12 5.92749H5C4.45621 5.92899 3.92312 6.07877 3.45812 6.3607C2.99311 6.64263 2.6138 7.04603 2.361 7.52749L9.878 15.0455C10.4499 15.5905 11.2095 15.8945 11.9995 15.8945C12.7895 15.8945 13.5491 15.5905 14.121 15.0455L14.979 14.2085C15.0729 14.1166 15.184 14.044 15.3059 13.995C15.4278 13.946 15.5582 13.9215 15.6896 13.9229C15.821 13.9243 15.9508 13.9516 16.0717 14.0032C16.1926 14.0547 16.3021 14.1296 16.394 14.2235C16.4859 14.3174 16.5585 14.4285 16.6075 14.5504C16.6564 14.6723 16.6809 14.8027 16.6796 14.9341C16.6782 15.0655 16.6509 15.1953 16.5993 15.3162C16.5478 15.437 16.4729 15.5466 16.379 15.6385L15.53 16.4675C14.5884 17.3953 13.3192 17.9147 11.9974 17.9132C10.6755 17.9117 9.40745 17.3894 8.468 16.4595L2 9.99849V19.9275C2 20.7231 2.31607 21.4862 2.87868 22.0488C3.44129 22.6114 4.20435 22.9275 5 22.9275H19C19.7956 22.9275 20.5587 22.6114 21.1213 22.0488C21.6839 21.4862 22 20.7231 22 19.9275V14.9275C22 14.6623 22.1054 14.4079 22.2929 14.2204C22.4804 14.0328 22.7348 13.9275 23 13.9275C23.2652 13.9275 23.5196 14.0328 23.7071 14.2204C23.8946 14.4079 24 14.6623 24 14.9275Z" fill="#374957"/>
</g>
<defs>
<clipPath id="clip0_507_2025">
<rect width="24" height="24" fill="white" transform="translate(0 0.92749)"/>
</clipPath>
</defs>
</svg>
