<svg width="24" height="25" viewBox="0 0 24 25" fill="none" xmlns="http://www.w3.org/2000/svg">
<g clip-path="url(#clip0_507_2277)">
<path d="M23.9669 11.3439C23.6652 9.1212 22.7486 7.02695 21.3204 5.29728C19.8921 3.56762 18.0091 2.27133 15.8836 1.55456C13.7581 0.837798 11.4746 0.729061 9.29058 1.24061C7.10658 1.75216 5.1089 2.86365 3.52277 4.44978C1.93665 6.0359 0.825157 8.03358 0.313608 10.2176C-0.197941 12.4016 -0.0892037 14.6851 0.627561 16.8106C1.34433 18.9361 2.64062 20.8191 4.37028 22.2474C6.09994 23.6756 8.1942 24.5922 10.4169 24.8939C10.5791 24.9151 10.7424 24.9258 10.9059 24.9259C11.9606 24.9172 12.969 24.4916 13.7109 23.7419L22.8109 14.6419C23.243 14.2172 23.5718 13.699 23.7722 13.1273C23.9726 12.5555 24.0392 11.9455 23.9669 11.3439ZM2.06694 11.8179C2.33589 9.44466 3.44261 7.24517 5.18814 5.61485C6.93366 3.98454 9.20349 3.03035 11.5896 2.92382C13.9757 2.81729 16.3215 3.56541 18.2054 5.03368C20.0892 6.50195 21.3876 8.59407 21.8669 10.9339C18.7346 10.9718 15.7411 12.2324 13.5253 14.4467C11.3095 16.661 10.0469 19.6536 10.0069 22.7859C7.54713 22.2899 5.36415 20.8862 3.89221 18.8539C2.42027 16.8216 1.76721 14.3098 2.06294 11.8179H2.06694ZM12.2999 22.3269C12.2138 22.4096 12.1208 22.4849 12.0219 22.5519C12.119 20.0352 13.1622 17.6478 14.9431 15.8668C16.7239 14.0857 19.1112 13.0423 21.6279 12.9449C21.5616 13.0443 21.4866 13.1377 21.4039 13.2239L12.2999 22.3269Z" fill="#374957"/>
</g>
<defs>
<clipPath id="clip0_507_2277">
<rect width="24" height="24" fill="white" transform="translate(0 0.92749)"/>
</clipPath>
</defs>
</svg>
