<svg width="24" height="25" viewBox="0 0 24 25" fill="none" xmlns="http://www.w3.org/2000/svg">
<g clip-path="url(#clip0_507_2221)">
<path d="M18 7.9271C18 8.12488 17.9414 8.31822 17.8315 8.48267C17.7216 8.64712 17.5654 8.77529 17.3827 8.85098C17.2 8.92666 16.9989 8.94647 16.8049 8.90788C16.6109 8.8693 16.4327 8.77406 16.2929 8.6342C16.153 8.49435 16.0578 8.31617 16.0192 8.12219C15.9806 7.92821 16.0004 7.72714 16.0761 7.54441C16.1518 7.36169 16.28 7.20551 16.4444 7.09563C16.6089 6.98575 16.8022 6.9271 17 6.9271C17.2652 6.9271 17.5196 7.03245 17.7071 7.21999C17.8946 7.40753 18 7.66188 18 7.9271ZM14 9.9271C13.8022 9.9271 13.6089 9.98575 13.4444 10.0956C13.28 10.2055 13.1518 10.3617 13.0761 10.5444C13.0004 10.7271 12.9806 10.9282 13.0192 11.1222C13.0578 11.3162 13.153 11.4944 13.2929 11.6342C13.4327 11.7741 13.6109 11.8693 13.8049 11.9079C13.9989 11.9465 14.2 11.9267 14.3827 11.851C14.5654 11.7753 14.7216 11.6471 14.8315 11.4827C14.9414 11.3182 15 11.1249 15 10.9271C15 10.6619 14.8946 10.4075 14.7071 10.22C14.5196 10.0325 14.2652 9.9271 14 9.9271ZM11 12.9271C10.8022 12.9271 10.6089 12.9857 10.4444 13.0956C10.28 13.2055 10.1518 13.3617 10.0761 13.5444C10.0004 13.7271 9.98063 13.9282 10.0192 14.1222C10.0578 14.3162 10.153 14.4944 10.2929 14.6342C10.4327 14.7741 10.6109 14.8693 10.8049 14.9079C10.9989 14.9465 11.2 14.9267 11.3827 14.851C11.5654 14.7753 11.7216 14.6471 11.8315 14.4827C11.9414 14.3182 12 14.1249 12 13.9271C12 13.6619 11.8946 13.4075 11.7071 13.22C11.5196 13.0325 11.2652 12.9271 11 12.9271ZM23.866 3.8851L23.791 4.0961C22.289 8.2641 20.848 12.2271 18 15.7471V15.9271C17.9982 17.4588 17.6772 18.9733 17.0574 20.374C16.4375 21.7747 15.5325 23.0308 14.4 24.0621C13.8005 24.6152 13.0157 24.9238 12.2 24.9271C11.3511 24.9245 10.5378 24.5856 9.93806 23.9848C9.33834 23.384 9.00105 22.57 9 21.7211V20.5701C8.26209 20.3321 7.59039 19.9242 7.039 19.3791L7 19.3411L4.707 21.6341C4.5184 21.8163 4.2658 21.9171 4.0036 21.9148C3.7414 21.9125 3.49059 21.8073 3.30518 21.6219C3.11977 21.4365 3.0146 21.1857 3.01233 20.9235C3.01005 20.6613 3.11084 20.4087 3.293 20.2201L5.586 17.9271L5.547 17.8891C5.00157 17.3371 4.59269 16.6652 4.353 15.9271H3.363C2.47149 15.9263 1.61671 15.5719 0.98623 14.9416C0.355746 14.3113 0.00105907 13.4566 0 12.5651C0.00176888 11.6944 0.337503 10.8576 0.938 10.2271C1.9835 9.15336 3.23879 8.30627 4.62576 7.73855C6.01272 7.17082 7.50169 6.89461 9 6.9271H9.18C12.7 4.0801 16.66 2.6391 20.826 1.1381L21.042 1.0611C21.4362 0.916178 21.8636 0.887123 22.2738 0.977363C22.684 1.0676 23.0598 1.27337 23.3568 1.57035C23.6537 1.86732 23.8595 2.2431 23.9497 2.65328C24.04 3.06346 24.0109 3.4909 23.866 3.8851ZM3.363 13.9271H4.1C4.17512 13.046 4.48258 12.2006 4.991 11.4771C5.54904 10.6742 6.15305 9.90425 6.8 9.1711C5.12253 9.51831 3.58896 10.3639 2.4 11.5971C2.14706 11.8563 2.00379 12.203 2 12.5651C2.00053 12.9263 2.14433 13.2726 2.39986 13.5279C2.65539 13.7833 3.00176 13.9268 3.363 13.9271ZM15.7 18.1791C14.9827 18.807 14.2309 19.3942 13.448 19.9381C12.7239 20.4416 11.8791 20.7439 11 20.8141V21.7211C11.0005 22.041 11.1279 22.3476 11.3542 22.5736C11.5804 22.7997 11.8871 22.9268 12.207 22.9271C12.5241 22.9224 12.828 22.7994 13.059 22.5821C14.3482 21.402 15.2659 19.8721 15.7 18.1791ZM21.937 2.9901C21.9104 2.96046 21.8751 2.93989 21.8362 2.93129C21.7973 2.92268 21.7567 2.92646 21.72 2.9421L21.505 3.0201C16.661 4.7651 12.478 6.2731 8.876 9.8741C8.04974 10.7262 7.29768 11.6472 6.628 12.6271C6.22066 13.2053 6.03069 13.9088 6.09162 14.6134C6.15255 15.318 6.46046 15.9784 6.961 16.4781L8.453 17.9681C8.95242 18.4683 9.6124 18.7761 10.3166 18.8372C11.0208 18.8983 11.7239 18.7088 12.302 18.3021C13.2814 17.6325 14.2017 16.8805 15.053 16.0541C18.653 12.4541 20.163 8.2671 21.909 3.4211L21.985 3.2101C22.0012 3.17304 22.0053 3.13183 21.9966 3.09232C21.988 3.05282 21.9671 3.01704 21.937 2.9901Z" fill="#374957"/>
</g>
<defs>
<clipPath id="clip0_507_2221">
<rect width="24" height="24" fill="white" transform="translate(0 0.92749)"/>
</clipPath>
</defs>
</svg>
