<svg width="24" height="25" viewBox="0 0 24 25" fill="none" xmlns="http://www.w3.org/2000/svg">
<g clip-path="url(#clip0_507_1995)">
<path d="M23.6788 12.3356C22.8945 10.4939 21.664 8.87656 20.0984 7.62935C18.5327 6.38214 16.6812 5.54435 14.7108 5.19158C14.9247 4.73529 15.0199 4.2324 14.9877 3.72952C14.9555 3.22663 14.7968 2.74001 14.5265 2.31474C14.2562 1.88948 13.8829 1.53932 13.4412 1.29673C12.9995 1.05413 12.5037 0.926941 11.9998 0.926941C11.4959 0.926941 11.0001 1.05413 10.5585 1.29673C10.1168 1.53932 9.74347 1.88948 9.47313 2.31474C9.20279 2.74001 9.04416 3.22663 9.01194 3.72952C8.97973 4.2324 9.07496 4.73529 9.28882 5.19158C7.31903 5.5449 5.46815 6.38292 3.90308 7.6301C2.338 8.87727 1.10794 10.4944 0.323819 12.3356C0.063043 12.9505 -0.0412084 13.6205 0.0203951 14.2855C0.0819986 14.9506 0.307535 15.59 0.676819 16.1466C1.03328 16.6811 1.51356 17.1216 2.07682 17.4306L2.67682 20.8026C2.88104 21.9594 3.48661 23.0072 4.38704 23.7617C5.28747 24.5162 6.42509 24.929 7.59982 24.9276H16.3998C17.5745 24.9292 18.7121 24.5164 19.6124 23.7618C20.5127 23.0073 21.118 21.9594 21.3218 20.8026L21.9218 17.4316C22.4854 17.123 22.9658 16.6824 23.3218 16.1476C23.6917 15.5912 23.9179 14.9517 23.9802 14.2865C24.0425 13.6213 23.9389 12.951 23.6788 12.3356ZM11.9998 2.92758C12.265 2.92758 12.5194 3.03293 12.7069 3.22047C12.8945 3.40801 12.9998 3.66236 12.9998 3.92758C12.9998 4.19279 12.8945 4.44715 12.7069 4.63468C12.5194 4.82222 12.265 4.92758 11.9998 4.92758C11.7346 4.92758 11.4802 4.82222 11.2927 4.63468C11.1052 4.44715 10.9998 4.19279 10.9998 3.92758C10.9998 3.66236 11.1052 3.40801 11.2927 3.22047C11.4802 3.03293 11.7346 2.92758 11.9998 2.92758ZM19.3568 20.4526C19.2334 21.1469 18.8694 21.7755 18.3286 22.2281C17.7879 22.6807 17.105 22.9284 16.3998 22.9276H7.59982C6.89517 22.9276 6.21298 22.6797 5.67285 22.2271C5.13273 21.7746 4.76913 21.1464 4.64582 20.4526L4.27482 18.3726C4.82987 18.7613 5.50017 18.9506 6.17656 18.9098C6.85295 18.8689 7.49559 18.6003 7.99982 18.1476C8.54883 18.6416 9.26126 18.9149 9.99982 18.9149C10.7384 18.9149 11.4508 18.6416 11.9998 18.1476C12.5488 18.6416 13.2613 18.9149 13.9998 18.9149C14.7384 18.9149 15.4508 18.6416 15.9998 18.1476C16.5043 18.601 17.1475 18.8701 17.8245 18.9109C18.5016 18.9518 19.1725 18.762 19.7278 18.3726L19.3568 20.4526ZM21.6568 15.0396C21.4774 15.3148 21.2316 15.5405 20.942 15.6957C20.6524 15.8509 20.3284 15.9306 19.9998 15.9276C19.7635 15.9379 19.5322 15.9991 19.3216 16.1069C19.1111 16.2148 18.9263 16.3668 18.7798 16.5526C18.6851 16.6678 18.566 16.7605 18.4311 16.8242C18.2963 16.8879 18.149 16.9209 17.9998 16.9209C17.8507 16.9209 17.7034 16.8879 17.5685 16.8242C17.4337 16.7605 17.3146 16.6678 17.2198 16.5526C17.0773 16.3639 16.8929 16.2108 16.6812 16.1055C16.4695 16.0001 16.2363 15.9452 15.9998 15.9452C15.7633 15.9452 15.5301 16.0001 15.3184 16.1055C15.1067 16.2108 14.9224 16.3639 14.7798 16.5526C14.6851 16.6678 14.566 16.7605 14.4311 16.8242C14.2963 16.8879 14.149 16.9209 13.9998 16.9209C13.8507 16.9209 13.7034 16.8879 13.5685 16.8242C13.4337 16.7605 13.3146 16.6678 13.2198 16.5526C13.0773 16.3639 12.8929 16.2108 12.6812 16.1055C12.4695 16.0001 12.2363 15.9452 11.9998 15.9452C11.7633 15.9452 11.5301 16.0001 11.3184 16.1055C11.1067 16.2108 10.9224 16.3639 10.7798 16.5526C10.6851 16.6678 10.566 16.7605 10.4311 16.8242C10.2963 16.8879 10.149 16.9209 9.99982 16.9209C9.85067 16.9209 9.70338 16.8879 9.56852 16.8242C9.43365 16.7605 9.31457 16.6678 9.21982 16.5526C9.07728 16.3639 8.89292 16.2108 8.68123 16.1055C8.46954 16.0001 8.23629 15.9452 7.99982 15.9452C7.76335 15.9452 7.5301 16.0001 7.31841 16.1055C7.10672 16.2108 6.92236 16.3639 6.77982 16.5526C6.68507 16.6678 6.56599 16.7605 6.43112 16.8242C6.29626 16.8879 6.14896 16.9209 5.99982 16.9209C5.85067 16.9209 5.70338 16.8879 5.56852 16.8242C5.43365 16.7605 5.31457 16.6678 5.21982 16.5526C5.07345 16.3667 4.88867 16.2146 4.67811 16.1068C4.46755 15.9989 4.23618 15.9378 3.99982 15.9276C3.67142 15.9306 3.34756 15.8508 3.05814 15.6956C2.76871 15.5404 2.52305 15.3148 2.34382 15.0396C2.15489 14.7589 2.03966 14.4352 2.00872 14.0982C1.97779 13.7613 2.03216 13.422 2.16682 13.1116C5.43382 4.91158 18.5668 4.91158 21.8348 13.1116C21.9695 13.422 22.0238 13.7613 21.9929 14.0982C21.962 14.4352 21.8467 14.7589 21.6578 15.0396H21.6568Z" fill="#374957"/>
</g>
<defs>
<clipPath id="clip0_507_1995">
<rect width="24" height="24" fill="white" transform="translate(0 0.92749)"/>
</clipPath>
</defs>
</svg>
