<svg width="24" height="25" viewBox="0 0 24 25" fill="none" xmlns="http://www.w3.org/2000/svg">
<g clip-path="url(#clip0_507_2240)">
<path d="M12.0001 15.9276C11.7349 15.9276 11.4806 15.8222 11.293 15.6347C11.1055 15.4472 11.0001 15.1928 11.0001 14.9276C11.0373 14.2742 11.2361 13.6402 11.5787 13.0825C11.9213 12.5249 12.397 12.061 12.9631 11.7326C13.3331 11.5299 13.6291 11.215 13.8088 10.8334C13.9885 10.4517 14.0425 10.0229 13.9631 9.60861C13.8861 9.21289 13.6927 8.8492 13.4076 8.56414C13.1225 8.27907 12.7588 8.08563 12.3631 8.00861C12.0743 7.95529 11.7772 7.96626 11.493 8.04074C11.2089 8.11522 10.9446 8.25137 10.719 8.43953C10.4935 8.62769 10.3121 8.86322 10.1879 9.1294C10.0636 9.39558 9.99951 9.68586 10.0001 9.97961C10.0001 10.2448 9.89477 10.4992 9.70723 10.6867C9.5197 10.8742 9.26534 10.9796 9.00013 10.9796C8.73491 10.9796 8.48056 10.8742 8.29302 10.6867C8.10548 10.4992 8.00013 10.2448 8.00013 9.97961C8.00002 9.39536 8.12791 8.81818 8.37479 8.28866C8.62167 7.75914 8.98155 7.29013 9.42913 6.91461C9.85688 6.55701 10.3547 6.29279 10.8905 6.13889C11.4264 5.98499 11.9885 5.94482 12.5409 6.02095C13.0932 6.09708 13.6235 6.28783 14.0977 6.58097C14.572 6.8741 14.9797 7.26314 15.2948 7.72313C15.6098 8.18311 15.8253 8.70388 15.9272 9.25201C16.0292 9.80015 16.0154 10.3635 15.8868 10.9061C15.7582 11.4486 15.5176 11.9582 15.1805 12.4022C14.8434 12.8463 14.4171 13.215 13.9291 13.4846C13.6763 13.6404 13.4616 13.8509 13.3008 14.1006C13.14 14.3504 13.0373 14.6329 13.0001 14.9276C13.0001 15.1928 12.8948 15.4472 12.7072 15.6347C12.5197 15.8222 12.2653 15.9276 12.0001 15.9276ZM12.7931 24.6876C14.9531 23.8196 22.0001 20.4066 22.0001 12.9706V7.79961C22.0012 6.74862 21.6707 5.72408 21.0555 4.87192C20.4404 4.01976 19.572 3.38345 18.5741 3.05361L12.3151 0.978606C12.1108 0.909638 11.8895 0.909638 11.6851 0.978606L5.42613 3.05361C4.42824 3.38345 3.55987 4.01976 2.94473 4.87192C2.32958 5.72408 1.99902 6.74862 2.00012 7.79961V12.9706C2.00012 19.5326 9.00513 23.5466 11.1531 24.6206C11.4128 24.777 11.7005 24.8813 12.0001 24.9276C12.2771 24.8976 12.546 24.8162 12.7931 24.6876ZM17.9441 4.95161C18.5427 5.15002 19.0634 5.53198 19.4325 6.04324C19.8016 6.5545 20.0002 7.16905 20.0001 7.79961V12.9706C20.0001 19.1536 13.9131 22.0816 12.0471 22.8316C10.1591 21.8876 4.00013 18.3866 4.00013 12.9706V7.79961C4.00004 7.16905 4.19865 6.5545 4.56773 6.04324C4.93681 5.53198 5.4576 5.15002 6.05613 4.95161L12.0001 2.98161L17.9441 4.95161ZM12.0001 17.9276C11.8023 17.9276 11.609 17.9863 11.4446 18.0961C11.2801 18.206 11.1519 18.3622 11.0762 18.5449C11.0006 18.7276 10.9808 18.9287 11.0193 19.1227C11.0579 19.3167 11.1532 19.4949 11.293 19.6347C11.4329 19.7746 11.6111 19.8698 11.805 19.9084C11.999 19.947 12.2001 19.9272 12.3828 19.8515C12.5655 19.7758 12.7217 19.6476 12.8316 19.4832C12.9415 19.3187 13.0001 19.1254 13.0001 18.9276C13.0001 18.6624 12.8948 18.408 12.7072 18.2205C12.5197 18.033 12.2653 17.9276 12.0001 17.9276Z" fill="#374957"/>
</g>
<defs>
<clipPath id="clip0_507_2240">
<rect width="24" height="24" fill="white" transform="translate(0 0.92749)"/>
</clipPath>
</defs>
</svg>
