<svg width="24" height="25" viewBox="0 0 24 25" fill="none" xmlns="http://www.w3.org/2000/svg">
<g clip-path="url(#clip0_507_2215)">
<path d="M19 0.92749H11C9.67441 0.929078 8.40356 1.45637 7.46622 2.39371C6.52888 3.33105 6.00159 4.6019 6 5.92749V11.9275H5C3.67441 11.9291 2.40356 12.4564 1.46622 13.3937C0.528882 14.331 0.00158786 15.6019 0 16.9275L0 19.9275C0.00158786 21.2531 0.528882 22.5239 1.46622 23.4613C2.40356 24.3986 3.67441 24.9259 5 24.9275H8C9.32559 24.9259 10.5964 24.3986 11.5338 23.4613C12.4711 22.5239 12.9984 21.2531 13 19.9275V18.9275H19C20.3256 18.9259 21.5964 18.3986 22.5338 17.4613C23.4711 16.5239 23.9984 15.2531 24 13.9275V5.92749C23.9984 4.6019 23.4711 3.33105 22.5338 2.39371C21.5964 1.45637 20.3256 0.929078 19 0.92749V0.92749ZM11 16.9275C10.2044 16.9275 9.44129 16.6114 8.87868 16.0488C8.31607 15.4862 8 14.7231 8 13.9275C8.79565 13.9275 9.55871 14.2436 10.1213 14.8062C10.6839 15.3688 11 16.1318 11 16.9275ZM11 19.9275C11 20.7231 10.6839 21.4862 10.1213 22.0488C9.55871 22.6114 8.79565 22.9275 8 22.9275H5C4.20435 22.9275 3.44129 22.6114 2.87868 22.0488C2.31607 21.4862 2 20.7231 2 19.9275V16.9275C2 16.1318 2.31607 15.3688 2.87868 14.8062C3.44129 14.2436 4.20435 13.9275 5 13.9275H6C6.00159 15.2531 6.52888 16.5239 7.46622 17.4613C8.40356 18.3986 9.67441 18.9259 11 18.9275V19.9275ZM22 13.9275C22 14.7231 21.6839 15.4862 21.1213 16.0488C20.5587 16.6114 19.7956 16.9275 19 16.9275H13C12.9998 15.9478 12.71 14.99 12.167 14.1745L18 8.34149V10.9275C18 11.1927 18.1054 11.4471 18.2929 11.6346C18.4804 11.8221 18.7348 11.9275 19 11.9275C19.2652 11.9275 19.5196 11.8221 19.7071 11.6346C19.8946 11.4471 20 11.1927 20 10.9275V7.92749C20 7.13184 19.6839 6.36878 19.1213 5.80617C18.5587 5.24356 17.7956 4.92749 17 4.92749H14C13.7348 4.92749 13.4804 5.03285 13.2929 5.22038C13.1054 5.40792 13 5.66227 13 5.92749C13 6.19271 13.1054 6.44706 13.2929 6.6346C13.4804 6.82213 13.7348 6.92749 14 6.92749H16.586L10.753 12.7605C9.93752 12.2175 8.97972 11.9277 8 11.9275V5.92749C8 5.13184 8.31607 4.36878 8.87868 3.80617C9.44129 3.24356 10.2044 2.92749 11 2.92749H19C19.7956 2.92749 20.5587 3.24356 21.1213 3.80617C21.6839 4.36878 22 5.13184 22 5.92749V13.9275Z" fill="#374957"/>
</g>
<defs>
<clipPath id="clip0_507_2215">
<rect width="24" height="24" fill="white" transform="translate(0 0.92749)"/>
</clipPath>
</defs>
</svg>
