<svg width="24" height="25" viewBox="0 0 24 25" fill="none" xmlns="http://www.w3.org/2000/svg">
<g clip-path="url(#clip0_507_2283)">
<path d="M19.9998 0.937752C16.1878 0.937752 11.8748 2.97575 8.46077 6.38875C5.02747 9.79258 2.2666 13.8131 0.322766 18.2398C0.00492892 18.975 -0.0838797 19.789 0.0679296 20.5756C0.219739 21.3621 0.605115 22.0846 1.17377 22.6488L2.27977 23.7538C2.84287 24.3211 3.56371 24.7058 4.34848 24.8577C5.13325 25.0097 5.94559 24.9219 6.67977 24.6058C11.1091 22.6648 15.1312 19.9032 18.5338 16.4668C21.9518 13.0538 23.9898 8.74075 23.9898 4.92775C24.046 4.38996 23.9814 3.8464 23.8008 3.33675C23.6202 2.82709 23.328 2.3642 22.9457 1.98185C22.5633 1.5995 22.1004 1.30735 21.5908 1.12672C21.0811 0.946081 20.5376 0.881523 19.9998 0.937752ZM17.1248 15.0528C13.9027 18.3088 10.0941 20.9264 5.89977 22.7678C5.56626 22.9044 5.20211 22.9486 4.84559 22.8958C4.48908 22.843 4.15338 22.6951 3.87377 22.4678L16.7068 9.63475C16.8023 9.54251 16.8785 9.43216 16.9309 9.31016C16.9833 9.18815 17.0109 9.05693 17.012 8.92415C17.0132 8.79137 16.9879 8.65969 16.9376 8.5368C16.8873 8.4139 16.8131 8.30225 16.7192 8.20836C16.6253 8.11446 16.5136 8.04021 16.3907 7.98993C16.2678 7.93965 16.1361 7.91435 16.0034 7.9155C15.8706 7.91666 15.7394 7.94424 15.6174 7.99665C15.4954 8.04906 15.385 8.12524 15.2928 8.22075L2.45677 21.0568C2.2291 20.7769 2.08109 20.4408 2.0283 20.0839C1.9755 19.7271 2.01988 19.3625 2.15677 19.0288C4.00086 14.8348 6.61928 11.0263 9.87477 7.80275C13.4628 4.21575 17.4578 2.93775 19.9998 2.93775C21.4508 2.93775 21.9898 3.47675 21.9898 4.92775C21.9898 7.47075 20.7118 11.4658 17.1248 15.0528Z" fill="#374957"/>
</g>
<defs>
<clipPath id="clip0_507_2283">
<rect width="24" height="24" fill="white" transform="translate(0 0.92749)"/>
</clipPath>
</defs>
</svg>
