<svg width="24" height="25" viewBox="0 0 24 25" fill="none" xmlns="http://www.w3.org/2000/svg">
<g clip-path="url(#clip0_507_2326)">
<path d="M19 5.92688H16.9C16.6679 4.79829 16.0538 3.78423 15.1613 3.0556C14.2687 2.32697 13.1522 1.92833 12 1.92688H5C3.67441 1.92847 2.40356 2.45576 1.46622 3.3931C0.528882 4.33044 0.00158786 5.60129 0 6.92688L0 15.9269C0.0025138 16.8225 0.305538 17.6914 0.860536 18.3943C1.41553 19.0973 2.19039 19.5936 3.061 19.8039C2.96676 20.3043 2.98287 20.8193 3.10819 21.3129C3.23351 21.8065 3.46503 22.2668 3.7866 22.6616C4.10816 23.0565 4.51202 23.3765 4.96999 23.5992C5.42796 23.8219 5.92901 23.9419 6.43817 23.951C6.94733 23.9601 7.45234 23.8579 7.91796 23.6517C8.38357 23.4455 8.79858 23.1401 9.13401 22.757C9.46944 22.3738 9.71722 21.9221 9.86006 21.4333C10.0029 20.9445 10.0373 20.4304 9.961 19.9269H14.043C14.0173 20.0923 14.0036 20.2594 14.002 20.4269C14.002 21.3551 14.3707 22.2454 15.0271 22.9018C15.6835 23.5581 16.5737 23.9269 17.502 23.9269C18.4303 23.9269 19.3205 23.5581 19.9769 22.9018C20.6333 22.2454 21.002 21.3551 21.002 20.4269C21.0009 20.2178 20.9804 20.0092 20.941 19.8039C21.8112 19.5933 22.5856 19.0967 23.1403 18.3938C23.6949 17.6909 23.9976 16.8222 24 15.9269V10.9269C23.9984 9.60129 23.4711 8.33044 22.5338 7.3931C21.5964 6.45576 20.3256 5.92847 19 5.92688ZM22 10.9269V11.9269H17V7.92688H19C19.7956 7.92688 20.5587 8.24295 21.1213 8.80556C21.6839 9.36817 22 10.1312 22 10.9269ZM2 15.9269V6.92688C2 6.13123 2.31607 5.36817 2.87868 4.80556C3.44129 4.24295 4.20435 3.92688 5 3.92688H12C12.7956 3.92688 13.5587 4.24295 14.1213 4.80556C14.6839 5.36817 15 6.13123 15 6.92688V17.9269H4C3.46957 17.9269 2.96086 17.7162 2.58579 17.3411C2.21071 16.966 2 16.4573 2 15.9269ZM8 20.4269C8 20.8247 7.84196 21.2062 7.56066 21.4875C7.27936 21.7688 6.89782 21.9269 6.5 21.9269C6.10218 21.9269 5.72064 21.7688 5.43934 21.4875C5.15804 21.2062 5 20.8247 5 20.4269C5.00061 20.256 5.03212 20.0866 5.093 19.9269H7.907C7.96788 20.0866 7.99939 20.256 8 20.4269ZM17.5 21.9269C17.1022 21.9269 16.7206 21.7688 16.4393 21.4875C16.158 21.2062 16 20.8247 16 20.4269C16.0004 20.256 16.0319 20.0865 16.093 19.9269H18.907C18.9681 20.0865 18.9996 20.256 19 20.4269C19 20.8247 18.842 21.2062 18.5607 21.4875C18.2794 21.7688 17.8978 21.9269 17.5 21.9269ZM20 17.9269H17V13.9269H22V15.9269C22 16.4573 21.7893 16.966 21.4142 17.3411C21.0391 17.7162 20.5304 17.9269 20 17.9269Z" fill="#374957"/>
</g>
<defs>
<clipPath id="clip0_507_2326">
<rect width="24" height="24" fill="white" transform="translate(0 0.92749)"/>
</clipPath>
</defs>
</svg>
