<svg width="24" height="25" viewBox="0 0 24 25" fill="none" xmlns="http://www.w3.org/2000/svg">
<g clip-path="url(#clip0_507_1956)">
<path d="M20.025 22.9535H19.025V21.2985C19.0229 20.7624 18.9134 20.2321 18.703 19.739C18.4926 19.2459 18.1856 18.8 17.8 18.4275C15.876 16.5685 15.091 14.4385 15.034 10.9515H16.022C16.2872 10.9515 16.5416 10.8461 16.7291 10.6586C16.9166 10.471 17.022 10.2167 17.022 9.95146C17.022 9.68624 16.9166 9.43189 16.7291 9.24435C16.5416 9.05681 16.2872 8.95146 16.022 8.95146H15.466C15.8264 8.3463 16.0183 7.65578 16.022 6.95146C16.022 5.57646 14.86 3.23446 14.129 2.08146C13.9029 1.728 13.5915 1.43714 13.2235 1.23567C12.8554 1.03419 12.4426 0.928589 12.023 0.928589C11.6034 0.928589 11.1906 1.03419 10.8225 1.23567C10.4545 1.43714 10.1431 1.728 9.917 2.08146C9.185 3.23546 8.023 5.58146 8.023 6.95246C8.02715 7.65671 8.21908 8.34711 8.579 8.95246H8.026C7.76078 8.95246 7.50643 9.05781 7.31889 9.24535C7.13136 9.43289 7.026 9.68724 7.026 9.95246C7.026 10.2177 7.13136 10.472 7.31889 10.6596C7.50643 10.8471 7.76078 10.9525 8.026 10.9525H9.015C8.957 14.4395 8.171 16.5685 6.249 18.4275C5.86414 18.8002 5.55769 19.2461 5.34766 19.7389C5.13764 20.2318 5.02827 20.7617 5.026 21.2975V22.9525H4.026C3.76078 22.9525 3.50643 23.0578 3.31889 23.2454C3.13136 23.4329 3.026 23.6872 3.026 23.9525C3.026 24.2177 3.13136 24.472 3.31889 24.6596C3.50643 24.8471 3.76078 24.9525 4.026 24.9525H20.026C20.2912 24.9525 20.5456 24.8471 20.7331 24.6596C20.9206 24.472 21.026 24.2177 21.026 23.9525C21.026 23.6872 20.9206 23.4329 20.7331 23.2454C20.5456 23.0578 20.2912 22.9525 20.026 22.9525L20.025 22.9535ZM11.608 3.15346C11.6535 3.08435 11.7155 3.02762 11.7884 2.98838C11.8613 2.94913 11.9427 2.92858 12.0255 2.92858C12.1083 2.92858 12.1897 2.94913 12.2626 2.98838C12.3355 3.02762 12.3975 3.08435 12.443 3.15346C13.2101 4.30642 13.7473 5.59673 14.025 6.95346C14.025 7.48389 13.8143 7.9926 13.4392 8.36767C13.0641 8.74274 12.5554 8.95346 12.025 8.95346C11.4946 8.95346 10.9859 8.74274 10.6108 8.36767C10.2357 7.9926 10.025 7.48389 10.025 6.95346C10.3034 5.59709 10.8409 4.30718 11.608 3.15446V3.15346ZM13.038 10.9535C13.092 14.4695 13.838 16.9045 15.56 18.9535H8.491C10.211 16.9045 10.959 14.4685 11.014 10.9535H13.038ZM7.026 21.2985C7.02748 21.1826 7.03953 21.0671 7.062 20.9535H16.99C17.0116 21.0672 17.0233 21.1827 17.025 21.2985V22.9535H7.025L7.026 21.2985Z" fill="#374957"/>
</g>
<defs>
<clipPath id="clip0_507_1956">
<rect width="24" height="24" fill="white" transform="translate(0 0.92749)"/>
</clipPath>
</defs>
</svg>
