<svg width="24" height="25" viewBox="0 0 24 25" fill="none" xmlns="http://www.w3.org/2000/svg">
<g clip-path="url(#clip0_507_2174)">
<path d="M6.5 0.927483C5.57174 0.927483 4.6815 1.29623 4.02513 1.95261C3.36875 2.60899 3 3.49922 3 4.42748V21.4275C3 22.3557 3.36875 23.246 4.02513 23.9024C4.6815 24.5587 5.57174 24.9275 6.5 24.9275C7.42826 24.9275 8.3185 24.5587 8.97487 23.9024C9.63125 23.246 10 22.3557 10 21.4275V4.42748C10 3.49922 9.63125 2.60899 8.97487 1.95261C8.3185 1.29623 7.42826 0.927483 6.5 0.927483ZM8 21.4275C8 21.8253 7.84196 22.2068 7.56066 22.4881C7.27936 22.7694 6.89782 22.9275 6.5 22.9275C6.10218 22.9275 5.72064 22.7694 5.43934 22.4881C5.15804 22.2068 5 21.8253 5 21.4275V4.42748C5 4.02966 5.15804 3.64813 5.43934 3.36682C5.72064 3.08552 6.10218 2.92748 6.5 2.92748C6.89782 2.92748 7.27936 3.08552 7.56066 3.36682C7.84196 3.64813 8 4.02966 8 4.42748V21.4275Z" fill="#374957"/>
<path d="M17.5001 0.927483C16.5719 0.927483 15.6816 1.29623 15.0252 1.95261C14.3689 2.60899 14.0001 3.49922 14.0001 4.42748V21.4275C14.0001 22.3557 14.3689 23.246 15.0252 23.9024C15.6816 24.5587 16.5719 24.9275 17.5001 24.9275C18.4284 24.9275 19.3186 24.5587 19.975 23.9024C20.6314 23.246 21.0001 22.3557 21.0001 21.4275V4.42748C21.0001 3.49922 20.6314 2.60899 19.975 1.95261C19.3186 1.29623 18.4284 0.927483 17.5001 0.927483ZM19.0001 21.4275C19.0001 21.8253 18.8421 22.2068 18.5608 22.4881C18.2795 22.7694 17.8979 22.9275 17.5001 22.9275C17.1023 22.9275 16.7208 22.7694 16.4395 22.4881C16.1582 22.2068 16.0001 21.8253 16.0001 21.4275V4.42748C16.0001 4.02966 16.1582 3.64813 16.4395 3.36682C16.7208 3.08552 17.1023 2.92748 17.5001 2.92748C17.8979 2.92748 18.2795 3.08552 18.5608 3.36682C18.8421 3.64813 19.0001 4.02966 19.0001 4.42748V21.4275Z" fill="#374957"/>
</g>
<defs>
<clipPath id="clip0_507_2174">
<rect width="24" height="24" fill="white" transform="translate(0 0.92749)"/>
</clipPath>
</defs>
</svg>
