<svg width="24" height="25" viewBox="0 0 24 25" fill="none" xmlns="http://www.w3.org/2000/svg">
<g clip-path="url(#clip0_507_2208)">
<path d="M19 3.92749H5C3.67392 3.92749 2.40215 4.45427 1.46447 5.39196C0.526784 6.32964 0 7.60141 0 8.92749L0 16.9275C0 18.2536 0.526784 19.5253 1.46447 20.463C2.40215 21.4007 3.67392 21.9275 5 21.9275H19C19.6566 21.9275 20.3068 21.7982 20.9134 21.5469C21.52 21.2956 22.0712 20.9273 22.5355 20.463C22.9998 19.9987 23.3681 19.4475 23.6194 18.8409C23.8707 18.2343 24 17.5841 24 16.9275V8.92749C24 8.27088 23.8707 7.6207 23.6194 7.01407C23.3681 6.40744 22.9998 5.85625 22.5355 5.39196C22.0712 4.92766 21.52 4.55937 20.9134 4.30809C20.3068 4.05682 19.6566 3.92749 19 3.92749ZM22 16.9275C22 17.7231 21.6839 18.4862 21.1213 19.0488C20.5587 19.6114 19.7956 19.9275 19 19.9275H5C4.20435 19.9275 3.44129 19.6114 2.87868 19.0488C2.31607 18.4862 2 17.7231 2 16.9275V8.92749C2 8.13184 2.31607 7.36878 2.87868 6.80617C3.44129 6.24356 4.20435 5.92749 5 5.92749H19C19.7956 5.92749 20.5587 6.24356 21.1213 6.80617C21.6839 7.36878 22 8.13184 22 8.92749V16.9275Z" fill="#374957"/>
</g>
<defs>
<clipPath id="clip0_507_2208">
<rect width="24" height="24" fill="white" transform="translate(0 0.92749)"/>
</clipPath>
</defs>
</svg>
