<svg width="24" height="25" viewBox="0 0 24 25" fill="none" xmlns="http://www.w3.org/2000/svg">
<g clip-path="url(#clip0_507_2094)">
<path d="M17.0002 24.9275H7.00523C6.42694 24.9272 5.85555 24.8019 5.33017 24.5603C4.80479 24.3186 4.33782 23.9663 3.96123 23.5275C3.58994 23.0982 3.31578 22.5938 3.15751 22.0487C2.99924 21.5037 2.9606 20.9309 3.04423 20.3695C3.58114 17.445 5.14119 14.807 7.44523 12.9275C5.14116 11.0474 3.58143 8.40858 3.04523 5.48349C2.96176 4.92251 3.00039 4.35011 3.15848 3.80543C3.31657 3.26075 3.59039 2.75662 3.96123 2.32749C4.33782 1.88864 4.80479 1.53633 5.33017 1.2947C5.85555 1.05307 6.42694 0.927804 7.00523 0.92749L17.0002 0.92749C17.5785 0.928002 18.1498 1.05335 18.6752 1.29497C19.2005 1.53659 19.6675 1.88879 20.0442 2.32749C20.4151 2.75644 20.6891 3.26034 20.8475 3.80481C21.006 4.34928 21.0451 4.92152 20.9622 5.48249C20.4205 8.40844 18.8573 11.0469 16.5512 12.9275C18.856 14.8097 20.4174 17.4492 20.9572 20.3755C21.0402 20.9366 21.0011 21.509 20.8427 22.0537C20.6842 22.5983 20.4102 23.1024 20.0392 23.5315C19.6627 23.9688 19.1963 24.3199 18.6719 24.5608C18.1475 24.8017 17.5773 24.9268 17.0002 24.9275ZM17.0002 2.92749H7.00523C6.71516 2.92731 6.42847 2.98976 6.16476 3.11057C5.90105 3.23138 5.66653 3.40771 5.47723 3.62749C5.29238 3.83792 5.15578 4.08623 5.07701 4.35502C4.99824 4.62381 4.9792 4.90657 5.02123 5.18349C5.39723 7.68349 6.94523 10.0235 9.62123 12.1405C9.73947 12.2341 9.835 12.3533 9.90068 12.489C9.96635 12.6248 10.0005 12.7737 10.0005 12.9245C10.0005 13.0753 9.96635 13.2242 9.90068 13.3599C9.835 13.4957 9.73947 13.6149 9.62123 13.7085C6.94523 15.8275 5.40023 18.1695 5.02123 20.6685C4.97875 20.9459 4.99756 21.2292 5.07634 21.4986C5.15512 21.7679 5.29196 22.0167 5.47723 22.2275C5.66653 22.4473 5.90105 22.6236 6.16476 22.7444C6.42847 22.8652 6.71516 22.9277 7.00523 22.9275H17.0002C17.2903 22.9277 17.577 22.8653 17.8407 22.7445C18.1045 22.6237 18.339 22.4473 18.5282 22.2275C18.713 22.0174 18.8496 21.7695 18.9284 21.501C19.0072 21.2325 19.0262 20.9501 18.9842 20.6735C18.6112 18.1865 17.0642 15.8445 14.3842 13.7115C14.2667 13.6178 14.1718 13.4989 14.1066 13.3635C14.0414 13.2281 14.0075 13.0798 14.0075 12.9295C14.0075 12.7792 14.0414 12.6309 14.1066 12.4955C14.1718 12.3601 14.2667 12.2412 14.3842 12.1475C17.0652 10.0145 18.6122 7.67249 18.9842 5.18449C19.0261 4.90704 19.0065 4.62378 18.9268 4.35474C18.8472 4.08569 18.7094 3.83743 18.5232 3.62749C18.3345 3.40829 18.1008 3.23231 17.838 3.11152C17.5752 2.99073 17.2895 2.92796 17.0002 2.92749ZM15.6812 20.9275H8.31823C8.15461 20.9274 7.9935 20.8872 7.84905 20.8104C7.70459 20.7335 7.58119 20.6224 7.48968 20.4868C7.39817 20.3511 7.34134 20.1951 7.32417 20.0324C7.30701 19.8697 7.33003 19.7052 7.39123 19.5535C8.1743 17.8626 9.36743 16.3941 10.8622 15.2815L11.3802 14.8695C11.5572 14.7287 11.7766 14.6521 12.0027 14.6521C12.2288 14.6521 12.4483 14.7287 12.6252 14.8695L13.1342 15.2755C14.6269 16.3925 15.82 17.8615 16.6072 19.5515C16.6688 19.7033 16.6922 19.8678 16.6753 20.0307C16.6584 20.1937 16.6017 20.3499 16.5102 20.4858C16.4188 20.6217 16.2954 20.733 16.1508 20.81C16.0063 20.8871 15.845 20.9274 15.6812 20.9275ZM10.0342 18.9275H13.9622C13.3917 18.1838 12.7328 17.5122 12.0002 16.9275C11.2644 17.5099 10.604 18.1818 10.0342 18.9275Z" fill="#374957"/>
</g>
<defs>
<clipPath id="clip0_507_2094">
<rect width="24" height="24" fill="white" transform="translate(0 0.92749)"/>
</clipPath>
</defs>
</svg>
