<svg width="24" height="25" viewBox="0 0 24 25" fill="none" xmlns="http://www.w3.org/2000/svg">
<g clip-path="url(#clip0_507_2286)">
<path d="M17.0001 0.92749H7.00012C5.67453 0.929078 4.40368 1.45637 3.46634 2.39371C2.529 3.33105 2.00171 4.6019 2.00012 5.92749V19.9275C2.00171 21.2531 2.529 22.5239 3.46634 23.4613C4.40368 24.3986 5.67453 24.9259 7.00012 24.9275H17.0001C18.3257 24.9259 19.5966 24.3986 20.5339 23.4613C21.4712 22.5239 21.9985 21.2531 22.0001 19.9275V5.92749C21.9985 4.6019 21.4712 3.33105 20.5339 2.39371C19.5966 1.45637 18.3257 0.929078 17.0001 0.92749V0.92749ZM7.00012 2.92749H17.0001C17.7958 2.92749 18.5588 3.24356 19.1214 3.80617C19.6841 4.36878 20.0001 5.13184 20.0001 5.92749V17.9275H4.00012V5.92749C4.00012 5.13184 4.31619 4.36878 4.8788 3.80617C5.44141 3.24356 6.20447 2.92749 7.00012 2.92749ZM17.0001 22.9275H7.00012C6.20447 22.9275 5.44141 22.6114 4.8788 22.0488C4.31619 21.4862 4.00012 20.7231 4.00012 19.9275H11.0001V20.9275C11.0001 21.1927 11.1055 21.4471 11.293 21.6346C11.4806 21.8221 11.7349 21.9275 12.0001 21.9275C12.2653 21.9275 12.5197 21.8221 12.7072 21.6346C12.8948 21.4471 13.0001 21.1927 13.0001 20.9275V19.9275H20.0001C20.0001 20.7231 19.6841 21.4862 19.1214 22.0488C18.5588 22.6114 17.7958 22.9275 17.0001 22.9275Z" fill="#374957"/>
</g>
<defs>
<clipPath id="clip0_507_2286">
<rect width="24" height="24" fill="white" transform="translate(0 0.92749)"/>
</clipPath>
</defs>
</svg>
