<svg width="24" height="25" viewBox="0 0 24 25" fill="none" xmlns="http://www.w3.org/2000/svg">
<g clip-path="url(#clip0_507_2084)">
<path d="M23 7.92716H18.191L18.991 2.06216C19.0087 1.93202 19.0007 1.79966 18.9672 1.67264C18.9338 1.54562 18.8757 1.42643 18.7962 1.32187C18.7167 1.21731 18.6174 1.12943 18.504 1.06325C18.3905 0.997071 18.2651 0.953883 18.135 0.936155C18.0049 0.918427 17.8725 0.926505 17.7455 0.959928C17.6185 0.993352 17.4993 1.05147 17.3947 1.13095C17.2902 1.21044 17.2023 1.30974 17.1361 1.42319C17.0699 1.53664 17.0267 1.66202 17.009 1.79216L16.173 7.92716H9.191L9.991 2.06216C10.0087 1.93202 10.0007 1.79966 9.96723 1.67264C9.9338 1.54562 9.87569 1.42643 9.7962 1.32187C9.71672 1.21731 9.61741 1.12943 9.50396 1.06325C9.39051 0.997071 9.26514 0.953883 9.135 0.936155C9.00486 0.918427 8.8725 0.926505 8.74548 0.959928C8.61847 0.993352 8.49928 1.05147 8.39472 1.13095C8.29016 1.21044 8.20228 1.30974 8.1361 1.42319C8.06992 1.53664 8.02673 1.66202 8.009 1.79216L7.173 7.92716H2C1.73478 7.92716 1.48043 8.03251 1.29289 8.22005C1.10536 8.40758 1 8.66194 1 8.92716C1 9.19237 1.10536 9.44673 1.29289 9.63426C1.48043 9.8218 1.73478 9.92716 2 9.92716H6.9L6.082 15.9272H1C0.734784 15.9272 0.48043 16.0325 0.292893 16.22C0.105357 16.4076 0 16.6619 0 16.9272C0 17.1924 0.105357 17.4467 0.292893 17.6343C0.48043 17.8218 0.734784 17.9272 1 17.9272H5.809L5.009 23.7922C4.9732 24.055 5.04327 24.3213 5.2038 24.5324C5.36433 24.7436 5.60217 24.8823 5.865 24.9182C6.12783 24.954 6.39412 24.8839 6.60528 24.7234C6.81645 24.5628 6.9552 24.325 6.991 24.0622L7.827 17.9272H14.809L14.009 23.7922C13.9732 24.055 14.0433 24.3213 14.2038 24.5324C14.3643 24.7436 14.6022 24.8823 14.865 24.9182C15.1278 24.954 15.3941 24.8839 15.6053 24.7234C15.8165 24.5628 15.9552 24.325 15.991 24.0622L16.827 17.9272H22C22.2652 17.9272 22.5196 17.8218 22.7071 17.6343C22.8946 17.4467 23 17.1924 23 16.9272C23 16.6619 22.8946 16.4076 22.7071 16.22C22.5196 16.0325 22.2652 15.9272 22 15.9272H17.1L17.918 9.92716H23C23.2652 9.92716 23.5196 9.8218 23.7071 9.63426C23.8946 9.44673 24 9.19237 24 8.92716C24 8.66194 23.8946 8.40758 23.7071 8.22005C23.5196 8.03251 23.2652 7.92716 23 7.92716ZM15.082 15.9272H8.1L8.918 9.92716H15.9L15.082 15.9272Z" fill="#374957"/>
</g>
<defs>
<clipPath id="clip0_507_2084">
<rect width="24" height="24" fill="white" transform="translate(0 0.92749)"/>
</clipPath>
</defs>
</svg>
