<svg width="24" height="25" viewBox="0 0 24 25" fill="none" xmlns="http://www.w3.org/2000/svg">
<g clip-path="url(#clip0_507_1927)">
<path d="M23 22.9276H22V14.9276C21.9984 13.602 21.4711 12.3311 20.5338 11.3938C19.5964 10.4565 18.3256 9.92917 17 9.92758H13V6.96658C13.4455 6.77216 13.8246 6.4521 14.091 6.04556C14.3574 5.63902 14.4996 5.16363 14.5 4.67758C14.2299 3.39936 13.6213 2.21716 12.738 1.25458C12.6443 1.15211 12.5303 1.07028 12.4032 1.01429C12.2762 0.958298 12.1388 0.929382 12 0.929382C11.8612 0.929382 11.7238 0.958298 11.5968 1.01429C11.4697 1.07028 11.3557 1.15211 11.262 1.25458C10.3787 2.21716 9.77014 3.39936 9.5 4.67758C9.50045 5.16363 9.64257 5.63902 9.90898 6.04556C10.1754 6.4521 10.5545 6.77216 11 6.96658V9.92758H7C5.67441 9.92917 4.40356 10.4565 3.46622 11.3938C2.52888 12.3311 2.00159 13.602 2 14.9276V22.9276H1C0.734784 22.9276 0.48043 23.0329 0.292893 23.2205C0.105357 23.408 0 23.6624 0 23.9276C0 24.1928 0.105357 24.4472 0.292893 24.6347C0.48043 24.8222 0.734784 24.9276 1 24.9276H23C23.2652 24.9276 23.5196 24.8222 23.7071 24.6347C23.8946 24.4472 24 24.1928 24 23.9276C24 23.6624 23.8946 23.408 23.7071 23.2205C23.5196 23.0329 23.2652 22.9276 23 22.9276ZM7 11.9276H17C17.7956 11.9276 18.5587 12.2437 19.1213 12.8063C19.6839 13.3689 20 14.1319 20 14.9276V16.9076C19.064 16.8076 18.5 16.2076 18.5 15.9276C18.5 15.6624 18.3946 15.408 18.2071 15.2205C18.0196 15.0329 17.7652 14.9276 17.5 14.9276C17.2348 14.9276 16.9804 15.0329 16.7929 15.2205C16.6054 15.408 16.5 15.6624 16.5 15.9276C16.5 16.2706 15.818 16.9276 14.75 16.9276C13.661 16.9276 13 16.2336 13 15.9276C13 15.6624 12.8946 15.408 12.7071 15.2205C12.5196 15.0329 12.2652 14.9276 12 14.9276C11.7348 14.9276 11.4804 15.0329 11.2929 15.2205C11.1054 15.408 11 15.6624 11 15.9276C11 16.2706 10.318 16.9276 9.25 16.9276C8.161 16.9276 7.5 16.2336 7.5 15.9276C7.5 15.6624 7.39464 15.408 7.20711 15.2205C7.01957 15.0329 6.76522 14.9276 6.5 14.9276C6.23478 14.9276 5.98043 15.0329 5.79289 15.2205C5.60536 15.408 5.5 15.6624 5.5 15.9276C5.5 16.2426 4.921 16.8156 4 16.9086V14.9276C4 14.1319 4.31607 13.3689 4.87868 12.8063C5.44129 12.2437 6.20435 11.9276 7 11.9276ZM4 18.9066C4.91869 18.8658 5.79793 18.5215 6.5 17.9276C7.27136 18.5706 8.24308 18.924 9.2473 18.9267C10.2515 18.9294 11.2251 18.5814 12 17.9426C12.7749 18.5814 13.7485 18.9294 14.7527 18.9267C15.7569 18.924 16.7286 18.5706 17.5 17.9276C18.2022 18.5212 19.0814 18.8651 20 18.9056V22.9276H4V18.9066Z" fill="#374957"/>
</g>
<defs>
<clipPath id="clip0_507_1927">
<rect width="24" height="24" fill="white" transform="translate(0 0.92749)"/>
</clipPath>
</defs>
</svg>
