<svg width="24" height="25" viewBox="0 0 24 25" fill="none" xmlns="http://www.w3.org/2000/svg">
<path d="M9.00014 18.8075V7.63753C8.99898 7.43891 9.05701 7.24444 9.16681 7.07892C9.27661 6.9134 9.43321 6.78433 9.61666 6.70816C9.8001 6.63199 10.0021 6.61218 10.1968 6.65125C10.3916 6.69032 10.5703 6.7865 10.7101 6.92753L16.2902 12.5175C16.4764 12.7049 16.5809 12.9583 16.5809 13.2225C16.5809 13.4867 16.4764 13.7402 16.2902 13.9275L10.7101 19.5175C10.5703 19.6586 10.3916 19.7547 10.1968 19.7938C10.0021 19.8329 9.8001 19.8131 9.61666 19.7369C9.43321 19.6607 9.27661 19.5317 9.16681 19.3661C9.05701 19.2006 8.99898 19.0062 9.00014 18.8075Z" fill="#374957"/>
</svg>
