<svg width="24" height="25" viewBox="0 0 24 25" fill="none" xmlns="http://www.w3.org/2000/svg">
<g clip-path="url(#clip0_507_2347)">
<path d="M22.9999 21.9269H21.7209L20.3999 17.9779C20.201 17.3814 19.8197 16.8625 19.31 16.4945C18.8002 16.1265 18.1877 15.9279 17.5589 15.9269H13.9999C13.4695 15.9269 12.9608 15.7162 12.5857 15.3411C12.2106 14.966 11.9999 14.4573 11.9999 13.9269H17.9999C18.2651 13.9269 18.5195 13.8215 18.707 13.634C18.8945 13.4465 18.9999 13.1921 18.9999 12.9269C18.9999 12.6617 18.8945 12.4073 18.707 12.2198C18.5195 12.0322 18.2651 11.9269 17.9999 11.9269H11.9999V8.92688C11.9939 8.88166 11.9849 8.8369 11.9729 8.79288C12.9196 8.55547 13.7468 7.98016 14.2987 7.17526C14.8507 6.37037 15.0894 5.39145 14.9698 4.42283C14.8502 3.45421 14.3805 2.56274 13.6494 1.9163C12.9182 1.26985 11.9759 0.913025 10.9999 0.913025C10.0239 0.913025 9.08163 1.26985 8.35045 1.9163C7.61927 2.56274 7.14966 3.45421 7.03005 4.42283C6.91045 5.39145 7.1491 6.37037 7.70107 7.17526C8.25305 7.98016 9.08025 8.55547 10.0269 8.79288C10.0149 8.8369 10.0059 8.88166 9.9999 8.92688V13.9269C10.002 14.9709 10.4122 15.9728 11.143 16.7185C11.8737 17.4642 12.8671 17.8947 13.9109 17.9179C13.7281 19.0108 13.2463 20.0317 12.5187 20.8675C11.7912 21.7034 10.8464 22.3214 9.78916 22.6531C8.73188 22.9848 7.6034 23.0172 6.52881 22.7468C5.45423 22.4764 4.47552 21.9136 3.70118 21.121C2.92685 20.3284 2.38714 19.3368 2.14189 18.2562C1.89664 17.1756 1.95543 16.0481 2.31173 14.9989C2.66804 13.9496 3.30795 13.0196 4.16052 12.3118C5.01309 11.604 6.04502 11.1461 7.1419 10.9889C7.4046 10.9512 7.64158 10.8107 7.8007 10.5984C7.95983 10.386 8.02806 10.1191 7.9904 9.85638C7.95274 9.59368 7.81227 9.35671 7.59988 9.19758C7.3875 9.03846 7.1206 8.97022 6.8579 9.00788C5.38187 9.21957 3.99438 9.83959 2.852 10.7979C1.70962 11.7563 0.857828 13.0149 0.392739 14.4316C-0.0723496 15.8484 -0.132221 17.3669 0.219881 18.8159C0.571984 20.2649 1.32204 21.5866 2.38542 22.6319C3.4488 23.6772 4.78317 24.4046 6.23796 24.7318C7.69274 25.0591 9.21003 24.9732 10.6186 24.4839C12.0272 23.9947 13.271 23.1215 14.2097 21.9628C15.1483 20.8042 15.7445 19.4063 15.9309 17.9269H17.5589C17.7689 17.9268 17.9735 17.9929 18.1439 18.1156C18.3142 18.2384 18.4416 18.4117 18.5079 18.6109L20.0519 23.2429C20.1182 23.4419 20.2454 23.6151 20.4155 23.7378C20.5857 23.8606 20.7901 23.9267 20.9999 23.9269H22.9999C23.2651 23.9269 23.5195 23.8215 23.707 23.634C23.8946 23.4465 23.9999 23.1921 23.9999 22.9269C23.9999 22.6617 23.8946 22.4073 23.707 22.2198C23.5195 22.0322 23.2651 21.9269 22.9999 21.9269ZM8.9999 4.92688C8.9999 4.53132 9.1172 4.14464 9.33696 3.81574C9.55673 3.48684 9.86909 3.2305 10.2345 3.07912C10.6 2.92775 11.0021 2.88814 11.3901 2.96531C11.778 3.04248 12.1344 3.23296 12.4141 3.51267C12.6938 3.79237 12.8843 4.14874 12.9615 4.5367C13.0386 4.92466 12.999 5.32679 12.8477 5.69225C12.6963 6.0577 12.4399 6.37006 12.111 6.58982C11.7821 6.80958 11.3955 6.92688 10.9999 6.92688C10.4695 6.92688 9.96076 6.71617 9.58569 6.34109C9.21062 5.96602 8.9999 5.45731 8.9999 4.92688Z" fill="#374957"/>
</g>
<defs>
<clipPath id="clip0_507_2347">
<rect width="24" height="24" fill="white" transform="translate(0 0.92749)"/>
</clipPath>
</defs>
</svg>
