<svg width="24" height="25" viewBox="0 0 24 25" fill="none" xmlns="http://www.w3.org/2000/svg">
<g clip-path="url(#clip0_507_2164)">
<path d="M13.987 7.03549C13.948 7.04649 6.75901 9.89949 6.75901 9.89949C6.22449 10.108 5.76822 10.4778 5.45367 10.9576C5.13911 11.4375 4.9819 12.0034 5.0039 12.5767C5.0259 13.15 5.22602 13.7022 5.57642 14.1565C5.92682 14.6108 6.41008 14.9446 6.95901 15.1115L9.30501 15.6985L10.078 18.2225C10.2837 18.727 10.6351 19.1587 11.0874 19.4624C11.5396 19.7661 12.0722 19.928 12.617 19.9275H12.661C13.2141 19.9204 13.752 19.7459 14.204 19.4271C14.6559 19.1083 15.0007 18.6601 15.193 18.1415C15.193 18.1415 17.886 10.9765 17.893 10.9415C18.0348 10.4009 18.0326 9.8325 17.8864 9.29301C17.7403 8.75352 17.4554 8.26171 17.0602 7.86654C16.6649 7.47136 16.173 7.18662 15.6335 7.04064C15.094 6.89466 14.5256 6.89254 13.985 7.03449L13.987 7.03549ZM15.97 10.3945L13.322 17.4375C13.271 17.5804 13.1772 17.7041 13.0534 17.7918C12.9296 17.8795 12.7817 17.9269 12.63 17.9275C12.53 17.9155 12.105 17.9015 11.955 17.5495L11.047 14.5735C10.9968 14.4084 10.9048 14.2591 10.7799 14.1402C10.6549 14.0212 10.5013 13.9365 10.334 13.8945L7.51601 13.1945C7.36769 13.144 7.23853 13.0491 7.14613 12.9225C7.05372 12.796 7.00256 12.6441 6.99961 12.4875C6.99666 12.3308 7.04206 12.1771 7.12964 12.0472C7.21721 11.9173 7.34269 11.8175 7.48901 11.7615L14.549 8.96149C14.7434 8.91506 14.9466 8.92015 15.1385 8.97627C15.3303 9.03239 15.5042 9.1376 15.643 9.28149C15.7879 9.4237 15.8941 9.60063 15.9513 9.79545C16.0085 9.99026 16.015 10.1965 15.97 10.3945ZM12 0.92749C9.62663 0.92749 7.30655 1.63128 5.33316 2.94986C3.35977 4.26843 1.8217 6.14258 0.913451 8.33529C0.00519943 10.528 -0.232441 12.9408 0.230582 15.2686C0.693605 17.5963 1.83649 19.7345 3.51472 21.4128C5.19295 23.091 7.33115 24.2339 9.65892 24.6969C11.9867 25.1599 14.3995 24.9223 16.5922 24.014C18.7849 23.1058 20.6591 21.5677 21.9776 19.5943C23.2962 17.6209 24 15.3009 24 12.9275C23.9966 9.74595 22.7312 6.6957 20.4815 4.44601C18.2318 2.19632 15.1815 0.930931 12 0.92749V0.92749ZM12 22.9275C10.0222 22.9275 8.08879 22.341 6.4443 21.2422C4.79981 20.1434 3.51809 18.5816 2.76121 16.7543C2.00433 14.9271 1.8063 12.9164 2.19215 10.9766C2.578 9.03678 3.53041 7.25495 4.92894 5.85642C6.32746 4.4579 8.10929 3.50549 10.0491 3.11964C11.9889 2.73379 13.9996 2.93182 15.8268 3.6887C17.6541 4.44557 19.2159 5.7273 20.3147 7.37179C21.4135 9.01628 22 10.9497 22 12.9275C21.9971 15.5788 20.9426 18.1206 19.0679 19.9953C17.1931 21.8701 14.6513 22.9246 12 22.9275Z" fill="#374957"/>
</g>
<defs>
<clipPath id="clip0_507_2164">
<rect width="24" height="24" fill="white" transform="translate(0 0.92749)"/>
</clipPath>
</defs>
</svg>
