<svg width="24" height="25" viewBox="0 0 24 25" fill="none" xmlns="http://www.w3.org/2000/svg">
<g clip-path="url(#clip0_507_2272)">
<path d="M19 0.92749H5C3.67392 0.92749 2.40215 1.45427 1.46447 2.39196C0.526784 3.32964 0 4.60141 0 5.92749L0 19.9275C0 20.5841 0.129329 21.2343 0.380602 21.8409C0.631876 22.4475 1.00017 22.9987 1.46447 23.463C2.40215 24.4007 3.67392 24.9275 5 24.9275H19C19.6566 24.9275 20.3068 24.7982 20.9134 24.5469C21.52 24.2956 22.0712 23.9273 22.5355 23.463C22.9998 22.9987 23.3681 22.4475 23.6194 21.8409C23.8707 21.2343 24 20.5841 24 19.9275V5.92749C24 5.27088 23.8707 4.6207 23.6194 4.01407C23.3681 3.40745 22.9998 2.85625 22.5355 2.39196C22.0712 1.92766 21.52 1.55937 20.9134 1.30809C20.3068 1.05682 19.6566 0.92749 19 0.92749V0.92749ZM22 19.9275C22 20.7231 21.6839 21.4862 21.1213 22.0488C20.5587 22.6114 19.7956 22.9275 19 22.9275H5C4.20435 22.9275 3.44129 22.6114 2.87868 22.0488C2.31607 21.4862 2 20.7231 2 19.9275V5.92749C2 5.13184 2.31607 4.36878 2.87868 3.80617C3.44129 3.24356 4.20435 2.92749 5 2.92749H19C19.7956 2.92749 20.5587 3.24356 21.1213 3.80617C21.6839 4.36878 22 5.13184 22 5.92749V19.9275Z" fill="#374957"/>
</g>
<defs>
<clipPath id="clip0_507_2272">
<rect width="24" height="24" fill="white" transform="translate(0 0.92749)"/>
</clipPath>
</defs>
</svg>
