<svg width="24" height="25" viewBox="0 0 24 25" fill="none" xmlns="http://www.w3.org/2000/svg">
<g clip-path="url(#clip0_507_2287)">
<path d="M12 0.92749C9.62663 0.92749 7.30655 1.63128 5.33316 2.94986C3.35977 4.26843 1.8217 6.14258 0.913451 8.33529C0.00519943 10.528 -0.232441 12.9408 0.230582 15.2686C0.693605 17.5963 1.83649 19.7345 3.51472 21.4128C5.19295 23.091 7.33115 24.2339 9.65892 24.6969C11.9867 25.1599 14.3995 24.9223 16.5922 24.014C18.7849 23.1058 20.6591 21.5677 21.9776 19.5943C23.2962 17.6209 24 15.3009 24 12.9275C23.9966 9.74595 22.7312 6.6957 20.4815 4.44601C18.2318 2.19632 15.1815 0.930931 12 0.92749V0.92749ZM13 22.8765V20.9275C13 20.6623 12.8946 20.4079 12.7071 20.2204C12.5196 20.0328 12.2652 19.9275 12 19.9275C11.7348 19.9275 11.4804 20.0328 11.2929 20.2204C11.1054 20.4079 11 20.6623 11 20.9275V22.8765C8.70617 22.6429 6.56319 21.625 4.93282 19.9947C3.30245 18.3643 2.28456 16.2213 2.05101 13.9275H4.00001C4.26522 13.9275 4.51958 13.8221 4.70711 13.6346C4.89465 13.4471 5.00001 13.1927 5.00001 12.9275C5.00001 12.6623 4.89465 12.4079 4.70711 12.2204C4.51958 12.0328 4.26522 11.9275 4.00001 11.9275H2.05101C2.28456 9.63366 3.30245 7.49067 4.93282 5.8603C6.56319 4.22993 8.70617 3.21205 11 2.97849V4.92749C11 5.19271 11.1054 5.44706 11.2929 5.6346C11.4804 5.82213 11.7348 5.92749 12 5.92749C12.2652 5.92749 12.5196 5.82213 12.7071 5.6346C12.8946 5.44706 13 5.19271 13 4.92749V2.97849C15.2938 3.21205 17.4368 4.22993 19.0672 5.8603C20.6976 7.49067 21.7154 9.63366 21.949 11.9275H20C19.7348 11.9275 19.4804 12.0328 19.2929 12.2204C19.1054 12.4079 19 12.6623 19 12.9275C19 13.1927 19.1054 13.4471 19.2929 13.6346C19.4804 13.8221 19.7348 13.9275 20 13.9275H21.949C21.7154 16.2213 20.6976 18.3643 19.0672 19.9947C17.4368 21.625 15.2938 22.6429 13 22.8765ZM16 12.9275C16 13.1927 15.8946 13.4471 15.7071 13.6346C15.5196 13.8221 15.2652 13.9275 15 13.9275H13V15.9275C13 16.1927 12.8946 16.4471 12.7071 16.6346C12.5196 16.8221 12.2652 16.9275 12 16.9275C11.7348 16.9275 11.4804 16.8221 11.2929 16.6346C11.1054 16.4471 11 16.1927 11 15.9275V13.9275H9.00001C8.73479 13.9275 8.48044 13.8221 8.2929 13.6346C8.10536 13.4471 8.00001 13.1927 8.00001 12.9275C8.00001 12.6623 8.10536 12.4079 8.2929 12.2204C8.48044 12.0328 8.73479 11.9275 9.00001 11.9275H11V9.92749C11 9.66227 11.1054 9.40792 11.2929 9.22038C11.4804 9.03285 11.7348 8.92749 12 8.92749C12.2652 8.92749 12.5196 9.03285 12.7071 9.22038C12.8946 9.40792 13 9.66227 13 9.92749V11.9275H15C15.2652 11.9275 15.5196 12.0328 15.7071 12.2204C15.8946 12.4079 16 12.6623 16 12.9275Z" fill="#374957"/>
</g>
<defs>
<clipPath id="clip0_507_2287">
<rect width="24" height="24" fill="white" transform="translate(0 0.92749)"/>
</clipPath>
</defs>
</svg>
