<svg width="24" height="25" viewBox="0 0 24 25" fill="none" xmlns="http://www.w3.org/2000/svg">
<g clip-path="url(#clip0_507_2289)">
<path d="M20.4849 4.44336C18.807 2.76709 16.6699 1.62589 14.3436 1.164C12.0173 0.702121 9.60626 0.940297 7.4153 1.84842C5.22434 2.75655 3.35179 4.29386 2.03437 6.26602C0.716947 8.23818 0.0137939 10.5567 0.0137939 12.9284C0.0137939 15.3001 0.716947 17.6185 2.03437 19.5907C3.35179 21.5629 5.22434 23.1002 7.4153 24.0083C9.60626 24.9164 12.0173 25.1546 14.3436 24.6927C16.6699 24.2308 18.807 23.0896 20.4849 21.4134C22.732 19.1613 23.9939 16.1098 23.9939 12.9284C23.9939 9.74696 22.732 6.69546 20.4849 4.44336ZM21.9339 11.8604C20.7347 12.0058 19.5181 11.8766 18.3763 11.4825C17.2344 11.0883 16.1972 10.4396 15.3431 9.5854C14.489 8.73119 13.8404 7.69388 13.4464 6.55199C13.0524 5.41009 12.9233 4.19352 13.0689 2.99436C15.3386 3.23299 17.4575 4.24379 19.0712 5.85767C20.6849 7.47154 21.6955 9.59061 21.9339 11.8604ZM2.06587 13.9964C3.26504 13.8509 4.4816 13.9801 5.62345 14.3743C6.76531 14.7684 7.80254 15.4171 8.65665 16.2713C9.51076 17.1255 10.1594 18.1628 10.5534 19.3047C10.9474 20.4466 11.0765 21.6632 10.9309 22.8624C8.66114 22.6237 6.54219 21.6129 4.9285 19.9991C3.31481 18.3852 2.30424 16.2661 2.06587 13.9964ZM19.0709 19.9964C17.428 21.6429 15.26 22.6616 12.9439 22.8754C13.0874 21.4086 12.904 19.9283 12.4068 18.541C11.9097 17.1536 11.1112 15.8937 10.0689 14.8519C9.0265 13.8101 7.76616 13.0124 6.37854 12.516C4.99091 12.0196 3.51051 11.8371 2.04387 11.9814C2.26138 9.66565 3.28096 7.49866 4.92645 5.85482C6.57193 4.21098 8.73994 3.19356 11.0559 2.97836C10.9214 4.36492 11.0785 5.76427 11.5171 7.08648C11.9557 8.40869 12.6661 9.6245 13.6026 10.6558C14.5392 11.687 15.6811 12.511 16.9551 13.0746C18.229 13.6382 19.6068 13.929 20.9999 13.9284C21.3169 13.9284 21.6349 13.9124 21.9529 13.8824C21.7357 16.1953 20.7161 18.3593 19.0709 19.9994V19.9964Z" fill="#374957"/>
</g>
<defs>
<clipPath id="clip0_507_2289">
<rect width="24" height="24" fill="white" transform="translate(0 0.92749)"/>
</clipPath>
</defs>
</svg>
