<svg width="24" height="25" viewBox="0 0 24 25" fill="none" xmlns="http://www.w3.org/2000/svg">
<g clip-path="url(#clip0_507_2311)">
<path d="M24 12.9275C24 16.1101 22.7357 19.1623 20.4853 21.4128C18.2348 23.6632 15.1826 24.9275 12 24.9275C8.8174 24.9275 5.76515 23.6632 3.51472 21.4128C1.26428 19.1623 0 16.1101 0 12.9275C0 12.6623 0.105357 12.4079 0.292893 12.2204C0.48043 12.0328 0.734784 11.9275 1 11.9275C1.26522 11.9275 1.51957 12.0328 1.70711 12.2204C1.89464 12.4079 2 12.6623 2 12.9275C2 14.9053 2.58649 16.8387 3.6853 18.4832C4.78412 20.1277 6.3459 21.4094 8.17317 22.1663C10.0004 22.9232 12.0111 23.1212 13.9509 22.7353C15.8907 22.3495 17.6725 21.3971 19.0711 19.9986C20.4696 18.6 21.422 16.8182 21.8079 14.8784C22.1937 12.9386 21.9957 10.9279 21.2388 9.10066C20.4819 7.27339 19.2002 5.71161 17.5557 4.61279C15.9112 3.51398 13.9778 2.92749 12 2.92749C11.7348 2.92749 11.4804 2.82213 11.2929 2.6346C11.1054 2.44706 11 2.19271 11 1.92749C11 1.66227 11.1054 1.40792 11.2929 1.22038C11.4804 1.03285 11.7348 0.92749 12 0.92749C15.1815 0.930931 18.2318 2.19632 20.4815 4.44601C22.7312 6.6957 23.9966 9.74595 24 12.9275ZM10.277 11.9275H8C7.73478 11.9275 7.48043 12.0328 7.29289 12.2204C7.10536 12.4079 7 12.6623 7 12.9275C7 13.1927 7.10536 13.4471 7.29289 13.6346C7.48043 13.8221 7.73478 13.9275 8 13.9275H10.277C10.4297 14.1927 10.6414 14.4192 10.8958 14.5895C11.1501 14.7597 11.4402 14.8692 11.7436 14.9093C12.047 14.9494 12.3556 14.9192 12.6454 14.8209C12.9353 14.7226 13.1986 14.5589 13.415 14.3425C13.6314 14.1261 13.7951 13.8627 13.8934 13.5729C13.9917 13.2831 14.0219 12.9745 13.9818 12.6711C13.9417 12.3677 13.8323 12.0776 13.662 11.8232C13.4917 11.5689 13.2652 11.3572 13 11.2045V7.92749C13 7.66227 12.8946 7.40792 12.7071 7.22038C12.5196 7.03285 12.2652 6.92749 12 6.92749C11.7348 6.92749 11.4804 7.03285 11.2929 7.22038C11.1054 7.40792 11 7.66227 11 7.92749V11.2045C10.7004 11.3788 10.4513 11.6279 10.277 11.9275ZM1.827 9.71149C2.02478 9.71149 2.21812 9.65284 2.38257 9.54296C2.54702 9.43308 2.67519 9.2769 2.75088 9.09417C2.82657 8.91145 2.84637 8.71038 2.80779 8.5164C2.7692 8.32242 2.67396 8.14424 2.53411 8.00438C2.39425 7.86453 2.21607 7.76929 2.02209 7.7307C1.82811 7.69212 1.62704 7.71192 1.44432 7.78761C1.26159 7.8633 1.10541 7.99147 0.99553 8.15592C0.885649 8.32037 0.827 8.51371 0.827 8.71149C0.827 8.97671 0.932357 9.23106 1.11989 9.4186C1.30743 9.60613 1.56178 9.71149 1.827 9.71149ZM4.221 6.13449C4.41878 6.13449 4.61212 6.07584 4.77657 5.96596C4.94102 5.85608 5.06919 5.6999 5.14488 5.51717C5.22057 5.33445 5.24037 5.13338 5.20179 4.9394C5.1632 4.74542 5.06796 4.56724 4.92811 4.42738C4.78825 4.28753 4.61007 4.19229 4.41609 4.1537C4.22211 4.11512 4.02104 4.13492 3.83832 4.21061C3.65559 4.2863 3.49941 4.41447 3.38953 4.57892C3.27965 4.74337 3.221 4.93671 3.221 5.13449C3.221 5.39971 3.32636 5.65406 3.51389 5.8416C3.70143 6.02913 3.95578 6.13449 4.221 6.13449ZM7.779 3.76849C7.97678 3.76849 8.17012 3.70984 8.33457 3.59996C8.49902 3.49008 8.62719 3.3339 8.70288 3.15117C8.77857 2.96845 8.79837 2.76738 8.75979 2.5734C8.7212 2.37942 8.62596 2.20124 8.48611 2.06138C8.34625 1.92153 8.16807 1.82629 7.97409 1.7877C7.78011 1.74912 7.57904 1.76892 7.39632 1.84461C7.21359 1.9203 7.05741 2.04847 6.94753 2.21292C6.83765 2.37737 6.779 2.57071 6.779 2.76849C6.779 3.03371 6.88436 3.28806 7.07189 3.4756C7.25943 3.66313 7.51378 3.76849 7.779 3.76849Z" fill="#374957"/>
</g>
<defs>
<clipPath id="clip0_507_2311">
<rect width="24" height="24" fill="white" transform="translate(0 0.92749)"/>
</clipPath>
</defs>
</svg>
