<svg width="24" height="25" viewBox="0 0 24 25" fill="none" xmlns="http://www.w3.org/2000/svg">
<g clip-path="url(#clip0_507_1905)">
<path d="M19.4999 9.92752H18.9999V7.92752C18.9999 7.6623 18.8945 7.40795 18.707 7.22041C18.5194 7.03287 18.2651 6.92752 17.9999 6.92752C18.0126 6.2182 17.8316 5.51884 17.4764 4.90476C17.1211 4.29067 16.6051 3.78511 15.9839 3.44252C15.2656 3.04274 14.4436 2.86851 13.6249 2.94252C13.5233 2.95512 13.4201 2.94121 13.3255 2.90213C13.2309 2.86305 13.148 2.80014 13.0849 2.71952C12.6496 2.14932 12.0846 1.69121 11.4368 1.38321C10.7889 1.07521 10.077 0.926216 9.35999 0.948609C8.64301 0.971002 7.94172 1.16413 7.31437 1.51196C6.68701 1.85979 6.15169 2.35227 5.75288 2.94852C4.73842 3.0096 3.78543 3.4552 3.08811 4.19452C2.39078 4.93383 2.0016 5.91123 1.99988 6.92752C1.73466 6.92752 1.48031 7.03287 1.29277 7.22041C1.10523 7.40795 0.999878 7.6623 0.999878 7.92752V19.9275C1.00147 21.2531 1.52876 22.524 2.4661 23.4613C3.40344 24.3986 4.67428 24.9259 5.99988 24.9275H13.9999C15.3255 24.9259 16.5963 24.3986 17.5337 23.4613C18.471 22.524 18.9983 21.2531 18.9999 19.9275H19.4999C20.4281 19.9275 21.3184 19.5588 21.9748 18.9024C22.6311 18.246 22.9999 17.3558 22.9999 16.4275V13.4275C22.9999 12.4993 22.6311 11.609 21.9748 10.9526C21.3184 10.2963 20.4281 9.92752 19.4999 9.92752ZM5.99988 4.92752C6.05739 4.92939 6.11462 4.93642 6.17088 4.94852C6.38638 4.98356 6.60744 4.9471 6.80028 4.84472C6.99313 4.74234 7.14717 4.57966 7.23888 4.38152C7.42171 3.99337 7.70136 3.65882 8.05092 3.41003C8.40047 3.16125 8.80818 3.00662 9.23479 2.96102C9.66141 2.91541 10.0926 2.98037 10.4868 3.14964C10.8811 3.31891 11.2251 3.58679 11.4859 3.92752C11.7539 4.28348 12.1096 4.56384 12.5183 4.74122C12.9271 4.91859 13.3748 4.98692 13.8179 4.93952C14.245 4.90587 14.6725 5.00022 15.0459 5.21052C15.3435 5.38576 15.5888 5.63733 15.7565 5.9392C15.9242 6.24107 16.0083 6.58228 15.9999 6.92752H11.9999C11.2042 6.92752 10.4412 7.24359 9.87856 7.8062C9.31595 8.36881 8.99988 9.13187 8.99988 9.92752V12.9275C8.99988 13.1927 8.89452 13.4471 8.70698 13.6346C8.51945 13.8222 8.26509 13.9275 7.99988 13.9275C7.73466 13.9275 7.48031 13.8222 7.29277 13.6346C7.10524 13.4471 6.99988 13.1927 6.99988 12.9275V9.92752C6.99988 9.13187 6.68381 8.36881 6.1212 7.8062C5.55859 7.24359 4.79553 6.92752 3.99988 6.92752C3.99988 6.39708 4.21059 5.88838 4.58566 5.5133C4.96074 5.13823 5.46944 4.92752 5.99988 4.92752ZM16.9999 19.9275C16.9999 20.7232 16.6838 21.4862 16.1212 22.0488C15.5586 22.6114 14.7955 22.9275 13.9999 22.9275H5.99988C5.20423 22.9275 4.44117 22.6114 3.87856 22.0488C3.31595 21.4862 2.99988 20.7232 2.99988 19.9275V8.92752H3.99988C4.26509 8.92752 4.51945 9.03287 4.70698 9.22041C4.89452 9.40795 4.99988 9.6623 4.99988 9.92752V12.9275C4.99988 13.7232 5.31595 14.4862 5.87856 15.0488C6.44117 15.6114 7.20423 15.9275 7.99988 15.9275C8.79553 15.9275 9.55859 15.6114 10.1212 15.0488C10.6838 14.4862 10.9999 13.7232 10.9999 12.9275V9.92752C10.9999 9.6623 11.1052 9.40795 11.2928 9.22041C11.4803 9.03287 11.7347 8.92752 11.9999 8.92752H16.9999V19.9275ZM20.9999 16.4275C20.9999 16.8253 20.8418 17.2069 20.5605 17.4882C20.2792 17.7695 19.8977 17.9275 19.4999 17.9275H18.9999V11.9275H19.4999C19.8977 11.9275 20.2792 12.0856 20.5605 12.3669C20.8418 12.6482 20.9999 13.0297 20.9999 13.4275V16.4275Z" fill="#374957"/>
</g>
<defs>
<clipPath id="clip0_507_1905">
<rect width="24" height="24" fill="white" transform="translate(0 0.92749)"/>
</clipPath>
</defs>
</svg>
