<svg width="24" height="25" viewBox="0 0 24 25" fill="none" xmlns="http://www.w3.org/2000/svg">
<g clip-path="url(#clip0_507_1930)">
<path d="M19 2.92749H18V1.92749C18 1.66227 17.8946 1.40792 17.7071 1.22038C17.5196 1.03285 17.2652 0.92749 17 0.92749C16.7348 0.92749 16.4804 1.03285 16.2929 1.22038C16.1054 1.40792 16 1.66227 16 1.92749V2.92749H8V1.92749C8 1.66227 7.89464 1.40792 7.70711 1.22038C7.51957 1.03285 7.26522 0.92749 7 0.92749C6.73478 0.92749 6.48043 1.03285 6.29289 1.22038C6.10536 1.40792 6 1.66227 6 1.92749V2.92749H5C3.67441 2.92908 2.40356 3.45637 1.46622 4.39371C0.528882 5.33105 0.00158786 6.6019 0 7.92749L0 19.9275C0.00158786 21.2531 0.528882 22.5239 1.46622 23.4613C2.40356 24.3986 3.67441 24.9259 5 24.9275H19C20.3256 24.9259 21.5964 24.3986 22.5338 23.4613C23.4711 22.5239 23.9984 21.2531 24 19.9275V7.92749C23.9984 6.6019 23.4711 5.33105 22.5338 4.39371C21.5964 3.45637 20.3256 2.92908 19 2.92749ZM2 7.92749C2 7.13184 2.31607 6.36878 2.87868 5.80617C3.44129 5.24356 4.20435 4.92749 5 4.92749H19C19.7956 4.92749 20.5587 5.24356 21.1213 5.80617C21.6839 6.36878 22 7.13184 22 7.92749V8.92749H2V7.92749ZM19 22.9275H5C4.20435 22.9275 3.44129 22.6114 2.87868 22.0488C2.31607 21.4862 2 20.7231 2 19.9275V10.9275H22V19.9275C22 20.7231 21.6839 21.4862 21.1213 22.0488C20.5587 22.6114 19.7956 22.9275 19 22.9275Z" fill="#374957"/>
<path d="M12 17.4275C12.8284 17.4275 13.5 16.7559 13.5 15.9275C13.5 15.0991 12.8284 14.4275 12 14.4275C11.1716 14.4275 10.5 15.0991 10.5 15.9275C10.5 16.7559 11.1716 17.4275 12 17.4275Z" fill="#374957"/>
<path d="M6.99988 17.4275C7.82831 17.4275 8.49988 16.7559 8.49988 15.9275C8.49988 15.0991 7.82831 14.4275 6.99988 14.4275C6.17145 14.4275 5.49988 15.0991 5.49988 15.9275C5.49988 16.7559 6.17145 17.4275 6.99988 17.4275Z" fill="#374957"/>
<path d="M17.0001 17.4275C17.8285 17.4275 18.5001 16.7559 18.5001 15.9275C18.5001 15.0991 17.8285 14.4275 17.0001 14.4275C16.1717 14.4275 15.5001 15.0991 15.5001 15.9275C15.5001 16.7559 16.1717 17.4275 17.0001 17.4275Z" fill="#374957"/>
</g>
<defs>
<clipPath id="clip0_507_1930">
<rect width="24" height="24" fill="white" transform="translate(0 0.92749)"/>
</clipPath>
</defs>
</svg>
