<svg width="24" height="25" viewBox="0 0 24 25" fill="none" xmlns="http://www.w3.org/2000/svg">
<g clip-path="url(#clip0_507_2175)">
<path d="M8.16407 8.92761C7.58481 8.91854 7.02668 8.70858 6.58507 8.33361C5.66393 7.48883 5.10588 6.32005 5.02807 5.07261C4.78507 2.57961 6.14507 1.10861 7.61407 0.94461C7.96802 0.905366 8.32625 0.937731 8.66744 1.03978C9.00862 1.14182 9.32579 1.31147 9.60007 1.53861C10.0092 1.90744 10.3415 2.35354 10.5776 2.85123C10.8138 3.34892 10.9492 3.88839 10.9761 4.43861C11.2001 6.76261 10.1281 8.92761 8.16407 8.92761ZM7.83607 2.92761C7.25907 2.99161 6.91507 3.81061 7.01907 4.87361C7.04804 5.58774 7.34261 6.26532 7.84507 6.77361C7.94026 6.86712 8.06675 6.92199 8.20007 6.92761C8.55107 6.88861 9.11607 5.98661 8.98307 4.62761C8.64107 2.76161 7.86107 2.92761 7.83607 2.93261V2.92761ZM3.16407 14.9276C2.58481 14.9185 2.02668 14.7086 1.58507 14.3336C0.663933 13.4888 0.105884 12.32 0.0280709 11.0726C-0.214929 8.57961 1.14507 7.10861 2.61407 6.94461C2.968 6.90583 3.32612 6.93841 3.66724 7.04044C4.00836 7.14246 4.32556 7.31186 4.60007 7.53861C5.00925 7.90744 5.34146 8.35354 5.57761 8.85123C5.81376 9.34892 5.94917 9.88839 5.97607 10.4386C6.20007 12.7626 5.07707 14.9276 3.16407 14.9276ZM2.83607 8.92761C2.25907 8.99161 1.91507 9.81061 2.01907 10.8736C2.04804 11.5877 2.34261 12.2653 2.84507 12.7736C2.9412 12.8657 3.06714 12.9204 3.20007 12.9276C3.55107 12.8886 4.11607 11.9866 3.98307 10.6276C3.71807 8.79961 2.86107 8.92761 2.83607 8.93261V8.92761ZM15.8361 8.92761C14.1281 8.93961 12.8021 6.76161 13.0291 4.43561C13.056 3.88539 13.1914 3.34592 13.4275 2.84823C13.6637 2.35054 13.9959 1.90444 14.4051 1.53561C14.6791 1.30983 14.9955 1.14121 15.3358 1.03971C15.676 0.938206 16.0331 0.90587 16.3861 0.94461C17.8551 1.10861 19.2151 2.57961 18.9721 5.07261C18.8945 6.3204 18.3364 7.48959 17.4151 8.33461C16.9733 8.70922 16.4152 8.91882 15.8361 8.92761ZM15.0201 4.62761C14.8871 5.98261 15.4521 6.88461 15.8031 6.92761C15.9339 6.92246 16.0586 6.87108 16.1551 6.78261C16.6575 6.27432 16.9521 5.59674 16.9811 4.88261C17.1911 2.26161 15.2001 2.43261 15.0201 4.62761ZM20.8361 14.9276C18.9741 14.9276 17.8021 12.7616 18.0291 10.4356C18.056 9.88539 18.1914 9.34592 18.4275 8.84823C18.6637 8.35054 18.9959 7.90444 19.4051 7.53561C19.6787 7.30901 19.995 7.13966 20.3353 7.03763C20.6756 6.93559 21.0329 6.90294 21.3861 6.94161C22.8551 7.10561 24.2151 8.57661 23.9721 11.0696C23.8945 12.3174 23.3364 13.4866 22.4151 14.3316C21.9737 14.7073 21.4156 14.918 20.8361 14.9276ZM20.0201 10.6276C19.8871 11.9826 20.4521 12.8846 20.8031 12.9276C20.9335 12.9207 21.0576 12.8696 21.1551 12.7826C21.6575 12.2743 21.9521 11.5967 21.9811 10.8826C22.0811 9.81961 21.7411 9.00061 21.1641 8.93661C21.1391 8.92761 20.1151 8.83861 20.0201 10.6276ZM16.0001 24.9276C15.1453 24.9447 14.3011 24.7356 13.5531 24.3216C13.0743 24.0694 12.5412 23.9376 12.0001 23.9376C11.4589 23.9376 10.9259 24.0694 10.4471 24.3216C7.43407 26.0106 3.92207 24.1546 4.00007 19.9276C4.00007 15.2926 8.50707 10.9276 12.0001 10.9276C15.4931 10.9276 20.0001 15.2916 20.0001 19.9276C20.0001 22.8716 18.3551 24.9276 16.0001 24.9276ZM12.0001 21.9276C12.8547 21.9108 13.6987 22.1195 14.4471 22.5326C16.6841 23.7506 18.0351 22.0996 18.0001 19.9276C18.0001 16.5476 14.4791 12.9276 12.0001 12.9276C9.52107 12.9276 6.00007 16.5476 6.00007 19.9276C5.96807 22.0966 7.30807 23.7506 9.55307 22.5326C10.3014 22.1195 11.1454 21.9108 12.0001 21.9276Z" fill="#374957"/>
</g>
<defs>
<clipPath id="clip0_507_2175">
<rect width="24" height="24" fill="white" transform="translate(0 0.92749)"/>
</clipPath>
</defs>
</svg>
