<svg width="24" height="25" viewBox="0 0 24 25" fill="none" xmlns="http://www.w3.org/2000/svg">
<g clip-path="url(#clip0_507_2335)">
<path d="M17 24.9275C16.7348 24.9275 16.4804 24.8221 16.2929 24.6346C16.1054 24.4471 16 24.1927 16 23.9275C16 22.071 15.2625 20.2905 13.9497 18.9777C12.637 17.665 10.8565 16.9275 9 16.9275C7.14348 16.9275 5.36301 17.665 4.05025 18.9777C2.7375 20.2905 2 22.071 2 23.9275C2 24.1927 1.89464 24.4471 1.70711 24.6346C1.51957 24.8221 1.26522 24.9275 1 24.9275C0.734784 24.9275 0.48043 24.8221 0.292893 24.6346C0.105357 24.4471 0 24.1927 0 23.9275C0 21.5405 0.948212 19.2514 2.63604 17.5635C4.32387 15.8757 6.61305 14.9275 9 14.9275C11.3869 14.9275 13.6761 15.8757 15.364 17.5635C17.0518 19.2514 18 21.5405 18 23.9275C18 24.1927 17.8946 24.4471 17.7071 24.6346C17.5196 24.8221 17.2652 24.9275 17 24.9275ZM23 13.9275H17C16.7348 13.9275 16.4804 13.8221 16.2929 13.6346C16.1054 13.4471 16 13.1927 16 12.9275C16 12.6623 16.1054 12.4079 16.2929 12.2204C16.4804 12.0329 16.7348 11.9275 17 11.9275H23C23.2652 11.9275 23.5196 12.0329 23.7071 12.2204C23.8946 12.4079 24 12.6623 24 12.9275C24 13.1927 23.8946 13.4471 23.7071 13.6346C23.5196 13.8221 23.2652 13.9275 23 13.9275ZM9 12.9275C7.81331 12.9275 6.65327 12.5756 5.66658 11.9163C4.67988 11.257 3.91085 10.32 3.45672 9.22359C3.0026 8.12724 2.88378 6.92084 3.11529 5.75695C3.3468 4.59307 3.91824 3.52397 4.75736 2.68485C5.59647 1.84574 6.66557 1.27429 7.82946 1.04278C8.99334 0.81127 10.1997 0.93009 11.2961 1.38422C12.3925 1.83834 13.3295 2.60738 13.9888 3.59407C14.6481 4.58077 15 5.74081 15 6.92749C14.9984 8.51831 14.3658 10.0435 13.2409 11.1684C12.116 12.2933 10.5908 12.9259 9 12.9275ZM9 2.92749C8.20887 2.92749 7.43552 3.16209 6.77772 3.60161C6.11992 4.04114 5.60723 4.66586 5.30448 5.39676C5.00173 6.12766 4.92252 6.93193 5.07686 7.70786C5.2312 8.48378 5.61216 9.19651 6.17157 9.75592C6.73098 10.3153 7.44371 10.6963 8.21964 10.8506C8.99556 11.005 9.79983 10.9258 10.5307 10.623C11.2616 10.3203 11.8864 9.80757 12.3259 9.14977C12.7654 8.49198 13 7.71862 13 6.92749C13 5.86663 12.5786 4.84921 11.8284 4.09907C11.0783 3.34892 10.0609 2.92749 9 2.92749Z" fill="#374957"/>
</g>
<defs>
<clipPath id="clip0_507_2335">
<rect width="24" height="24" fill="white" transform="translate(0 0.92749)"/>
</clipPath>
</defs>
</svg>
