<svg width="24" height="25" viewBox="0 0 24 25" fill="none" xmlns="http://www.w3.org/2000/svg">
<g clip-path="url(#clip0_507_2250)">
<path d="M22.713 5.00449C22.4317 4.66693 22.0796 4.39544 21.6815 4.20931C21.2835 4.02317 20.8494 3.92695 20.41 3.92749H4.242L4.2 3.57649C4.11405 2.84691 3.76338 2.17422 3.21449 1.68597C2.6656 1.19771 1.95663 0.927832 1.222 0.92749L1 0.92749C0.734784 0.92749 0.48043 1.03285 0.292893 1.22038C0.105357 1.40792 0 1.66227 0 1.92749C0 2.19271 0.105357 2.44706 0.292893 2.6346C0.48043 2.82213 0.734784 2.92749 1 2.92749H1.222C1.46693 2.92752 1.70334 3.01745 1.88637 3.18021C2.06941 3.34296 2.18634 3.56724 2.215 3.81049L3.591 15.5105C3.73385 16.7273 4.31848 17.8493 5.23391 18.6635C6.14934 19.4777 7.33185 19.9275 8.557 19.9275H19C19.2652 19.9275 19.5196 19.8221 19.7071 19.6346C19.8946 19.4471 20 19.1927 20 18.9275C20 18.6623 19.8946 18.4079 19.7071 18.2204C19.5196 18.0328 19.2652 17.9275 19 17.9275H8.557C7.93806 17.9258 7.3348 17.7326 6.82994 17.3746C6.32507 17.0165 5.94331 16.511 5.737 15.9275H17.657C18.8293 15.9276 19.9643 15.5157 20.8638 14.7639C21.7633 14.0121 22.37 12.9682 22.578 11.8145L23.363 7.46049C23.4414 7.0285 23.4237 6.58456 23.3114 6.16013C23.1991 5.7357 22.9948 5.34117 22.713 5.00449ZM21.4 7.10549L20.614 11.4595C20.4891 12.1525 20.1245 12.7795 19.5839 13.2307C19.0433 13.6819 18.3612 13.9286 17.657 13.9275H5.419L4.478 5.92749H20.41C20.5569 5.92661 20.7022 5.95811 20.8355 6.01975C20.9689 6.08138 21.087 6.17164 21.1815 6.2841C21.276 6.39656 21.3446 6.52846 21.3824 6.67043C21.4201 6.81239 21.4262 6.96093 21.4 7.10549Z" fill="#374957"/>
<path d="M7.00012 24.9281C8.10469 24.9281 9.00011 24.0327 9.00011 22.9281C9.00011 21.8236 8.10469 20.9281 7.00012 20.9281C5.89555 20.9281 5.00012 21.8236 5.00012 22.9281C5.00012 24.0327 5.89555 24.9281 7.00012 24.9281Z" fill="#374957"/>
<path d="M17 24.9281C18.1046 24.9281 19 24.0327 19 22.9281C19 21.8236 18.1046 20.9281 17 20.9281C15.8954 20.9281 15 21.8236 15 22.9281C15 24.0327 15.8954 24.9281 17 24.9281Z" fill="#374957"/>
</g>
<defs>
<clipPath id="clip0_507_2250">
<rect width="24" height="24" fill="white" transform="translate(0 0.92749)"/>
</clipPath>
</defs>
</svg>
