<svg width="24" height="25" viewBox="0 0 24 25" fill="none" xmlns="http://www.w3.org/2000/svg">
<g clip-path="url(#clip0_507_2013)">
<path d="M17.0001 14.9275C17.0001 15.1927 16.8948 15.4471 16.7072 15.6346C16.5197 15.8221 16.2653 15.9275 16.0001 15.9275H8.00012C7.73491 15.9275 7.48055 15.8221 7.29302 15.6346C7.10548 15.4471 7.00012 15.1927 7.00012 14.9275C7.00012 14.6623 7.10548 14.4079 7.29302 14.2204C7.48055 14.0328 7.73491 13.9275 8.00012 13.9275H16.0001C16.2653 13.9275 16.5197 14.0328 16.7072 14.2204C16.8948 14.4079 17.0001 14.6623 17.0001 14.9275ZM13.0001 17.9275H8.00012C7.73491 17.9275 7.48055 18.0328 7.29302 18.2204C7.10548 18.4079 7.00012 18.6623 7.00012 18.9275C7.00012 19.1927 7.10548 19.4471 7.29302 19.6346C7.48055 19.8221 7.73491 19.9275 8.00012 19.9275H13.0001C13.2653 19.9275 13.5197 19.8221 13.7072 19.6346C13.8948 19.4471 14.0001 19.1927 14.0001 18.9275C14.0001 18.6623 13.8948 18.4079 13.7072 18.2204C13.5197 18.0328 13.2653 17.9275 13.0001 17.9275ZM22.0001 11.4125V19.9275C21.9985 21.2531 21.4712 22.5239 20.5339 23.4613C19.5966 24.3986 18.3257 24.9259 17.0001 24.9275H7.00012C5.67453 24.9259 4.40368 24.3986 3.46634 23.4613C2.529 22.5239 2.00171 21.2531 2.00012 19.9275V5.92748C2.00171 4.60189 2.529 3.33104 3.46634 2.3937C4.40368 1.45636 5.67453 0.929071 7.00012 0.927483H11.5151C12.4347 0.925116 13.3457 1.10507 14.1953 1.45694C15.045 1.80881 15.8164 2.32562 16.4651 2.97748L19.9491 6.46348C20.6014 7.11172 21.1185 7.88294 21.4705 8.73246C21.8226 9.58197 22.0026 10.4929 22.0001 11.4125ZM15.0511 4.39148C14.7364 4.08664 14.3831 3.82441 14.0001 3.61148V7.92748C14.0001 8.1927 14.1055 8.44705 14.293 8.63459C14.4806 8.82213 14.7349 8.92748 15.0001 8.92748H19.3161C19.1031 8.54467 18.8405 8.19163 18.5351 7.87748L15.0511 4.39148ZM20.0001 11.4125C20.0001 11.2475 19.9681 11.0895 19.9531 10.9275H15.0001C14.2045 10.9275 13.4414 10.6114 12.8788 10.0488C12.3162 9.48619 12.0001 8.72313 12.0001 7.92748V2.97448C11.8381 2.95948 11.6791 2.92748 11.5151 2.92748H7.00012C6.20447 2.92748 5.44141 3.24355 4.8788 3.80616C4.31619 4.36877 4.00012 5.13183 4.00012 5.92748V19.9275C4.00012 20.7231 4.31619 21.4862 4.8788 22.0488C5.44141 22.6114 6.20447 22.9275 7.00012 22.9275H17.0001C17.7958 22.9275 18.5588 22.6114 19.1214 22.0488C19.6841 21.4862 20.0001 20.7231 20.0001 19.9275V11.4125Z" fill="#374957"/>
</g>
<defs>
<clipPath id="clip0_507_2013">
<rect width="24" height="24" fill="white" transform="translate(0 0.92749)"/>
</clipPath>
</defs>
</svg>
