<svg width="24" height="25" viewBox="0 0 24 25" fill="none" xmlns="http://www.w3.org/2000/svg">
<g clip-path="url(#clip0_507_2206)">
<path d="M12 0.92749C9.62663 0.92749 7.30655 1.63128 5.33316 2.94986C3.35977 4.26843 1.8217 6.14258 0.913451 8.33529C0.00519943 10.528 -0.232441 12.9408 0.230582 15.2686C0.693605 17.5963 1.83649 19.7345 3.51472 21.4128C5.19295 23.091 7.33115 24.2339 9.65892 24.6969C11.9867 25.1599 14.3995 24.9223 16.5922 24.014C18.7849 23.1058 20.6591 21.5677 21.9776 19.5943C23.2962 17.6209 24 15.3009 24 12.9275C23.9966 9.74595 22.7312 6.6957 20.4815 4.44601C18.2318 2.19632 15.1815 0.930931 12 0.92749V0.92749ZM12 22.9275C10.0222 22.9275 8.08879 22.341 6.4443 21.2422C4.79981 20.1434 3.51809 18.5816 2.76121 16.7543C2.00433 14.9271 1.8063 12.9164 2.19215 10.9766C2.578 9.03678 3.53041 7.25495 4.92894 5.85642C6.32746 4.4579 8.10929 3.50549 10.0491 3.11964C11.9889 2.73379 13.9996 2.93182 15.8268 3.6887C17.6541 4.44557 19.2159 5.7273 20.3147 7.37179C21.4135 9.01628 22 10.9497 22 12.9275C21.9971 15.5788 20.9426 18.1206 19.0679 19.9953C17.1931 21.8701 14.6513 22.9246 12 22.9275Z" fill="#374957"/>
<path d="M11.9998 7.92686C11.0109 7.92686 10.0442 8.22011 9.22191 8.76952C8.39966 9.31892 7.7588 10.0998 7.38036 11.0134C7.00192 11.9271 6.90291 12.9324 7.09583 13.9023C7.28876 14.8722 7.76496 15.7631 8.46422 16.4624C9.16349 17.1617 10.0544 17.6379 11.0243 17.8308C11.9942 18.0237 12.9995 17.9247 13.9132 17.5463C14.8268 17.1678 15.6077 16.527 16.1571 15.7047C16.7065 14.8825 16.9998 13.9158 16.9998 12.9269C16.9982 11.6013 16.4709 10.3304 15.5335 9.39308C14.5962 8.45575 13.3254 7.92845 11.9998 7.92686ZM11.9998 15.9269C11.4064 15.9269 10.8264 15.7509 10.333 15.4213C9.8397 15.0916 9.45518 14.6231 9.22812 14.0749C9.00106 13.5267 8.94165 12.9235 9.0574 12.3416C9.17316 11.7597 9.45888 11.2251 9.87844 10.8055C10.298 10.386 10.8325 10.1003 11.4145 9.98451C11.9964 9.86875 12.5996 9.92816 13.1478 10.1552C13.696 10.3823 14.1645 10.7668 14.4942 11.2602C14.8238 11.7535 14.9998 12.3335 14.9998 12.9269C14.9998 13.7225 14.6837 14.4856 14.1211 15.0482C13.5585 15.6108 12.7954 15.9269 11.9998 15.9269Z" fill="#374957"/>
<path d="M12.0001 13.9281C12.5524 13.9281 13.0001 13.4804 13.0001 12.9281C13.0001 12.3758 12.5524 11.9281 12.0001 11.9281C11.4478 11.9281 11.0001 12.3758 11.0001 12.9281C11.0001 13.4804 11.4478 13.9281 12.0001 13.9281Z" fill="#374957"/>
</g>
<defs>
<clipPath id="clip0_507_2206">
<rect width="24" height="24" fill="white" transform="translate(0 0.92749)"/>
</clipPath>
</defs>
</svg>
