<svg width="24" height="25" viewBox="0 0 24 25" fill="none" xmlns="http://www.w3.org/2000/svg">
<g clip-path="url(#clip0_507_2060)">
<path d="M12.0032 0.925171C5.36554 0.925171 -0.0153809 6.30609 -0.0153809 12.9437C-0.0153809 19.5814 5.36554 24.9622 12.0032 24.9622C18.6408 24.9622 24.0217 19.5814 24.0217 12.9437C24.0217 6.30609 18.6408 0.925171 12.0032 0.925171ZM19.4519 9.76537L20.2279 7.25639C21.2736 8.77209 21.8777 10.5484 21.9729 12.3874L19.8309 10.8784C19.4768 10.6287 19.3237 10.1793 19.4519 9.76537ZM14.5999 3.28036H14.5919L12.5919 4.73634C12.2413 4.9912 11.7665 4.9912 11.4159 4.73634L9.41587 3.28036C11.1119 2.80973 12.9039 2.80973 14.5999 3.28036ZM3.77188 7.25737L4.5479 9.76537C4.67606 10.1793 4.52301 10.6287 4.16892 10.8784L2.02692 12.3874C2.12212 10.5487 2.72624 8.7727 3.77188 7.25737ZM4.00692 18.9114L6.75393 18.9204C7.18757 18.9213 7.57124 19.2015 7.70395 19.6144L8.56795 22.3074C6.75187 21.639 5.16787 20.4596 4.00692 18.9114ZM15.4329 22.3074L16.2959 19.6144C16.4285 19.2019 16.8116 18.9217 17.2449 18.9204L19.9929 18.9114C18.8325 20.4598 17.2488 21.6392 15.4329 22.3074ZM21.1689 16.9074L17.2389 16.9204C15.9377 16.9221 14.7868 17.7645 14.3919 19.0044L13.1569 22.8544C12.3886 22.9517 11.6111 22.9517 10.8429 22.8544L9.60787 19.0034C9.21253 17.7636 8.06118 16.9215 6.75988 16.9204L2.83087 16.9084C2.52848 16.2107 2.30737 15.4806 2.17185 14.7324L5.32087 12.5134C6.38531 11.7663 6.84529 10.4171 6.45885 9.17536L5.32387 5.50336C5.89743 4.98216 6.52968 4.52944 7.20787 4.15434L10.2359 6.35433C11.2869 7.12111 12.7128 7.12111 13.7639 6.35433L16.7918 4.15434C17.4699 4.52967 18.1021 4.98234 18.6758 5.50336L17.5409 9.17536C17.1545 10.4171 17.6144 11.7662 18.6788 12.5134L21.8279 14.7324C21.6925 15.4803 21.4713 16.2101 21.1689 16.9074Z" fill="#374957"/>
<path d="M15.3858 10.1511L13.4688 8.75914C12.5937 8.12014 11.4059 8.12014 10.5308 8.75914L8.6138 10.1511C7.73363 10.7871 7.36636 11.9196 7.70578 12.9511L8.43778 15.2041C8.77233 16.2334 9.73252 16.9294 10.8148 16.9271H13.1848C14.2681 16.9272 15.2282 16.2295 15.5628 15.1991L16.2938 12.9461C16.6311 11.9161 16.264 10.7862 15.3858 10.1511ZM14.3918 12.3281L13.6607 14.5811C13.5939 14.7875 13.4017 14.9272 13.1847 14.9271H10.8147C10.5982 14.9268 10.4064 14.7871 10.3397 14.5811L9.60779 12.3271C9.54043 12.1207 9.61397 11.8945 9.7898 11.7671L11.7058 10.3771C11.8811 10.2497 12.1186 10.2497 12.2938 10.3771L14.2108 11.7691C14.3858 11.8966 14.4588 12.1222 14.3918 12.3281Z" fill="#374957"/>
</g>
<defs>
<clipPath id="clip0_507_2060">
<rect width="24" height="24" fill="white" transform="translate(0 0.92749)"/>
</clipPath>
</defs>
</svg>
