<svg width="24" height="25" viewBox="0 0 24 25" fill="none" xmlns="http://www.w3.org/2000/svg">
<g clip-path="url(#clip0_507_2121)">
<path d="M21.5 24.9278H2.5C2.1717 24.9278 1.84661 24.8631 1.54329 24.7375C1.23998 24.6119 0.964379 24.4277 0.732233 24.1956C0.500087 23.9634 0.315938 23.6878 0.190301 23.3845C0.0646644 23.0812 0 22.7561 0 22.4278C0 21.7648 0.263392 21.1289 0.732233 20.66C1.20107 20.1912 1.83696 19.9278 2.5 19.9278H21.5C21.8283 19.9278 22.1534 19.9925 22.4567 20.1181C22.76 20.2437 23.0356 20.4279 23.2678 20.66C23.4999 20.8922 23.6841 21.1678 23.8097 21.4711C23.9353 21.7744 24 22.0995 24 22.4278C24 22.7561 23.9353 23.0812 23.8097 23.3845C23.6841 23.6878 23.4999 23.9634 23.2678 24.1956C23.0356 24.4277 22.76 24.6119 22.4567 24.7375C22.1534 24.8631 21.8283 24.9278 21.5 24.9278ZM24 14.9278C24 14.3974 23.7893 13.8887 23.4142 13.5136C23.0391 13.1385 22.5304 12.9278 22 12.9278H2C1.46957 12.9278 0.960859 13.1385 0.585786 13.5136C0.210714 13.8887 0 14.3974 0 14.9278C0 15.4582 0.210714 15.9669 0.585786 16.342C0.960859 16.7171 1.46957 16.9278 2 16.9278H22C22.5304 16.9278 23.0391 16.7171 23.4142 16.342C23.7893 15.9669 24 15.4582 24 14.9278ZM24 8.4278C24 8.02997 23.842 7.64844 23.5607 7.36714C23.2794 7.08583 22.8978 6.9278 22.5 6.9278H1.5C1.10218 6.9278 0.720644 7.08583 0.43934 7.36714C0.158035 7.64844 0 8.02997 0 8.4278C0 8.82562 0.158035 9.20715 0.43934 9.48846C0.720644 9.76976 1.10218 9.9278 1.5 9.9278H22.5C22.8978 9.9278 23.2794 9.76976 23.5607 9.48846C23.842 9.20715 24 8.82562 24 8.4278ZM24 2.9278C24 2.66258 23.8946 2.40822 23.7071 2.22069C23.5196 2.03315 23.2652 1.9278 23 1.9278H1C0.734784 1.9278 0.48043 2.03315 0.292893 2.22069C0.105357 2.40822 0 2.66258 0 2.9278C0 3.19301 0.105357 3.44737 0.292893 3.6349C0.48043 3.82244 0.734784 3.9278 1 3.9278H23C23.2652 3.9278 23.5196 3.82244 23.7071 3.6349C23.8946 3.44737 24 3.19301 24 2.9278Z" fill="#374957"/>
</g>
<defs>
<clipPath id="clip0_507_2121">
<rect width="24" height="24" fill="white" transform="translate(0 0.92749)"/>
</clipPath>
</defs>
</svg>
