<svg width="24" height="25" viewBox="0 0 24 25" fill="none" xmlns="http://www.w3.org/2000/svg">
<g clip-path="url(#clip0_507_2126)">
<path d="M11.9998 16.9276C12.4655 16.9284 12.9249 16.821 13.3418 16.6135L15.3418 15.6136C16.3612 15.1074 17.0042 14.0657 16.9998 12.9276V9.96057C17.0034 8.82343 16.3604 7.78309 15.3418 7.27759L13.3418 6.2776C12.4968 5.8576 11.5038 5.8576 10.6588 6.2776L8.65881 7.27759C7.63984 7.7828 6.99648 8.82324 6.99981 9.96057V12.9276C6.99615 14.065 7.63904 15.1057 8.65782 15.6116L10.6578 16.6116C11.0746 16.8196 11.534 16.9278 11.9998 16.9276ZM8.99982 12.9276V9.96057C9.00142 9.85857 9.01862 9.75737 9.05082 9.66057L11.2308 10.7506C11.715 10.9925 12.2847 10.9925 12.7689 10.7506L14.9489 9.66057C14.9811 9.75737 14.9983 9.85857 14.9999 9.96057V12.9276C15.0015 13.307 14.7869 13.6542 14.4469 13.8226L12.4469 14.8225C12.1649 14.9621 11.8339 14.9621 11.5519 14.8225L9.55187 13.8226C9.21217 13.6539 8.99804 13.3068 8.99982 12.9276ZM18.9998 22.9276H16.2908L19.7778 19.7056C24.0737 15.4098 24.0737 8.44505 19.778 4.1492C15.4823 -0.146664 8.51757 -0.146711 4.22171 4.14896C-0.0741445 8.44463 -0.0742385 15.4095 4.22148 19.7053C4.2309 19.7147 7.70884 22.9276 7.70884 22.9276H4.99984C4.44756 22.9276 3.99986 23.3753 3.99986 23.9275C3.99986 24.4798 4.44756 24.9275 4.99984 24.9275H18.9999C19.5521 24.9275 19.9998 24.4798 19.9998 23.9275C19.9998 23.3753 19.5521 22.9276 18.9998 22.9276ZM5.63584 5.56355C9.14284 2.0408 14.8416 2.02805 18.3643 5.53505C21.8871 9.04206 21.8998 14.7408 18.3928 18.2635L14.4078 21.9445C13.0477 23.2265 10.9219 23.2191 9.57086 21.9275L5.63584 18.2915C2.12654 14.7745 2.12659 9.08059 5.63584 5.56355Z" fill="#374957"/>
</g>
<defs>
<clipPath id="clip0_507_2126">
<rect width="24" height="24" fill="white" transform="translate(0 0.92749)"/>
</clipPath>
</defs>
</svg>
