<svg width="24" height="25" viewBox="0 0 24 25" fill="none" xmlns="http://www.w3.org/2000/svg">
<g clip-path="url(#clip0_507_2188)">
<path d="M20.494 8.89512L10.954 1.89512C10.2089 1.3495 9.32722 1.02091 8.40677 0.945782C7.48631 0.870651 6.56302 1.05192 5.7393 1.46948C4.91557 1.88704 4.22358 2.52458 3.74006 3.3114C3.25654 4.09823 3.00039 5.0036 3 5.92712V19.9271C3.00016 20.8511 3.25633 21.7569 3.74007 22.5441C4.22382 23.3312 4.91621 23.969 5.74042 24.3865C6.56463 24.8041 7.48841 24.9851 8.40925 24.9095C9.33008 24.8338 10.212 24.5045 10.957 23.9581L20.497 16.9581C21.1303 16.4937 21.6452 15.8867 22.0002 15.1862C22.3552 14.4857 22.5401 13.7114 22.5401 12.9261C22.5401 12.1408 22.3552 11.3666 22.0002 10.6661C21.6452 9.96556 21.1303 9.35852 20.497 8.89412L20.494 8.89512ZM19.31 15.3451L9.77 22.3451C9.32302 22.6717 8.79437 22.8683 8.24257 22.9131C7.69078 22.9579 7.13736 22.8491 6.64357 22.5987C6.14978 22.3484 5.73488 21.9664 5.4448 21.4948C5.15472 21.0233 5.00078 20.4807 5 19.9271V5.92712C4.99445 5.37247 5.1455 4.8275 5.43578 4.35484C5.72606 3.88218 6.1438 3.50101 6.641 3.25512C7.06389 3.04001 7.53154 2.92764 8.006 2.92712C8.64189 2.92955 9.26022 3.13601 9.77 3.51612L19.31 10.5161C19.6895 10.7948 19.9981 11.1589 20.2107 11.579C20.4234 11.9991 20.5343 12.4633 20.5343 12.9341C20.5343 13.405 20.4234 13.8692 20.2107 14.2893C19.9981 14.7093 19.6895 15.0734 19.31 15.3521V15.3451Z" fill="#374957"/>
</g>
<defs>
<clipPath id="clip0_507_2188">
<rect width="24" height="24" fill="white" transform="translate(0 0.92749)"/>
</clipPath>
</defs>
</svg>
