<svg width="24" height="25" viewBox="0 0 24 25" fill="none" xmlns="http://www.w3.org/2000/svg">
<g clip-path="url(#clip0_507_2338)">
<path d="M11.9999 1.92749V7.92749C11.9984 9.07969 11.5998 10.1962 10.8712 11.0887C10.1425 11.9813 9.12847 12.5954 7.99988 12.8275V23.9275C7.99988 24.1927 7.89452 24.4471 7.70698 24.6346C7.51945 24.8221 7.26509 24.9275 6.99988 24.9275C6.73466 24.9275 6.48031 24.8221 6.29277 24.6346C6.10524 24.4471 5.99988 24.1927 5.99988 23.9275V12.8275C4.87129 12.5954 3.85722 11.9813 3.1286 11.0887C2.39997 10.1962 2.00133 9.07969 1.99988 7.92749V1.92749C1.99988 1.66227 2.10523 1.40792 2.29277 1.22038C2.48031 1.03285 2.73466 0.92749 2.99988 0.92749C3.26509 0.92749 3.51945 1.03285 3.70698 1.22038C3.89452 1.40792 3.99988 1.66227 3.99988 1.92749V7.92749C4.00244 8.54575 4.19596 9.14812 4.55397 9.65219C4.91197 10.1563 5.41697 10.5374 5.99988 10.7435V1.92749C5.99988 1.66227 6.10524 1.40792 6.29277 1.22038C6.48031 1.03285 6.73466 0.92749 6.99988 0.92749C7.26509 0.92749 7.51945 1.03285 7.70698 1.22038C7.89452 1.40792 7.99988 1.66227 7.99988 1.92749V10.7435C8.58279 10.5374 9.08779 10.1563 9.44579 9.65219C9.80379 9.14812 9.99731 8.54575 9.99988 7.92749V1.92749C9.99988 1.66227 10.1052 1.40792 10.2928 1.22038C10.4803 1.03285 10.7347 0.92749 10.9999 0.92749C11.2651 0.92749 11.5194 1.03285 11.707 1.22038C11.8945 1.40792 11.9999 1.66227 11.9999 1.92749ZM21.9999 10.9275C21.9551 12.8279 21.4823 14.6938 20.6167 16.3862C19.751 18.0786 18.5147 19.554 16.9999 20.7025V23.9275C16.9999 24.1927 16.8945 24.4471 16.707 24.6346C16.5194 24.8221 16.2651 24.9275 15.9999 24.9275C15.7347 24.9275 15.4803 24.8221 15.2928 24.6346C15.1052 24.4471 14.9999 24.1927 14.9999 23.9275V2.92749C14.9909 2.55175 15.0936 2.1818 15.2949 1.86442C15.4962 1.54704 15.7871 1.2965 16.1309 1.14449C16.5257 0.983855 16.9588 0.94172 17.3772 1.02323C17.7956 1.10475 18.1812 1.30638 18.4869 1.60349C20.8062 4.14844 22.0633 7.48479 21.9999 10.9275ZM19.9999 10.9275C20.0282 7.99964 18.9578 5.16757 16.9999 2.99049V17.9975C18.874 16.1157 19.9488 13.5828 19.9999 10.9275Z" fill="#374957"/>
</g>
<defs>
<clipPath id="clip0_507_2338">
<rect width="24" height="24" fill="white" transform="translate(0 0.92749)"/>
</clipPath>
</defs>
</svg>
