<svg width="24" height="25" viewBox="0 0 24 25" fill="none" xmlns="http://www.w3.org/2000/svg">
<g clip-path="url(#clip0_507_2216)">
<path d="M23.0002 3.92718H13.0002C12.735 3.92718 12.4806 4.03254 12.2931 4.22008C12.1055 4.40761 12.0002 4.66197 12.0002 4.92718V8.19718L9.60019 4.03718C9.42506 3.73176 9.1724 3.47798 8.86775 3.30149C8.5631 3.125 8.21727 3.03206 7.86519 3.03206C7.51311 3.03206 7.16728 3.125 6.86263 3.30149C6.55799 3.47798 6.30533 3.73176 6.13019 4.03718L0.13019 14.4272C0.0424221 14.5792 -0.00378418 14.7516 -0.00378418 14.9272C-0.00378418 15.1027 0.0424221 15.2751 0.13019 15.4272C0.218295 15.5798 0.345159 15.7064 0.497937 15.7942C0.650714 15.882 0.82398 15.9279 1.00019 15.9272H5.29019C5.09603 16.576 4.99832 17.2499 5.00019 17.9272C5.00019 19.7837 5.73769 21.5642 7.05044 22.8769C8.3632 24.1897 10.1437 24.9272 12.0002 24.9272C13.8567 24.9272 15.6372 24.1897 16.9499 22.8769C18.2627 21.5642 19.0002 19.7837 19.0002 17.9272C19.0021 17.2499 18.9044 16.576 18.7102 15.9272H23.0002C23.2654 15.9272 23.5198 15.8218 23.7073 15.6343C23.8948 15.4467 24.0002 15.1924 24.0002 14.9272V4.92718C24.0002 4.66197 23.8948 4.40761 23.7073 4.22008C23.5198 4.03254 23.2654 3.92718 23.0002 3.92718ZM2.73019 13.9272L7.86019 5.03718L11.2902 10.9272C10.2901 11.0385 9.3258 11.3641 8.46295 11.8818C7.60011 12.3995 6.85901 13.0971 6.29019 13.9272H2.73019ZM12.0002 22.9272C11.0113 22.9272 10.0446 22.6339 9.22234 22.0845C8.40009 21.5351 7.75923 20.7542 7.38079 19.8406C7.00236 18.927 6.90334 17.9216 7.09626 16.9517C7.28919 15.9818 7.7654 15.0909 8.46466 14.3916C9.16392 13.6924 10.0548 13.2162 11.0247 13.0232C11.9946 12.8303 13 12.9293 13.9136 13.3078C14.8272 13.6862 15.6081 14.3271 16.1575 15.1493C16.7069 15.9716 17.0002 16.9383 17.0002 17.9272C17.0002 19.2532 16.4734 20.525 15.5357 21.4627C14.598 22.4004 13.3263 22.9272 12.0002 22.9272ZM22.0002 13.9272H17.7402C16.8321 12.6306 15.5151 11.6763 14.0002 11.2172V5.92718H22.0002V13.9272Z" fill="#374957"/>
</g>
<defs>
<clipPath id="clip0_507_2216">
<rect width="24" height="24" fill="white" transform="translate(0 0.92749)"/>
</clipPath>
</defs>
</svg>
