<svg width="24" height="25" viewBox="0 0 24 25" fill="none" xmlns="http://www.w3.org/2000/svg">
<g clip-path="url(#clip0_507_2143)">
<path d="M22.5139 11.8995C22.1061 11.5347 21.6247 11.2617 21.1024 11.0988C20.58 10.936 20.0288 10.8871 19.4859 10.9555C17.2988 11.2198 15.1406 11.6851 13.0389 12.3455C13.3589 9.84048 15.7499 8.92748 17.9999 8.92748C18.7955 8.92748 19.5586 8.61141 20.1212 8.0488C20.6838 7.48619 20.9999 6.72313 20.9999 5.92748C20.9999 5.13183 20.6838 4.36877 20.1212 3.80616C19.5586 3.24355 18.7955 2.92748 17.9999 2.92748C17.0677 2.92726 16.1449 3.11397 15.2861 3.47656C14.4273 3.83915 13.6499 4.37026 12.9999 5.03848V1.92748C12.9999 1.66227 12.8945 1.40791 12.707 1.22038C12.5195 1.03284 12.2651 0.927483 11.9999 0.927483C11.7347 0.927483 11.4803 1.03284 11.2928 1.22038C11.1052 1.40791 10.9999 1.66227 10.9999 1.92748V5.03748C10.3497 4.36962 9.57223 3.83881 8.71345 3.47641C7.85468 3.11401 6.932 2.92736 5.99989 2.92748C5.20424 2.92748 4.44118 3.24355 3.87857 3.80616C3.31596 4.36877 2.99989 5.13183 2.99989 5.92748C2.99989 6.72313 3.31596 7.48619 3.87857 8.0488C4.44118 8.61141 5.20424 8.92748 5.99989 8.92748C8.24989 8.92748 10.6409 9.84048 10.9609 12.3455C8.85911 11.6852 6.701 11.2199 4.51389 10.9555C3.97104 10.8875 3.41991 10.9366 2.89761 11.0994C2.37531 11.2622 1.89394 11.535 1.48589 11.8995C1.01522 12.3306 0.641025 12.8565 0.387857 13.4424C0.13469 14.0284 0.00827049 14.6612 0.0168926 15.2995C0.0168926 23.9895 4.85189 24.9275 6.93089 24.9275C8.05982 24.867 9.14098 24.4523 10.0209 23.7425C10.5808 23.2682 11.2702 22.9728 11.9999 22.8945C12.7295 22.9728 13.4189 23.2682 13.9789 23.7425C14.8589 24.4522 15.94 24.8668 17.0689 24.9275C19.1479 24.9275 23.9829 23.9895 23.9829 15.3025C23.9917 14.6638 23.8654 14.0304 23.6122 13.4439C23.359 12.8575 22.9847 12.3311 22.5139 11.8995ZM17.9999 4.92748C18.2651 4.92748 18.5195 5.03284 18.707 5.22038C18.8945 5.40791 18.9999 5.66227 18.9999 5.92748C18.9999 6.1927 18.8945 6.44705 18.707 6.63459C18.5195 6.82213 18.2651 6.92748 17.9999 6.92748C16.3151 6.8728 14.657 7.35846 13.2679 8.31348C13.6055 7.3264 14.243 6.46944 15.0914 5.86237C15.9398 5.2553 16.9567 4.92845 17.9999 4.92748ZM5.99989 6.92748C5.73468 6.92748 5.48032 6.82213 5.29279 6.63459C5.10525 6.44705 4.99989 6.1927 4.99989 5.92748C4.99989 5.66227 5.10525 5.40791 5.29279 5.22038C5.48032 5.03284 5.73468 4.92748 5.99989 4.92748C7.04318 4.92868 8.06005 5.25562 8.90855 5.86264C9.75706 6.46967 10.3949 7.32648 10.7329 8.31348C9.34355 7.35825 7.68504 6.87258 5.99989 6.92748ZM17.0689 22.9275C16.3392 22.8492 15.6498 22.5538 15.0899 22.0795C14.2097 21.37 13.1287 20.9555 11.9999 20.8945C10.8711 20.9555 9.79004 21.37 8.90989 22.0795C8.34994 22.5538 7.66055 22.8492 6.93089 22.9275C3.76189 22.9275 2.01689 20.2195 2.01689 15.3025C2.01059 14.9465 2.07846 14.5931 2.21619 14.2648C2.35392 13.9365 2.5585 13.6404 2.81689 13.3955C3.01232 13.2172 3.24465 13.0841 3.49735 13.0058C3.75004 12.9276 4.01689 12.9059 4.27889 12.9425C6.78929 13.2379 9.25664 13.8252 11.6309 14.6925C11.8697 14.7882 12.1361 14.7882 12.3749 14.6925C14.7487 13.8235 17.2162 13.2362 19.7269 12.9425C19.9889 12.9064 20.2556 12.9283 20.5082 13.0065C20.7608 13.0848 20.9932 13.2176 21.1889 13.3955C21.4475 13.6403 21.6522 13.9363 21.7899 14.2646C21.9277 14.593 21.9954 14.9465 21.9889 15.3025C21.9829 20.2195 20.2379 22.9275 17.0689 22.9275Z" fill="#374957"/>
<path d="M17.83 15.9504C15.309 16.5274 12 17.5754 12 17.5754C14.009 17.7884 16.056 19.6264 17.114 19.9204C18.223 20.2284 18.641 19.0764 18.981 17.1954C19.02 17.0324 19.0183 16.8623 18.9759 16.7001C18.9335 16.5379 18.8518 16.3886 18.738 16.2655C18.6242 16.1424 18.4818 16.0493 18.3234 15.9943C18.1651 15.9394 17.9956 15.9243 17.83 15.9504Z" fill="#374957"/>
<path d="M5.01887 17.1954C5.35887 19.0764 5.77688 20.2284 6.88588 19.9204C7.94388 19.6264 9.98588 17.7884 11.9999 17.5754C11.9999 17.5754 8.69088 16.5234 6.16988 15.9504C6.00429 15.9243 5.83481 15.9394 5.67644 15.9943C5.51806 16.0493 5.37568 16.1424 5.26188 16.2655C5.14808 16.3886 5.06637 16.5379 5.02398 16.7001C4.9816 16.8623 4.97984 17.0324 5.01887 17.1954Z" fill="#374957"/>
</g>
<defs>
<clipPath id="clip0_507_2143">
<rect width="24" height="24" fill="white" transform="translate(0 0.92749)"/>
</clipPath>
</defs>
</svg>
