<svg width="24" height="25" viewBox="0 0 24 25" fill="none" xmlns="http://www.w3.org/2000/svg">
<g clip-path="url(#clip0_507_2330)">
<path d="M23 24.9268C22.7348 24.9268 22.4804 24.8214 22.2929 24.6339C22.1054 24.4464 22 24.192 22 23.9268C21.9984 22.336 21.3658 20.8108 20.2409 19.6859C19.116 18.561 17.5908 17.9284 16 17.9268H10.17V19.5128C10.1699 19.9083 10.0526 20.2949 9.83282 20.6237C9.61305 20.9525 9.30073 21.2088 8.93533 21.3602C8.56993 21.5115 8.16786 21.5511 7.77995 21.474C7.39205 21.3968 7.03572 21.2064 6.75602 20.9268L0.877017 15.0478C0.314603 14.4852 -0.00134277 13.7223 -0.00134277 12.9268C-0.00134277 12.1313 0.314603 11.3684 0.877017 10.8058L6.75602 4.92682C7.03572 4.6472 7.39205 4.45679 7.77995 4.37965C8.16786 4.30252 8.56993 4.34213 8.93533 4.49347C9.30073 4.64481 9.61305 4.90108 9.83282 5.2299C10.0526 5.55872 10.1699 5.94532 10.17 6.34082V7.92682H15C17.3862 7.92946 19.6738 8.87852 21.3611 10.5658C23.0483 12.253 23.9974 14.5407 24 16.9268V23.9268C24 24.192 23.8947 24.4464 23.7071 24.6339C23.5196 24.8214 23.2652 24.9268 23 24.9268ZM8.17002 6.34082L2.29102 12.2198C2.10355 12.4073 1.99823 12.6616 1.99823 12.9268C1.99823 13.192 2.10355 13.4463 2.29102 13.6338L8.17002 19.5128V16.9268C8.17002 16.6616 8.27537 16.4072 8.46291 16.2197C8.65045 16.0322 8.9048 15.9268 9.17002 15.9268H16C17.1356 15.9265 18.2582 16.1684 19.2929 16.6364C20.3275 17.1044 21.2505 17.7877 22 18.6408V16.9268C21.9979 15.0709 21.2597 13.2917 19.9474 11.9794C18.6351 10.6671 16.8559 9.92893 15 9.92681H9.17002C8.9048 9.92681 8.65045 9.82146 8.46291 9.63392C8.27537 9.44638 8.17002 9.19203 8.17002 8.92682V6.34082Z" fill="#374957"/>
</g>
<defs>
<clipPath id="clip0_507_2330">
<rect width="24" height="24" fill="white" transform="translate(0 0.92749)"/>
</clipPath>
</defs>
</svg>
