<svg width="24" height="25" viewBox="0 0 24 25" fill="none" xmlns="http://www.w3.org/2000/svg">
<g clip-path="url(#clip0_507_2007)">
<path d="M19 24.9275H5C3.67441 24.9259 2.40356 24.3986 1.46622 23.4613C0.528882 22.5239 0.00158786 21.2531 0 19.9275L0 5.92749C0.00158786 4.6019 0.528882 3.33105 1.46622 2.39371C2.40356 1.45637 3.67441 0.929078 5 0.92749L19 0.92749C20.3256 0.929078 21.5964 1.45637 22.5338 2.39371C23.4711 3.33105 23.9984 4.6019 24 5.92749V19.9275C23.9984 21.2531 23.4711 22.5239 22.5338 23.4613C21.5964 24.3986 20.3256 24.9259 19 24.9275ZM5 2.92749C4.20435 2.92749 3.44129 3.24356 2.87868 3.80617C2.31607 4.36878 2 5.13184 2 5.92749V19.9275C2 20.7231 2.31607 21.4862 2.87868 22.0488C3.44129 22.6114 4.20435 22.9275 5 22.9275H19C19.7956 22.9275 20.5587 22.6114 21.1213 22.0488C21.6839 21.4862 22 20.7231 22 19.9275V5.92749C22 5.13184 21.6839 4.36878 21.1213 3.80617C20.5587 3.24356 19.7956 2.92749 19 2.92749H5ZM11 12.9275C11 13.1253 11.0586 13.3186 11.1685 13.4831C11.2784 13.6475 11.4346 13.7757 11.6173 13.8514C11.8 13.9271 12.0011 13.9469 12.1951 13.9083C12.3891 13.8697 12.5673 13.7744 12.7071 13.6346C12.847 13.4947 12.9422 13.3166 12.9808 13.1226C13.0194 12.9286 12.9996 12.7275 12.9239 12.5448C12.8482 12.3621 12.72 12.2059 12.5556 12.096C12.3911 11.9861 12.1978 11.9275 12 11.9275C11.7348 11.9275 11.4804 12.0328 11.2929 12.2204C11.1054 12.4079 11 12.6623 11 12.9275ZM6 7.92749C6 8.12527 6.05865 8.31861 6.16853 8.48306C6.27841 8.64751 6.43459 8.77568 6.61732 8.85137C6.80004 8.92706 7.00111 8.94686 7.19509 8.90828C7.38907 8.86969 7.56725 8.77445 7.70711 8.6346C7.84696 8.49474 7.9422 8.31656 7.98079 8.12258C8.01937 7.9286 7.99957 7.72753 7.92388 7.54481C7.84819 7.36208 7.72002 7.2059 7.55557 7.09602C7.39112 6.98614 7.19778 6.92749 7 6.92749C6.73478 6.92749 6.48043 7.03285 6.29289 7.22038C6.10536 7.40792 6 7.66227 6 7.92749ZM16 7.92749C16 8.12527 16.0586 8.31861 16.1685 8.48306C16.2784 8.64751 16.4346 8.77568 16.6173 8.85137C16.8 8.92706 17.0011 8.94686 17.1951 8.90828C17.3891 8.86969 17.5673 8.77445 17.7071 8.6346C17.847 8.49474 17.9422 8.31656 17.9808 8.12258C18.0194 7.9286 17.9996 7.72753 17.9239 7.54481C17.8482 7.36208 17.72 7.2059 17.5556 7.09602C17.3911 6.98614 17.1978 6.92749 17 6.92749C16.7348 6.92749 16.4804 7.03285 16.2929 7.22038C16.1054 7.40792 16 7.66227 16 7.92749ZM6 17.9275C6 18.1253 6.05865 18.3186 6.16853 18.4831C6.27841 18.6475 6.43459 18.7757 6.61732 18.8514C6.80004 18.9271 7.00111 18.9469 7.19509 18.9083C7.38907 18.8697 7.56725 18.7745 7.70711 18.6346C7.84696 18.4947 7.9422 18.3166 7.98079 18.1226C8.01937 17.9286 7.99957 17.7275 7.92388 17.5448C7.84819 17.3621 7.72002 17.2059 7.55557 17.096C7.39112 16.9861 7.19778 16.9275 7 16.9275C6.73478 16.9275 6.48043 17.0328 6.29289 17.2204C6.10536 17.4079 6 17.6623 6 17.9275ZM16 17.9275C16 18.1253 16.0586 18.3186 16.1685 18.4831C16.2784 18.6475 16.4346 18.7757 16.6173 18.8514C16.8 18.9271 17.0011 18.9469 17.1951 18.9083C17.3891 18.8697 17.5673 18.7745 17.7071 18.6346C17.847 18.4947 17.9422 18.3166 17.9808 18.1226C18.0194 17.9286 17.9996 17.7275 17.9239 17.5448C17.8482 17.3621 17.72 17.2059 17.5556 17.096C17.3911 16.9861 17.1978 16.9275 17 16.9275C16.7348 16.9275 16.4804 17.0328 16.2929 17.2204C16.1054 17.4079 16 17.6623 16 17.9275Z" fill="#374957"/>
</g>
<defs>
<clipPath id="clip0_507_2007">
<rect width="24" height="24" fill="white" transform="translate(0 0.92749)"/>
</clipPath>
</defs>
</svg>
