<svg width="24" height="25" viewBox="0 0 24 25" fill="none" xmlns="http://www.w3.org/2000/svg">
<g clip-path="url(#clip0_507_2210)">
<path d="M10.3569 3.84768L8.94085 6.14768C8.79501 6.35789 8.57413 6.50421 8.32368 6.55652C8.07323 6.60883 7.81226 6.56316 7.59446 6.42889C7.37666 6.29463 7.21862 6.08199 7.15284 5.83473C7.08706 5.58748 7.11856 5.32441 7.24085 5.09968L8.65685 2.79968C9.01193 2.23269 9.50527 1.76523 10.0905 1.44119C10.6758 1.11714 11.3339 0.947144 12.0029 0.947144C12.6718 0.947144 13.3299 1.11714 13.9152 1.44119C14.5004 1.76523 14.9938 2.23269 15.3489 2.79968L19.5489 9.63368L19.9899 7.26868C20.0384 7.00784 20.1886 6.77696 20.4073 6.62684C20.6261 6.47671 20.8955 6.41964 21.1564 6.46818C21.4172 6.51671 21.6481 6.66688 21.7982 6.88564C21.9483 7.1044 22.0054 7.37384 21.9569 7.63468L21.4569 10.3047C21.3289 10.992 20.9649 11.6131 20.4278 12.0606C19.8906 12.5081 19.214 12.754 18.5149 12.7557C18.3199 12.7557 15.2979 12.1797 15.2979 12.1797C15.042 12.1241 14.8182 11.9704 14.6745 11.7516C14.5307 11.5328 14.4785 11.2663 14.529 11.0094C14.5796 10.7526 14.7288 10.5258 14.9447 10.3777C15.1607 10.2297 15.426 10.1722 15.6839 10.2177L17.8169 10.6387L13.6429 3.84768C13.4693 3.56821 13.2273 3.33762 12.9398 3.17773C12.6524 3.01784 12.3288 2.93392 11.9999 2.93392C11.6709 2.93392 11.3474 3.01784 11.0599 3.17773C10.7724 3.33762 10.5304 3.56821 10.3569 3.84768ZM23.4089 15.9067L22.4409 14.3347C22.3759 14.2153 22.2873 14.1105 22.1805 14.0265C22.0737 13.9425 21.9509 13.8812 21.8196 13.8463C21.6883 13.8113 21.5512 13.8035 21.4168 13.8233C21.2824 13.8431 21.1534 13.8901 21.0377 13.9614C20.922 14.0327 20.8221 14.1268 20.744 14.238C20.666 14.3492 20.6114 14.4752 20.5836 14.6082C20.5558 14.7412 20.5554 14.8785 20.5825 15.0116C20.6095 15.1448 20.6634 15.271 20.7409 15.3827L21.7089 16.9547C21.8935 17.2504 21.9948 17.5905 22.002 17.939C22.0092 18.2876 21.9221 18.6316 21.7499 18.9347C21.5842 19.237 21.3398 19.4888 21.0426 19.6634C20.7454 19.8381 20.4065 19.929 20.0619 19.9267H12.6759L13.9469 18.6577C14.1293 18.4693 14.2305 18.2169 14.2286 17.9547C14.2267 17.6925 14.1218 17.4415 13.9367 17.2558C13.7515 17.0701 13.5009 16.9646 13.2387 16.962C12.9765 16.9593 12.7237 17.0598 12.5349 17.2417L10.8429 18.9267C10.3148 19.4518 10.0124 20.1621 9.99985 20.9067C9.99985 20.9067 9.99985 20.9167 9.99985 20.9207C9.99985 20.9247 9.99985 20.9337 9.99985 20.9407C9.997 21.3255 10.0712 21.7069 10.218 22.0626C10.3649 22.4183 10.5814 22.741 10.8549 23.0117L12.5369 24.6637C12.6295 24.7603 12.7407 24.8373 12.8637 24.8902C12.9867 24.943 13.119 24.9706 13.2529 24.9714C13.3867 24.9721 13.5194 24.946 13.643 24.8945C13.7666 24.843 13.8786 24.7673 13.9723 24.6717C14.0661 24.5762 14.1397 24.4627 14.1888 24.3382C14.2379 24.2137 14.2615 24.0805 14.2582 23.9467C14.2549 23.8129 14.2247 23.6811 14.1695 23.5591C14.1143 23.4371 14.0352 23.3275 13.9369 23.2367L12.6089 21.9267H20.0619C20.7634 21.9243 21.4516 21.735 22.0557 21.3782C22.6598 21.0215 23.1579 20.5103 23.4988 19.8971C23.8397 19.284 24.0111 18.5911 23.9953 17.8897C23.9795 17.1883 23.777 16.5038 23.4089 15.9067ZM6.77985 8.13968C6.45213 7.9165 6.08321 7.76087 5.69465 7.68189C5.3061 7.60291 4.9057 7.60216 4.51685 7.67968L1.88785 8.19768C1.75689 8.22077 1.63184 8.26974 1.52004 8.34175C1.40823 8.41375 1.31191 8.50733 1.23671 8.61701C1.16151 8.72669 1.10895 8.85027 1.08208 8.98051C1.05522 9.11075 1.05461 9.24504 1.08028 9.37553C1.10595 9.50601 1.15739 9.63006 1.23159 9.74042C1.30578 9.85078 1.40125 9.94524 1.51239 10.0183C1.62354 10.0913 1.74813 10.1414 1.87888 10.1657C2.00962 10.19 2.1439 10.1879 2.27385 10.1597L4.38185 9.74468L0.590851 15.9067C0.222703 16.5038 0.0202856 17.1882 0.00442724 17.8895C-0.0114311 18.5907 0.159842 19.2836 0.500624 19.8967C0.841406 20.5098 1.33939 21.0211 1.94334 21.3779C2.54729 21.7347 3.23539 21.9241 3.93685 21.9267H7.07985C7.34507 21.9267 7.59942 21.8213 7.78696 21.6338C7.97449 21.4462 8.07985 21.1919 8.07985 20.9267C8.07985 20.6615 7.97449 20.4071 7.78696 20.2196C7.59942 20.032 7.34507 19.9267 7.07985 19.9267H3.93685C3.59284 19.9283 3.25477 19.837 2.95836 19.6624C2.66194 19.4878 2.41819 19.2364 2.25285 18.9347C2.0806 18.6316 1.99347 18.2876 2.00069 17.939C2.0079 17.5905 2.1092 17.2504 2.29385 16.9547L6.13185 10.7167L6.57785 13.1107C6.62665 13.3715 6.77707 13.6023 6.99602 13.7522C7.21497 13.9022 7.48451 13.959 7.74535 13.9102C8.00619 13.8614 8.23696 13.711 8.3869 13.492C8.53683 13.2731 8.59365 13.0035 8.54485 12.7427L8.04485 10.0727C7.973 9.68259 7.82413 9.31074 7.60693 8.97884C7.38973 8.64695 7.10856 8.36167 6.77985 8.13968Z" fill="#374957"/>
</g>
<defs>
<clipPath id="clip0_507_2210">
<rect width="24" height="24" fill="white" transform="translate(0 0.92749)"/>
</clipPath>
</defs>
</svg>
