<svg width="24" height="25" viewBox="0 0 24 25" fill="none" xmlns="http://www.w3.org/2000/svg">
<g clip-path="url(#clip0_507_1895)">
<path d="M9 11.9275C9 11.6623 9.10536 11.4079 9.29289 11.2204C9.48043 11.0328 9.73478 10.9275 10 10.9275H14C14.2652 10.9275 14.5196 11.0328 14.7071 11.2204C14.8946 11.4079 15 11.6623 15 11.9275C15 12.1927 14.8946 12.4471 14.7071 12.6346C14.5196 12.8221 14.2652 12.9275 14 12.9275H10C9.73478 12.9275 9.48043 12.8221 9.29289 12.6346C9.10536 12.4471 9 12.1927 9 11.9275ZM24 18.9275V19.9275C23.9984 21.2531 23.4711 22.5239 22.5338 23.4613C21.5964 24.3986 20.3256 24.9259 19 24.9275H5C3.67441 24.9259 2.40356 24.3986 1.46622 23.4613C0.528882 22.5239 0.00158786 21.2531 0 19.9275L0 18.9275C0.00145452 17.7753 0.40009 16.6588 1.12872 15.7662C1.85735 14.8737 2.87141 14.2596 4 14.0275V12.9275C4.00173 11.5219 4.37375 10.1416 5.07859 8.92558C5.78344 7.70952 6.79623 6.70063 8.015 6.00049C8.013 5.97549 8 5.95349 8 5.92749V4.92749C8 3.86662 8.42143 2.84921 9.17157 2.09906C9.92172 1.34892 10.9391 0.92749 12 0.92749C13.0609 0.92749 14.0783 1.34892 14.8284 2.09906C15.5786 2.84921 16 3.86662 16 4.92749V5.92749C16 5.95349 15.987 5.97549 15.985 6.00049C17.2038 6.70063 18.2166 7.70952 18.9214 8.92558C19.6263 10.1416 19.9983 11.5219 20 12.9275V14.0275C21.1286 14.2596 22.1427 14.8737 22.8713 15.7662C23.5999 16.6588 23.9985 17.7753 24 18.9275ZM10 5.19049C11.3103 4.83982 12.6897 4.83982 14 5.19049V4.92749C14 4.39706 13.7893 3.88835 13.4142 3.51328C13.0391 3.1382 12.5304 2.92749 12 2.92749C11.4696 2.92749 10.9609 3.1382 10.5858 3.51328C10.2107 3.88835 10 4.39706 10 4.92749V5.19049ZM6 17.4625C6.77985 16.6603 7.71265 16.0226 8.74322 15.5872C9.77379 15.1518 10.8812 14.9275 12 14.9275C13.1188 14.9275 14.2262 15.1518 15.2568 15.5872C16.2874 16.0226 17.2201 16.6603 18 17.4625V12.9275C18 11.3362 17.3679 9.81007 16.2426 8.68485C15.1174 7.55963 13.5913 6.92749 12 6.92749C10.4087 6.92749 8.88258 7.55963 7.75736 8.68485C6.63214 9.81007 6 11.3362 6 12.9275V17.4625ZM5 22.9275H5.026C4.36419 22.0671 4.00368 21.013 4 19.9275V16.1115C3.41709 16.3176 2.91209 16.6987 2.55409 17.2028C2.19608 17.7069 2.00256 18.3092 2 18.9275V19.9275C2 20.7231 2.31607 21.4862 2.87868 22.0488C3.44129 22.6114 4.20435 22.9275 5 22.9275ZM15 22.9275C15.6517 22.9244 16.2847 22.7093 16.8032 22.3145C17.3217 21.9197 17.6976 21.3669 17.874 20.7395C17.3677 19.6046 16.5436 18.6407 15.5011 17.9643C14.4587 17.2879 13.2427 16.9279 12 16.9279C10.7573 16.9279 9.54129 17.2879 8.49886 17.9643C7.45644 18.6407 6.63227 19.6046 6.126 20.7395C6.30239 21.3669 6.67827 21.9197 7.1968 22.3145C7.71533 22.7093 8.34831 22.9244 9 22.9275H15ZM22 18.9275C21.9974 18.3092 21.8039 17.7069 21.4459 17.2028C21.0879 16.6987 20.5829 16.3176 20 16.1115V19.9275C19.9963 21.013 19.6358 22.0671 18.974 22.9275H19C19.7956 22.9275 20.5587 22.6114 21.1213 22.0488C21.6839 21.4862 22 20.7231 22 19.9275V18.9275Z" fill="#374957"/>
</g>
<defs>
<clipPath id="clip0_507_1895">
<rect width="24" height="24" fill="white" transform="translate(0 0.92749)"/>
</clipPath>
</defs>
</svg>
