<svg width="24" height="25" viewBox="0 0 24 25" fill="none" xmlns="http://www.w3.org/2000/svg">
<g clip-path="url(#clip0_507_2263)">
<path d="M22.7611 14.8978L20.3161 15.5438C19.9589 15.6391 19.625 15.8065 19.3351 16.0358L16.7181 14.5138C17.0861 13.4878 17.0861 12.3658 16.7181 11.3398L19.3351 9.81779C19.625 10.0471 19.9589 10.2145 20.3161 10.3098C20.3161 10.3098 22.9331 10.9888 23.0161 10.9888C23.256 10.9848 23.4865 10.8947 23.6655 10.7349C23.8445 10.5751 23.9601 10.3562 23.9911 10.1183C24.0222 9.88037 23.9666 9.6392 23.8346 9.43882C23.7026 9.23843 23.5029 9.0922 23.2721 9.02679L20.8281 8.37979C20.6451 8.3312 20.4888 8.212 20.3936 8.04834C20.2983 7.88467 20.2719 7.68992 20.3201 7.50679L20.9671 5.06279C21.0007 4.9358 21.009 4.80344 20.9914 4.67325C20.9739 4.54306 20.9309 4.4176 20.8649 4.30404C20.7988 4.19047 20.7111 4.09102 20.6066 4.01137C20.5022 3.93171 20.3831 3.87341 20.2561 3.83979C20.1291 3.80617 19.9967 3.7979 19.8665 3.81543C19.7363 3.83297 19.6109 3.87598 19.4973 3.942C19.3838 4.00802 19.2843 4.09577 19.2046 4.20022C19.125 4.30468 19.0667 4.4238 19.0331 4.55079L18.3871 6.99479C18.292 7.35352 18.2722 7.72805 18.3291 8.09479L15.7131 9.61079C15.0034 8.80379 14.0517 8.24811 13.0001 8.02679V5.02679C13.3446 4.89241 13.6575 4.68811 13.9191 4.42679L15.7071 2.63879C15.8952 2.45128 16.0012 2.1967 16.0017 1.93106C16.0022 1.66541 15.8971 1.41046 15.7096 1.22229C15.5221 1.03412 15.2675 0.928144 15.0018 0.927675C14.7362 0.927206 14.4812 1.03228 14.2931 1.21979L12.5051 3.00779C12.3706 3.1408 12.1892 3.2154 12.0001 3.2154C11.811 3.2154 11.6295 3.1408 11.4951 3.00779L9.70707 1.21979C9.51847 1.03763 9.26587 0.936839 9.00367 0.939118C8.74147 0.941396 8.49066 1.04656 8.30525 1.23197C8.11985 1.41738 8.01468 1.66819 8.0124 1.93039C8.01012 2.19259 8.11091 2.44519 8.29307 2.63379L10.0811 4.42679C10.3427 4.68811 10.6556 4.89241 11.0001 5.02679V8.02679C9.94847 8.24811 8.99672 8.80379 8.28707 9.61079L5.67107 8.08879C5.72791 7.72205 5.70816 7.34752 5.61307 6.98879L4.96707 4.54679C4.93345 4.4198 4.87515 4.30068 4.7955 4.19622C4.71584 4.09177 4.61639 4.00402 4.50282 3.938C4.38926 3.87198 4.2638 3.82897 4.13361 3.81143C4.00343 3.7939 3.87106 3.80217 3.74407 3.83579C3.61708 3.86941 3.49796 3.92771 3.3935 4.00737C3.28905 4.08702 3.2013 4.18647 3.13528 4.30004C3.06926 4.4136 3.02625 4.53906 3.00871 4.66925C2.99118 4.79944 2.99945 4.9318 3.03307 5.05879L3.68007 7.50279C3.72825 7.68592 3.70183 7.88067 3.60659 8.04434C3.51136 8.208 3.35509 8.3272 3.17207 8.37579L0.728071 9.02679C0.494056 9.08941 0.290729 9.23485 0.155867 9.43609C0.0210052 9.63733 -0.0362222 9.88068 -0.00518254 10.1209C0.0258571 10.3612 0.143053 10.582 0.324632 10.7424C0.50621 10.9027 0.739825 10.9917 0.982071 10.9928C1.06707 10.9928 3.68207 10.3138 3.68207 10.3138C4.03923 10.2185 4.37309 10.0511 4.66307 9.82179L7.28007 11.3438C6.91202 12.3698 6.91202 13.4918 7.28007 14.5178L4.66507 16.0358C4.37509 15.8065 4.04123 15.6391 3.68407 15.5438L1.23907 14.8978C0.990081 14.8494 0.73199 14.8974 0.517059 15.0321C0.302128 15.1668 0.14642 15.3781 0.0814656 15.6233C0.0165114 15.8685 0.047165 16.1292 0.167219 16.3527C0.287274 16.5761 0.487756 16.7456 0.728071 16.8268L3.17207 17.4738C3.35509 17.5224 3.51136 17.6416 3.60659 17.8052C3.70183 17.9689 3.72825 18.1637 3.68007 18.3468L3.03307 20.7908C2.99945 20.9178 2.99118 21.0501 3.00871 21.1803C3.02625 21.3105 3.06926 21.436 3.13528 21.5495C3.2013 21.6631 3.28905 21.7626 3.3935 21.8422C3.49796 21.9219 3.61708 21.9802 3.74407 22.0138C3.87106 22.0474 4.00343 22.0557 4.13361 22.0382C4.2638 22.0206 4.38926 21.9776 4.50282 21.9116C4.61639 21.8456 4.71584 21.7578 4.7955 21.6534C4.87515 21.5489 4.93345 21.4298 4.96707 21.3028L5.61307 18.8588C5.70816 18.5001 5.72791 18.1255 5.67107 17.7588L8.28707 16.2368C8.99585 17.046 9.9477 17.6038 11.0001 17.8268V20.8268C10.6558 20.9615 10.3429 21.1658 10.0811 21.4268L8.29307 23.2198C8.11091 23.4084 8.01012 23.661 8.0124 23.9232C8.01468 24.1854 8.11985 24.4362 8.30525 24.6216C8.49066 24.807 8.74147 24.9122 9.00367 24.9145C9.26587 24.9167 9.51847 24.816 9.70707 24.6338L11.5001 22.8458C11.6345 22.7128 11.816 22.6382 12.0051 22.6382C12.1942 22.6382 12.3756 22.7128 12.5101 22.8458L14.2981 24.6338C14.4867 24.816 14.7393 24.9167 15.0015 24.9145C15.2637 24.9122 15.5145 24.807 15.6999 24.6216C15.8853 24.4362 15.9905 24.1854 15.9927 23.9232C15.995 23.661 15.8942 23.4084 15.7121 23.2198L13.9241 21.4318C13.6612 21.1684 13.3466 20.9624 13.0001 20.8268V17.8268C14.0515 17.6057 15.0033 17.0504 15.7131 16.2438L18.3291 17.7658C18.2722 18.1325 18.292 18.5071 18.3871 18.8658L19.0331 21.3098C19.101 21.5663 19.268 21.7852 19.4973 21.9186C19.7267 22.0519 19.9996 22.0887 20.2561 22.0208C20.5125 21.9529 20.7315 21.7859 20.8649 21.5565C20.9982 21.3272 21.035 21.0543 20.9671 20.7978L20.3201 18.3538C20.2719 18.1707 20.2983 17.9759 20.3936 17.8122C20.4888 17.6486 20.6451 17.5294 20.8281 17.4808L23.2721 16.8338C23.4018 16.8029 23.5241 16.7463 23.6316 16.6674C23.7392 16.5885 23.8299 16.4889 23.8983 16.3745C23.9668 16.26 24.0117 16.133 24.0304 16.0009C24.049 15.8689 24.0411 15.7344 24.007 15.6055C23.9729 15.4765 23.9134 15.3557 23.8319 15.2501C23.7504 15.1445 23.6486 15.0563 23.5325 14.9906C23.4164 14.925 23.2883 14.8832 23.1559 14.8678C23.0234 14.8523 22.8892 14.8636 22.7611 14.9008V14.8978ZM12.0001 15.9268C11.2044 15.9268 10.4414 15.6107 9.87875 15.0481C9.31614 14.4855 9.00007 13.7224 9.00007 12.9268C9.00007 12.1311 9.31614 11.3681 9.87875 10.8055C10.4414 10.2429 11.2044 9.92679 12.0001 9.92679C12.7957 9.92679 13.5588 10.2429 14.1214 10.8055C14.684 11.3681 15.0001 12.1311 15.0001 12.9268C15.0001 13.7224 14.684 14.4855 14.1214 15.0481C13.5588 15.6107 12.7957 15.9268 12.0001 15.9268Z" fill="#374957"/>
</g>
<defs>
<clipPath id="clip0_507_2263">
<rect width="24" height="24" fill="white" transform="translate(0 0.92749)"/>
</clipPath>
</defs>
</svg>
