<svg width="24" height="25" viewBox="0 0 24 25" fill="none" xmlns="http://www.w3.org/2000/svg">
<g clip-path="url(#clip0_507_2140)">
<path d="M12.0001 6.92749C11.209 6.92749 10.4356 7.16209 9.77784 7.60161C9.12005 8.04114 8.60736 8.66585 8.30461 9.39676C8.00186 10.1277 7.92264 10.9319 8.07698 11.7079C8.23132 12.4838 8.61229 13.1965 9.1717 13.7559C9.73111 14.3153 10.4438 14.6963 11.2198 14.8506C11.9957 15.005 12.8 14.9258 13.5309 14.623C14.2618 14.3203 14.8865 13.8076 15.326 13.1498C15.7655 12.492 16.0001 11.7186 16.0001 10.9275C16.0001 9.86662 15.5787 8.84921 14.8286 8.09906C14.0784 7.34892 13.061 6.92749 12.0001 6.92749ZM12.0001 12.9275C11.6046 12.9275 11.2179 12.8102 10.889 12.5904C10.5601 12.3707 10.3037 12.0583 10.1524 11.6929C10.001 11.3274 9.96138 10.9253 10.0386 10.5373C10.1157 10.1493 10.3062 9.79298 10.5859 9.51328C10.8656 9.23357 11.222 9.04309 11.6099 8.96592C11.9979 8.88875 12.4 8.92836 12.7655 9.07973C13.1309 9.23111 13.4433 9.48745 13.6631 9.81635C13.8828 10.1452 14.0001 10.5319 14.0001 10.9275C14.0001 11.4579 13.7894 11.9666 13.4143 12.3417C13.0393 12.7168 12.5306 12.9275 12.0001 12.9275Z" fill="#374957"/>
<path d="M11.9999 24.9278C11.1579 24.9321 10.3271 24.7346 9.57701 24.3518C8.82697 23.9691 8.17954 23.4122 7.68895 22.7278C3.87795 17.4708 1.94495 13.5188 1.94495 10.9808C1.94495 8.31402 3.00431 5.75649 4.88999 3.87081C6.77567 1.98513 9.33319 0.925771 11.9999 0.925771C14.6667 0.925771 17.2242 1.98513 19.1099 3.87081C20.9956 5.75649 22.0549 8.31402 22.0549 10.9808C22.0549 13.5188 20.1219 17.4708 16.3109 22.7278C15.8204 23.4122 15.1729 23.9691 14.4229 24.3518C13.6728 24.7346 12.842 24.9321 11.9999 24.9278ZM11.9999 3.10877C9.91236 3.11115 7.91096 3.9415 6.43482 5.41764C4.95867 6.89379 4.12833 8.89519 4.12595 10.9828C4.12595 12.9928 6.01895 16.7098 9.45495 21.4488C9.74664 21.8506 10.1293 22.1776 10.5717 22.403C11.014 22.6285 11.5034 22.7461 11.9999 22.7461C12.4964 22.7461 12.9859 22.6285 13.4282 22.403C13.8706 22.1776 14.2533 21.8506 14.5449 21.4488C17.9809 16.7098 19.8739 12.9928 19.8739 10.9828C19.8716 8.89519 19.0412 6.89379 17.5651 5.41764C16.0889 3.9415 14.0875 3.11115 11.9999 3.10877Z" fill="#374957"/>
</g>
<defs>
<clipPath id="clip0_507_2140">
<rect width="24" height="24" fill="white" transform="translate(0 0.92749)"/>
</clipPath>
</defs>
</svg>
