<svg width="24" height="25" viewBox="0 0 24 25" fill="none" xmlns="http://www.w3.org/2000/svg">
<g clip-path="url(#clip0_507_2023)">
<path d="M19 10.9275C20.1568 10.9268 21.2776 10.525 22.1714 9.79064C23.0651 9.05624 23.6766 8.03464 23.9016 6.89993C24.1266 5.76522 23.9511 4.5876 23.4052 3.56774C22.8592 2.54787 21.9765 1.74887 20.9075 1.30687C19.8385 0.864864 18.6493 0.807215 17.5425 1.14374C16.4357 1.48027 15.4799 2.19015 14.8379 3.15243C14.1958 4.1147 13.9073 5.26983 14.0215 6.42098C14.1357 7.57213 14.6454 8.64808 15.464 9.46549C15.9282 9.92984 16.4795 10.298 17.0863 10.5489C17.6931 10.7998 18.3434 10.9284 19 10.9275ZM21.122 8.05149C20.6829 8.48681 20.1199 8.7758 19.5102 8.87891C18.9005 8.98201 18.2739 8.8942 17.716 8.62749L21.7 4.64349C21.9665 5.20156 22.0539 5.82834 21.9505 6.43804C21.847 7.04774 21.5576 7.61057 21.122 8.04949V8.05149ZM16.878 3.80549C17.3169 3.36984 17.8797 3.08048 18.4895 2.97701C19.0992 2.87355 19.7259 2.96103 20.284 3.22749L16.3 7.21149C16.0335 6.65342 15.9461 6.02664 16.0495 5.41694C16.153 4.80724 16.4424 4.24441 16.878 3.80549ZM24 12.9275V19.9275C23.9984 21.2531 23.4711 22.5239 22.5338 23.4613C21.5964 24.3986 20.3256 24.9259 19 24.9275H5C3.67441 24.9259 2.40356 24.3986 1.46622 23.4613C0.528882 22.5239 0.00158786 21.2531 0 19.9275L0 8.92749C0.00158786 7.6019 0.528882 6.33105 1.46622 5.39371C2.40356 4.45637 3.67441 3.92908 5 3.92749H11C11.2652 3.92749 11.5196 4.03285 11.7071 4.22038C11.8946 4.40792 12 4.66227 12 4.92749C12 5.19271 11.8946 5.44706 11.7071 5.6346C11.5196 5.82213 11.2652 5.92749 11 5.92749H5C4.45621 5.92899 3.92312 6.07877 3.45812 6.3607C2.99311 6.64263 2.6138 7.04603 2.361 7.52749L9.878 15.0455C10.4417 15.6066 11.2047 15.9215 12 15.9215C12.7953 15.9215 13.5583 15.6066 14.122 15.0455L15.992 13.2095C16.1822 13.0282 16.4361 12.9292 16.6988 12.9336C16.9615 12.9381 17.2119 13.0458 17.3959 13.2334C17.5798 13.421 17.6825 13.6735 17.6818 13.9362C17.6811 14.199 17.577 14.4509 17.392 14.6375L15.528 16.4655C14.5898 17.4005 13.3189 17.9251 11.9943 17.9239C10.6697 17.9228 9.39964 17.3961 8.463 16.4595L2 9.99849V19.9275C2 20.7231 2.31607 21.4862 2.87868 22.0488C3.44129 22.6114 4.20435 22.9275 5 22.9275H19C19.7956 22.9275 20.5587 22.6114 21.1213 22.0488C21.6839 21.4862 22 20.7231 22 19.9275V12.9275C22 12.6623 22.1054 12.4079 22.2929 12.2204C22.4804 12.0328 22.7348 11.9275 23 11.9275C23.2652 11.9275 23.5196 12.0328 23.7071 12.2204C23.8946 12.4079 24 12.6623 24 12.9275Z" fill="#374957"/>
</g>
<defs>
<clipPath id="clip0_507_2023">
<rect width="24" height="24" fill="white" transform="translate(0 0.92749)"/>
</clipPath>
</defs>
</svg>
