<svg width="24" height="25" viewBox="0 0 24 25" fill="none" xmlns="http://www.w3.org/2000/svg">
<g clip-path="url(#clip0_507_2083)">
<path d="M8.965 24.9275H4C2.93913 24.9275 1.92172 24.5061 1.17157 23.7559C0.421427 23.0058 0 21.9884 0 20.9275V15.9275C0 14.8666 0.421427 13.8492 1.17157 13.0991C1.92172 12.3489 2.93913 11.9275 4 11.9275H12.857C13.3982 11.9277 13.9302 12.0677 14.4014 12.3338C14.8727 12.5999 15.2673 12.9832 15.547 13.4465L18.764 9.91149C19.0301 9.61888 19.3512 9.38158 19.7091 9.21315C20.0669 9.04472 20.4545 8.94847 20.8496 8.9299C21.2446 8.91132 21.6395 8.97079 22.0116 9.1049C22.3836 9.23901 22.7256 9.44514 23.018 9.71149C23.6014 10.2474 23.951 10.991 23.9916 11.7821C24.0321 12.5732 23.7605 13.3487 23.235 13.9415L16.435 21.5785C15.4961 22.6315 14.3453 23.4742 13.0579 24.0514C11.7706 24.6285 10.3758 24.9271 8.965 24.9275ZM4 13.9275C3.46957 13.9275 2.96086 14.1382 2.58579 14.5133C2.21071 14.8883 2 15.3971 2 15.9275V20.9275C2 21.4579 2.21071 21.9666 2.58579 22.3417C2.96086 22.7168 3.46957 22.9275 4 22.9275H8.965C10.0929 22.927 11.208 22.6882 12.2372 22.2267C13.2664 21.7652 14.1864 21.0914 14.937 20.2495L21.742 12.6115C21.9187 12.4125 22.0101 12.152 21.9967 11.8863C21.9832 11.6205 21.8659 11.3706 21.67 11.1905C21.4708 11.0114 21.2096 10.9171 20.942 10.9275C20.8093 10.9331 20.6791 10.9651 20.5589 11.0216C20.4387 11.0781 20.331 11.1579 20.242 11.2565L15.816 16.1275C15.6217 16.6653 15.285 17.1402 14.8419 17.5016C14.3988 17.863 13.8659 18.0973 13.3 18.1795L8.139 18.9175C7.87644 18.9552 7.60966 18.887 7.39737 18.7279C7.18508 18.5689 7.04466 18.3321 7.007 18.0695C6.96934 17.8069 7.03752 17.5402 7.19656 17.3279C7.35559 17.1156 7.59244 16.9752 7.855 16.9375L13.017 16.2005C13.3035 16.1604 13.5642 16.0131 13.7463 15.7883C13.9284 15.5635 14.0184 15.2779 13.9981 14.9893C13.9778 14.7007 13.8487 14.4306 13.6368 14.2335C13.425 14.0364 13.1463 13.927 12.857 13.9275H4ZM11 10.0015C10.5468 10.0027 10.1067 9.84886 9.753 9.56549C8.041 8.19149 6 6.12749 6 4.12749C5.97545 3.30586 6.27728 2.50793 6.83948 1.90825C7.40168 1.30857 8.17849 0.955942 9 0.92749C9.74734 0.930401 10.4644 1.22331 11 1.74449C11.5356 1.22331 12.2527 0.930401 13 0.92749C13.8215 0.955942 14.5983 1.30857 15.1605 1.90825C15.7227 2.50793 16.0246 3.30586 16 4.12749C16 6.12749 13.959 8.19149 12.246 9.56649C11.8924 9.84929 11.4528 10.0028 11 10.0015ZM9 2.92749C8.70935 2.95665 8.44175 3.09871 8.25475 3.32311C8.06775 3.54752 7.97627 3.83635 8 4.12749C8 5.02749 9.151 6.51749 11.006 8.00649C12.849 6.51749 14 5.02749 14 4.12749C14.0237 3.83635 13.9323 3.54752 13.7453 3.32311C13.5582 3.09871 13.2906 2.95665 13 2.92749C12.7094 2.95665 12.4418 3.09871 12.2547 3.32311C12.0677 3.54752 11.9763 3.83635 12 4.12749C12 4.39271 11.8946 4.64706 11.7071 4.8346C11.5196 5.02213 11.2652 5.12749 11 5.12749C10.7348 5.12749 10.4804 5.02213 10.2929 4.8346C10.1054 4.64706 10 4.39271 10 4.12749C10.0237 3.83635 9.93225 3.54752 9.74525 3.32311C9.55825 3.09871 9.29065 2.95665 9 2.92749Z" fill="#374957"/>
</g>
<defs>
<clipPath id="clip0_507_2083">
<rect width="24" height="24" fill="white" transform="translate(0 0.92749)"/>
</clipPath>
</defs>
</svg>
