<svg width="24" height="25" viewBox="0 0 24 25" fill="none" xmlns="http://www.w3.org/2000/svg">
<g clip-path="url(#clip0_507_2057)">
<path d="M16 15.9278C16 16.193 15.8946 16.4474 15.7071 16.6349C15.5196 16.8224 15.2652 16.9278 15 16.9278H13V18.9278C13 19.193 12.8946 19.4474 12.7071 19.6349C12.5196 19.8224 12.2652 19.9278 12 19.9278C11.7348 19.9278 11.4804 19.8224 11.2929 19.6349C11.1054 19.4474 11 19.193 11 18.9278V16.9278H9C8.73478 16.9278 8.48043 16.8224 8.29289 16.6349C8.10536 16.4474 8 16.193 8 15.9278C8 15.6626 8.10536 15.4082 8.29289 15.2207C8.48043 15.0332 8.73478 14.9278 9 14.9278H11V12.9278C11 12.6626 11.1054 12.4082 11.2929 12.2207C11.4804 12.0332 11.7348 11.9278 12 11.9278C12.2652 11.9278 12.5196 12.0332 12.7071 12.2207C12.8946 12.4082 13 12.6626 13 12.9278V14.9278H15C15.2652 14.9278 15.5196 15.0332 15.7071 15.2207C15.8946 15.4082 16 15.6626 16 15.9278ZM24 8.9278V18.9278C23.9984 20.2534 23.4711 21.5242 22.5338 22.4616C21.5964 23.3989 20.3256 23.9262 19 23.9278H5C3.67441 23.9262 2.40356 23.3989 1.46622 22.4616C0.528882 21.5242 0.00158786 20.2534 0 18.9278L0 6.9278C0.00158786 5.6022 0.528882 4.33135 1.46622 3.39402C2.40356 2.45668 3.67441 1.92938 5 1.9278H7.528C7.9934 1.92818 8.45239 2.03634 8.869 2.2438L12.025 3.8278C12.1644 3.89472 12.3173 3.92892 12.472 3.9278H19C20.3256 3.92938 21.5964 4.45668 22.5338 5.39402C23.4711 6.33135 23.9984 7.6022 24 8.9278ZM2 6.9278V7.9278H21.816C21.6099 7.34489 21.2288 6.83989 20.7247 6.48188C20.2206 6.12388 19.6183 5.93036 19 5.9278H12.472C12.0066 5.92741 11.5476 5.81925 11.131 5.6118L7.975 4.0328C7.83596 3.96414 7.68306 3.92823 7.528 3.9278H5C4.20435 3.9278 3.44129 4.24387 2.87868 4.80648C2.31607 5.36908 2 6.13215 2 6.9278ZM22 18.9278V9.9278H2V18.9278C2 19.7234 2.31607 20.4865 2.87868 21.0491C3.44129 21.6117 4.20435 21.9278 5 21.9278H19C19.7956 21.9278 20.5587 21.6117 21.1213 21.0491C21.6839 20.4865 22 19.7234 22 18.9278Z" fill="#374957"/>
</g>
<defs>
<clipPath id="clip0_507_2057">
<rect width="24" height="24" fill="white" transform="translate(0 0.92749)"/>
</clipPath>
</defs>
</svg>
