<svg width="24" height="25" viewBox="0 0 24 25" fill="none" xmlns="http://www.w3.org/2000/svg">
<g clip-path="url(#clip0_507_1975)">
<path d="M12 10.9275C11.2044 10.9275 10.4413 10.6114 9.87868 10.0488C9.31607 9.4862 9 8.72314 9 7.92749C9 7.13184 9.31607 6.36878 9.87868 5.80617C10.4413 5.24356 11.2044 4.92749 12 4.92749C12.7956 4.92749 13.5587 5.24356 14.1213 5.80617C14.6839 6.36878 15 7.13184 15 7.92749C15 8.72314 14.6839 9.4862 14.1213 10.0488C13.5587 10.6114 12.7956 10.9275 12 10.9275ZM8.968 16.1765C9.17364 15.534 9.57807 14.9735 10.1229 14.5758C10.6678 14.1781 11.3249 13.9638 11.9995 13.9638C12.6741 13.9638 13.3312 14.1781 13.8761 14.5758C14.4209 14.9735 14.8254 15.534 15.031 16.1765C15.0973 16.4335 15.263 16.6536 15.4916 16.7885C15.7202 16.9233 15.993 16.9618 16.25 16.8955C16.507 16.8292 16.7271 16.6635 16.862 16.4349C16.9968 16.2063 17.0353 15.9335 16.969 15.6765C15.658 10.7295 8.339 10.7315 7.032 15.6765C6.9959 15.8047 6.98576 15.9388 7.00217 16.0709C7.01859 16.203 7.06123 16.3306 7.12759 16.446C7.19396 16.5615 7.28271 16.6625 7.38865 16.7432C7.49458 16.8238 7.61556 16.8825 7.74448 16.9158C7.87341 16.9491 8.00769 16.9564 8.13944 16.9371C8.2712 16.9178 8.39777 16.8724 8.51174 16.8035C8.6257 16.7346 8.72477 16.6437 8.80312 16.536C8.88147 16.4283 8.93752 16.3061 8.968 16.1765ZM12.009 24.5925C11.5156 24.5928 11.0394 24.4116 10.671 24.0835L6.923 20.9275H4C2.93913 20.9275 1.92172 20.5061 1.17157 19.7559C0.421427 19.0058 0 17.9884 0 16.9275V4.92749C0 3.86662 0.421427 2.84921 1.17157 2.09906C1.92172 1.34892 2.93913 0.92749 4 0.92749L20 0.92749C21.0609 0.92749 22.0783 1.34892 22.8284 2.09906C23.5786 2.84921 24 3.86662 24 4.92749V16.9275C24 17.9884 23.5786 19.0058 22.8284 19.7559C22.0783 20.5061 21.0609 20.9275 20 20.9275H17.147L13.3 24.1075C12.9436 24.4218 12.4842 24.5944 12.009 24.5925ZM4 2.92749C3.46957 2.92749 2.96086 3.1382 2.58579 3.51328C2.21071 3.88835 2 4.39706 2 4.92749V16.9275C2 17.4579 2.21071 17.9666 2.58579 18.3417C2.96086 18.7168 3.46957 18.9275 4 18.9275H7.289C7.52465 18.9275 7.75273 19.0107 7.933 19.1625L11.979 22.5725L16.151 19.1565C16.3303 19.0084 16.5555 18.9275 16.788 18.9275H20C20.5304 18.9275 21.0391 18.7168 21.4142 18.3417C21.7893 17.9666 22 17.4579 22 16.9275V4.92749C22 4.39706 21.7893 3.88835 21.4142 3.51328C21.0391 3.1382 20.5304 2.92749 20 2.92749H4Z" fill="#374957"/>
</g>
<defs>
<clipPath id="clip0_507_1975">
<rect width="24" height="24" fill="white" transform="translate(0 0.92749)"/>
</clipPath>
</defs>
</svg>
