<svg width="24" height="25" viewBox="0 0 24 25" fill="none" xmlns="http://www.w3.org/2000/svg">
<g clip-path="url(#clip0_507_2232)">
<path d="M16.0001 6.92749C16.2653 6.92749 16.5197 7.03285 16.7072 7.22038C16.8948 7.40792 17.0001 7.66227 17.0001 7.92749C17.0001 8.19271 16.8948 8.44706 16.7072 8.6346C16.5197 8.82213 16.2653 8.92749 16.0001 8.92749H8.00012C7.73491 8.92749 7.48055 8.82213 7.29302 8.6346C7.10548 8.44706 7.00012 8.19271 7.00012 7.92749C7.00012 7.66227 7.10548 7.40792 7.29302 7.22038C7.48055 7.03285 7.73491 6.92749 8.00012 6.92749H16.0001ZM23.7071 24.6345C23.5196 24.822 23.2653 24.9273 23.0001 24.9273C22.735 24.9273 22.4806 24.822 22.2931 24.6345L19.8861 22.2275C19.1733 22.6824 18.3458 22.9252 17.5001 22.9275C16.6101 22.9275 15.7401 22.6636 15.0001 22.1691C14.26 21.6746 13.6833 20.9718 13.3427 20.1496C13.0021 19.3273 12.913 18.4225 13.0866 17.5496C13.2602 16.6767 13.6888 15.8748 14.3181 15.2455C14.9475 14.6162 15.7493 14.1876 16.6222 14.014C17.4951 13.8403 18.3999 13.9294 19.2222 14.27C20.0445 14.6106 20.7473 15.1874 21.2417 15.9274C21.7362 16.6674 22.0001 17.5375 22.0001 18.4275C21.9979 19.2731 21.7551 20.1007 21.3001 20.8135L23.7071 23.2205C23.8946 23.408 23.9999 23.6623 23.9999 23.9275C23.9999 24.1927 23.8946 24.447 23.7071 24.6345ZM17.5001 20.9275C17.9946 20.9275 18.4779 20.7809 18.889 20.5062C19.3002 20.2315 19.6206 19.841 19.8098 19.3842C19.999 18.9274 20.0485 18.4247 19.9521 17.9398C19.8556 17.4548 19.6175 17.0094 19.2679 16.6597C18.9183 16.3101 18.4728 16.072 17.9878 15.9755C17.5029 15.8791 17.0002 15.9286 16.5434 16.1178C16.0866 16.307 15.6962 16.6274 15.4214 17.0386C15.1467 17.4497 15.0001 17.933 15.0001 18.4275C15.0001 19.0905 15.2635 19.7264 15.7324 20.1953C16.2012 20.6641 16.8371 20.9275 17.5001 20.9275ZM13.0001 22.9275H7.00012C6.20447 22.9275 5.44141 22.6114 4.8788 22.0488C4.31619 21.4862 4.00012 20.7231 4.00012 19.9275V5.92749C4.00012 5.13184 4.31619 4.36878 4.8788 3.80617C5.44141 3.24356 6.20447 2.92749 7.00012 2.92749H19.0001C19.2653 2.92749 19.5197 3.03285 19.7072 3.22038C19.8948 3.40792 20.0001 3.66227 20.0001 3.92749V11.9275C20.0001 12.1927 20.1055 12.4471 20.293 12.6346C20.4806 12.8221 20.7349 12.9275 21.0001 12.9275C21.2653 12.9275 21.5197 12.8221 21.7072 12.6346C21.8948 12.4471 22.0001 12.1927 22.0001 11.9275V3.92749C22.0001 3.13184 21.6841 2.36878 21.1214 1.80617C20.5588 1.24356 19.7958 0.92749 19.0001 0.92749L7.00012 0.92749C5.67453 0.929078 4.40368 1.45637 3.46634 2.39371C2.529 3.33105 2.00171 4.6019 2.00012 5.92749V19.9275C2.00171 21.2531 2.529 22.5239 3.46634 23.4613C4.40368 24.3986 5.67453 24.9259 7.00012 24.9275H13.0001C13.2653 24.9275 13.5197 24.8221 13.7072 24.6346C13.8948 24.4471 14.0001 24.1927 14.0001 23.9275C14.0001 23.6623 13.8948 23.4079 13.7072 23.2204C13.5197 23.0328 13.2653 22.9275 13.0001 22.9275Z" fill="#374957"/>
</g>
<defs>
<clipPath id="clip0_507_2232">
<rect width="24" height="24" fill="white" transform="translate(0 0.92749)"/>
</clipPath>
</defs>
</svg>
