<svg width="24" height="25" viewBox="0 0 24 25" fill="none" xmlns="http://www.w3.org/2000/svg">
<g clip-path="url(#clip0_507_2316)">
<path d="M16.0002 24.9275H14.0002C13.735 24.9275 13.4806 24.8221 13.2931 24.6346C13.1056 24.4471 13.0002 24.1927 13.0002 23.9275C13.0002 23.6623 13.1056 23.4079 13.2931 23.2204C13.4806 23.0328 13.735 22.9275 14.0002 22.9275H16.0002C16.2654 22.9275 16.5198 22.8221 16.7073 22.6346C16.8949 22.4471 17.0002 22.1927 17.0002 21.9275C17.0002 21.6623 16.8949 21.4079 16.7073 21.2204C16.5198 21.0328 16.2654 20.9275 16.0002 20.9275H12.0002C11.2046 20.9275 10.4415 20.6114 9.8789 20.0488C9.31629 19.4862 9.00022 18.7231 9.00022 17.9275C9.00022 17.1318 9.31629 16.3688 9.8789 15.8062C10.4415 15.2436 11.2046 14.9275 12.0002 14.9275H19.0002C19.2654 14.9275 19.5198 14.8221 19.7073 14.6346C19.8949 14.4471 20.0002 14.1927 20.0002 13.9275C20.0002 13.6623 19.8949 13.4079 19.7073 13.2204C19.5198 13.0328 19.2654 12.9275 19.0002 12.9275H6.00022C-1.93178 12.6745 -1.92578 1.17749 6.00022 0.92749H20.0002C21.0611 0.92749 22.0785 1.34892 22.8286 2.09906C23.5788 2.84921 24.0002 3.86662 24.0002 4.92749C24.0002 5.98836 23.5788 7.00577 22.8286 7.75592C22.0785 8.50606 21.0611 8.92749 20.0002 8.92749H6.00022C5.735 8.92749 5.48065 8.82213 5.29311 8.6346C5.10557 8.44706 5.00022 8.19271 5.00022 7.92749C5.00022 7.66227 5.10557 7.40792 5.29311 7.22038C5.48065 7.03285 5.735 6.92749 6.00022 6.92749H20.0002C20.5307 6.92749 21.0394 6.71678 21.4144 6.3417C21.7895 5.96663 22.0002 5.45792 22.0002 4.92749C22.0002 4.39706 21.7895 3.88835 21.4144 3.51328C21.0394 3.1382 20.5307 2.92749 20.0002 2.92749H6.00022C4.93935 2.92749 3.92194 3.34892 3.17179 4.09906C2.42164 4.84921 2.00022 5.86662 2.00022 6.92749C2.00022 7.98836 2.42164 9.00577 3.17179 9.75592C3.92194 10.5061 4.93935 10.9275 6.00022 10.9275H19.0002C19.7959 10.9275 20.5589 11.2436 21.1215 11.8062C21.6841 12.3688 22.0002 13.1318 22.0002 13.9275C22.0002 14.7231 21.6841 15.4862 21.1215 16.0488C20.5589 16.6114 19.7959 16.9275 19.0002 16.9275H12.0002C11.735 16.9275 11.4806 17.0328 11.2931 17.2204C11.1056 17.4079 11.0002 17.6623 11.0002 17.9275C11.0002 18.1927 11.1056 18.4471 11.2931 18.6346C11.4806 18.8221 11.735 18.9275 12.0002 18.9275H16.0002C16.7959 18.9275 17.5589 19.2436 18.1215 19.8062C18.6841 20.3688 19.0002 21.1318 19.0002 21.9275C19.0002 22.7231 18.6841 23.4862 18.1215 24.0488C17.5589 24.6114 16.7959 24.9275 16.0002 24.9275Z" fill="#374957"/>
</g>
<defs>
<clipPath id="clip0_507_2316">
<rect width="24" height="24" fill="white" transform="translate(0 0.92749)"/>
</clipPath>
</defs>
</svg>
