<svg width="24" height="25" viewBox="0 0 24 25" fill="none" xmlns="http://www.w3.org/2000/svg">
<g clip-path="url(#clip0_507_2043)">
<path d="M15.0001 12.9279C15.0001 13.1932 14.8948 13.4475 14.7072 13.635C14.5197 13.8226 14.2653 13.9279 14.0001 13.9279H13.0001V18.4279C13.0001 18.9224 12.8535 19.4057 12.5788 19.8169C12.3041 20.228 11.9136 20.5484 11.4568 20.7376C11 20.9269 10.4973 20.9764 10.0124 20.8799C9.52744 20.7834 9.08199 20.5453 8.73236 20.1957C8.38272 19.8461 8.14462 19.4006 8.04816 18.9157C7.9517 18.4307 8.0012 17.928 8.19042 17.4712C8.37964 17.0144 8.70007 16.624 9.1112 16.3493C9.52232 16.0746 10.0057 15.9279 10.5001 15.9279C10.668 15.9283 10.8355 15.945 11.0001 15.9779V13.9279C11.0001 13.3975 11.2108 12.8888 11.5859 12.5137C11.961 12.1387 12.4697 11.9279 13.0001 11.9279H14.0001C14.2653 11.9279 14.5197 12.0333 14.7072 12.2208C14.8948 12.4084 15.0001 12.6627 15.0001 12.9279ZM22.0001 11.4129V19.9279C21.9985 21.2535 21.4712 22.5244 20.5339 23.4617C19.5966 24.3991 18.3257 24.9264 17.0001 24.9279H7.00012C5.67453 24.9264 4.40368 24.3991 3.46634 23.4617C2.529 22.5244 2.00171 21.2535 2.00012 19.9279V5.92794C2.00171 4.60235 2.529 3.3315 3.46634 2.39416C4.40368 1.45682 5.67453 0.929529 7.00012 0.927941H11.5151C12.4348 0.92554 13.3459 1.10558 14.1956 1.45763C15.0452 1.80968 15.8166 2.32676 16.4651 2.97894L19.9491 6.46294C20.6013 7.11143 21.1184 7.88284 21.4704 8.73251C21.8225 9.58217 22.0025 10.4932 22.0001 11.4129ZM15.0511 4.39294C14.7366 4.08756 14.3832 3.82497 14.0001 3.61194V7.92794C14.0001 8.19316 14.1055 8.44751 14.293 8.63505C14.4806 8.82258 14.7349 8.92794 15.0001 8.92794H19.3161C19.1031 8.54482 18.8405 8.19144 18.5351 7.87694L15.0511 4.39294ZM20.0001 11.4129C20.0001 11.2479 19.9681 11.0899 19.9531 10.9279H15.0001C14.2045 10.9279 13.4414 10.6119 12.8788 10.0493C12.3162 9.48665 12.0001 8.72359 12.0001 7.92794V2.97494C11.8381 2.95994 11.6801 2.92794 11.5151 2.92794H7.00012C6.20447 2.92794 5.44141 3.24401 4.8788 3.80662C4.31619 4.36923 4.00012 5.13229 4.00012 5.92794V19.9279C4.00012 20.7236 4.31619 21.4867 4.8788 22.0493C5.44141 22.6119 6.20447 22.9279 7.00012 22.9279H17.0001C17.7958 22.9279 18.5588 22.6119 19.1214 22.0493C19.6841 21.4867 20.0001 20.7236 20.0001 19.9279V11.4129Z" fill="#374957"/>
</g>
<defs>
<clipPath id="clip0_507_2043">
<rect width="24" height="24" fill="white" transform="translate(0 0.92749)"/>
</clipPath>
</defs>
</svg>
