<svg width="24" height="25" viewBox="0 0 24 25" fill="none" xmlns="http://www.w3.org/2000/svg">
<g clip-path="url(#clip0_507_2090)">
<path d="M17.5 2.84402C16.3739 2.86154 15.2724 3.17588 14.3067 3.7553C13.341 4.33471 12.5453 5.15869 12 6.14402C11.4546 5.15869 10.6589 4.33471 9.6932 3.7553C8.7275 3.17588 7.62601 2.86154 6.49996 2.84402C4.7049 2.92202 3.01366 3.70728 1.79574 5.02826C0.577818 6.34924 -0.0677922 8.09855 -4.17093e-05 9.89402C-4.17093e-05 14.441 4.78596 19.407 8.79996 22.774C9.69618 23.5272 10.8293 23.9401 12 23.9401C13.1706 23.9401 14.3037 23.5272 15.2 22.774C19.214 19.407 24 14.441 24 9.89402C24.0677 8.09855 23.4221 6.34924 22.2042 5.02826C20.9863 3.70728 19.295 2.92202 17.5 2.84402ZM13.915 21.244C13.3789 21.6954 12.7007 21.9429 12 21.9429C11.2992 21.9429 10.621 21.6954 10.085 21.244C4.94696 16.933 1.99996 12.797 1.99996 9.89402C1.9316 8.62874 2.36632 7.38775 3.20932 6.44172C4.05232 5.49569 5.23519 4.92138 6.49996 4.84402C7.76472 4.92138 8.9476 5.49569 9.7906 6.44172C10.6336 7.38775 11.0683 8.62874 11 9.89402C11 10.1592 11.1053 10.4136 11.2929 10.6011C11.4804 10.7887 11.7347 10.894 12 10.894C12.2652 10.894 12.5195 10.7887 12.7071 10.6011C12.8946 10.4136 13 10.1592 13 9.89402C12.9316 8.62874 13.3663 7.38775 14.2093 6.44172C15.0523 5.49569 16.2352 4.92138 17.5 4.84402C18.7647 4.92138 19.9476 5.49569 20.7906 6.44172C21.6336 7.38775 22.0683 8.62874 22 9.89402C22 12.797 19.053 16.933 13.915 21.24V21.244Z" fill="#374957"/>
</g>
<defs>
<clipPath id="clip0_507_2090">
<rect width="24" height="24" fill="white" transform="translate(0 0.92749)"/>
</clipPath>
</defs>
</svg>
