<svg width="24" height="25" viewBox="0 0 24 25" fill="none" xmlns="http://www.w3.org/2000/svg">
<g clip-path="url(#clip0_507_1872)">
<path d="M6.99982 24.9275C6.86821 24.9282 6.73775 24.903 6.61591 24.8532C6.49407 24.8035 6.38326 24.7301 6.28982 24.6375C6.19609 24.5445 6.12169 24.4339 6.07093 24.312C6.02016 24.1902 5.99402 24.0595 5.99402 23.9275C5.99402 23.7955 6.02016 23.6647 6.07093 23.5429C6.12169 23.421 6.19609 23.3104 6.28982 23.2175L14.4598 15.0475C15.0216 14.485 15.3372 13.7225 15.3372 12.9275C15.3372 12.1325 15.0216 11.37 14.4598 10.8075L6.28982 2.63749C6.10151 2.44919 5.99573 2.19379 5.99573 1.92749C5.99573 1.66119 6.10151 1.4058 6.28982 1.21749C6.47812 1.02919 6.73352 0.923401 6.99982 0.923401C7.26612 0.923401 7.52151 1.02919 7.70982 1.21749L15.8798 9.38748C16.3454 9.85194 16.7149 10.4037 16.9669 11.0111C17.219 11.6186 17.3488 12.2698 17.3488 12.9275C17.3488 13.5851 17.219 14.2364 16.9669 14.8438C16.7149 15.4513 16.3454 16.003 15.8798 16.4675L7.70982 24.6375C7.61638 24.7301 7.50556 24.8035 7.38372 24.8532C7.26189 24.903 7.13142 24.9282 6.99982 24.9275Z" fill="#374957"/>
</g>
<defs>
<clipPath id="clip0_507_1872">
<rect width="24" height="24" fill="white" transform="translate(0 0.92749)"/>
</clipPath>
</defs>
</svg>
