<svg width="24" height="25" viewBox="0 0 24 25" fill="none" xmlns="http://www.w3.org/2000/svg">
<g clip-path="url(#clip0_507_1993)">
<path d="M22.766 5.49346C22.4006 5.34125 21.9981 5.30124 21.6099 5.37853C21.2217 5.45582 20.8653 5.64691 20.586 5.92746L18 8.51346L13.414 3.92746C13.0389 3.55252 12.5303 3.34189 12 3.34189C11.4697 3.34189 10.9611 3.55252 10.586 3.92746L6 8.51346L3.414 5.92746C3.1343 5.64784 2.77797 5.45743 2.39006 5.38029C2.00216 5.30316 1.60009 5.34277 1.23469 5.49411C0.869291 5.64545 0.556965 5.90172 0.337197 6.23054C0.117428 6.55936 8.44486e-05 6.94596 0 7.34146L0 17.9275C0.00158786 19.2531 0.528882 20.5239 1.46622 21.4612C2.40356 22.3986 3.67441 22.9259 5 22.9275H19C20.3256 22.9259 21.5964 22.3986 22.5338 21.4612C23.4711 20.5239 23.9984 19.2531 24 17.9275V7.34146C24.0001 6.94593 23.8829 6.55925 23.6633 6.23031C23.4436 5.90137 23.1314 5.64495 22.766 5.49346ZM22 17.9275C22 18.7231 21.6839 19.4862 21.1213 20.0488C20.5587 20.6114 19.7956 20.9275 19 20.9275H5C4.20435 20.9275 3.44129 20.6114 2.87868 20.0488C2.31607 19.4862 2 18.7231 2 17.9275V7.34146L5.293 10.6345C5.48053 10.8219 5.73484 10.9272 6 10.9272C6.26516 10.9272 6.51947 10.8219 6.707 10.6345L12 5.34146L17.293 10.6345C17.4805 10.8219 17.7348 10.9272 18 10.9272C18.2652 10.9272 18.5195 10.8219 18.707 10.6345L22 7.34146V17.9275Z" fill="#374957"/>
</g>
<defs>
<clipPath id="clip0_507_1993">
<rect width="24" height="24" fill="white" transform="translate(0 0.92749)"/>
</clipPath>
</defs>
</svg>
