<svg width="24" height="25" viewBox="0 0 24 25" fill="none" xmlns="http://www.w3.org/2000/svg">
<g clip-path="url(#clip0_507_1948)">
<path d="M23.4131 19.1674L15.5931 3.2024C15.2639 2.53014 14.7528 1.96373 14.1177 1.56756C13.4826 1.17139 12.7491 0.961365 12.0006 0.961365C11.2521 0.961365 10.5186 1.17139 9.8835 1.56756C9.24842 1.96373 8.73724 2.53014 8.40809 3.2024L0.587087 19.1674C0.288283 19.7772 0.149659 20.4531 0.184279 21.1313C0.218898 21.8095 0.425621 22.4678 0.784968 23.044C1.14431 23.6202 1.64445 24.0955 2.23826 24.425C2.83207 24.7545 3.49999 24.9274 4.17909 24.9274H19.8201C20.4993 24.9276 21.1673 24.7548 21.7613 24.4254C22.3552 24.0959 22.8555 23.6207 23.2149 23.0444C23.5744 22.4682 23.7812 21.8099 23.8159 21.1316C23.8506 20.4533 23.7119 19.7773 23.4131 19.1674ZM19.6001 15.9274H4.40009L6.85009 10.9274H17.1501L19.6001 15.9274ZM10.2001 4.0824C10.3647 3.74641 10.6203 3.46333 10.9378 3.26534C11.2553 3.06735 11.6219 2.96239 11.9961 2.96239C12.3702 2.96239 12.7369 3.06735 13.0544 3.26534C13.3719 3.46333 13.6275 3.74641 13.7921 4.0824L16.1691 8.9274H7.83009L10.2001 4.0824ZM21.5141 21.9824C21.3368 22.2734 21.0868 22.5133 20.7888 22.6784C20.4907 22.8436 20.1548 22.9284 19.8141 22.9244H4.17909C3.8392 22.9251 3.50474 22.8391 3.2073 22.6747C2.90985 22.5102 2.65923 22.2726 2.47908 21.9844C2.29894 21.6962 2.19523 21.3668 2.17773 21.0274C2.16024 20.6879 2.22953 20.3496 2.37909 20.0444L3.42109 17.9274H20.5781L21.6161 20.0474C21.7693 20.3512 21.8408 20.6896 21.8236 21.0294C21.8064 21.3692 21.7011 21.6986 21.5181 21.9854L21.5141 21.9824Z" fill="#374957"/>
</g>
<defs>
<clipPath id="clip0_507_1948">
<rect width="24" height="24" fill="white" transform="translate(0 0.92749)"/>
</clipPath>
</defs>
</svg>
