<svg width="24" height="25" viewBox="0 0 24 25" fill="none" xmlns="http://www.w3.org/2000/svg">
<g clip-path="url(#clip0_507_2099)">
<path d="M21 12.9275H18C17.4696 12.9275 16.9609 13.1382 16.5858 13.5133C16.2107 13.8883 16 14.3971 16 14.9275C16 15.4579 15.7893 15.9666 15.4142 16.3417C15.0391 16.7168 14.5304 16.9275 14 16.9275H10C9.46957 16.9275 8.96086 16.7168 8.58579 16.3417C8.21071 15.9666 8 15.4579 8 14.9275C8 14.3971 7.78929 13.8883 7.41421 13.5133C7.03914 13.1382 6.53043 12.9275 6 12.9275H3C2.20435 12.9275 1.44129 13.2436 0.87868 13.8062C0.31607 14.3688 0 15.1318 0 15.9275L0 19.9275C0.00158786 21.2531 0.528882 22.5239 1.46622 23.4613C2.40356 24.3986 3.67441 24.9259 5 24.9275H19C20.3256 24.9259 21.5964 24.3986 22.5338 23.4613C23.4711 22.5239 23.9984 21.2531 24 19.9275V15.9275C24 15.1318 23.6839 14.3688 23.1213 13.8062C22.5587 13.2436 21.7956 12.9275 21 12.9275ZM22 19.9275C22 20.7231 21.6839 21.4862 21.1213 22.0488C20.5587 22.6114 19.7956 22.9275 19 22.9275H5C4.20435 22.9275 3.44129 22.6114 2.87868 22.0488C2.31607 21.4862 2 20.7231 2 19.9275V15.9275C2 15.6623 2.10536 15.4079 2.29289 15.2204C2.48043 15.0328 2.73478 14.9275 3 14.9275H6C6 15.9884 6.42143 17.0058 7.17157 17.7559C7.92172 18.5061 8.93913 18.9275 10 18.9275H14C15.0609 18.9275 16.0783 18.5061 16.8284 17.7559C17.5786 17.0058 18 15.9884 18 14.9275H21C21.2652 14.9275 21.5196 15.0328 21.7071 15.2204C21.8946 15.4079 22 15.6623 22 15.9275V19.9275Z" fill="#374957"/>
<path d="M2.99988 10.9272H20.9999C21.2651 10.9272 21.5194 10.8218 21.707 10.6343C21.8945 10.4467 21.9999 10.1924 21.9999 9.92717C21.9999 9.66195 21.8945 9.4076 21.707 9.22006C21.5194 9.03253 21.2651 8.92717 20.9999 8.92717H2.99988C2.73466 8.92717 2.48031 9.03253 2.29277 9.22006C2.10523 9.4076 1.99988 9.66195 1.99988 9.92717C1.99988 10.1924 2.10523 10.4467 2.29277 10.6343C2.48031 10.8218 2.73466 10.9272 2.99988 10.9272Z" fill="#374957"/>
<path d="M2.99988 6.92779H20.9999C21.2651 6.92779 21.5194 6.82243 21.707 6.6349C21.8945 6.44736 21.9999 6.19301 21.9999 5.92779C21.9999 5.66258 21.8945 5.40822 21.707 5.22069C21.5194 5.03315 21.2651 4.9278 20.9999 4.9278H2.99988C2.73466 4.9278 2.48031 5.03315 2.29277 5.22069C2.10523 5.40822 1.99988 5.66258 1.99988 5.92779C1.99988 6.19301 2.10523 6.44736 2.29277 6.6349C2.48031 6.82243 2.73466 6.92779 2.99988 6.92779Z" fill="#374957"/>
</g>
<defs>
<clipPath id="clip0_507_2099">
<rect width="24" height="24" fill="white" transform="translate(0 0.92749)"/>
</clipPath>
</defs>
</svg>
