<svg width="24" height="25" viewBox="0 0 24 25" fill="none" xmlns="http://www.w3.org/2000/svg">
<g clip-path="url(#clip0_507_2181)">
<path d="M23.7 1.23488C23.5126 1.04771 23.2585 0.942588 22.9935 0.942588C22.7286 0.942588 22.4745 1.04771 22.287 1.23488L10.093 13.4219C9.23123 12.3912 8.52013 11.2434 7.98104 10.0129L9.13904 8.55888C9.68929 7.9833 9.99695 7.21806 9.99825 6.42178C9.99956 5.6255 9.6944 4.85925 9.14604 4.28188C9.14604 4.28188 7.29404 1.87788 7.26404 1.84788C6.69396 1.27361 5.9208 0.946759 5.11167 0.937964C4.30255 0.92917 3.52246 1.23914 2.94004 1.80088L1.79104 2.80088C-2.22496 7.24888 1.15304 13.5149 5.34004 18.1719L0.300037 23.2079C0.125286 23.3977 0.0306941 23.6478 0.0360392 23.9058C0.0413843 24.1638 0.146252 24.4097 0.328718 24.5922C0.511184 24.7747 0.757121 24.8795 1.01511 24.8849C1.2731 24.8902 1.52317 24.7956 1.71304 24.6209L23.7 2.64788C23.8872 2.46039 23.9923 2.20629 23.9923 1.94138C23.9923 1.67646 23.8872 1.42236 23.7 1.23488ZM2.00704 7.17288C1.99154 6.09022 2.40328 5.04506 3.15304 4.26388L4.30204 3.26388C4.50113 3.06613 4.76827 2.95194 5.04879 2.94469C5.32931 2.93744 5.60199 3.03768 5.81104 3.22488C5.81104 3.22488 7.65204 5.61388 7.68204 5.64388C7.88716 5.84903 8.00239 6.12727 8.00239 6.41738C8.00239 6.70749 7.88716 6.98572 7.68204 7.19088C7.65604 7.21688 6.04804 9.22788 6.04804 9.22788C5.93676 9.36638 5.86439 9.53204 5.83837 9.7078C5.81236 9.88356 5.83365 10.0631 5.90004 10.2279C6.56128 11.9091 7.49587 13.4695 8.66604 14.8459L6.75204 16.7609C3.80904 13.6019 2.00704 10.0149 2.00704 7.17288ZM23.085 17.6609C23.663 18.2418 23.9875 19.0279 23.9875 19.8474C23.9875 20.6668 23.663 21.453 23.085 22.0339L22.175 23.0819C18.3 26.6089 13.6 24.5459 9.20004 21.5729C9.09498 21.4941 9.00647 21.3954 8.93956 21.2824C8.87265 21.1694 8.82866 21.0443 8.81009 20.9143C8.77258 20.6517 8.84091 20.3851 9.00004 20.1729C9.15917 19.9607 9.39606 19.8204 9.65862 19.7829C9.92117 19.7454 10.1879 19.8137 10.4 19.9729C13.909 22.2879 17.732 24.3149 20.72 21.7219L21.631 20.6729C21.8455 20.4755 21.9744 20.2022 21.9903 19.9112C22.0061 19.6201 21.9077 19.3344 21.716 19.1149C21.716 19.1149 19.324 17.2749 19.294 17.2449C19.0881 17.0409 18.8099 16.9265 18.52 16.9265C18.2302 16.9265 17.952 17.0409 17.746 17.2449C17.719 17.2719 15.703 18.8779 15.703 18.8779C15.5695 18.9848 15.4105 19.0554 15.2417 19.0829C15.0728 19.1105 14.8996 19.0939 14.739 19.0349C14.0824 18.7851 13.4436 18.4907 12.827 18.1539C12.6138 18.0195 12.4593 17.8095 12.3942 17.566C12.3292 17.3225 12.3585 17.0634 12.4763 16.8406C12.5941 16.6178 12.7917 16.4477 13.0295 16.3643C13.2673 16.2809 13.5279 16.2904 13.759 16.3909C14.13 16.5909 14.515 16.7819 14.915 16.9519L16.377 15.7889C16.9528 15.2385 17.7183 14.9308 18.5148 14.9297C19.3114 14.9286 20.0777 15.2341 20.655 15.7829C20.655 15.7829 23.054 17.6279 23.085 17.6609Z" fill="#374957"/>
</g>
<defs>
<clipPath id="clip0_507_2181">
<rect width="24" height="24" fill="white" transform="translate(0 0.92749)"/>
</clipPath>
</defs>
</svg>
