<svg width="24" height="25" viewBox="0 0 24 25" fill="none" xmlns="http://www.w3.org/2000/svg">
<g clip-path="url(#clip0_507_2044)">
<path d="M14.9568 11.283C14.9579 11.6274 15.2374 11.906 15.5818 11.906C15.5818 11.906 16.6538 11.906 17.0678 11.894C18.5998 11.868 19.6998 10.536 19.6998 8.728C19.6998 6.82802 18.6198 5.55002 17.0138 5.55002H15.5708C15.2253 5.55114 14.9458 5.8315 14.9458 6.17702L14.9568 11.283ZM17.0178 6.79994C18.0768 6.79994 18.4538 7.79992 18.4538 8.72796C18.4538 9.65599 18.0198 10.6279 17.0488 10.644C16.8488 10.644 16.5109 10.651 16.2049 10.653L16.1998 6.79999L17.0178 6.79994Z" fill="#374957"/>
<path d="M12.122 8.18293C11.849 8.08993 11.566 8.03893 11.287 7.96594C11.0656 7.92127 10.8604 7.81763 10.693 7.66594C10.5259 7.50741 10.4665 7.26596 10.541 7.04794C10.6358 6.86007 10.8222 6.73561 11.032 6.71996C11.2383 6.70711 11.4451 6.73744 11.639 6.80897C11.9181 6.89607 12.1918 6.99924 12.459 7.11797C12.753 7.24697 13.1 7.32399 13.337 7.04396C13.5125 6.83358 13.5256 6.53175 13.369 6.30694C13.2655 6.1561 13.1255 6.03399 12.962 5.95196C12.23 5.52216 11.3564 5.40296 10.536 5.62097C10.1026 5.75813 9.73648 6.05288 9.50998 6.44696C9.40376 6.63389 9.33354 6.83911 9.30298 7.05197C9.2472 7.4348 9.33021 7.82499 9.53698 8.15199C9.77033 8.49361 10.1072 8.75124 10.498 8.88699C10.907 9.05499 11.316 9.21797 11.731 9.36999C11.9094 9.42666 12.0738 9.52074 12.213 9.64599C12.3688 9.79486 12.4266 10.0193 12.362 10.225C12.2777 10.422 12.1103 10.5714 11.905 10.633C11.5928 10.7504 11.2508 10.7626 10.931 10.668C10.6198 10.5554 10.3322 10.3858 10.083 10.168C10.057 10.147 9.97198 10.083 9.956 10.068C9.72298 9.90141 9.40465 9.92274 9.19601 10.119C8.94031 10.3509 8.921 10.7461 9.15284 11.0018C9.15289 11.0019 9.15293 11.0019 9.15298 11.002C9.74961 11.6356 10.5828 11.9924 11.453 11.987C12.4843 12.0323 13.4007 11.3343 13.631 10.328C13.7281 9.71907 13.5006 9.1036 13.031 8.70404C12.7655 8.47182 12.4565 8.29472 12.122 8.18293Z" fill="#374957"/>
<path d="M4.12097 6.09607V11.3581C4.12097 11.7033 4.40082 11.9831 4.74596 11.9831C5.0911 11.9831 5.37094 11.7032 5.37094 11.3581V9.69508H6.21094C7.37626 9.69508 8.32093 8.75041 8.32093 7.5851C8.32093 6.41979 7.37626 5.47511 6.21094 5.47511L6.20494 5.47113H4.73996C4.69754 5.47188 4.47385 5.48008 4.29699 5.66355C4.12782 5.83905 4.1213 6.05083 4.12097 6.09607ZM6.20494 8.44108H5.37296L5.36696 6.7211H6.20494C6.67993 6.72086 7.06515 7.10571 7.06538 7.58069C7.06562 8.05568 6.68077 8.4409 6.20579 8.44113C6.20555 8.44108 6.20523 8.44108 6.20494 8.44108Z" fill="#374957"/>
<path d="M19 0.92749H5.00002C2.23997 0.930818 0.00332812 3.16746 0 5.92751V19.9275C0.00332812 22.6875 2.23997 24.9242 5.00002 24.9275H16.343C17.6699 24.9313 18.9432 24.4041 19.879 23.4635L22.535 20.8055C23.4757 19.8701 24.0033 18.5972 24 17.2705V5.92751C23.9967 3.16746 21.76 0.930818 19 0.92749ZM2.00002 19.9275V5.92751C2.00002 4.27066 3.34317 2.92751 5.00002 2.92751H19C20.6569 2.92751 22 4.27066 22 5.92751V15.9275H18C16.3432 15.9275 15 17.2706 15 18.9275V22.9275H5.00002C3.34312 22.9275 2.00002 21.5844 2.00002 19.9275ZM18.465 22.0495C18.063 22.4505 17.5547 22.7281 17 22.8495V18.9275C17 18.3752 17.4477 17.9275 18 17.9275H21.925C21.8013 18.481 21.524 18.9884 21.125 19.3915L18.465 22.0495Z" fill="#374957"/>
</g>
<defs>
<clipPath id="clip0_507_2044">
<rect width="24" height="24" fill="white" transform="translate(0 0.92749)"/>
</clipPath>
</defs>
</svg>
