<svg width="24" height="25" viewBox="0 0 24 25" fill="none" xmlns="http://www.w3.org/2000/svg">
<g clip-path="url(#clip0_507_2086)">
<path d="M19.7999 5.34671C18.6275 3.75811 17.0457 2.51777 15.2233 1.75814C13.401 0.998508 11.4065 0.748118 9.4529 1.03371C7.55274 1.30386 5.75634 2.06647 4.24215 3.24578C2.72795 4.42509 1.54867 5.98006 0.821445 7.75621C0.0942225 9.53236 -0.155627 11.4679 0.0967171 13.3705C0.349061 15.2731 1.09482 17.0765 2.2599 18.6017C2.75596 19.2854 3.01574 20.1121 2.9999 20.9567V21.9277C2.9999 22.7234 3.31597 23.4864 3.87858 24.049C4.44119 24.6116 5.20425 24.9277 5.9999 24.9277H12.9999C13.7955 24.9277 14.5586 24.6116 15.1212 24.049C15.6838 23.4864 15.9999 22.7234 15.9999 21.9277H16.4939C17.7057 21.9248 18.8755 21.483 19.7868 20.6843C20.698 19.8855 21.2892 18.7837 21.4509 17.5827L21.6699 15.9277H21.9999C22.2641 15.9333 22.5266 15.8854 22.7718 15.7869C23.017 15.6883 23.2397 15.5412 23.4266 15.3544C23.6134 15.1675 23.7605 14.9448 23.859 14.6996C23.9576 14.4545 24.0055 14.1919 23.9999 13.9277C23.9999 12.5077 21.0679 6.91271 19.7999 5.34671ZM20.7929 13.9277C20.5504 13.9278 20.3163 14.016 20.134 14.1758C19.9517 14.3357 19.8337 14.5563 19.8019 14.7967L19.4679 17.3217C19.3708 18.0421 19.016 18.703 18.4693 19.1821C17.9225 19.6611 17.2208 19.926 16.4939 19.9277H14.9999C14.7347 19.9277 14.4803 20.0331 14.2928 20.2206C14.1053 20.4081 13.9999 20.6625 13.9999 20.9277V21.9277C13.9999 22.1929 13.8945 22.4473 13.707 22.6348C13.5195 22.8224 13.2651 22.9277 12.9999 22.9277H5.9999C5.73468 22.9277 5.48033 22.8224 5.29279 22.6348C5.10525 22.4473 4.9999 22.1929 4.9999 21.9277V20.9567C5.01501 19.6728 4.6109 18.4191 3.8489 17.3857C2.89676 16.1385 2.28725 14.664 2.08083 13.1085C1.87441 11.553 2.07826 9.97056 2.67216 8.51816C3.26606 7.06577 4.22936 5.79388 5.46651 4.82867C6.70366 3.86346 8.17166 3.23848 9.7249 3.01571C10.149 2.95683 10.5767 2.92743 11.0049 2.92771C12.41 2.92581 13.7959 3.25513 15.0499 3.88895C16.304 4.52276 17.3911 5.44323 18.2229 6.57571C19.8023 8.8481 21.0724 11.3204 21.9999 13.9277H20.7929ZM16.1999 8.93871C16.1345 8.82473 16.0472 8.72477 15.9432 8.64453C15.8391 8.5643 15.7202 8.50536 15.5934 8.47109C15.4665 8.43682 15.3341 8.42789 15.2038 8.44481C15.0735 8.46173 14.9478 8.50417 14.8339 8.56971L13.8519 9.13371C13.3426 8.61749 12.7024 8.24967 11.9999 8.06971V6.92771C11.9999 6.66249 11.8945 6.40814 11.707 6.2206C11.5195 6.03306 11.2651 5.92771 10.9999 5.92771C10.7347 5.92771 10.4803 6.03306 10.2928 6.2206C10.1053 6.40814 9.9999 6.66249 9.9999 6.92771V8.06971C9.29634 8.24917 8.65502 8.61702 8.1449 9.13371L7.1629 8.56971C7.04904 8.50405 6.92337 8.46145 6.79305 8.44436C6.66273 8.42727 6.53033 8.43601 6.40339 8.47009C6.27645 8.50417 6.15747 8.56292 6.05324 8.64298C5.949 8.72304 5.86156 8.82285 5.7959 8.93671C5.73024 9.05056 5.68764 9.17624 5.67055 9.30655C5.65346 9.43687 5.6622 9.56928 5.69628 9.69622C5.73036 9.82315 5.78911 9.94214 5.86917 10.0464C5.94923 10.1506 6.04904 10.238 6.1629 10.3037L7.1559 10.8747C7.05648 11.217 7.004 11.5713 6.9999 11.9277C7.00497 12.2843 7.05846 12.6385 7.1589 12.9807L6.1659 13.5517C5.93595 13.6843 5.76811 13.9028 5.69928 14.1592C5.63046 14.4156 5.66629 14.6888 5.7989 14.9187C5.93151 15.1487 6.15003 15.3165 6.40639 15.3853C6.66275 15.4541 6.93595 15.4183 7.1659 15.2857L8.1479 14.7217C8.65719 15.2379 9.29742 15.6057 9.9999 15.7857V16.9277C9.9999 17.1929 10.1053 17.4473 10.2928 17.6348C10.4803 17.8224 10.7347 17.9277 10.9999 17.9277C11.2651 17.9277 11.5195 17.8224 11.707 17.6348C11.8945 17.4473 11.9999 17.1929 11.9999 16.9277V15.7857C12.7034 15.6062 13.3448 15.2384 13.8549 14.7217L14.8369 15.2857C14.9508 15.3514 15.0764 15.394 15.2067 15.4111C15.3371 15.4281 15.4695 15.4194 15.5964 15.3853C15.7233 15.3512 15.8423 15.2925 15.9466 15.2124C16.0508 15.1324 16.1382 15.0326 16.2039 14.9187C16.2696 14.8049 16.3122 14.6792 16.3292 14.5489C16.3463 14.4185 16.3376 14.2861 16.3035 14.1592C16.2694 14.0323 16.2107 13.9133 16.1306 13.809C16.0506 13.7048 15.9508 13.6174 15.8369 13.5517L14.8439 12.9807C14.9433 12.6384 14.9958 12.2842 14.9999 11.9277C14.9948 11.5711 14.9413 11.2169 14.8409 10.8747L15.8339 10.3037C16.0633 10.1711 16.2307 9.95286 16.2993 9.69693C16.3679 9.441 16.3322 9.1683 16.1999 8.93871ZM10.9999 13.9277C10.6043 13.9277 10.2177 13.8104 9.88876 13.5906C9.55986 13.3709 9.30351 13.0585 9.15214 12.6931C9.00076 12.3276 8.96116 11.9255 9.03833 11.5375C9.1155 11.1496 9.30598 10.7932 9.58568 10.5135C9.86539 10.2338 10.2218 10.0433 10.6097 9.96614C10.9977 9.88897 11.3998 9.92857 11.7653 10.0799C12.1307 10.2313 12.4431 10.4877 12.6628 10.8166C12.8826 11.1455 12.9999 11.5321 12.9999 11.9277C12.9999 12.4581 12.7892 12.9668 12.4141 13.3419C12.039 13.717 11.5303 13.9277 10.9999 13.9277Z" fill="#374957"/>
</g>
<defs>
<clipPath id="clip0_507_2086">
<rect width="24" height="24" fill="white" transform="translate(0 0.92749)"/>
</clipPath>
</defs>
</svg>
