<svg width="24" height="25" viewBox="0 0 24 25" fill="none" xmlns="http://www.w3.org/2000/svg">
<g clip-path="url(#clip0_507_2073)">
<path d="M12.9999 16.9272C14.5822 16.9272 16.1289 16.458 17.4445 15.5789C18.7601 14.6999 19.7855 13.4504 20.391 11.9886C20.9965 10.5268 21.1549 8.91828 20.8462 7.36643C20.5375 5.81459 19.7756 4.38912 18.6568 3.2703C17.538 2.15148 16.1125 1.38956 14.5607 1.08087C13.0088 0.772192 11.4003 0.930618 9.93848 1.53612C8.47667 2.14162 7.22724 3.167 6.34819 4.48259C5.46914 5.79819 4.99995 7.3449 4.99995 8.92716C5.00233 11.0482 5.84595 13.0816 7.34573 14.5814C8.8455 16.0812 10.8789 16.9248 12.9999 16.9272ZM12.9999 2.92716C14.1866 2.92716 15.3467 3.27905 16.3334 3.93834C17.3201 4.59763 18.0891 5.5347 18.5432 6.63105C18.9974 7.72741 19.1162 8.93381 18.8847 10.0977C18.6531 11.2616 18.0817 12.3307 17.2426 13.1698C16.4035 14.0089 15.3344 14.5804 14.1705 14.8119C13.0066 15.0434 11.8002 14.9246 10.7038 14.4704C9.60749 14.0163 8.67042 13.2473 8.01113 12.2606C7.35184 11.2739 6.99995 10.1138 6.99995 8.92716C7.00154 7.33634 7.63419 5.81114 8.75906 4.68627C9.88394 3.5614 11.4091 2.92874 12.9999 2.92716ZM22.9069 15.7002C21.8991 17.1686 20.5768 18.3942 19.0361 19.2878C17.4954 20.1814 15.7751 20.7205 13.9999 20.8662V22.9272H17.9999C18.2652 22.9272 18.5195 23.0325 18.7071 23.22C18.8946 23.4076 18.9999 23.6619 18.9999 23.9272C18.9999 24.1924 18.8946 24.4467 18.7071 24.6343C18.5195 24.8218 18.2652 24.9272 17.9999 24.9272H7.99995C7.73473 24.9272 7.48038 24.8218 7.29284 24.6343C7.10531 24.4467 6.99995 24.1924 6.99995 23.9272C6.99995 23.6619 7.10531 23.4076 7.29284 23.22C7.48038 23.0325 7.73473 22.9272 7.99995 22.9272H11.9999V20.8762C9.81739 20.6946 7.72621 19.9189 5.95323 18.6332C4.18024 17.3474 2.79313 15.6008 1.94235 13.5827C1.09157 11.5646 0.809593 9.35211 1.12701 7.18514C1.44442 5.01816 2.34911 2.97946 3.74295 1.29016C3.91189 1.08567 4.15514 0.956679 4.4192 0.931549C4.68325 0.906419 4.94647 0.987213 5.15095 1.15616C5.35543 1.3251 5.48442 1.56835 5.50955 1.8324C5.53468 2.09645 5.45389 2.35967 5.28495 2.56416C4.4265 3.60667 3.7881 4.81226 3.40826 6.10821C3.02843 7.40417 2.91502 8.76363 3.07488 10.1046C3.23475 11.4456 3.66457 12.7403 4.33843 13.9106C5.01228 15.081 5.91621 16.1027 6.99569 16.9142C8.07516 17.7256 9.30782 18.3101 10.6193 18.6322C11.9308 18.9543 13.294 19.0075 14.6265 18.7884C15.9591 18.5694 17.2335 18.0827 18.3729 17.3577C19.5123 16.6327 20.493 15.6845 21.2559 14.5702C21.4058 14.3512 21.6365 14.2008 21.8972 14.1519C22.158 14.1031 22.4275 14.1598 22.6464 14.3097C22.8654 14.4595 23.0158 14.6902 23.0647 14.951C23.1135 15.2117 23.0568 15.4812 22.9069 15.7002Z" fill="#374957"/>
</g>
<defs>
<clipPath id="clip0_507_2073">
<rect width="24" height="24" fill="white" transform="translate(0 0.92749)"/>
</clipPath>
</defs>
</svg>
