<svg width="24" height="25" viewBox="0 0 24 25" fill="none" xmlns="http://www.w3.org/2000/svg">
<g clip-path="url(#clip0_507_2095)">
<path d="M17.0002 24.9275H7.00521C6.42682 24.9269 5.85537 24.8016 5.32986 24.5599C4.80435 24.3183 4.33717 23.9662 3.96021 23.5275C3.58939 23.098 3.31559 22.5935 3.15751 22.0485C2.99943 21.5035 2.96078 20.9308 3.04421 20.3695C3.58071 17.4448 5.14084 14.8067 7.44521 12.9275C5.14081 11.0476 3.581 8.40873 3.04521 5.48349C2.96195 4.92258 3.00058 4.35032 3.15848 3.80569C3.31638 3.26106 3.58984 2.75688 3.96021 2.32749C4.33717 1.88882 4.80435 1.53665 5.32986 1.29504C5.85537 1.05343 6.42682 0.928057 7.00521 0.92749L17.0002 0.92749C17.5785 0.928002 18.1498 1.05335 18.6751 1.29497C19.2005 1.53659 19.6675 1.88879 20.0442 2.32749C20.4151 2.75644 20.6891 3.26034 20.8475 3.80481C21.0059 4.34928 21.0451 4.92152 20.9622 5.48249C20.4205 8.40844 18.8573 11.0469 16.5512 12.9275C18.856 14.8097 20.4174 17.4492 20.9572 20.3755C21.0401 20.9366 21.0011 21.509 20.8426 22.0537C20.6842 22.5983 20.4102 23.1024 20.0392 23.5315C19.6627 23.9688 19.1963 24.3199 18.6719 24.5608C18.1475 24.8017 17.5773 24.9268 17.0002 24.9275ZM17.0002 2.92749H7.00521C6.71513 2.92725 6.42843 2.98967 6.1647 3.11048C5.90098 3.2313 5.66647 3.40766 5.47721 3.62749C5.29231 3.83786 5.15574 4.0862 5.07714 4.35503C4.99853 4.62385 4.97978 4.90664 5.02221 5.18349C5.39721 7.68349 6.94421 10.0235 9.62221 12.1405C9.74046 12.2341 9.83599 12.3533 9.90166 12.489C9.96734 12.6248 10.0015 12.7737 10.0015 12.9245C10.0015 13.0753 9.96734 13.2242 9.90166 13.3599C9.83599 13.4957 9.74046 13.6149 9.62221 13.7085C6.94421 15.8275 5.40021 18.1695 5.02221 20.6685C4.97932 20.9458 4.99784 21.2292 5.07646 21.4986C5.15508 21.7679 5.29189 22.0168 5.47721 22.2275C5.66647 22.4473 5.90098 22.6237 6.1647 22.7445C6.42843 22.8653 6.71513 22.9277 7.00521 22.9275H17.0002C17.2903 22.9277 17.577 22.8653 17.8407 22.7445C18.1044 22.6237 18.339 22.4473 18.5282 22.2275C18.713 22.0174 18.8496 21.7695 18.9284 21.501C19.0072 21.2325 19.0262 20.9501 18.9842 20.6735C18.6112 18.1865 17.0642 15.8445 14.3842 13.7115C14.2667 13.6178 14.1718 13.4989 14.1066 13.3635C14.0414 13.2281 14.0075 13.0798 14.0075 12.9295C14.0075 12.7792 14.0414 12.6309 14.1066 12.4955C14.1718 12.3601 14.2667 12.2412 14.3842 12.1475C17.0652 10.0145 18.6122 7.67249 18.9842 5.18449C19.0261 4.90704 19.0065 4.62378 18.9268 4.35474C18.8472 4.08569 18.7094 3.83743 18.5232 3.62749C18.3345 3.40829 18.1008 3.23231 17.838 3.11152C17.5752 2.99073 17.2894 2.92796 17.0002 2.92749Z" fill="#374957"/>
</g>
<defs>
<clipPath id="clip0_507_2095">
<rect width="24" height="24" fill="white" transform="translate(0 0.92749)"/>
</clipPath>
</defs>
</svg>
