<svg width="24" height="25" viewBox="0 0 24 25" fill="none" xmlns="http://www.w3.org/2000/svg">
<g clip-path="url(#clip0_507_2142)">
<path d="M21.0117 0.92749H16.0312C15.4811 0.92749 15.0352 1.37421 15.0352 1.92522C15.0352 2.47624 15.4811 2.92296 16.0312 2.92296H20.5994L13.794 9.73957C10.1109 6.82957 4.77003 7.46121 1.86485 11.1504C-1.04032 14.8395 -0.409758 20.1892 3.27331 23.0992C6.95638 26.0092 12.2973 25.3775 15.2024 21.6884C17.6357 18.5985 17.6357 14.2403 15.2024 11.1504L22.0079 4.3338V8.90946C22.0079 9.46052 22.4538 9.90719 23.004 9.90719C23.5541 9.90719 24.0001 9.46047 24.0001 8.90946V3.92074C24.0001 2.2676 22.6621 0.92749 21.0117 0.92749ZM8.56044 22.8779C4.98458 22.8779 2.08578 19.9743 2.08578 16.3925C2.08578 12.8108 4.98458 9.90719 8.56044 9.90719C12.1363 9.90719 15.0351 12.8108 15.0351 16.3925C15.0307 19.9725 12.1345 22.8735 8.56044 22.8779Z" fill="#374957"/>
</g>
<defs>
<clipPath id="clip0_507_2142">
<rect width="24" height="24" fill="white" transform="translate(0 0.92749)"/>
</clipPath>
</defs>
</svg>
