<svg width="24" height="25" viewBox="0 0 24 25" fill="none" xmlns="http://www.w3.org/2000/svg">
<g clip-path="url(#clip0_507_2109)">
<path d="M7.5051 24.9271C5.69485 24.9259 3.94611 24.2701 2.58155 23.0805C1.217 21.891 0.328736 20.2481 0.0806626 18.4549C-0.167411 16.6617 0.241451 14.8393 1.2318 13.324C2.22215 11.8087 3.72716 10.7027 5.4691 10.2101C6.73523 9.84752 8.07539 9.83095 9.3501 10.1621L17.2581 2.2561C17.6779 1.83338 18.1775 1.49823 18.7278 1.27009C19.2782 1.04195 19.8683 0.925368 20.4641 0.927097C21.4017 0.927892 22.3006 1.30069 22.9636 1.96364C23.6265 2.6266 23.9993 3.52554 24.0001 4.4631C24.0016 5.05889 23.8851 5.64908 23.6571 6.19954C23.4292 6.75 23.0944 7.24982 22.6721 7.6701L22.0001 8.3421C21.6241 8.71554 21.116 8.92572 20.5861 8.9271H19.0001V9.9271C19.0001 10.4575 18.7894 10.9662 18.4143 11.3413C18.0392 11.7164 17.5305 11.9271 17.0001 11.9271H16.0001V13.5131C16.0008 13.7758 15.9494 14.0361 15.8488 14.2788C15.7482 14.5215 15.6005 14.7419 15.4141 14.9271L14.7641 15.5771C15.0971 16.8512 15.0808 18.1914 14.7171 19.4571C14.3078 20.8991 13.4774 22.1861 12.3322 23.1533C11.1871 24.1205 9.77926 24.7239 8.2891 24.8861C8.02864 24.9132 7.76696 24.9269 7.5051 24.9271ZM7.5051 11.9271C6.48125 11.9261 5.47745 12.2109 4.60669 12.7495C3.73593 13.288 3.03278 14.059 2.5764 14.9755C2.12002 15.892 1.92853 16.9177 2.02347 17.9371C2.11842 18.9566 2.49604 19.9293 3.11382 20.7457C3.7316 21.5622 4.56502 22.19 5.52026 22.5585C6.47549 22.927 7.51463 23.0216 8.52069 22.8315C9.52675 22.6415 10.4598 22.1744 11.2148 21.4828C11.9698 20.7912 12.5167 19.9027 12.7941 18.9171C13.1061 17.8336 13.0711 16.6797 12.6941 15.6171C12.6326 15.4396 12.6223 15.2484 12.6644 15.0654C12.7064 14.8823 12.7992 14.7149 12.9321 14.5821L14.0001 13.5131V11.9271C14.0001 11.3967 14.2108 10.888 14.5859 10.5129C14.961 10.1378 15.4697 9.9271 16.0001 9.9271H17.0001V8.9271C17.0001 8.39666 17.2108 7.88796 17.5859 7.51288C17.961 7.13781 18.4697 6.9271 19.0001 6.9271H20.5861L21.2581 6.2551C21.4941 6.02025 21.6811 5.74096 21.8085 5.43337C21.9358 5.12579 22.001 4.79601 22.0001 4.4631C21.9998 4.05598 21.8381 3.6656 21.5503 3.37763C21.2625 3.08966 20.8722 2.92763 20.4651 2.9271C20.132 2.92628 19.802 2.99152 19.4942 3.11906C19.1864 3.24659 18.907 3.43388 18.6721 3.6701L10.3411 12.0001C10.2081 12.133 10.0404 12.2257 9.85719 12.2676C9.67395 12.3095 9.4826 12.299 9.3051 12.2371C8.72517 12.0329 8.11493 11.9281 7.5001 11.9271H7.5051ZM5.0001 18.9271C5.0001 19.1249 5.05875 19.3182 5.16863 19.4827C5.27851 19.6471 5.43469 19.7753 5.61742 19.851C5.80014 19.9267 6.00121 19.9465 6.19519 19.9079C6.38917 19.8693 6.56735 19.7741 6.70721 19.6342C6.84706 19.4944 6.9423 19.3162 6.98089 19.1222C7.01947 18.9282 6.99967 18.7271 6.92398 18.5444C6.84829 18.3617 6.72012 18.2055 6.55567 18.0956C6.39122 17.9857 6.19788 17.9271 6.0001 17.9271C5.73488 17.9271 5.48053 18.0325 5.29299 18.22C5.10546 18.4075 5.0001 18.6619 5.0001 18.9271Z" fill="#374957"/>
</g>
<defs>
<clipPath id="clip0_507_2109">
<rect width="24" height="24" fill="white" transform="translate(0 0.92749)"/>
</clipPath>
</defs>
</svg>
