<svg width="24" height="25" viewBox="0 0 24 25" fill="none" xmlns="http://www.w3.org/2000/svg">
<g clip-path="url(#clip0_507_2260)">
<path d="M15.0001 0.92749H9.00012C7.67453 0.929078 6.40368 1.45637 5.46634 2.39371C4.529 3.33105 4.00171 4.6019 4.00012 5.92749V19.9275C4.00171 21.2531 4.529 22.5239 5.46634 23.4613C6.40368 24.3986 7.67453 24.9259 9.00012 24.9275H15.0001C16.3257 24.9259 17.5966 24.3986 18.5339 23.4613C19.4712 22.5239 19.9985 21.2531 20.0001 19.9275V5.92749C19.9985 4.6019 19.4712 3.33105 18.5339 2.39371C17.5966 1.45637 16.3257 0.929078 15.0001 0.92749V0.92749ZM9.00012 2.92749H15.0001C15.7958 2.92749 16.5588 3.24356 17.1214 3.80617C17.6841 4.36878 18.0001 5.13184 18.0001 5.92749V16.9275H6.00012V5.92749C6.00012 5.13184 6.31619 4.36878 6.8788 3.80617C7.44141 3.24356 8.20447 2.92749 9.00012 2.92749ZM15.0001 22.9275H9.00012C8.20447 22.9275 7.44141 22.6114 6.8788 22.0488C6.31619 21.4862 6.00012 20.7231 6.00012 19.9275V18.9275H18.0001V19.9275C18.0001 20.7231 17.6841 21.4862 17.1214 22.0488C16.5588 22.6114 15.7958 22.9275 15.0001 22.9275Z" fill="#374957"/>
<path d="M12.0001 21.9269C12.5524 21.9269 13.0001 21.4792 13.0001 20.9269C13.0001 20.3746 12.5524 19.9269 12.0001 19.9269C11.4478 19.9269 11.0001 20.3746 11.0001 20.9269C11.0001 21.4792 11.4478 21.9269 12.0001 21.9269Z" fill="#374957"/>
</g>
<defs>
<clipPath id="clip0_507_2260">
<rect width="24" height="24" fill="white" transform="translate(0 0.92749)"/>
</clipPath>
</defs>
</svg>
