<svg width="24" height="25" viewBox="0 0 24 25" fill="none" xmlns="http://www.w3.org/2000/svg">
<g clip-path="url(#clip0_507_2101)">
<path d="M1 6.92779H23C23.2652 6.92779 23.5196 6.82243 23.7071 6.6349C23.8946 6.44736 24 6.19301 24 5.92779C24 5.66258 23.8946 5.40822 23.7071 5.22069C23.5196 5.03315 23.2652 4.9278 23 4.9278H1C0.734784 4.9278 0.48043 5.03315 0.292893 5.22069C0.105357 5.40822 0 5.66258 0 5.92779C0 6.19301 0.105357 6.44736 0.292893 6.6349C0.48043 6.82243 0.734784 6.92779 1 6.92779Z" fill="#374957"/>
<path d="M23.0001 9.92749H9.00012C8.73491 9.92749 8.48055 10.0328 8.29302 10.2204C8.10548 10.4079 8.00012 10.6623 8.00012 10.9275C8.00012 11.1927 8.10548 11.4471 8.29302 11.6346C8.48055 11.8221 8.73491 11.9275 9.00012 11.9275H23.0001C23.2653 11.9275 23.5197 11.8221 23.7072 11.6346C23.8948 11.4471 24.0001 11.1927 24.0001 10.9275C24.0001 10.6623 23.8948 10.4079 23.7072 10.2204C23.5197 10.0328 23.2653 9.92749 23.0001 9.92749Z" fill="#374957"/>
<path d="M23 19.9278H1C0.734784 19.9278 0.48043 20.0332 0.292893 20.2207C0.105357 20.4082 0 20.6626 0 20.9278C0 21.193 0.105357 21.4474 0.292893 21.6349C0.48043 21.8225 0.734784 21.9278 1 21.9278H23C23.2652 21.9278 23.5196 21.8225 23.7071 21.6349C23.8946 21.4474 24 21.193 24 20.9278C24 20.6626 23.8946 20.4082 23.7071 20.2207C23.5196 20.0332 23.2652 19.9278 23 19.9278Z" fill="#374957"/>
<path d="M23.0001 14.9272H9.00012C8.73491 14.9272 8.48055 15.0325 8.29302 15.2201C8.10548 15.4076 8.00012 15.662 8.00012 15.9272C8.00012 16.1924 8.10548 16.4467 8.29302 16.6343C8.48055 16.8218 8.73491 16.9272 9.00012 16.9272H23.0001C23.2653 16.9272 23.5197 16.8218 23.7072 16.6343C23.8948 16.4467 24.0001 16.1924 24.0001 15.9272C24.0001 15.662 23.8948 15.4076 23.7072 15.2201C23.5197 15.0325 23.2653 14.9272 23.0001 14.9272Z" fill="#374957"/>
<path d="M1.707 17.1724L4.681 14.1984C4.88508 13.9937 4.99968 13.7164 4.99968 13.4274C4.99968 13.1383 4.88508 12.8611 4.681 12.6564L1.707 9.68237C1.56709 9.5425 1.38883 9.44728 1.19479 9.40874C1.00074 9.37021 0.799624 9.39009 0.616884 9.46589C0.434143 9.54168 0.27799 9.66998 0.168182 9.83454C0.0583736 9.9991 -0.00015534 10.1925 3.09641e-07 10.3904V16.4644C-0.00015534 16.6622 0.0583736 16.8556 0.168182 17.0202C0.27799 17.1848 0.434143 17.3131 0.616884 17.3889C0.799624 17.4647 1.00074 17.4845 1.19479 17.446C1.38883 17.4075 1.56709 17.3122 1.707 17.1724Z" fill="#374957"/>
</g>
<defs>
<clipPath id="clip0_507_2101">
<rect width="24" height="24" fill="white" transform="translate(0 0.92749)"/>
</clipPath>
</defs>
</svg>
