<svg width="24" height="25" viewBox="0 0 24 25" fill="none" xmlns="http://www.w3.org/2000/svg">
<g clip-path="url(#clip0_507_1904)">
<path d="M19 6.92755H13C12.0868 6.9309 11.1921 7.18492 10.4134 7.66192C9.63465 8.13891 9.00186 8.82057 8.584 9.63255C7.9844 9.17734 7.25282 8.92985 6.5 8.92755C5.57174 8.92755 4.6815 9.2963 4.02513 9.95268C3.36875 10.6091 3 11.4993 3 12.4276C3.00293 12.9476 3.12289 13.4602 3.351 13.9276H2V3.92755C2 3.66233 1.89464 3.40798 1.70711 3.22044C1.51957 3.03291 1.26522 2.92755 1 2.92755C0.734784 2.92755 0.48043 3.03291 0.292893 3.22044C0.105357 3.40798 0 3.66233 0 3.92755L0 21.9276C0 22.1928 0.105357 22.4471 0.292893 22.6347C0.48043 22.8222 0.734784 22.9276 1 22.9276C1.26522 22.9276 1.51957 22.8222 1.70711 22.6347C1.89464 22.4471 2 22.1928 2 21.9276V19.9276H22V21.9276C22 22.1928 22.1054 22.4471 22.2929 22.6347C22.4804 22.8222 22.7348 22.9276 23 22.9276C23.2652 22.9276 23.5196 22.8222 23.7071 22.6347C23.8946 22.4471 24 22.1928 24 21.9276V11.9276C23.9984 10.602 23.4711 9.33111 22.5338 8.39377C21.5964 7.45643 20.3256 6.92914 19 6.92755ZM10 11.9276C10 11.1319 10.3161 10.3688 10.8787 9.80623C11.4413 9.24362 12.2044 8.92755 13 8.92755H19C19.7956 8.92755 20.5587 9.24362 21.1213 9.80623C21.6839 10.3688 22 11.1319 22 11.9276V13.9276H10V11.9276ZM5 12.4276C5 12.1309 5.08797 11.8409 5.2528 11.5942C5.41762 11.3475 5.65189 11.1553 5.92597 11.0417C6.20006 10.9282 6.50166 10.8985 6.79264 10.9564C7.08361 11.0143 7.35088 11.1571 7.56066 11.3669C7.77044 11.5767 7.9133 11.8439 7.97118 12.1349C8.02906 12.4259 7.99935 12.7275 7.88582 13.0016C7.77229 13.2757 7.58003 13.5099 7.33336 13.6748C7.08668 13.8396 6.79667 13.9276 6.5 13.9276C6.10218 13.9276 5.72064 13.7695 5.43934 13.4882C5.15804 13.2069 5 12.8254 5 12.4276ZM2 17.9276V15.9276H22V17.9276H2Z" fill="#374957"/>
</g>
<defs>
<clipPath id="clip0_507_1904">
<rect width="24" height="24" fill="white" transform="translate(0 0.92749)"/>
</clipPath>
</defs>
</svg>
