<svg width="24" height="25" viewBox="0 0 24 25" fill="none" xmlns="http://www.w3.org/2000/svg">
<g clip-path="url(#clip0_507_2234)">
<path d="M23.7068 23.2212L17.7378 17.2522C19.3644 15.2628 20.1642 12.7243 19.9716 10.1618C19.7791 7.59923 18.609 5.20873 16.7034 3.48472C14.7977 1.76071 12.3024 0.835095 9.73342 0.899327C7.16447 0.963559 4.71849 2.01273 2.9014 3.82982C1.08431 5.64691 0.0351379 8.0929 -0.029094 10.6618C-0.0933258 13.2308 0.832293 15.7262 2.5563 17.6318C4.28031 19.5374 6.67081 20.7075 9.23334 20.9C11.7959 21.0926 14.3344 20.2928 16.3238 18.6662L22.2928 24.6352C22.4814 24.8174 22.734 24.9182 22.9962 24.9159C23.2584 24.9136 23.5092 24.8084 23.6946 24.623C23.88 24.4376 23.9852 24.1868 23.9875 23.9246C23.9897 23.6624 23.8889 23.4098 23.7068 23.2212ZM9.99978 18.9282C8.41753 18.9282 6.87081 18.459 5.55522 17.58C4.23963 16.7009 3.21425 15.4515 2.60875 13.9897C2.00324 12.5279 1.84482 10.9193 2.1535 9.36748C2.46218 7.81563 3.22411 6.39017 4.34293 5.27135C5.46175 4.15253 6.88721 3.3906 8.43906 3.08192C9.99091 2.77324 11.5994 2.93167 13.0613 3.53717C14.5231 4.14267 15.7725 5.16805 16.6515 6.48364C17.5306 7.79923 17.9998 9.34595 17.9998 10.9282C17.9974 13.0492 17.1538 15.0827 15.654 16.5824C14.1542 18.0822 12.1208 18.9258 9.99978 18.9282Z" fill="#374957"/>
</g>
<defs>
<clipPath id="clip0_507_2234">
<rect width="24" height="24" fill="white" transform="translate(0 0.92749)"/>
</clipPath>
</defs>
</svg>
