<svg width="24" height="25" viewBox="0 0 24 25" fill="none" xmlns="http://www.w3.org/2000/svg">
<g clip-path="url(#clip0_507_1901)">
<path d="M11.8278 17.3895C10.4773 15.5449 9.24644 13.6156 8.14285 11.6135C9.66485 8.63649 10.9998 5.11649 10.9998 1.92749C10.9998 1.66227 10.8945 1.40792 10.707 1.22038C10.5194 1.03285 10.2651 0.92749 9.99985 0.92749C9.73463 0.92749 9.48028 1.03285 9.29274 1.22038C9.1052 1.40792 8.99985 1.66227 8.99985 1.92749C8.85762 4.51608 8.17821 7.04673 7.00485 9.35849C5.82831 7.04738 5.14551 4.51675 4.99985 1.92749C4.99985 1.66227 4.89449 1.40792 4.70695 1.22038C4.51942 1.03285 4.26506 0.92749 3.99985 0.92749C3.73463 0.92749 3.48027 1.03285 3.29274 1.22038C3.1052 1.40792 2.99984 1.66227 2.99984 1.92749C2.99984 5.10149 4.34185 8.62749 5.86785 11.6125C4.76814 13.6194 3.53364 15.5495 2.17284 17.3895C1.64846 17.6567 1.18975 18.0366 0.829638 18.5021C0.46953 18.9676 0.216965 19.507 0.0900808 20.0817C-0.0368033 20.6564 -0.0348581 21.252 0.0957766 21.8259C0.226411 22.3997 0.482494 22.9375 0.845635 23.4006C1.20878 23.8638 1.66996 24.2407 2.19608 24.5045C2.7222 24.7682 3.30018 24.9121 3.88854 24.926C4.4769 24.9398 5.06102 24.8232 5.59896 24.5845C6.1369 24.3459 6.61532 23.991 6.99985 23.5455C7.38461 23.9899 7.86292 24.3436 8.40049 24.5814C8.93805 24.8192 9.52156 24.9351 10.1092 24.9208C10.6968 24.9065 11.274 24.7624 11.7994 24.4988C12.3248 24.2353 12.7854 23.8587 13.1481 23.3962C13.5109 22.9337 13.7668 22.3966 13.8976 21.8236C14.0284 21.2505 14.0307 20.6556 13.9045 20.0815C13.7784 19.5074 13.5267 18.9683 13.1677 18.5029C12.8087 18.0375 12.3511 17.6573 11.8278 17.3895ZM3.99985 22.9275C3.60428 22.9275 3.2176 22.8102 2.8887 22.5904C2.55981 22.3707 2.30346 22.0583 2.15209 21.6929C2.00071 21.3274 1.9611 20.9253 2.03827 20.5373C2.11544 20.1493 2.30593 19.793 2.58563 19.5133C2.86534 19.2336 3.2217 19.0431 3.60966 18.9659C3.99763 18.8887 4.39976 18.9284 4.76521 19.0797C5.13066 19.2311 5.44302 19.4875 5.66278 19.8163C5.88255 20.1452 5.99985 20.5319 5.99985 20.9275C5.99985 21.4579 5.78913 21.9666 5.41406 22.3417C5.03899 22.7168 4.53028 22.9275 3.99985 22.9275ZM4.88284 17.0325C5.46784 16.1885 6.21985 15.0415 7.00485 13.6905C7.78885 15.0405 8.53885 16.1905 9.12185 17.0315C8.29668 17.2212 7.55341 17.6688 6.99985 18.3095C6.44723 17.6704 5.70594 17.2232 4.88284 17.0325ZM9.99985 22.9275C9.60428 22.9275 9.2176 22.8102 8.88871 22.5904C8.55981 22.3707 8.30346 22.0583 8.15209 21.6929C8.00071 21.3274 7.9611 20.9253 8.03827 20.5373C8.11545 20.1493 8.30593 19.793 8.58563 19.5133C8.86534 19.2336 9.2217 19.0431 9.60966 18.9659C9.99763 18.8887 10.3998 18.9284 10.7652 19.0797C11.1307 19.2311 11.443 19.4875 11.6628 19.8163C11.8825 20.1452 11.9998 20.5319 11.9998 20.9275C11.9998 21.4579 11.7891 21.9666 11.4141 22.3417C11.039 22.7168 10.5303 22.9275 9.99985 22.9275ZM17.9998 6.92749V8.92749H22.9998C23.2651 8.92749 23.5194 9.03285 23.707 9.22038C23.8945 9.40792 23.9998 9.66227 23.9998 9.92749C23.9998 10.1927 23.8945 10.4471 23.707 10.6346C23.5194 10.8221 23.2651 10.9275 22.9998 10.9275H17.9998V12.9275H22.9998C23.2651 12.9275 23.5194 13.0328 23.707 13.2204C23.8945 13.4079 23.9998 13.6623 23.9998 13.9275C23.9998 14.1927 23.8945 14.4471 23.707 14.6346C23.5194 14.8221 23.2651 14.9275 22.9998 14.9275H17.9998V16.9275H22.9998C23.2651 16.9275 23.5194 17.0328 23.707 17.2204C23.8945 17.4079 23.9998 17.6623 23.9998 17.9275C23.9998 18.1927 23.8945 18.4471 23.707 18.6346C23.5194 18.8221 23.2651 18.9275 22.9998 18.9275H17.9998V23.9275C17.9998 24.1927 17.8945 24.4471 17.707 24.6346C17.5194 24.8221 17.2651 24.9275 16.9998 24.9275C16.7346 24.9275 16.4803 24.8221 16.2927 24.6346C16.1052 24.4471 15.9998 24.1927 15.9998 23.9275V5.92749C16.0014 4.6019 16.5287 3.33105 17.4661 2.39371C18.4034 1.45637 19.6743 0.929078 20.9998 0.92749L22.9998 0.92749C23.2651 0.92749 23.5194 1.03285 23.707 1.22038C23.8945 1.40792 23.9998 1.66227 23.9998 1.92749C23.9998 2.19271 23.8945 2.44706 23.707 2.6346C23.5194 2.82213 23.2651 2.92749 22.9998 2.92749H20.9998C20.3816 2.93005 19.7792 3.12357 19.2751 3.48158C18.7711 3.83958 18.3899 4.34458 18.1838 4.92749H22.9998C23.2651 4.92749 23.5194 5.03285 23.707 5.22038C23.8945 5.40792 23.9998 5.66227 23.9998 5.92749C23.9998 6.19271 23.8945 6.44706 23.707 6.6346C23.5194 6.82213 23.2651 6.92749 22.9998 6.92749H17.9998Z" fill="#374957"/>
</g>
<defs>
<clipPath id="clip0_507_1901">
<rect width="24" height="24" fill="white" transform="translate(0 0.92749)"/>
</clipPath>
</defs>
</svg>
