<svg width="24" height="25" viewBox="0 0 24 25" fill="none" xmlns="http://www.w3.org/2000/svg">
<g clip-path="url(#clip0_507_2038)">
<path d="M7.51497 5.93568C7.45941 5.79891 7.36442 5.68175 7.24208 5.59913C7.11975 5.5165 6.97559 5.47214 6.82797 5.47168C6.6776 5.47212 6.53085 5.51787 6.40688 5.60296C6.2829 5.68805 6.18745 5.80853 6.13297 5.94868L4.15597 11.1357C4.12669 11.2124 4.11283 11.2942 4.11519 11.3763C4.11754 11.4584 4.13605 11.5393 4.16967 11.6142C4.2033 11.6892 4.25136 11.7568 4.31113 11.8131C4.37089 11.8695 4.44118 11.9135 4.51797 11.9427C4.58895 11.9694 4.66412 11.9833 4.73997 11.9837C4.86631 11.9837 4.9897 11.9455 5.09393 11.8741C5.19817 11.8028 5.27836 11.7015 5.32397 11.5837L5.66297 10.6947H7.97397L8.30897 11.5817C8.33792 11.6585 8.38173 11.7289 8.43788 11.7888C8.49403 11.8487 8.56143 11.8969 8.63623 11.9308C8.71103 11.9646 8.79176 11.9834 8.87381 11.986C8.95587 11.9887 9.03764 11.9751 9.11447 11.9462C9.19129 11.9172 9.26166 11.8734 9.32155 11.8173C9.38145 11.7611 9.4297 11.6937 9.46354 11.6189C9.49739 11.5441 9.51617 11.4634 9.51882 11.3813C9.52147 11.2993 9.50792 11.2175 9.47897 11.1407L7.51497 5.93568ZM6.13897 9.44168L6.82297 7.64168L7.50197 9.44168H6.13897Z" fill="#374957"/>
<path d="M11.2319 5.47168C11.0663 5.47194 10.9074 5.53788 10.7903 5.65503C10.6731 5.77218 10.6072 5.931 10.6069 6.09668V11.3587C10.6069 11.5244 10.6728 11.6834 10.79 11.8006C10.9072 11.9178 11.0662 11.9837 11.2319 11.9837C11.3977 11.9837 11.5567 11.9178 11.6739 11.8006C11.7911 11.6834 11.8569 11.5244 11.8569 11.3587V6.09668C11.8569 5.93092 11.7911 5.77195 11.6739 5.65474C11.5567 5.53753 11.3977 5.47168 11.2319 5.47168Z" fill="#374957"/>
<path d="M19 0.92749H5C3.67441 0.929078 2.40356 1.45637 1.46622 2.39371C0.528882 3.33105 0.00158786 4.6019 0 5.92749L0 19.9275C0.00158786 21.2531 0.528882 22.5239 1.46622 23.4613C2.40356 24.3986 3.67441 24.9259 5 24.9275H16.343C16.9999 24.9294 17.6507 24.8009 18.2576 24.5496C18.8646 24.2984 19.4157 23.9292 19.879 23.4635L22.535 20.8055C23.0008 20.3424 23.37 19.7915 23.6215 19.1847C23.873 18.5779 24.0016 17.9273 24 17.2705V5.92749C23.9984 4.6019 23.4711 3.33105 22.5338 2.39371C21.5964 1.45637 20.3256 0.929078 19 0.92749V0.92749ZM2 19.9275V5.92749C2 5.13184 2.31607 4.36878 2.87868 3.80617C3.44129 3.24356 4.20435 2.92749 5 2.92749H19C19.7957 2.92749 20.5587 3.24356 21.1213 3.80617C21.6839 4.36878 22 5.13184 22 5.92749V15.9275H18C17.2044 15.9275 16.4413 16.2436 15.8787 16.8062C15.3161 17.3688 15 18.1318 15 18.9275V22.9275H5C4.20435 22.9275 3.44129 22.6114 2.87868 22.0488C2.31607 21.4862 2 20.7231 2 19.9275ZM18.465 22.0495C18.063 22.4505 17.5547 22.7281 17 22.8495V18.9275C17 18.6623 17.1054 18.4079 17.2929 18.2204C17.4804 18.0328 17.7348 17.9275 18 17.9275H21.925C21.8013 18.481 21.524 18.9884 21.125 19.3915L18.465 22.0495Z" fill="#374957"/>
</g>
<defs>
<clipPath id="clip0_507_2038">
<rect width="24" height="24" fill="white" transform="translate(0 0.92749)"/>
</clipPath>
</defs>
</svg>
