<svg width="24" height="25" viewBox="0 0 24 25" fill="none" xmlns="http://www.w3.org/2000/svg">
<g clip-path="url(#clip0_507_2063)">
<path d="M23.241 1.36275C23.0056 1.17368 22.73 1.04088 22.4354 0.974508C22.1407 0.908132 21.8349 0.909926 21.541 0.979752C20.6052 1.23019 19.7421 1.69877 19.0223 2.34712C18.3025 2.99547 17.7466 3.80512 17.4 4.70975C15.6397 4.22475 13.8256 3.96204 12 3.92775C10.1745 3.96204 8.36035 4.22475 6.60004 4.70975C6.25314 3.80482 5.69673 2.99499 4.9764 2.34663C4.25608 1.69827 3.39236 1.22984 2.45604 0.979752C2.16223 0.90985 1.85632 0.908019 1.56169 0.974397C1.26706 1.04078 0.991495 1.17361 0.756041 1.36275C0.519614 1.55056 0.328779 1.78946 0.197849 2.06154C0.0669187 2.33362 -0.00070798 2.63181 4.09331e-05 2.93375V10.7858C-0.00391442 12.2309 0.278822 13.6624 0.831882 14.9975C1.38494 16.3326 2.19734 17.5448 3.22204 18.5638L7.87904 23.2208C8.97637 24.3054 10.4571 24.9138 12 24.9138C13.543 24.9138 15.0237 24.3054 16.121 23.2208L20.778 18.5638C21.8026 17.5446 22.6148 16.3325 23.1679 14.9974C23.7209 13.6623 24.0038 12.2308 24 10.7858V2.93375C24.0009 2.63149 23.933 2.333 23.8015 2.06083C23.67 1.78867 23.4784 1.54996 23.241 1.36275ZM5.05104 6.24375C5.13481 6.49525 5.315 6.70319 5.55202 6.82189C5.78903 6.94058 6.06348 6.96032 6.31504 6.87675C8.15719 6.29969 10.0703 5.98033 12 5.92775C13.9297 5.98045 15.8429 6.29981 17.685 6.87675C17.9365 6.96001 18.2107 6.94012 18.4474 6.82145C18.6842 6.70277 18.8643 6.49501 18.948 6.24375C19.565 4.39475 20.619 3.24875 22 2.93375V9.10075C19.572 9.65975 13 11.9118 13 19.9278V20.1118C12.355 19.8718 11.6451 19.8718 11 20.1118V19.9278C11 11.9128 4.42904 9.65975 2.00004 9.10075V2.92775C3.38104 3.24875 4.43504 4.39575 5.05104 6.24375ZM4.63604 17.1498C3.03526 15.5533 2.09965 13.4091 2.01804 11.1498C2.69958 11.3291 3.36307 11.5712 4.00004 11.8728V11.9278C4.1797 12.7557 4.63223 13.4993 5.28503 14.0393C5.93784 14.5793 6.7531 14.8845 7.60004 14.9058C8.56027 16.4013 9.04809 18.1512 9.00004 19.9278V21.5138L4.63604 17.1498ZM19.364 17.1498L15 21.5138V19.9278C14.952 18.1512 15.4398 16.4013 16.4 14.9058C17.2469 14.8841 18.062 14.5789 18.7147 14.0389C19.3674 13.499 19.8201 12.7555 20 11.9278V11.8728C20.637 11.5715 21.3005 11.3298 21.982 11.1508C21.9002 13.4097 20.9646 15.5536 19.364 17.1498Z" fill="#374957"/>
</g>
<defs>
<clipPath id="clip0_507_2063">
<rect width="24" height="24" fill="white" transform="translate(0 0.92749)"/>
</clipPath>
</defs>
</svg>
