<svg width="24" height="25" viewBox="0 0 24 25" fill="none" xmlns="http://www.w3.org/2000/svg">
<g clip-path="url(#clip0_507_2139)">
<path d="M11.9999 24.9276C10.576 24.9306 9.20803 24.3731 8.1919 23.3756L4.2499 19.7326C3.20474 18.718 2.37149 17.5059 1.79852 16.1667C1.22554 14.8275 0.924248 13.3879 0.912124 11.9313C0.9 10.4748 1.17729 9.03029 1.72789 7.68175C2.2785 6.33321 3.09145 5.10745 4.11958 4.07561C5.14771 3.04377 6.37053 2.22641 7.71708 1.67095C9.06364 1.1155 10.5071 0.833013 11.9637 0.839893C13.4203 0.846773 14.861 1.14288 16.2023 1.71103C17.5435 2.27918 18.7586 3.10806 19.7769 4.14957C21.8397 6.21245 22.9986 9.01027 22.9986 11.9276C22.9986 14.8449 21.8397 17.6427 19.7769 19.7056L15.7859 23.3946C14.7739 24.3825 13.4142 24.9331 11.9999 24.9276ZM11.9999 2.92757C10.2199 2.92755 8.47979 3.45538 6.99973 4.44431C5.51967 5.43325 4.36611 6.83886 3.68491 8.4834C3.00372 10.1279 2.82549 11.9376 3.17276 13.6834C3.52004 15.4292 4.37722 17.0329 5.6359 18.2916L9.5699 21.9276C10.2206 22.5494 11.0851 22.8979 11.9851 22.9015C12.8852 22.905 13.7523 22.5632 14.4079 21.9466L18.3919 18.2646C20.0674 16.5741 21.005 14.2887 20.9995 11.9086C20.9941 9.52846 20.0461 7.24741 18.3629 5.56457C17.5294 4.72611 16.5378 4.06132 15.4456 3.60868C14.3533 3.15603 13.1822 2.92453 11.9999 2.92757ZM11.9999 18.9276C10.6154 18.9276 9.26206 18.517 8.11091 17.7479C6.95977 16.9787 6.06256 15.8854 5.53275 14.6064C5.00293 13.3273 4.86431 11.9198 5.13441 10.5619C5.4045 9.20407 6.07119 7.95679 7.05016 6.97782C8.02912 5.99885 9.2764 5.33217 10.6343 5.06207C11.9921 4.79197 13.3996 4.9306 14.6787 5.46041C15.9578 5.99022 17.051 6.88743 17.8202 8.03857C18.5894 9.18972 18.9999 10.5431 18.9999 11.9276C18.9978 13.7834 18.2596 15.5627 16.9473 16.875C15.635 18.1873 13.8558 18.9255 11.9999 18.9276ZM11.9999 6.92757C11.011 6.92757 10.0443 7.22081 9.22205 7.77022C8.39981 8.31962 7.75894 9.10052 7.38051 10.0141C7.00207 10.9278 6.90305 11.9331 7.09598 12.903C7.2889 13.8729 7.76511 14.7638 8.46437 15.4631C9.16363 16.1624 10.0545 16.6386 11.0245 16.8315C11.9944 17.0244 12.9997 16.9254 13.9133 16.547C14.827 16.1685 15.6078 15.5277 16.1573 14.7054C16.7067 13.8832 16.9999 12.9165 16.9999 11.9276C16.9983 10.602 16.471 9.33112 15.5337 8.39379C14.5963 7.45645 13.3255 6.92915 11.9999 6.92757ZM13.7069 13.6346C13.8944 13.447 13.9997 13.1927 13.9997 12.9276C13.9997 12.6624 13.8944 12.4081 13.7069 12.2206L12.9999 11.5136V9.92757C12.9999 9.66235 12.8945 9.408 12.707 9.22046C12.5195 9.03292 12.2651 8.92757 11.9999 8.92757C11.7347 8.92757 11.4803 9.03292 11.2928 9.22046C11.1053 9.408 10.9999 9.66235 10.9999 9.92757V11.9276C11 12.1928 11.1054 12.4471 11.2929 12.6346L12.2929 13.6346C12.4804 13.822 12.7347 13.9274 12.9999 13.9274C13.2651 13.9274 13.5194 13.822 13.7069 13.6346Z" fill="#374957"/>
</g>
<defs>
<clipPath id="clip0_507_2139">
<rect width="24" height="24" fill="white" transform="translate(0 0.92749)"/>
</clipPath>
</defs>
</svg>
