<svg width="24" height="25" viewBox="0 0 24 25" fill="none" xmlns="http://www.w3.org/2000/svg">
<g clip-path="url(#clip0_507_2108)">
<path d="M19 0.92749H5C3.67441 0.929078 2.40356 1.45637 1.46622 2.39371C0.528882 3.33105 0.00158786 4.6019 0 5.92749L0 19.9275C0.00158786 21.2531 0.528882 22.5239 1.46622 23.4613C2.40356 24.3986 3.67441 24.9259 5 24.9275H16.343C16.9998 24.9291 17.6504 24.8005 18.2572 24.549C18.864 24.2975 19.4149 23.9282 19.878 23.4625L22.536 20.8065C23.0017 20.3432 23.3709 19.7921 23.6222 19.1851C23.8735 18.5782 24.0019 17.9274 24 17.2705V5.92749C23.9984 4.6019 23.4711 3.33105 22.5338 2.39371C21.5964 1.45637 20.3256 0.929078 19 0.92749V0.92749ZM2 19.9275V5.92749C2 5.13184 2.31607 4.36878 2.87868 3.80617C3.44129 3.24356 4.20435 2.92749 5 2.92749H19C19.7957 2.92749 20.5587 3.24356 21.1213 3.80617C21.6839 4.36878 22 5.13184 22 5.92749V15.9275H18C17.2044 15.9275 16.4413 16.2436 15.8787 16.8062C15.3161 17.3688 15 18.1318 15 18.9275V22.9275H5C4.20435 22.9275 3.44129 22.6114 2.87868 22.0488C2.31607 21.4862 2 20.7231 2 19.9275ZM18.464 22.0485C18.0608 22.4473 17.5534 22.7246 17 22.8485V18.9275C17 18.6623 17.1054 18.4079 17.2929 18.2204C17.4804 18.0328 17.7348 17.9275 18 17.9275H21.922C21.8004 18.4821 21.5229 18.9904 21.122 19.3925L18.464 22.0485ZM14 10.0115V7.91149C14.0009 7.64986 14.0534 7.39097 14.1544 7.14964C14.2555 6.9083 14.4031 6.68924 14.5888 6.50498C14.7745 6.32072 14.9948 6.17488 15.2369 6.07579C15.4791 5.9767 15.7384 5.92631 16 5.92749C16.3652 5.93041 16.7228 6.03217 17.0348 6.22197C17.3468 6.41178 17.6015 6.68253 17.772 7.00549C17.8101 7.07837 17.8334 7.15805 17.8407 7.23996C17.848 7.32186 17.8391 7.40441 17.8145 7.48287C17.7899 7.56134 17.7501 7.63419 17.6973 7.69727C17.6446 7.76034 17.5799 7.81241 17.507 7.85049C17.4341 7.88857 17.3544 7.91193 17.2725 7.91922C17.1906 7.92652 17.1081 7.9176 17.0296 7.893C16.9512 7.86839 16.8783 7.82857 16.8152 7.77581C16.7522 7.72304 16.7001 7.65837 16.662 7.58549C16.5971 7.46545 16.5017 7.36458 16.3856 7.29298C16.2694 7.22138 16.1364 7.18155 16 7.17749C15.9013 7.17655 15.8034 7.19532 15.712 7.23269C15.6207 7.27006 15.5377 7.32529 15.4679 7.39513C15.3982 7.46498 15.3431 7.54804 15.3058 7.63945C15.2686 7.73086 15.2499 7.82879 15.251 7.92749V9.99549C15.2498 10.0943 15.2683 10.1923 15.3055 10.2838C15.3427 10.3754 15.3978 10.4585 15.4676 10.5285C15.5373 10.5984 15.6204 10.6538 15.7118 10.6912C15.8032 10.7286 15.9012 10.7474 16 10.7465C16.1957 10.7443 16.3829 10.6666 16.5226 10.5296C16.6624 10.3927 16.7438 10.2071 16.75 10.0115V9.92749H16.5C16.3674 9.92749 16.2402 9.87481 16.1464 9.78104C16.0527 9.68728 16 9.5601 16 9.42749C16 9.29488 16.0527 9.16771 16.1464 9.07394C16.2402 8.98017 16.3674 8.92749 16.5 8.92749H17.25C17.4489 8.92749 17.6397 9.00651 17.7803 9.14716C17.921 9.28781 18 9.47858 18 9.67749V10.0115C17.9958 10.5391 17.7832 11.0438 17.4086 11.4154C17.034 11.787 16.5277 11.9955 16 11.9955C15.7384 11.9967 15.4791 11.9463 15.2369 11.8472C14.9948 11.7481 14.7745 11.6023 14.5888 11.418C14.4031 11.2337 14.2555 11.0147 14.1544 10.7733C14.0534 10.532 14.0009 10.2731 14 10.0115ZM8 6.57749V9.93349C7.99922 10.2055 7.94479 10.4748 7.83983 10.7257C7.73488 10.9767 7.58146 11.2045 7.38835 11.3962C7.19525 11.5878 6.96625 11.7394 6.71446 11.8424C6.46267 11.9455 6.19304 11.9978 5.921 11.9965C5.53537 11.9893 5.15909 11.8766 4.83309 11.6705C4.50708 11.4644 4.24384 11.1728 4.072 10.8275C4.03191 10.751 4.00743 10.6674 3.99997 10.5814C3.99252 10.4954 4.00224 10.4088 4.02858 10.3266C4.05492 10.2443 4.09734 10.1682 4.15338 10.1025C4.20942 10.0369 4.27796 9.98302 4.35501 9.9441C4.43206 9.90518 4.51608 9.88197 4.60218 9.87582C4.68829 9.86967 4.77475 9.88071 4.85655 9.90829C4.93835 9.93587 5.01384 9.97945 5.07864 10.0365C5.14344 10.0935 5.19625 10.1629 5.234 10.2405C5.29747 10.3711 5.39456 10.4824 5.51529 10.5631C5.63602 10.6438 5.77606 10.6908 5.921 10.6995C6.02394 10.7006 6.12605 10.681 6.22131 10.642C6.31658 10.603 6.40306 10.5453 6.47567 10.4723C6.54827 10.3993 6.60553 10.3126 6.64406 10.2171C6.68259 10.1216 6.70161 10.0194 6.7 9.91649V6.57649C6.7 6.4041 6.76848 6.23877 6.89038 6.11687C7.01228 5.99497 7.17761 5.92649 7.35 5.92649C7.52239 5.92649 7.68772 5.99497 7.80962 6.11687C7.93152 6.23877 8 6.4041 8 6.57649V6.57749ZM11.09 5.92749H10C9.73479 5.92749 9.48043 6.03285 9.29289 6.22038C9.10536 6.40792 9 6.66227 9 6.92749V11.3715C9 11.5373 9.06585 11.6962 9.18306 11.8134C9.30027 11.9306 9.45924 11.9965 9.625 11.9965C9.79076 11.9965 9.94973 11.9306 10.0669 11.8134C10.1842 11.6962 10.25 11.5373 10.25 11.3715V10.1505H11.09C11.3673 10.1505 11.6419 10.0959 11.898 9.98976C12.1542 9.88365 12.387 9.72812 12.5831 9.53205C12.7791 9.33598 12.9347 9.10321 13.0408 8.84703C13.1469 8.59085 13.2015 8.31628 13.2015 8.03899C13.2015 7.7617 13.1469 7.48713 13.0408 7.23096C12.9347 6.97478 12.7791 6.74201 12.5831 6.54593C12.387 6.34986 12.1542 6.19433 11.898 6.08822C11.6419 5.98211 11.3673 5.92749 11.09 5.92749ZM11.09 8.89649H10.258L10.252 7.17749H11.09C11.2053 7.17356 11.3203 7.19288 11.428 7.2343C11.5357 7.27572 11.634 7.3384 11.717 7.4186C11.8 7.4988 11.866 7.59488 11.911 7.70112C11.9561 7.80736 11.9793 7.92159 11.9793 8.03699C11.9793 8.1524 11.9561 8.26662 11.911 8.37286C11.866 8.4791 11.8 8.57518 11.717 8.65538C11.634 8.73558 11.5357 8.79826 11.428 8.83968C11.3203 8.88111 11.2053 8.90043 11.09 8.89649Z" fill="#374957"/>
</g>
<defs>
<clipPath id="clip0_507_2108">
<rect width="24" height="24" fill="white" transform="translate(0 0.92749)"/>
</clipPath>
</defs>
</svg>
