<svg width="24" height="25" viewBox="0 0 24 25" fill="none" xmlns="http://www.w3.org/2000/svg">
<g clip-path="url(#clip0_507_2183)">
<path d="M19 0.92749H5C3.67441 0.929078 2.40356 1.45637 1.46622 2.39371C0.528882 3.33105 0.00158786 4.6019 0 5.92749L0 19.9275C0.00158786 21.2531 0.528882 22.5239 1.46622 23.4613C2.40356 24.3986 3.67441 24.9259 5 24.9275H19C20.3256 24.9259 21.5964 24.3986 22.5338 23.4613C23.4711 22.5239 23.9984 21.2531 24 19.9275V5.92749C23.9984 4.6019 23.4711 3.33105 22.5338 2.39371C21.5964 1.45637 20.3256 0.929078 19 0.92749V0.92749ZM5 2.92749H19C19.7956 2.92749 20.5587 3.24356 21.1213 3.80617C21.6839 4.36878 22 5.13184 22 5.92749V19.9275C21.9983 20.373 21.8957 20.8123 21.7 21.2125L12.537 12.0495C12.0727 11.5851 11.5214 11.2166 10.9147 10.9653C10.308 10.7139 9.65772 10.5846 9.001 10.5846C8.34428 10.5846 7.69399 10.7139 7.08728 10.9653C6.48056 11.2166 5.92931 11.5851 5.465 12.0495L2 15.5135V5.92749C2 5.13184 2.31607 4.36878 2.87868 3.80617C3.44129 3.24356 4.20435 2.92749 5 2.92749ZM5 22.9275C4.20435 22.9275 3.44129 22.6114 2.87868 22.0488C2.31607 21.4862 2 20.7231 2 19.9275V18.3415L6.878 13.4635C7.1566 13.1847 7.4874 12.9636 7.85151 12.8127C8.21561 12.6618 8.60587 12.5841 9 12.5841C9.39413 12.5841 9.78439 12.6618 10.1485 12.8127C10.5126 12.9636 10.8434 13.1847 11.122 13.4635L20.285 22.6275C19.8848 22.8232 19.4455 22.9258 19 22.9275H5Z" fill="#374957"/>
<path d="M16.0001 11.4271C16.6924 11.4271 17.369 11.2219 17.9446 10.8373C18.5202 10.4527 18.9688 9.90607 19.2337 9.26653C19.4986 8.62699 19.5679 7.92326 19.4329 7.24433C19.2978 6.56539 18.9645 5.94175 18.475 5.45227C17.9855 4.96278 17.3619 4.62944 16.6829 4.49439C16.004 4.35934 15.3003 4.42866 14.6607 4.69356C14.0212 4.95847 13.4746 5.40707 13.09 5.98265C12.7054 6.55822 12.5001 7.23491 12.5001 7.92714C12.5001 8.8554 12.8689 9.74564 13.5252 10.402C14.1816 11.0584 15.0719 11.4271 16.0001 11.4271ZM16.0001 6.42714C16.2968 6.42714 16.5868 6.51511 16.8335 6.67994C17.0802 6.84476 17.2724 7.07903 17.3859 7.35312C17.4995 7.62721 17.5292 7.92881 17.4713 8.21978C17.4134 8.51075 17.2706 8.77802 17.0608 8.9878C16.851 9.19758 16.5837 9.34044 16.2928 9.39832C16.0018 9.4562 15.7002 9.42649 15.4261 9.31296C15.152 9.19943 14.9177 9.00717 14.7529 8.7605C14.5881 8.51382 14.5001 8.22381 14.5001 7.92714C14.5001 7.52932 14.6582 7.14779 14.9395 6.86648C15.2208 6.58518 15.6023 6.42714 16.0001 6.42714Z" fill="#374957"/>
</g>
<defs>
<clipPath id="clip0_507_2183">
<rect width="24" height="24" fill="white" transform="translate(0 0.92749)"/>
</clipPath>
</defs>
</svg>
