<svg width="24" height="25" viewBox="0 0 24 25" fill="none" xmlns="http://www.w3.org/2000/svg">
<g clip-path="url(#clip0_507_2293)">
<path d="M11.1072 15.3746C11.1652 15.4932 11.2462 15.599 11.3454 15.6861C11.4445 15.7731 11.56 15.8397 11.685 15.882C11.81 15.9242 11.9422 15.9413 12.0739 15.9322C12.2055 15.9232 12.3341 15.8881 12.4522 15.8291C12.5702 15.7701 12.6754 15.6884 12.7617 15.5885C12.848 15.4887 12.9137 15.3727 12.955 15.2474C12.9963 15.122 13.0123 14.9897 13.0022 14.8581C12.9921 14.7265 12.9561 14.5982 12.8962 14.4806L7.39615 3.48064C7.31311 3.31449 7.18544 3.17476 7.02745 3.0771C6.86946 2.97943 6.68739 2.9277 6.50165 2.9277C6.31591 2.9277 6.13384 2.97943 5.97585 3.0771C5.81786 3.17476 5.69019 3.31449 5.60715 3.48064L0.107153 14.4806C0.0472389 14.5982 0.0111949 14.7265 0.00109911 14.8581C-0.00899664 14.9897 0.00705565 15.122 0.0483304 15.2474C0.0896052 15.3727 0.155286 15.4887 0.241586 15.5885C0.327886 15.6884 0.433098 15.7701 0.551155 15.8291C0.669213 15.8881 0.797781 15.9232 0.929447 15.9322C1.06111 15.9413 1.19327 15.9242 1.3183 15.882C1.44334 15.8397 1.55877 15.7731 1.65794 15.6861C1.75712 15.599 1.83808 15.4932 1.89615 15.3746L3.61915 11.9276H9.38315L11.1072 15.3746ZM4.61915 9.92764L6.50015 6.16364L8.38315 9.92764H4.61915Z" fill="#374957"/>
<path d="M23.7068 12.2198C23.5193 12.0324 23.265 11.9271 22.9998 11.9271C22.7347 11.9271 22.4804 12.0324 22.2928 12.2198L12.9998 21.5128L8.70684 17.2198C8.61459 17.1243 8.50425 17.0482 8.38224 16.9957C8.26024 16.9433 8.12902 16.9157 7.99624 16.9146C7.86346 16.9134 7.73178 16.9387 7.60888 16.989C7.48599 17.0393 7.37433 17.1136 7.28044 17.2074C7.18655 17.3013 7.1123 17.413 7.06202 17.5359C7.01173 17.6588 6.98643 17.7905 6.98759 17.9232C6.98874 18.056 7.01633 18.1872 7.06874 18.3092C7.12114 18.4312 7.19733 18.5416 7.29284 18.6338L12.2928 23.6338C12.4804 23.8213 12.7347 23.9266 12.9998 23.9266C13.265 23.9266 13.5193 23.8213 13.7068 23.6338L23.7068 13.6338C23.8943 13.4463 23.9996 13.192 23.9996 12.9268C23.9996 12.6617 23.8943 12.4074 23.7068 12.2198Z" fill="#374957"/>
</g>
<defs>
<clipPath id="clip0_507_2293">
<rect width="24" height="24" fill="white" transform="translate(0 0.92749)"/>
</clipPath>
</defs>
</svg>
