<svg width="24" height="25" viewBox="0 0 24 25" fill="none" xmlns="http://www.w3.org/2000/svg">
<g clip-path="url(#clip0_507_1892)">
<path d="M6.00002 7.13748C6.18738 7.32373 6.44084 7.42828 6.70502 7.42828C6.96921 7.42828 7.22266 7.32373 7.41002 7.13748L11 3.50748V23.9275C11 24.1927 11.1054 24.4471 11.2929 24.6346C11.4805 24.8221 11.7348 24.9275 12 24.9275C12.2652 24.9275 12.5196 24.8221 12.7071 24.6346C12.8947 24.4471 13 24.1927 13 23.9275V3.51748L16.62 7.13748C16.713 7.23121 16.8236 7.3056 16.9454 7.35637C17.0673 7.40714 17.198 7.43328 17.33 7.43328C17.462 7.43328 17.5927 7.40714 17.7146 7.35637C17.8365 7.3056 17.9471 7.23121 18.04 7.13748C18.2263 6.95012 18.3308 6.69667 18.3308 6.43248C18.3308 6.1683 18.2263 5.91484 18.04 5.72748L14.13 1.80748C13.5675 1.24567 12.805 0.930115 12.01 0.930115C11.215 0.930115 10.4525 1.24567 9.89002 1.80748L6.00002 5.72748C5.81377 5.91484 5.70923 6.1683 5.70923 6.43248C5.70923 6.69667 5.81377 6.95012 6.00002 7.13748Z" fill="#374957"/>
</g>
<defs>
<clipPath id="clip0_507_1892">
<rect width="24" height="24" fill="white" transform="translate(0 0.92749)"/>
</clipPath>
</defs>
</svg>
