<svg width="24" height="25" viewBox="0 0 24 25" fill="none" xmlns="http://www.w3.org/2000/svg">
<g clip-path="url(#clip0_507_2192)">
<path d="M12 0.92749C9.62663 0.92749 7.30655 1.63128 5.33316 2.94986C3.35977 4.26843 1.8217 6.14258 0.913451 8.33529C0.00519943 10.528 -0.232441 12.9408 0.230582 15.2686C0.693605 17.5963 1.83649 19.7345 3.51472 21.4128C5.19295 23.091 7.33115 24.2339 9.65892 24.6969C11.9867 25.1599 14.3995 24.9223 16.5922 24.014C18.7849 23.1058 20.6591 21.5677 21.9776 19.5943C23.2962 17.6209 24 15.3009 24 12.9275C23.9966 9.74595 22.7312 6.6957 20.4815 4.44601C18.2318 2.19632 15.1815 0.930931 12 0.92749V0.92749ZM22 12.9275C21.9987 13.5653 21.9365 14.2015 21.814 14.8275L19.882 14.2475C20.0393 13.3745 20.0393 12.4805 19.882 11.6075L21.814 11.0275C21.9365 11.6534 21.9987 12.2897 22 12.9275ZM21.24 9.11149L19.31 9.69049C18.5013 7.87683 17.0507 6.42617 15.237 5.61749L15.816 3.68749C18.2695 4.708 20.2195 6.65798 21.24 9.11149ZM12 18.9275C10.8133 18.9275 9.65328 18.5756 8.66658 17.9163C7.67989 17.257 6.91085 16.3199 6.45673 15.2236C6.0026 14.1272 5.88378 12.9208 6.11529 11.7569C6.3468 10.5931 6.91825 9.52397 7.75736 8.68485C8.59648 7.84574 9.66558 7.27429 10.8295 7.04278C11.9934 6.81127 13.1997 6.93009 14.2961 7.38421C15.3925 7.83834 16.3295 8.60737 16.9888 9.59407C17.6481 10.5808 18 11.7408 18 12.9275C17.9984 14.5183 17.3658 16.0435 16.2409 17.1684C15.116 18.2933 13.5908 18.9259 12 18.9275ZM13.9 3.11349L13.32 5.04549C12.447 4.88816 11.553 4.88816 10.68 5.04549L10.1 3.11349C11.3545 2.86556 12.6455 2.86556 13.9 3.11349ZM8.18401 3.68749L8.76301 5.61749C6.94934 6.42617 5.49869 7.87683 4.69001 9.69049L2.76001 9.11149C3.78052 6.65798 5.73049 4.708 8.18401 3.68749ZM2.00001 12.9275C2.00127 12.2897 2.06355 11.6534 2.18601 11.0275L4.11801 11.6075C3.96067 12.4805 3.96067 13.3745 4.11801 14.2475L2.18601 14.8275C2.06355 14.2015 2.00127 13.5653 2.00001 12.9275ZM2.76001 16.7435L4.69001 16.1645C5.49869 17.9782 6.94934 19.4288 8.76301 20.2375L8.18401 22.1675C5.73049 21.147 3.78052 19.197 2.76001 16.7435ZM10.1 22.7435L10.68 20.8115C11.553 20.9688 12.447 20.9688 13.32 20.8115L13.9 22.7435C12.6455 22.9914 11.3545 22.9914 10.1 22.7435ZM15.816 22.1685L15.237 20.2395C17.0507 19.4308 18.5013 17.9802 19.31 16.1665L21.24 16.7455C20.2193 19.1982 18.2693 21.1471 15.816 22.1665V22.1685ZM14.631 11.8195C14.8705 12.1392 15 12.528 15 12.9275C15 13.327 14.8705 13.7158 14.631 14.0355L12.738 16.5585C12.6521 16.6732 12.5407 16.7662 12.4126 16.8303C12.2845 16.8944 12.1433 16.9278 12 16.9278C11.8568 16.9278 11.7155 16.8944 11.5874 16.8303C11.4593 16.7662 11.3479 16.6732 11.262 16.5585L9.36901 14.0355C9.12947 13.7158 9.00001 13.327 9.00001 12.9275C9.00001 12.528 9.12947 12.1392 9.36901 11.8195L11.262 9.29649C11.3479 9.18183 11.4593 9.08875 11.5874 9.02464C11.7155 8.96054 11.8568 8.92716 12 8.92716C12.1433 8.92716 12.2845 8.96054 12.4126 9.02464C12.5407 9.08875 12.6521 9.18183 12.738 9.29649L14.631 11.8195Z" fill="#374957"/>
</g>
<defs>
<clipPath id="clip0_507_2192">
<rect width="24" height="24" fill="white" transform="translate(0 0.92749)"/>
</clipPath>
</defs>
</svg>
