<svg width="24" height="25" viewBox="0 0 24 25" fill="none" xmlns="http://www.w3.org/2000/svg">
<g clip-path="url(#clip0_507_2319)">
<path d="M19 24.9275H18C17.7348 24.9275 17.4804 24.8221 17.2929 24.6346C17.1054 24.4471 17 24.1927 17 23.9275C17 23.6623 17.1054 23.4079 17.2929 23.2204C17.4804 23.0328 17.7348 22.9275 18 22.9275H19C19.7956 22.9275 20.5587 22.6114 21.1213 22.0488C21.6839 21.4862 22 20.7231 22 19.9275V18.9275C22 18.6623 22.1054 18.4079 22.2929 18.2204C22.4804 18.0328 22.7348 17.9275 23 17.9275C23.2652 17.9275 23.5196 18.0328 23.7071 18.2204C23.8946 18.4079 24 18.6623 24 18.9275V19.9275C23.9984 21.2531 23.4711 22.5239 22.5338 23.4613C21.5964 24.3986 20.3256 24.9259 19 24.9275ZM24 6.92749V5.92749C23.9984 4.6019 23.4711 3.33105 22.5338 2.39371C21.5964 1.45637 20.3256 0.929078 19 0.92749L18 0.92749C17.7348 0.92749 17.4804 1.03285 17.2929 1.22038C17.1054 1.40792 17 1.66227 17 1.92749C17 2.19271 17.1054 2.44706 17.2929 2.6346C17.4804 2.82213 17.7348 2.92749 18 2.92749H19C19.7956 2.92749 20.5587 3.24356 21.1213 3.80617C21.6839 4.36878 22 5.13184 22 5.92749V6.92749C22 7.19271 22.1054 7.44706 22.2929 7.6346C22.4804 7.82213 22.7348 7.92749 23 7.92749C23.2652 7.92749 23.5196 7.82213 23.7071 7.6346C23.8946 7.44706 24 7.19271 24 6.92749ZM7 23.9275C7 23.6623 6.89464 23.4079 6.70711 23.2204C6.51957 23.0328 6.26522 22.9275 6 22.9275H5C4.20435 22.9275 3.44129 22.6114 2.87868 22.0488C2.31607 21.4862 2 20.7231 2 19.9275V18.9275C2 18.6623 1.89464 18.4079 1.70711 18.2204C1.51957 18.0328 1.26522 17.9275 1 17.9275C0.734784 17.9275 0.48043 18.0328 0.292893 18.2204C0.105357 18.4079 0 18.6623 0 18.9275L0 19.9275C0.00158786 21.2531 0.528882 22.5239 1.46622 23.4613C2.40356 24.3986 3.67441 24.9259 5 24.9275H6C6.26522 24.9275 6.51957 24.8221 6.70711 24.6346C6.89464 24.4471 7 24.1927 7 23.9275ZM2 6.92749V5.92749C2 5.13184 2.31607 4.36878 2.87868 3.80617C3.44129 3.24356 4.20435 2.92749 5 2.92749H6C6.26522 2.92749 6.51957 2.82213 6.70711 2.6346C6.89464 2.44706 7 2.19271 7 1.92749C7 1.66227 6.89464 1.40792 6.70711 1.22038C6.51957 1.03285 6.26522 0.92749 6 0.92749H5C3.67441 0.929078 2.40356 1.45637 1.46622 2.39371C0.528882 3.33105 0.00158786 4.6019 0 5.92749L0 6.92749C0 7.19271 0.105357 7.44706 0.292893 7.6346C0.48043 7.82213 0.734784 7.92749 1 7.92749C1.26522 7.92749 1.51957 7.82213 1.70711 7.6346C1.89464 7.44706 2 7.19271 2 6.92749ZM16 12.9275C16 12.1364 15.7654 11.363 15.3259 10.7052C14.8864 10.0474 14.2616 9.53472 13.5307 9.23197C12.7998 8.92922 11.9956 8.85001 11.2196 9.00435C10.4437 9.15869 9.73098 9.53965 9.17157 10.0991C8.61216 10.6585 8.2312 11.3712 8.07686 12.1471C7.92252 12.9231 8.00173 13.7273 8.30448 14.4582C8.60723 15.1891 9.11992 15.8138 9.77772 16.2534C10.4355 16.6929 11.2089 16.9275 12 16.9275C13.0609 16.9275 14.0783 16.5061 14.8284 15.7559C15.5786 15.0058 16 13.9884 16 12.9275ZM14 12.9275C14 13.3231 13.8827 13.7097 13.6629 14.0386C13.4432 14.3675 13.1308 14.6239 12.7654 14.7752C12.3999 14.9266 11.9978 14.9662 11.6098 14.8891C11.2219 14.8119 10.8655 14.6214 10.5858 14.3417C10.3061 14.062 10.1156 13.7056 10.0384 13.3177C9.96126 12.9297 10.0009 12.5276 10.1522 12.1621C10.3036 11.7967 10.56 11.4843 10.8889 11.2646C11.2178 11.0448 11.6044 10.9275 12 10.9275C12.5304 10.9275 13.0391 11.1382 13.4142 11.5133C13.7893 11.8883 14 12.3971 14 12.9275Z" fill="#374957"/>
</g>
<defs>
<clipPath id="clip0_507_2319">
<rect width="24" height="24" fill="white" transform="translate(0 0.92749)"/>
</clipPath>
</defs>
</svg>
