<svg width="24" height="25" viewBox="0 0 24 25" fill="none" xmlns="http://www.w3.org/2000/svg">
<g clip-path="url(#clip0_507_2019)">
<path d="M19.9 4.0186C19.7771 3.49025 19.5479 2.99243 19.2265 2.55542C18.9052 2.11841 18.4982 1.75133 18.0305 1.47651C17.5629 1.20169 17.0441 1.02487 16.506 0.95681C15.9678 0.888749 15.4214 0.930866 14.9 1.0806L13.176 1.5736C12.7393 1.69912 12.337 1.92282 12 2.2276C11.663 1.92282 11.2607 1.69912 10.824 1.5736L9.1 1.0806C8.57894 0.931646 8.03304 0.89013 7.49544 0.95857C6.95784 1.02701 6.43976 1.20398 5.97263 1.47874C5.50551 1.75349 5.09909 2.12031 4.77804 2.55691C4.45699 2.99352 4.22801 3.49081 4.105 4.0186C2.9548 4.22786 1.91429 4.83356 1.16433 5.7304C0.414377 6.62724 0.00239598 7.75852 0 8.9276L0 15.9276C0.00158786 17.2532 0.528882 18.524 1.46622 19.4614C2.40356 20.3987 3.67441 20.926 5 20.9276H11V22.9276H8C7.73478 22.9276 7.48043 23.033 7.29289 23.2205C7.10536 23.408 7 23.6624 7 23.9276C7 24.1928 7.10536 24.4472 7.29289 24.6347C7.48043 24.8222 7.73478 24.9276 8 24.9276H16C16.2652 24.9276 16.5196 24.8222 16.7071 24.6347C16.8946 24.4472 17 24.1928 17 23.9276C17 23.6624 16.8946 23.408 16.7071 23.2205C16.5196 23.033 16.2652 22.9276 16 22.9276H13V20.9276H19C20.3256 20.926 21.5964 20.3987 22.5338 19.4614C23.4711 18.524 23.9984 17.2532 24 15.9276V8.9276C23.9978 7.75923 23.5865 6.62852 22.8376 5.73178C22.0886 4.83504 21.0493 4.2289 19.9 4.0186ZM13 4.4586C13.0001 4.24141 13.0709 4.03016 13.2017 3.85679C13.3325 3.68341 13.5162 3.55732 13.725 3.4976L15.45 3.0046C15.7477 2.91945 16.0611 2.90458 16.3655 2.96116C16.6699 3.01774 16.957 3.14423 17.2042 3.33065C17.4514 3.51707 17.652 3.75834 17.7901 4.03546C17.9281 4.31258 18 4.61798 18 4.9276V8.8656C17.9986 9.29955 17.8565 9.72135 17.5951 10.0677C17.3337 10.4141 16.967 10.6663 16.55 10.7866L13 11.8006V4.4586ZM6.8 3.3276C7.04673 3.14185 7.33325 3.01599 7.63695 2.95993C7.94065 2.90388 8.25322 2.91917 8.55 3.0046L10.275 3.4976C10.4838 3.55732 10.6675 3.68341 10.7983 3.85679C10.9291 4.03016 10.9999 4.24141 11 4.4586V11.8006L7.45 10.7866C7.03305 10.6663 6.66634 10.4141 6.4049 10.0677C6.14346 9.72135 6.00139 9.29955 6 8.8656V4.9276C5.99898 4.61693 6.07083 4.31035 6.20976 4.03248C6.3487 3.75461 6.55086 3.51319 6.8 3.3276ZM22 15.9276C22 16.7232 21.6839 17.4863 21.1213 18.0489C20.5587 18.6115 19.7956 18.9276 19 18.9276H5C4.20435 18.9276 3.44129 18.6115 2.87868 18.0489C2.31607 17.4863 2 16.7232 2 15.9276V8.9276C2.00256 8.30934 2.19608 7.70697 2.55409 7.2029C2.91209 6.69883 3.41709 6.31768 4 6.1116V8.8656C4.00245 9.73394 4.28642 10.5781 4.8093 11.2713C5.33218 11.9646 6.06577 12.4696 6.9 12.7106L10.351 13.6976C11.4295 14.005 12.5725 14.005 13.651 13.6976L17.102 12.7106C17.9359 12.4693 18.669 11.9641 19.1915 11.2709C19.714 10.5776 19.9977 9.73368 20 8.8656V6.1116C20.5829 6.31768 21.0879 6.69883 21.4459 7.2029C21.8039 7.70697 21.9974 8.30934 22 8.9276V15.9276Z" fill="#374957"/>
</g>
<defs>
<clipPath id="clip0_507_2019">
<rect width="24" height="24" fill="white" transform="translate(0 0.92749)"/>
</clipPath>
</defs>
</svg>
