<svg width="24" height="25" viewBox="0 0 24 25" fill="none" xmlns="http://www.w3.org/2000/svg">
<g clip-path="url(#clip0_507_2193)">
<path d="M19 0.92749H5C3.67441 0.929078 2.40356 1.45637 1.46622 2.39371C0.528882 3.33105 0.00158786 4.6019 0 5.92749L0 19.9275C0.00158786 21.2531 0.528882 22.5239 1.46622 23.4613C2.40356 24.3986 3.67441 24.9259 5 24.9275H19C20.3256 24.9259 21.5964 24.3986 22.5338 23.4613C23.4711 22.5239 23.9984 21.2531 24 19.9275V5.92749C23.9984 4.6019 23.4711 3.33105 22.5338 2.39371C21.5964 1.45637 20.3256 0.929078 19 0.92749V0.92749ZM7 22.9275V21.9275C7 20.6014 7.52678 19.3296 8.46447 18.392C9.40215 17.4543 10.6739 16.9275 12 16.9275C13.3261 16.9275 14.5979 17.4543 15.5355 18.392C16.4732 19.3296 17 20.6014 17 21.9275V22.9275H7ZM22 19.9275C22 20.7231 21.6839 21.4862 21.1213 22.0488C20.5587 22.6114 19.7956 22.9275 19 22.9275V21.9275C19 20.071 18.2625 18.2905 16.9497 16.9777C15.637 15.665 13.8565 14.9275 12 14.9275C10.1435 14.9275 8.36301 15.665 7.05025 16.9777C5.7375 18.2905 5 20.071 5 21.9275V22.9275C4.20435 22.9275 3.44129 22.6114 2.87868 22.0488C2.31607 21.4862 2 20.7231 2 19.9275V5.92749C2 5.13184 2.31607 4.36878 2.87868 3.80617C3.44129 3.24356 4.20435 2.92749 5 2.92749H19C19.7956 2.92749 20.5587 3.24356 21.1213 3.80617C21.6839 4.36878 22 5.13184 22 5.92749V19.9275Z" fill="#374957"/>
<path d="M12.0001 4.9278C11.209 4.9278 10.4356 5.16239 9.77784 5.60192C9.12005 6.04144 8.60736 6.66616 8.30461 7.39706C8.00186 8.12797 7.92264 8.93223 8.07698 9.70816C8.23132 10.4841 8.61229 11.1968 9.1717 11.7562C9.73111 12.3156 10.4438 12.6966 11.2198 12.8509C11.9957 13.0053 12.8 12.9261 13.5309 12.6233C14.2618 12.3206 14.8865 11.8079 15.326 11.1501C15.7655 10.4923 16.0001 9.71892 16.0001 8.9278C16.0001 7.86693 15.5787 6.84951 14.8286 6.09937C14.0784 5.34922 13.061 4.9278 12.0001 4.9278ZM12.0001 10.9278C11.6046 10.9278 11.2179 10.8105 10.889 10.5907C10.5601 10.371 10.3037 10.0586 10.1524 9.69316C10.001 9.32771 9.96138 8.92558 10.0386 8.53761C10.1157 8.14965 10.3062 7.79329 10.5859 7.51358C10.8656 7.23388 11.222 7.0434 11.6099 6.96622C11.9979 6.88905 12.4 6.92866 12.7655 7.08004C13.1309 7.23141 13.4433 7.48776 13.6631 7.81666C13.8828 8.14555 14.0001 8.53223 14.0001 8.9278C14.0001 9.45823 13.7894 9.96694 13.4143 10.342C13.0393 10.7171 12.5306 10.9278 12.0001 10.9278Z" fill="#374957"/>
</g>
<defs>
<clipPath id="clip0_507_2193">
<rect width="24" height="24" fill="white" transform="translate(0 0.92749)"/>
</clipPath>
</defs>
</svg>
