<svg width="24" height="25" viewBox="0 0 24 25" fill="none" xmlns="http://www.w3.org/2000/svg">
<g clip-path="url(#clip0_507_1957)">
<path d="M23.9998 12.4275C23.9993 11.7379 23.795 11.0638 23.4127 10.4899C23.0303 9.91592 22.487 9.46772 21.8508 9.20152C21.4448 6.88388 20.2345 4.78363 18.4329 3.27019C16.6313 1.75675 14.3537 0.927063 12.0008 0.927063C9.64787 0.927063 7.37029 1.75675 5.56867 3.27019C3.76706 4.78363 2.55681 6.88388 2.1508 9.20152C1.42481 9.50696 0.823052 10.0483 0.442848 10.7381C0.0626442 11.4279 -0.0737828 12.2258 0.0556278 13.0027C0.185038 13.7796 0.572721 14.4902 1.15599 15.0195C1.73925 15.5488 2.484 15.8659 3.2698 15.9195C3.78629 17.0156 4.48676 18.015 5.3408 18.8745C4.08939 20.2409 3.29519 21.9635 3.0688 23.8025C3.05241 23.9329 3.06187 24.0652 3.09663 24.1918C3.13139 24.3185 3.19076 24.4371 3.27137 24.5409C3.35198 24.6446 3.45224 24.7314 3.56641 24.7964C3.68059 24.8614 3.80645 24.9032 3.9368 24.9195C3.97795 24.9245 4.01935 24.9272 4.0608 24.9275C4.30417 24.9272 4.53908 24.8382 4.72152 24.6771C4.90395 24.5161 5.02138 24.294 5.0518 24.0525C5.2331 22.6027 5.86841 21.2474 6.8668 20.1805C8.35594 21.2797 10.1493 21.8901 11.9998 21.9275C13.8448 21.8898 15.633 21.282 17.1188 20.1875C18.1129 21.2525 18.7456 22.604 18.9268 24.0495C18.957 24.2912 19.0743 24.5135 19.2568 24.6748C19.4392 24.836 19.6743 24.9252 19.9178 24.9255C19.9596 24.9253 20.0013 24.9226 20.0428 24.9175C20.3059 24.8846 20.5451 24.7485 20.7078 24.5392C20.8706 24.3299 20.9436 24.0646 20.9108 23.8015C20.686 21.9672 19.8958 20.2484 18.6498 18.8835C19.5086 18.0214 20.2128 17.0181 20.7318 15.9175C21.6175 15.8587 22.4478 15.4655 23.0546 14.8175C23.6613 14.1695 23.9992 13.3152 23.9998 12.4275ZM20.2478 13.9005C20.0146 13.8578 19.7737 13.8999 19.5688 14.0193C19.364 14.1387 19.2086 14.3275 19.1308 14.5515C18.2148 17.1495 15.1298 19.9275 11.9998 19.9275C8.8698 19.9275 5.7848 17.1475 4.8688 14.5495C4.79084 14.3256 4.63543 14.137 4.4306 14.0176C4.22578 13.8982 3.98503 13.856 3.7518 13.8985C3.6687 13.9148 3.58443 13.9245 3.4998 13.9275C3.12859 13.9231 2.77221 13.7812 2.49959 13.5292C2.22696 13.2772 2.05747 12.9331 2.02388 12.5633C1.99029 12.1936 2.095 11.8246 2.31775 11.5276C2.5405 11.2306 2.86547 11.0268 3.2298 10.9555C3.44242 10.917 3.63683 10.8106 3.78393 10.6523C3.93103 10.4941 4.0229 10.2924 4.0458 10.0775C4.17936 8.79883 4.62061 7.57151 5.33183 6.5005C6.04304 5.4295 7.00307 4.54667 8.1298 3.92752C7.96606 4.56362 7.95852 5.22987 8.1078 5.86952C8.31111 6.71542 8.78466 7.47196 9.45667 8.02449C10.1287 8.57701 10.9625 8.89538 11.8317 8.93133C12.701 8.96729 13.5582 8.71887 14.2736 8.22373C14.9889 7.72859 15.5233 7.01374 15.7958 6.18752C15.8402 6.04075 15.8495 5.88558 15.8228 5.73457C15.7961 5.58356 15.7343 5.44095 15.6423 5.31827C15.5503 5.19559 15.4307 5.0963 15.2932 5.02841C15.1557 4.96053 15.0041 4.92597 14.8508 4.92752H14.6998C14.5159 4.93355 14.3386 4.99794 14.1937 5.11138C14.0488 5.22482 13.9438 5.38142 13.8938 5.55852C13.7776 5.90813 13.567 6.21884 13.2854 6.45637C13.0037 6.6939 12.662 6.84902 12.2978 6.90461C11.9335 6.96021 11.5611 6.91412 11.2214 6.77143C10.8817 6.62875 10.588 6.39501 10.3728 6.096C10.1575 5.79699 10.0291 5.44433 10.0015 5.07693C9.97402 4.70953 10.0485 4.34167 10.2168 4.01393C10.3851 3.68618 10.6407 3.4113 10.9553 3.21959C11.2699 3.02788 11.6314 2.92681 11.9998 2.92752C13.9756 2.92279 15.8829 3.65142 17.3523 4.97231C18.8218 6.29319 19.7487 8.11236 19.9538 10.0775C19.9767 10.2924 20.0686 10.4941 20.2157 10.6523C20.3628 10.8106 20.5572 10.917 20.7698 10.9555C21.1341 11.0268 21.4591 11.2306 21.6819 11.5276C21.9046 11.8246 22.0093 12.1936 21.9757 12.5633C21.9421 12.9331 21.7726 13.2772 21.5 13.5292C21.2274 13.7812 20.871 13.9231 20.4998 13.9275C20.4152 13.9252 20.331 13.9161 20.2478 13.9005Z" fill="#374957"/>
<path d="M9.50012 13.9276C10.3285 13.9276 11.0001 13.256 11.0001 12.4276C11.0001 11.5991 10.3285 10.9276 9.50012 10.9276C8.67169 10.9276 8.00012 11.5991 8.00012 12.4276C8.00012 13.256 8.67169 13.9276 9.50012 13.9276Z" fill="#374957"/>
<path d="M14.4998 13.9276C15.3282 13.9276 15.9998 13.256 15.9998 12.4276C15.9998 11.5991 15.3282 10.9276 14.4998 10.9276C13.6713 10.9276 12.9998 11.5991 12.9998 12.4276C12.9998 13.256 13.6713 13.9276 14.4998 13.9276Z" fill="#374957"/>
</g>
<defs>
<clipPath id="clip0_507_1957">
<rect width="24" height="24" fill="white" transform="translate(0 0.92749)"/>
</clipPath>
</defs>
</svg>
