<svg width="24" height="25" viewBox="0 0 24 25" fill="none" xmlns="http://www.w3.org/2000/svg">
<g clip-path="url(#clip0_507_2185)">
<path d="M23.1999 1.72773C22.8291 1.35374 22.3575 1.09564 21.8426 0.984853C21.3278 0.874063 20.7918 0.915365 20.2999 1.10373L3.15496 7.85673C2.03459 8.2998 1.11302 9.13432 0.561305 10.2054C0.00959331 11.2764 -0.134787 12.5113 0.154963 13.6807C0.881995 16.3345 2.28715 18.7534 4.23228 20.6996C6.17742 22.6458 8.59555 24.0523 11.2489 24.7807C12.4196 25.0687 13.6549 24.9224 14.726 24.3691C15.7971 23.8159 16.6313 22.893 17.0739 21.7717L23.8319 4.59973C24.0142 4.11097 24.0515 3.57999 23.9394 3.07055C23.8273 2.56111 23.5705 2.09484 23.1999 1.72773ZM11.7459 22.8387C9.43699 22.205 7.33264 20.9815 5.63968 19.2884C3.94671 17.5952 2.7234 15.4908 2.08996 13.1817C1.94388 12.5859 1.98723 11.9594 2.21397 11.3895C2.44071 10.8195 2.83956 10.3344 3.35496 10.0017C3.45833 13.0374 4.7103 15.9207 6.85782 18.0688C9.00535 20.2169 11.8883 21.4696 14.9239 21.5737C14.5916 22.089 14.1069 22.4877 13.5373 22.7145C12.9676 22.9412 12.3414 22.9847 11.7459 22.8387ZM15.7729 19.6117C9.58195 19.5117 5.41796 15.3467 5.31696 9.15473L21.0099 2.97473C21.141 2.9245 21.2839 2.91383 21.4209 2.94405C21.558 2.97427 21.6832 3.04405 21.7809 3.14473C21.8807 3.23801 21.951 3.35844 21.9831 3.49117C22.0153 3.6239 22.0079 3.76314 21.9619 3.89173L21.2999 5.57273C15.5419 3.59273 12.3579 11.7817 17.8869 14.2407L15.7729 19.6117ZM18.6199 12.3797C17.9927 12.1032 17.4969 11.5948 17.2361 10.9609C16.9753 10.327 16.97 9.61676 17.2211 8.97897C17.4722 8.34118 17.9603 7.82528 18.5832 7.53929C19.2062 7.25331 19.9156 7.21942 20.5629 7.44473L18.6199 12.3797Z" fill="#374957"/>
<path d="M11 9.92749C10.4696 9.92749 9.96086 10.1382 9.58579 10.5133C9.21071 10.8883 9 11.3971 9 11.9275C9 12.4579 9.21071 12.9666 9.58579 13.3417C9.96086 13.7168 10.4696 13.9275 11 13.9275C11.5304 13.9275 12.0391 13.7168 12.4142 13.3417C12.7893 12.9666 13 12.4579 13 11.9275C13 11.3971 12.7893 10.8883 12.4142 10.5133C12.0391 10.1382 11.5304 9.92749 11 9.92749Z" fill="#374957"/>
</g>
<defs>
<clipPath id="clip0_507_2185">
<rect width="24" height="24" fill="white" transform="translate(0 0.92749)"/>
</clipPath>
</defs>
</svg>
