<svg width="24" height="25" viewBox="0 0 24 25" fill="none" xmlns="http://www.w3.org/2000/svg">
<g clip-path="url(#clip0_507_2157)">
<path d="M19 20.9278H5C3.67441 20.9262 2.40356 20.3989 1.46622 19.4616C0.528882 18.5242 0.00158786 17.2534 0 15.9278L0 9.9278C0.00158786 8.6022 0.528882 7.33135 1.46622 6.39402C2.40356 5.45668 3.67441 4.92938 5 4.9278H19C20.3256 4.92938 21.5964 5.45668 22.5338 6.39402C23.4711 7.33135 23.9984 8.6022 24 9.9278V15.9278C23.9984 17.2534 23.4711 18.5242 22.5338 19.4616C21.5964 20.3989 20.3256 20.9262 19 20.9278ZM5 6.9278C4.20435 6.9278 3.44129 7.24387 2.87868 7.80648C2.31607 8.36908 2 9.13215 2 9.9278V15.9278C2 16.7234 2.31607 17.4865 2.87868 18.0491C3.44129 18.6117 4.20435 18.9278 5 18.9278H19C19.7956 18.9278 20.5587 18.6117 21.1213 18.0491C21.6839 17.4865 22 16.7234 22 15.9278V9.9278C22 9.13215 21.6839 8.36908 21.1213 7.80648C20.5587 7.24387 19.7956 6.9278 19 6.9278H5ZM12 16.9278C11.2089 16.9278 10.4355 16.6932 9.77772 16.2537C9.11992 15.8141 8.60723 15.1894 8.30448 14.4585C8.00173 13.7276 7.92252 12.9234 8.07686 12.1474C8.2312 11.3715 8.61216 10.6588 9.17157 10.0994C9.73098 9.53996 10.4437 9.15899 11.2196 9.00465C11.9956 8.85031 12.7998 8.92953 13.5307 9.23228C14.2616 9.53503 14.8864 10.0477 15.3259 10.7055C15.7654 11.3633 16 12.1367 16 12.9278C16 13.9887 15.5786 15.0061 14.8284 15.7562C14.0783 16.5064 13.0609 16.9278 12 16.9278ZM12 10.9278C11.6044 10.9278 11.2178 11.0451 10.8889 11.2649C10.56 11.4846 10.3036 11.797 10.1522 12.1624C10.0009 12.5279 9.96126 12.93 10.0384 13.318C10.1156 13.7059 10.3061 14.0623 10.5858 14.342C10.8655 14.6217 11.2219 14.8122 11.6098 14.8894C11.9978 14.9665 12.3999 14.9269 12.7654 14.7756C13.1308 14.6242 13.4432 14.3678 13.6629 14.0389C13.8827 13.71 14 13.3234 14 12.9278C14 12.3974 13.7893 11.8887 13.4142 11.5136C13.0391 11.1385 12.5304 10.9278 12 10.9278ZM5 8.9278C4.80222 8.9278 4.60888 8.98644 4.44443 9.09633C4.27998 9.20621 4.15181 9.36239 4.07612 9.54511C4.00043 9.72784 3.98063 9.9289 4.01921 10.1229C4.0578 10.3169 4.15304 10.495 4.29289 10.6349C4.43275 10.7748 4.61093 10.87 4.80491 10.9086C4.99889 10.9472 5.19996 10.9274 5.38268 10.8517C5.56541 10.776 5.72159 10.6478 5.83147 10.4834C5.94135 10.3189 6 10.1256 6 9.9278C6 9.66258 5.89464 9.40823 5.70711 9.22069C5.51957 9.03315 5.26522 8.9278 5 8.9278ZM18 9.9278C18 10.1256 18.0586 10.3189 18.1685 10.4834C18.2784 10.6478 18.4346 10.776 18.6173 10.8517C18.8 10.9274 19.0011 10.9472 19.1951 10.9086C19.3891 10.87 19.5673 10.7748 19.7071 10.6349C19.847 10.495 19.9422 10.3169 19.9808 10.1229C20.0194 9.9289 19.9996 9.72784 19.9239 9.54511C19.8482 9.36239 19.72 9.20621 19.5556 9.09633C19.3911 8.98644 19.1978 8.9278 19 8.9278C18.7348 8.9278 18.4804 9.03315 18.2929 9.22069C18.1054 9.40823 18 9.66258 18 9.9278ZM5 14.9278C4.80222 14.9278 4.60888 14.9864 4.44443 15.0963C4.27998 15.2062 4.15181 15.3624 4.07612 15.5451C4.00043 15.7278 3.98063 15.9289 4.01921 16.1229C4.0578 16.3169 4.15304 16.495 4.29289 16.6349C4.43275 16.7748 4.61093 16.87 4.80491 16.9086C4.99889 16.9472 5.19996 16.9274 5.38268 16.8517C5.56541 16.776 5.72159 16.6478 5.83147 16.4834C5.94135 16.3189 6 16.1256 6 15.9278C6 15.6626 5.89464 15.4082 5.70711 15.2207C5.51957 15.0332 5.26522 14.9278 5 14.9278ZM18 15.9278C18 16.1256 18.0586 16.3189 18.1685 16.4834C18.2784 16.6478 18.4346 16.776 18.6173 16.8517C18.8 16.9274 19.0011 16.9472 19.1951 16.9086C19.3891 16.87 19.5673 16.7748 19.7071 16.6349C19.847 16.495 19.9422 16.3169 19.9808 16.1229C20.0194 15.9289 19.9996 15.7278 19.9239 15.5451C19.8482 15.3624 19.72 15.2062 19.5556 15.0963C19.3911 14.9864 19.1978 14.9278 19 14.9278C18.7348 14.9278 18.4804 15.0332 18.2929 15.2207C18.1054 15.4082 18 15.6626 18 15.9278Z" fill="#374957"/>
</g>
<defs>
<clipPath id="clip0_507_2157">
<rect width="24" height="24" fill="white" transform="translate(0 0.92749)"/>
</clipPath>
</defs>
</svg>
