<svg width="24" height="25" viewBox="0 0 24 25" fill="none" xmlns="http://www.w3.org/2000/svg">
<g clip-path="url(#clip0_507_2332)">
<path d="M11.0068 3.50561L10.9998 18.9436C10.9998 19.2088 11.1052 19.4632 11.2927 19.6507C11.4802 19.8382 11.7346 19.9436 11.9998 19.9436C12.265 19.9436 12.5194 19.8382 12.7069 19.6507C12.8945 19.4632 12.9998 19.2088 12.9998 18.9436L13.0068 3.52261L15.9188 6.43561C16.1063 6.62308 16.3606 6.72839 16.6258 6.72839C16.891 6.72839 17.1453 6.62308 17.3328 6.43561C17.5203 6.24808 17.6256 5.99377 17.6256 5.72861C17.6256 5.46344 17.5203 5.20913 17.3328 5.02161L14.1218 1.80661C13.8432 1.52783 13.5124 1.30668 13.1483 1.15579C12.7842 1.00491 12.3939 0.927246 11.9998 0.927246C11.6057 0.927246 11.2154 1.00491 10.8513 1.15579C10.4872 1.30668 10.1564 1.52783 9.87781 1.80661L6.66681 5.01861C6.47934 5.20613 6.37402 5.46044 6.37402 5.72561C6.37402 5.99077 6.47934 6.24508 6.66681 6.43261C6.85434 6.62008 7.10865 6.72539 7.37381 6.72539C7.63897 6.72539 7.89328 6.62008 8.08081 6.43261L11.0068 3.50561Z" fill="#374957"/>
<path d="M22 17.9269V21.9269C22 22.1921 21.8946 22.4464 21.7071 22.634C21.5196 22.8215 21.2652 22.9269 21 22.9269H3C2.73478 22.9269 2.48043 22.8215 2.29289 22.634C2.10536 22.4464 2 22.1921 2 21.9269V17.9269C2 17.6617 1.89464 17.4073 1.70711 17.2198C1.51957 17.0322 1.26522 16.9269 1 16.9269C0.734784 16.9269 0.48043 17.0322 0.292893 17.2198C0.105357 17.4073 0 17.6617 0 17.9269L0 21.9269C0 22.7225 0.31607 23.4856 0.87868 24.0482C1.44129 24.6108 2.20435 24.9269 3 24.9269H21C21.7956 24.9269 22.5587 24.6108 23.1213 24.0482C23.6839 23.4856 24 22.7225 24 21.9269V17.9269C24 17.6617 23.8946 17.4073 23.7071 17.2198C23.5196 17.0322 23.2652 16.9269 23 16.9269C22.7348 16.9269 22.4804 17.0322 22.2929 17.2198C22.1054 17.4073 22 17.6617 22 17.9269Z" fill="#374957"/>
</g>
<defs>
<clipPath id="clip0_507_2332">
<rect width="24" height="24" fill="white" transform="translate(0 0.92749)"/>
</clipPath>
</defs>
</svg>
