<svg width="24" height="25" viewBox="0 0 24 25" fill="none" xmlns="http://www.w3.org/2000/svg">
<g clip-path="url(#clip0_507_2350)">
<path d="M14.4998 13.9269C14.2031 13.9269 13.9131 13.8389 13.6664 13.6741C13.4198 13.5093 13.2275 13.275 13.114 13.0009C13.0004 12.7268 12.9707 12.4252 13.0286 12.1343C13.0865 11.8433 13.2293 11.576 13.4391 11.3662C13.6489 11.1565 13.9162 11.0136 14.2071 10.9557C14.4981 10.8979 14.7997 10.9276 15.0738 11.0411C15.3479 11.1546 15.5822 11.3469 15.747 11.5936C15.9118 11.8402 15.9998 12.1302 15.9998 12.4269C15.9998 12.8247 15.8417 13.2063 15.5604 13.4876C15.2791 13.7689 14.8976 13.9269 14.4998 13.9269ZM23.9248 19.0709C24.0496 19.7891 24.0158 20.5259 23.8259 21.2297C23.6359 21.9335 23.2944 22.5873 22.8252 23.1452C22.356 23.703 21.7705 24.1516 21.1097 24.4594C20.4489 24.7672 19.7287 24.9267 18.9998 24.9269H14.9998C14.7346 24.9269 14.4802 24.8216 14.2927 24.634C14.1051 24.4465 13.9998 24.1921 13.9998 23.9269V21.6639C13.347 21.836 12.6749 21.9244 11.9998 21.9269C11.3243 21.9234 10.652 21.8327 9.99978 21.6569V23.9269C9.99978 24.1921 9.89443 24.4465 9.70689 24.634C9.51935 24.8216 9.265 24.9269 8.99978 24.9269H4.99979C4.27082 24.9267 3.5507 24.7672 2.88989 24.4594C2.22909 24.1516 1.64357 23.703 1.17437 23.1452C0.705169 22.5873 0.363633 21.9335 0.173691 21.2297C-0.016251 20.5259 -0.0500045 19.7891 0.0747952 19.0709L0.374795 17.3309C0.474553 16.7522 0.745389 16.2166 1.15238 15.7933C1.55937 15.37 2.08384 15.0783 2.65818 14.9558C3.23251 14.8333 3.83036 14.8857 4.37463 15.1062C4.91891 15.3267 5.38465 15.7052 5.71179 16.1929C6.97579 18.0509 9.40878 19.9269 11.9998 19.9269C15.1298 19.9269 18.2138 17.1479 19.1298 14.5509C19.2033 14.3557 19.3343 14.1874 19.5056 14.0683C19.6768 13.9492 19.8802 13.8849 20.0888 13.8839L20.5208 13.8909C20.7144 13.8933 20.9066 13.8572 21.0861 13.7846C21.2656 13.7121 21.429 13.6046 21.5666 13.4684C21.7042 13.3321 21.8134 13.1699 21.8877 12.9911C21.9621 12.8123 22.0002 12.6205 21.9998 12.4269C21.9994 12.0762 21.8762 11.7367 21.6515 11.4674C21.4267 11.1981 21.1148 11.016 20.7698 10.9529C20.557 10.9143 20.3625 10.8078 20.2154 10.6493C20.0683 10.4908 19.9765 10.2889 19.9538 10.0739C19.7482 8.1092 18.821 6.29063 17.3516 4.97032C15.8822 3.65001 13.9752 2.92188 11.9998 2.92691C6.42279 2.92691 4.89179 6.55491 3.66179 9.47091C3.43779 9.99791 3.22679 10.5009 2.99979 10.9539C5.01058 10.8476 6.97128 10.2879 8.73521 9.31676C10.4991 8.34561 12.0206 6.98814 13.1858 5.34591C13.2621 5.23901 13.3587 5.14819 13.4701 5.07863C13.5815 5.00907 13.7055 4.96213 13.835 4.94049C13.9646 4.91886 14.0971 4.92295 14.225 4.95253C14.353 4.98211 14.4739 5.03661 14.5808 5.11291C14.6877 5.18921 14.7785 5.28581 14.8481 5.39721C14.9176 5.50861 14.9646 5.63261 14.9862 5.76215C15.0078 5.89169 15.0037 6.02422 14.9742 6.15218C14.9446 6.28013 14.8901 6.40101 14.8138 6.50791C13.5158 8.34807 11.8224 9.87438 9.85778 10.9749C10.1573 11.0484 10.4268 11.2125 10.6297 11.4447C10.8326 11.6769 10.959 11.966 10.9917 12.2726C11.0244 12.5793 10.9618 12.8885 10.8124 13.1583C10.663 13.4281 10.4341 13.6452 10.1568 13.7802C9.87959 13.9153 9.56748 13.9615 9.26299 13.9128C8.9585 13.864 8.67643 13.7226 8.45519 13.5078C8.23396 13.293 8.08431 13.0152 8.02662 12.7123C7.96892 12.4094 8.006 12.096 8.13279 11.8149C5.83361 12.7459 3.34759 13.1227 0.875794 12.9149C0.669766 12.8873 0.477464 12.7962 0.325632 12.6542C0.1738 12.5122 0.0699855 12.3264 0.0286266 12.1227C-0.0127322 11.919 0.0104205 11.7075 0.0948647 11.5175C0.179309 11.3276 0.320847 11.1687 0.499795 11.0629C1.10433 10.377 1.55418 9.56906 1.81879 8.69391C3.12379 5.60091 5.09979 0.926908 11.9998 0.926908C14.3541 0.92133 16.6346 1.74896 18.4373 3.26327C20.2401 4.77759 21.4489 6.88091 21.8498 9.20091C22.4861 9.46695 23.0297 9.91509 23.4122 10.489C23.7947 11.063 23.9991 11.7372 23.9998 12.4269C23.9981 13.2579 23.6946 14.0599 23.1458 14.6839C23.1528 14.7099 23.1708 14.7309 23.1758 14.7589L23.9248 19.0709ZM7.99979 20.8669C6.41804 20.0193 5.06566 18.8004 4.05879 17.3149C3.9731 17.1854 3.85685 17.079 3.7203 17.005C3.58374 16.9311 3.43108 16.8919 3.27579 16.8909H3.25879C3.03985 16.8955 2.82931 16.976 2.66315 17.1186C2.49699 17.2613 2.38552 17.4572 2.34779 17.6729L2.04779 19.4119C1.97273 19.8427 1.99274 20.2847 2.10643 20.7069C2.22012 21.1291 2.42473 21.5214 2.70595 21.8563C2.98716 22.1911 3.33818 22.4604 3.73441 22.6454C4.13065 22.8303 4.56252 22.9264 4.99979 22.9269H7.99979V20.8669ZM21.9548 19.4119L21.3268 15.7989C21.1366 15.8442 20.9429 15.873 20.7478 15.8849C19.7389 18.0138 18.075 19.7638 15.9998 20.8789V22.9269H18.9998C19.4372 22.9268 19.8693 22.8311 20.2658 22.6464C20.6623 22.4617 21.0137 22.1925 21.2952 21.8577C21.5767 21.5229 21.7816 21.1306 21.8956 20.7083C22.0095 20.286 22.0297 19.8439 21.9548 19.4129V19.4119Z" fill="#374957"/>
</g>
<defs>
<clipPath id="clip0_507_2350">
<rect width="24" height="24" fill="white" transform="translate(0 0.92749)"/>
</clipPath>
</defs>
</svg>
