<svg width="24" height="25" viewBox="0 0 24 25" fill="none" xmlns="http://www.w3.org/2000/svg">
<g clip-path="url(#clip0_507_2197)">
<path d="M19 6.92749V4.92749C19 3.86662 18.5786 2.84921 17.8284 2.09906C17.0783 1.34892 16.0609 0.92749 15 0.92749L9 0.92749C7.93913 0.92749 6.92172 1.34892 6.17157 2.09906C5.42143 2.84921 5 3.86662 5 4.92749V6.92749C3.67441 6.92908 2.40356 7.45637 1.46622 8.39371C0.528882 9.33105 0.00158786 10.6019 0 11.9275L0 16.9275C0.00158786 18.2531 0.528882 19.5239 1.46622 20.4613C2.40356 21.3986 3.67441 21.9259 5 21.9275C5 22.7231 5.31607 23.4862 5.87868 24.0488C6.44129 24.6114 7.20435 24.9275 8 24.9275H16C16.7956 24.9275 17.5587 24.6114 18.1213 24.0488C18.6839 23.4862 19 22.7231 19 21.9275C20.3256 21.9259 21.5964 21.3986 22.5338 20.4613C23.4711 19.5239 23.9984 18.2531 24 16.9275V11.9275C23.9984 10.6019 23.4711 9.33105 22.5338 8.39371C21.5964 7.45637 20.3256 6.92908 19 6.92749ZM7 4.92749C7 4.39706 7.21071 3.88835 7.58579 3.51328C7.96086 3.1382 8.46957 2.92749 9 2.92749H15C15.5304 2.92749 16.0391 3.1382 16.4142 3.51328C16.7893 3.88835 17 4.39706 17 4.92749V6.92749H7V4.92749ZM17 21.9275C17 22.1927 16.8946 22.4471 16.7071 22.6346C16.5196 22.8221 16.2652 22.9275 16 22.9275H8C7.73478 22.9275 7.48043 22.8221 7.29289 22.6346C7.10536 22.4471 7 22.1927 7 21.9275V17.9275C7 17.6623 7.10536 17.4079 7.29289 17.2204C7.48043 17.0328 7.73478 16.9275 8 16.9275H16C16.2652 16.9275 16.5196 17.0328 16.7071 17.2204C16.8946 17.4079 17 17.6623 17 17.9275V21.9275ZM22 16.9275C22 17.7231 21.6839 18.4862 21.1213 19.0488C20.5587 19.6114 19.7956 19.9275 19 19.9275V17.9275C19 17.1318 18.6839 16.3688 18.1213 15.8062C17.5587 15.2436 16.7956 14.9275 16 14.9275H8C7.20435 14.9275 6.44129 15.2436 5.87868 15.8062C5.31607 16.3688 5 17.1318 5 17.9275V19.9275C4.20435 19.9275 3.44129 19.6114 2.87868 19.0488C2.31607 18.4862 2 17.7231 2 16.9275V11.9275C2 11.1318 2.31607 10.3688 2.87868 9.80617C3.44129 9.24356 4.20435 8.92749 5 8.92749H19C19.7956 8.92749 20.5587 9.24356 21.1213 9.80617C21.6839 10.3688 22 11.1318 22 11.9275V16.9275Z" fill="#374957"/>
<path d="M18 10.9278H16C15.7348 10.9278 15.4804 11.0332 15.2929 11.2207C15.1054 11.4082 15 11.6626 15 11.9278C15 12.193 15.1054 12.4474 15.2929 12.6349C15.4804 12.8224 15.7348 12.9278 16 12.9278H18C18.2652 12.9278 18.5196 12.8224 18.7071 12.6349C18.8946 12.4474 19 12.193 19 11.9278C19 11.6626 18.8946 11.4082 18.7071 11.2207C18.5196 11.0332 18.2652 10.9278 18 10.9278Z" fill="#374957"/>
</g>
<defs>
<clipPath id="clip0_507_2197">
<rect width="24" height="24" fill="white" transform="translate(0 0.92749)"/>
</clipPath>
</defs>
</svg>
