<svg width="24" height="25" viewBox="0 0 24 25" fill="none" xmlns="http://www.w3.org/2000/svg">
<g clip-path="url(#clip0_507_1878)">
<path d="M17.246 7.1205C18.24 6.03226 18.8501 4.64835 18.983 3.1805C19.0215 2.87782 18.9903 2.57033 18.8917 2.28157C18.7931 1.99281 18.6298 1.73044 18.4142 1.51454C18.1986 1.29864 17.9364 1.13493 17.6478 1.03595C17.3592 0.936975 17.0517 0.905348 16.749 0.943492C15.8385 1.01499 14.9544 1.28302 14.1575 1.72912C13.3606 2.17521 12.6699 2.78876 12.133 3.5275C11.793 2.67686 11.3123 1.88953 10.711 1.19849C10.5244 1.01352 10.2725 0.90942 10.0097 0.908695C9.74699 0.90797 9.49452 1.01068 9.30691 1.19462C9.11929 1.37856 9.0116 1.62895 9.00712 1.89165C9.00265 2.15436 9.10174 2.40827 9.28298 2.59849C10.2743 3.83293 10.8545 5.34669 10.942 6.9275H8.49998C6.18088 6.99837 3.98434 7.98523 2.39125 9.67204C0.798158 11.3588 -0.0616804 13.6081 -2.07468e-05 15.9275C-0.161021 21.5275 5.64398 26.7005 10.75 24.3125C11.1399 24.0646 11.5932 23.9345 12.0553 23.9378C12.5174 23.9412 12.9687 24.0779 13.355 24.3315C14.0078 24.709 14.746 24.9141 15.5 24.9275C25.764 24.6435 27.066 9.5095 17.246 7.1205ZM14.223 4.0955C14.9987 3.41719 15.9727 3.00753 17 2.9275C16.918 3.95266 16.5089 4.92438 15.833 5.6995C15.0566 6.37739 14.0825 6.78697 13.055 6.8675C13.1362 5.84197 13.5458 4.86992 14.223 4.0955ZM15.5 22.9275C15.0593 22.9106 14.6306 22.7793 14.256 22.5465C13.5695 22.1501 12.7926 21.9369 12 21.9275C11.2495 21.9449 10.5151 22.1487 9.86298 22.5205C6.00498 24.1885 1.89998 20.0685 1.99998 15.9275C1.93831 14.1385 2.58745 12.3979 3.80548 11.0862C5.02351 9.77446 6.71135 8.99834 8.49998 8.9275H15.5C24.1 9.2485 24.1 22.6095 15.5 22.9275Z" fill="#374957"/>
</g>
<defs>
<clipPath id="clip0_507_1878">
<rect width="24" height="24" fill="white" transform="translate(0 0.92749)"/>
</clipPath>
</defs>
</svg>
