<svg width="24" height="25" viewBox="0 0 24 25" fill="none" xmlns="http://www.w3.org/2000/svg">
<g clip-path="url(#clip0_507_2249)">
<path d="M6.99987 24.9281C8.10444 24.9281 8.99987 24.0327 8.99987 22.9281C8.99987 21.8236 8.10444 20.9281 6.99987 20.9281C5.89531 20.9281 4.99988 21.8236 4.99988 22.9281C4.99988 24.0327 5.89531 24.9281 6.99987 24.9281Z" fill="#374957"/>
<path d="M17 24.9281C18.1046 24.9281 19 24.0327 19 22.9281C19 21.8236 18.1046 20.9281 17 20.9281C15.8954 20.9281 15 21.8236 15 22.9281C15 24.0327 15.8954 24.9281 17 24.9281Z" fill="#374957"/>
<path d="M23.6849 2.26288C23.4974 2.07541 23.2431 1.97009 22.9779 1.97009C22.7127 1.97009 22.4584 2.07541 22.2709 2.26288L17.1119 7.42688L15.5609 5.80788C15.4699 5.7132 15.3611 5.63737 15.2408 5.58472C15.1205 5.53207 14.991 5.50363 14.8597 5.50103C14.7284 5.49843 14.5979 5.52172 14.4756 5.56956C14.3533 5.61741 14.2416 5.68887 14.1469 5.77988C14.0522 5.87089 13.9764 5.97965 13.9237 6.09996C13.8711 6.22027 13.8426 6.34978 13.84 6.48108C13.8348 6.74626 13.9351 7.00266 14.1189 7.19388L15.7329 8.87288C15.9049 9.05863 16.1127 9.20758 16.3439 9.3107C16.5751 9.41383 16.8248 9.469 17.0779 9.47288H17.1109C17.3589 9.4737 17.6047 9.42524 17.8339 9.3303C18.063 9.23537 18.2711 9.09587 18.4459 8.91988L23.6849 3.67688C23.8724 3.48935 23.9777 3.23504 23.9777 2.96988C23.9777 2.70472 23.8724 2.45041 23.6849 2.26288Z" fill="#374957"/>
<path d="M21.9 9.94349C21.7707 9.92013 21.6381 9.92248 21.5097 9.9504C21.3813 9.97832 21.2597 10.0313 21.1518 10.1062C21.0439 10.1811 20.9518 10.2766 20.8808 10.3872C20.8098 10.4977 20.7613 10.6212 20.738 10.7505L20.61 11.4595C20.4853 12.1518 20.1212 12.7783 19.5814 13.2294C19.0416 13.6805 18.3605 13.9276 17.657 13.9275H5.418L4.478 5.92749H11C11.2652 5.92749 11.5196 5.82213 11.7071 5.6346C11.8946 5.44706 12 5.19271 12 4.92749C12 4.66227 11.8946 4.40792 11.7071 4.22038C11.5196 4.03285 11.2652 3.92749 11 3.92749H4.242L4.2 3.57549C4.11382 2.84609 3.76306 2.17364 3.21419 1.68559C2.66532 1.19754 1.95647 0.927803 1.222 0.92749L1 0.92749C0.734784 0.92749 0.48043 1.03285 0.292893 1.22038C0.105357 1.40792 0 1.66227 0 1.92749C0 2.19271 0.105357 2.44706 0.292893 2.6346C0.48043 2.82213 0.734784 2.92749 1 2.92749H1.222C1.46693 2.92752 1.70334 3.01745 1.88637 3.18021C2.06941 3.34296 2.18634 3.56724 2.215 3.81049L3.591 15.5105C3.73385 16.7273 4.31848 17.8493 5.23391 18.6635C6.14934 19.4777 7.33185 19.9275 8.557 19.9275H19C19.2652 19.9275 19.5196 19.8221 19.7071 19.6346C19.8946 19.4471 20 19.1927 20 18.9275C20 18.6623 19.8946 18.4079 19.7071 18.2204C19.5196 18.0328 19.2652 17.9275 19 17.9275H8.557C7.93652 17.9276 7.33127 17.7353 6.82461 17.3771C6.31796 17.019 5.93483 16.5125 5.728 15.9275H17.657C18.8293 15.9276 19.9643 15.5157 20.8638 14.7639C21.7633 14.0121 22.37 12.9682 22.578 11.8145L22.706 11.1045C22.7529 10.8437 22.6944 10.5749 22.5432 10.3572C22.3921 10.1395 22.1608 9.99072 21.9 9.94349Z" fill="#374957"/>
</g>
<defs>
<clipPath id="clip0_507_2249">
<rect width="24" height="24" fill="white" transform="translate(0 0.92749)"/>
</clipPath>
</defs>
</svg>
