<svg width="24" height="25" viewBox="0 0 24 25" fill="none" xmlns="http://www.w3.org/2000/svg">
<path d="M16.0399 4.9281C15.3841 4.92967 14.7468 5.14544 14.2249 5.54257C13.7031 5.93971 13.3252 6.49646 13.1489 7.1281L9.09992 21.6961C9.00311 22.0473 8.79463 22.3575 8.50598 22.5797C8.21734 22.802 7.8642 22.9243 7.49992 22.9281C7.14362 22.9234 6.79729 22.8098 6.50737 22.6027C6.21746 22.3955 5.99782 22.1046 5.87792 21.7691L3.08492 14.0891C2.9029 13.5658 2.5979 13.0939 2.19558 12.713C1.79326 12.332 1.30537 12.0533 0.772925 11.9001C0.515135 11.8376 0.292715 11.6753 0.154594 11.4489C0.0164741 11.2224 -0.0260323 10.9504 0.0364261 10.6926C0.0988845 10.4348 0.261191 10.2124 0.487641 10.0743C0.714091 9.93615 0.986134 9.89364 1.24392 9.9561C2.09805 10.185 2.88341 10.6189 3.53185 11.2201C4.18029 11.8213 4.67221 12.5717 4.96492 13.4061L7.43892 20.2061L11.2229 6.5901C11.5176 5.53845 12.1475 4.61173 13.0169 3.95076C13.8863 3.2898 14.9478 2.93072 16.0399 2.9281H22.9999C23.2651 2.9281 23.5195 3.03346 23.707 3.22099C23.8945 3.40853 23.9999 3.66288 23.9999 3.9281C23.9999 4.19332 23.8945 4.44767 23.707 4.63521C23.5195 4.82274 23.2651 4.9281 22.9999 4.9281H16.0399ZM23.5999 13.1281C23.3877 12.969 23.121 12.9006 22.8585 12.9382C22.5959 12.9757 22.359 13.1159 22.1999 13.3281L19.9999 16.2611L17.7999 13.3281C17.6408 13.1159 17.4039 12.9757 17.1413 12.9382C16.8788 12.9006 16.6121 12.969 16.3999 13.1281C16.1877 13.2872 16.0475 13.5241 16.01 13.7867C15.9724 14.0492 16.0408 14.3159 16.1999 14.5281L18.7499 17.9281L16.1999 21.3281C16.1211 21.4332 16.0638 21.5527 16.0312 21.6799C15.9986 21.8071 15.9914 21.9395 16.01 22.0695C16.0285 22.1995 16.0725 22.3246 16.1394 22.4376C16.2063 22.5506 16.2948 22.6493 16.3999 22.7281C16.505 22.8069 16.6245 22.8642 16.7517 22.8968C16.8789 22.9294 17.0113 22.9366 17.1413 22.9181C17.2713 22.8995 17.3964 22.8555 17.5094 22.7886C17.6224 22.7217 17.7211 22.6332 17.7999 22.5281L19.9999 19.5951L22.1999 22.5281C22.2787 22.6332 22.3774 22.7217 22.4904 22.7886C22.6034 22.8555 22.7285 22.8995 22.8585 22.9181C22.9885 22.9366 23.1209 22.9294 23.2481 22.8968C23.3753 22.8642 23.4948 22.8069 23.5999 22.7281C23.705 22.6493 23.7935 22.5506 23.8604 22.4376C23.9273 22.3246 23.9713 22.1995 23.9898 22.0695C24.0084 21.9395 24.0012 21.8071 23.9686 21.6799C23.936 21.5527 23.8787 21.4332 23.7999 21.3281L21.2499 17.9281L23.7999 14.5281C23.8787 14.423 23.936 14.3035 23.9686 14.1763C24.0012 14.0491 24.0084 13.9167 23.9898 13.7867C23.9713 13.6567 23.9273 13.5316 23.8604 13.4186C23.7935 13.3056 23.705 13.2069 23.5999 13.1281Z" fill="#374957"/>
</svg>
