<svg width="24" height="25" viewBox="0 0 24 25" fill="none" xmlns="http://www.w3.org/2000/svg">
<g clip-path="url(#clip0_507_2147)">
<path d="M23 11.9272H1C0.447715 11.9272 0 12.3749 0 12.9272C0 13.4795 0.447715 13.9272 1 13.9272H23C23.5523 13.9272 24 13.4795 24 12.9272C24 12.3749 23.5523 11.9272 23 11.9272Z" fill="#374957"/>
<path d="M23 4.9278H1C0.447715 4.9278 0 5.37551 0 5.92779C0 6.48008 0.447715 6.92779 1 6.92779H23C23.5523 6.92779 24 6.48008 24 5.92779C24 5.37551 23.5523 4.9278 23 4.9278Z" fill="#374957"/>
<path d="M23 18.9275H1C0.447715 18.9275 0 19.3752 0 19.9275C0 20.4798 0.447715 20.9275 1 20.9275H23C23.5523 20.9275 24 20.4798 24 19.9275C24 19.3752 23.5523 18.9275 23 18.9275Z" fill="#374957"/>
</g>
<defs>
<clipPath id="clip0_507_2147">
<rect width="24" height="24" fill="white" transform="translate(0 0.92749)"/>
</clipPath>
</defs>
</svg>
