<svg width="24" height="25" viewBox="0 0 24 25" fill="none" xmlns="http://www.w3.org/2000/svg">
<g clip-path="url(#clip0_507_2273)">
<path d="M21.7701 9.87584C21.6069 9.8175 21.4578 9.72555 21.3324 9.60594C21.207 9.48633 21.1081 9.34172 21.0421 9.18147C20.9761 9.02123 20.9445 8.84892 20.9493 8.67569C20.9542 8.50246 20.9953 8.33217 21.0701 8.17584C21.3571 7.5719 21.4501 6.89393 21.3364 6.235C21.2228 5.57607 20.9079 4.96847 20.4352 4.4956C19.9624 4.02273 19.3549 3.70776 18.696 3.59393C18.0371 3.4801 17.3591 3.57299 16.7551 3.85984C16.5987 3.93447 16.4285 3.97547 16.2553 3.98021C16.0821 3.98495 15.9098 3.95332 15.7496 3.88735C15.5894 3.82139 15.4448 3.72256 15.3252 3.59725C15.2056 3.47193 15.1135 3.32292 15.0551 3.15984C14.8303 2.53092 14.4165 1.98687 13.8705 1.60221C13.3245 1.21755 12.673 1.01108 12.0051 1.01108C11.3372 1.01108 10.6856 1.21755 10.1396 1.60221C9.59362 1.98687 9.17988 2.53092 8.95507 3.15984C8.89673 3.32302 8.80478 3.47214 8.68517 3.59753C8.56556 3.72293 8.42095 3.82182 8.26071 3.88781C8.10046 3.95379 7.92815 3.9854 7.75492 3.98058C7.58169 3.97576 7.4114 3.93463 7.25507 3.85984C6.65075 3.57071 5.97164 3.47608 5.31129 3.58899C4.65095 3.7019 4.04186 4.01679 3.56793 4.49028C3.094 4.96377 2.77855 5.57257 2.66503 6.23281C2.55151 6.89305 2.64551 7.57225 2.93407 8.17684C3.00902 8.33314 3.05028 8.50346 3.05518 8.67673C3.06008 8.85001 3.0285 9.02237 2.9625 9.18266C2.8965 9.34295 2.79755 9.48758 2.67206 9.60716C2.54657 9.72675 2.39735 9.81863 2.23407 9.87684C1.6056 10.1021 1.06206 10.516 0.677791 11.062C0.293519 11.6079 0.0872803 12.2592 0.0872803 12.9268C0.0872803 13.5945 0.293519 14.2458 0.677791 14.7917C1.06206 15.3377 1.6056 15.7516 2.23407 15.9768C2.39769 16.0347 2.54733 16.1262 2.67327 16.2456C2.79922 16.365 2.89865 16.5096 2.96513 16.6699C3.03161 16.8302 3.06364 17.0026 3.05915 17.1761C3.05466 17.3496 3.01375 17.5202 2.93907 17.6768C2.65191 18.2804 2.55857 18.9581 2.67186 19.6168C2.78514 20.2755 3.0995 20.883 3.5718 21.356C4.0441 21.829 4.6512 22.1442 5.30976 22.2584C5.96833 22.3726 6.64611 22.2802 7.25007 21.9938C7.4064 21.9191 7.57669 21.8779 7.74992 21.8731C7.92315 21.8683 8.09546 21.8999 8.25571 21.9659C8.41595 22.0319 8.56056 22.1307 8.68017 22.2561C8.79978 22.3815 8.89173 22.5307 8.95007 22.6938C9.17488 23.3228 9.58862 23.8668 10.1346 24.2515C10.6806 24.6361 11.3322 24.8426 12.0001 24.8426C12.668 24.8426 13.3195 24.6361 13.8655 24.2515C14.4115 23.8668 14.8253 23.3228 15.0501 22.6938C15.1084 22.5307 15.2004 22.3815 15.32 22.2561C15.4396 22.1307 15.5842 22.0319 15.7444 21.9659C15.9047 21.8999 16.077 21.8683 16.2502 21.8731C16.4235 21.8779 16.5937 21.9191 16.7501 21.9938C17.354 22.2808 18.032 22.3739 18.6909 22.2602C19.3498 22.1465 19.9574 21.8317 20.4303 21.3589C20.9032 20.8862 21.2182 20.2786 21.332 19.6197C21.4458 18.9608 21.3529 18.2829 21.0661 17.6788C20.9914 17.5225 20.9504 17.3522 20.9457 17.179C20.941 17.0058 20.9726 16.8336 21.0386 16.6734C21.1045 16.5132 21.2034 16.3686 21.3287 16.249C21.454 16.1293 21.603 16.0373 21.7661 15.9788C22.395 15.754 22.939 15.3403 23.3237 14.7943C23.7084 14.2483 23.9148 13.5967 23.9148 12.9288C23.9148 12.2609 23.7084 11.6094 23.3237 11.0634C22.939 10.5174 22.395 10.1037 21.7661 9.87884L21.7701 9.87584ZM21.1001 14.0948C20.6731 14.2467 20.2828 14.4864 19.9543 14.7986C19.6258 15.1108 19.3665 15.4884 19.1931 15.907C19.0197 16.3257 18.936 16.776 18.9476 17.229C18.9591 17.682 19.0656 18.1276 19.2601 18.5368C19.3701 18.768 19.4059 19.0276 19.3624 19.2799C19.3189 19.5322 19.1984 19.7649 19.0173 19.9459C18.8362 20.1269 18.6034 20.2473 18.3511 20.2906C18.0987 20.334 17.8392 20.2981 17.6081 20.1878C17.1989 19.9933 16.7534 19.8869 16.3005 19.8754C15.8475 19.8638 15.3972 19.9475 14.9787 20.1209C14.5601 20.2943 14.1826 20.5537 13.8705 20.8821C13.5585 21.2106 13.3188 21.6009 13.1671 22.0278C13.0817 22.2691 12.9236 22.4779 12.7146 22.6256C12.5056 22.7733 12.256 22.8526 12.0001 22.8526C11.7442 22.8526 11.4945 22.7733 11.2856 22.6256C11.0766 22.4779 10.9185 22.2691 10.8331 22.0278C10.6811 21.601 10.4413 21.2108 10.1291 20.8824C9.81691 20.554 9.43933 20.2947 9.02072 20.1213C8.60212 19.9479 8.1518 19.8642 7.69884 19.8757C7.24589 19.8872 6.80038 19.9935 6.39107 20.1878C6.15994 20.2976 5.90051 20.3331 5.6484 20.2894C5.39629 20.2458 5.16387 20.1252 4.98306 19.9441C4.80225 19.7631 4.68192 19.5306 4.63859 19.2784C4.59526 19.0262 4.63106 18.7668 4.74107 18.5358C4.93555 18.1266 5.04196 17.681 5.05342 17.2281C5.06489 16.7751 4.98115 16.3247 4.80763 15.9062C4.63411 15.4876 4.37466 15.1101 4.04607 14.7981C3.71749 14.4861 3.32707 14.2465 2.90007 14.0948C2.65929 14.009 2.45097 13.8507 2.30366 13.6418C2.15636 13.4329 2.07729 13.1835 2.07729 12.9278C2.07729 12.6722 2.15636 12.4228 2.30366 12.2139C2.45097 12.005 2.65929 11.8467 2.90007 11.7608C3.32721 11.6092 3.71775 11.3696 4.04641 11.0575C4.37507 10.7454 4.63452 10.3678 4.80797 9.94906C4.98142 9.53032 5.06501 9.07983 5.05331 8.62674C5.04162 8.17365 4.9349 7.72807 4.74007 7.31884C4.6302 7.08777 4.59456 6.82836 4.63804 6.57622C4.68152 6.32409 4.802 6.0916 4.98291 5.91068C5.16383 5.72976 5.39632 5.60929 5.64846 5.56581C5.90059 5.52233 6.16001 5.55797 6.39107 5.66784C6.80035 5.86234 7.24589 5.96881 7.69889 5.98035C8.15188 5.99189 8.60226 5.90824 9.02091 5.73483C9.43956 5.56141 9.81716 5.30208 10.1293 4.97359C10.4415 4.64511 10.6812 4.25478 10.8331 3.82784C10.9185 3.58661 11.0766 3.37777 11.2856 3.23007C11.4945 3.08237 11.7442 3.00306 12.0001 3.00306C12.256 3.00306 12.5056 3.08237 12.7146 3.23007C12.9236 3.37777 13.0817 3.58661 13.1671 3.82784C13.3189 4.25478 13.5587 4.64511 13.8708 4.97359C14.183 5.30208 14.5606 5.56141 14.9792 5.73483C15.3979 5.90824 15.8483 5.99189 16.3013 5.98035C16.7543 5.96881 17.1998 5.86234 17.6091 5.66784C17.8402 5.55776 18.0998 5.52201 18.3522 5.56549C18.6045 5.60897 18.8371 5.72955 19.0181 5.91065C19.1991 6.09175 19.3195 6.32448 19.3629 6.57682C19.4062 6.82917 19.3703 7.08874 19.2601 7.31984C19.0656 7.72904 18.9591 8.17451 18.9476 8.62744C18.9361 9.08037 19.0197 9.53068 19.1931 9.94925C19.3666 10.3678 19.6259 10.7453 19.9544 11.0574C20.2829 11.3694 20.6732 11.6091 21.1001 11.7608C21.3413 11.8463 21.5501 12.0043 21.6978 12.2133C21.8455 12.4223 21.9248 12.6719 21.9248 12.9278C21.9248 13.1838 21.8455 13.4334 21.6978 13.6424C21.5501 13.8513 21.3413 14.0094 21.1001 14.0948Z" fill="#374957"/>
</g>
<defs>
<clipPath id="clip0_507_2273">
<rect width="24" height="24" fill="white" transform="translate(0 0.92749)"/>
</clipPath>
</defs>
</svg>
