<svg width="24" height="25" viewBox="0 0 24 25" fill="none" xmlns="http://www.w3.org/2000/svg">
<g clip-path="url(#clip0_507_2224)">
<path d="M22.0999 2.82801C18.6639 -0.602986 9.37187 0.861014 4.65187 5.58001C-0.0681291 10.299 -1.53113 19.592 1.89987 23.028C3.50646 24.3774 5.57368 25.0513 7.66687 24.908C12.0009 24.8697 16.1653 23.2183 19.3479 20.276C24.0659 15.557 25.5309 6.26401 22.0999 2.82801ZM16.3329 2.92801C17.8969 2.80266 19.4507 3.2719 20.6839 4.24201C21.6999 5.25901 22.1109 7.22801 21.9589 9.47301L15.4589 2.97301C15.7539 2.95401 16.0499 2.92801 16.3329 2.92801ZM3.31587 21.612C2.29987 20.597 1.88887 18.628 2.04087 16.383L8.54087 22.883C6.29987 23.038 4.33087 22.628 3.31587 21.612ZM17.9339 18.862C15.998 20.686 13.6031 21.95 11.0049 22.519L2.40487 13.919C2.97517 11.3216 4.24059 8.92797 6.06587 6.99401C8.00489 5.1706 10.4042 3.9101 13.0059 3.34801L21.5919 11.934C21.0229 14.5322 19.7585 16.9269 17.9339 18.862ZM17.7069 12.635C17.5193 12.8225 17.265 12.9278 16.9999 12.9278C16.7347 12.9278 16.4804 12.8225 16.2929 12.635L14.9999 11.342L13.4139 12.928L14.7069 14.221C14.8024 14.3133 14.8786 14.4236 14.931 14.5456C14.9834 14.6676 15.011 14.7988 15.0121 14.9316C15.0133 15.0644 14.988 15.1961 14.9377 15.319C14.8874 15.4419 14.8132 15.5535 14.7193 15.6474C14.6254 15.7413 14.5137 15.8156 14.3908 15.8658C14.2679 15.9161 14.1362 15.9414 14.0035 15.9403C13.8707 15.9391 13.7395 15.9115 13.6175 15.8591C13.4955 15.8067 13.3851 15.7305 13.2929 15.635L11.9999 14.342L10.4139 15.928L11.7069 17.221C11.8024 17.3133 11.8786 17.4236 11.931 17.5456C11.9834 17.6676 12.011 17.7988 12.0121 17.9316C12.0133 18.0644 11.988 18.1961 11.9377 18.319C11.8874 18.4419 11.8132 18.5535 11.7193 18.6474C11.6254 18.7413 11.5137 18.8156 11.3908 18.8658C11.2679 18.9161 11.1362 18.9414 11.0035 18.9403C10.8707 18.9391 10.7395 18.9115 10.6175 18.8591C10.4955 18.8067 10.3851 18.7305 10.2929 18.635L6.29287 14.635C6.11071 14.4464 6.00992 14.1938 6.0122 13.9316C6.01447 13.6694 6.11964 13.4186 6.30505 13.2332C6.49046 13.0478 6.74127 12.9426 7.00347 12.9403C7.26567 12.9381 7.51827 13.0389 7.70687 13.221L8.99987 14.514L10.5859 12.928L9.29287 11.635C9.11071 11.4464 9.00992 11.1938 9.0122 10.9316C9.01447 10.6694 9.11964 10.4186 9.30505 10.2332C9.49046 10.0478 9.74127 9.94262 10.0035 9.94034C10.2657 9.93806 10.5183 10.0389 10.7069 10.221L11.9999 11.514L13.5859 9.92801L12.2929 8.63501C12.1107 8.44641 12.0099 8.19381 12.0122 7.93161C12.0145 7.66942 12.1196 7.4186 12.3051 7.2332C12.4905 7.04779 12.7413 6.94262 13.0035 6.94034C13.2657 6.93806 13.5183 7.03886 13.7069 7.22101L17.7069 11.221C17.8943 11.4085 17.9997 11.6629 17.9997 11.928C17.9997 12.1932 17.8943 12.4475 17.7069 12.635Z" fill="#374957"/>
</g>
<defs>
<clipPath id="clip0_507_2224">
<rect width="24" height="24" fill="white" transform="translate(0 0.92749)"/>
</clipPath>
</defs>
</svg>
