<svg width="24" height="25" viewBox="0 0 24 25" fill="none" xmlns="http://www.w3.org/2000/svg">
<g clip-path="url(#clip0_507_2112)">
<path d="M20.4571 5.48258L12.4861 1.05358C12.3375 0.970917 12.1702 0.927536 12.0001 0.927536C11.83 0.927536 11.6628 0.970917 11.5141 1.05358L3.54312 5.48258C3.07553 5.74237 2.6859 6.12246 2.4146 6.58348C2.1433 7.04449 2.0002 7.56966 2.00012 8.10458V19.9276C2.00171 21.2532 2.529 22.524 3.46634 23.4614C4.40368 24.3987 5.67453 24.926 7.00012 24.9276H17.0001C18.3257 24.926 19.5966 24.3987 20.5339 23.4614C21.4712 22.524 21.9985 21.2532 22.0001 19.9276V8.10458C22 7.56966 21.8569 7.04449 21.5856 6.58348C21.3143 6.12246 20.9247 5.74237 20.4571 5.48258ZM20.0001 19.9276C20.0001 20.7232 19.6841 21.4863 19.1214 22.0489C18.5588 22.6115 17.7958 22.9276 17.0001 22.9276H7.00012C6.20447 22.9276 5.44141 22.6115 4.8788 22.0489C4.31619 21.4863 4.00012 20.7232 4.00012 19.9276V8.10458C3.99968 7.9257 4.04722 7.74997 4.13781 7.59572C4.22839 7.44147 4.35869 7.31433 4.51512 7.22758L12.0001 3.07158L19.4861 7.22758C19.6424 7.31446 19.7725 7.44165 19.8629 7.59589C19.9533 7.75014 20.0007 7.9258 20.0001 8.10458V19.9276Z" fill="#374957"/>
<path d="M12 9.4278C12.8284 9.4278 13.5 8.75622 13.5 7.9278C13.5 7.09937 12.8284 6.4278 12 6.4278C11.1716 6.4278 10.5 7.09937 10.5 7.9278C10.5 8.75622 11.1716 9.4278 12 9.4278Z" fill="#374957"/>
</g>
<defs>
<clipPath id="clip0_507_2112">
<rect width="24" height="24" fill="white" transform="translate(0 0.92749)"/>
</clipPath>
</defs>
</svg>
