<svg width="24" height="25" viewBox="0 0 24 25" fill="none" xmlns="http://www.w3.org/2000/svg">
<g clip-path="url(#clip0_507_2252)">
<path d="M18.9 0.927083H5.1C3.76103 0.915084 2.472 1.43483 1.51584 2.37224C0.559682 3.30965 0.0145152 4.58814 0 5.92708L0 8.92708C0 9.1923 0.105357 9.44665 0.292893 9.63419C0.48043 9.82173 0.734784 9.92708 1 9.92708C1.26522 9.92708 1.51957 9.82173 1.70711 9.63419C1.89464 9.44665 2 9.1923 2 8.92708V5.92708C2.01421 5.11848 2.34856 4.34853 2.92971 3.78612C3.51087 3.22371 4.29137 2.91478 5.1 2.92708H18.9C19.7086 2.91478 20.4891 3.22371 21.0703 3.78612C21.6514 4.34853 21.9858 5.11848 22 5.92708V19.9271C21.9858 20.7357 21.6514 21.5056 21.0703 22.068C20.4891 22.6305 19.7086 22.9394 18.9 22.9271H5.1C4.29137 22.9394 3.51087 22.6305 2.92971 22.068C2.34856 21.5056 2.01421 20.7357 2 19.9271V16.9271C2 16.6619 1.89464 16.4075 1.70711 16.22C1.51957 16.0324 1.26522 15.9271 1 15.9271C0.734784 15.9271 0.48043 16.0324 0.292893 16.22C0.105357 16.4075 0 16.6619 0 16.9271L0 19.9271C0.0145152 21.266 0.559682 22.5445 1.51584 23.4819C2.472 24.4193 3.76103 24.9391 5.1 24.9271H18.9C20.239 24.9391 21.528 24.4193 22.4842 23.4819C23.4403 22.5445 23.9855 21.266 24 19.9271V5.92708C23.9855 4.58814 23.4403 3.30965 22.4842 2.37224C21.528 1.43483 20.239 0.915084 18.9 0.927083Z" fill="#374957"/>
<path d="M3 12.9266C3 13.1919 3.10536 13.4462 3.29289 13.6338C3.48043 13.8213 3.73478 13.9266 4 13.9266L17.188 13.8966L12.865 18.2196C12.7695 18.3119 12.6933 18.4222 12.6409 18.5442C12.5885 18.6662 12.5609 18.7975 12.5597 18.9302C12.5586 19.063 12.5839 19.1947 12.6342 19.3176C12.6845 19.4405 12.7587 19.5521 12.8526 19.646C12.9465 19.7399 13.0581 19.8142 13.181 19.8645C13.3039 19.9147 13.4356 19.9401 13.5684 19.9389C13.7012 19.9377 13.8324 19.9102 13.9544 19.8577C14.0764 19.8053 14.1868 19.7292 14.279 19.6336L18.865 15.0476C19.4274 14.4851 19.7434 13.7221 19.7434 12.9266C19.7434 12.1312 19.4274 11.3682 18.865 10.8056L14.281 6.21965C14.0924 6.03749 13.8398 5.93669 13.5776 5.93897C13.3154 5.94125 13.0646 6.04642 12.8792 6.23183C12.6938 6.41724 12.5886 6.66805 12.5863 6.93024C12.584 7.19244 12.6848 7.44504 12.867 7.63365L17.129 11.8966L4 11.9266C3.73478 11.9266 3.48043 12.032 3.29289 12.2195C3.10536 12.4071 3 12.6614 3 12.9266Z" fill="#374957"/>
</g>
<defs>
<clipPath id="clip0_507_2252">
<rect width="24" height="24" fill="white" transform="translate(0 0.92749)"/>
</clipPath>
</defs>
</svg>
