<svg width="24" height="25" viewBox="0 0 24 25" fill="none" xmlns="http://www.w3.org/2000/svg">
<g clip-path="url(#clip0_507_2207)">
<path d="M16 0.92749H8C6.67392 0.92749 5.40215 1.45427 4.46447 2.39196C3.52678 3.32964 3 4.60141 3 5.92749V19.9275C3 20.5841 3.12933 21.2343 3.3806 21.8409C3.63188 22.4475 4.00017 22.9987 4.46447 23.463C5.40215 24.4007 6.67392 24.9275 8 24.9275H16C16.6566 24.9275 17.3068 24.7982 17.9134 24.5469C18.52 24.2956 19.0712 23.9273 19.5355 23.463C19.9998 22.9987 20.3681 22.4475 20.6194 21.8409C20.8707 21.2343 21 20.5841 21 19.9275V5.92749C21 4.60141 20.4732 3.32964 19.5355 2.39196C18.5979 1.45427 17.3261 0.92749 16 0.92749V0.92749ZM19 19.9275C19 20.7231 18.6839 21.4862 18.1213 22.0488C17.5587 22.6114 16.7956 22.9275 16 22.9275H8C7.20435 22.9275 6.44129 22.6114 5.87868 22.0488C5.31607 21.4862 5 20.7231 5 19.9275V5.92749C5 5.13184 5.31607 4.36878 5.87868 3.80617C6.44129 3.24356 7.20435 2.92749 8 2.92749H16C16.7956 2.92749 17.5587 3.24356 18.1213 3.80617C18.6839 4.36878 19 5.13184 19 5.92749V19.9275Z" fill="#374957"/>
</g>
<defs>
<clipPath id="clip0_507_2207">
<rect width="24" height="24" fill="white" transform="translate(0 0.92749)"/>
</clipPath>
</defs>
</svg>
