<svg width="24" height="25" viewBox="0 0 24 25" fill="none" xmlns="http://www.w3.org/2000/svg">
<g clip-path="url(#clip0_507_1903)">
<path d="M12.0034 0.925293C5.36579 0.925293 -0.0151367 6.30621 -0.0151367 12.9439C-0.0151367 19.5815 5.36579 24.9624 12.0034 24.9624C18.6411 24.9624 24.0219 19.5815 24.0219 12.9439C24.0219 6.30621 18.6411 0.925293 12.0034 0.925293ZM21.9431 11.8695L21.9381 11.8655C20.0023 11.6647 18.168 10.8997 16.6631 9.66551L19.7331 6.59553C20.97 8.09942 21.7383 9.93312 21.9431 11.8695ZM18.3151 5.18051L15.2491 8.25551C14.0146 6.75087 13.2495 4.91651 13.0492 2.98053C14.9816 3.18396 16.8123 3.94873 18.3151 5.18051ZM11.0531 2.97551C11.2626 5.44423 12.2352 7.78657 13.8361 9.67751L12.0001 11.5135L5.67614 5.18951C7.20821 3.93284 9.08044 3.16198 11.0531 2.97551ZM4.26169 6.60406L4.25714 6.59951L4.26216 6.6035C4.26197 6.60368 4.26183 6.60387 4.26169 6.60406L10.5862 12.9275L8.74918 14.7645C6.85936 13.1629 4.51754 12.1898 2.04919 11.9805C2.23529 10.0081 3.00568 8.13612 4.26169 6.60406ZM2.05716 13.9855V13.9815C3.99314 14.1819 5.8275 14.9469 7.33214 16.1815L4.26216 19.2515C3.0286 17.7492 2.26205 15.9185 2.05716 13.9855ZM5.68013 20.6655L8.74613 17.5955C9.98072 19.1001 10.7458 20.9345 10.9461 22.8705C9.01313 22.6656 7.18243 21.899 5.68013 20.6655ZM12.9472 22.8795C12.7381 20.4108 11.7649 18.0686 10.1632 16.1785L12.0001 14.3415L18.3241 20.6655C16.7923 21.9226 14.92 22.6935 12.9472 22.8795ZM19.7362 19.2515L13.4141 12.9275L15.2501 11.0915C17.1405 12.692 19.4821 13.6647 21.9501 13.8745C21.7637 15.8472 20.9928 17.7194 19.7362 19.2515Z" fill="#374957"/>
</g>
<defs>
<clipPath id="clip0_507_1903">
<rect width="24" height="24" fill="white" transform="translate(0 0.92749)"/>
</clipPath>
</defs>
</svg>
