<svg width="24" height="25" viewBox="0 0 24 25" fill="none" xmlns="http://www.w3.org/2000/svg">
<g clip-path="url(#clip0_507_1946)">
<path d="M18.7128 12.9274H13.9998C13.4694 12.9274 12.9606 12.7166 12.5856 12.3416C12.2105 11.9665 11.9998 11.4578 11.9998 10.9274V6.20135C12.0011 5.74133 11.8967 5.28717 11.6945 4.87396C11.4923 4.46075 11.1978 4.09957 10.8338 3.81835C10.4888 3.54516 10.0857 3.35493 9.65549 3.26234C9.22531 3.16974 8.7796 3.17728 8.35279 3.28435C5.92844 3.88616 3.78212 5.29741 2.26876 7.28471C0.7554 9.27202 -0.0343381 11.7163 0.0301473 14.2134C0.0946328 16.7105 1.00948 19.1108 2.62339 21.0173C4.23731 22.9239 6.45361 24.2225 8.90579 24.6984C11.6629 25.2261 14.5174 24.6798 16.8848 23.1713C19.2522 21.6628 20.9533 19.3063 21.6398 16.5844C21.7473 16.157 21.7551 15.7106 21.6627 15.2798C21.5703 14.8489 21.3801 14.445 21.1068 14.0994C20.8222 13.7358 20.459 13.4415 20.0443 13.2385C19.6297 13.0355 19.1744 12.9291 18.7128 12.9274ZM19.7008 16.0954C19.3179 17.6372 18.5323 19.0497 17.4245 20.1884C16.3166 21.327 14.9261 22.151 13.3953 22.5759C11.8645 23.0009 10.2483 23.0116 8.71199 22.607C7.17568 22.2024 5.7744 21.397 4.65149 20.2732C3.52858 19.1493 2.72433 17.7474 2.32101 16.2108C1.91768 14.6741 1.92975 13.0579 2.35598 11.5275C2.78222 9.99701 3.60732 8.60724 4.74689 7.50029C5.88646 6.39335 7.2996 5.60896 8.84179 5.22735C8.97372 5.19439 9.11154 5.19278 9.24421 5.22264C9.37688 5.25251 9.50071 5.31303 9.60579 5.39935C9.72988 5.49396 9.83051 5.61588 9.89988 5.75566C9.96925 5.89543 10.0055 6.04931 10.0058 6.20535V10.9274C10.0058 11.9882 10.4272 13.0056 11.1774 13.7558C11.9275 14.5059 12.9449 14.9274 14.0058 14.9274H18.7178C18.8752 14.928 19.0304 14.9643 19.1717 15.0336C19.3131 15.1029 19.4369 15.2033 19.5338 15.3274C19.6188 15.4339 19.678 15.5587 19.7068 15.6919C19.7356 15.8251 19.7332 15.9632 19.6998 16.0954H19.7008Z" fill="#374957"/>
<path d="M23.6512 8.37363C23.1908 6.6811 22.2964 5.13813 21.0566 3.89741C19.8167 2.65669 18.2744 1.76122 16.5822 1.29963C16.4048 1.25194 16.2219 1.22773 16.0382 1.22763C15.7739 1.22512 15.5118 1.275 15.267 1.37438C15.0221 1.47377 14.7994 1.62069 14.6117 1.80666C14.4239 1.99262 14.2749 2.21395 14.1732 2.45785C14.0715 2.70175 14.0192 2.96338 14.0192 3.22763V7.92763C14.0192 8.72328 14.3352 9.48634 14.8978 10.049C15.4605 10.6116 16.2235 10.9276 17.0192 10.9276H21.7382C22.0468 10.9247 22.3507 10.8506 22.626 10.7111C22.9014 10.5716 23.1409 10.3706 23.326 10.1235C23.5111 9.87645 23.6367 9.59005 23.6931 9.28657C23.7494 8.98308 23.7351 8.67068 23.6512 8.37363ZM21.1532 8.92763H17.0152C16.7499 8.92763 16.4956 8.82227 16.3081 8.63474C16.1205 8.4472 16.0152 8.19285 16.0152 7.92763L16.0072 3.23463C16.0145 3.22934 16.0232 3.22622 16.0322 3.22563H16.0582C17.4203 3.59671 18.6612 4.31854 19.6572 5.31907C20.6532 6.3196 21.3693 7.56385 21.7342 8.92763H21.1532Z" fill="#374957"/>
</g>
<defs>
<clipPath id="clip0_507_1946">
<rect width="24" height="24" fill="white" transform="translate(0 0.92749)"/>
</clipPath>
</defs>
</svg>
