<svg width="24" height="25" viewBox="0 0 24 25" fill="none" xmlns="http://www.w3.org/2000/svg">
<g clip-path="url(#clip0_507_2024)">
<path d="M14.73 8.62749C14.6381 8.5336 14.5655 8.42251 14.5165 8.30059C14.4676 8.17866 14.4431 8.04828 14.4444 7.91688C14.4458 7.78549 14.4731 7.65565 14.5247 7.53479C14.5762 7.41393 14.6511 7.30442 14.745 7.21249C14.8389 7.12056 14.95 7.04803 15.0719 6.99904C15.1938 6.95004 15.3242 6.92554 15.4556 6.92693C15.587 6.92833 15.7168 6.95559 15.8377 7.00716C15.9586 7.05873 16.0681 7.1336 16.16 7.22749L18 9.10849V1.92749C18 1.66227 18.1054 1.40792 18.2929 1.22038C18.4804 1.03285 18.7348 0.92749 19 0.92749C19.2652 0.92749 19.5196 1.03285 19.7071 1.22038C19.8946 1.40792 20 1.66227 20 1.92749V9.10849L21.84 7.22749C22.0257 7.03786 22.279 6.92975 22.5444 6.92693C22.8098 6.92412 23.0654 7.02684 23.255 7.21249C23.4446 7.39814 23.5527 7.65152 23.5556 7.91688C23.5584 8.18225 23.4557 8.43786 23.27 8.62749L20.755 11.1975C20.2932 11.6615 19.6666 11.9239 19.012 11.9275C19.0058 11.929 18.9992 11.929 18.993 11.9275C18.6697 11.9276 18.3496 11.8639 18.051 11.74C17.7524 11.6161 17.4812 11.4344 17.253 11.2055L14.73 8.62749ZM23 11.9275C22.7348 11.9275 22.4804 12.0328 22.2929 12.2204C22.1054 12.4079 22 12.6623 22 12.9275V19.9275C22 20.7231 21.6839 21.4862 21.1213 22.0488C20.5587 22.6114 19.7956 22.9275 19 22.9275H5C4.20435 22.9275 3.44129 22.6114 2.87868 22.0488C2.31607 21.4862 2 20.7231 2 19.9275V9.99849L8.465 16.4635C9.4041 17.3931 10.6716 17.9153 11.9929 17.9172C13.3143 17.9191 14.5833 17.4004 15.525 16.4735L17.407 14.6445C17.5027 14.5533 17.5794 14.4441 17.6326 14.3231C17.6858 14.2021 17.7145 14.0718 17.7171 13.9396C17.7196 13.8075 17.6959 13.6762 17.6474 13.5532C17.5988 13.4303 17.5264 13.3182 17.4343 13.2234C17.3421 13.1286 17.2321 13.0531 17.1106 13.0011C16.9891 12.9491 16.8585 12.9217 16.7263 12.9205C16.5942 12.9193 16.4631 12.9443 16.3406 12.9941C16.2182 13.0439 16.1068 13.1174 16.013 13.2105L14.121 15.0495C13.5493 15.5944 12.7898 15.8984 12 15.8984C11.2102 15.8984 10.4507 15.5944 9.879 15.0495L2.361 7.52749C2.6138 7.04603 2.99311 6.64263 3.45812 6.3607C3.92312 6.07877 4.45621 5.92899 5 5.92749H12C12.2652 5.92749 12.5196 5.82213 12.7071 5.6346C12.8946 5.44706 13 5.19271 13 4.92749C13 4.66227 12.8946 4.40792 12.7071 4.22038C12.5196 4.03285 12.2652 3.92749 12 3.92749H5C3.67441 3.92908 2.40356 4.45637 1.46622 5.39371C0.528882 6.33105 0.00158786 7.6019 0 8.92749L0 19.9275C0.00158786 21.2531 0.528882 22.5239 1.46622 23.4613C2.40356 24.3986 3.67441 24.9259 5 24.9275H19C20.3256 24.9259 21.5964 24.3986 22.5338 23.4613C23.4711 22.5239 23.9984 21.2531 24 19.9275V12.9275C24 12.6623 23.8946 12.4079 23.7071 12.2204C23.5196 12.0328 23.2652 11.9275 23 11.9275Z" fill="#374957"/>
</g>
<defs>
<clipPath id="clip0_507_2024">
<rect width="24" height="24" fill="white" transform="translate(0 0.92749)"/>
</clipPath>
</defs>
</svg>
