<svg width="24" height="25" viewBox="0 0 24 25" fill="none" xmlns="http://www.w3.org/2000/svg">
<g clip-path="url(#clip0_507_1860)">
<path d="M13.0001 2.97849V1.92749C13.0001 1.66227 12.8947 1.40792 12.7072 1.22038C12.5196 1.03285 12.2653 0.92749 12.0001 0.92749C11.7348 0.92749 11.4805 1.03285 11.2929 1.22038C11.1054 1.40792 11.0001 1.66227 11.0001 1.92749V2.97849C8.98682 3.15898 7.06248 3.8917 5.43904 5.09591C3.8156 6.30013 2.55608 7.9291 1.79924 9.80337C1.0424 11.6776 0.817611 13.7244 1.14965 15.7183C1.48169 17.7121 2.35766 19.5756 3.68105 21.1035C3.15842 21.362 2.72168 21.7662 2.42344 22.2672C2.12519 22.7682 1.97816 23.3448 2.00005 23.9275C2.00005 24.1927 2.10541 24.4471 2.29295 24.6346C2.48048 24.8221 2.73484 24.9275 3.00005 24.9275C3.26527 24.9275 3.51962 24.8221 3.70716 24.6346C3.8947 24.4471 4.00005 24.1927 4.00005 23.9275C3.99174 23.6193 4.1024 23.3197 4.30907 23.0908C4.51574 22.862 4.80257 22.7215 5.11005 22.6985C5.17884 22.6854 5.24593 22.6646 5.31005 22.6365C7.22559 24.1222 9.58089 24.9285 12.0051 24.9285C14.4292 24.9285 16.7845 24.1222 18.7001 22.6365C18.7586 22.6635 18.8195 22.6849 18.8821 22.7005C19.1906 22.7215 19.4791 22.8609 19.6874 23.0895C19.8957 23.3181 20.0077 23.6183 20.0001 23.9275C20.0001 24.1927 20.1054 24.4471 20.2929 24.6346C20.4805 24.8221 20.7348 24.9275 21.0001 24.9275C21.2653 24.9275 21.5196 24.8221 21.7072 24.6346C21.8947 24.4471 22.0001 24.1927 22.0001 23.9275C22.0219 23.3448 21.8749 22.7682 21.5767 22.2672C21.2784 21.7662 20.8417 21.362 20.3191 21.1035C21.6425 19.5756 22.5184 17.7121 22.8505 15.7183C23.1825 13.7244 22.9577 11.6776 22.2009 9.80337C21.444 7.9291 20.1845 6.30013 18.5611 5.09591C16.9376 3.8917 15.0133 3.15898 13.0001 2.97849ZM3.00005 13.9275C3.00005 12.1475 3.52789 10.4074 4.51683 8.92736C5.50576 7.44732 6.91137 6.29376 8.5559 5.61258C10.2004 4.93139 12.01 4.75316 13.7559 5.10042C15.5017 5.44769 17.1053 6.30486 18.364 7.56353C19.6227 8.8222 20.4799 10.4258 20.8271 12.1717C21.1744 13.9175 20.9962 15.7271 20.315 17.3716C19.6338 19.0162 18.4802 20.4218 17.0002 21.4107C15.5201 22.3997 13.7801 22.9275 12.0001 22.9275C9.614 22.9246 7.3265 21.9754 5.63931 20.2882C3.95211 18.601 3.00296 16.3135 3.00005 13.9275Z" fill="#374957"/>
<path d="M19.2147 0.927468C18.9495 0.927468 18.6952 1.03283 18.5076 1.22036C18.3201 1.4079 18.2147 1.66225 18.2147 1.92747C18.2147 2.19269 18.3201 2.44704 18.5076 2.63458C18.6952 2.82211 18.9495 2.92747 19.2147 2.92747C19.5634 2.90096 19.9139 2.94535 20.245 3.05795C20.5761 3.17055 20.8809 3.34904 21.1412 3.58265C21.4014 3.81626 21.6116 4.10015 21.7592 4.41721C21.9068 4.73427 21.9886 5.07793 21.9997 5.42747C21.9997 5.69268 22.1051 5.94704 22.2926 6.13457C22.4802 6.32211 22.7345 6.42747 22.9997 6.42747C23.2649 6.42747 23.5193 6.32211 23.7068 6.13457C23.8944 5.94704 23.9997 5.69268 23.9997 5.42747C23.9869 4.81596 23.8523 4.21315 23.6037 3.6543C23.3552 3.09544 22.9977 2.59177 22.5521 2.17275C22.1065 1.75373 21.5819 1.42777 21.0088 1.21395C20.4358 1.00013 19.8259 0.902736 19.2147 0.927468Z" fill="#374957"/>
<path d="M2 5.42747C2.01115 5.07793 2.09296 4.73427 2.24052 4.41721C2.38807 4.10015 2.59831 3.81626 2.85855 3.58265C3.11879 3.34904 3.42365 3.17055 3.75474 3.05795C4.08583 2.94535 4.43629 2.90096 4.785 2.92747C5.05022 2.92747 5.30457 2.82211 5.49211 2.63458C5.67964 2.44704 5.785 2.19269 5.785 1.92747C5.785 1.66225 5.67964 1.4079 5.49211 1.22036C5.30457 1.03283 5.05022 0.927468 4.785 0.927468C4.17386 0.902736 3.56393 1.00013 2.99088 1.21395C2.41784 1.42777 1.89319 1.75373 1.44763 2.17275C1.00207 2.59177 0.644547 3.09544 0.395981 3.6543C0.147415 4.21315 0.0127962 4.81596 0 5.42747C0 5.69268 0.105357 5.94704 0.292893 6.13457C0.48043 6.32211 0.734784 6.42747 1 6.42747C1.26522 6.42747 1.51957 6.32211 1.70711 6.13457C1.89464 5.94704 2 5.69268 2 5.42747Z" fill="#374957"/>
<path d="M13.0001 12.5135V7.92749C13.0001 7.66227 12.8948 7.40792 12.7072 7.22038C12.5197 7.03285 12.2653 6.92749 12.0001 6.92749C11.7349 6.92749 11.4806 7.03285 11.293 7.22038C11.1055 7.40792 11.0001 7.66227 11.0001 7.92749V12.9275C11.0002 13.1927 11.1056 13.447 11.2931 13.6345L14.2931 16.6345C14.4817 16.8166 14.7343 16.9174 14.9965 16.9152C15.2587 16.9129 15.5095 16.8077 15.6949 16.6223C15.8803 16.4369 15.9855 16.1861 15.9878 15.9239C15.9901 15.6617 15.8893 15.4091 15.7071 15.2205L13.0001 12.5135Z" fill="#374957"/>
</g>
<defs>
<clipPath id="clip0_507_1860">
<rect width="24" height="24" fill="white" transform="translate(0 0.92749)"/>
</clipPath>
</defs>
</svg>
