<svg width="24" height="25" viewBox="0 0 24 25" fill="none" xmlns="http://www.w3.org/2000/svg">
<g clip-path="url(#clip0_507_1880)">
<path d="M7 0.92749H4C2.93913 0.92749 1.92172 1.34892 1.17157 2.09906C0.421427 2.84921 0 3.86662 0 4.92749L0 7.92749C0 8.98836 0.421427 10.0058 1.17157 10.7559C1.92172 11.5061 2.93913 11.9275 4 11.9275H7C8.06087 11.9275 9.07828 11.5061 9.82843 10.7559C10.5786 10.0058 11 8.98836 11 7.92749V4.92749C11 3.86662 10.5786 2.84921 9.82843 2.09906C9.07828 1.34892 8.06087 0.92749 7 0.92749V0.92749ZM9 7.92749C9 8.45792 8.78929 8.96663 8.41421 9.3417C8.03914 9.71678 7.53043 9.92749 7 9.92749H4C3.46957 9.92749 2.96086 9.71678 2.58579 9.3417C2.21071 8.96663 2 8.45792 2 7.92749V4.92749C2 4.39706 2.21071 3.88835 2.58579 3.51328C2.96086 3.1382 3.46957 2.92749 4 2.92749H7C7.53043 2.92749 8.03914 3.1382 8.41421 3.51328C8.78929 3.88835 9 4.39706 9 4.92749V7.92749Z" fill="#374957"/>
<path d="M7 13.9275H4C2.93913 13.9275 1.92172 14.3489 1.17157 15.0991C0.421427 15.8492 0 16.8666 0 17.9275L0 20.9275C0 21.9884 0.421427 23.0058 1.17157 23.7559C1.92172 24.5061 2.93913 24.9275 4 24.9275H7C8.06087 24.9275 9.07828 24.5061 9.82843 23.7559C10.5786 23.0058 11 21.9884 11 20.9275V17.9275C11 16.8666 10.5786 15.8492 9.82843 15.0991C9.07828 14.3489 8.06087 13.9275 7 13.9275ZM9 20.9275C9 21.4579 8.78929 21.9666 8.41421 22.3417C8.03914 22.7168 7.53043 22.9275 7 22.9275H4C3.46957 22.9275 2.96086 22.7168 2.58579 22.3417C2.21071 21.9666 2 21.4579 2 20.9275V17.9275C2 17.3971 2.21071 16.8884 2.58579 16.5133C2.96086 16.1382 3.46957 15.9275 4 15.9275H7C7.53043 15.9275 8.03914 16.1382 8.41421 16.5133C8.78929 16.8884 9 17.3971 9 17.9275V20.9275Z" fill="#374957"/>
<path d="M19.9999 13.9275H16.9999C15.939 13.9275 14.9216 14.3489 14.1714 15.0991C13.4213 15.8492 12.9999 16.8666 12.9999 17.9275V20.9275C12.9999 21.9884 13.4213 23.0058 14.1714 23.7559C14.9216 24.5061 15.939 24.9275 16.9999 24.9275H19.9999C21.0607 24.9275 22.0781 24.5061 22.8283 23.7559C23.5784 23.0058 23.9999 21.9884 23.9999 20.9275V17.9275C23.9999 16.8666 23.5784 15.8492 22.8283 15.0991C22.0781 14.3489 21.0607 13.9275 19.9999 13.9275ZM21.9999 20.9275C21.9999 21.4579 21.7892 21.9666 21.4141 22.3417C21.039 22.7168 20.5303 22.9275 19.9999 22.9275H16.9999C16.4694 22.9275 15.9607 22.7168 15.5857 22.3417C15.2106 21.9666 14.9999 21.4579 14.9999 20.9275V17.9275C14.9999 17.3971 15.2106 16.8884 15.5857 16.5133C15.9607 16.1382 16.4694 15.9275 16.9999 15.9275H19.9999C20.5303 15.9275 21.039 16.1382 21.4141 16.5133C21.7892 16.8884 21.9999 17.3971 21.9999 17.9275V20.9275Z" fill="#374957"/>
<path d="M13.9999 7.92749H21.9999C22.2651 7.92749 22.5194 7.82213 22.707 7.63459C22.8945 7.44706 22.9999 7.1927 22.9999 6.92749C22.9999 6.66227 22.8945 6.40792 22.707 6.22038C22.5194 6.03285 22.2651 5.92749 21.9999 5.92749H13.9999C13.7347 5.92749 13.4803 6.03285 13.2928 6.22038C13.1052 6.40792 12.9999 6.66227 12.9999 6.92749C12.9999 7.1927 13.1052 7.44706 13.2928 7.63459C13.4803 7.82213 13.7347 7.92749 13.9999 7.92749Z" fill="#374957"/>
</g>
<defs>
<clipPath id="clip0_507_1880">
<rect width="24" height="24" fill="white" transform="translate(0 0.92749)"/>
</clipPath>
</defs>
</svg>
