<svg width="24" height="25" viewBox="0 0 24 25" fill="none" xmlns="http://www.w3.org/2000/svg">
<g clip-path="url(#clip0_507_2276)">
<path d="M24 9.92749C24.0023 9.37697 23.853 8.83644 23.5686 8.36509C23.2842 7.89374 22.8755 7.50974 22.3874 7.25515C21.8993 7.00055 21.3505 6.88518 20.8012 6.92167C20.2519 6.95815 19.7232 7.14508 19.2731 7.462C18.8229 7.77891 18.4686 8.21358 18.249 8.7184C18.0294 9.22323 17.953 9.77875 18.028 10.3241C18.1031 10.8695 18.3268 11.3837 18.6746 11.8105C19.0224 12.2372 19.481 12.56 20 12.7435V16.9275C20 18.5188 19.3679 20.0449 18.2426 21.1701C17.1174 22.2953 15.5913 22.9275 14 22.9275C12.4087 22.9275 10.8826 22.2953 9.75736 21.1701C8.63214 20.0449 8 18.5188 8 16.9275V16.8475C9.66408 16.606 11.1858 15.7742 12.2874 14.5037C13.3889 13.2332 13.9968 11.609 14 9.92749V5.92749C13.9984 4.6019 13.4711 3.33105 12.5338 2.39371C11.5964 1.45637 10.3256 0.929078 9 0.92749C8.73478 0.92749 8.48043 1.03285 8.29289 1.22038C8.10536 1.40792 8 1.66227 8 1.92749C8 2.19271 8.10536 2.44706 8.29289 2.6346C8.48043 2.82213 8.73478 2.92749 9 2.92749C9.79565 2.92749 10.5587 3.24356 11.1213 3.80617C11.6839 4.36878 12 5.13184 12 5.92749V9.92749C12 11.2536 11.4732 12.5253 10.5355 13.463C9.59785 14.4007 8.32608 14.9275 7 14.9275C5.67392 14.9275 4.40215 14.4007 3.46447 13.463C2.52678 12.5253 2 11.2536 2 9.92749V5.92749C2 5.13184 2.31607 4.36878 2.87868 3.80617C3.44129 3.24356 4.20435 2.92749 5 2.92749C5.26522 2.92749 5.51957 2.82213 5.70711 2.6346C5.89464 2.44706 6 2.19271 6 1.92749C6 1.66227 5.89464 1.40792 5.70711 1.22038C5.51957 1.03285 5.26522 0.92749 5 0.92749C3.67441 0.929078 2.40356 1.45637 1.46622 2.39371C0.528882 3.33105 0.00158786 4.6019 0 5.92749L0 9.92749C0.00321595 11.609 0.611092 13.2332 1.71264 14.5037C2.81419 15.7742 4.33592 16.606 6 16.8475V16.9275C6 19.0492 6.84285 21.0841 8.34315 22.5843C9.84344 24.0846 11.8783 24.9275 14 24.9275C16.1217 24.9275 18.1566 24.0846 19.6569 22.5843C21.1571 21.0841 22 19.0492 22 16.9275V12.7435C22.5829 12.5374 23.0879 12.1563 23.4459 11.6522C23.8039 11.1481 23.9974 10.5458 24 9.92749ZM21 10.9275C20.8022 10.9275 20.6089 10.8688 20.4444 10.759C20.28 10.6491 20.1518 10.4929 20.0761 10.3102C20.0004 10.1274 19.9806 9.92638 20.0192 9.7324C20.0578 9.53842 20.153 9.36024 20.2929 9.22038C20.4327 9.08053 20.6109 8.98529 20.8049 8.9467C20.9989 8.90812 21.2 8.92792 21.3827 9.00361C21.5654 9.0793 21.7216 9.20747 21.8315 9.37192C21.9414 9.53637 22 9.72971 22 9.92749C22 10.1927 21.8946 10.4471 21.7071 10.6346C21.5196 10.8221 21.2652 10.9275 21 10.9275Z" fill="#374957"/>
</g>
<defs>
<clipPath id="clip0_507_2276">
<rect width="24" height="24" fill="white" transform="translate(0 0.92749)"/>
</clipPath>
</defs>
</svg>
