<svg width="24" height="25" viewBox="0 0 24 25" fill="none" xmlns="http://www.w3.org/2000/svg">
<g clip-path="url(#clip0_507_2161)">
<path d="M19 23.9275C19 24.1927 18.8946 24.4471 18.7071 24.6346C18.5196 24.8221 18.2652 24.9275 18 24.9275H1C0.734784 24.9275 0.48043 24.8221 0.292893 24.6346C0.105357 24.4471 0 24.1927 0 23.9275C0 23.6623 0.105357 23.4079 0.292893 23.2204C0.48043 23.0328 0.734784 22.9275 1 22.9275H18C18.2652 22.9275 18.5196 23.0328 18.7071 23.2204C18.8946 23.4079 19 23.6623 19 23.9275ZM24 8.92749C24 11.7015 21.815 14.9275 19 14.9275H17.388L17.088 16.7485C16.8966 17.9182 16.2945 18.9814 15.3899 19.7473C14.4853 20.5132 13.3373 20.9316 12.152 20.9275H6.852C5.6674 20.9307 4.52039 20.5118 3.6166 19.746C2.7128 18.9802 2.11133 17.9175 1.92 16.7485L0.056 5.58449C-0.0393862 5.01164 -0.00889222 4.42489 0.145363 3.86501C0.299618 3.30514 0.573934 2.78556 0.949249 2.3424C1.32456 1.89923 1.79188 1.54311 2.31871 1.29877C2.84554 1.05443 3.41926 0.927732 4 0.927489H15C15.525 0.925487 16.0453 1.02771 16.5305 1.22823C17.0158 1.42875 17.4564 1.72358 17.8269 2.09564C18.1974 2.4677 18.4903 2.90959 18.6888 3.39569C18.8872 3.8818 18.9872 4.40245 18.983 4.92749H19C22.131 4.92749 24 6.42749 24 8.92749ZM16.972 5.25649C17.0198 4.97003 17.0046 4.6766 16.9275 4.3966C16.8504 4.1166 16.7133 3.85674 16.5256 3.6351C16.3379 3.41346 16.1042 3.23535 15.8408 3.11315C15.5773 2.99095 15.2904 2.9276 15 2.92749H4C3.70968 2.92762 3.42287 2.99096 3.1595 3.1131C2.89612 3.23524 2.66249 3.41326 2.47484 3.63478C2.2872 3.85631 2.15002 4.11603 2.07286 4.3959C1.9957 4.67578 1.98039 4.9691 2.028 5.25549L3.889 16.4205C4.00399 17.1218 4.36492 17.7592 4.90712 18.2186C5.44932 18.6779 6.13736 18.9293 6.848 18.9275H12.148C12.8586 18.9293 13.5467 18.6779 14.0889 18.2186C14.6311 17.7592 14.992 17.1218 15.107 16.4205L16.972 5.25649ZM22 8.92749C22 8.42749 22 6.92749 19 6.92749H18.721L17.721 12.9275H19C20.545 12.9275 22 10.6735 22 8.92749Z" fill="#374957"/>
</g>
<defs>
<clipPath id="clip0_507_2161">
<rect width="24" height="24" fill="white" transform="translate(0 0.92749)"/>
</clipPath>
</defs>
</svg>
