<svg width="24" height="25" viewBox="0 0 24 25" fill="none" xmlns="http://www.w3.org/2000/svg">
<g clip-path="url(#clip0_507_2213)">
<path d="M23 13.9281H1C0.734784 13.9281 0.48043 13.8227 0.292893 13.6352C0.105357 13.4477 0 13.1933 0 12.9281C0 12.6629 0.105357 12.4085 0.292893 12.221C0.48043 12.0334 0.734784 11.9281 1 11.9281H23C23.2652 11.9281 23.5196 12.0334 23.7071 12.221C23.8946 12.4085 24 12.6629 24 12.9281C24 13.1933 23.8946 13.4477 23.7071 13.6352C23.5196 13.8227 23.2652 13.9281 23 13.9281ZM18.934 8.05409C19.0597 7.52077 19.0012 6.96062 18.7681 6.46476C18.5349 5.9689 18.1409 5.56652 17.65 5.32309L9.668 1.35609C9.16973 1.07312 8.60635 0.924771 8.03334 0.925648C7.46032 0.926524 6.89741 1.07659 6.4 1.36109C5.96664 1.61225 5.60832 1.97472 5.36216 2.41095C5.116 2.84717 4.99096 3.34128 5 3.84209V6.92809C5 7.72374 5.31607 8.4868 5.87868 9.04941C6.44129 9.61202 7.20435 9.92809 8 9.92809H16.318C16.9035 9.96622 17.484 9.80034 17.961 9.45868C18.4379 9.11702 18.7817 8.62068 18.934 8.05409ZM8.737 3.12809L16.749 7.10809C16.838 7.14758 16.9105 7.2167 16.9543 7.30367C16.9981 7.39064 17.0103 7.49009 16.989 7.58509C16.915 7.89309 16.495 7.92609 16.318 7.92609H8C7.73513 7.92609 7.48108 7.821 7.2936 7.6339C7.10612 7.4468 7.00053 7.19296 7 6.92809V3.84209C6.99262 3.68942 7.02779 3.5377 7.1016 3.40386C7.17541 3.27002 7.28495 3.15931 7.418 3.08409C7.59825 2.9802 7.80297 2.92635 8.011 2.92809C8.26607 2.93193 8.51594 3.00077 8.737 3.12809ZM9.628 24.5221L17.661 20.5281C18.1491 20.2834 18.5403 19.8811 18.7713 19.3864C19.0024 18.8916 19.0597 18.3334 18.934 17.8021C18.7817 17.2355 18.4379 16.7392 17.961 16.3975C17.484 16.0558 16.9035 15.89 16.318 15.9281H8C7.20435 15.9281 6.44129 16.2442 5.87868 16.8068C5.31607 17.3694 5 18.1324 5 18.9281V22.0131C4.99086 22.5139 5.11585 23.0081 5.36202 23.4443C5.60819 23.8805 5.96657 24.243 6.4 24.4941C6.89555 24.7817 7.45903 24.9316 8.032 24.9281C8.59001 24.9298 9.13926 24.7894 9.628 24.5201V24.5221ZM16.318 17.9281C16.495 17.9281 16.918 17.9611 16.989 18.2691C17.0106 18.3621 16.9997 18.4597 16.958 18.5456C16.9163 18.6315 16.8464 18.7005 16.76 18.7411L8.7 22.7501C8.5062 22.8622 8.28696 22.9229 8.0631 22.9264C7.83924 22.9299 7.61821 22.8761 7.421 22.7701C7.28731 22.6953 7.1771 22.5848 7.10274 22.4509C7.02837 22.317 6.99279 22.1651 7 22.0121V18.9281C7 18.6629 7.10536 18.4085 7.29289 18.221C7.48043 18.0334 7.73478 17.9281 8 17.9281H16.318Z" fill="#374957"/>
</g>
<defs>
<clipPath id="clip0_507_2213">
<rect width="24" height="24" fill="white" transform="translate(0 0.92749)"/>
</clipPath>
</defs>
</svg>
