<svg width="24" height="25" viewBox="0 0 24 25" fill="none" xmlns="http://www.w3.org/2000/svg">
<g clip-path="url(#clip0_507_2035)">
<path d="M22.8271 2.10164C22.3419 1.61199 21.7375 1.25719 21.0734 1.07219C20.4094 0.887199 19.7086 0.87839 19.0401 1.04663C13.8577 2.40718 9.11141 5.07574 5.25608 8.79664C4.49768 9.55962 3.90627 10.472 3.51944 11.4759C3.1326 12.4797 2.9588 13.553 3.00908 14.6276C3.08071 16.1876 3.62825 17.6882 4.57808 18.9276L0.293081 23.2206C0.197571 23.3129 0.121389 23.4232 0.0689798 23.5452C0.0165708 23.6672 -0.0110155 23.7985 -0.0121693 23.9312C-0.0133231 24.064 0.0119786 24.1957 0.0622595 24.3186C0.11254 24.4415 0.186794 24.5531 0.280686 24.647C0.374579 24.7409 0.486231 24.8152 0.609127 24.8655C0.732023 24.9157 0.863703 24.941 0.996482 24.9399C1.12926 24.9387 1.26048 24.9111 1.38249 24.8587C1.50449 24.8063 1.61483 24.7301 1.70708 24.6346L5.99108 20.3506C7.30418 21.3759 8.92315 21.9311 10.5891 21.9276C11.6915 21.9117 12.7799 21.6787 13.7922 21.242C14.8046 20.8054 15.721 20.1735 16.4891 19.3826C20.8891 14.9826 23.3721 7.93664 23.8831 5.85764C24.0492 5.19381 24.0392 4.49813 23.854 3.83938C23.6687 3.18063 23.3148 2.58163 22.8271 2.10164ZM5.00708 14.5356C4.96944 13.7384 5.09802 12.942 5.38466 12.1971C5.6713 11.4522 6.10972 10.775 6.67208 10.2086C7.10008 9.78364 7.54508 9.38464 8.00008 8.99464V15.5136L6.01008 17.5036C5.40369 16.6281 5.05609 15.5995 5.00708 14.5356ZM15.0451 17.9946C14.0927 19.0297 12.8022 19.6911 11.4058 19.8597C10.0093 20.0284 8.59852 19.6933 7.42708 18.9146L9.70608 16.6356L12.4141 13.9276H18.1761C17.2703 15.3841 16.2214 16.7465 15.0451 17.9946ZM21.9451 5.37464C21.3423 7.65466 20.4695 9.85457 19.3451 11.9276H14.4141L17.7071 8.63464C17.8026 8.54239 17.8788 8.43204 17.9312 8.31004C17.9836 8.18804 18.0112 8.05682 18.0123 7.92404C18.0135 7.79126 17.9882 7.65958 17.9379 7.53668C17.8876 7.41379 17.8134 7.30213 17.7195 7.20824C17.6256 7.11435 17.5139 7.04009 17.391 6.98981C17.2681 6.93953 17.1365 6.91423 17.0037 6.91539C16.8709 6.91654 16.7397 6.94413 16.6177 6.99653C16.4957 7.04894 16.3853 7.12513 16.2931 7.22064L11.2931 12.2206L10.0001 13.5136V7.43964C12.8911 5.41353 16.1134 3.90729 19.5221 2.98864C19.6804 2.9488 19.8429 2.92831 20.0061 2.92764C20.2682 2.9282 20.5275 2.98052 20.7693 3.0816C21.0111 3.18267 21.2306 3.33052 21.4151 3.51664C21.6586 3.75257 21.8355 4.04865 21.9279 4.37491C22.0203 4.70118 22.0248 5.04605 21.9411 5.37464H21.9451Z" fill="#374957"/>
</g>
<defs>
<clipPath id="clip0_507_2035">
<rect width="24" height="24" fill="white" transform="translate(0 0.92749)"/>
</clipPath>
</defs>
</svg>
