<svg width="24" height="25" viewBox="0 0 24 25" fill="none" xmlns="http://www.w3.org/2000/svg">
<g clip-path="url(#clip0_507_2100)">
<path d="M16.5 17.9275C15.806 17.9283 15.1279 18.1354 14.5519 18.5225C13.9759 18.9096 13.5279 19.4592 13.265 20.1015C12.4376 19.8695 11.5624 19.8695 10.735 20.1015C10.4158 19.3275 9.82922 18.6939 9.08215 18.316C8.33508 17.9381 7.47714 17.841 6.6645 18.0424C5.85187 18.2438 5.13856 18.7303 4.65442 19.4133C4.17028 20.0964 3.9475 20.9305 4.02662 21.764C4.10575 22.5975 4.48152 23.3748 5.08554 23.9546C5.68956 24.5343 6.48167 24.8779 7.31768 24.9228C8.1537 24.9676 8.97804 24.7108 9.64065 24.1991C10.3033 23.6874 10.7601 22.9547 10.928 22.1345C11.2724 22.0102 11.6341 21.9403 12 21.9275C12.3659 21.9402 12.7276 22.0101 13.072 22.1345C13.2057 22.7828 13.5205 23.3799 13.9799 23.8565C14.4393 24.333 15.0244 24.6696 15.6673 24.827C16.3103 24.9845 16.9847 24.9564 17.6123 24.746C18.2399 24.5356 18.795 24.1515 19.2131 23.6384C19.6313 23.1252 19.8953 22.504 19.9746 21.8468C20.0539 21.1897 19.9453 20.5235 19.6612 19.9256C19.3772 19.3277 18.9294 18.8226 18.3698 18.4689C17.8103 18.1153 17.1619 17.9275 16.5 17.9275ZM7.5 22.9275C7.20333 22.9275 6.91332 22.8395 6.66664 22.6747C6.41997 22.5099 6.22771 22.2756 6.11418 22.0015C6.00065 21.7274 5.97094 21.4258 6.02882 21.1349C6.0867 20.8439 6.22956 20.5766 6.43934 20.3668C6.64912 20.1571 6.91639 20.0142 7.20736 19.9563C7.49834 19.8984 7.79994 19.9281 8.07403 20.0417C8.34811 20.1552 8.58238 20.3475 8.7472 20.5941C8.91203 20.8408 9 21.1308 9 21.4275C9 21.8253 8.84196 22.2068 8.56066 22.4882C8.27936 22.7695 7.89782 22.9275 7.5 22.9275ZM16.5 22.9275C16.2033 22.9275 15.9133 22.8395 15.6666 22.6747C15.42 22.5099 15.2277 22.2756 15.1142 22.0015C15.0006 21.7274 14.9709 21.4258 15.0288 21.1349C15.0867 20.8439 15.2296 20.5766 15.4393 20.3668C15.6491 20.1571 15.9164 20.0142 16.2074 19.9563C16.4983 19.8984 16.7999 19.9281 17.074 20.0417C17.3481 20.1552 17.5824 20.3475 17.7472 20.5941C17.912 20.8408 18 21.1308 18 21.4275C18 21.8253 17.842 22.2068 17.5607 22.4882C17.2794 22.7695 16.8978 22.9275 16.5 22.9275ZM19.975 9.60249C19.709 1.53949 15.3 0.95349 15.105 0.93349C15.0701 0.929498 15.0351 0.927495 15 0.92749C14.1327 0.961939 13.2938 1.24597 12.584 1.74549C12.4129 1.86514 12.2092 1.92931 12.0005 1.92931C11.7918 1.92931 11.5881 1.86514 11.417 1.74549C10.7068 1.24605 9.86757 0.96203 9 0.92749C8.96658 0.92768 8.9332 0.929683 8.9 0.93349C8.706 0.95349 4.3 1.53949 4.03 9.60249C2.693 10.0495 0 11.1705 0 12.9275C0 16.6175 6.194 16.9275 12 16.9275C17.806 16.9275 24 16.6175 24 12.9275C24 11.1705 21.307 10.0495 19.975 9.60249ZM9.055 2.93249C9.49135 2.9795 9.90902 3.13488 10.27 3.38449C10.7777 3.7384 11.3816 3.92814 12.0005 3.92814C12.6194 3.92814 13.2233 3.7384 13.731 3.38449C14.0895 3.13657 14.5038 2.98129 14.937 2.93249C15.382 3.03849 17.846 3.89649 17.993 9.79049C16.1114 10.6319 14.059 11.0213 12 10.9275C9.94108 11.0213 7.88877 10.6323 6.007 9.79149C6.155 3.84749 8.658 3.02749 9.055 2.93249ZM12 14.9275C3.735 14.9275 2 13.8395 1.988 13.0095C2.77879 12.2323 3.76826 11.6877 4.848 11.4355C7.06641 12.5327 9.52793 13.0462 12 12.9275C14.4721 13.0462 16.9336 12.5327 19.152 11.4355C20.2065 11.6991 21.1829 12.2106 22 12.9275C22 13.8395 20.265 14.9275 12 14.9275Z" fill="#374957"/>
</g>
<defs>
<clipPath id="clip0_507_2100">
<rect width="24" height="24" fill="white" transform="translate(0 0.92749)"/>
</clipPath>
</defs>
</svg>
