<svg width="24" height="25" viewBox="0 0 24 25" fill="none" xmlns="http://www.w3.org/2000/svg">
<g clip-path="url(#clip0_507_2065)">
<path d="M23 20.9275H14.816C14.6666 20.5092 14.4262 20.1294 14.1122 19.8153C13.7981 19.5013 13.4182 19.2609 13 19.1115V15.9275H17C18.0609 15.9275 19.0783 15.5061 19.8284 14.7559C20.5786 14.0058 21 12.9884 21 11.9275V6.92749C21 5.86663 20.5786 4.84921 19.8284 4.09906C19.0783 3.34892 18.0609 2.92749 17 2.92749H12.621C12.4193 2.92746 12.2224 2.86646 12.056 2.75249L10.17 1.45549C9.67003 1.11109 9.07711 0.92694 8.47 0.927491H7C5.93913 0.927491 4.92172 1.34892 4.17157 2.09906C3.42143 2.84921 3 3.86663 3 4.92749V11.9275C3 12.9884 3.42143 14.0058 4.17157 14.7559C4.92172 15.5061 5.93913 15.9275 7 15.9275H11V19.1115C10.5818 19.2609 10.2019 19.5013 9.88785 19.8153C9.5738 20.1294 9.3334 20.5092 9.184 20.9275H1C0.734784 20.9275 0.48043 21.0329 0.292893 21.2204C0.105357 21.4079 0 21.6623 0 21.9275C0 22.1927 0.105357 22.4471 0.292893 22.6346C0.48043 22.8221 0.734784 22.9275 1 22.9275H9.184C9.38765 23.512 9.76816 24.0187 10.2727 24.3773C10.7773 24.7358 11.381 24.9284 12 24.9284C12.619 24.9284 13.2227 24.7358 13.7273 24.3773C14.2318 24.0187 14.6124 23.512 14.816 22.9275H23C23.2652 22.9275 23.5196 22.8221 23.7071 22.6346C23.8946 22.4471 24 22.1927 24 21.9275C24 21.6623 23.8946 21.4079 23.7071 21.2204C23.5196 21.0329 23.2652 20.9275 23 20.9275ZM7 2.92749H8.47C8.67246 2.92741 8.87017 2.98878 9.037 3.10349L10.921 4.40349C11.4206 4.74876 12.0137 4.93332 12.621 4.93249H17C17.5304 4.93249 18.0391 5.14321 18.4142 5.51828C18.7893 5.89335 19 6.40206 19 6.93249H5V4.92749C5 4.39706 5.21071 3.88835 5.58579 3.51328C5.96086 3.13821 6.46957 2.92749 7 2.92749ZM5 11.9275V8.92749H19V11.9275C19 12.4579 18.7893 12.9666 18.4142 13.3417C18.0391 13.7168 17.5304 13.9275 17 13.9275H7C6.46957 13.9275 5.96086 13.7168 5.58579 13.3417C5.21071 12.9666 5 12.4579 5 11.9275ZM12 22.9275C11.8022 22.9275 11.6089 22.8688 11.4444 22.759C11.28 22.6491 11.1518 22.4929 11.0761 22.3102C11.0004 22.1275 10.9806 21.9264 11.0192 21.7324C11.0578 21.5384 11.153 21.3602 11.2929 21.2204C11.4327 21.0805 11.6109 20.9853 11.8049 20.9467C11.9989 20.9081 12.2 20.9279 12.3827 21.0036C12.5654 21.0793 12.7216 21.2075 12.8315 21.3719C12.9414 21.5364 13 21.7297 13 21.9275C13 22.1927 12.8946 22.4471 12.7071 22.6346C12.5196 22.8221 12.2652 22.9275 12 22.9275Z" fill="#374957"/>
</g>
<defs>
<clipPath id="clip0_507_2065">
<rect width="24" height="24" fill="white" transform="translate(0 0.92749)"/>
</clipPath>
</defs>
</svg>
