<svg width="24" height="25" viewBox="0 0 24 25" fill="none" xmlns="http://www.w3.org/2000/svg">
<g clip-path="url(#clip0_507_2141)">
<path d="M21.9999 6.92748H18.9999C18.7347 6.92748 18.4804 7.03284 18.2928 7.22038C18.1053 7.40791 17.9999 7.66227 17.9999 7.92748C17.9999 8.1927 18.1053 8.44705 18.2928 8.63459C18.4804 8.82213 18.7347 8.92748 18.9999 8.92748H20.5859L17.1859 12.3275C16.2339 11.6116 15.1136 11.1525 13.9329 10.9945C13.7746 9.81448 13.3156 8.695 12.5999 7.74348L15.9999 4.34348V5.92748C15.9999 6.1927 16.1053 6.44705 16.2928 6.63459C16.4804 6.82213 16.7347 6.92748 16.9999 6.92748C17.2652 6.92748 17.5195 6.82213 17.7071 6.63459C17.8946 6.44705 17.9999 6.1927 17.9999 5.92748V2.92748C17.9999 2.39705 17.7892 1.88834 17.4142 1.51327C17.0391 1.1382 16.5304 0.927483 15.9999 0.927483L12.9999 0.927483C12.7347 0.927483 12.4804 1.03284 12.2928 1.22038C12.1053 1.40791 11.9999 1.66227 11.9999 1.92748C11.9999 2.1927 12.1053 2.44705 12.2928 2.63459C12.4804 2.82213 12.7347 2.92748 12.9999 2.92748H14.5859L11.1859 6.32748C10.3304 5.68761 9.33969 5.25226 8.28976 5.05484C7.23983 4.85743 6.15862 4.90319 5.12913 5.18863C4.09963 5.47407 3.14922 5.99158 2.35085 6.70146C1.55247 7.41134 0.927357 8.29471 0.523482 9.28375C0.119607 10.2728 -0.0522897 11.3412 0.0209861 12.4071C0.0942619 13.4729 0.410762 14.5077 0.946193 15.4322C1.48162 16.3567 2.22175 17.1462 3.10976 17.7401C3.99778 18.334 5.01007 18.7166 6.06894 18.8585C6.20683 19.9214 6.58695 20.9384 7.17999 21.8311C7.77303 22.7239 8.56316 23.4685 9.48945 24.0077C10.4158 24.5469 11.4535 24.8661 12.5227 24.9408C13.5918 25.0156 14.6639 24.8438 15.6562 24.4388C16.6485 24.0337 17.5345 23.4062 18.246 22.6046C18.9575 21.8031 19.4754 20.8488 19.7598 19.8155C20.0442 18.7821 20.0875 17.6973 19.8865 16.6445C19.6854 15.5918 19.2452 14.5993 18.5999 13.7435L21.9999 10.3435V11.9275C21.9999 12.1927 22.1053 12.4471 22.2928 12.6346C22.4804 12.8221 22.7347 12.9275 22.9999 12.9275C23.2652 12.9275 23.5195 12.8221 23.7071 12.6346C23.8946 12.4471 23.9999 12.1927 23.9999 11.9275V8.92748C23.9999 8.39705 23.7892 7.88834 23.4142 7.51327C23.0391 7.1382 22.5304 6.92748 21.9999 6.92748ZM1.99994 11.9275C1.99994 10.9386 2.29318 9.97188 2.84259 9.14963C3.392 8.32739 4.17289 7.68652 5.08652 7.30809C6.00015 6.92965 7.00549 6.83063 7.97539 7.02356C8.9453 7.21648 9.83621 7.69269 10.5355 8.39195C11.2347 9.09121 11.7109 9.98213 11.9039 10.952C12.0968 11.9219 11.9978 12.9273 11.6193 13.8409C11.2409 14.7545 10.6 15.5354 9.77779 16.0848C8.95555 16.6342 7.98885 16.9275 6.99994 16.9275C5.67435 16.9259 4.4035 16.3986 3.46616 15.4613C2.52882 14.5239 2.00153 13.2531 1.99994 11.9275ZM12.9999 22.9275C11.8326 22.9253 10.7028 22.5148 9.80641 21.7671C8.90999 21.0193 8.30346 19.9815 8.09194 18.8335C9.55015 18.6009 10.8975 17.9134 11.9417 16.8692C12.9858 15.8251 13.6733 14.4777 13.9059 13.0195C15.1323 13.2445 16.2302 13.92 16.9838 14.9132C17.7374 15.9065 18.0924 17.1457 17.9788 18.3873C17.8653 19.629 17.2915 20.7833 16.3702 21.6234C15.4489 22.4635 14.2468 22.9286 12.9999 22.9275Z" fill="#374957"/>
</g>
<defs>
<clipPath id="clip0_507_2141">
<rect width="24" height="24" fill="white" transform="translate(0 0.92749)"/>
</clipPath>
</defs>
</svg>
