<svg width="24" height="25" viewBox="0 0 24 25" fill="none" xmlns="http://www.w3.org/2000/svg">
<g clip-path="url(#clip0_507_2171)">
<path d="M17.1151 8.97766C16.8284 9.05384 16.5707 9.21331 16.3746 9.43593C16.1785 9.65854 16.0529 9.93429 16.0135 10.2283C15.9741 10.5223 16.0228 10.8214 16.1535 11.0878C16.2841 11.3541 16.4907 11.5758 16.7473 11.7247C17.0039 11.8736 17.2988 11.9431 17.5949 11.9244C17.891 11.9057 18.1748 11.7996 18.4106 11.6195C18.6464 11.4395 18.8235 11.1936 18.9195 10.9129C19.0155 10.6322 19.0262 10.3294 18.9501 10.0427C18.8996 9.85223 18.812 9.67362 18.6924 9.51702C18.5729 9.36043 18.4236 9.22893 18.2532 9.13004C18.0828 9.03114 17.8946 8.96678 17.6993 8.94063C17.504 8.91449 17.3055 8.92707 17.1151 8.97766Z" fill="#374957"/>
<path d="M12.1148 5.97768C11.8281 6.05385 11.5704 6.21333 11.3744 6.43594C11.1783 6.65856 11.0526 6.93431 11.0133 7.22834C10.9739 7.52237 11.0226 7.82146 11.1532 8.08782C11.2838 8.35417 11.4905 8.57581 11.7471 8.72472C12.0036 8.87362 12.2986 8.94311 12.5946 8.92439C12.8907 8.90568 13.1746 8.79959 13.4103 8.61956C13.6461 8.43952 13.8232 8.19362 13.9192 7.91294C14.0153 7.63226 14.0259 7.32941 13.9498 7.04268C13.8993 6.85225 13.8117 6.67363 13.6922 6.51704C13.5726 6.36045 13.4234 6.22895 13.2529 6.13005C13.0825 6.03115 12.8943 5.96679 12.699 5.94065C12.5038 5.9145 12.3052 5.92709 12.1148 5.97768Z" fill="#374957"/>
<path d="M7.11519 8.97766C6.82849 9.05384 6.57081 9.21331 6.37474 9.43593C6.17866 9.65854 6.053 9.93429 6.01363 10.2283C5.97427 10.5223 6.02297 10.8214 6.15358 11.0878C6.28419 11.3541 6.49085 11.5758 6.74742 11.7247C7.00399 11.8736 7.29895 11.9431 7.59501 11.9244C7.89107 11.9057 8.17493 11.7996 8.4107 11.6195C8.64648 11.4395 8.82357 11.1936 8.9196 10.9129C9.01563 10.6322 9.02627 10.3294 8.95019 10.0427C8.89966 9.85223 8.81211 9.67362 8.69253 9.51702C8.57296 9.36043 8.42371 9.22893 8.25331 9.13004C8.08291 9.03114 7.89469 8.96678 7.69941 8.94063C7.50413 8.91449 7.30561 8.92707 7.11519 8.97766Z" fill="#374957"/>
<path d="M7.11519 14.9777C6.82849 15.0539 6.57081 15.2133 6.37474 15.436C6.17866 15.6586 6.053 15.9343 6.01363 16.2284C5.97427 16.5224 6.02297 16.8215 6.15358 17.0878C6.28419 17.3542 6.49085 17.5758 6.74742 17.7247C7.00399 17.8736 7.29895 17.9431 7.59501 17.9244C7.89107 17.9057 8.17493 17.7996 8.4107 17.6196C8.64648 17.4395 8.82357 17.1936 8.9196 16.913C9.01563 16.6323 9.02627 16.3294 8.95019 16.0427C8.89966 15.8523 8.81211 15.6736 8.69253 15.5171C8.57296 15.3605 8.42371 15.229 8.25331 15.1301C8.08291 15.0312 7.89469 14.9668 7.69941 14.9407C7.50413 14.9145 7.30561 14.9271 7.11519 14.9777Z" fill="#374957"/>
<path d="M12.5001 0.934094C10.8901 0.878112 9.28532 1.14688 7.7814 1.72439C6.27748 2.30189 4.90525 3.1763 3.74649 4.29548C2.58774 5.41466 1.66621 6.7557 1.03682 8.23866C0.40744 9.72161 0.0830967 11.3161 0.0831299 12.9271C0.0868351 16.1086 1.35231 19.1586 3.60194 21.4083C5.85157 23.6579 8.90167 24.9234 12.0831 24.9271C12.4211 24.9271 12.7531 24.9051 13.0831 24.8771C13.3335 24.856 13.5668 24.7414 13.7365 24.5561C13.9063 24.3708 14 24.1284 13.9991 23.8771L13.9671 20.2891C13.959 19.5801 14.1624 18.8847 14.5514 18.2918C14.9403 17.6989 15.4971 17.2354 16.1507 16.9605C16.8043 16.6855 17.525 16.6116 18.2208 16.7481C18.9166 16.8847 19.5559 17.2255 20.0571 17.7271L20.1571 17.8271C20.3841 18.056 20.6654 18.2239 20.9747 18.315C21.284 18.4061 21.6113 18.4174 21.9261 18.3481C22.2359 18.2831 22.5244 18.1412 22.765 17.9355C23.0056 17.7299 23.1907 17.467 23.3031 17.1711C23.8552 15.7214 24.1192 14.1779 24.0801 12.6271C23.9676 9.58111 22.7147 6.68857 20.5699 4.52282C18.4251 2.35708 15.5449 1.07621 12.5001 0.934094ZM21.4821 16.3341L21.4681 16.3201C20.6865 15.5397 19.6904 15.0095 18.6065 14.7969C17.5226 14.5843 16.4 14.6989 15.3815 15.1262C14.363 15.5534 13.4946 16.274 12.8867 17.1962C12.2789 18.1184 11.9592 19.2006 11.9681 20.3051L11.9921 22.9271C9.33996 22.9152 6.80117 21.8501 4.93424 19.9663C3.06732 18.0825 2.0252 15.5343 2.03713 12.8821C2.04906 10.2299 3.11408 7.69113 4.99788 5.82421C6.88168 3.95728 9.42996 2.91516 12.0821 2.92709C12.1991 2.92709 12.3171 2.92709 12.4351 2.93309C14.9715 3.05223 17.3706 4.11983 19.157 5.92436C20.9433 7.72888 21.9866 10.1386 22.0801 12.6761C22.1131 13.9197 21.9113 15.1583 21.4851 16.3271L21.4821 16.3341Z" fill="#374957"/>
</g>
<defs>
<clipPath id="clip0_507_2171">
<rect width="24" height="24" fill="white" transform="translate(0 0.92749)"/>
</clipPath>
</defs>
</svg>
