<svg width="24" height="25" viewBox="0 0 24 25" fill="none" xmlns="http://www.w3.org/2000/svg">
<g clip-path="url(#clip0_507_1949)">
<path d="M19.9127 9.50082C19.9127 9.4771 19.9127 9.45338 19.9127 9.42863C19.9127 5.0604 16.3715 1.51923 12.0033 1.51923C7.63507 1.51923 4.0939 5.0604 4.0939 9.42863C4.0939 9.45334 4.0939 9.47705 4.0939 9.50082C0.269887 11.6123 -1.11841 16.424 0.993074 20.248C3.10456 24.072 7.91623 25.4603 11.7402 23.3489C11.8289 23.2999 11.9166 23.2493 12.0034 23.1969C15.7435 25.4537 20.6049 24.2512 22.8617 20.5111C25.1184 16.771 23.9159 11.9095 20.1758 9.65279C20.0891 9.60043 20.0014 9.54976 19.9127 9.50082ZM12.0033 20.7717C10.9397 19.8215 10.2544 18.5195 10.0734 17.1047C11.3391 17.4218 12.6635 17.4218 13.9293 17.1047C13.7481 18.5172 13.0644 19.8172 12.0033 20.7668V20.7717ZM12.0033 15.3607C11.3791 15.361 10.7588 15.2626 10.1653 15.0691C10.4351 13.857 11.0779 12.7599 12.0033 11.932C12.9288 12.7599 13.5715 13.857 13.8413 15.0691C13.2478 15.2626 12.6275 15.361 12.0033 15.3607ZM8.37092 14.115C7.27667 13.2675 6.51261 12.0646 6.21068 10.7139C7.54067 10.2808 8.9809 10.3316 10.2771 10.8573C9.38839 11.7736 8.73439 12.8913 8.37092 14.115ZM13.7295 10.8523C15.0257 10.3266 16.466 10.2759 17.7959 10.709C17.495 12.0615 16.7309 13.2663 15.6357 14.115C15.2729 12.8895 14.6189 11.7701 13.7295 10.8523ZM12.0033 3.4966C14.9879 3.50044 17.5064 5.71805 17.8879 8.67826C15.8939 8.17754 13.7832 8.47294 12.0033 9.5018C10.2234 8.4729 8.11273 8.17754 6.11872 8.67826C6.50018 5.7181 9.01868 3.50044 12.0033 3.4966ZM2.11657 16.3493C2.11676 14.5156 2.9659 12.7852 4.41621 11.663C4.99325 13.6086 6.2929 15.2595 8.04861 16.2772C8.04861 16.3009 8.04861 16.3246 8.04861 16.3493C8.04753 18.4019 8.84698 20.374 10.2771 21.8464C7.24086 23.0771 3.78181 21.6135 2.55106 18.5773C2.26418 17.8696 2.11662 17.1131 2.11657 16.3493ZM15.958 22.2814C15.194 22.2819 14.4372 22.1342 13.7295 21.8464C15.1596 20.374 15.9591 18.402 15.958 16.3494C15.958 16.3247 15.958 16.301 15.958 16.2772C17.7141 15.2597 19.0141 13.6088 19.5914 11.6631C22.1796 13.6717 22.6494 17.3982 20.6407 19.9864C19.5178 21.4332 17.7895 22.2803 15.958 22.2814Z" fill="#374957"/>
</g>
<defs>
<clipPath id="clip0_507_1949">
<rect width="24" height="24" fill="white" transform="translate(0 0.92749)"/>
</clipPath>
</defs>
</svg>
