<svg width="24" height="25" viewBox="0 0 24 25" fill="none" xmlns="http://www.w3.org/2000/svg">
<g clip-path="url(#clip0_507_2331)">
<path d="M17.0001 8.92836H7.00012V7.92836C6.99981 6.81977 7.36795 5.7425 8.04664 4.86594C8.72533 3.98937 9.6761 3.36322 10.7495 3.08592C11.8228 2.80862 12.9579 2.89591 13.9762 3.33405C14.9946 3.77219 15.8384 4.53634 16.3751 5.50636C16.4389 5.6212 16.5246 5.72236 16.6275 5.80406C16.7303 5.88576 16.8483 5.94641 16.9746 5.98253C17.1008 6.01865 17.233 6.02954 17.3635 6.01459C17.494 5.99963 17.6203 5.95912 17.7351 5.89536C17.85 5.83161 17.9511 5.74585 18.0328 5.643C18.1145 5.54015 18.1752 5.42222 18.2113 5.29593C18.2474 5.16964 18.2583 5.03747 18.2433 4.90698C18.2284 4.77648 18.1879 4.6502 18.1241 4.53536C17.3724 3.17768 16.1908 2.10828 14.7652 1.49528C13.3395 0.88227 11.7505 0.760413 10.248 1.14886C8.7455 1.5373 7.41469 2.41403 6.46475 3.64121C5.51481 4.8684 4.9996 6.37647 5.00012 7.92836V9.35236C4.10948 9.74107 3.35141 10.3809 2.81862 11.1936C2.28583 12.0063 2.0014 12.9566 2.00012 13.9284V19.9284C2.00171 21.254 2.529 22.5248 3.46634 23.4621C4.40368 24.3995 5.67453 24.9268 7.00012 24.9284H17.0001C18.3257 24.9268 19.5966 24.3995 20.5339 23.4621C21.4712 22.5248 21.9985 21.254 22.0001 19.9284V13.9284C21.9985 12.6028 21.4712 11.3319 20.5339 10.3946C19.5966 9.45724 18.3257 8.92995 17.0001 8.92836ZM20.0001 19.9284C20.0001 20.724 19.6841 21.4871 19.1214 22.0497C18.5588 22.6123 17.7958 22.9284 17.0001 22.9284H7.00012C6.20447 22.9284 5.44141 22.6123 4.8788 22.0497C4.31619 21.4871 4.00012 20.724 4.00012 19.9284V13.9284C4.00012 13.1327 4.31619 12.3697 4.8788 11.807C5.44141 11.2444 6.20447 10.9284 7.00012 10.9284H17.0001C17.7958 10.9284 18.5588 11.2444 19.1214 11.807C19.6841 12.3697 20.0001 13.1327 20.0001 13.9284V19.9284Z" fill="#374957"/>
<path d="M12.0001 14.9281C11.7349 14.9281 11.4806 15.0335 11.293 15.221C11.1055 15.4085 11.0001 15.6629 11.0001 15.9281V17.9281C11.0001 18.1933 11.1055 18.4477 11.293 18.6352C11.4806 18.8227 11.7349 18.9281 12.0001 18.9281C12.2653 18.9281 12.5197 18.8227 12.7072 18.6352C12.8948 18.4477 13.0001 18.1933 13.0001 17.9281V15.9281C13.0001 15.6629 12.8948 15.4085 12.7072 15.221C12.5197 15.0335 12.2653 14.9281 12.0001 14.9281Z" fill="#374957"/>
</g>
<defs>
<clipPath id="clip0_507_2331">
<rect width="24" height="24" fill="white" transform="translate(0 0.92749)"/>
</clipPath>
</defs>
</svg>
