<svg width="24" height="25" viewBox="0 0 24 25" fill="none" xmlns="http://www.w3.org/2000/svg">
<g clip-path="url(#clip0_507_2259)">
<path d="M21.835 3.09313C21.1488 2.40679 20.3342 1.86235 19.4376 1.49089C18.541 1.11944 17.58 0.928253 16.6095 0.928253C15.639 0.928253 14.678 1.11944 13.7814 1.49089C12.8848 1.86235 12.0701 2.40679 11.384 3.09313L2.16496 12.3121C1.47569 12.9977 0.928456 13.8125 0.554609 14.7099C0.180762 15.6073 -0.0123504 16.5696 -0.0136651 17.5418C-0.0149798 18.5139 0.175529 19.4768 0.546948 20.3752C0.918366 21.2736 1.46339 22.0899 2.15081 22.7773C2.83822 23.4647 3.65451 24.0097 4.55291 24.3811C5.45132 24.7526 6.41417 24.9431 7.38632 24.9418C8.35847 24.9404 9.32081 24.7473 10.2182 24.3735C11.1156 23.9996 11.9304 23.4524 12.616 22.7631L21.835 13.5441C22.5213 12.858 23.0657 12.0433 23.4372 11.1467C23.8087 10.2501 23.9998 9.28913 23.9998 8.31863C23.9998 7.34813 23.8087 6.38713 23.4372 5.49053C23.0657 4.59393 22.5213 3.77929 21.835 3.09313ZM20.421 12.1281L11.2 21.3491C10.7034 21.8665 10.1086 22.2797 9.45031 22.5643C8.79206 22.8489 8.08363 22.9993 7.36651 23.0067C6.6494 23.0141 5.93803 22.8783 5.27406 22.6072C4.6101 22.3362 4.0069 21.9354 3.4998 21.4283C2.9927 20.9212 2.59189 20.318 2.32086 19.654C2.04983 18.9901 1.91402 18.2787 1.92139 17.5616C1.92876 16.8445 2.07917 16.136 2.36379 15.4778C2.64842 14.8195 3.06154 14.2247 3.57896 13.7281L12.8 4.50713C13.2965 3.98971 13.8914 3.57659 14.5496 3.29196C15.2079 3.00733 15.9163 2.85693 16.6334 2.84956C17.3505 2.84219 18.0619 2.97799 18.7259 3.24903C19.3898 3.52006 19.993 3.92087 20.5001 4.42797C21.0072 4.93507 21.408 5.53827 21.6791 6.20223C21.9501 6.8662 22.0859 7.57757 22.0785 8.29468C22.0712 9.0118 21.9208 9.72023 21.6361 10.3785C21.3515 11.0367 20.9384 11.6316 20.421 12.1281ZM19.707 9.21913C19.8944 9.40666 19.9997 9.66096 19.9997 9.92613C19.9997 10.1913 19.8944 10.4456 19.707 10.6331L16.707 13.6331C16.5184 13.8153 16.2658 13.9161 16.0036 13.9138C15.7414 13.9115 15.4906 13.8064 15.3051 13.6209C15.1197 13.4355 15.0146 13.1847 15.0123 12.9225C15.01 12.6603 15.1108 12.4077 15.293 12.2191L16.086 11.4261L13.5 8.84213L12.707 9.63513C12.5184 9.81729 12.2658 9.91808 12.0036 9.9158C11.7414 9.91352 11.4906 9.80836 11.3051 9.62295C11.1197 9.43754 11.0146 9.18673 11.0123 8.92453C11.01 8.66233 11.1108 8.40973 11.293 8.22113L14.293 5.22113C14.3852 5.12562 14.4956 5.04944 14.6176 4.99703C14.7396 4.94462 14.8708 4.91703 15.0036 4.91588C15.1363 4.91473 15.268 4.94003 15.3909 4.99031C15.5138 5.04059 15.6255 5.11484 15.7194 5.20873C15.8132 5.30263 15.8875 5.41428 15.9378 5.53718C15.9881 5.66007 16.0134 5.79175 16.0122 5.92453C16.0111 6.05731 15.9835 6.18853 15.9311 6.31053C15.8787 6.43254 15.8025 6.54288 15.707 6.63513L14.914 7.42813L17.5 10.0141L18.293 9.22113C18.4805 9.03366 18.7348 8.92834 19 8.92834C19.2651 8.92834 19.5194 9.03366 19.707 9.22113V9.21913ZM12.707 16.2191C12.8944 16.4067 12.9997 16.661 12.9997 16.9261C12.9997 17.1913 12.8944 17.4456 12.707 17.6331L9.70696 20.6331C9.51836 20.8153 9.26576 20.9161 9.00356 20.9138C8.74136 20.9115 8.49055 20.8064 8.30514 20.6209C8.11974 20.4355 8.01457 20.1847 8.01229 19.9225C8.01001 19.6603 8.1108 19.4077 8.29296 19.2191L9.08596 18.4261L6.49996 15.8421L5.70696 16.6351C5.51836 16.8173 5.26576 16.9181 5.00356 16.9158C4.74136 16.9135 4.49055 16.8084 4.30514 16.6229C4.11973 16.4375 4.01457 16.1867 4.01229 15.9245C4.01001 15.6623 4.1108 15.4097 4.29296 15.2211L7.29296 12.2211C7.48156 12.039 7.73417 11.9382 7.99636 11.9405C8.25856 11.9427 8.50937 12.0479 8.69478 12.2333C8.88019 12.4187 8.98536 12.6695 8.98764 12.9317C8.98991 13.1939 8.88912 13.4465 8.70696 13.6351L7.91396 14.4281L10.5 17.0141L11.293 16.2211C11.4805 16.0337 11.7348 15.9283 12 15.9283C12.2651 15.9283 12.5194 16.0337 12.707 16.2211V16.2191Z" fill="#374957"/>
</g>
<defs>
<clipPath id="clip0_507_2259">
<rect width="24" height="24" fill="white" transform="translate(0 0.92749)"/>
</clipPath>
</defs>
</svg>
