<svg width="24" height="25" viewBox="0 0 24 25" fill="none" xmlns="http://www.w3.org/2000/svg">
<path d="M19.7831 13.0066C19.6191 12.4206 19.4341 11.8006 19.2281 11.1336C18.6181 9.45177 18.206 7.70467 18.0001 5.92755C18.0001 5.66233 18.1055 5.40798 18.293 5.22044C18.4805 5.03291 18.7349 4.92755 19.0001 4.92755C19.2653 4.92755 19.5197 5.03291 19.7072 5.22044C19.8948 5.40798 20.0001 5.66233 20.0001 5.92755C20.0001 6.19277 20.1055 6.44712 20.293 6.63466C20.4805 6.82219 20.7349 6.92755 21.0001 6.92755C21.2653 6.92755 21.5197 6.82219 21.7072 6.63466C21.8948 6.44712 22.0001 6.19277 22.0001 5.92755C22.0001 5.1319 21.684 4.36884 21.1214 3.80623C20.5588 3.24362 19.7958 2.92755 19.0001 2.92755C18.2045 2.92755 17.4414 3.24362 16.8788 3.80623C16.3162 4.36884 16.0001 5.1319 16.0001 5.92755C16.0249 6.69115 16.1319 7.44986 16.3191 8.19055L11.5191 11.9276L5.97111 7.92755H9.00011C9.26533 7.92755 9.51968 7.82219 9.70722 7.63466C9.89476 7.44712 10.0001 7.19277 10.0001 6.92755C10.0001 6.66233 9.89476 6.40798 9.70722 6.22044C9.51968 6.03291 9.26533 5.92755 9.00011 5.92755H5.97111C5.55568 5.92743 5.15085 6.0587 4.81455 6.3026C4.47824 6.54649 4.2277 6.89051 4.09876 7.28543C3.96982 7.68035 3.96909 8.10593 4.09668 8.50128C4.22427 8.89664 4.47364 9.24151 4.80911 9.48655L9.88011 13.1986L8.44211 14.3176C7.5489 13.4766 6.37542 12.9969 5.14888 12.9715C3.92234 12.9461 2.72998 13.3767 1.80268 14.1799C0.875374 14.9831 0.279083 16.1018 0.129259 17.3194C-0.0205661 18.5371 0.286733 19.767 0.991659 20.771C1.69658 21.7751 2.74899 22.4819 3.94511 22.7545C5.14123 23.0272 6.39598 22.8464 7.46642 22.247C8.53686 21.6477 9.34683 20.6725 9.73953 19.5102C10.1322 18.3479 10.0797 17.0813 9.59211 15.9556L16.8811 10.2866C17.0221 10.7626 17.6081 12.6706 17.7371 13.1096C16.5418 13.4216 15.5046 14.1657 14.8259 15.1979C14.1472 16.2301 13.8752 17.4772 14.0624 18.6983C14.2496 19.9194 14.8827 21.0278 15.8395 21.8093C16.7962 22.5908 18.0086 22.9899 19.2425 22.9296C20.4764 22.8693 21.6441 22.3538 22.5201 21.4827C23.3961 20.6117 23.9181 19.4468 23.9853 18.2133C24.0525 16.9798 23.6602 15.7651 22.8841 14.804C22.1079 13.8429 21.0031 13.2036 19.7831 13.0096V13.0066ZM5.00011 20.9276C4.40677 20.9276 3.82675 20.7516 3.3334 20.422C2.84006 20.0923 2.45554 19.6238 2.22848 19.0756C2.00141 18.5274 1.942 17.9242 2.05776 17.3423C2.17351 16.7603 2.45924 16.2258 2.87879 15.8062C3.29835 15.3867 3.8329 15.101 4.41484 14.9852C4.99679 14.8694 5.59999 14.9288 6.14816 15.1559C6.69634 15.383 7.16488 15.7675 7.49452 16.2608C7.82417 16.7542 8.00011 17.3342 8.00011 17.9276C8.00011 18.7232 7.68404 19.4863 7.12143 20.0489C6.55883 20.6115 5.79576 20.9276 5.00011 20.9276ZM19.0001 20.9276C18.4068 20.9276 17.8268 20.7516 17.3334 20.422C16.8401 20.0923 16.4555 19.6238 16.2285 19.0756C16.0014 18.5274 15.942 17.9242 16.0578 17.3423C16.1735 16.7603 16.4592 16.2258 16.8788 15.8062C17.2984 15.3867 17.8329 15.101 18.4148 14.9852C18.9968 14.8694 19.6 14.9288 20.1482 15.1559C20.6963 15.383 21.1649 15.7675 21.4945 16.2608C21.8242 16.7542 22.0001 17.3342 22.0001 17.9276C22.0001 18.7232 21.684 19.4863 21.1214 20.0489C20.5588 20.6115 19.7958 20.9276 19.0001 20.9276Z" fill="#374957"/>
</svg>
