<svg width="24" height="25" viewBox="0 0 24 25" fill="none" xmlns="http://www.w3.org/2000/svg">
<g clip-path="url(#clip0_507_2167)">
<path d="M19 3.94948C19 3.94148 19 3.93548 19 3.92748V1.92748C19 1.66227 18.8946 1.40791 18.7071 1.22038C18.5196 1.03284 18.2652 0.927483 18 0.927483C17.7348 0.927483 17.4804 1.03284 17.2929 1.22038C17.1054 1.40791 17 1.66227 17 1.92748V3.02748C16.6709 2.96065 16.3358 2.92715 16 2.92748H15V1.92748C15 1.66227 14.8946 1.40791 14.7071 1.22038C14.5196 1.03284 14.2652 0.927483 14 0.927483C13.7348 0.927483 13.4804 1.03284 13.2929 1.22038C13.1054 1.40791 13 1.66227 13 1.92748V2.92748H11V1.92748C11 1.66227 10.8946 1.40791 10.7071 1.22038C10.5196 1.03284 10.2652 0.927483 10 0.927483C9.73478 0.927483 9.48043 1.03284 9.29289 1.22038C9.10536 1.40791 9 1.66227 9 1.92748V2.92748H8C7.66415 2.92715 7.32913 2.96065 7 3.02748V1.92748C7 1.66227 6.89464 1.40791 6.70711 1.22038C6.51957 1.03284 6.26522 0.927483 6 0.927483C5.73478 0.927483 5.48043 1.03284 5.29289 1.22038C5.10536 1.40791 5 1.66227 5 1.92748V3.92748V3.94948C4.38078 4.41186 3.8777 5.01202 3.53057 5.70247C3.18343 6.39291 3.00178 7.15469 3 7.92748V19.9275C3.00159 21.2531 3.52888 22.5239 4.46622 23.4613C5.40356 24.3986 6.67441 24.9259 8 24.9275H16C17.3256 24.9259 18.5964 24.3986 19.5338 23.4613C20.4711 22.5239 20.9984 21.2531 21 19.9275V7.92748C20.9982 7.15469 20.8166 6.39291 20.4694 5.70247C20.1223 5.01202 19.6192 4.41186 19 3.94948ZM19 19.9275C19 20.7231 18.6839 21.4862 18.1213 22.0488C17.5587 22.6114 16.7956 22.9275 16 22.9275H8C7.20435 22.9275 6.44129 22.6114 5.87868 22.0488C5.31607 21.4862 5 20.7231 5 19.9275V7.92748C5 7.13183 5.31607 6.36877 5.87868 5.80616C6.44129 5.24355 7.20435 4.92748 8 4.92748H16C16.7956 4.92748 17.5587 5.24355 18.1213 5.80616C18.6839 6.36877 19 7.13183 19 7.92748V19.9275ZM17 8.92748C17 9.1927 16.8946 9.44705 16.7071 9.63459C16.5196 9.82213 16.2652 9.92748 16 9.92748H8C7.73478 9.92748 7.48043 9.82213 7.29289 9.63459C7.10536 9.44705 7 9.1927 7 8.92748C7 8.66227 7.10536 8.40791 7.29289 8.22038C7.48043 8.03284 7.73478 7.92748 8 7.92748H16C16.2652 7.92748 16.5196 8.03284 16.7071 8.22038C16.8946 8.40791 17 8.66227 17 8.92748ZM17 12.9275C17 13.1927 16.8946 13.4471 16.7071 13.6346C16.5196 13.8221 16.2652 13.9275 16 13.9275H8C7.73478 13.9275 7.48043 13.8221 7.29289 13.6346C7.10536 13.4471 7 13.1927 7 12.9275C7 12.6623 7.10536 12.4079 7.29289 12.2204C7.48043 12.0328 7.73478 11.9275 8 11.9275H16C16.2652 11.9275 16.5196 12.0328 16.7071 12.2204C16.8946 12.4079 17 12.6623 17 12.9275ZM13 16.9275C13 17.1927 12.8946 17.4471 12.7071 17.6346C12.5196 17.8221 12.2652 17.9275 12 17.9275H8C7.73478 17.9275 7.48043 17.8221 7.29289 17.6346C7.10536 17.4471 7 17.1927 7 16.9275C7 16.6623 7.10536 16.4079 7.29289 16.2204C7.48043 16.0328 7.73478 15.9275 8 15.9275H12C12.2652 15.9275 12.5196 16.0328 12.7071 16.2204C12.8946 16.4079 13 16.6623 13 16.9275Z" fill="#374957"/>
</g>
<defs>
<clipPath id="clip0_507_2167">
<rect width="24" height="24" fill="white" transform="translate(0 0.92749)"/>
</clipPath>
</defs>
</svg>
