<svg width="24" height="25" viewBox="0 0 24 25" fill="none" xmlns="http://www.w3.org/2000/svg">
<g clip-path="url(#clip0_507_2355)">
<path d="M12.0005 12.9274C13.1872 12.9274 14.3472 12.5755 15.3339 11.9162C16.3206 11.257 17.0896 10.3199 17.5438 9.22353C17.9979 8.12718 18.1167 6.92078 17.8852 5.75689C17.6537 4.593 17.0822 3.52391 16.2431 2.68479C15.404 1.84568 14.3349 1.27423 13.171 1.04272C12.0071 0.811209 10.8007 0.930029 9.70439 1.38415C8.60803 1.83828 7.67096 2.60732 7.01167 3.59401C6.35238 4.58071 6.00049 5.74074 6.00049 6.92743C6.00208 8.51824 6.63473 10.0434 7.7596 11.1683C8.88448 12.2932 10.4097 12.9258 12.0005 12.9274ZM12.0005 2.92743C12.7916 2.92743 13.565 3.16203 14.2228 3.60155C14.8806 4.04108 15.3933 4.66579 15.696 5.3967C15.9988 6.1276 16.078 6.93187 15.9236 7.70779C15.7693 8.48372 15.3883 9.19645 14.8289 9.75586C14.2695 10.3153 13.5568 10.6962 12.7809 10.8506C12.0049 11.0049 11.2007 10.9257 10.4698 10.623C9.73885 10.3202 9.11414 9.80751 8.67461 9.14971C8.23508 8.49192 8.00049 7.71856 8.00049 6.92743C8.00049 5.86657 8.42192 4.84915 9.17206 4.099C9.92221 3.34886 10.9396 2.92743 12.0005 2.92743Z" fill="#374957"/>
<path d="M12.0005 14.9281C9.61435 14.9307 7.3267 15.8798 5.63945 17.5671C3.9522 19.2543 3.00314 21.542 3.00049 23.9281C3.00049 24.1933 3.10585 24.4477 3.29338 24.6352C3.48092 24.8227 3.73527 24.9281 4.00049 24.9281C4.2657 24.9281 4.52006 24.8227 4.70759 24.6352C4.89513 24.4477 5.00049 24.1933 5.00049 23.9281C5.00049 22.0716 5.73799 20.2911 7.05074 18.9784C8.3635 17.6656 10.144 16.9281 12.0005 16.9281C13.857 16.9281 15.6375 17.6656 16.9502 18.9784C18.263 20.2911 19.0005 22.0716 19.0005 23.9281C19.0005 24.1933 19.1058 24.4477 19.2934 24.6352C19.4809 24.8227 19.7353 24.9281 20.0005 24.9281C20.2657 24.9281 20.5201 24.8227 20.7076 24.6352C20.8951 24.4477 21.0005 24.1933 21.0005 23.9281C20.9978 21.542 20.0488 19.2543 18.3615 17.5671C16.6743 15.8798 14.3866 14.9307 12.0005 14.9281Z" fill="#374957"/>
</g>
<defs>
<clipPath id="clip0_507_2355">
<rect width="24" height="24" fill="white" transform="translate(0.000488281 0.92749)"/>
</clipPath>
</defs>
</svg>
