<svg width="24" height="25" viewBox="0 0 24 25" fill="none" xmlns="http://www.w3.org/2000/svg">
<g clip-path="url(#clip0_507_2103)">
<path d="M12 0.92749C9.62663 0.92749 7.30655 1.63128 5.33316 2.94986C3.35977 4.26843 1.8217 6.14258 0.913451 8.33529C0.00519943 10.528 -0.232441 12.9408 0.230582 15.2686C0.693605 17.5963 1.83649 19.7345 3.51472 21.4128C5.19295 23.091 7.33115 24.2339 9.65892 24.6969C11.9867 25.1599 14.3995 24.9223 16.5922 24.014C18.7849 23.1058 20.6591 21.5677 21.9776 19.5943C23.2962 17.6209 24 15.3009 24 12.9275C23.9966 9.74595 22.7312 6.6957 20.4815 4.44601C18.2318 2.19632 15.1815 0.930931 12 0.92749V0.92749ZM12 22.9275C10.0222 22.9275 8.08879 22.341 6.4443 21.2422C4.79981 20.1434 3.51809 18.5816 2.76121 16.7543C2.00433 14.9271 1.8063 12.9164 2.19215 10.9766C2.578 9.03678 3.53041 7.25495 4.92894 5.85642C6.32746 4.4579 8.10929 3.50549 10.0491 3.11964C11.9889 2.73379 13.9996 2.93182 15.8268 3.6887C17.6541 4.44557 19.2159 5.7273 20.3147 7.37179C21.4135 9.01628 22 10.9497 22 12.9275C21.9971 15.5788 20.9426 18.1206 19.0679 19.9953C17.1931 21.8701 14.6513 22.9246 12 22.9275Z" fill="#374957"/>
<path d="M11.9999 10.9278H10.9999C10.7347 10.9278 10.4803 11.0332 10.2928 11.2207C10.1052 11.4082 9.99988 11.6626 9.99988 11.9278C9.99988 12.193 10.1052 12.4474 10.2928 12.6349C10.4803 12.8224 10.7347 12.9278 10.9999 12.9278H11.9999V18.9278C11.9999 19.193 12.1052 19.4474 12.2928 19.6349C12.4803 19.8224 12.7347 19.9278 12.9999 19.9278C13.2651 19.9278 13.5194 19.8224 13.707 19.6349C13.8945 19.4474 13.9999 19.193 13.9999 18.9278V12.9278C13.9999 12.3974 13.7892 11.8887 13.4141 11.5136C13.039 11.1385 12.5303 10.9278 11.9999 10.9278Z" fill="#374957"/>
<path d="M12 8.92718C12.8284 8.92718 13.5 8.2556 13.5 7.42718C13.5 6.59875 12.8284 5.92718 12 5.92718C11.1716 5.92718 10.5 6.59875 10.5 7.42718C10.5 8.2556 11.1716 8.92718 12 8.92718Z" fill="#374957"/>
</g>
<defs>
<clipPath id="clip0_507_2103">
<rect width="24" height="24" fill="white" transform="translate(0 0.92749)"/>
</clipPath>
</defs>
</svg>
