<svg width="24" height="25" viewBox="0 0 24 25" fill="none" xmlns="http://www.w3.org/2000/svg">
<g clip-path="url(#clip0_507_2156)">
<path d="M22.9999 16.9278C22.7346 16.9278 22.4803 17.0332 22.2928 17.2207C22.1052 17.4082 21.9999 17.6626 21.9999 17.9278V19.9278C21.9999 20.7235 21.6838 21.4865 21.1212 22.0491C20.5586 22.6117 19.7955 22.9278 18.9999 22.9278H16.9999C16.7347 22.9278 16.4803 23.0332 16.2928 23.2207C16.1052 23.4082 15.9999 23.6626 15.9999 23.9278C15.9999 24.193 16.1052 24.4474 16.2928 24.6349C16.4803 24.8224 16.7347 24.9278 16.9999 24.9278H18.9999C20.3255 24.9262 21.5963 24.3989 22.5336 23.4616C23.471 22.5242 23.9983 21.2534 23.9999 19.9278V17.9278C23.9999 17.6626 23.8945 17.4082 23.707 17.2207C23.5194 17.0332 23.2651 16.9278 22.9999 16.9278Z" fill="#374957"/>
<path d="M1 8.92749C1.26522 8.92749 1.51957 8.82213 1.70711 8.6346C1.89464 8.44706 2 8.19271 2 7.92749V5.92749C2 5.13184 2.31607 4.36878 2.87868 3.80617C3.44129 3.24356 4.20435 2.92749 5 2.92749H7C7.26522 2.92749 7.51957 2.82213 7.70711 2.6346C7.89464 2.44706 8 2.19271 8 1.92749C8 1.66227 7.89464 1.40792 7.70711 1.22038C7.51957 1.03285 7.26522 0.92749 7 0.92749H5C3.67441 0.929078 2.40356 1.45637 1.46622 2.39371C0.528882 3.33105 0.00158786 4.6019 0 5.92749L0 7.92749C0 8.19271 0.105357 8.44706 0.292893 8.6346C0.48043 8.82213 0.734784 8.92749 1 8.92749Z" fill="#374957"/>
<path d="M7 22.9278H5C4.20435 22.9278 3.44129 22.6117 2.87868 22.0491C2.31607 21.4865 2 20.7235 2 19.9278V17.9278C2 17.6626 1.89464 17.4082 1.70711 17.2207C1.51957 17.0332 1.26522 16.9278 1 16.9278C0.734784 16.9278 0.48043 17.0332 0.292893 17.2207C0.105357 17.4082 0 17.6626 0 17.9278L0 19.9278C0.00158786 21.2534 0.528882 22.5242 1.46622 23.4616C2.40356 24.3989 3.67441 24.9262 5 24.9278H7C7.26522 24.9278 7.51957 24.8224 7.70711 24.6349C7.89464 24.4474 8 24.193 8 23.9278C8 23.6626 7.89464 23.4082 7.70711 23.2207C7.51957 23.0332 7.26522 22.9278 7 22.9278Z" fill="#374957"/>
<path d="M18.9999 0.927483H16.9999C16.7347 0.927483 16.4803 1.03284 16.2928 1.22038C16.1052 1.40791 15.9999 1.66227 15.9999 1.92748C15.9999 2.1927 16.1052 2.44705 16.2928 2.63459C16.4803 2.82213 16.7347 2.92748 16.9999 2.92748H18.9999C19.7955 2.92748 20.5586 3.24355 21.1212 3.80616C21.6838 4.36877 21.9999 5.13183 21.9999 5.92748V7.92748C21.9999 8.1927 22.1052 8.44705 22.2928 8.63459C22.4803 8.82213 22.7346 8.92748 22.9999 8.92748C23.2651 8.92748 23.5194 8.82213 23.707 8.63459C23.8945 8.44705 23.9999 8.1927 23.9999 7.92748V5.92748C23.9983 4.60189 23.471 3.33104 22.5336 2.3937C21.5963 1.45636 20.3255 0.92907 18.9999 0.927483V0.927483Z" fill="#374957"/>
<path d="M12.0001 11.9275C12.7912 11.9275 13.5646 11.6929 14.2224 11.2533C14.8802 10.8138 15.3929 10.1891 15.6956 9.45818C15.9984 8.72728 16.0776 7.92301 15.9233 7.14709C15.7689 6.37116 15.388 5.65843 14.8285 5.09902C14.2691 4.53961 13.5564 4.15865 12.7805 4.00431C12.0046 3.84997 11.2003 3.92918 10.4694 4.23193C9.73848 4.53468 9.11377 5.04737 8.67424 5.70517C8.23472 6.36297 8.00012 7.13632 8.00012 7.92745C8.00012 8.98832 8.42155 10.0057 9.17169 10.7559C9.92184 11.506 10.9393 11.9275 12.0001 11.9275ZM12.0001 5.92745C12.3957 5.92745 12.7824 6.04475 13.1113 6.26451C13.4402 6.48427 13.6965 6.79663 13.8479 7.16208C13.9993 7.52754 14.0389 7.92967 13.9617 8.31763C13.8845 8.70559 13.694 9.06196 13.4143 9.34166C13.1346 9.62137 12.7783 9.81185 12.3903 9.88902C12.0023 9.96619 11.6002 9.92658 11.2348 9.77521C10.8693 9.62383 10.5569 9.36749 10.3372 9.03859C10.1174 8.70969 10.0001 8.32301 10.0001 7.92745C10.0001 7.39702 10.2108 6.88831 10.5859 6.51324C10.961 6.13816 11.4697 5.92745 12.0001 5.92745Z" fill="#374957"/>
<path d="M18.0001 20.9278C18.2653 20.9278 18.5197 20.8225 18.7072 20.6349C18.8948 20.4474 19.0001 20.193 19.0001 19.9278C18.9985 18.337 18.3659 16.8118 17.241 15.6869C16.1161 14.562 14.5909 13.9294 13.0001 13.9278H11.0001C9.40931 13.9294 7.88411 14.562 6.75924 15.6869C5.63436 16.8118 5.00171 18.337 5.00012 19.9278C5.00012 20.193 5.10548 20.4474 5.29302 20.6349C5.48055 20.8225 5.73491 20.9278 6.00012 20.9278C6.26534 20.9278 6.51969 20.8225 6.70723 20.6349C6.89477 20.4474 7.00012 20.193 7.00012 19.9278C7.00012 18.8669 7.42155 17.8495 8.17169 17.0994C8.92184 16.3492 9.93926 15.9278 11.0001 15.9278H13.0001C14.061 15.9278 15.0784 16.3492 15.8285 17.0994C16.5787 17.8495 17.0001 18.8669 17.0001 19.9278C17.0001 20.193 17.1055 20.4474 17.293 20.6349C17.4806 20.8225 17.7349 20.9278 18.0001 20.9278Z" fill="#374957"/>
</g>
<defs>
<clipPath id="clip0_507_2156">
<rect width="24" height="24" fill="white" transform="translate(0 0.92749)"/>
</clipPath>
</defs>
</svg>
