<svg width="24" height="25" viewBox="0 0 24 25" fill="none" xmlns="http://www.w3.org/2000/svg">
<g clip-path="url(#clip0_507_2070)">
<path d="M20 7.92749H18.262C18.8274 7.42909 19.2762 6.81237 19.5766 6.12109C19.8769 5.42981 20.0215 4.6809 20 3.92749C20 3.66227 19.8946 3.40792 19.7071 3.22038C19.5196 3.03285 19.2652 2.92749 19 2.92749C18.7348 2.92749 18.4804 3.03285 18.2929 3.22038C18.1054 3.40792 18 3.66227 18 3.92749C18 6.54949 15.629 7.45749 13.826 7.76849C14.4915 6.58854 14.8921 5.27786 15 3.92749C15 3.13184 14.6839 2.36878 14.1213 1.80617C13.5587 1.24356 12.7956 0.92749 12 0.92749C11.2044 0.92749 10.4413 1.24356 9.87868 1.80617C9.31607 2.36878 9 3.13184 9 3.92749C9.10791 5.27786 9.50852 6.58854 10.174 7.76849C8.371 7.45749 6 6.54949 6 3.92749C6 3.66227 5.89464 3.40792 5.70711 3.22038C5.51957 3.03285 5.26522 2.92749 5 2.92749C4.73478 2.92749 4.48043 3.03285 4.29289 3.22038C4.10536 3.40792 4 3.66227 4 3.92749C3.97851 4.6809 4.12307 5.42981 4.42344 6.12109C4.7238 6.81237 5.1726 7.42909 5.738 7.92749H4C2.93913 7.92749 1.92172 8.34892 1.17157 9.09906C0.421427 9.84921 0 10.8666 0 11.9275L0 12.9275C0 13.4579 0.210714 13.9666 0.585786 14.3417C0.960859 14.7168 1.46957 14.9275 2 14.9275V19.9275C2.00159 21.2531 2.52888 22.5239 3.46622 23.4613C4.40356 24.3986 5.67441 24.9259 7 24.9275H17C18.3256 24.9259 19.5964 24.3986 20.5338 23.4613C21.4711 22.5239 21.9984 21.2531 22 19.9275V14.9275C22.5304 14.9275 23.0391 14.7168 23.4142 14.3417C23.7893 13.9666 24 13.4579 24 12.9275V11.9275C24 10.8666 23.5786 9.84921 22.8284 9.09906C22.0783 8.34892 21.0609 7.92749 20 7.92749ZM12 2.92749C12.2652 2.92749 12.5196 3.03285 12.7071 3.22038C12.8946 3.40792 13 3.66227 13 3.92749C12.8793 4.99032 12.5387 6.0164 12 6.94049C11.4613 6.0164 11.1207 4.99032 11 3.92749C11 3.66227 11.1054 3.40792 11.2929 3.22038C11.4804 3.03285 11.7348 2.92749 12 2.92749ZM2 11.9275C2 11.3971 2.21071 10.8883 2.58579 10.5133C2.96086 10.1382 3.46957 9.92749 4 9.92749H11V12.9275H2V11.9275ZM4 19.9275V14.9275H11V22.9275H7C6.20435 22.9275 5.44129 22.6114 4.87868 22.0488C4.31607 21.4862 4 20.7231 4 19.9275ZM20 19.9275C20 20.7231 19.6839 21.4862 19.1213 22.0488C18.5587 22.6114 17.7956 22.9275 17 22.9275H13V14.9275H20V19.9275ZM13 12.9275V9.92749H20C20.5304 9.92749 21.0391 10.1382 21.4142 10.5133C21.7893 10.8883 22 11.3971 22 11.9275V12.9275H13Z" fill="#374957"/>
</g>
<defs>
<clipPath id="clip0_507_2070">
<rect width="24" height="24" fill="white" transform="translate(0 0.92749)"/>
</clipPath>
</defs>
</svg>
