<svg width="24" height="25" viewBox="0 0 24 25" fill="none" xmlns="http://www.w3.org/2000/svg">
<g clip-path="url(#clip0_507_2028)">
<path d="M19 1.92734H5C3.67441 1.92893 2.40356 2.45622 1.46622 3.39356C0.528882 4.3309 0.00158786 5.60174 0 6.92734L0 18.9273C0.00158786 20.2529 0.528882 21.5238 1.46622 22.4611C2.40356 23.3985 3.67441 23.9258 5 23.9273H19C20.3256 23.9258 21.5964 23.3985 22.5338 22.4611C23.4711 21.5238 23.9984 20.2529 24 18.9273V6.92734C23.9984 5.60174 23.4711 4.3309 22.5338 3.39356C21.5964 2.45622 20.3256 1.92893 19 1.92734ZM5 3.92734H19C19.5988 3.92852 20.1835 4.10885 20.679 4.44514C21.1744 4.78143 21.5579 5.25828 21.78 5.81434L14.122 13.4733C13.5584 14.0347 12.7954 14.3498 12 14.3498C11.2046 14.3498 10.4416 14.0347 9.878 13.4733L2.22 5.81434C2.44215 5.25828 2.82561 4.78143 3.32105 4.44514C3.81648 4.10885 4.40121 3.92852 5 3.92734ZM19 21.9273H5C4.20435 21.9273 3.44129 21.6113 2.87868 21.0487C2.31607 20.486 2 19.723 2 18.9273V8.42734L8.464 14.8873C9.40263 15.8236 10.6743 16.3494 12 16.3494C13.3257 16.3494 14.5974 15.8236 15.536 14.8873L22 8.42734V18.9273C22 19.723 21.6839 20.486 21.1213 21.0487C20.5587 21.6113 19.7956 21.9273 19 21.9273Z" fill="#374957"/>
</g>
<defs>
<clipPath id="clip0_507_2028">
<rect width="24" height="24" fill="white" transform="translate(0 0.92749)"/>
</clipPath>
</defs>
</svg>
