<svg width="24" height="25" viewBox="0 0 24 25" fill="none" xmlns="http://www.w3.org/2000/svg">
<g clip-path="url(#clip0_507_2294)">
<path d="M19 0.92749H5C3.67441 0.929078 2.40356 1.45637 1.46622 2.39371C0.528882 3.33105 0.00158786 4.6019 0 5.92749L0 19.9275C0.00158786 21.2531 0.528882 22.5239 1.46622 23.4613C2.40356 24.3986 3.67441 24.9259 5 24.9275H19C20.3256 24.9259 21.5964 24.3986 22.5338 23.4613C23.4711 22.5239 23.9984 21.2531 24 19.9275V5.92749C23.9984 4.6019 23.4711 3.33105 22.5338 2.39371C21.5964 1.45637 20.3256 0.929078 19 0.92749V0.92749ZM22 19.9275C22 20.7231 21.6839 21.4862 21.1213 22.0488C20.5587 22.6114 19.7956 22.9275 19 22.9275H5C4.20435 22.9275 3.44129 22.6114 2.87868 22.0488C2.31607 21.4862 2 20.7231 2 19.9275V5.92749C2 5.13184 2.31607 4.36878 2.87868 3.80617C3.44129 3.24356 4.20435 2.92749 5 2.92749H19C19.7956 2.92749 20.5587 3.24356 21.1213 3.80617C21.6839 4.36878 22 5.13184 22 5.92749V19.9275ZM18 9.92749C18 10.1927 17.8946 10.4471 17.7071 10.6346C17.5196 10.8221 17.2652 10.9275 17 10.9275C16.7348 10.9275 16.4804 10.8221 16.2929 10.6346C16.1054 10.4471 16 10.1927 16 9.92749C16 9.66227 15.8946 9.40792 15.7071 9.22038C15.5196 9.03285 15.2652 8.92749 15 8.92749H13V16.9275H14C14.2652 16.9275 14.5196 17.0328 14.7071 17.2204C14.8946 17.4079 15 17.6623 15 17.9275C15 18.1927 14.8946 18.4471 14.7071 18.6346C14.5196 18.8221 14.2652 18.9275 14 18.9275H10C9.73478 18.9275 9.48043 18.8221 9.29289 18.6346C9.10536 18.4471 9 18.1927 9 17.9275C9 17.6623 9.10536 17.4079 9.29289 17.2204C9.48043 17.0328 9.73478 16.9275 10 16.9275H11V8.92749H9C8.73478 8.92749 8.48043 9.03285 8.29289 9.22038C8.10536 9.40792 8 9.66227 8 9.92749C8 10.1927 7.89464 10.4471 7.70711 10.6346C7.51957 10.8221 7.26522 10.9275 7 10.9275C6.73478 10.9275 6.48043 10.8221 6.29289 10.6346C6.10536 10.4471 6 10.1927 6 9.92749C6 9.13184 6.31607 8.36878 6.87868 7.80617C7.44129 7.24356 8.20435 6.92749 9 6.92749H15C15.7956 6.92749 16.5587 7.24356 17.1213 7.80617C17.6839 8.36878 18 9.13184 18 9.92749Z" fill="#374957"/>
</g>
<defs>
<clipPath id="clip0_507_2294">
<rect width="24" height="24" fill="white" transform="translate(0 0.92749)"/>
</clipPath>
</defs>
</svg>
