<svg width="24" height="25" viewBox="0 0 24 25" fill="none" xmlns="http://www.w3.org/2000/svg">
<g clip-path="url(#clip0_507_2092)">
<path d="M21.8 6.50655L14.8 1.78255C13.9742 1.22094 12.9987 0.920639 12 0.920639C11.0014 0.920639 10.0258 1.22094 9.2 1.78255L2.2 6.50655C1.52215 6.96472 0.967097 7.58224 0.583525 8.30492C0.199953 9.02761 -0.000414419 9.83338 6.43539e-07 10.6515V19.9275C0.0015885 21.2531 0.528883 22.524 1.46622 23.4613C2.40356 24.3987 3.67441 24.926 5 24.9275H19C20.3256 24.926 21.5964 24.3987 22.5338 23.4613C23.4711 22.524 23.9984 21.2531 24 19.9275V10.6515C24.0004 9.83338 23.8001 9.02761 23.4165 8.30492C23.0329 7.58224 22.4778 6.96472 21.8 6.50655ZM22 19.9275C22 20.7232 21.6839 21.4863 21.1213 22.0489C20.5587 22.6115 19.7957 22.9275 19 22.9275H5C4.20435 22.9275 3.44129 22.6115 2.87868 22.0489C2.31607 21.4863 2 20.7232 2 19.9275V10.6515C1.99997 10.1605 2.1205 9.67689 2.351 9.24326C2.5815 8.80964 2.91492 8.43923 3.322 8.16455L10.322 3.44055C10.817 3.10427 11.4016 2.92447 12 2.92447C12.5984 2.92447 13.183 3.10427 13.678 3.44055L20.678 8.16455C21.0851 8.43923 21.4185 8.80964 21.649 9.24326C21.8795 9.67689 22 10.1605 22 10.6515V19.9275ZM12 7.93355C10.8122 7.9334 9.65116 8.28579 8.66384 8.94607C7.67652 9.60635 6.90739 10.5448 6.45387 11.6426C6.00035 12.7403 5.88285 13.948 6.11626 15.1126C6.34966 16.2772 6.92347 17.3463 7.765 18.1845L9.589 19.9685C10.2353 20.5945 11.0998 20.9444 11.9995 20.9444C12.8992 20.9444 13.7637 20.5945 14.41 19.9685L16.243 18.1765C17.0823 17.3374 17.6538 16.2683 17.8854 15.1043C18.117 13.9403 17.9981 12.7338 17.544 11.6373C17.0898 10.5409 16.3206 9.60378 15.3338 8.9445C14.347 8.28522 13.1868 7.93341 12 7.93355ZM14.836 16.7545L13.011 18.5395C12.7398 18.8022 12.377 18.949 11.9995 18.949C11.622 18.949 11.2592 18.8022 10.988 18.5395L9.171 16.7625C8.61196 16.2035 8.23113 15.4913 8.07663 14.7159C7.92213 13.9405 8.00088 13.1367 8.30294 12.406C8.605 11.6754 9.11681 11.0506 9.77374 10.6107C10.4307 10.1707 11.2032 9.93533 11.9939 9.93421C12.7845 9.93309 13.5577 10.1663 14.2159 10.6044C14.8741 11.0425 15.3876 11.6658 15.6918 12.3956C15.9959 13.1254 16.0769 13.929 15.9246 14.7048C15.7723 15.4806 15.3935 16.1939 14.836 16.7545ZM13 13.9275C13 14.1253 12.9414 14.3187 12.8315 14.4831C12.7216 14.6476 12.5654 14.7757 12.3827 14.8514C12.2 14.9271 11.9989 14.9469 11.8049 14.9083C11.6109 14.8697 11.4327 14.7745 11.2929 14.6347C11.153 14.4948 11.0578 14.3166 11.0192 14.1226C10.9806 13.9287 11.0004 13.7276 11.0761 13.5449C11.1518 13.3621 11.28 13.206 11.4444 13.0961C11.6089 12.9862 11.8022 12.9275 12 12.9275C12.2652 12.9275 12.5196 13.0329 12.7071 13.2204C12.8946 13.408 13 13.6623 13 13.9275Z" fill="#374957"/>
</g>
<defs>
<clipPath id="clip0_507_2092">
<rect width="24" height="24" fill="white" transform="translate(0 0.92749)"/>
</clipPath>
</defs>
</svg>
