<svg width="24" height="25" viewBox="0 0 24 25" fill="none" xmlns="http://www.w3.org/2000/svg">
<g clip-path="url(#clip0_507_1962)">
<path d="M11.692 23.9273C11.2979 23.9283 10.9076 23.8512 10.5435 23.7003C10.1794 23.5494 9.84889 23.3278 9.57104 23.0483L6.18404 19.6273C6.07735 19.5379 5.99049 19.4272 5.92904 19.3023C5.86759 19.1774 5.83289 19.041 5.82717 18.902C5.82145 18.7629 5.84483 18.6241 5.89581 18.4946C5.94679 18.3651 6.02426 18.2476 6.12325 18.1497C6.22224 18.0519 6.34057 17.9757 6.47067 17.9262C6.60077 17.8767 6.73977 17.8549 6.87878 17.8622C7.0178 17.8695 7.15375 17.9058 7.27795 17.9686C7.40215 18.0315 7.51185 18.1196 7.60004 18.2273L10.984 21.6413C11.1745 21.822 11.427 21.9227 11.6895 21.9227C11.9521 21.9227 12.2046 21.822 12.395 21.6413L17.809 16.2273C17.9965 16.0397 18.2509 15.9342 18.5162 15.9341C18.7815 15.934 19.0359 16.0393 19.2235 16.2268C19.4112 16.4143 19.5166 16.6687 19.5167 16.934C19.5168 17.1992 19.4115 17.4537 19.224 17.6413L13.809 23.0553C13.5312 23.3332 13.2011 23.5534 12.8378 23.703C12.4744 23.8527 12.085 23.9289 11.692 23.9273ZM7.00004 22.9273C7.00004 22.6621 6.89468 22.4077 6.70715 22.2202C6.51961 22.0327 6.26526 21.9273 6.00004 21.9273H5.68304C4.829 21.9109 4.00524 21.608 3.34403 21.0672C2.68282 20.5264 2.22252 19.7791 2.03704 18.9453C1.92838 18.2288 2.04695 17.4962 2.37608 16.8505C2.70521 16.2048 3.22836 15.6784 3.87204 15.3453C4.33053 15.0915 4.67067 14.6674 4.81888 14.1647C4.9671 13.6621 4.91147 13.1213 4.66404 12.6593C4.27575 11.9188 4.04653 11.1052 3.9911 10.2709C3.93566 9.43657 4.05522 8.59986 4.34212 7.81445C4.62902 7.02904 5.07692 6.31226 5.65708 5.71011C6.23725 5.10795 6.93687 4.63371 7.71107 4.3178C8.48526 4.00189 9.31695 3.85129 10.1528 3.87566C10.9886 3.90003 11.8101 4.09883 12.5646 4.45931C13.319 4.81979 13.9898 5.334 14.5339 5.96893C15.078 6.60387 15.4834 7.34552 15.724 8.14632C15.8718 8.6291 16.1352 9.06848 16.4915 9.42627C16.8477 9.78406 17.2859 10.0494 17.768 10.1993C19.0747 10.5967 20.2057 11.4299 20.9723 12.5602C21.739 13.6904 22.095 15.0493 21.981 16.4103C21.8659 17.5924 21.3934 18.7113 20.6265 19.6181C19.8595 20.5249 18.8346 21.1766 17.688 21.4863C17.4392 21.5715 17.2339 21.7513 17.1167 21.9868C16.9995 22.2223 16.9798 22.4945 17.0618 22.7444C17.1439 22.9944 17.3212 23.2019 17.5552 23.322C17.7892 23.4422 18.0611 23.4653 18.312 23.3863C19.9508 22.9187 21.393 21.931 22.4215 20.5722C23.4499 19.2133 24.0087 17.557 24.0137 15.8529C24.0186 14.1487 23.4695 12.4892 22.449 11.1244C21.4285 9.75957 19.992 8.76349 18.356 8.28632C18.1844 8.23284 18.0287 8.13774 17.9027 8.00951C17.7767 7.88127 17.6844 7.72386 17.634 7.55132C17.1049 5.85094 16.0235 4.37572 14.5612 3.35935C13.0989 2.34299 11.3393 1.84358 9.56115 1.94023C7.78296 2.03689 6.08786 2.72409 4.74436 3.89298C3.40085 5.06186 2.48576 6.6456 2.14404 8.39332C1.79259 10.1603 2.07589 11.9947 2.94404 13.5733C1.93181 14.0952 1.10878 14.9215 0.590873 15.9358C0.0729618 16.9501 -0.113747 18.1013 0.0570385 19.2273C0.31769 20.5351 1.01785 21.7144 2.04126 22.5694C3.06466 23.4243 4.34972 23.9035 5.68304 23.9273H6.00004C6.26526 23.9273 6.51961 23.822 6.70715 23.6344C6.89468 23.4469 7.00004 23.1925 7.00004 22.9273Z" fill="#374957"/>
</g>
<defs>
<clipPath id="clip0_507_1962">
<rect width="24" height="24" fill="white" transform="translate(0 0.92749)"/>
</clipPath>
</defs>
</svg>
