<svg width="24" height="25" viewBox="0 0 24 25" fill="none" xmlns="http://www.w3.org/2000/svg">
<g clip-path="url(#clip0_507_2145)">
<path d="M17 0.92749C16.7348 0.92749 16.4804 1.03285 16.2929 1.22038C16.1054 1.40792 16 1.66227 16 1.92749C16 4.87649 13.417 5.92749 11 5.92749H4C2.93913 5.92749 1.92172 6.34892 1.17157 7.09906C0.421427 7.84921 0 8.86662 0 9.92749L0 11.9275C0.00218416 12.5262 0.139462 13.1168 0.401603 13.6551C0.663743 14.1934 1.04399 14.6656 1.514 15.0365L5.086 23.0085C5.34004 23.5796 5.75417 24.0648 6.27827 24.4054C6.80237 24.746 7.41396 24.9273 8.039 24.9275C8.53631 24.9272 9.02565 24.8025 9.46247 24.5648C9.89929 24.3271 10.2697 23.9839 10.54 23.5665C10.8104 23.149 10.972 22.6706 11.0103 22.1748C11.0485 21.679 10.9621 21.1814 10.759 20.7275L8.559 15.9275H11C13.417 15.9275 16 16.9785 16 19.9275C16 20.1927 16.1054 20.4471 16.2929 20.6346C16.4804 20.8221 16.7348 20.9275 17 20.9275C17.2652 20.9275 17.5196 20.8221 17.7071 20.6346C17.8946 20.4471 18 20.1927 18 19.9275V1.92749C18 1.66227 17.8946 1.40792 17.7071 1.22038C17.5196 1.03285 17.2652 0.92749 17 0.92749V0.92749ZM8.937 21.5465C9.00324 21.6961 9.03109 21.8598 9.01804 22.0229C9.005 22.186 8.95145 22.3432 8.86227 22.4804C8.77309 22.6175 8.65109 22.7302 8.50733 22.8083C8.36357 22.8864 8.20259 22.9274 8.039 22.9275C7.8004 22.9273 7.56697 22.8579 7.36709 22.7276C7.1672 22.5973 7.00945 22.4117 6.913 22.1935L4.105 15.9275H6.359L8.937 21.5465ZM16 15.5275C14.5713 14.4267 12.8024 13.8606 11 13.9275H4C3.46957 13.9275 2.96086 13.7168 2.58579 13.3417C2.21071 12.9666 2 12.4579 2 11.9275V9.92749C2 9.39706 2.21071 8.88835 2.58579 8.51328C2.96086 8.1382 3.46957 7.92749 4 7.92749H11C12.8018 7.99579 14.5706 7.43152 16 6.33249V15.5275ZM23.9 16.3795C23.8413 16.4971 23.7601 16.6019 23.6609 16.6881C23.5617 16.7742 23.4465 16.84 23.3218 16.8816C23.1972 16.9232 23.0656 16.9398 22.9345 16.9306C22.8035 16.9213 22.6755 16.8862 22.558 16.8275L20.558 15.8275C20.3206 15.7089 20.1401 15.5009 20.0561 15.2493C19.972 14.9976 19.9915 14.7229 20.11 14.4855C20.2286 14.2481 20.4365 14.0676 20.6882 13.9836C20.9399 13.8995 21.2146 13.9189 21.452 14.0375L23.452 15.0375C23.6882 15.156 23.8678 15.3631 23.9518 15.6136C24.0357 15.8641 24.0171 16.1377 23.9 16.3745V16.3795ZM20.11 7.37949C20.0512 7.26197 20.0162 7.13402 20.0069 7.00295C19.9977 6.87189 20.0143 6.74028 20.0559 6.61565C20.0975 6.49102 20.1633 6.37581 20.2494 6.27661C20.3356 6.1774 20.4404 6.09615 20.558 6.03749L22.558 5.03749C22.7954 4.91894 23.0701 4.89954 23.3218 4.98355C23.5735 5.06757 23.7815 5.24812 23.9 5.48549C24.0186 5.72286 24.038 5.9976 23.9539 6.24927C23.8699 6.50095 23.6894 6.70894 23.452 6.82749L21.452 7.82749C21.3345 7.88625 21.2065 7.92127 21.0755 7.93055C20.9444 7.93983 20.8128 7.9232 20.6882 7.88159C20.5635 7.83999 20.4483 7.77423 20.3491 7.68807C20.2499 7.60192 20.1687 7.49706 20.11 7.37949ZM20 10.9275C20 10.6623 20.1054 10.4079 20.2929 10.2204C20.4804 10.0328 20.7348 9.92749 21 9.92749H23C23.2652 9.92749 23.5196 10.0328 23.7071 10.2204C23.8946 10.4079 24 10.6623 24 10.9275C24 11.1927 23.8946 11.4471 23.7071 11.6346C23.5196 11.8221 23.2652 11.9275 23 11.9275H21C20.7348 11.9275 20.4804 11.8221 20.2929 11.6346C20.1054 11.4471 20 11.1927 20 10.9275Z" fill="#374957"/>
</g>
<defs>
<clipPath id="clip0_507_2145">
<rect width="24" height="24" fill="white" transform="translate(0 0.92749)"/>
</clipPath>
</defs>
</svg>
