<svg width="24" height="25" viewBox="0 0 24 25" fill="none" xmlns="http://www.w3.org/2000/svg">
<g clip-path="url(#clip0_507_1966)">
<path d="M18.4002 8.30629C18.2193 8.25469 18.0542 8.15868 17.9199 8.02699C17.7856 7.8953 17.6863 7.73212 17.6312 7.55229C17.325 6.51433 16.8113 5.5493 16.1214 4.71558C15.4314 3.88187 14.5795 3.1968 13.6171 2.70185C12.6547 2.20689 11.602 1.91233 10.5225 1.836C9.44298 1.75966 8.35922 1.90314 7.33678 2.25774C6.31434 2.61235 5.37448 3.17071 4.57406 3.89903C3.77364 4.62736 3.12932 5.51051 2.68007 6.49504C2.23082 7.47957 1.986 8.54502 1.96041 9.6269C1.93482 10.7088 2.129 11.7846 2.5312 12.7893C2.62359 13.0007 2.64348 13.2368 2.58778 13.4607C2.53207 13.6846 2.40389 13.8838 2.2232 14.0273C1.42692 14.6183 0.805241 15.4136 0.423947 16.3289C0.0426523 17.2443 -0.0840687 18.2458 0.0571956 19.2273C0.277649 20.5542 0.96652 21.758 1.99878 22.6204C3.03103 23.4827 4.33826 23.9464 5.6832 23.9273H11.0002C11.2654 23.9273 11.5198 23.8219 11.7073 23.6344C11.8948 23.4469 12.0002 23.1925 12.0002 22.9273C12.0002 22.6621 11.8948 22.4077 11.7073 22.2202C11.5198 22.0326 11.2654 21.9273 11.0002 21.9273H5.6832C4.81948 21.9482 3.97682 21.6591 3.30796 21.1122C2.63909 20.5653 2.18827 19.7969 2.0372 18.9463C1.94139 18.321 2.01904 17.6814 2.26167 17.0973C2.5043 16.5131 2.90261 16.0067 3.4132 15.6333C3.94952 15.2325 4.33748 14.6648 4.51613 14.0195C4.69478 13.3742 4.654 12.6879 4.4002 12.0683C3.89835 10.743 3.87254 9.28451 4.3272 7.94229C4.69039 6.89086 5.34078 5.96216 6.20468 5.26139C7.06858 4.56062 8.11147 4.11579 9.2152 3.97729C9.47121 3.94433 9.72906 3.92763 9.9872 3.92729C11.2803 3.92302 12.5399 4.33772 13.5775 5.10928C14.6152 5.88084 15.375 6.96776 15.7432 8.20729C15.8869 8.67966 16.1459 9.10886 16.4968 9.45624C16.8476 9.80363 17.2794 10.0583 17.7532 10.1973C18.9127 10.5402 19.9398 11.2292 20.6969 12.1719C21.454 13.1146 21.9051 14.2662 21.9897 15.4724C22.0743 16.6785 21.7885 17.8818 21.1704 18.921C20.5523 19.9602 19.6315 20.7858 18.5312 21.2873C18.3684 21.3707 18.2322 21.4981 18.1383 21.6551C18.0445 21.8121 17.9966 21.9924 18.0002 22.1753C17.9982 22.3408 18.0379 22.5041 18.1155 22.6502C18.1931 22.7964 18.3062 22.9207 18.4443 23.0118C18.5825 23.1029 18.7413 23.1578 18.9063 23.1715C19.0712 23.1852 19.2369 23.1573 19.3882 23.0903C23.5222 21.1033 25.7682 15.8763 22.2682 10.8263C21.3045 9.5692 19.9395 8.6799 18.4002 8.30629Z" fill="#374957"/>
<path d="M18.7072 17.6344C18.8946 17.4469 19 17.1926 19 16.9274C19 16.6623 18.8946 16.408 18.7072 16.2204L17.1212 14.6344C16.5586 14.072 15.7957 13.7561 15.0002 13.7561C14.2047 13.7561 13.4417 14.072 12.8792 14.6344L11.2932 16.2204C11.111 16.409 11.0102 16.6616 11.0125 16.9238C11.0148 17.186 11.1199 17.4368 11.3053 17.6223C11.4908 17.8077 11.7416 17.9128 12.0038 17.9151C12.266 17.9174 12.5186 17.8166 12.7072 17.6344L14.0002 16.3414V23.9274C14.0002 24.1926 14.1055 24.447 14.2931 24.6345C14.4806 24.8221 14.7349 24.9274 15.0002 24.9274C15.2654 24.9274 15.5197 24.8221 15.7073 24.6345C15.8948 24.447 16.0002 24.1926 16.0002 23.9274V16.3414L17.2932 17.6344C17.4807 17.8219 17.735 17.9272 18.0002 17.9272C18.2653 17.9272 18.5196 17.8219 18.7072 17.6344Z" fill="#374957"/>
</g>
<defs>
<clipPath id="clip0_507_1966">
<rect width="24" height="24" fill="white" transform="translate(0 0.92749)"/>
</clipPath>
</defs>
</svg>
