<svg width="24" height="25" viewBox="0 0 24 25" fill="none" xmlns="http://www.w3.org/2000/svg">
<g clip-path="url(#clip0_507_1994)">
<path d="M20.527 5.14442L14.5 1.66442C13.7394 1.22704 12.8774 0.996857 12 0.996857C11.1226 0.996857 10.2606 1.22704 9.50002 1.66442L3.47302 5.14442C2.7139 5.58433 2.0835 6.21574 1.6448 6.97557C1.2061 7.7354 0.974458 8.59704 0.973022 9.47442V16.4344C0.974485 17.3119 1.20613 18.1737 1.64481 18.9337C2.0835 19.6937 2.71389 20.3253 3.47302 20.7654L9.50002 24.2444C10.2605 24.6821 11.1226 24.9124 12 24.9124C12.8775 24.9124 13.7395 24.6821 14.5 24.2444L20.527 20.7654C21.2862 20.3253 21.9165 19.6937 22.3552 18.9337C22.7939 18.1737 23.0256 17.3119 23.027 16.4344V9.47442C23.0256 8.59704 22.7939 7.7354 22.3552 6.97557C21.9165 6.21574 21.2861 5.58433 20.527 5.14442ZM10.5 3.39742C10.9561 3.13411 11.4734 2.99549 12 2.99549C12.5266 2.99549 13.044 3.13411 13.5 3.39742L19.527 6.87642C19.6798 6.97302 19.8235 7.08348 19.956 7.20642L13.763 10.7814C13.2269 11.0905 12.6189 11.2532 12 11.2532C11.3812 11.2532 10.7732 11.0905 10.237 10.7814L4.04402 7.20642C4.17659 7.08348 4.3202 6.97302 4.47302 6.87642L10.5 3.39742ZM4.47302 19.0324C4.01723 18.7683 3.63878 18.3892 3.37554 17.9329C3.11229 17.4766 2.97349 16.9592 2.97302 16.4324V9.47442C2.97997 9.29426 3.00374 9.11515 3.04402 8.93942L9.23702 12.5144C9.78397 12.8255 10.3803 13.0403 11 13.1494V22.7184C10.8273 22.6655 10.6599 22.5965 10.5 22.5124L4.47302 19.0324ZM21.027 16.4324C21.0266 16.9592 20.8878 17.4766 20.6245 17.9329C20.3613 18.3892 19.9828 18.7683 19.527 19.0324L13.5 22.5124C13.3402 22.5965 13.1728 22.6655 13 22.7184V13.1494C13.6197 13.0403 14.2161 12.8255 14.763 12.5144L20.956 8.93942C20.9963 9.11515 21.0201 9.29426 21.027 9.47442V16.4324Z" fill="#374957"/>
</g>
<defs>
<clipPath id="clip0_507_1994">
<rect width="24" height="24" fill="white" transform="translate(0 0.92749)"/>
</clipPath>
</defs>
</svg>
