<svg width="24" height="25" viewBox="0 0 24 25" fill="none" xmlns="http://www.w3.org/2000/svg">
<g clip-path="url(#clip0_507_1914)">
<path d="M20.1371 24.9275C19.7672 24.9265 19.4011 24.8522 19.0601 24.7088C18.719 24.5655 18.4097 24.356 18.1501 24.0925L12.0001 17.9785L5.85012 24.0965C5.45515 24.4972 4.94861 24.7697 4.39654 24.8783C3.84447 24.9869 3.27247 24.9267 2.75512 24.7055C2.23264 24.4953 1.78567 24.1325 1.47258 23.6644C1.15949 23.1963 0.994841 22.6446 1.00012 22.0815V5.92749C1.00012 4.60141 1.52691 3.32964 2.46459 2.39196C3.40227 1.45427 4.67404 0.92749 6.00012 0.92749L18.0001 0.92749C18.6567 0.92749 19.3069 1.05682 19.9135 1.30809C20.5202 1.55937 21.0714 1.92766 21.5357 2.39196C22 2.85625 22.3683 3.40745 22.6195 4.01407C22.8708 4.6207 23.0001 5.27088 23.0001 5.92749V22.0815C23.0057 22.6442 22.8417 23.1955 22.5293 23.6635C22.217 24.1316 21.7709 24.4947 21.2491 24.7055C20.8969 24.8528 20.5189 24.9283 20.1371 24.9275ZM6.00012 2.92749C5.20447 2.92749 4.44141 3.24356 3.8788 3.80617C3.31619 4.36878 3.00012 5.13184 3.00012 5.92749V22.0815C2.99976 22.2481 3.04879 22.4111 3.14102 22.5499C3.23325 22.6887 3.36455 22.797 3.51831 22.8612C3.67208 22.9254 3.84143 22.9426 4.00496 22.9106C4.1685 22.8786 4.31888 22.7989 4.43712 22.6815L11.3001 15.8605C11.4875 15.6742 11.7409 15.5697 12.0051 15.5697C12.2693 15.5697 12.5228 15.6742 12.7101 15.8605L19.5651 22.6795C19.6834 22.7969 19.8338 22.8766 19.9973 22.9086C20.1608 22.9406 20.3302 22.9234 20.4839 22.8592C20.6377 22.795 20.769 22.6867 20.8612 22.5479C20.9535 22.4091 21.0025 22.2461 21.0021 22.0795V5.92749C21.0021 5.13184 20.6861 4.36878 20.1234 3.80617C19.5608 3.24356 18.7978 2.92749 18.0021 2.92749H6.00012Z" fill="#374957"/>
</g>
<defs>
<clipPath id="clip0_507_1914">
<rect width="24" height="24" fill="white" transform="translate(0 0.92749)"/>
</clipPath>
</defs>
</svg>
