<svg width="24" height="25" viewBox="0 0 24 25" fill="none" xmlns="http://www.w3.org/2000/svg">
<g clip-path="url(#clip0_507_2309)">
<path d="M12 0.92749C9.0455 0.929597 6.19613 2.02411 4 4.00049V1.92749C4 1.66227 3.89464 1.40792 3.70711 1.22038C3.51957 1.03285 3.26522 0.92749 3 0.92749C2.73478 0.92749 2.48043 1.03285 2.29289 1.22038C2.10536 1.40792 2 1.66227 2 1.92749V4.92749C2 5.72314 2.31607 6.4862 2.87868 7.04881C3.44129 7.61142 4.20435 7.92749 5 7.92749H8C8.26522 7.92749 8.51957 7.82213 8.70711 7.6346C8.89464 7.44706 9 7.19271 9 6.92749C9 6.66227 8.89464 6.40792 8.70711 6.22038C8.51957 6.03285 8.26522 5.92749 8 5.92749H5C4.96628 5.92249 4.93289 5.91548 4.9 5.90649C6.52952 4.26532 8.67813 3.24057 10.9791 3.00716C13.28 2.77375 15.5906 3.34615 17.5165 4.62665C19.4424 5.90716 20.8642 7.81638 21.5392 10.0284C22.2142 12.2405 22.1005 14.6182 21.2176 16.7558C20.3347 18.8934 18.7372 20.6583 16.698 21.7492C14.6587 22.8402 12.304 23.1896 10.0358 22.7377C7.76764 22.2859 5.72659 21.0608 4.26106 19.2717C2.79553 17.4825 1.99637 15.2402 2 12.9275C2 12.6623 1.89464 12.4079 1.70711 12.2204C1.51957 12.0328 1.26522 11.9275 1 11.9275C0.734784 11.9275 0.48043 12.0328 0.292893 12.2204C0.105357 12.4079 0 12.6623 0 12.9275C0 15.3009 0.703788 17.6209 2.02236 19.5943C3.34094 21.5677 5.21509 23.1058 7.4078 24.014C9.60051 24.9223 12.0133 25.1599 14.3411 24.6969C16.6689 24.2339 18.8071 23.091 20.4853 21.4128C22.1635 19.7345 23.3064 17.5963 23.7694 15.2686C24.2324 12.9408 23.9948 10.528 23.0866 8.33529C22.1783 6.14258 20.6402 4.26843 18.6668 2.94986C16.6935 1.63128 14.3734 0.92749 12 0.92749V0.92749Z" fill="#374957"/>
<path d="M11.9999 6.92749C11.7347 6.92749 11.4803 7.03285 11.2928 7.22038C11.1052 7.40792 10.9999 7.66227 10.9999 7.92749V12.9275C10.9999 13.1927 11.1053 13.447 11.2929 13.6345L14.2929 16.6345C14.4815 16.8166 14.7341 16.9174 14.9963 16.9152C15.2585 16.9129 15.5093 16.8077 15.6947 16.6223C15.8801 16.4369 15.9853 16.1861 15.9876 15.9239C15.9898 15.6617 15.889 15.4091 15.7069 15.2205L12.9999 12.5135V7.92749C12.9999 7.66227 12.8945 7.40792 12.707 7.22038C12.5194 7.03285 12.2651 6.92749 11.9999 6.92749Z" fill="#374957"/>
</g>
<defs>
<clipPath id="clip0_507_2309">
<rect width="24" height="24" fill="white" transform="translate(0 0.92749)"/>
</clipPath>
</defs>
</svg>
