<svg width="24" height="25" viewBox="0 0 24 25" fill="none" xmlns="http://www.w3.org/2000/svg">
<g clip-path="url(#clip0_507_2203)">
<path d="M12.9999 24.9266C11.4091 24.925 9.88387 24.2924 8.75899 23.1675C7.63412 22.0426 7.00147 20.5174 6.99988 18.9266C6.99988 17.3666 8.19988 14.8816 10.5519 11.5386C10.8311 11.1497 11.199 10.8328 11.625 10.6142C12.0511 10.3956 12.523 10.2815 13.0019 10.2815C13.4807 10.2815 13.9527 10.3956 14.3787 10.6142C14.8048 10.8328 15.1726 11.1497 15.4519 11.5386C17.8049 14.8816 18.9999 17.3666 18.9999 18.9266C18.9983 20.5174 18.3656 22.0426 17.2408 23.1675C16.1159 24.2924 14.5907 24.925 12.9999 24.9266ZM12.9999 12.2696C12.8402 12.2684 12.6827 12.3063 12.541 12.3798C12.3993 12.4533 12.2778 12.5604 12.1869 12.6916C9.31088 16.7706 8.99988 18.4106 8.99988 18.9266C8.99988 19.9875 9.42131 21.0049 10.1715 21.7551C10.9216 22.5052 11.939 22.9266 12.9999 22.9266C14.0607 22.9266 15.0782 22.5052 15.8283 21.7551C16.5785 21.0049 16.9999 19.9875 16.9999 18.9266C16.9999 18.4106 16.6889 16.7706 13.8129 12.6916C13.722 12.5604 13.6004 12.4533 13.4587 12.3798C13.317 12.3063 13.1595 12.2684 12.9999 12.2696Z" fill="#374957"/>
<path d="M5 11.9284C3.67441 11.9268 2.40356 11.3995 1.46622 10.4622C0.528882 9.52483 0.00158786 8.25399 0 6.92839C0 5.66839 0.842 4.07339 2.574 2.05139C2.87441 1.70214 3.24669 1.42187 3.66538 1.22974C4.08408 1.03761 4.53932 0.938141 5 0.938141C5.46068 0.938141 5.91592 1.03761 6.33462 1.22974C6.75331 1.42187 7.12559 1.70214 7.426 2.05139C9.158 4.07139 10 5.66639 10 6.92839C9.99841 8.25399 9.47112 9.52483 8.53378 10.4622C7.59644 11.3995 6.32559 11.9268 5 11.9284ZM5 2.92839C4.8273 2.92754 4.65655 2.96484 4.49994 3.03762C4.34333 3.11039 4.20471 3.21685 4.094 3.34939C2.151 5.61739 2 6.66039 2 6.92839C2 7.72404 2.31607 8.4871 2.87868 9.04971C3.44129 9.61232 4.20435 9.92839 5 9.92839C5.79565 9.92839 6.55871 9.61232 7.12132 9.04971C7.68393 8.4871 8 7.72404 8 6.92839C8 6.66239 7.849 5.61939 5.906 3.35239C5.79567 3.2192 5.6572 3.11209 5.50055 3.03878C5.3439 2.96547 5.17296 2.92777 5 2.92839Z" fill="#374957"/>
<path d="M19.5 10.8906C18.3069 10.8893 17.1631 10.4148 16.3195 9.57117C15.4759 8.72754 15.0013 7.58371 15 6.39065C15 5.29965 15.7 3.88465 17.146 2.06465C17.429 1.7125 17.7874 1.42834 18.1948 1.2331C18.6022 1.03785 19.0482 0.936493 19.5 0.936493C19.9518 0.936493 20.3978 1.03785 20.8052 1.2331C21.2126 1.42834 21.571 1.7125 21.854 2.06465C23.3 3.88465 24 5.29965 24 6.39065C23.9987 7.58371 23.5241 8.72754 22.6805 9.57117C21.8369 10.4148 20.6931 10.8893 19.5 10.8906ZM19.5 2.92665C19.3485 2.9264 19.199 2.96057 19.0627 3.02657C18.9263 3.09257 18.8068 3.18868 18.713 3.30765C17.123 5.31165 17 6.17365 17 6.39065C17 7.05369 17.2634 7.68957 17.7322 8.15841C18.2011 8.62725 18.837 8.89065 19.5 8.89065C20.163 8.89065 20.7989 8.62725 21.2678 8.15841C21.7366 7.68957 22 7.05369 22 6.39065C22 6.17365 21.877 5.31165 20.287 3.30865C20.1933 3.1895 20.0738 3.0932 19.9375 3.02702C19.8011 2.96084 19.6516 2.92652 19.5 2.92665Z" fill="#374957"/>
</g>
<defs>
<clipPath id="clip0_507_2203">
<rect width="24" height="24" fill="white" transform="translate(0 0.92749)"/>
</clipPath>
</defs>
</svg>
