<svg width="24" height="25" viewBox="0 0 24 25" fill="none" xmlns="http://www.w3.org/2000/svg">
<g clip-path="url(#clip0_507_2071)">
<path d="M23.9549 22.2463C23.9159 22.1209 23.8526 22.0044 23.7686 21.9034C23.6846 21.8025 23.5815 21.7191 23.4652 21.658C23.349 21.5969 23.2218 21.5593 23.091 21.5473C22.9602 21.5354 22.8283 21.5493 22.7029 21.5883L21.4029 21.9883L20.4719 19.2513C21.4498 18.7026 22.2125 17.8383 22.6354 16.7998C23.0583 15.7613 23.1163 14.61 22.7999 13.5343L20.9569 8.0593C20.725 7.31185 20.2122 6.68349 19.5264 6.30639C18.8406 5.92928 18.0353 5.83282 17.2799 6.0373L13.4279 7.1113C12.8755 7.265 12.3795 7.57553 11.9999 8.0053C11.6203 7.57553 11.1243 7.265 10.5719 7.1113L6.71891 6.0373C5.96898 5.83044 5.16807 5.92216 4.48433 6.29322C3.80058 6.66427 3.28718 7.28579 3.05191 8.0273L1.18491 13.5843C0.880932 14.6592 0.949015 15.8053 1.37812 16.8367C1.80722 17.8681 2.57218 18.7242 3.54891 19.2663L2.60491 21.9943L1.29991 21.5883C1.1745 21.5489 1.04256 21.5346 0.911615 21.5462C0.780672 21.5578 0.653296 21.5951 0.536759 21.6559C0.420221 21.7167 0.316804 21.7999 0.232414 21.9007C0.148023 22.0015 0.08431 22.1179 0.0449134 22.2433C0.00551686 22.3687 -0.00879213 22.5007 0.00280344 22.6316C0.014399 22.7625 0.051672 22.8899 0.112494 23.0065C0.173317 23.123 0.256497 23.2264 0.357287 23.3108C0.458076 23.3952 0.574501 23.4589 0.699914 23.4983L2.85991 24.1693C2.87491 24.1693 2.88391 24.1863 2.89891 24.1923C2.91391 24.1983 2.95091 24.1983 2.97691 24.2053L5.15791 24.8823C5.4112 24.9611 5.68539 24.936 5.92019 24.8126C6.15499 24.6892 6.33114 24.4776 6.40991 24.2243C6.48868 23.971 6.46361 23.6968 6.34021 23.462C6.21681 23.2272 6.0052 23.0511 5.75191 22.9723L4.51591 22.5873L5.45091 19.8873C5.63635 19.9111 5.82298 19.9245 6.00991 19.9273C7.09108 19.9246 8.14226 19.5716 9.00585 18.9211C9.86944 18.2706 10.4989 17.3577 10.7999 16.3193L11.9999 12.7633L13.1829 16.2633C13.4745 17.3149 14.1022 18.2423 14.9701 18.9039C15.838 19.5654 16.8986 19.9249 17.9899 19.9273C18.1842 19.9255 18.3782 19.9121 18.5709 19.8873L19.4889 22.5873L18.2449 22.9733C17.9916 23.0521 17.78 23.2282 17.6566 23.463C17.5332 23.6978 17.5081 23.972 17.5869 24.2253C17.6657 24.4786 17.8418 24.6902 18.0766 24.8136C18.3114 24.937 18.5856 24.9621 18.8389 24.8833L21.0139 24.2083C21.0399 24.2013 21.0669 24.2083 21.0929 24.1953C21.1189 24.1823 21.1189 24.1763 21.1349 24.1703L23.2969 23.4993C23.4225 23.4603 23.5391 23.397 23.6401 23.3129C23.7411 23.2288 23.8246 23.1256 23.8857 23.0092C23.9468 22.8928 23.9844 22.7656 23.9963 22.6347C24.0081 22.5037 23.9941 22.3718 23.9549 22.2463ZM13.3569 9.5193C13.4205 9.40212 13.5072 9.29902 13.6117 9.21619C13.7162 9.13336 13.8363 9.07251 13.9649 9.0373L17.8159 7.9643C17.9019 7.94024 17.9907 7.9278 18.0799 7.9273C18.2998 7.92962 18.5132 8.00277 18.6883 8.13588C18.8633 8.269 18.9909 8.455 19.0519 8.6663L19.8129 10.9273H13.4899L13.2749 10.2903C13.2366 10.1628 13.2241 10.0289 13.2382 9.89653C13.2522 9.76414 13.2926 9.63588 13.3569 9.5193ZM5.91791 7.9273C6.00746 7.92747 6.09657 7.93957 6.18291 7.9633L10.0349 9.0373C10.2894 9.10749 10.5058 9.27545 10.6369 9.50456C10.7681 9.73366 10.8033 10.0053 10.7349 10.2603L10.5099 10.9273H4.18691L4.95691 8.6373C5.02046 8.43195 5.14799 8.2523 5.32088 8.12457C5.49377 7.99683 5.70296 7.92772 5.91791 7.9273ZM8.89191 15.7273C8.73219 16.2981 8.40695 16.8088 7.95724 17.1949C7.50754 17.5811 6.95353 17.8254 6.36513 17.8969C5.77673 17.9685 5.18032 17.8642 4.65116 17.5971C4.122 17.33 3.68382 16.9122 3.39191 16.3963C3.00543 15.7224 2.9005 14.9232 3.09991 14.1723L3.51391 12.9273H9.83591L8.89191 15.7273ZM16.5239 17.5353C16.1735 17.3365 15.8664 17.0696 15.6207 16.7503C15.3749 16.4311 15.1955 16.0659 15.0929 15.6763L14.1639 12.9273H20.4869L20.8869 14.1213C21.0465 14.6931 21.0329 15.2995 20.8477 15.8635C20.6625 16.4276 20.3141 16.924 19.8466 17.29C19.3792 17.6559 18.8136 17.875 18.2216 17.9194C17.6296 17.9637 17.0377 17.8315 16.5209 17.5393L16.5239 17.5353Z" fill="#374957"/>
<path d="M15.553 4.82736C15.6711 4.88672 15.7998 4.92209 15.9316 4.93143C16.0634 4.94077 16.1958 4.92389 16.321 4.88177C16.4463 4.83965 16.5619 4.77311 16.6613 4.68602C16.7607 4.59893 16.8419 4.493 16.9001 4.37436L17.9001 2.37436C18.0186 2.13699 18.038 1.86225 17.954 1.61057C17.87 1.3589 17.6894 1.15091 17.4521 1.03236C17.2147 0.913807 16.9399 0.894405 16.6883 0.978421C16.4366 1.06244 16.2286 1.24299 16.1101 1.48036L15.11 3.48036C15.0503 3.59782 15.0144 3.72593 15.0044 3.85731C14.9943 3.9887 15.0104 4.12078 15.0515 4.24595C15.0927 4.37113 15.1582 4.48693 15.2443 4.58671C15.3303 4.68649 15.4353 4.76827 15.553 4.82736Z" fill="#374957"/>
<path d="M7.10506 4.37436C7.22361 4.61239 7.43186 4.79358 7.684 4.87806C7.80885 4.9199 7.94072 4.93673 8.07207 4.9276C8.20343 4.91847 8.3317 4.88356 8.44956 4.82486C8.56742 4.76616 8.67256 4.68482 8.75899 4.58548C8.84541 4.48614 8.91143 4.37076 8.95326 4.24591C8.99509 4.12106 9.01193 3.9892 9.0028 3.85784C8.99367 3.72649 8.95876 3.59822 8.90006 3.48036L7.90006 1.48036C7.84136 1.36283 7.76008 1.25801 7.66087 1.17188C7.56166 1.08576 7.44646 1.02002 7.32184 0.978421C7.07017 0.894405 6.79543 0.913807 6.55806 1.03236C6.32069 1.15091 6.14014 1.3589 6.05612 1.61057C5.9721 1.86225 5.9915 2.13699 6.11006 2.37436L7.10506 4.37436Z" fill="#374957"/>
<path d="M12.0001 4.92749C12.2653 4.92749 12.5197 4.82213 12.7072 4.6346C12.8948 4.44706 13.0001 4.19271 13.0001 3.92749V1.92749C13.0001 1.66227 12.8948 1.40792 12.7072 1.22038C12.5197 1.03285 12.2653 0.92749 12.0001 0.92749C11.7349 0.92749 11.4806 1.03285 11.293 1.22038C11.1055 1.40792 11.0001 1.66227 11.0001 1.92749V3.92749C11.0001 4.19271 11.1055 4.44706 11.293 4.6346C11.4806 4.82213 11.7349 4.92749 12.0001 4.92749Z" fill="#374957"/>
</g>
<defs>
<clipPath id="clip0_507_2071">
<rect width="24" height="24" fill="white" transform="translate(0 0.92749)"/>
</clipPath>
</defs>
</svg>
