<svg width="24" height="25" viewBox="0 0 24 25" fill="none" xmlns="http://www.w3.org/2000/svg">
<g clip-path="url(#clip0_507_2135)">
<path d="M8.17393 23.3811C10.2779 25.4393 13.6382 25.4477 15.7524 23.4001L19.7368 19.7181C24.053 15.4594 24.0995 8.50808 19.8408 4.19187C15.5821 -0.12433 8.63077 -0.170924 4.31457 4.08781C4.27965 4.12226 4.24496 4.15695 4.21051 4.19187C-0.0766824 8.47976 -0.0761199 15.4313 4.21177 19.7185C4.22068 19.7274 4.22954 19.7362 4.23849 19.745L8.17393 23.3811ZM5.62182 5.60314C9.12211 2.08714 14.81 2.07439 18.326 5.57469C21.842 9.07498 21.8547 14.7628 18.3544 18.2788L14.377 21.9538C13.0188 23.232 10.8979 23.2242 9.54929 21.9358L5.62182 18.3068C2.11379 14.7988 2.11379 9.11122 5.62172 5.60319C5.62177 5.60319 5.62177 5.60319 5.62182 5.60314ZM6.98321 11.955C6.98321 11.4037 7.43007 10.9569 7.98132 10.9569H15.966C16.5173 10.9569 16.9641 11.4037 16.9641 11.955C16.9641 12.5062 16.5173 12.9531 15.966 12.9531H7.98132C7.43007 12.953 6.98321 12.5062 6.98321 11.955Z" fill="#374957"/>
</g>
<defs>
<clipPath id="clip0_507_2135">
<rect width="24" height="24" fill="white" transform="translate(0 0.92749)"/>
</clipPath>
</defs>
</svg>
