<svg width="24" height="25" viewBox="0 0 24 25" fill="none" xmlns="http://www.w3.org/2000/svg">
<g clip-path="url(#clip0_507_2015)">
<path d="M9.87823 19.0495C10.1568 19.3283 10.4876 19.5494 10.8517 19.7003C11.2158 19.8512 11.6061 19.9289 12.0002 19.9289C12.3944 19.9289 12.7846 19.8512 13.1487 19.7003C13.5128 19.5494 13.8436 19.3283 14.1222 19.0495L17.3332 15.8385C17.5054 15.6481 17.5977 15.3988 17.5911 15.1421C17.5846 14.8855 17.4795 14.6413 17.2978 14.46C17.1161 14.2786 16.8716 14.1741 16.615 14.1681C16.3584 14.1621 16.1093 14.2549 15.9192 14.4275L12.9932 17.3545L13.0002 1.92749C13.0002 1.66227 12.8949 1.40792 12.7073 1.22038C12.5198 1.03285 12.2654 0.92749 12.0002 0.92749V0.92749C11.735 0.92749 11.4807 1.03285 11.2931 1.22038C11.1056 1.40792 11.0002 1.66227 11.0002 1.92749L10.9912 17.3355L8.08123 14.4275C7.89359 14.24 7.63914 14.1347 7.37387 14.1348C7.1086 14.1349 6.85423 14.2404 6.66673 14.428C6.47922 14.6156 6.37393 14.8701 6.37402 15.1353C6.37412 15.4006 6.47959 15.655 6.66723 15.8425L9.87823 19.0495Z" fill="#374957"/>
<path d="M23 16.9273C22.7348 16.9273 22.4804 17.0327 22.2929 17.2202C22.1054 17.4078 22 17.6621 22 17.9273V21.9273C22 22.1925 21.8946 22.4469 21.7071 22.6344C21.5196 22.822 21.2652 22.9273 21 22.9273H3C2.73478 22.9273 2.48043 22.822 2.29289 22.6344C2.10536 22.4469 2 22.1925 2 21.9273V17.9273C2 17.6621 1.89464 17.4078 1.70711 17.2202C1.51957 17.0327 1.26522 16.9273 1 16.9273C0.734784 16.9273 0.48043 17.0327 0.292893 17.2202C0.105357 17.4078 0 17.6621 0 17.9273L0 21.9273C0 22.723 0.31607 23.486 0.87868 24.0486C1.44129 24.6113 2.20435 24.9273 3 24.9273H21C21.7956 24.9273 22.5587 24.6113 23.1213 24.0486C23.6839 23.486 24 22.723 24 21.9273V17.9273C24 17.6621 23.8946 17.4078 23.7071 17.2202C23.5196 17.0327 23.2652 16.9273 23 16.9273Z" fill="#374957"/>
</g>
<defs>
<clipPath id="clip0_507_2015">
<rect width="24" height="24" fill="white" transform="translate(0 0.92749)"/>
</clipPath>
</defs>
</svg>
