<svg width="24" height="25" viewBox="0 0 24 25" fill="none" xmlns="http://www.w3.org/2000/svg">
<g clip-path="url(#clip0_507_2053)">
<path d="M10.2068 0.995867H10.1998C9.97578 0.945257 9.74117 0.973297 9.53539 1.07528C9.32961 1.17726 9.1652 1.34696 9.0698 1.55587L0.374795 20.6869C0.167174 21.1438 0.0775149 21.6456 0.11403 22.1461C0.150545 22.6467 0.312066 23.1301 0.583801 23.5521C0.855537 23.9741 1.2288 24.3211 1.66941 24.5615C2.11002 24.8018 2.60389 24.9278 3.10579 24.9279H9.9998C10.265 24.9279 10.5194 24.8225 10.7069 24.635C10.8944 24.4474 10.9998 24.1931 10.9998 23.9279V1.97387C10.9979 1.74514 10.9184 1.52384 10.7743 1.34618C10.6303 1.16851 10.4302 1.045 10.2068 0.995867ZM8.9998 22.9279H3.10579C2.93839 22.928 2.77364 22.8861 2.62664 22.806C2.47964 22.7259 2.3551 22.6102 2.26443 22.4695C2.17377 22.3287 2.11988 22.1675 2.10772 22.0006C2.09555 21.8336 2.12549 21.6663 2.19479 21.5139L8.9998 6.54387V22.9279Z" fill="#374957"/>
<path d="M23.6249 20.6864L14.9299 1.55536C14.8299 1.34525 14.6613 1.17554 14.4518 1.07426C14.2424 0.972981 14.0046 0.946206 13.7779 0.998359C13.5569 1.04867 13.3596 1.17255 13.2182 1.34969C13.0769 1.52683 12.9999 1.74673 12.9999 1.97336V23.9274C12.9999 24.1926 13.1052 24.4469 13.2928 24.6345C13.4803 24.822 13.7347 24.9274 13.9999 24.9274H20.8939C21.3958 24.9273 21.8896 24.8013 22.3303 24.561C22.7709 24.3206 23.1441 23.9736 23.4159 23.5516C23.6876 23.1296 23.8491 22.6462 23.8856 22.1456C23.9221 21.645 23.8325 21.1433 23.6249 20.6864Z" fill="#374957"/>
</g>
<defs>
<clipPath id="clip0_507_2053">
<rect width="24" height="24" fill="white" transform="translate(0 0.92749)"/>
</clipPath>
</defs>
</svg>
