<svg width="24" height="25" viewBox="0 0 24 25" fill="none" xmlns="http://www.w3.org/2000/svg">
<g clip-path="url(#clip0_507_1985)">
<path d="M12 0.92749C9.62663 0.92749 7.30655 1.63128 5.33316 2.94986C3.35977 4.26843 1.8217 6.14258 0.913451 8.33529C0.00519943 10.528 -0.232441 12.9408 0.230582 15.2686C0.693605 17.5963 1.83649 19.7345 3.51472 21.4128C5.19295 23.091 7.33115 24.2339 9.65892 24.6969C11.9867 25.1599 14.3995 24.9223 16.5922 24.014C18.7849 23.1058 20.6591 21.5677 21.9776 19.5943C23.2962 17.6209 24 15.3009 24 12.9275C23.9966 9.74595 22.7312 6.6957 20.4815 4.44601C18.2318 2.19632 15.1815 0.930931 12 0.92749V0.92749ZM12 22.9275C10.0222 22.9275 8.08879 22.341 6.4443 21.2422C4.79981 20.1434 3.51809 18.5816 2.76121 16.7543C2.00433 14.9271 1.8063 12.9164 2.19215 10.9766C2.578 9.03678 3.53041 7.25495 4.92894 5.85642C6.32746 4.4579 8.10929 3.50549 10.0491 3.11964C11.9889 2.73379 13.9996 2.93182 15.8268 3.6887C17.6541 4.44557 19.2159 5.7273 20.3147 7.37179C21.4135 9.01628 22 10.9497 22 12.9275C21.9971 15.5788 20.9426 18.1206 19.0679 19.9953C17.1931 21.8701 14.6513 22.9246 12 22.9275Z" fill="#374957"/>
<path d="M15.5362 9.39159C15.7248 9.57374 15.9774 9.67454 16.2396 9.67226C16.5018 9.66998 16.7526 9.56481 16.938 9.3794C17.1235 9.194 17.2286 8.94318 17.2309 8.68099C17.2332 8.41879 17.1324 8.16619 16.9502 7.97759C15.9712 6.99869 14.7239 6.33207 13.3661 6.06204C12.0083 5.792 10.6008 5.93066 9.32178 6.4605C8.04274 6.99033 6.94953 7.88754 6.1804 9.03867C5.41126 10.1898 5.00073 11.5431 5.00073 12.9276C5.00073 14.312 5.41126 15.6654 6.1804 16.8165C6.94953 17.9676 8.04274 18.8648 9.32178 19.3947C10.6008 19.9245 12.0083 20.0632 13.3661 19.7931C14.7239 19.5231 15.9712 18.8565 16.9502 17.8776C17.1324 17.689 17.2332 17.4364 17.2309 17.1742C17.2286 16.912 17.1235 16.6612 16.938 16.4758C16.7526 16.2904 16.5018 16.1852 16.2396 16.1829C15.9774 16.1806 15.7248 16.2814 15.5362 16.4636C14.8369 17.1627 13.946 17.6388 12.9761 17.8316C12.0063 18.0244 11.001 17.9253 10.0874 17.5469C9.17388 17.1684 8.39307 16.5275 7.84372 15.7053C7.29437 14.8831 7.00116 13.9164 7.00116 12.9276C7.00116 11.9387 7.29437 10.9721 7.84372 10.1499C8.39307 9.32765 9.17388 8.68679 10.0874 8.30831C11.001 7.92984 12.0063 7.83074 12.9761 8.02356C13.946 8.21638 14.8369 8.69245 15.5362 9.39159Z" fill="#374957"/>
</g>
<defs>
<clipPath id="clip0_507_1985">
<rect width="24" height="24" fill="white" transform="translate(0 0.92749)"/>
</clipPath>
</defs>
</svg>
