<svg width="24" height="25" viewBox="0 0 24 25" fill="none" xmlns="http://www.w3.org/2000/svg">
<g clip-path="url(#clip0_507_2104)">
<path d="M23.7072 23.22L22.6302 22.143L20.9002 20.416L23.6892 17.627C23.8079 17.5081 23.8948 17.3612 23.9417 17.1999C23.9887 17.0386 23.9942 16.868 23.9579 16.704C23.9215 16.54 23.8444 16.3877 23.7336 16.2614C23.6229 16.135 23.4821 16.0386 23.3242 15.981L14.3552 12.727C13.998 12.5979 13.6113 12.5732 13.2405 12.6558C12.8697 12.7384 12.5301 12.9249 12.2615 13.1935C11.9928 13.462 11.8062 13.8015 11.7234 14.1723C11.6407 14.5431 11.6652 14.9297 11.7942 15.287L15.0572 24.256C15.1145 24.414 15.2107 24.555 15.3369 24.666C15.4631 24.777 15.6152 24.8544 15.7792 24.891C15.8505 24.9065 15.9233 24.9142 15.9962 24.914C16.2614 24.914 16.5157 24.8086 16.7032 24.621L19.4892 21.827L21.2162 23.554L22.2932 24.631C22.4818 24.8132 22.7344 24.914 22.9966 24.9117C23.2588 24.9094 23.5096 24.8043 23.6951 24.6188C23.8805 24.4334 23.9856 24.1826 23.9879 23.9204C23.9902 23.6582 23.8894 23.4056 23.7072 23.217V23.22ZM16.4002 22.092L13.6762 14.602L21.1662 17.326L16.4002 22.092Z" fill="#374957"/>
<path d="M10 20.9275C8.02219 20.9275 6.08879 20.341 4.4443 19.2422C2.79981 18.1434 1.51809 16.5816 0.761209 14.7543C0.00433284 12.9271 -0.193701 10.9164 0.192152 8.97658C0.578004 7.03677 1.53041 5.25494 2.92894 3.85642C4.32746 2.45789 6.10929 1.50549 8.0491 1.11963C9.98891 0.733782 11.9996 0.931815 13.8268 1.68869C15.6541 2.44557 17.2159 3.72729 18.3147 5.37178C19.4135 7.01628 20 8.94967 20 10.9275C20 11.1927 19.8946 11.4471 19.7071 11.6346C19.5196 11.8221 19.2652 11.9275 19 11.9275C18.7348 11.9275 18.4804 11.8221 18.2929 11.6346C18.1054 11.4471 18 11.1927 18 10.9275C18 9.34524 17.5308 7.79852 16.6518 6.48292C15.7727 5.16733 14.5233 4.14195 13.0615 3.53645C11.5997 2.93095 9.99113 2.77252 8.43928 3.0812C6.88743 3.38989 5.46197 4.15181 4.34315 5.27063C3.22433 6.38945 2.4624 7.81492 2.15372 9.36677C1.84504 10.9186 2.00347 12.5271 2.60897 13.989C3.21447 15.4508 4.23985 16.7002 5.55544 17.5792C6.87104 18.4583 8.41775 18.9275 10 18.9275C10.2652 18.9275 10.5196 19.0328 10.7071 19.2204C10.8946 19.4079 11 19.6623 11 19.9275C11 20.1927 10.8946 20.4471 10.7071 20.6346C10.5196 20.8221 10.2652 20.9275 10 20.9275Z" fill="#374957"/>
<path d="M8.08391 16.5477C7.95249 16.5477 7.82234 16.5219 7.70091 16.4717C6.78977 16.0932 5.986 15.496 5.3608 14.7327C4.73559 13.9695 4.30825 13.0639 4.1166 12.0961C3.92496 11.1283 3.97493 10.1281 4.2621 9.18422C4.54926 8.24033 5.06476 7.38182 5.76293 6.68472C6.4611 5.98761 7.3204 5.47343 8.26473 5.18771C9.20906 4.90199 10.2093 4.85355 11.1768 5.04668C12.1443 5.2398 13.0493 5.66853 13.8116 6.2949C14.5738 6.92127 15.1699 7.72595 15.5469 8.63767C15.5998 8.75948 15.6278 8.8906 15.6295 9.02337C15.6311 9.15614 15.6063 9.2879 15.5564 9.41098C15.5066 9.53405 15.4328 9.64597 15.3392 9.7402C15.2457 9.83443 15.1343 9.90909 15.0116 9.95982C14.8889 10.0105 14.7573 10.0363 14.6245 10.0357C14.4917 10.035 14.3604 10.0079 14.2382 9.95595C14.116 9.90399 14.0054 9.82822 13.9128 9.73306C13.8202 9.63789 13.7475 9.52524 13.6989 9.40167C13.447 8.79441 13.0492 8.25861 12.5409 7.84168C12.0326 7.42475 11.4293 7.13955 10.7845 7.01131C10.1396 6.88308 9.47314 6.91576 8.84395 7.10647C8.21477 7.29718 7.64229 7.64004 7.17718 8.10471C6.71207 8.56937 6.36866 9.14152 6.17735 9.77052C5.98604 10.3995 5.95272 11.066 6.08034 11.7109C6.20796 12.3559 6.49258 12.9594 6.90902 13.4682C7.32547 13.9769 7.86089 14.3751 8.46791 14.6277C8.68184 14.7162 8.85842 14.8762 8.96752 15.0804C9.07663 15.2846 9.1115 15.5203 9.06618 15.7474C9.02087 15.9744 8.89818 16.1787 8.71904 16.3254C8.53991 16.4721 8.31543 16.552 8.08391 16.5517V16.5477Z" fill="#374957"/>
</g>
<defs>
<clipPath id="clip0_507_2104">
<rect width="24" height="24" fill="white" transform="translate(0 0.92749)"/>
</clipPath>
</defs>
</svg>
