<svg width="24" height="25" viewBox="0 0 24 25" fill="none" xmlns="http://www.w3.org/2000/svg">
<g clip-path="url(#clip0_507_2244)">
<path d="M23 20.9275C22.7348 20.9275 22.4804 21.0328 22.2929 21.2204C22.1054 21.4079 22 21.6623 22 21.9275C22 22.2715 21.318 22.9275 20.25 22.9275C19.95 22.938 19.6514 22.8817 19.3759 22.7625C19.1003 22.6433 18.8548 22.4643 18.657 22.2385C18.6961 22.1747 18.7388 22.1133 18.785 22.0545C20.4158 20.3442 21.5126 18.1955 21.941 15.8715C22.0678 15.1723 21.9423 14.4508 21.5869 13.8354C21.2314 13.2201 20.6691 12.7509 20 12.5115V9.92749C20 8.86662 19.5786 7.84921 18.8284 7.09906C18.0783 6.34892 17.0609 5.92749 16 5.92749V4.92749C16 3.86662 15.5786 2.84921 14.8284 2.09906C14.0783 1.34892 13.0609 0.92749 12 0.92749C10.9391 0.92749 9.92172 1.34892 9.17157 2.09906C8.42143 2.84921 8 3.86662 8 4.92749V5.92749C6.93913 5.92749 5.92172 6.34892 5.17157 7.09906C4.42143 7.84921 4 8.86662 4 9.92749V12.4985C3.32259 12.7325 2.75133 13.2012 2.38962 13.8199C2.0279 14.4386 1.89962 15.1664 2.028 15.8715C2.46716 18.1983 3.5746 20.3468 5.215 22.0545C5.26299 22.1148 5.3074 22.1779 5.348 22.2435C5.15004 22.4701 4.90361 22.6493 4.62698 22.7677C4.35035 22.8861 4.05062 22.9407 3.75 22.9275C2.661 22.9275 2 22.2335 2 21.9275C2 21.6623 1.89464 21.4079 1.70711 21.2204C1.51957 21.0328 1.26522 20.9275 1 20.9275C0.734784 20.9275 0.48043 21.0328 0.292893 21.2204C0.105357 21.4079 0 21.6623 0 21.9275C0 23.5535 1.718 24.9275 3.75 24.9275C4.76118 24.9366 5.7419 24.5817 6.513 23.9275C7.2821 24.5698 8.25158 24.923 9.25361 24.9259C10.2556 24.9288 11.2272 24.5813 12 23.9435C12.7756 24.5807 13.7491 24.9277 14.7529 24.9247C15.7567 24.9218 16.7281 24.5692 17.5 23.9275C18.2665 24.5782 19.2406 24.9329 20.246 24.9275C22.282 24.9275 24 23.5535 24 21.9275C24 21.6623 23.8946 21.4079 23.7071 21.2204C23.5196 21.0328 23.2652 20.9275 23 20.9275ZM10 4.92749C10 4.39706 10.2107 3.88835 10.5858 3.51328C10.9609 3.1382 11.4696 2.92749 12 2.92749C12.5304 2.92749 13.0391 3.1382 13.4142 3.51328C13.7893 3.88835 14 4.39706 14 4.92749V5.92749H10V4.92749ZM8 7.92749H16C16.5304 7.92749 17.0391 8.1382 17.4142 8.51328C17.7893 8.88835 18 9.39706 18 9.92749V11.8475L12.948 10.1895C12.3339 9.98748 11.6711 9.98748 11.057 10.1895L6 11.8405V9.92749C6 9.39706 6.21071 8.88835 6.58579 8.51328C6.96086 8.1382 7.46957 7.92749 8 7.92749ZM9.25 22.9275C8.91577 22.9458 8.58249 22.8772 8.28264 22.7284C7.98279 22.5796 7.72659 22.3557 7.539 22.0785C7.3307 21.5792 7.04447 21.1161 6.691 20.7065C5.31241 19.2792 4.37761 17.4826 4 15.5345C3.95383 15.2949 3.99527 15.0466 4.11678 14.835C4.23829 14.6234 4.43178 14.4624 4.662 14.3815L11 12.3105V21.9275C11 22.2715 10.318 22.9275 9.25 22.9275ZM14.75 22.9275C13.661 22.9275 13 22.2335 13 21.9275V12.3115L19.305 14.3805C19.536 14.4612 19.7303 14.6223 19.8526 14.8343C19.9748 15.0463 20.0168 15.2951 19.971 15.5355C19.6043 17.481 18.6794 19.2777 17.309 20.7065C16.9533 21.1166 16.6668 21.5821 16.461 22.0845C16.2733 22.3613 16.0169 22.5845 15.717 22.7323C15.417 22.8801 15.0838 22.9473 14.75 22.9275Z" fill="#374957"/>
</g>
<defs>
<clipPath id="clip0_507_2244">
<rect width="24" height="24" fill="white" transform="translate(0 0.92749)"/>
</clipPath>
</defs>
</svg>
