<svg width="24" height="25" viewBox="0 0 24 25" fill="none" xmlns="http://www.w3.org/2000/svg">
<g clip-path="url(#clip0_507_2014)">
<path d="M13.9321 4.92749C14.7456 4.92828 15.5255 5.25177 16.1006 5.82696C16.6758 6.40215 16.9993 7.18205 17.0001 7.99549C17.0001 8.26071 17.1055 8.51506 17.293 8.7026C17.4806 8.89013 17.7349 8.99549 18.0001 8.99549C18.2653 8.99549 18.5197 8.89013 18.7072 8.7026C18.8948 8.51506 19.0001 8.26071 19.0001 7.99549V7.92749C19.0001 7.90849 19.0001 7.89149 19.0001 7.87249C18.9667 6.55022 18.4183 5.29327 17.4716 4.36955C16.5249 3.44582 15.2548 2.92837 13.9321 2.92749H13.0001V1.92749C13.0001 1.66227 12.8948 1.40792 12.7072 1.22038C12.5197 1.03285 12.2653 0.92749 12.0001 0.92749C11.7349 0.92749 11.4806 1.03285 11.293 1.22038C11.1055 1.40792 11.0001 1.66227 11.0001 1.92749V2.92749H10.0681C8.86544 2.92877 7.70241 3.35772 6.78692 4.13767C5.87142 4.91761 5.26313 5.99771 5.07078 7.18491C4.87842 8.37211 5.11453 9.58903 5.73691 10.6181C6.3593 11.6473 7.32738 12.4215 8.46812 12.8025L11.0001 13.6475V20.9275H10.0681C9.25468 20.9267 8.47479 20.6032 7.8996 20.028C7.32441 19.4528 7.00092 18.6729 7.00012 17.8595C7.00012 17.5943 6.89477 17.3399 6.70723 17.1524C6.51969 16.9648 6.26534 16.8595 6.00012 16.8595C5.73491 16.8595 5.48055 16.9648 5.29302 17.1524C5.10548 17.3399 5.00012 17.5943 5.00012 17.8595V17.9275C5.00012 17.9465 5.00012 17.9635 5.00012 17.9825C5.0335 19.3048 5.58198 20.5617 6.52869 21.4854C7.47539 22.4092 8.74543 22.9266 10.0681 22.9275H11.0001V23.9275C11.0001 24.1927 11.1055 24.4471 11.293 24.6346C11.4806 24.8221 11.7349 24.9275 12.0001 24.9275C12.2653 24.9275 12.5197 24.8221 12.7072 24.6346C12.8948 24.4471 13.0001 24.1927 13.0001 23.9275V22.9275H13.9321C15.1348 22.9262 16.2978 22.4973 17.2133 21.7173C18.1288 20.9374 18.7371 19.8573 18.9295 18.6701C19.1218 17.4829 18.8857 16.266 18.2633 15.2368C17.6409 14.2077 16.6729 13.4335 15.5321 13.0525L13.0001 12.2075V4.92749H13.9321ZM14.9021 14.9485C15.5935 15.1786 16.1805 15.6473 16.5578 16.2707C16.9352 16.8941 17.0784 17.6315 16.9617 18.3508C16.845 19.0701 16.476 19.7244 15.9209 20.1965C15.3659 20.6686 14.6608 20.9278 13.9321 20.9275H13.0001V14.3145L14.9021 14.9485ZM11.0001 11.5405L9.10012 10.9065C8.40886 10.6764 7.82203 10.2079 7.44466 9.58467C7.06728 8.96149 6.92399 8.22434 7.04042 7.50517C7.15686 6.78599 7.52542 6.13171 8.08015 5.65943C8.63489 5.18715 9.33958 4.9277 10.0681 4.92749H11.0001V11.5405Z" fill="#374957"/>
</g>
<defs>
<clipPath id="clip0_507_2014">
<rect width="24" height="24" fill="white" transform="translate(0 0.92749)"/>
</clipPath>
</defs>
</svg>
