<svg width="24" height="25" viewBox="0 0 24 25" fill="none" xmlns="http://www.w3.org/2000/svg">
<g clip-path="url(#clip0_507_2282)">
<path d="M-7.57165e-07 12.9275C-7.57165e-07 12.6623 0.105356 12.4079 0.292892 12.2204C0.480429 12.0328 0.734783 11.9275 0.999999 11.9275H5.079C5.15805 11.3785 5.3038 10.8412 5.513 10.3275L1.982 8.27649C1.86412 8.21306 1.76018 8.1266 1.67634 8.02225C1.5925 7.9179 1.53046 7.79778 1.4939 7.66901C1.45734 7.54024 1.44701 7.40544 1.46351 7.2726C1.48002 7.13976 1.52303 7.01158 1.58999 6.89567C1.65695 6.77977 1.7465 6.67848 1.85333 6.59782C1.96016 6.51716 2.0821 6.45878 2.21192 6.42612C2.34173 6.39346 2.47678 6.3872 2.60906 6.4077C2.74134 6.42821 2.86816 6.47506 2.982 6.54549L6.517 8.59349C6.85551 8.16897 7.24171 7.78478 7.668 7.44849L5.618 3.91149C5.49479 3.68254 5.4656 3.41461 5.5366 3.1645C5.60761 2.91439 5.77323 2.70177 5.99836 2.57171C6.22349 2.44166 6.49042 2.40439 6.74255 2.46782C6.99469 2.53125 7.21221 2.69039 7.349 2.91149L9.4 6.44049C9.91399 6.23239 10.4512 6.08701 11 6.00749V1.92749C11 1.66227 11.1054 1.40792 11.2929 1.22038C11.4804 1.03285 11.7348 0.92749 12 0.92749C12.2652 0.92749 12.5196 1.03285 12.7071 1.22038C12.8946 1.40792 13 1.66227 13 1.92749V6.00749C13.5488 6.08701 14.086 6.23239 14.6 6.44049L16.647 2.90849C16.7838 2.68739 17.0013 2.52825 17.2534 2.46482C17.5056 2.40139 17.7725 2.43866 17.9976 2.56871C18.2228 2.69877 18.3884 2.91139 18.4594 3.1615C18.5304 3.41161 18.5012 3.67954 18.378 3.90849L16.328 7.44449C16.7541 7.78094 17.1406 8.16474 17.48 8.58849L21.011 6.54149C21.2399 6.41828 21.5079 6.38909 21.758 6.46009C22.0081 6.5311 22.2207 6.69672 22.3508 6.92185C22.4808 7.14698 22.5181 7.41391 22.4547 7.66604C22.3912 7.91818 22.2321 8.1357 22.011 8.27249L18.49 10.3215C18.7015 10.8398 18.8496 11.3817 18.931 11.9355L23 11.9275C23.2652 11.9275 23.5196 12.0328 23.7071 12.2204C23.8946 12.4079 24 12.6623 24 12.9275C24 13.1927 23.8946 13.4471 23.7071 13.6346C23.5196 13.8221 23.2652 13.9275 23 13.9275H18.922C18.4428 13.9258 17.9802 13.7522 17.6183 13.4381C17.2564 13.1241 17.0192 12.6906 16.95 12.2165C16.767 11.0349 16.1675 9.95782 15.2596 9.17976C14.3518 8.4017 13.1956 7.97403 12 7.97403C10.8044 7.97403 9.64818 8.4017 8.74036 9.17976C7.83254 9.95782 7.23297 11.0349 7.05 12.2165C6.98079 12.6904 6.74378 13.1238 6.38207 13.4378C6.02036 13.7518 5.55798 13.9256 5.079 13.9275H0.999999C0.734783 13.9275 0.480429 13.8221 0.292892 13.6346C0.105356 13.4471 -7.57165e-07 13.1927 -7.57165e-07 12.9275ZM23.744 17.4925C23.5668 17.2952 23.3185 17.1764 23.0537 17.1621C22.7889 17.1479 22.5293 17.2394 22.332 17.4165C22.0685 17.6272 21.7604 17.7749 21.4311 17.8483C21.1018 17.9217 20.7601 17.9188 20.4321 17.84C20.104 17.7612 19.7984 17.6085 19.5384 17.3935C19.2784 17.1785 19.071 16.9069 18.932 16.5995C18.8853 16.4583 18.8069 16.3295 18.703 16.2231C18.599 16.1167 18.4721 16.0355 18.332 15.9855C18.0822 15.8974 17.8076 15.9121 17.5685 16.0263C17.3295 16.1404 17.1455 16.3448 17.057 16.5945C16.8716 16.9847 16.5794 17.3145 16.2143 17.5455C15.8492 17.7766 15.4261 17.8995 14.9941 17.9C14.562 17.9005 14.1386 17.7787 13.773 17.5485C13.4073 17.3183 13.1144 16.9893 12.928 16.5995C12.8811 16.4582 12.8028 16.3294 12.6988 16.2229C12.5949 16.1163 12.4681 16.0348 12.328 15.9845C12.2042 15.9408 12.0729 15.9218 11.9418 15.9288C11.8106 15.9358 11.6821 15.9686 11.5637 16.0252C11.4452 16.0818 11.339 16.1613 11.2512 16.259C11.1634 16.3566 11.0957 16.4706 11.052 16.5945C10.8665 16.9845 10.5743 17.3139 10.2093 17.5448C9.84433 17.7757 9.42144 17.8984 8.98958 17.899C8.55771 17.8995 8.13452 17.7777 7.76898 17.5478C7.40344 17.3178 7.11048 16.989 6.924 16.5995C6.87714 16.4582 6.79877 16.3294 6.69483 16.2229C6.59088 16.1163 6.46408 16.0348 6.324 15.9845C6.20016 15.9408 6.06892 15.9218 5.93778 15.9288C5.80663 15.9358 5.67814 15.9686 5.55965 16.0252C5.44116 16.0818 5.33499 16.1613 5.2472 16.259C5.15941 16.3566 5.09172 16.4706 5.048 16.5945C4.91126 16.9025 4.7056 17.1749 4.44689 17.3908C4.18818 17.6067 3.88332 17.7603 3.55585 17.8398C3.22838 17.9192 2.88703 17.9223 2.55815 17.8489C2.22927 17.7756 1.92164 17.6276 1.659 17.4165C1.45865 17.263 1.20767 17.1909 0.956405 17.2147C0.705139 17.2386 0.472175 17.3565 0.304251 17.5449C0.136327 17.7334 0.0458634 17.9783 0.0510099 18.2307C0.0561564 18.483 0.156532 18.7241 0.331999 18.9055C1.12986 19.5905 2.15689 19.9491 3.20774 19.9096C4.25858 19.8701 5.2558 19.4355 6 18.6925C6.80446 19.4713 7.88029 19.9068 9 19.9068C10.1197 19.9068 11.1955 19.4713 12 18.6925C12.8043 19.4716 13.8802 19.9072 15 19.9072C16.1198 19.9072 17.1957 19.4716 18 18.6925C18.7441 19.4356 19.7412 19.8705 20.7921 19.9101C21.8429 19.9498 22.87 19.5914 23.668 18.9065C23.766 18.8187 23.8457 18.7125 23.9026 18.5939C23.9594 18.4753 23.9923 18.3466 23.9994 18.2153C24.0064 18.0839 23.9875 17.9525 23.9437 17.8284C23.8999 17.7044 23.832 17.5902 23.744 17.4925ZM23.744 22.4925C23.5668 22.2952 23.3185 22.1764 23.0537 22.1621C22.7889 22.1479 22.5293 22.2394 22.332 22.4165C22.0685 22.6272 21.7604 22.7749 21.4311 22.8483C21.1018 22.9217 20.7601 22.9188 20.4321 22.84C20.104 22.7612 19.7984 22.6085 19.5384 22.3935C19.2784 22.1785 19.071 21.9069 18.932 21.5995C18.8853 21.4583 18.8069 21.3295 18.703 21.2231C18.599 21.1167 18.4721 21.0355 18.332 20.9855C18.0822 20.8974 17.8076 20.9121 17.5685 21.0263C17.3295 21.1404 17.1455 21.3448 17.057 21.5945C16.8711 21.9845 16.5785 22.3139 16.2132 22.5445C15.8478 22.7751 15.4246 22.8975 14.9925 22.8975C14.5604 22.8975 14.1372 22.7751 13.7718 22.5445C13.4065 22.3139 13.1139 21.9845 12.928 21.5945C12.8811 21.4532 12.8028 21.3244 12.6988 21.2179C12.5949 21.1113 12.4681 21.0298 12.328 20.9795C12.2042 20.9358 12.0729 20.9168 11.9418 20.9238C11.8106 20.9308 11.6821 20.9636 11.5637 21.0202C11.4452 21.0768 11.339 21.1563 11.2512 21.254C11.1634 21.3516 11.0957 21.4656 11.052 21.5895C10.866 21.9792 10.5734 22.3084 10.2082 22.5388C9.8429 22.7692 9.41986 22.8915 8.988 22.8915C8.55613 22.8915 8.1331 22.7692 7.76783 22.5388C7.40257 22.3084 7.11001 21.9792 6.924 21.5895C6.87714 21.4482 6.79877 21.3194 6.69483 21.2129C6.59088 21.1063 6.46408 21.0248 6.324 20.9745C6.20016 20.9308 6.06892 20.9118 5.93778 20.9188C5.80663 20.9258 5.67814 20.9586 5.55965 21.0152C5.44116 21.0718 5.33499 21.1513 5.2472 21.249C5.15941 21.3466 5.09172 21.4606 5.048 21.5845C4.91126 21.8925 4.7056 22.1649 4.44689 22.3808C4.18818 22.5967 3.88332 22.7503 3.55585 22.8298C3.22838 22.9092 2.88703 22.9123 2.55815 22.8389C2.22927 22.7656 1.92164 22.6176 1.659 22.4065C1.46022 22.2305 1.19968 22.1407 0.934688 22.1568C0.669699 22.173 0.42197 22.2937 0.245999 22.4925C0.0700281 22.6913 -0.0197708 22.9518 -0.00364264 23.2168C0.0124855 23.4818 0.133219 23.7295 0.331999 23.9055C1.12986 24.5905 2.15689 24.9491 3.20774 24.9096C4.25858 24.8701 5.2558 24.4355 6 23.6925C6.80446 24.4713 7.88029 24.9068 9 24.9068C10.1197 24.9068 11.1955 24.4713 12 23.6925C12.8043 24.4716 13.8802 24.9072 15 24.9072C16.1198 24.9072 17.1957 24.4716 18 23.6925C18.7441 24.4356 19.7412 24.8705 20.7921 24.9101C21.8429 24.9498 22.87 24.5914 23.668 23.9065C23.766 23.8187 23.8457 23.7125 23.9026 23.5939C23.9594 23.4753 23.9923 23.3466 23.9994 23.2153C24.0064 23.0839 23.9875 22.9525 23.9437 22.8284C23.8999 22.7044 23.832 22.5902 23.744 22.4925Z" fill="#374957"/>
</g>
<defs>
<clipPath id="clip0_507_2282">
<rect width="24" height="24" fill="white" transform="translate(0 0.92749)"/>
</clipPath>
</defs>
</svg>
