<svg width="24" height="25" viewBox="0 0 24 25" fill="none" xmlns="http://www.w3.org/2000/svg">
<g clip-path="url(#clip0_507_2001)">
<path d="M20.0002 0.927657H18.2432C17.7175 0.926267 17.1969 1.02914 16.7113 1.23031C16.2257 1.43148 15.7848 1.72696 15.4142 2.09966L12.1722 5.34166C11.424 6.09299 11.0028 7.10936 11.0002 8.16966V11.6327C7.73415 14.0477 3.41915 17.2657 2.87915 17.8067C2.44405 18.2447 2.15504 18.8065 2.05175 19.4152C1.94845 20.0239 2.03591 20.6496 2.30215 21.2067L0.293153 23.2207C0.105682 23.4082 0.000366211 23.6625 0.000366211 23.9277C0.000366211 24.1928 0.105682 24.4471 0.293153 24.6347C0.48068 24.8221 0.734988 24.9274 1.00015 24.9274C1.26532 24.9274 1.51963 24.8221 1.70715 24.6347L3.71415 22.6277C4.2713 22.8994 4.8996 22.9897 5.51073 22.8858C6.12185 22.782 6.68506 22.4892 7.12115 22.0487C7.66215 21.5077 10.8802 17.1937 13.3002 13.9277H16.7622C17.2878 13.929 17.8084 13.8262 18.294 13.625C18.7796 13.4238 19.2205 13.1283 19.5912 12.7557L22.8332 9.51366C23.5795 8.76151 23.9989 7.74524 24.0002 6.68566V4.92766C24.0002 3.86679 23.5787 2.84938 22.8286 2.09923C22.0784 1.34908 21.061 0.927657 20.0002 0.927657ZM5.70715 20.6347C5.51702 20.8171 5.26369 20.919 5.00015 20.919C4.73661 20.919 4.48328 20.8171 4.29315 20.6347C4.10568 20.4471 4.00037 20.1928 4.00037 19.9277C4.00037 19.6625 4.10568 19.4082 4.29315 19.2207C4.63215 18.8847 7.29315 16.8777 10.2412 14.6867C8.04915 17.6337 6.04215 20.2967 5.70715 20.6347ZM22.0002 6.68566C21.9988 7.21581 21.7882 7.72399 21.4142 8.09966L18.1722 11.3417C17.9867 11.528 17.7662 11.6757 17.5233 11.7762C17.2804 11.8768 17.02 11.9283 16.7572 11.9277H14.7712L15.7622 10.5797L19.7072 6.63466C19.8027 6.54241 19.8788 6.43207 19.9313 6.31006C19.9837 6.18806 20.0112 6.05684 20.0124 5.92406C20.0136 5.79128 19.9883 5.6596 19.938 5.5367C19.8877 5.41381 19.8134 5.30215 19.7195 5.20826C19.6257 5.11437 19.514 5.04012 19.3911 4.98983C19.2682 4.93955 19.1365 4.91425 19.0038 4.91541C18.871 4.91656 18.7398 4.94415 18.6177 4.99656C18.4957 5.04896 18.3854 5.12515 18.2932 5.22066L14.3492 9.16466L13.0002 10.1567V8.16966C13.0015 7.63951 13.2121 7.13132 13.5862 6.75566L16.8282 3.51366C17.0136 3.32736 17.2341 3.17966 17.477 3.07908C17.7199 2.9785 17.9803 2.92703 18.2432 2.92766H20.0002C20.5306 2.92766 21.0393 3.13837 21.4144 3.51344C21.7894 3.88852 22.0002 4.39722 22.0002 4.92766V6.68566Z" fill="#374957"/>
</g>
<defs>
<clipPath id="clip0_507_2001">
<rect width="24" height="24" fill="white" transform="translate(0 0.92749)"/>
</clipPath>
</defs>
</svg>
