<svg width="24" height="25" viewBox="0 0 24 25" fill="none" xmlns="http://www.w3.org/2000/svg">
<g clip-path="url(#clip0_507_2040)">
<path d="M15.2069 15.1349L13.4139 16.9279L15.2069 18.7209C15.3024 18.8132 15.3786 18.9235 15.431 19.0455C15.4834 19.1675 15.511 19.2988 15.5121 19.4315C15.5133 19.5643 15.488 19.696 15.4377 19.8189C15.3874 19.9418 15.3132 20.0534 15.2193 20.1473C15.1254 20.2412 15.0137 20.3155 14.8908 20.3658C14.7679 20.416 14.6363 20.4413 14.5035 20.4402C14.3707 20.439 14.2395 20.4114 14.1175 20.359C13.9955 20.3066 13.8851 20.2305 13.7929 20.1349L11.9999 18.3419L10.2069 20.1349C10.0183 20.3171 9.76567 20.4179 9.50348 20.4156C9.24128 20.4133 8.99047 20.3082 8.80506 20.1228C8.61965 19.9374 8.51448 19.6865 8.5122 19.4243C8.50993 19.1621 8.61072 18.9095 8.79288 18.7209L10.5859 16.9279L8.79288 15.1349C8.61072 14.9463 8.50993 14.6937 8.5122 14.4315C8.51448 14.1693 8.61965 13.9185 8.80506 13.7331C8.99047 13.5477 9.24128 13.4425 9.50348 13.4403C9.76567 13.438 10.0183 13.5388 10.2069 13.7209L11.9999 15.5139L13.7929 13.7209C13.9815 13.5388 14.2341 13.438 14.4963 13.4403C14.7585 13.4425 15.0093 13.5477 15.1947 13.7331C15.3801 13.9185 15.4853 14.1693 15.4876 14.4315C15.4898 14.6937 15.389 14.9463 15.2069 15.1349ZM21.9999 11.4129V19.9279C21.9983 21.2535 21.471 22.5244 20.5337 23.4617C19.5963 24.3991 18.3255 24.9264 16.9999 24.9279H6.99988C5.67428 24.9264 4.40344 24.3991 3.4661 23.4617C2.52876 22.5244 2.00147 21.2535 1.99988 19.9279V5.92794C2.00147 4.60235 2.52876 3.3315 3.4661 2.39416C4.40344 1.45682 5.67428 0.929528 6.99988 0.927941H11.5149C12.4345 0.925574 13.3455 1.10553 14.1951 1.4574C15.0447 1.80927 15.8162 2.32608 16.4649 2.97794L19.9489 6.46394C20.6011 7.11218 21.1182 7.8834 21.4703 8.73291C21.8224 9.58243 22.0024 10.4934 21.9999 11.4129ZM15.0509 4.39194C14.7362 4.0871 14.3828 3.82486 13.9999 3.61194V7.92794C13.9999 8.19316 14.1052 8.44751 14.2928 8.63505C14.4803 8.82258 14.7347 8.92794 14.9999 8.92794H19.3159C19.1028 8.54513 18.8402 8.19209 18.5349 7.87794L15.0509 4.39194ZM19.9999 11.4129C19.9999 11.2479 19.9679 11.0899 19.9529 10.9279H14.9999C14.2042 10.9279 13.4412 10.6119 12.8786 10.0493C12.3159 9.48665 11.9999 8.72359 11.9999 7.92794V2.97494C11.8379 2.95994 11.6789 2.92794 11.5149 2.92794H6.99988C6.20423 2.92794 5.44117 3.24401 4.87856 3.80662C4.31595 4.36923 3.99988 5.13229 3.99988 5.92794V19.9279C3.99988 20.7236 4.31595 21.4867 4.87856 22.0493C5.44117 22.6119 6.20423 22.9279 6.99988 22.9279H16.9999C17.7955 22.9279 18.5586 22.6119 19.1212 22.0493C19.6838 21.4867 19.9999 20.7236 19.9999 19.9279V11.4129Z" fill="#374957"/>
</g>
<defs>
<clipPath id="clip0_507_2040">
<rect width="24" height="24" fill="white" transform="translate(0 0.92749)"/>
</clipPath>
</defs>
</svg>
