<svg width="24" height="25" viewBox="0 0 24 25" fill="none" xmlns="http://www.w3.org/2000/svg">
<g clip-path="url(#clip0_507_2052)">
<path d="M16.6301 3.82761C15.8431 3.16062 15.0181 2.45961 14.1781 1.69559C13.5337 1.10956 12.6634 0.837967 11.8001 0.953608C10.9635 1.06414 10.2191 1.54034 9.7681 2.25359C8.57607 4.24559 7.73326 6.42664 7.27609 8.70261C7.0967 8.44358 6.93755 8.17114 6.80007 7.88759C6.32645 6.88972 5.13357 6.4647 4.1357 6.93833C3.8941 7.05298 3.67796 7.21494 3.50007 7.41458C1.82274 9.12861 0.892883 11.4374 0.914071 13.8356C0.866399 18.8761 4.25691 23.3016 9.13609 24.5676C10.0439 24.796 10.976 24.9142 11.9121 24.9196C11.9421 24.9196 12.2611 24.9166 12.3901 24.9076C18.3601 24.7142 23.0975 19.8147 23.0901 13.8416C23.0861 9.31161 20.0941 6.77159 16.6301 3.82761ZM11.8871 22.9126C11.1429 22.856 10.4074 22.5545 9.8521 22.1066C8.98257 21.4913 8.40718 20.589 8.27012 19.5496C8.1001 17.9276 9.10013 15.8066 11.1431 13.4106C11.3574 13.1604 11.6708 13.017 12.0001 13.0186C12.3253 13.0162 12.6345 13.1592 12.8431 13.4086C14.7151 15.6306 15.7432 17.6806 15.7432 19.1816C15.7374 21.1536 14.196 22.7136 12.2332 22.9036C12.147 22.9119 12.0001 22.9246 11.8871 22.9126ZM17.5761 21.0106C17.5171 21.0566 17.4521 21.0936 17.3921 21.1376C17.6229 20.5105 17.7417 19.8477 17.7431 19.1795C17.7431 16.6526 15.9081 13.9445 14.3701 12.1175C13.7817 11.4207 12.9162 11.0183 12.0041 11.0175H12.0001C11.0862 11.0159 10.2175 11.4155 9.6241 12.1105C7.1791 14.9745 6.05612 17.5475 6.28609 19.7585C6.3407 20.2718 6.4718 20.774 6.6751 21.2485C4.30051 19.5279 2.90134 16.7679 2.91709 13.8355C2.89777 11.9306 3.64899 10.0986 5.00007 8.75553C5.23074 9.23506 5.50773 9.69087 5.82709 10.1165C6.2657 10.7095 7.01499 10.9847 7.73307 10.8165C8.46521 10.6546 9.03366 10.0771 9.18409 9.34255C9.58585 7.21892 10.3536 5.18126 11.4531 3.32056C11.5884 3.10784 11.8118 2.96694 12.0621 2.93656C12.3418 2.89892 12.6237 2.98719 12.8321 3.17755C13.6901 3.95755 14.5321 4.67755 15.3321 5.35456C18.6701 8.18956 21.0831 10.2376 21.0831 13.8416C21.0917 16.6462 19.797 19.2958 17.5791 21.0125L17.5761 21.0106Z" fill="#374957"/>
</g>
<defs>
<clipPath id="clip0_507_2052">
<rect width="24" height="24" fill="white" transform="translate(0 0.92749)"/>
</clipPath>
</defs>
</svg>
