<svg width="24" height="25" viewBox="0 0 24 25" fill="none" xmlns="http://www.w3.org/2000/svg">
<path d="M17 11.9275H13V7.92749C13 7.66227 12.8946 7.40792 12.7071 7.22038C12.5196 7.03285 12.2652 6.92749 12 6.92749C11.7348 6.92749 11.4804 7.03285 11.2929 7.22038C11.1054 7.40792 11 7.66227 11 7.92749V11.9275H7C6.73478 11.9275 6.48043 12.0328 6.29289 12.2204C6.10536 12.4079 6 12.6623 6 12.9275C6 13.1927 6.10536 13.4471 6.29289 13.6346C6.48043 13.8221 6.73478 13.9275 7 13.9275H11V17.9275C11 18.1927 11.1054 18.4471 11.2929 18.6346C11.4804 18.8221 11.7348 18.9275 12 18.9275C12.2652 18.9275 12.5196 18.8221 12.7071 18.6346C12.8946 18.4471 13 18.1927 13 17.9275V13.9275H17C17.2652 13.9275 17.5196 13.8221 17.7071 13.6346C17.8946 13.4471 18 13.1927 18 12.9275C18 12.6623 17.8946 12.4079 17.7071 12.2204C17.5196 12.0328 17.2652 11.9275 17 11.9275Z" fill="#374957"/>
</svg>
