<svg width="24" height="25" viewBox="0 0 24 25" fill="none" xmlns="http://www.w3.org/2000/svg">
<g clip-path="url(#clip0_507_2251)">
<path d="M23.4212 17.5096L20.1302 14.2186C20.0385 14.1209 19.9281 14.0427 19.8055 13.9885C19.683 13.9344 19.5508 13.9054 19.4168 13.9033C19.2828 13.9012 19.1498 13.9261 19.0256 13.9764C18.9014 14.0267 18.7886 14.1015 18.6939 14.1963C18.5992 14.2911 18.5245 14.4039 18.4743 14.5282C18.424 14.6524 18.3992 14.7854 18.4014 14.9194C18.4036 15.0534 18.4327 15.1856 18.4869 15.3081C18.5412 15.4306 18.6195 15.541 18.7172 15.6326L21.0072 17.9266C19.7624 17.9294 18.5295 17.6832 17.3813 17.2023C16.233 16.7214 15.1926 16.0157 14.3212 15.1266C14.2245 15.0375 14.1108 14.9688 13.987 14.9244C13.8631 14.8801 13.7316 14.8611 13.6003 14.8686C13.469 14.876 13.3405 14.9098 13.2225 14.9679C13.1044 15.0259 12.9993 15.1071 12.9132 15.2066L12.9002 15.2266C12.7321 15.4222 12.6461 15.6752 12.66 15.9327C12.674 16.1902 12.7869 16.4324 12.9752 16.6086C14.025 17.6703 15.2769 18.5109 16.6569 19.0808C18.037 19.6507 19.5172 19.9383 21.0102 19.9266L18.7172 22.2196C18.6128 22.3095 18.528 22.42 18.4682 22.5442C18.4085 22.6684 18.375 22.8036 18.37 22.9413C18.365 23.079 18.3885 23.2163 18.439 23.3445C18.4896 23.4727 18.5661 23.5891 18.6637 23.6864C18.7614 23.7836 18.8781 23.8596 19.0065 23.9096C19.135 23.9596 19.2723 23.9825 19.41 23.9769C19.5477 23.9713 19.6828 23.9373 19.8067 23.877C19.9307 23.8167 20.0408 23.7315 20.1302 23.6266L23.4212 20.3356C23.7956 19.9606 24.0058 19.4525 24.0058 18.9226C24.0058 18.3928 23.7956 17.8846 23.4212 17.5096Z" fill="#374957"/>
<path d="M21.0071 7.92705L18.7171 10.2171C18.6976 10.2434 18.6796 10.2707 18.6631 10.2991C18.5017 10.4958 18.4221 10.747 18.4408 11.0008C18.4594 11.2546 18.5749 11.4915 18.7633 11.6626C18.9516 11.8336 19.1986 11.9257 19.453 11.9199C19.7074 11.914 19.9498 11.8106 20.1301 11.6311L21.8361 9.92705L23.4221 8.34205C23.6902 8.07181 23.8757 7.73065 23.9566 7.35865C24.0376 6.98666 24.0107 6.59929 23.8791 6.24205C23.7819 5.9686 23.6255 5.72 23.4211 5.51405L20.1301 2.22705C20.0388 2.12786 19.9284 2.04816 19.8055 1.99272C19.6826 1.93729 19.5498 1.90727 19.415 1.90448C19.2802 1.90169 19.1463 1.92618 19.0212 1.97647C18.8961 2.02677 18.7825 2.10184 18.6872 2.19716C18.5919 2.29248 18.5168 2.4061 18.4665 2.53117C18.4162 2.65625 18.3917 2.7902 18.3945 2.92498C18.3973 3.05976 18.4273 3.19258 18.4827 3.31547C18.5382 3.43835 18.6179 3.54876 18.7171 3.64005L21.0101 5.93205C16.0771 5.94405 13.3731 8.60605 10.9211 11.4061C8.66909 8.86405 6.0001 6.32705 1.4871 5.97305L1.0061 5.92705C0.740886 5.92705 0.486533 6.03241 0.298996 6.21995C0.11146 6.40748 0.00610352 6.66184 0.00610352 6.92705C0.0112237 7.19067 0.118224 7.44206 0.304662 7.6285C0.4911 7.81493 0.742489 7.92193 1.0061 7.92705C1.0781 7.92705 1.2931 7.96005 1.2931 7.96005C5.1891 8.25505 7.4251 10.4491 9.60009 12.9271C7.4381 15.3931 5.2171 17.6271 1.3531 17.8871L0.953102 17.9081C0.689875 17.9245 0.443961 18.0448 0.269459 18.2426C0.0949567 18.4403 0.00616009 18.6993 0.0226035 18.9626C0.0390469 19.2258 0.159383 19.4717 0.35714 19.6462C0.554897 19.8207 0.813875 19.9095 1.0771 19.8931C1.2331 19.8861 1.4871 19.8801 1.6121 19.8701C6.6321 19.4831 9.35509 16.2701 11.7831 13.4611C14.2351 10.6271 16.5511 7.94505 21.0071 7.92705Z" fill="#374957"/>
</g>
<defs>
<clipPath id="clip0_507_2251">
<rect width="24" height="24" fill="white" transform="translate(0 0.92749)"/>
</clipPath>
</defs>
</svg>
