<svg width="24" height="25" viewBox="0 0 24 25" fill="none" xmlns="http://www.w3.org/2000/svg">
<g clip-path="url(#clip0_507_2336)">
<path d="M9 12.9275C10.1867 12.9275 11.3467 12.5756 12.3334 11.9163C13.3201 11.257 14.0892 10.32 14.5433 9.22359C14.9974 8.12724 15.1162 6.92084 14.8847 5.75695C14.6532 4.59307 14.0818 3.52397 13.2426 2.68485C12.4035 1.84574 11.3344 1.27429 10.1705 1.04278C9.00666 0.81127 7.80026 0.93009 6.7039 1.38422C5.60754 1.83834 4.67047 2.60738 4.01118 3.59407C3.35189 4.58077 3 5.74081 3 6.92749C3.00159 8.51831 3.63424 10.0435 4.75911 11.1684C5.88399 12.2933 7.40919 12.9259 9 12.9275ZM9 2.92749C9.79113 2.92749 10.5645 3.16209 11.2223 3.60161C11.8801 4.04114 12.3928 4.66586 12.6955 5.39676C12.9983 6.12766 13.0775 6.93193 12.9231 7.70786C12.7688 8.48378 12.3878 9.19651 11.8284 9.75592C11.269 10.3153 10.5563 10.6963 9.78036 10.8506C9.00444 11.005 8.20017 10.9258 7.46927 10.623C6.73836 10.3203 6.11365 9.80757 5.67412 9.14977C5.2346 8.49198 5 7.71862 5 6.92749C5 5.86663 5.42143 4.84921 6.17157 4.09907C6.92172 3.34892 7.93914 2.92749 9 2.92749ZM18 23.9275C18 24.1927 17.8946 24.4471 17.7071 24.6346C17.5196 24.8221 17.2652 24.9275 17 24.9275C16.7348 24.9275 16.4804 24.8221 16.2929 24.6346C16.1054 24.4471 16 24.1927 16 23.9275C16 22.071 15.2625 20.2905 13.9497 18.9777C12.637 17.665 10.8565 16.9275 9 16.9275C7.14349 16.9275 5.36301 17.665 4.05025 18.9777C2.7375 20.2905 2 22.071 2 23.9275C2 24.1927 1.89464 24.4471 1.70711 24.6346C1.51957 24.8221 1.26522 24.9275 1 24.9275C0.734784 24.9275 0.48043 24.8221 0.292893 24.6346C0.105357 24.4471 0 24.1927 0 23.9275C0 21.5405 0.948212 19.2514 2.63604 17.5635C4.32387 15.8757 6.61305 14.9275 9 14.9275C11.3869 14.9275 13.6761 15.8757 15.364 17.5635C17.0518 19.2514 18 21.5405 18 23.9275ZM23.707 15.2205C23.8025 15.3127 23.8787 15.4231 23.9311 15.5451C23.9835 15.6671 24.0111 15.7983 24.0123 15.9311C24.0134 16.0639 23.9881 16.1956 23.9378 16.3184C23.8875 16.4413 23.8133 16.553 23.7194 16.6469C23.6255 16.7408 23.5139 16.815 23.391 16.8653C23.2681 16.9156 23.1364 16.9409 23.0036 16.9397C22.8708 16.9386 22.7396 16.911 22.6176 16.8586C22.4956 16.8062 22.3852 16.73 22.293 16.6345L20.5 14.8415L18.707 16.6345C18.5184 16.8167 18.2658 16.9174 18.0036 16.9152C17.7414 16.9129 17.4906 16.8077 17.3052 16.6223C17.1198 16.4369 17.0146 16.1861 17.0123 15.9239C17.01 15.6617 17.1108 15.4091 17.293 15.2205L19.086 13.4275L17.293 11.6345C17.1108 11.4459 17.01 11.1933 17.0123 10.9311C17.0146 10.6689 17.1198 10.4181 17.3052 10.2327C17.4906 10.0473 17.7414 9.9421 18.0036 9.93982C18.2658 9.93754 18.5184 10.0383 18.707 10.2205L20.5 12.0135L22.293 10.2205C22.4816 10.0383 22.7342 9.93754 22.9964 9.93982C23.2586 9.9421 23.5094 10.0473 23.6948 10.2327C23.8802 10.4181 23.9854 10.6689 23.9877 10.9311C23.99 11.1933 23.8892 11.4459 23.707 11.6345L21.914 13.4275L23.707 15.2205Z" fill="#374957"/>
</g>
<defs>
<clipPath id="clip0_507_2336">
<rect width="24" height="24" fill="white" transform="translate(0 0.92749)"/>
</clipPath>
</defs>
</svg>
