<svg width="24" height="25" viewBox="0 0 24 25" fill="none" xmlns="http://www.w3.org/2000/svg">
<g clip-path="url(#clip0_507_2047)">
<path d="M19 0.92749H5C3.67441 0.929078 2.40356 1.45637 1.46622 2.39371C0.528882 3.33105 0.00158786 4.6019 0 5.92749L0 19.9275C0.00158786 21.2531 0.528882 22.5239 1.46622 23.4613C2.40356 24.3986 3.67441 24.9259 5 24.9275H19C20.3256 24.9259 21.5964 24.3986 22.5338 23.4613C23.4711 22.5239 23.9984 21.2531 24 19.9275V5.92749C23.9984 4.6019 23.4711 3.33105 22.5338 2.39371C21.5964 1.45637 20.3256 0.929078 19 0.92749V0.92749ZM20 11.9275H22V13.9275H20V11.9275ZM20 9.92749V7.92749H22V9.92749H20ZM18 11.9275H6V2.92749H18V11.9275ZM4 13.9275H2V11.9275H4V13.9275ZM4 9.92749H2V7.92749H4V9.92749ZM2 15.9275H4V17.9275H2V15.9275ZM6 13.9275H18V22.9275H6V13.9275ZM20 15.9275H22V17.9275H20V15.9275ZM22 5.92749H20V3.11149C20.5829 3.31757 21.0879 3.69872 21.4459 4.20279C21.8039 4.70686 21.9974 5.30923 22 5.92749ZM4 3.11149V5.92749H2C2.00256 5.30923 2.19608 4.70686 2.55409 4.20279C2.91209 3.69872 3.41709 3.31757 4 3.11149ZM2 19.9275H4V22.7435C3.41709 22.5374 2.91209 22.1563 2.55409 21.6522C2.19608 21.1481 2.00256 20.5458 2 19.9275ZM20 22.7435V19.9275H22C21.9974 20.5458 21.8039 21.1481 21.4459 21.6522C21.0879 22.1563 20.5829 22.5374 20 22.7435Z" fill="#374957"/>
</g>
<defs>
<clipPath id="clip0_507_2047">
<rect width="24" height="24" fill="white" transform="translate(0 0.92749)"/>
</clipPath>
</defs>
</svg>
