<svg width="24" height="25" viewBox="0 0 24 25" fill="none" xmlns="http://www.w3.org/2000/svg">
<g clip-path="url(#clip0_507_2177)">
<path d="M12 24.9275C10.9391 24.9275 9.92172 24.5061 9.17157 23.7559C8.42143 23.0058 8 21.9884 8 20.9275V16.9275H4C2.93913 16.9275 1.92172 16.5061 1.17157 15.7559C0.421427 15.0058 0 13.9884 0 12.9275C0 11.8666 0.421427 10.8492 1.17157 10.0991C1.92172 9.34892 2.93913 8.92749 4 8.92749H8V4.92749C8 3.86662 8.42143 2.84921 9.17157 2.09906C9.92172 1.34892 10.9391 0.92749 12 0.92749C13.0609 0.92749 14.0783 1.34892 14.8284 2.09906C15.5786 2.84921 16 3.86662 16 4.92749V8.92749H20C21.0609 8.92749 22.0783 9.34892 22.8284 10.0991C23.5786 10.8492 24 11.8666 24 12.9275C24 13.9884 23.5786 15.0058 22.8284 15.7559C22.0783 16.5061 21.0609 16.9275 20 16.9275H16V20.9275C16 21.9884 15.5786 23.0058 14.8284 23.7559C14.0783 24.5061 13.0609 24.9275 12 24.9275ZM4 10.9275C3.46957 10.9275 2.96086 11.1382 2.58579 11.5133C2.21071 11.8883 2 12.3971 2 12.9275C2 13.4579 2.21071 13.9666 2.58579 14.3417C2.96086 14.7168 3.46957 14.9275 4 14.9275H9C9.26522 14.9275 9.51957 15.0328 9.70711 15.2204C9.89464 15.4079 10 15.6623 10 15.9275V20.9275C10 21.4579 10.2107 21.9666 10.5858 22.3417C10.9609 22.7168 11.4696 22.9275 12 22.9275C12.5304 22.9275 13.0391 22.7168 13.4142 22.3417C13.7893 21.9666 14 21.4579 14 20.9275V15.9275C14 15.6623 14.1054 15.4079 14.2929 15.2204C14.4804 15.0328 14.7348 14.9275 15 14.9275H20C20.5304 14.9275 21.0391 14.7168 21.4142 14.3417C21.7893 13.9666 22 13.4579 22 12.9275C22 12.3971 21.7893 11.8883 21.4142 11.5133C21.0391 11.1382 20.5304 10.9275 20 10.9275H15C14.7348 10.9275 14.4804 10.8221 14.2929 10.6346C14.1054 10.4471 14 10.1927 14 9.92749V4.92749C14 4.39706 13.7893 3.88835 13.4142 3.51328C13.0391 3.1382 12.5304 2.92749 12 2.92749C11.4696 2.92749 10.9609 3.1382 10.5858 3.51328C10.2107 3.88835 10 4.39706 10 4.92749V9.92749C10 10.1927 9.89464 10.4471 9.70711 10.6346C9.51957 10.8221 9.26522 10.9275 9 10.9275H4Z" fill="#374957"/>
</g>
<defs>
<clipPath id="clip0_507_2177">
<rect width="24" height="24" fill="white" transform="translate(0 0.92749)"/>
</clipPath>
</defs>
</svg>
