<svg width="24" height="25" viewBox="0 0 24 25" fill="none" xmlns="http://www.w3.org/2000/svg">
<g clip-path="url(#clip0_507_2278)">
<path d="M19 0.92749H5C3.67441 0.929078 2.40356 1.45637 1.46622 2.39371C0.528882 3.33105 0.00158786 4.6019 0 5.92749L0 19.9275C0.00158786 21.2531 0.528882 22.5239 1.46622 23.4613C2.40356 24.3986 3.67441 24.9259 5 24.9275H19C20.3256 24.9259 21.5964 24.3986 22.5338 23.4613C23.4711 22.5239 23.9984 21.2531 24 19.9275V5.92749C23.9984 4.6019 23.4711 3.33105 22.5338 2.39371C21.5964 1.45637 20.3256 0.929078 19 0.92749V0.92749ZM22 19.9275C22 20.7231 21.6839 21.4862 21.1213 22.0488C20.5587 22.6114 19.7956 22.9275 19 22.9275H5C4.20435 22.9275 3.44129 22.6114 2.87868 22.0488C2.31607 21.4862 2 20.7231 2 19.9275V5.92749C2 5.13184 2.31607 4.36878 2.87868 3.80617C3.44129 3.24356 4.20435 2.92749 5 2.92749H19C19.7956 2.92749 20.5587 3.24356 21.1213 3.80617C21.6839 4.36878 22 5.13184 22 5.92749V19.9275Z" fill="#374957"/>
</g>
<defs>
<clipPath id="clip0_507_2278">
<rect width="24" height="24" fill="white" transform="translate(0 0.92749)"/>
</clipPath>
</defs>
</svg>
