<svg width="24" height="25" viewBox="0 0 24 25" fill="none" xmlns="http://www.w3.org/2000/svg">
<g clip-path="url(#clip0_507_2131)">
<path d="M23.229 1.6985C22.7564 1.22831 22.1234 0.954538 21.4571 0.932274C20.7908 0.91001 20.1409 1.14091 19.638 1.5785L5.472 14.0605C3.137 14.5005 0 15.8015 0 18.5275C0.00185286 20.2243 0.676732 21.8511 1.87656 23.0509C3.07639 24.2508 4.70318 24.9257 6.4 24.9275C9.125 24.9275 10.427 21.7915 10.867 19.4565L23.352 5.2855C23.7887 4.7828 24.0188 4.13333 23.996 3.46781C23.9732 2.80229 23.6991 2.17012 23.229 1.6985ZM10.141 17.2545L7.673 14.7865L9.678 13.0195L11.908 15.2495L10.141 17.2545ZM6.4 22.9275C5.23345 22.9262 4.11507 22.4622 3.29019 21.6373C2.46532 20.8124 2.00132 19.694 2 18.5275C2 17.0195 4.639 16.2405 6.049 15.9905L8.937 18.8775C8.686 20.2885 7.908 22.9275 6.4 22.9275ZM21.849 3.9675L13.233 13.7455L11.181 11.6945L20.956 3.0815C21.0764 2.97821 21.2312 2.92403 21.3897 2.92976C21.5482 2.93549 21.6988 3.0007 21.8114 3.11241C21.924 3.22413 21.9904 3.37414 21.9973 3.5326C22.0043 3.69106 21.9513 3.84633 21.849 3.9675Z" fill="#374957"/>
</g>
<defs>
<clipPath id="clip0_507_2131">
<rect width="24" height="24" fill="white" transform="translate(0 0.92749)"/>
</clipPath>
</defs>
</svg>
