<svg width="24" height="25" viewBox="0 0 24 25" fill="none" xmlns="http://www.w3.org/2000/svg">
<g clip-path="url(#clip0_507_2079)">
<path d="M4.5 18.4278H2C1.46957 18.4278 0.960859 18.6385 0.585786 19.0136C0.210714 19.3887 0 19.8974 0 20.4278L0 22.9278C0 23.4582 0.210714 23.9669 0.585786 24.342C0.960859 24.7171 1.46957 24.9278 2 24.9278H4.5C5.03043 24.9278 5.53914 24.7171 5.91421 24.342C6.28929 23.9669 6.5 23.4582 6.5 22.9278V20.4278C6.5 19.8974 6.28929 19.3887 5.91421 19.0136C5.53914 18.6385 5.03043 18.4278 4.5 18.4278ZM4.5 22.9278H2V20.4278H4.5V22.9278Z" fill="#374957"/>
<path d="M22.0001 18.4278H19.5001C18.9697 18.4278 18.461 18.6385 18.0859 19.0136C17.7108 19.3887 17.5001 19.8974 17.5001 20.4278V22.9278C17.5001 23.4582 17.7108 23.9669 18.0859 24.342C18.461 24.7171 18.9697 24.9278 19.5001 24.9278H22.0001C22.5305 24.9278 23.0392 24.7171 23.4143 24.342C23.7894 23.9669 24.0001 23.4582 24.0001 22.9278V20.4278C24.0001 19.8974 23.7894 19.3887 23.4143 19.0136C23.0392 18.6385 22.5305 18.4278 22.0001 18.4278ZM22.0001 22.9278H19.5001V20.4278H22.0001V22.9278Z" fill="#374957"/>
<path d="M4.5 9.67719H2C1.46957 9.67719 0.960859 9.8879 0.585786 10.263C0.210714 10.638 0 11.1467 0 11.6772L0 14.1772C0 14.7076 0.210714 15.2163 0.585786 15.5914C0.960859 15.9665 1.46957 16.1772 2 16.1772H4.5C5.03043 16.1772 5.53914 15.9665 5.91421 15.5914C6.28929 15.2163 6.5 14.7076 6.5 14.1772V11.6772C6.5 11.1467 6.28929 10.638 5.91421 10.263C5.53914 9.8879 5.03043 9.67719 4.5 9.67719ZM4.5 14.1772H2V11.6772H4.5V14.1772Z" fill="#374957"/>
<path d="M22.0001 9.67719H19.5001C18.9697 9.67719 18.461 9.8879 18.0859 10.263C17.7108 10.638 17.5001 11.1467 17.5001 11.6772V14.1772C17.5001 14.7076 17.7108 15.2163 18.0859 15.5914C18.461 15.9665 18.9697 16.1772 19.5001 16.1772H22.0001C22.5305 16.1772 23.0392 15.9665 23.4143 15.5914C23.7894 15.2163 24.0001 14.7076 24.0001 14.1772V11.6772C24.0001 11.1467 23.7894 10.638 23.4143 10.263C23.0392 9.8879 22.5305 9.67719 22.0001 9.67719ZM22.0001 14.1772H19.5001V11.6772H22.0001V14.1772Z" fill="#374957"/>
<path d="M4.5 0.92749H2C1.46957 0.92749 0.960859 1.1382 0.585786 1.51328C0.210714 1.88835 0 2.39706 0 2.92749L0 5.42749C0 5.95792 0.210714 6.46663 0.585786 6.8417C0.960859 7.21678 1.46957 7.42749 2 7.42749H4.5C5.03043 7.42749 5.53914 7.21678 5.91421 6.8417C6.28929 6.46663 6.5 5.95792 6.5 5.42749V2.92749C6.5 2.39706 6.28929 1.88835 5.91421 1.51328C5.53914 1.1382 5.03043 0.92749 4.5 0.92749V0.92749ZM4.5 5.42749H2V2.92749H4.5V5.42749Z" fill="#374957"/>
<path d="M13.2499 18.4278H10.7499C10.2194 18.4278 9.71074 18.6385 9.33566 19.0136C8.96059 19.3887 8.74988 19.8974 8.74988 20.4278V22.9278C8.74988 23.4582 8.96059 23.9669 9.33566 24.342C9.71074 24.7171 10.2194 24.9278 10.7499 24.9278H13.2499C13.7803 24.9278 14.289 24.7171 14.6641 24.342C15.0391 23.9669 15.2499 23.4582 15.2499 22.9278V20.4278C15.2499 19.8974 15.0391 19.3887 14.6641 19.0136C14.289 18.6385 13.7803 18.4278 13.2499 18.4278ZM13.2499 22.9278H10.7499V20.4278H13.2499V22.9278Z" fill="#374957"/>
<path d="M13.2499 9.67719H10.7499C10.2194 9.67719 9.71074 9.8879 9.33566 10.263C8.96059 10.638 8.74988 11.1467 8.74988 11.6772V14.1772C8.74988 14.7076 8.96059 15.2163 9.33566 15.5914C9.71074 15.9665 10.2194 16.1772 10.7499 16.1772H13.2499C13.7803 16.1772 14.289 15.9665 14.6641 15.5914C15.0391 15.2163 15.2499 14.7076 15.2499 14.1772V11.6772C15.2499 11.1467 15.0391 10.638 14.6641 10.263C14.289 9.8879 13.7803 9.67719 13.2499 9.67719ZM13.2499 14.1772H10.7499V11.6772H13.2499V14.1772Z" fill="#374957"/>
<path d="M13.2499 0.92749H10.7499C10.2194 0.92749 9.71074 1.1382 9.33566 1.51328C8.96059 1.88835 8.74988 2.39706 8.74988 2.92749V5.42749C8.74988 5.95792 8.96059 6.46663 9.33566 6.8417C9.71074 7.21678 10.2194 7.42749 10.7499 7.42749H13.2499C13.7803 7.42749 14.289 7.21678 14.6641 6.8417C15.0391 6.46663 15.2499 5.95792 15.2499 5.42749V2.92749C15.2499 2.39706 15.0391 1.88835 14.6641 1.51328C14.289 1.1382 13.7803 0.92749 13.2499 0.92749V0.92749ZM13.2499 5.42749H10.7499V2.92749H13.2499V5.42749Z" fill="#374957"/>
<path d="M22.0001 0.92749H19.5001C18.9697 0.92749 18.461 1.1382 18.0859 1.51328C17.7108 1.88835 17.5001 2.39706 17.5001 2.92749V5.42749C17.5001 5.95792 17.7108 6.46663 18.0859 6.8417C18.461 7.21678 18.9697 7.42749 19.5001 7.42749H22.0001C22.5305 7.42749 23.0392 7.21678 23.4143 6.8417C23.7894 6.46663 24.0001 5.95792 24.0001 5.42749V2.92749C24.0001 2.39706 23.7894 1.88835 23.4143 1.51328C23.0392 1.1382 22.5305 0.92749 22.0001 0.92749V0.92749ZM22.0001 5.42749H19.5001V2.92749H22.0001V5.42749Z" fill="#374957"/>
</g>
<defs>
<clipPath id="clip0_507_2079">
<rect width="24" height="24" fill="white" transform="translate(0 0.92749)"/>
</clipPath>
</defs>
</svg>
