<svg width="24" height="25" viewBox="0 0 24 25" fill="none" xmlns="http://www.w3.org/2000/svg">
<g clip-path="url(#clip0_507_2076)">
<path d="M22.0568 6.15731L14.6828 2.64431C13.0596 1.67475 11.0393 1.65755 9.39979 2.59931L1.94282 6.15731C1.91483 6.17133 1.88582 6.18633 1.85882 6.20231C0.0891931 7.21416 -0.525151 9.46899 0.486693 11.2386C0.829677 11.8385 1.33419 12.33 1.94282 12.6573L3.99983 13.6373V18.5373C4.00105 20.7284 5.42676 22.6642 7.51883 23.3153C8.97472 23.7365 10.4843 23.9427 11.9998 23.9273C13.5151 23.9443 15.0247 23.7398 16.4809 23.3204C18.5729 22.6692 19.9986 20.7334 19.9999 18.5423V13.6353L21.9999 12.6793V20.9273C21.9999 21.4796 22.4476 21.9273 22.9999 21.9273C23.5521 21.9273 23.9998 21.4796 23.9998 20.9273V8.9273C24.0065 7.75303 23.0793 6.66825 22.0568 6.15731ZM17.9998 18.5423C18.0003 19.8529 17.15 21.0122 15.8998 21.4053C14.632 21.7676 13.3183 21.9434 11.9998 21.9273C10.6813 21.9434 9.36758 21.7676 8.0998 21.4053C6.8496 21.0121 5.99929 19.8529 5.9998 18.5423V14.5904L9.31682 16.1704C10.1353 16.6564 11.07 16.9118 12.0218 16.9094C12.9278 16.9158 13.8186 16.6759 14.5988 16.2154L17.9998 14.5903V18.5423ZM21.1998 10.8523L13.6578 14.4523C12.6062 15.0646 11.3028 15.0473 10.2678 14.4073L2.8888 10.8973C2.06629 10.4538 1.75907 9.42745 2.2026 8.60499C2.3526 8.32683 2.57751 8.09625 2.85182 7.93931L10.3468 4.35933C11.3987 3.74836 12.7015 3.76566 13.7368 4.40433L21.1108 7.91733C21.6531 8.21845 21.9924 8.7871 21.9998 9.40735C22.0008 9.99488 21.6982 10.5413 21.1998 10.8523Z" fill="#374957"/>
</g>
<defs>
<clipPath id="clip0_507_2076">
<rect width="24" height="24" fill="white" transform="translate(0 0.92749)"/>
</clipPath>
</defs>
</svg>
