<svg width="24" height="25" viewBox="0 0 24 25" fill="none" xmlns="http://www.w3.org/2000/svg">
<path d="M17.792 8.13964C17.3476 6.22892 16.2166 4.54808 14.6141 3.41662C13.0116 2.28516 11.0492 1.78195 9.0999 2.00265C7.15064 2.22335 5.35042 3.15257 4.04142 4.61368C2.73242 6.07479 2.0059 7.96593 1.99996 9.92764C1.9991 11.206 2.3079 12.4656 2.89996 13.5986C1.82109 14.1768 0.966361 15.0989 0.47158 16.2184C-0.0232008 17.338 -0.129654 18.5908 0.169132 19.7778C0.467919 20.9648 1.15481 22.0179 2.12067 22.7697C3.08652 23.5216 4.27595 23.9292 5.49996 23.9276H16C17.959 23.9185 19.8467 23.1909 21.305 21.8827C22.7633 20.5744 23.6908 18.7766 23.9118 16.83C24.1327 14.8834 23.6317 12.9233 22.5037 11.3216C21.3757 9.71976 19.6992 8.58757 17.792 8.13964ZM16 21.9276H5.49996C4.64839 21.9302 3.82524 21.6214 3.18548 21.0593C2.54571 20.4973 2.13344 19.7208 2.02628 18.876C1.91911 18.0312 2.12443 17.1763 2.6036 16.4723C3.08276 15.7684 3.80272 15.2638 4.62796 15.0536C4.78667 15.0128 4.93291 14.9335 5.05381 14.8229C5.1747 14.7122 5.26655 14.5736 5.32127 14.4191C5.37599 14.2646 5.39191 14.0991 5.36761 13.937C5.34332 13.7749 5.27957 13.6213 5.18196 13.4896C4.41311 12.4614 3.99837 11.2116 3.99996 9.92764C4.01137 8.41362 4.59475 6.95989 5.6331 5.85799C6.67146 4.75609 8.08801 4.08748 9.59868 3.98627C11.1094 3.88505 12.6024 4.3587 13.7785 5.31223C14.9546 6.26577 15.7267 7.62867 15.94 9.12764C15.9687 9.34529 16.0683 9.54743 16.2234 9.70285C16.3785 9.85828 16.5804 9.95835 16.798 9.98764C18.2968 10.2009 19.6596 10.9728 20.6131 12.1487C21.5667 13.3245 22.0405 14.8174 21.9395 16.3279C21.8385 17.8385 21.1703 19.255 20.0688 20.2935C18.9672 21.332 17.5138 21.9158 16 21.9276Z" fill="#374957"/>
</svg>
