<svg width="24" height="25" viewBox="0 0 24 25" fill="none" xmlns="http://www.w3.org/2000/svg">
<g clip-path="url(#clip0_507_2050)">
<path d="M6 19.9275C6 20.1927 5.89464 20.447 5.70711 20.6346C5.51957 20.8221 5.26522 20.9275 5 20.9275C4.73478 20.9275 4.48043 20.8221 4.29289 20.6346C4.10536 20.447 4 20.1927 4 19.9275C4 19.6622 4.10536 19.4079 4.29289 19.2204C4.48043 19.0328 4.73478 18.9275 5 18.9275C5.26522 18.9275 5.51957 19.0328 5.70711 19.2204C5.89464 19.4079 6 19.6622 6 19.9275ZM23.73 8.55246C23.5235 8.96682 23.2053 9.31517 22.8112 9.55815C22.4171 9.80113 21.963 9.92905 21.5 9.92746H16.981C16.961 10.9885 16.918 11.9985 16.832 12.9275H17.2C17.6026 12.9194 18.002 13 18.37 13.1635C18.738 13.3271 19.0655 13.5695 19.3293 13.8737C19.5932 14.1779 19.7869 14.5364 19.8967 14.9238C20.0066 15.3112 20.0299 15.718 19.965 16.1155C19.8511 16.8938 19.462 17.6054 18.8683 18.1214C18.2746 18.6373 17.5156 18.9233 16.729 18.9275H15.4C13.6 22.8165 8 24.9275 3.987 24.9275C3.44122 24.9256 2.9016 24.812 2.40135 24.5938C1.90109 24.3756 1.45079 24.0573 1.07816 23.6585C0.705519 23.2598 0.418432 22.7889 0.234562 22.2751C0.0506916 21.7612 -0.0260707 21.2151 0.0089989 20.6705C0.0623353 18.0122 0.74463 15.4043 2 13.0605V12.5275C2.00641 10.7292 2.64137 8.98973 3.79498 7.61022C4.94859 6.23071 6.54823 5.29797 8.317 4.97346C8.76483 4.89698 9.22396 4.91938 9.66222 5.03909C10.1005 5.1588 10.5072 5.37293 10.854 5.66646C11.2089 5.96469 11.4952 6.33619 11.693 6.75547C11.8908 7.17476 11.9955 7.63188 12 8.09546C12.93 8.00946 13.941 7.96646 15 7.94646V3.42746C15 2.96318 15.1293 2.50807 15.3734 2.11313C15.6175 1.71819 15.9667 1.39903 16.382 1.19139C16.7972 0.983761 17.2621 0.895868 17.7245 0.937563C18.1869 0.979258 18.6286 1.14889 19 1.42746C19.8969 2.08 20.5437 3.01966 20.833 4.09046C21.9058 4.37996 22.8471 5.02829 23.5 5.92746C23.779 6.30019 23.9483 6.74342 23.9889 7.2072C24.0296 7.67098 23.9399 8.1369 23.73 8.55246ZM4.385 10.4685C6.07061 9.34502 7.9916 8.6235 10 8.35946V8.12746C10 7.94962 9.96106 7.77393 9.88591 7.61275C9.81076 7.45156 9.70122 7.30879 9.565 7.19446C9.44333 7.08787 9.29937 7.00983 9.14365 6.96606C8.98793 6.92228 8.82439 6.91388 8.665 6.94146C7.7073 7.10854 6.8094 7.52141 6.05916 8.13966C5.30891 8.75791 4.73204 9.56036 4.385 10.4685ZM8.783 22.1275C8.4399 20.6734 7.6983 19.3438 6.64145 18.2878C5.5846 17.2318 4.25434 16.4913 2.8 16.1495C2.35071 17.6652 2.08218 19.2287 2 20.8075C1.98244 21.0904 2.02525 21.3739 2.12558 21.6391C2.22591 21.9042 2.38147 22.145 2.58195 22.3455C2.78242 22.546 3.02323 22.7015 3.28839 22.8019C3.55356 22.9022 3.83703 22.945 4.12 22.9275C5.70048 22.8459 7.26573 22.5774 8.783 22.1275ZM14.992 9.93546C8.753 10.0425 5.353 11.1995 3.592 14.2975C5.27594 14.7578 6.81083 15.6491 8.04535 16.8835C9.27986 18.1178 10.1714 19.6526 10.632 21.3365C13.728 19.5735 14.885 16.1745 14.992 9.93546ZM16.568 14.9275C16.4563 15.6018 16.3077 16.2694 16.123 16.9275H16.729C17.0353 16.926 17.3308 16.8148 17.5622 16.6141C17.7935 16.4134 17.9453 16.1364 17.99 15.8335C18.0137 15.7195 18.0108 15.6015 17.9813 15.4889C17.9518 15.3762 17.8967 15.2719 17.8201 15.1841C17.7436 15.0964 17.6478 15.0275 17.5402 14.983C17.4326 14.9385 17.3162 14.9195 17.2 14.9275H16.568ZM21.9 7.11646C21.6573 6.78585 21.3492 6.50871 20.9948 6.30227C20.6404 6.09583 20.2473 5.9645 19.84 5.91646C19.6347 5.88207 19.4453 5.78448 19.2981 5.63732C19.151 5.49015 19.0534 5.30073 19.019 5.09546C18.9711 4.68812 18.8398 4.295 18.6333 3.9406C18.4269 3.58619 18.1497 3.27808 17.819 3.03546C17.7435 2.97683 17.6528 2.94105 17.5577 2.93237C17.4625 2.92368 17.3668 2.94246 17.282 2.98646C17.1971 3.02447 17.1252 3.08647 17.0751 3.16482C17.025 3.24318 16.9989 3.33447 17 3.42746V7.92746H21.5C21.5927 7.93013 21.6841 7.90573 21.7632 7.85724C21.8422 7.80876 21.9054 7.73829 21.945 7.65446C21.9898 7.56988 22.0093 7.47423 22.0014 7.37887C21.9934 7.2835 21.9582 7.19243 21.9 7.11646Z" fill="#374957"/>
</g>
<defs>
<clipPath id="clip0_507_2050">
<rect width="24" height="24" fill="white" transform="translate(0 0.92749)"/>
</clipPath>
</defs>
</svg>
