<svg width="24" height="25" viewBox="0 0 24 25" fill="none" xmlns="http://www.w3.org/2000/svg">
<g clip-path="url(#clip0_507_2011)">
<path d="M19 5.92734H16V4.92734C16 4.13169 15.6839 3.36863 15.1213 2.80602C14.5587 2.24341 13.7956 1.92734 13 1.92734H11C10.2044 1.92734 9.44129 2.24341 8.87868 2.80602C8.31607 3.36863 8 4.13169 8 4.92734V5.92734H5C3.67441 5.92893 2.40356 6.45622 1.46622 7.39356C0.528882 8.3309 0.00158786 9.60174 0 10.9273L0 18.9273C0.00158786 20.2529 0.528882 21.5238 1.46622 22.4611C2.40356 23.3985 3.67441 23.9258 5 23.9273H19C20.3256 23.9258 21.5964 23.3985 22.5338 22.4611C23.4711 21.5238 23.9984 20.2529 24 18.9273V10.9273C23.9984 9.60174 23.4711 8.3309 22.5338 7.39356C21.5964 6.45622 20.3256 5.92893 19 5.92734ZM10 4.92734C10 4.66212 10.1054 4.40777 10.2929 4.22023C10.4804 4.03269 10.7348 3.92734 11 3.92734H13C13.2652 3.92734 13.5196 4.03269 13.7071 4.22023C13.8946 4.40777 14 4.66212 14 4.92734V5.92734H10V4.92734ZM22 18.9273C22 19.723 21.6839 20.486 21.1213 21.0487C20.5587 21.6113 19.7956 21.9273 19 21.9273H5C4.20435 21.9273 3.44129 21.6113 2.87868 21.0487C2.31607 20.486 2 19.723 2 18.9273V10.9273C2 10.1317 2.31607 9.36863 2.87868 8.80602C3.44129 8.24341 4.20435 7.92734 5 7.92734H19C19.7956 7.92734 20.5587 8.24341 21.1213 8.80602C21.6839 9.36863 22 10.1317 22 10.9273V18.9273ZM16 14.9273C16 15.1926 15.8946 15.4469 15.7071 15.6344C15.5196 15.822 15.2652 15.9273 15 15.9273H13V17.9273C13 18.1926 12.8946 18.4469 12.7071 18.6344C12.5196 18.822 12.2652 18.9273 12 18.9273C11.7348 18.9273 11.4804 18.822 11.2929 18.6344C11.1054 18.4469 11 18.1926 11 17.9273V15.9273H9C8.73478 15.9273 8.48043 15.822 8.29289 15.6344C8.10536 15.4469 8 15.1926 8 14.9273C8 14.6621 8.10536 14.4078 8.29289 14.2202C8.48043 14.0327 8.73478 13.9273 9 13.9273H11V11.9273C11 11.6621 11.1054 11.4078 11.2929 11.2202C11.4804 11.0327 11.7348 10.9273 12 10.9273C12.2652 10.9273 12.5196 11.0327 12.7071 11.2202C12.8946 11.4078 13 11.6621 13 11.9273V13.9273H15C15.2652 13.9273 15.5196 14.0327 15.7071 14.2202C15.8946 14.4078 16 14.6621 16 14.9273Z" fill="#374957"/>
</g>
<defs>
<clipPath id="clip0_507_2011">
<rect width="24" height="24" fill="white" transform="translate(0 0.92749)"/>
</clipPath>
</defs>
</svg>
