<svg width="24" height="25" viewBox="0 0 24 25" fill="none" xmlns="http://www.w3.org/2000/svg">
<g clip-path="url(#clip0_507_2266)">
<path d="M19.367 15.6545C20.1221 15.3586 20.7739 14.8479 21.2419 14.1855C21.7099 13.5231 21.9734 12.7381 22 11.9275C22 9.30549 19.5 7.57349 15.2 7.07849C15.718 6.48183 16.0022 5.71764 16 4.92749C16 2.49749 13.645 0.92749 10 0.92749C6.355 0.92749 4 2.49749 4 4.92749C4.00731 5.56119 4.18832 6.18074 4.52333 6.7187C4.85834 7.25665 5.33451 7.6924 5.9 7.97849C3.624 8.97949 3 10.5335 3 11.9275C2.99486 12.6784 3.20119 13.4155 3.59538 14.0547C3.98957 14.6938 4.5557 15.209 5.229 15.5415C1.793 16.3075 0 17.7845 0 19.9275C0 23.1985 4.149 24.9275 12 24.9275C19.963 24.9275 24 23.2455 24 19.9275C24 17.8705 22.445 16.4435 19.367 15.6545ZM10 2.92749C11.991 2.92749 14 3.54649 14 4.92749C14 6.30849 11.991 6.92749 10 6.92749C8.009 6.92749 6 6.30849 6 4.92749C6 3.54649 8.009 2.92749 10 2.92749ZM12.5 8.92749C15.96 8.92749 20 9.71349 20 11.9275C20 14.1415 15.96 14.9275 12.5 14.9275C10.245 14.9275 5 14.6355 5 11.9275C5 9.21949 10.245 8.92749 12.5 8.92749ZM12 22.9275C5.925 22.9275 2 21.7495 2 19.9275C2 18.1055 5.925 16.9275 12 16.9275C18.262 16.9275 22 18.0495 22 19.9275C22 21.8055 18.262 22.9275 12 22.9275Z" fill="#374957"/>
</g>
<defs>
<clipPath id="clip0_507_2266">
<rect width="24" height="24" fill="white" transform="translate(0 0.92749)"/>
</clipPath>
</defs>
</svg>
