<svg width="24" height="25" viewBox="0 0 24 25" fill="none" xmlns="http://www.w3.org/2000/svg">
<g clip-path="url(#clip0_507_2256)">
<path d="M12 6.92749C11.2044 6.92749 10.4413 7.24356 9.87868 7.80617C9.31607 8.36878 9 9.13184 9 9.92749V21.9275C9 22.7231 9.31607 23.4862 9.87868 24.0488C10.4413 24.6114 11.2044 24.9275 12 24.9275C12.7956 24.9275 13.5587 24.6114 14.1213 24.0488C14.6839 23.4862 15 22.7231 15 21.9275V9.92749C15 9.13184 14.6839 8.36878 14.1213 7.80617C13.5587 7.24356 12.7956 6.92749 12 6.92749Z" fill="#374957"/>
<path d="M21 0.92749C20.2044 0.92749 19.4413 1.24356 18.8787 1.80617C18.3161 2.36878 18 3.13184 18 3.92749V21.9275C18 22.7231 18.3161 23.4862 18.8787 24.0488C19.4413 24.6114 20.2044 24.9275 21 24.9275C21.7956 24.9275 22.5587 24.6114 23.1213 24.0488C23.6839 23.4862 24 22.7231 24 21.9275V3.92749C24 3.13184 23.6839 2.36878 23.1213 1.80617C22.5587 1.24356 21.7956 0.92749 21 0.92749V0.92749ZM22 21.9275C22 22.1927 21.8946 22.4471 21.7071 22.6346C21.5196 22.8221 21.2652 22.9275 21 22.9275C20.7348 22.9275 20.4804 22.8221 20.2929 22.6346C20.1054 22.4471 20 22.1927 20 21.9275V3.92749C20 3.66227 20.1054 3.40792 20.2929 3.22038C20.4804 3.03285 20.7348 2.92749 21 2.92749C21.2652 2.92749 21.5196 3.03285 21.7071 3.22038C21.8946 3.40792 22 3.66227 22 3.92749V21.9275Z" fill="#374957"/>
<path d="M3 12.9275C2.20435 12.9275 1.44129 13.2436 0.87868 13.8062C0.31607 14.3688 0 15.1318 0 15.9275L0 21.9275C0 22.7231 0.31607 23.4862 0.87868 24.0488C1.44129 24.6114 2.20435 24.9275 3 24.9275C3.79565 24.9275 4.55871 24.6114 5.12132 24.0488C5.68393 23.4862 6 22.7231 6 21.9275V15.9275C6 15.1318 5.68393 14.3688 5.12132 13.8062C4.55871 13.2436 3.79565 12.9275 3 12.9275Z" fill="#374957"/>
</g>
<defs>
<clipPath id="clip0_507_2256">
<rect width="24" height="24" fill="white" transform="translate(0 0.92749)"/>
</clipPath>
</defs>
</svg>
