<svg width="24" height="25" viewBox="0 0 24 25" fill="none" xmlns="http://www.w3.org/2000/svg">
<path d="M17.9998 16.4275C17.8682 16.4282 17.7377 16.403 17.6159 16.3532C17.4941 16.3035 17.3833 16.2302 17.2898 16.1375L12.7098 11.5475C12.6169 11.4538 12.5063 11.3794 12.3844 11.3286C12.2625 11.2778 12.1318 11.2517 11.9998 11.2517C11.8678 11.2517 11.7371 11.2778 11.6152 11.3286C11.4934 11.3794 11.3828 11.4538 11.2898 11.5475L6.70982 16.1375C6.52152 16.3258 6.26612 16.4316 5.99982 16.4316C5.73352 16.4316 5.47812 16.3258 5.28982 16.1375C5.10152 15.9492 4.99573 15.6938 4.99573 15.4275C4.99573 15.2956 5.0217 15.1651 5.07216 15.0432C5.12262 14.9214 5.19658 14.8107 5.28982 14.7175L9.87982 10.1375C10.4498 9.58992 11.2095 9.28412 11.9998 9.28412C12.7902 9.28412 13.5499 9.58992 14.1198 10.1375L18.7098 14.7175C18.8035 14.8104 18.8779 14.921 18.9287 15.0429C18.9795 15.1648 19.0056 15.2955 19.0056 15.4275C19.0056 15.5595 18.9795 15.6902 18.9287 15.8121C18.8779 15.9339 18.8035 16.0445 18.7098 16.1375C18.6164 16.2302 18.5056 16.3035 18.3837 16.3532C18.2619 16.403 18.1314 16.4282 17.9998 16.4275Z" fill="#374957"/>
</svg>
