<svg width="24" height="25" viewBox="0 0 24 25" fill="none" xmlns="http://www.w3.org/2000/svg">
<g clip-path="url(#clip0_507_2081)">
<path d="M22.9422 7.7644L20.7602 5.5814L21.7072 4.6344C21.8027 4.54216 21.8789 4.43181 21.9313 4.30981C21.9837 4.1878 22.0113 4.05658 22.0125 3.9238C22.0136 3.79102 21.9883 3.65935 21.938 3.53645C21.8878 3.41355 21.8135 3.3019 21.7196 3.20801C21.6257 3.11411 21.5141 3.03986 21.3912 2.98958C21.2683 2.9393 21.1366 2.914 21.0038 2.91515C20.871 2.91631 20.7398 2.94389 20.6178 2.9963C20.4958 3.04871 20.3855 3.12489 20.2932 3.2204L19.3462 4.1674L17.1632 1.9854C16.4752 1.32973 15.5612 0.963974 14.6107 0.963974C13.6603 0.963974 12.7463 1.32973 12.0582 1.9854C11.7228 2.32057 11.4567 2.71855 11.2751 3.15661C11.0936 3.59467 11.0001 4.06421 11.0001 4.5384C11.0001 5.01259 11.0936 5.48214 11.2751 5.92019C11.4567 6.35825 11.7228 6.75624 12.0582 7.0914L14.2402 9.2734L8.34623 15.1674L6.16323 12.9854C5.47516 12.3297 4.56117 11.964 3.61073 11.964C2.66028 11.964 1.74629 12.3297 1.05823 12.9854C0.722784 13.3206 0.456681 13.7186 0.275126 14.1566C0.0935702 14.5947 0.00012207 15.0642 0.00012207 15.5384C0.00012207 16.0126 0.0935702 16.4821 0.275126 16.9202C0.456681 17.3583 0.722784 17.7562 1.05823 18.0914L3.24023 20.2734L2.29323 21.2204C2.19772 21.3126 2.12153 21.423 2.06912 21.545C2.01672 21.667 1.98913 21.7982 1.98798 21.931C1.98682 22.0638 2.01212 22.1955 2.0624 22.3184C2.11268 22.4413 2.18694 22.5529 2.28083 22.6468C2.37472 22.7407 2.48638 22.8149 2.60927 22.8652C2.73217 22.9155 2.86385 22.9408 2.99663 22.9397C3.12941 22.9385 3.26063 22.9109 3.38263 22.8585C3.50463 22.8061 3.61498 22.7299 3.70723 22.6344L4.65423 21.6874L6.83723 23.8694C7.17237 24.2047 7.57029 24.4707 8.00826 24.6521C8.44623 24.8336 8.91565 24.927 9.38973 24.927C9.8638 24.927 10.3332 24.8336 10.7712 24.6521C11.2092 24.4707 11.6071 24.2047 11.9422 23.8694C12.2776 23.5343 12.5437 23.1364 12.7253 22.6984C12.9068 22.2605 13.0002 21.791 13.0002 21.3169C13.0002 20.8428 12.9068 20.3733 12.7253 19.9354C12.5437 19.4974 12.2776 19.0995 11.9422 18.7644L9.76023 16.5824L15.6602 10.6874L17.8422 12.8694C18.1774 13.2047 18.5753 13.4707 19.0133 13.6521C19.4512 13.8336 19.9207 13.927 20.3947 13.927C20.8688 13.927 21.3382 13.8336 21.7762 13.6521C22.2142 13.4707 22.6121 13.2047 22.9472 12.8694C23.2826 12.5343 23.5487 12.1364 23.7303 11.6984C23.9118 11.2605 24.0052 10.791 24.0052 10.3169C24.0052 9.84279 23.9118 9.37333 23.7303 8.93536C23.5487 8.49738 23.2826 8.09948 22.9472 7.7644H22.9422ZM11.0002 21.3174C11.0007 21.5289 10.9592 21.7383 10.8781 21.9337C10.7971 22.129 10.6782 22.3063 10.5282 22.4554C10.2217 22.7486 9.8139 22.9123 9.38973 22.9123C8.96555 22.9123 8.55774 22.7486 8.25123 22.4554L2.47223 16.6764C2.17028 16.3745 2.00064 15.9649 2.00064 15.5379C2.00064 15.1109 2.17028 14.7014 2.47223 14.3994C2.77417 14.0975 3.18371 13.9278 3.61073 13.9278C4.03775 13.9278 4.44728 14.0975 4.74923 14.3994L10.5282 20.1784C10.6783 20.3276 10.7973 20.5051 10.8783 20.7006C10.9594 20.8961 11.0008 21.1058 11.0002 21.3174ZM21.5282 11.4554C21.2217 11.7486 20.8139 11.9123 20.3897 11.9123C19.9656 11.9123 19.5577 11.7486 19.2512 11.4554L13.4722 5.6764C13.3227 5.52689 13.2041 5.3494 13.1232 5.15405C13.0423 4.95871 13.0006 4.74934 13.0006 4.5379C13.0006 4.11088 13.1703 3.70135 13.4722 3.3994C13.7742 3.09745 14.1837 2.92782 14.6107 2.92782C15.0377 2.92782 15.4473 3.09745 15.7492 3.3994L21.5282 9.1784C21.6779 9.32784 21.7966 9.50531 21.8776 9.70066C21.9586 9.89602 22.0003 10.1054 22.0003 10.3169C22.0003 10.5284 21.9586 10.7378 21.8776 10.9331C21.7966 11.1285 21.6779 11.306 21.5282 11.4554Z" fill="#374957"/>
</g>
<defs>
<clipPath id="clip0_507_2081">
<rect width="24" height="24" fill="white" transform="translate(0 0.92749)"/>
</clipPath>
</defs>
</svg>
