<svg width="24" height="25" viewBox="0 0 24 25" fill="none" xmlns="http://www.w3.org/2000/svg">
<g clip-path="url(#clip0_507_2202)">
<path d="M23 21.9272C22.7348 21.9272 22.4804 21.8218 22.2929 21.6343C22.1054 21.4467 22 21.1924 22 20.9272V15.9272C21.449 2.65717 2.546 2.66817 2 15.9272V20.9272C2 21.1924 1.89464 21.4467 1.70711 21.6343C1.51957 21.8218 1.26522 21.9272 1 21.9272C0.734784 21.9272 0.48043 21.8218 0.292893 21.6343C0.105357 21.4467 0 21.1924 0 20.9272V15.9272C0.661 0.00317001 23.345 0.0161695 24 15.9272V20.9272C24 21.1924 23.8946 21.4467 23.7071 21.6343C23.5196 21.8218 23.2652 21.9272 23 21.9272ZM20 20.9272V15.9272C19.6 5.32717 4.4 5.33417 4 15.9272V20.9272C4 21.1924 4.10536 21.4467 4.29289 21.6343C4.48043 21.8218 4.73478 21.9272 5 21.9272C5.26522 21.9272 5.51957 21.8218 5.70711 21.6343C5.89464 21.4467 6 21.1924 6 20.9272V15.9272C6.253 7.99517 17.75 8.00117 18 15.9272V20.9272C18 21.1924 18.1054 21.4467 18.2929 21.6343C18.4804 21.8218 18.7348 21.9272 19 21.9272C19.2652 21.9272 19.5196 21.8218 19.7071 21.6343C19.8946 21.4467 20 21.1924 20 20.9272ZM16 20.9272V15.9272C16 14.8663 15.5786 13.8489 14.8284 13.0987C14.0783 12.3486 13.0609 11.9272 12 11.9272C10.9391 11.9272 9.92172 12.3486 9.17157 13.0987C8.42143 13.8489 8 14.8663 8 15.9272V20.9272C8 21.1924 8.10536 21.4467 8.29289 21.6343C8.48043 21.8218 8.73478 21.9272 9 21.9272C9.26522 21.9272 9.51957 21.8218 9.70711 21.6343C9.89464 21.4467 10 21.1924 10 20.9272V15.9272C10 15.3967 10.2107 14.888 10.5858 14.513C10.9609 14.1379 11.4696 13.9272 12 13.9272C12.5304 13.9272 13.0391 14.1379 13.4142 14.513C13.7893 14.888 14 15.3967 14 15.9272V20.9272C14 21.1924 14.1054 21.4467 14.2929 21.6343C14.4804 21.8218 14.7348 21.9272 15 21.9272C15.2652 21.9272 15.5196 21.8218 15.7071 21.6343C15.8946 21.4467 16 21.1924 16 20.9272Z" fill="#374957"/>
</g>
<defs>
<clipPath id="clip0_507_2202">
<rect width="24" height="24" fill="white" transform="translate(0 0.92749)"/>
</clipPath>
</defs>
</svg>
