<svg width="24" height="25" viewBox="0 0 24 25" fill="none" xmlns="http://www.w3.org/2000/svg">
<g clip-path="url(#clip0_507_2186)">
<path d="M21 10.9274H17.693L13.4459 2.49043C13.1878 2.01733 12.8069 1.6225 12.3434 1.34746C11.8799 1.07243 11.3509 0.927332 10.8119 0.927432H10.6299C10.2218 0.926868 9.81917 1.0213 9.45384 1.20324C9.08851 1.38519 8.77055 1.64966 8.5251 1.97573C8.27965 2.3018 8.11345 2.68052 8.03966 3.08192C7.96587 3.48332 7.98651 3.89639 8.09995 4.28843L10.0279 10.9274H7.64395C7.2497 10.9285 6.85916 10.8513 6.49492 10.7004C6.13069 10.5496 5.79998 10.3279 5.52195 10.0484L4.10495 8.62743C3.74277 8.26562 3.27474 8.02859 2.76876 7.95074C2.26278 7.87288 1.74514 7.95824 1.29095 8.19443C1.00991 8.33943 0.76149 8.54037 0.560972 8.78492C0.360454 9.02946 0.212072 9.31243 0.124948 9.61643C0.0285895 9.9426 -0.000884354 10.2849 0.038295 10.6227C0.0774744 10.9605 0.184499 11.287 0.352948 11.5824L1.96695 14.4074C2.40511 15.172 3.03712 15.8076 3.79925 16.25C4.56139 16.6924 5.4267 16.9261 6.30795 16.9274H10.0189L8.35095 21.3744C8.20163 21.7722 8.15093 22.2002 8.20319 22.6218C8.25545 23.0435 8.40911 23.4461 8.65103 23.7954C8.89294 24.1446 9.2159 24.4301 9.59224 24.6272C9.96858 24.8244 10.3871 24.9274 10.8119 24.9274C11.3416 24.9302 11.8624 24.7915 12.3204 24.5254C12.7784 24.2594 13.1569 23.8759 13.4169 23.4144L17.464 16.9274H21C21.7956 16.9274 22.5587 16.6114 23.1213 16.0488C23.6839 15.4861 24 14.7231 24 13.9274C24 13.1318 23.6839 12.3687 23.1213 11.8061C22.5587 11.2435 21.7956 10.9274 21 10.9274ZM10.0249 3.73243C9.99782 3.63861 9.99287 3.53977 10.0105 3.44371C10.0281 3.34765 10.0679 3.257 10.1265 3.17893C10.1852 3.10086 10.2612 3.0375 10.3486 2.99385C10.436 2.9502 10.5323 2.92746 10.6299 2.92743H10.8119C10.9863 2.92593 11.158 2.97056 11.3095 3.05679C11.4611 3.14301 11.5872 3.26778 11.6749 3.41843L15.4549 10.9274H12.1099L10.0249 3.73243ZM21 14.9274H16.909C16.7393 14.9275 16.5724 14.9708 16.424 15.0532C16.2757 15.1356 16.1507 15.2544 16.061 15.3984L11.6899 22.4064C11.6039 22.5641 11.4769 22.6957 11.3224 22.7874C11.1679 22.8791 10.9916 22.9275 10.8119 22.9274C10.7103 22.9275 10.6101 22.9029 10.5201 22.8558C10.43 22.8086 10.3528 22.7403 10.2949 22.6567C10.2371 22.5731 10.2004 22.4767 10.1881 22.3758C10.1757 22.2749 10.188 22.1725 10.2239 22.0774L12.3979 16.2774C12.4545 16.1261 12.4735 15.9634 12.4534 15.8032C12.4334 15.6429 12.3748 15.4899 12.2827 15.3572C12.1906 15.2246 12.0678 15.1162 11.9247 15.0413C11.7816 14.9665 11.6225 14.9274 11.4609 14.9274H6.30795C5.77984 14.9266 5.26131 14.7863 4.80478 14.5208C4.34825 14.2553 3.96989 13.874 3.70795 13.4154L2.08895 10.5894C2.05507 10.5292 2.03347 10.4628 2.0254 10.3941C2.01733 10.3255 2.02296 10.2559 2.04195 10.1894C2.05197 10.1451 2.07122 10.1034 2.09844 10.0671C2.12567 10.0307 2.16026 10.0005 2.19995 9.97843C2.26159 9.94571 2.33017 9.92822 2.39995 9.92743C2.50727 9.92817 2.61014 9.97047 2.68695 10.0454L4.10395 11.4624C4.5678 11.9286 5.11953 12.2981 5.72718 12.5496C6.33483 12.8011 6.98632 12.9295 7.64395 12.9274H21C21.2652 12.9274 21.5195 13.0328 21.7071 13.2203C21.8946 13.4079 22 13.6622 22 13.9274C22 14.1926 21.8946 14.447 21.7071 14.6345C21.5195 14.8221 21.2652 14.9274 21 14.9274Z" fill="#374957"/>
</g>
<defs>
<clipPath id="clip0_507_2186">
<rect width="24" height="24" fill="white" transform="translate(0 0.92749)"/>
</clipPath>
</defs>
</svg>
