<svg width="24" height="25" viewBox="0 0 24 25" fill="none" xmlns="http://www.w3.org/2000/svg">
<g clip-path="url(#clip0_507_2150)">
<path d="M18.757 16.9278C18.0683 16.9262 17.3862 17.061 16.7499 17.3245C16.1137 17.588 15.5359 17.9749 15.05 18.4629C13.638 19.8829 11.9584 21.0087 10.1083 21.7752C8.25826 22.5416 6.27453 22.9334 4.272 22.9279H3.122C2.9001 22.9282 2.6831 22.8626 2.49848 22.7396C2.31385 22.6165 2.16991 22.4414 2.08489 22.2364C1.99986 22.0314 1.97758 21.8059 2.02086 21.5882C2.06413 21.3706 2.17103 21.1707 2.328 21.0139L3.021 20.3209C4.94382 20.2217 6.76131 19.4121 8.121 18.0489L12.447 13.7278C12.8691 13.8413 13.3023 13.9084 13.739 13.9278C13.825 13.9278 13.912 13.9278 14 13.9278C15.5922 13.9266 17.1189 13.2945 18.246 12.1698L19.246 11.1698C19.8332 10.5816 20.2919 9.87799 20.5933 9.10343C20.8947 8.32888 21.0322 7.50023 20.997 6.66985C20.9636 5.83581 20.755 5.01815 20.3848 4.27005C20.0145 3.52196 19.4909 2.86021 18.848 2.32785C17.6469 1.37652 16.1351 0.905392 14.6062 1.00592C13.0773 1.10644 11.6402 1.77145 10.574 2.87185L9.941 3.50585C9.17596 4.26814 8.61868 5.21349 8.32217 6.25198C8.02566 7.29046 7.99978 8.38754 8.247 9.43885L3.879 13.8068C2.51507 15.166 1.70527 16.9838 1.607 18.9069L0.913997 19.5999C0.477409 20.0364 0.180103 20.5926 0.0596908 21.1982C-0.0607217 21.8037 0.00116922 22.4313 0.237534 23.0017C0.473899 23.5721 0.874117 24.0595 1.38756 24.4024C1.901 24.7452 2.5046 24.9281 3.122 24.9279H4.272C6.53716 24.934 8.78106 24.4908 10.8738 23.624C12.9666 22.7572 14.8666 21.4839 16.464 19.8779C16.9175 19.4244 17.4952 19.1156 18.1242 18.9905C18.7531 18.8654 19.405 18.9295 19.9975 19.1748C20.59 19.4201 21.0965 19.8356 21.4529 20.3687C21.8094 20.9018 21.9997 21.5286 22 22.1699V23.9279C22 24.1931 22.1054 24.4474 22.2929 24.635C22.4804 24.8225 22.7348 24.9279 23 24.9279C23.2652 24.9279 23.5196 24.8225 23.7071 24.635C23.8946 24.4474 24 24.1931 24 23.9279V22.1699C23.9981 20.78 23.4451 19.4476 22.4622 18.4649C21.4794 17.4822 20.1469 16.9294 18.757 16.9278ZM11.357 4.91585L11.99 4.28185C12.8114 3.45651 13.9256 2.98924 15.09 2.98185C15.9914 2.97306 16.8668 3.28376 17.561 3.85885C17.9905 4.2135 18.3405 4.65452 18.5884 5.15328C18.8364 5.65204 18.9766 6.19737 19 6.75385C19.0231 7.30737 18.9313 7.85968 18.7305 8.37599C18.5296 8.8923 18.2241 9.36144 17.833 9.75385L16.833 10.7538C16.4401 11.1468 15.9697 11.4535 15.4517 11.6545C14.9336 11.8555 14.3794 11.9464 13.8244 11.9214C13.2693 11.8964 12.7255 11.756 12.2277 11.5092C11.7299 11.2623 11.2889 10.9145 10.933 10.4879C10.301 9.67165 9.99434 8.65 10.0723 7.62068C10.1503 6.59136 10.6073 5.62757 11.355 4.91585H11.357ZM5.293 15.2208L9.129 11.3839C9.22 11.5139 9.293 11.6538 9.396 11.7768C9.72793 12.169 10.1079 12.5177 10.527 12.8148L6.707 16.6348C5.88483 17.4596 4.83303 18.0172 3.689 18.2348C3.9085 17.0918 4.46749 16.0414 5.293 15.2208Z" fill="#374957"/>
</g>
<defs>
<clipPath id="clip0_507_2150">
<rect width="24" height="24" fill="white" transform="translate(0 0.92749)"/>
</clipPath>
</defs>
</svg>
