<svg width="24" height="25" viewBox="0 0 24 25" fill="none" xmlns="http://www.w3.org/2000/svg">
<g clip-path="url(#clip0_507_2220)">
<path d="M21.4601 5.06136C21.2579 3.9026 20.653 2.85246 19.7522 2.09613C18.8513 1.3398 17.7123 0.925877 16.5361 0.927359H7.45108C6.2739 0.925569 5.13396 1.33985 4.2326 2.09702C3.33125 2.85419 2.72647 3.90553 2.52508 5.06536L0.0760857 19.0654C-0.049678 19.7839 -0.016685 20.5213 0.17275 21.2258C0.362185 21.9302 0.703473 22.5847 1.17267 23.1433C1.64187 23.7019 2.2276 24.151 2.88879 24.4592C3.54998 24.7674 4.27059 24.9272 5.00008 24.9274H19.0001C19.73 24.9274 20.4512 24.7677 21.1128 24.4593C21.7745 24.1509 22.3606 23.7014 22.8299 23.1424C23.2993 22.5833 23.6406 21.9283 23.8298 21.2232C24.019 20.5182 24.0515 19.7803 23.9251 19.0614L21.4601 5.06136ZM21.3001 21.8564C21.0182 22.1921 20.6662 22.4619 20.2689 22.647C19.8715 22.832 19.4384 22.9277 19.0001 22.9274H5.00008C4.56226 22.9274 4.12974 22.8315 3.73289 22.6466C3.33603 22.4617 2.98447 22.1921 2.70287 21.8569C2.42127 21.5216 2.21647 21.1288 2.10283 20.706C1.9892 20.2832 1.96949 19.8406 2.04508 19.4094L4.49408 5.40936C4.61601 4.71379 4.97941 4.08353 5.5203 3.62952C6.06119 3.17552 6.7449 2.92687 7.45108 2.92736H16.5361C17.2414 2.9275 17.9242 3.17618 18.4644 3.62972C19.0047 4.08327 19.3678 4.71266 19.4901 5.40736L21.9531 19.4074C22.0295 19.8385 22.0107 20.2811 21.8979 20.7042C21.7851 21.1273 21.581 21.5205 21.3001 21.8564ZM13.0001 5.92736V7.92736C13.0001 8.19257 12.8947 8.44693 12.7072 8.63447C12.5196 8.822 12.2653 8.92736 12.0001 8.92736C11.7349 8.92736 11.4805 8.822 11.293 8.63447C11.1054 8.44693 11.0001 8.19257 11.0001 7.92736V5.92736C11.0001 5.66214 11.1054 5.40779 11.293 5.22025C11.4805 5.03272 11.7349 4.92736 12.0001 4.92736C12.2653 4.92736 12.5196 5.03272 12.7072 5.22025C12.8947 5.40779 13.0001 5.66214 13.0001 5.92736ZM13.0001 11.9274V13.9274C13.0001 14.1926 12.8947 14.4469 12.7072 14.6345C12.5196 14.822 12.2653 14.9274 12.0001 14.9274C11.7349 14.9274 11.4805 14.822 11.293 14.6345C11.1054 14.4469 11.0001 14.1926 11.0001 13.9274V11.9274C11.0001 11.6621 11.1054 11.4078 11.293 11.2203C11.4805 11.0327 11.7349 10.9274 12.0001 10.9274C12.2653 10.9274 12.5196 11.0327 12.7072 11.2203C12.8947 11.4078 13.0001 11.6621 13.0001 11.9274ZM13.0001 17.9274V19.9274C13.0001 20.1926 12.8947 20.4469 12.7072 20.6345C12.5196 20.822 12.2653 20.9274 12.0001 20.9274C11.7349 20.9274 11.4805 20.822 11.293 20.6345C11.1054 20.4469 11.0001 20.1926 11.0001 19.9274V17.9274C11.0001 17.6621 11.1054 17.4078 11.293 17.2203C11.4805 17.0327 11.7349 16.9274 12.0001 16.9274C12.2653 16.9274 12.5196 17.0327 12.7072 17.2203C12.8947 17.4078 13.0001 17.6621 13.0001 17.9274Z" fill="#374957"/>
</g>
<defs>
<clipPath id="clip0_507_2220">
<rect width="24" height="24" fill="white" transform="translate(0 0.92749)"/>
</clipPath>
</defs>
</svg>
