<svg width="24" height="25" viewBox="0 0 24 25" fill="none" xmlns="http://www.w3.org/2000/svg">
<g clip-path="url(#clip0_507_1944)">
<path d="M23 22.9275H5C4.20435 22.9275 3.44129 22.6114 2.87868 22.0488C2.31607 21.4862 2 20.7231 2 19.9275V1.92749C2 1.66227 1.89464 1.40792 1.70711 1.22038C1.51957 1.03285 1.26522 0.92749 1 0.92749C0.734784 0.92749 0.48043 1.03285 0.292893 1.22038C0.105357 1.40792 0 1.66227 0 1.92749L0 19.9275C0.00158786 21.2531 0.528882 22.5239 1.46622 23.4613C2.40356 24.3986 3.67441 24.9259 5 24.9275H23C23.2652 24.9275 23.5196 24.8221 23.7071 24.6346C23.8946 24.4471 24 24.1927 24 23.9275C24 23.6623 23.8946 23.4079 23.7071 23.2204C23.5196 23.0328 23.2652 22.9275 23 22.9275Z" fill="#374957"/>
<path d="M6.00012 20.9274C6.26534 20.9274 6.51969 20.8221 6.70723 20.6345C6.89476 20.447 7.00012 20.1926 7.00012 19.9274V12.9274C7.00012 12.6622 6.89476 12.4079 6.70723 12.2203C6.51969 12.0328 6.26534 11.9274 6.00012 11.9274C5.7349 11.9274 5.48055 12.0328 5.29301 12.2203C5.10548 12.4079 5.00012 12.6622 5.00012 12.9274V19.9274C5.00012 20.1926 5.10548 20.447 5.29301 20.6345C5.48055 20.8221 5.7349 20.9274 6.00012 20.9274Z" fill="#374957"/>
<path d="M9.99988 10.9275V19.9275C9.99988 20.1927 10.1052 20.447 10.2928 20.6346C10.4803 20.8221 10.7347 20.9275 10.9999 20.9275C11.2651 20.9275 11.5195 20.8221 11.707 20.6346C11.8945 20.447 11.9999 20.1927 11.9999 19.9275V10.9275C11.9999 10.6623 11.8945 10.4079 11.707 10.2204C11.5195 10.0328 11.2651 9.92749 10.9999 9.92749C10.7347 9.92749 10.4803 10.0328 10.2928 10.2204C10.1052 10.4079 9.99988 10.6623 9.99988 10.9275Z" fill="#374957"/>
<path d="M15 13.9275V19.9275C15 20.1927 15.1054 20.447 15.2929 20.6346C15.4804 20.8221 15.7348 20.9275 16 20.9275C16.2652 20.9275 16.5196 20.8221 16.7071 20.6346C16.8947 20.447 17 20.1927 17 19.9275V13.9275C17 13.6623 16.8947 13.4079 16.7071 13.2204C16.5196 13.0328 16.2652 12.9275 16 12.9275C15.7348 12.9275 15.4804 13.0328 15.2929 13.2204C15.1054 13.4079 15 13.6623 15 13.9275Z" fill="#374957"/>
<path d="M20.0001 9.92743V19.9274C20.0001 20.1926 20.1055 20.447 20.293 20.6345C20.4806 20.8221 20.7349 20.9274 21.0001 20.9274C21.2653 20.9274 21.5197 20.8221 21.7072 20.6345C21.8948 20.447 22.0001 20.1926 22.0001 19.9274V9.92743C22.0001 9.66221 21.8948 9.40786 21.7072 9.22032C21.5197 9.03279 21.2653 8.92743 21.0001 8.92743C20.7349 8.92743 20.4806 9.03279 20.293 9.22032C20.1055 9.40786 20.0001 9.66221 20.0001 9.92743Z" fill="#374957"/>
<path d="M5.99979 9.92741C6.26498 9.92735 6.51929 9.82196 6.70679 9.63441L10.2928 6.04841C10.4834 5.86683 10.7365 5.76555 10.9998 5.76555C11.263 5.76555 11.5162 5.86683 11.7068 6.04841L13.8788 8.22041C14.4414 8.78282 15.2043 9.09877 15.9998 9.09877C16.7953 9.09877 17.5582 8.78282 18.1208 8.22041L23.7068 2.63441C23.8889 2.44581 23.9897 2.1932 23.9875 1.93101C23.9852 1.66881 23.88 1.418 23.6946 1.23259C23.5092 1.04718 23.2584 0.942013 22.9962 0.939735C22.734 0.937457 22.4814 1.03825 22.2928 1.22041L16.7068 6.80541C16.5193 6.99288 16.265 7.0982 15.9998 7.0982C15.7346 7.0982 15.4803 6.99288 15.2928 6.80541L13.1208 4.63441C12.5582 4.072 11.7953 3.75605 10.9998 3.75605C10.2043 3.75605 9.44137 4.072 8.87879 4.63441L5.29279 8.22041C5.15298 8.36026 5.05777 8.53842 5.0192 8.73238C4.98064 8.92633 5.00044 9.12736 5.07611 9.31006C5.15178 9.49276 5.27992 9.64893 5.44433 9.75881C5.60874 9.8687 5.80204 9.92737 5.99979 9.92741Z" fill="#374957"/>
</g>
<defs>
<clipPath id="clip0_507_1944">
<rect width="24" height="24" fill="white" transform="translate(0 0.92749)"/>
</clipPath>
</defs>
</svg>
