<svg width="24" height="25" viewBox="0 0 24 25" fill="none" xmlns="http://www.w3.org/2000/svg">
<g clip-path="url(#clip0_507_2274)">
<path d="M23.8358 9.72181C23.6313 9.07071 23.2226 8.50272 22.6703 8.10184C22.1179 7.70097 21.4513 7.48848 20.7688 7.49581H16.3998L15.0728 3.35981C14.8641 2.70877 14.4541 2.14082 13.9018 1.73788C13.3495 1.33493 12.6835 1.1178 11.9998 1.1178C11.3162 1.1178 10.6502 1.33493 10.0979 1.73788C9.54556 2.14082 9.1355 2.70877 8.92683 3.35981L7.59983 7.49581H3.23083C2.55057 7.49678 1.88802 7.7127 1.33781 8.11272C0.787595 8.51274 0.377867 9.0764 0.167148 9.7232C-0.0435712 10.37 -0.0445039 11.0668 0.164483 11.7142C0.37347 12.3616 0.781687 12.9263 1.33083 13.3278L4.88683 15.9278L3.53483 20.1148C3.31634 20.7642 3.31357 21.4668 3.52694 22.1179C3.7403 22.769 4.15837 23.3337 4.71883 23.7278C5.26968 24.1346 5.93722 24.3525 6.62198 24.3491C7.30674 24.3457 7.97207 24.1211 8.51883 23.7088L11.9998 21.1468L15.4818 23.7058C16.0317 24.1103 16.6956 24.3299 17.3782 24.3333C18.0608 24.3366 18.7268 24.1234 19.2806 23.7243C19.8344 23.3252 20.2473 22.7609 20.4601 22.1123C20.6729 21.4637 20.6746 20.7644 20.4648 20.1148L19.1128 15.9278L22.6728 13.3278C23.2282 12.9314 23.6412 12.3666 23.8507 11.7172C24.0602 11.0677 24.055 10.3681 23.8358 9.72181ZM21.4928 11.7128L17.3488 14.7418C17.1786 14.866 17.052 15.0407 16.987 15.2411C16.922 15.4416 16.9219 15.6574 16.9868 15.8578L18.5618 20.7278C18.6415 20.9748 18.6408 21.2407 18.5599 21.4873C18.4789 21.7339 18.3219 21.9485 18.1113 22.1002C17.9007 22.2519 17.6474 22.3329 17.3878 22.3316C17.1283 22.3302 16.8759 22.2467 16.6668 22.0928L12.5918 19.0928C12.4202 18.9667 12.2128 18.8988 11.9998 18.8988C11.7869 18.8988 11.5795 18.9667 11.4078 19.0928L7.33283 22.0928C7.12391 22.2487 6.87076 22.3341 6.61009 22.3364C6.34942 22.3388 6.09477 22.2581 5.88306 22.106C5.67134 21.9539 5.51358 21.7383 5.43262 21.4905C5.35167 21.2427 5.35174 20.9756 5.43283 20.7278L7.01283 15.8578C7.07774 15.6574 7.0777 15.4416 7.01269 15.2411C6.94768 15.0407 6.82104 14.866 6.65083 14.7418L2.50683 11.7128C2.29813 11.56 2.14306 11.3452 2.06377 11.099C1.98448 10.8528 1.98502 10.5878 2.06531 10.3419C2.14561 10.096 2.30155 9.88182 2.51087 9.72986C2.72019 9.57791 2.97217 9.49599 3.23083 9.49581H8.33083C8.54254 9.4958 8.74879 9.4286 8.91988 9.30389C9.09096 9.17917 9.21804 9.00337 9.28283 8.80181L10.8328 3.97081C10.9124 3.7236 11.0683 3.508 11.2782 3.35506C11.4881 3.20212 11.7411 3.11972 12.0008 3.11972C12.2605 3.11972 12.5135 3.20212 12.7234 3.35506C12.9333 3.508 13.0893 3.7236 13.1688 3.97081L14.7188 8.80181C14.7836 9.00337 14.9107 9.17917 15.0818 9.30389C15.2529 9.4286 15.4591 9.4958 15.6708 9.49581H20.7708C21.0295 9.49599 21.2815 9.57791 21.4908 9.72986C21.7001 9.88182 21.856 10.096 21.9363 10.3419C22.0166 10.5878 22.0172 10.8528 21.9379 11.099C21.8586 11.3452 21.7035 11.56 21.4948 11.7128H21.4928Z" fill="#374957"/>
</g>
<defs>
<clipPath id="clip0_507_2274">
<rect width="24" height="24" fill="white" transform="translate(0 0.92749)"/>
</clipPath>
</defs>
</svg>
