<svg width="24" height="25" viewBox="0 0 24 25" fill="none" xmlns="http://www.w3.org/2000/svg">
<g clip-path="url(#clip0_507_2027)">
<path d="M24 10.9275V19.9275C23.9984 21.2531 23.4711 22.5239 22.5338 23.4613C21.5964 24.3986 20.3256 24.9259 19 24.9275H5C3.67441 24.9259 2.40356 24.3986 1.46622 23.4613C0.528882 22.5239 0.00158786 21.2531 0 19.9275L0 8.92749C0.00158786 7.6019 0.528882 6.33105 1.46622 5.39371C2.40356 4.45637 3.67441 3.92908 5 3.92749H13C13.2652 3.92749 13.5196 4.03285 13.7071 4.22038C13.8946 4.40792 14 4.66227 14 4.92749C14 5.19271 13.8946 5.44706 13.7071 5.6346C13.5196 5.82213 13.2652 5.92749 13 5.92749H5C4.45621 5.92899 3.92312 6.07877 3.45812 6.3607C2.99311 6.64263 2.6138 7.04603 2.361 7.52749L9.878 15.0455C10.4417 15.6066 11.2047 15.9215 12 15.9215C12.7953 15.9215 13.5583 15.6066 14.122 15.0455L17.943 11.2275C18.1316 11.0453 18.3842 10.9445 18.6464 10.9468C18.9086 10.9491 19.1594 11.0543 19.3448 11.2397C19.5302 11.4251 19.6354 11.6759 19.6377 11.9381C19.64 12.2003 19.5392 12.4529 19.357 12.6415L15.536 16.4635C14.5972 17.3995 13.3257 17.9251 12 17.9251C10.6743 17.9251 9.40276 17.3995 8.464 16.4635L2 9.99849V19.9275C2 20.7231 2.31607 21.4862 2.87868 22.0488C3.44129 22.6114 4.20435 22.9275 5 22.9275H19C19.7956 22.9275 20.5587 22.6114 21.1213 22.0488C21.6839 21.4862 22 20.7231 22 19.9275V10.9275C22 10.6623 22.1054 10.4079 22.2929 10.2204C22.4804 10.0328 22.7348 9.92749 23 9.92749C23.2652 9.92749 23.5196 10.0328 23.7071 10.2204C23.8946 10.4079 24 10.6623 24 10.9275ZM17 5.92749H19V7.92749C19 8.19271 19.1054 8.44706 19.2929 8.6346C19.4804 8.82213 19.7348 8.92749 20 8.92749C20.2652 8.92749 20.5196 8.82213 20.7071 8.6346C20.8946 8.44706 21 8.19271 21 7.92749V5.92749H23C23.2652 5.92749 23.5196 5.82213 23.7071 5.6346C23.8946 5.44706 24 5.19271 24 4.92749C24 4.66227 23.8946 4.40792 23.7071 4.22038C23.5196 4.03285 23.2652 3.92749 23 3.92749H21V1.92749C21 1.66227 20.8946 1.40792 20.7071 1.22038C20.5196 1.03285 20.2652 0.92749 20 0.92749C19.7348 0.92749 19.4804 1.03285 19.2929 1.22038C19.1054 1.40792 19 1.66227 19 1.92749V3.92749H17C16.7348 3.92749 16.4804 4.03285 16.2929 4.22038C16.1054 4.40792 16 4.66227 16 4.92749C16 5.19271 16.1054 5.44706 16.2929 5.6346C16.4804 5.82213 16.7348 5.92749 17 5.92749Z" fill="#374957"/>
</g>
<defs>
<clipPath id="clip0_507_2027">
<rect width="24" height="24" fill="white" transform="translate(0 0.92749)"/>
</clipPath>
</defs>
</svg>
