<svg width="24" height="25" viewBox="0 0 24 25" fill="none" xmlns="http://www.w3.org/2000/svg">
<path d="M14.9998 17.9274C14.9998 18.1926 14.8945 18.4469 14.7069 18.6345C14.5194 18.822 14.2651 18.9274 13.9998 18.9274H9.99984C9.73462 18.9274 9.48027 18.822 9.29273 18.6345C9.10519 18.4469 8.99984 18.1926 8.99984 17.9274C8.99984 17.6622 9.10519 17.4078 9.29273 17.2203C9.48027 17.0327 9.73462 16.9274 9.99984 16.9274H13.9998C14.2651 16.9274 14.5194 17.0327 14.7069 17.2203C14.8945 17.4078 14.9998 17.6622 14.9998 17.9274ZM14.7068 8.22039C14.5193 8.03292 14.265 7.9276 13.9998 7.9276C13.7347 7.9276 13.4804 8.03292 13.2928 8.22039L11.9998 9.51339L10.7068 8.22039C10.6146 8.12488 10.5042 8.0487 10.3822 7.99629C10.2602 7.94388 10.129 7.91629 9.99624 7.91514C9.86346 7.91398 9.73178 7.93929 9.60888 7.98957C9.48599 8.03985 9.37434 8.1141 9.28044 8.20799C9.18655 8.30189 9.1123 8.41354 9.06202 8.53643C9.01173 8.65933 8.98643 8.79101 8.98759 8.92379C8.98874 9.05657 9.01633 9.18779 9.06874 9.30979C9.12114 9.43179 9.19733 9.54214 9.29284 9.63439L10.5858 10.9274L9.29284 12.2204C9.19733 12.3126 9.12114 12.423 9.06874 12.545C9.01633 12.667 8.98874 12.7982 8.98759 12.931C8.98643 13.0638 9.01173 13.1954 9.06202 13.3183C9.1123 13.4412 9.18655 13.5529 9.28044 13.6468C9.37434 13.7407 9.48599 13.8149 9.60888 13.8652C9.73178 13.9155 9.86346 13.9408 9.99624 13.9396C10.129 13.9385 10.2602 13.9109 10.3822 13.8585C10.5042 13.8061 10.6146 13.7299 10.7068 13.6344L11.9998 12.3414L13.2928 13.6344C13.4814 13.8165 13.734 13.9173 13.9962 13.9151C14.2584 13.9128 14.5092 13.8076 14.6947 13.6222C14.8801 13.4368 14.9852 13.186 14.9875 12.9238C14.9898 12.6616 14.889 12.409 14.7068 12.2204L13.4138 10.9274L14.7068 9.63439C14.8943 9.44686 14.9996 9.19255 14.9996 8.92739C14.9996 8.66222 14.8943 8.40792 14.7068 8.22039ZM21.9998 16.9274H17.9998C17.7346 16.9274 17.4803 17.0327 17.2927 17.2203C17.1052 17.4078 16.9998 17.6622 16.9998 17.9274C16.9998 18.1926 17.1052 18.4469 17.2927 18.6345C17.4803 18.822 17.7346 18.9274 17.9998 18.9274H21.9998C22.2651 18.9274 22.5194 18.822 22.7069 18.6345C22.8945 18.4469 22.9998 18.1926 22.9998 17.9274C22.9998 17.6622 22.8945 17.4078 22.7069 17.2203C22.5194 17.0327 22.2651 16.9274 21.9998 16.9274ZM21.4138 10.9274L22.7068 9.63439C22.8023 9.54214 22.8785 9.43179 22.9309 9.30979C22.9833 9.18779 23.0109 9.05657 23.0121 8.92379C23.0132 8.79101 22.9879 8.65933 22.9377 8.53643C22.8874 8.41354 22.8131 8.30189 22.7192 8.20799C22.6253 8.1141 22.5137 8.03985 22.3908 7.98957C22.2679 7.93929 22.1362 7.91398 22.0034 7.91514C21.8707 7.91629 21.7394 7.94388 21.6174 7.99629C21.4954 8.0487 21.3851 8.12488 21.2928 8.22039L19.9998 9.51339L18.7068 8.22039C18.6146 8.12488 18.5042 8.0487 18.3822 7.99629C18.2602 7.94388 18.129 7.91629 17.9962 7.91514C17.8635 7.91398 17.7318 7.93929 17.6089 7.98957C17.486 8.03985 17.3743 8.1141 17.2804 8.20799C17.1866 8.30189 17.1123 8.41354 17.062 8.53643C17.0117 8.65933 16.9864 8.79101 16.9876 8.92379C16.9887 9.05657 17.0163 9.18779 17.0687 9.30979C17.1211 9.43179 17.1973 9.54214 17.2928 9.63439L18.5858 10.9274L17.2928 12.2204C17.1973 12.3126 17.1211 12.423 17.0687 12.545C17.0163 12.667 16.9887 12.7982 16.9876 12.931C16.9864 13.0638 17.0117 13.1954 17.062 13.3183C17.1123 13.4412 17.1866 13.5529 17.2804 13.6468C17.3743 13.7407 17.486 13.8149 17.6089 13.8652C17.7318 13.9155 17.8635 13.9408 17.9962 13.9396C18.129 13.9385 18.2602 13.9109 18.3822 13.8585C18.5042 13.8061 18.6146 13.7299 18.7068 13.6344L19.9998 12.3414L21.2928 13.6344C21.4814 13.8165 21.734 13.9173 21.9962 13.9151C22.2584 13.9128 22.5092 13.8076 22.6947 13.6222C22.8801 13.4368 22.9852 13.186 22.9875 12.9238C22.9898 12.6616 22.889 12.409 22.7068 12.2204L21.4138 10.9274ZM5.99984 16.9274H1.99984C1.73462 16.9274 1.48027 17.0327 1.29273 17.2203C1.10519 17.4078 0.999837 17.6622 0.999837 17.9274C0.999837 18.1926 1.10519 18.4469 1.29273 18.6345C1.48027 18.822 1.73462 18.9274 1.99984 18.9274H5.99984C6.26505 18.9274 6.51941 18.822 6.70694 18.6345C6.89448 18.4469 6.99984 18.1926 6.99984 17.9274C6.99984 17.6622 6.89448 17.4078 6.70694 17.2203C6.51941 17.0327 6.26505 16.9274 5.99984 16.9274ZM6.70684 8.22039C6.51931 8.03292 6.265 7.9276 5.99984 7.9276C5.73467 7.9276 5.48036 8.03292 5.29284 8.22039L3.99984 9.51339L2.70684 8.22039C2.61459 8.12488 2.50425 8.0487 2.38224 7.99629C2.26024 7.94388 2.12902 7.91629 1.99624 7.91514C1.86346 7.91398 1.73178 7.93929 1.60888 7.98957C1.48599 8.03985 1.37433 8.1141 1.28044 8.20799C1.18655 8.30189 1.1123 8.41354 1.06202 8.53643C1.01173 8.65933 0.986433 8.79101 0.987587 8.92379C0.98874 9.05657 1.01633 9.18779 1.06874 9.30979C1.12114 9.43179 1.19733 9.54214 1.29284 9.63439L2.58584 10.9274L1.29284 12.2204C1.19733 12.3126 1.12114 12.423 1.06874 12.545C1.01633 12.667 0.98874 12.7982 0.987587 12.931C0.986433 13.0638 1.01173 13.1954 1.06202 13.3183C1.1123 13.4412 1.18655 13.5529 1.28044 13.6468C1.37433 13.7407 1.48599 13.8149 1.60888 13.8652C1.73178 13.9155 1.86346 13.9408 1.99624 13.9396C2.12902 13.9385 2.26024 13.9109 2.38224 13.8585C2.50425 13.8061 2.61459 13.7299 2.70684 13.6344L3.99984 12.3414L5.29284 13.6344C5.38508 13.7299 5.49543 13.8061 5.61743 13.8585C5.73944 13.9109 5.87066 13.9385 6.00344 13.9396C6.13621 13.9408 6.26789 13.9155 6.39079 13.8652C6.51369 13.8149 6.62534 13.7407 6.71923 13.6468C6.81312 13.5529 6.88738 13.4412 6.93766 13.3183C6.98794 13.1954 7.01324 13.0638 7.01209 12.931C7.01093 12.7982 6.98335 12.667 6.93094 12.545C6.87853 12.423 6.80235 12.3126 6.70684 12.2204L5.41384 10.9274L6.70684 9.63439C6.89431 9.44686 6.99962 9.19255 6.99962 8.92739C6.99962 8.66222 6.89431 8.40792 6.70684 8.22039Z" fill="#374957"/>
</svg>
