<svg width="24" height="25" viewBox="0 0 24 25" fill="none" xmlns="http://www.w3.org/2000/svg">
<g clip-path="url(#clip0_507_2114)">
<path d="M13.0002 0.927483C6.9352 0.927483 2.0002 4.96448 2.0002 9.92748C2.00506 11.0001 2.23859 12.0593 2.6852 13.0345C2.33336 13.455 2.10616 13.9655 2.02929 14.5084C1.95242 15.0513 2.02894 15.6048 2.2502 16.1065C0.8928 17.3532 0.0839072 19.0864 0.000197017 20.9275C-0.0152887 21.457 0.0775871 21.984 0.273125 22.4764C0.468663 22.9687 0.762738 23.4158 1.1373 23.7904C1.51187 24.1649 1.95903 24.459 2.45133 24.6546C2.94364 24.8501 3.47071 24.943 4.0002 24.9275C4.26541 24.9285 4.52019 24.8242 4.70848 24.6374C4.89676 24.4506 5.00314 24.1967 5.0042 23.9315C5.00526 23.6663 4.90092 23.4115 4.71413 23.2232C4.52735 23.0349 4.27341 22.9285 4.0082 22.9275C3.74053 22.9455 3.47209 22.9062 3.22083 22.8122C2.96957 22.7182 2.74127 22.5716 2.55119 22.3823C2.36111 22.193 2.21363 21.9653 2.11861 21.7144C2.02359 21.4635 1.98322 21.1952 2.0002 20.9275C2.09033 19.609 2.69472 18.3787 3.6832 17.5015C4.79583 17.8293 5.95394 17.9762 7.1132 17.9365C7.4132 17.9365 7.6902 17.9295 7.9562 17.9205C9.55406 18.5875 11.2687 18.9298 13.0002 18.9275C19.0652 18.9275 24.0002 14.8905 24.0002 9.92748C24.0002 4.96448 19.0652 0.927483 13.0002 0.927483ZM4.2902 15.6155C4.1978 15.5238 4.12446 15.4148 4.07441 15.2946C4.02437 15.1745 3.9986 15.0456 3.9986 14.9155C3.9986 14.7853 4.02437 14.6565 4.07441 14.5363C4.12446 14.4162 4.1978 14.3071 4.2902 14.2155C4.38179 14.123 4.49081 14.0495 4.61096 13.9994C4.73111 13.9493 4.86001 13.9235 4.9902 13.9235C5.12038 13.9235 5.24928 13.9493 5.36943 13.9994C5.48958 14.0495 5.59861 14.123 5.6902 14.2155C6.1061 14.7424 6.45759 15.3172 6.7372 15.9275C5.90986 15.9602 5.08285 15.8548 4.2902 15.6155ZM13.0002 16.9275C11.6657 16.9265 10.3423 16.6854 9.0932 16.2155C8.58819 14.9923 7.91759 13.8442 7.1002 12.8035C6.74842 12.4647 6.32023 12.2156 5.85184 12.0772C5.38344 11.9388 4.88862 11.9152 4.4092 12.0085C4.14 11.3477 4.00112 10.641 4.0002 9.92748C4.0002 6.06848 8.0372 2.92748 13.0002 2.92748C17.9632 2.92748 22.0002 6.06848 22.0002 9.92748C22.0002 13.7865 17.9632 16.9275 13.0002 16.9275Z" fill="#374957"/>
</g>
<defs>
<clipPath id="clip0_507_2114">
<rect width="24" height="24" fill="white" transform="translate(0 0.92749)"/>
</clipPath>
</defs>
</svg>
