<svg width="24" height="25" viewBox="0 0 24 25" fill="none" xmlns="http://www.w3.org/2000/svg">
<g clip-path="url(#clip0_507_1943)">
<path d="M24.0002 12.9106C23.9981 12.0965 23.7472 11.3025 23.2813 10.635C22.8154 9.96747 22.1566 9.45825 21.3932 9.17555L21.3552 9.08455C20.3631 6.65799 18.4639 4.71393 16.0612 3.66555L15.7322 3.52155C15.4489 2.76047 14.9397 2.10421 14.2728 1.64082C13.6059 1.17743 12.8133 0.929077 12.0012 0.929077C11.1891 0.929077 10.3964 1.17743 9.72954 1.64082C9.06265 2.10421 8.55342 2.76047 8.27018 3.52155L7.85218 3.70955C5.47072 4.7912 3.59638 6.74718 2.61718 9.17255C1.85252 9.45115 1.19165 9.95746 0.723628 10.6232C0.255607 11.289 0.00293514 12.0823 -0.000334082 12.8961C-0.00360331 13.7099 0.242687 14.5052 0.705344 15.1747C1.168 15.8442 1.82478 16.3558 2.58718 16.6406L2.71518 16.9406C3.71853 19.2694 5.56122 21.1357 7.87718 22.1686L8.27018 22.3446C8.55422 23.1046 9.06364 23.7596 9.73025 24.2221C10.3969 24.6847 11.1888 24.9325 12.0002 24.9325C12.8115 24.9325 13.6035 24.6847 14.2701 24.2221C14.9367 23.7596 15.4461 23.1046 15.7302 22.3446L16.0972 22.1816C18.5198 21.0983 20.4244 19.113 21.4062 16.6476C22.167 16.3619 22.8227 15.8513 23.2861 15.1837C23.7495 14.5161 23.9986 13.7232 24.0002 12.9106ZM12.0002 2.92755C12.3957 2.92755 12.7824 3.04485 13.1113 3.26461C13.4402 3.48438 13.6966 3.79673 13.8479 4.16219C13.9993 4.52764 14.0389 4.92977 13.9617 5.31773C13.8846 5.7057 13.6941 6.06206 13.4144 6.34177C13.1347 6.62147 12.7783 6.81195 12.3904 6.88912C12.0024 6.96629 11.6003 6.92669 11.2348 6.77531C10.8694 6.62394 10.557 6.36759 10.3372 6.03869C10.1175 5.70979 10.0002 5.32312 10.0002 4.92755C10.0002 4.39712 10.2109 3.88841 10.586 3.51334C10.961 3.13827 11.4697 2.92755 12.0002 2.92755ZM3.98818 10.9126L4.07018 10.9436L4.08018 10.9186C4.58128 10.9634 5.04451 11.2039 5.36946 11.588C5.69441 11.9721 5.85488 12.4688 5.81609 12.9704C5.7773 13.472 5.54237 13.9381 5.16223 14.2676C4.78209 14.5972 4.28738 14.7636 3.78535 14.7309C3.28332 14.6982 2.81442 14.4689 2.4803 14.0927C2.14619 13.7166 1.97379 13.2239 2.00047 12.7215C2.02716 12.2191 2.25078 11.7475 2.62286 11.4089C2.99495 11.0703 3.4855 10.8919 3.98818 10.9126ZM12.0002 22.9276C11.6046 22.9276 11.2179 22.8103 10.889 22.5905C10.5601 22.3707 10.3038 22.0584 10.1524 21.6929C10.001 21.3275 9.96144 20.9253 10.0386 20.5374C10.1158 20.1494 10.3063 19.793 10.586 19.5133C10.8657 19.2336 11.222 19.0432 11.61 18.966C11.998 18.8888 12.4001 18.9284 12.7655 19.0798C13.131 19.2312 13.4434 19.4875 13.6631 19.8164C13.8829 20.1453 14.0002 20.532 14.0002 20.9276C14.0002 21.458 13.7895 21.9667 13.4144 22.3418C13.0393 22.7168 12.5306 22.9276 12.0002 22.9276ZM15.8932 20.0416C15.6941 19.1576 15.2002 18.3676 14.4926 17.8017C13.7849 17.2357 12.9058 16.9273 11.9997 16.9273C11.0936 16.9273 10.2144 17.2357 9.5068 17.8017C8.79919 18.3676 8.30524 19.1576 8.10618 20.0416C6.74077 19.2965 5.61901 18.1737 4.87518 16.8076C5.75639 16.6084 6.54397 16.1163 7.10916 15.4114C7.67434 14.7066 7.98367 13.8309 7.98657 12.9275C7.98947 12.0241 7.68578 11.1464 7.12514 10.438C6.5645 9.72957 5.78009 9.23232 4.90018 9.02755C5.64675 7.68069 6.75792 6.5716 8.10618 5.82755C8.30607 6.71055 8.80025 7.49934 9.50757 8.06444C10.2149 8.62953 11.0933 8.93735 11.9987 8.93735C12.904 8.93735 13.7825 8.62953 14.4898 8.06444C15.1971 7.49934 15.6913 6.71055 15.8912 5.82755C17.2384 6.57078 18.3502 7.67701 19.1002 9.02055C18.2176 9.22215 17.4297 9.71784 16.866 10.4263C16.3022 11.1347 15.9961 12.0137 15.9979 12.919C15.9996 13.8244 16.3091 14.7022 16.8756 15.4085C17.442 16.1147 18.2318 16.6074 19.1152 16.8056C18.3689 18.1673 17.2517 19.2894 15.8932 20.0416ZM20.0002 14.9106C19.6046 14.9106 19.2179 14.7933 18.889 14.5735C18.5601 14.3537 18.3038 14.0414 18.1524 13.6759C18.001 13.3105 17.9614 12.9083 18.0386 12.5204C18.1158 12.1324 18.3063 11.776 18.586 11.4963C18.8657 11.2166 19.222 11.0262 19.61 10.949C19.998 10.8718 20.4001 10.9114 20.7655 11.0628C21.131 11.2142 21.4434 11.4705 21.6631 11.7994C21.8829 12.1283 22.0002 12.515 22.0002 12.9106C22.0002 13.441 21.7895 13.9497 21.4144 14.3248C21.0393 14.6998 20.5306 14.9106 20.0002 14.9106Z" fill="#374957"/>
</g>
<defs>
<clipPath id="clip0_507_1943">
<rect width="24" height="24" fill="white" transform="translate(0 0.92749)"/>
</clipPath>
</defs>
</svg>
