<svg width="24" height="25" viewBox="0 0 24 25" fill="none" xmlns="http://www.w3.org/2000/svg">
<g clip-path="url(#clip0_507_1886)">
<path d="M0.880168 15.0175L4.75017 18.9275C4.84313 19.0212 4.95373 19.0956 5.07559 19.1464C5.19745 19.1972 5.32816 19.2233 5.46017 19.2233C5.59218 19.2233 5.72289 19.1972 5.84474 19.1464C5.9666 19.0956 6.0772 19.0212 6.17017 18.9275C6.2639 18.8345 6.33829 18.7239 6.38906 18.6021C6.43983 18.4802 6.46597 18.3495 6.46597 18.2175C6.46597 18.0855 6.43983 17.9548 6.38906 17.8329C6.33829 17.7111 6.2639 17.6005 6.17017 17.5075L2.61017 13.9275H23.0002C23.2654 13.9275 23.5197 13.8222 23.7073 13.6346C23.8948 13.4471 24.0002 13.1927 24.0002 12.9275C24.0002 12.6623 23.8948 12.4079 23.7073 12.2204C23.5197 12.0329 23.2654 11.9275 23.0002 11.9275H2.55017L6.17017 8.30751C6.34746 8.12154 6.44636 7.87445 6.44636 7.61751C6.44636 7.36057 6.34746 7.11349 6.17017 6.92751C6.0772 6.83378 5.9666 6.75939 5.84474 6.70862C5.72289 6.65785 5.59218 6.63171 5.46017 6.63171C5.32816 6.63171 5.19745 6.65785 5.07559 6.70862C4.95373 6.75939 4.84313 6.83378 4.75017 6.92751L0.880168 10.7775C0.318366 11.34 0.00280762 12.1025 0.00280762 12.8975C0.00280762 13.6925 0.318366 14.455 0.880168 15.0175Z" fill="#374957"/>
</g>
<defs>
<clipPath id="clip0_507_1886">
<rect width="24" height="24" fill="white" transform="translate(0 0.92749)"/>
</clipPath>
</defs>
</svg>
