<svg width="24" height="25" viewBox="0 0 24 25" fill="none" xmlns="http://www.w3.org/2000/svg">
<g clip-path="url(#clip0_507_1861)">
<path d="M1 6.92749H23C23.2652 6.92749 23.5196 6.82213 23.7071 6.63459C23.8946 6.44706 24 6.1927 24 5.92749C24 5.66227 23.8946 5.40792 23.7071 5.22038C23.5196 5.03285 23.2652 4.92749 23 4.92749H1C0.734784 4.92749 0.48043 5.03285 0.292893 5.22038C0.105357 5.40792 0 5.66227 0 5.92749C0 6.1927 0.105357 6.44706 0.292893 6.63459C0.48043 6.82213 0.734784 6.92749 1 6.92749Z" fill="#374957"/>
<path d="M4.99988 9.92749C4.73466 9.92749 4.48031 10.0328 4.29277 10.2204C4.10523 10.4079 3.99988 10.6623 3.99988 10.9275C3.99988 11.1927 4.10523 11.4471 4.29277 11.6346C4.48031 11.8221 4.73466 11.9275 4.99988 11.9275H18.9999C19.2651 11.9275 19.5194 11.8221 19.707 11.6346C19.8945 11.4471 19.9999 11.1927 19.9999 10.9275C19.9999 10.6623 19.8945 10.4079 19.707 10.2204C19.5194 10.0328 19.2651 9.92749 18.9999 9.92749H4.99988Z" fill="#374957"/>
<path d="M18.9999 19.9275H4.99988C4.73466 19.9275 4.48031 20.0328 4.29277 20.2204C4.10523 20.4079 3.99988 20.6623 3.99988 20.9275C3.99988 21.1927 4.10523 21.4471 4.29277 21.6346C4.48031 21.8221 4.73466 21.9275 4.99988 21.9275H18.9999C19.2651 21.9275 19.5194 21.8221 19.707 21.6346C19.8945 21.4471 19.9999 21.1927 19.9999 20.9275C19.9999 20.6623 19.8945 20.4079 19.707 20.2204C19.5194 20.0328 19.2651 19.9275 18.9999 19.9275Z" fill="#374957"/>
<path d="M23 14.9275H1C0.734784 14.9275 0.48043 15.0328 0.292893 15.2204C0.105357 15.4079 0 15.6623 0 15.9275C0 16.1927 0.105357 16.4471 0.292893 16.6346C0.48043 16.8221 0.734784 16.9275 1 16.9275H23C23.2652 16.9275 23.5196 16.8221 23.7071 16.6346C23.8946 16.4471 24 16.1927 24 15.9275C24 15.6623 23.8946 15.4079 23.7071 15.2204C23.5196 15.0328 23.2652 14.9275 23 14.9275Z" fill="#374957"/>
</g>
<defs>
<clipPath id="clip0_507_1861">
<rect width="24" height="24" fill="white" transform="translate(0 0.92749)"/>
</clipPath>
</defs>
</svg>
