<svg width="24" height="25" viewBox="0 0 24 25" fill="none" xmlns="http://www.w3.org/2000/svg">
<g clip-path="url(#clip0_507_2170)">
<path d="M23.0999 1.82717C22.5162 1.27119 21.741 0.961071 20.9349 0.961071C20.1288 0.961071 19.3536 1.27119 18.7699 1.82717L7.5629 13.0272C7.21425 12.96 6.85995 12.9266 6.5049 12.9272C5.7831 12.9251 5.06807 13.0662 4.4012 13.3424C3.73433 13.6186 3.12887 14.0243 2.6199 14.5361C1.2679 15.8891 0.3139 19.5191 0.0309004 21.4901C-0.0318798 21.9165 -0.00205158 22.3514 0.118355 22.7653C0.238761 23.1791 0.446918 23.5621 0.728655 23.8883C1.01039 24.2144 1.3591 24.476 1.75103 24.6553C2.14296 24.8346 2.56892 24.9273 2.9999 24.9271C3.14678 24.9272 3.29349 24.9169 3.4389 24.8961C5.4099 24.6131 9.0389 23.6591 10.3929 22.3071C11.0287 21.6695 11.498 20.8854 11.7596 20.0238C12.0211 19.1623 12.0669 18.2496 11.8929 17.3661L23.0999 6.15716C23.6726 5.58216 23.9941 4.80369 23.9941 3.99216C23.9941 3.18063 23.6726 2.40216 23.0999 1.82717ZM8.9769 20.8931C8.2519 21.6181 5.4769 22.5821 3.1529 22.9161C2.99759 22.9386 2.83918 22.9247 2.69014 22.8756C2.54109 22.8265 2.40546 22.7435 2.2939 22.6331C2.18273 22.5222 2.09927 22.3866 2.05028 22.2373C2.00129 22.0881 1.98814 21.9294 2.0119 21.7741C2.3449 19.4511 3.3119 16.6741 4.0339 15.9501C4.70014 15.3501 5.57127 15.0286 6.4676 15.052C7.36392 15.0754 8.21708 15.4419 8.85109 16.076C9.48511 16.71 9.85162 17.5631 9.87503 18.4594C9.89844 19.3558 9.57696 20.2269 8.9769 20.8931ZM21.6879 4.74316L11.0669 15.3651C10.6723 14.7676 10.1623 14.2549 9.5669 13.8572L20.1839 3.23916C20.3859 3.04624 20.6545 2.93859 20.9339 2.93859C21.2133 2.93859 21.4819 3.04624 21.6839 3.23916C21.7831 3.33755 21.8619 3.45455 21.9158 3.58345C21.9697 3.71235 21.9976 3.85062 21.998 3.99033C21.9984 4.13005 21.9712 4.26846 21.918 4.39765C21.8648 4.52683 21.7866 4.64424 21.6879 4.74316Z" fill="#374957"/>
</g>
<defs>
<clipPath id="clip0_507_2170">
<rect width="24" height="24" fill="white" transform="translate(0 0.92749)"/>
</clipPath>
</defs>
</svg>
