<svg width="24" height="25" viewBox="0 0 24 25" fill="none" xmlns="http://www.w3.org/2000/svg">
<g clip-path="url(#clip0_507_2008)">
<path d="M11 12.9275C11.2652 12.9275 11.5196 13.0328 11.7071 13.2204C11.8946 13.4079 12 13.6623 12 13.9275C12 14.1927 11.8946 14.4471 11.7071 14.6346C11.5196 14.8221 11.2652 14.9275 11 14.9275H8C7.73478 14.9275 7.48043 14.8221 7.29289 14.6346C7.10536 14.4471 7 14.1927 7 13.9275C7 13.6623 7.10536 13.4079 7.29289 13.2204C7.48043 13.0328 7.73478 12.9275 8 12.9275H11ZM17 9.92749C17 9.66227 16.8946 9.40792 16.7071 9.22038C16.5196 9.03285 16.2652 8.92749 16 8.92749H8C7.73478 8.92749 7.48043 9.03285 7.29289 9.22038C7.10536 9.40792 7 9.66227 7 9.92749C7 10.1927 7.10536 10.4471 7.29289 10.6346C7.48043 10.8221 7.73478 10.9275 8 10.9275H16C16.2652 10.9275 16.5196 10.8221 16.7071 10.6346C16.8946 10.4471 17 10.1927 17 9.92749ZM8 6.92749H16C16.2652 6.92749 16.5196 6.82213 16.7071 6.6346C16.8946 6.44706 17 6.19271 17 5.92749C17 5.66227 16.8946 5.40792 16.7071 5.22038C16.5196 5.03285 16.2652 4.92749 16 4.92749H8C7.73478 4.92749 7.48043 5.03285 7.29289 5.22038C7.10536 5.40792 7 5.66227 7 5.92749C7 6.19271 7.10536 6.44706 7.29289 6.6346C7.48043 6.82213 7.73478 6.92749 8 6.92749ZM20 20.3715V24.2045C20.0001 24.3471 19.9578 24.4866 19.8786 24.6052C19.7994 24.7239 19.6868 24.8163 19.555 24.8709C19.4232 24.9255 19.2781 24.9398 19.1382 24.912C18.9983 24.8841 18.8698 24.8154 18.769 24.7145L18 23.9465L17.231 24.7145C17.1302 24.8154 17.0017 24.8841 16.8618 24.912C16.7219 24.9398 16.5768 24.9255 16.445 24.8709C16.3132 24.8163 16.2006 24.7239 16.1214 24.6052C16.0422 24.4866 15.9999 24.3471 16 24.2045V20.3715C15.2373 19.9333 14.641 19.2552 14.3038 18.4429C13.9666 17.6305 13.9076 16.7294 14.1358 15.88C14.364 15.0305 14.8667 14.2804 15.5656 13.7464C16.2646 13.2124 17.1204 12.9245 18 12.9275C18.338 12.9317 18.6741 12.9794 19 13.0695V5.92749C19 5.13184 18.6839 4.36878 18.1213 3.80617C17.5587 3.24356 16.7956 2.92749 16 2.92749H8C7.20435 2.92749 6.44129 3.24356 5.87868 3.80617C5.31607 4.36878 5 5.13184 5 5.92749V17.9275C5 18.7231 5.31607 19.4862 5.87868 20.0488C6.44129 20.6114 7.20435 20.9275 8 20.9275H13C13.2652 20.9275 13.5196 21.0328 13.7071 21.2204C13.8946 21.4079 14 21.6623 14 21.9275C14 22.1927 13.8946 22.4471 13.7071 22.6346C13.5196 22.8221 13.2652 22.9275 13 22.9275H8C6.67441 22.9259 5.40356 22.3986 4.46622 21.4613C3.52888 20.5239 3.00159 19.2531 3 17.9275V5.92749C3.00159 4.6019 3.52888 3.33105 4.46622 2.39371C5.40356 1.45637 6.67441 0.929078 8 0.92749L16 0.92749C17.3256 0.929078 18.5964 1.45637 19.5338 2.39371C20.4711 3.33105 20.9984 4.6019 21 5.92749V14.3095C21.3917 14.7494 21.6801 15.2713 21.844 15.8371C22.0079 16.4028 22.0433 16.9981 21.9474 17.5793C21.8515 18.1604 21.6269 18.7128 21.2899 19.1959C20.953 19.6791 20.5122 20.0807 20 20.3715ZM20 16.9275C20 16.5319 19.8827 16.1452 19.6629 15.8163C19.4432 15.4875 19.1308 15.2311 18.7654 15.0797C18.3999 14.9284 17.9978 14.8887 17.6098 14.9659C17.2219 15.0431 16.8655 15.2336 16.5858 15.5133C16.3061 15.793 16.1156 16.1493 16.0384 16.5373C15.9613 16.9253 16.0009 17.3274 16.1522 17.6929C16.3036 18.0583 16.56 18.3707 16.8889 18.5904C17.2178 18.8102 17.6044 18.9275 18 18.9275C18.5304 18.9275 19.0391 18.7168 19.4142 18.3417C19.7893 17.9666 20 17.4579 20 16.9275Z" fill="#374957"/>
</g>
<defs>
<clipPath id="clip0_507_2008">
<rect width="24" height="24" fill="white" transform="translate(0 0.92749)"/>
</clipPath>
</defs>
</svg>
