<svg width="24" height="25" viewBox="0 0 24 25" fill="none" xmlns="http://www.w3.org/2000/svg">
<g clip-path="url(#clip0_507_1898)">
<path d="M12 0.92749C9.62663 0.92749 7.30655 1.63128 5.33316 2.94986C3.35977 4.26843 1.8217 6.14258 0.913451 8.33529C0.00519943 10.528 -0.232441 12.9408 0.230582 15.2686C0.693605 17.5963 1.83649 19.7345 3.51472 21.4128C5.19295 23.091 7.33115 24.2339 9.65892 24.6969C11.9867 25.1599 14.3995 24.9223 16.5922 24.014C18.7849 23.1058 20.6591 21.5677 21.9776 19.5943C23.2962 17.6209 24 15.3009 24 12.9275C23.9966 9.74595 22.7312 6.6957 20.4815 4.44601C18.2318 2.19632 15.1815 0.930931 12 0.92749V0.92749ZM12 2.92749C14.3065 2.92565 16.5419 3.72524 18.324 5.18949L4.26201 19.2515C3.06257 17.7873 2.30366 16.0126 2.07362 14.1339C1.84358 12.2552 2.15186 10.3498 2.96259 8.63953C3.77332 6.92923 5.05314 5.48437 6.65308 4.47313C8.25303 3.4619 10.1073 2.92589 12 2.92749ZM12 22.9275C9.69353 22.9293 7.45808 22.1297 5.67601 20.6655L19.738 6.60349C20.9374 8.06765 21.6963 9.84237 21.9264 11.7211C22.1564 13.5998 21.8481 15.5052 21.0374 17.2155C20.2267 18.9258 18.9469 20.3706 17.3469 21.3818C15.747 22.3931 13.8927 22.9291 12 22.9275Z" fill="#374957"/>
</g>
<defs>
<clipPath id="clip0_507_1898">
<rect width="24" height="24" fill="white" transform="translate(0 0.92749)"/>
</clipPath>
</defs>
</svg>
