<svg width="24" height="25" viewBox="0 0 24 25" fill="none" xmlns="http://www.w3.org/2000/svg">
<g clip-path="url(#clip0_507_2329)">
<path d="M22.535 9.38752C22.0715 8.92254 21.5205 8.55408 20.9137 8.30348C20.3069 8.05287 19.6565 7.92508 19 7.92752H2.79997L7.09997 3.62752C7.28721 3.43948 7.39209 3.18476 7.39152 2.9194C7.39096 2.65403 7.285 2.39976 7.09697 2.21252C6.90893 2.02527 6.65421 1.9204 6.38884 1.92096C6.12348 1.92152 5.86921 2.02748 5.68197 2.21552L0.731966 7.16452C0.263288 7.63334 0 8.26911 0 8.93202C0 9.59493 0.263288 10.2307 0.731966 10.6995L5.68197 15.6505C5.77481 15.7436 5.88508 15.8175 6.00649 15.868C6.1279 15.9185 6.25806 15.9446 6.38955 15.9448C6.52104 15.945 6.65128 15.9193 6.77283 15.8691C6.89438 15.819 7.00486 15.7454 7.09797 15.6525C7.19107 15.5597 7.26498 15.4494 7.31547 15.328C7.36596 15.2066 7.39204 15.0764 7.39223 14.9449C7.39242 14.8134 7.3667 14.6832 7.31655 14.5617C7.26641 14.4401 7.19281 14.3296 7.09997 14.2365L2.78797 9.92752H19C19.7956 9.92752 20.5587 10.2436 21.1213 10.8062C21.6839 11.3688 22 12.1319 22 12.9275V19.9275C22 20.7232 21.6839 21.4862 21.1213 22.0488C20.5587 22.6114 19.7956 22.9275 19 22.9275H4.99997C4.73475 22.9275 4.4804 23.0329 4.29286 23.2204C4.10532 23.4079 3.99997 23.6623 3.99997 23.9275C3.99997 24.1927 4.10532 24.4471 4.29286 24.6346C4.4804 24.8222 4.73475 24.9275 4.99997 24.9275H19C20.3256 24.9259 21.5964 24.3986 22.5337 23.4613C23.4711 22.524 23.9984 21.2531 24 19.9275V12.9275C24.0022 12.2699 23.8738 11.6183 23.6224 11.0106C23.3709 10.403 23.0013 9.85127 22.535 9.38752Z" fill="#374957"/>
</g>
<defs>
<clipPath id="clip0_507_2329">
<rect width="24" height="24" fill="white" transform="translate(0 0.92749)"/>
</clipPath>
</defs>
</svg>
