<svg width="24" height="25" viewBox="0 0 24 25" fill="none" xmlns="http://www.w3.org/2000/svg">
<g clip-path="url(#clip0_507_2321)">
<path d="M9 9.92749C9 9.66227 9.10536 9.40792 9.29289 9.22038C9.48043 9.03285 9.73478 8.92749 10 8.92749H11V7.92749C11 7.66227 11.1054 7.40792 11.2929 7.22038C11.4804 7.03285 11.7348 6.92749 12 6.92749C12.2652 6.92749 12.5196 7.03285 12.7071 7.22038C12.8946 7.40792 13 7.66227 13 7.92749V8.92749H14C14.2652 8.92749 14.5196 9.03285 14.7071 9.22038C14.8946 9.40792 15 9.66227 15 9.92749C15 10.1927 14.8946 10.4471 14.7071 10.6346C14.5196 10.8221 14.2652 10.9275 14 10.9275H13V11.9275C13 12.1927 12.8946 12.4471 12.7071 12.6346C12.5196 12.8221 12.2652 12.9275 12 12.9275C11.7348 12.9275 11.4804 12.8221 11.2929 12.6346C11.1054 12.4471 11 12.1927 11 11.9275V10.9275H10C9.73478 10.9275 9.48043 10.8221 9.29289 10.6346C9.10536 10.4471 9 10.1927 9 9.92749ZM16 14.9275H8C7.73478 14.9275 7.48043 15.0328 7.29289 15.2204C7.10536 15.4079 7 15.6623 7 15.9275C7 16.1927 7.10536 16.4471 7.29289 16.6346C7.48043 16.8221 7.73478 16.9275 8 16.9275H16C16.2652 16.9275 16.5196 16.8221 16.7071 16.6346C16.8946 16.4471 17 16.1927 17 15.9275C17 15.6623 16.8946 15.4079 16.7071 15.2204C16.5196 15.0328 16.2652 14.9275 16 14.9275ZM12 18.9275H8C7.73478 18.9275 7.48043 19.0328 7.29289 19.2204C7.10536 19.4079 7 19.6623 7 19.9275C7 20.1927 7.10536 20.4471 7.29289 20.6346C7.48043 20.8221 7.73478 20.9275 8 20.9275H12C12.2652 20.9275 12.5196 20.8221 12.7071 20.6346C12.8946 20.4471 13 20.1927 13 19.9275C13 19.6623 12.8946 19.4079 12.7071 19.2204C12.5196 19.0328 12.2652 18.9275 12 18.9275ZM21 7.92749V19.9275C20.9984 21.2531 20.4711 22.5239 19.5338 23.4613C18.5964 24.3986 17.3256 24.9259 16 24.9275H8C6.67441 24.9259 5.40356 24.3986 4.46622 23.4613C3.52888 22.5239 3.00159 21.2531 3 19.9275V7.92749C3.00159 6.6019 3.52888 5.33105 4.46622 4.39371C5.40356 3.45637 6.67441 2.92908 8 2.92749H8.171C8.37858 2.34298 8.7619 1.837 9.26839 1.47893C9.77487 1.12087 10.3797 0.928247 11 0.92749L13 0.92749C13.6203 0.928247 14.2251 1.12087 14.7316 1.47893C15.2381 1.837 15.6214 2.34298 15.829 2.92749H16C17.3256 2.92908 18.5964 3.45637 19.5338 4.39371C20.4711 5.33105 20.9984 6.6019 21 7.92749ZM19 7.92749C19 7.13184 18.6839 6.36878 18.1213 5.80617C17.5587 5.24356 16.7956 4.92749 16 4.92749H15C14.7348 4.92749 14.4804 4.82213 14.2929 4.6346C14.1054 4.44706 14 4.19271 14 3.92749C14 3.66227 13.8946 3.40792 13.7071 3.22038C13.5196 3.03285 13.2652 2.92749 13 2.92749H11C10.7348 2.92749 10.4804 3.03285 10.2929 3.22038C10.1054 3.40792 10 3.66227 10 3.92749C10 4.19271 9.89464 4.44706 9.70711 4.6346C9.51957 4.82213 9.26522 4.92749 9 4.92749H8C7.20435 4.92749 6.44129 5.24356 5.87868 5.80617C5.31607 6.36878 5 7.13184 5 7.92749V19.9275C5 20.7231 5.31607 21.4862 5.87868 22.0488C6.44129 22.6114 7.20435 22.9275 8 22.9275H16C16.7956 22.9275 17.5587 22.6114 18.1213 22.0488C18.6839 21.4862 19 20.7231 19 19.9275V7.92749Z" fill="#374957"/>
</g>
<defs>
<clipPath id="clip0_507_2321">
<rect width="24" height="24" fill="white" transform="translate(0 0.92749)"/>
</clipPath>
</defs>
</svg>
