<svg width="24" height="25" viewBox="0 0 24 25" fill="none" xmlns="http://www.w3.org/2000/svg">
<g clip-path="url(#clip0_507_2178)">
<path d="M12.9999 1.92759C12.9999 1.66238 13.1053 1.40802 13.2928 1.22049C13.4803 1.03295 13.7347 0.927592 13.9999 0.927592C16.6512 0.930503 19.193 1.98501 21.0678 3.85974C22.9425 5.73447 23.997 8.27632 23.9999 10.9276C23.9999 11.1928 23.8945 11.4472 23.707 11.6347C23.5195 11.8222 23.2651 11.9276 22.9999 11.9276C22.7347 11.9276 22.4803 11.8222 22.2928 11.6347C22.1053 11.4472 21.9999 11.1928 21.9999 10.9276C21.9975 8.80659 21.1539 6.77314 19.6541 5.27337C18.1544 3.77359 16.1209 2.92997 13.9999 2.92759C13.7347 2.92759 13.4803 2.82224 13.2928 2.6347C13.1053 2.44716 12.9999 2.19281 12.9999 1.92759ZM13.9999 6.92759C15.0608 6.92759 16.0782 7.34902 16.8283 8.09917C17.5785 8.84931 17.9999 9.86673 17.9999 10.9276C17.9999 11.1928 18.1053 11.4472 18.2928 11.6347C18.4803 11.8222 18.7347 11.9276 18.9999 11.9276C19.2651 11.9276 19.5195 11.8222 19.707 11.6347C19.8945 11.4472 19.9999 11.1928 19.9999 10.9276C19.9983 9.33678 19.3657 7.81158 18.2408 6.68671C17.1159 5.56183 15.5907 4.92918 13.9999 4.92759C13.7347 4.92759 13.4803 5.03295 13.2928 5.22049C13.1053 5.40802 12.9999 5.66238 12.9999 5.92759C12.9999 6.19281 13.1053 6.44716 13.2928 6.6347C13.4803 6.82224 13.7347 6.92759 13.9999 6.92759ZM23.0929 17.6666C23.6724 18.2477 23.9978 19.0349 23.9978 19.8556C23.9978 20.6763 23.6724 21.4635 23.0929 22.0446L22.1829 23.0936C13.9929 30.9346 -5.93707 11.0096 1.78292 2.79359L2.93292 1.79359C3.51469 1.23027 4.29485 0.918641 5.10462 0.926127C5.91439 0.933612 6.68866 1.25961 7.25992 1.83359C7.29092 1.86459 9.14391 4.27159 9.14391 4.27159C9.69374 4.84922 9.99982 5.61652 9.99851 6.414C9.99721 7.21147 9.68863 7.97777 9.13691 8.55359L7.97892 10.0096C8.61976 11.5667 9.56198 12.9818 10.7514 14.1737C11.9409 15.3655 13.3541 16.3106 14.9099 16.9546L16.3749 15.7896C16.9508 15.2383 17.717 14.9301 18.5142 14.929C19.3114 14.9279 20.0785 15.2339 20.6559 15.7836C20.6559 15.7836 23.0619 17.6356 23.0929 17.6666ZM21.7169 19.1206C21.7169 19.1206 19.3239 17.2796 19.2929 17.2486C19.0869 17.0443 18.8085 16.9297 18.5184 16.9297C18.2283 16.9297 17.9499 17.0443 17.7439 17.2486C17.7169 17.2766 15.6999 18.8836 15.6999 18.8836C15.564 18.9918 15.4022 19.0627 15.2306 19.0894C15.0589 19.116 14.8832 19.0975 14.7209 19.0356C12.7054 18.2852 10.8746 17.1103 9.35275 15.5907C7.83085 14.071 6.65332 12.242 5.89992 10.2276C5.83312 10.063 5.81134 9.88368 5.83682 9.70793C5.86231 9.53218 5.93413 9.36639 6.04492 9.22759C6.04492 9.22759 7.65192 7.20959 7.67892 7.18359C7.88318 6.97758 7.99779 6.69921 7.99779 6.40909C7.99779 6.11898 7.88318 5.84061 7.67892 5.63459C7.64792 5.60459 5.80692 3.20959 5.80692 3.20959C5.59782 3.0221 5.32492 2.92169 5.04417 2.92894C4.76341 2.93619 4.49606 3.05056 4.29692 3.24859L3.14692 4.24859C-2.49507 11.0326 14.7759 27.3456 20.7209 21.7276L21.6319 20.6776C21.8454 20.4799 21.9736 20.2069 21.9895 19.9163C22.0053 19.6257 21.9076 19.3404 21.7169 19.1206Z" fill="#374957"/>
</g>
<defs>
<clipPath id="clip0_507_2178">
<rect width="24" height="24" fill="white" transform="translate(0 0.92749)"/>
</clipPath>
</defs>
</svg>
