<svg width="24" height="25" viewBox="0 0 24 25" fill="none" xmlns="http://www.w3.org/2000/svg">
<g clip-path="url(#clip0_507_1897)">
<path d="M18.8482 12.4575C19.5073 11.3907 19.8949 10.1787 19.9772 8.92749C19.9772 8.66227 19.8718 8.40792 19.6843 8.22038C19.4968 8.03285 19.2424 7.92749 18.9772 7.92749C18.712 7.92749 18.4576 8.03285 18.2701 8.22038C18.0825 8.40792 17.9772 8.66227 17.9772 8.92749C17.896 9.80336 17.6137 10.6487 17.1522 11.3975C17.0826 11.5091 17.0357 11.6333 17.0141 11.7631C16.9925 11.8929 16.9967 12.0256 17.0264 12.1538C17.0561 12.2819 17.1108 12.4029 17.1873 12.51C17.2637 12.617 17.3606 12.7079 17.4722 12.7775C17.5838 12.8471 17.7081 12.894 17.8378 12.9156C17.9676 12.9372 18.1003 12.933 18.2285 12.9033C18.4873 12.8433 18.7116 12.6829 18.8522 12.4575H18.8482Z" fill="#374957"/>
<path d="M8.97682 7.92749C8.7116 7.92749 8.45725 8.03285 8.26971 8.22038C8.08218 8.40792 7.97682 8.66227 7.97682 8.92749C7.89568 9.80336 7.61334 10.6487 7.15182 11.3975C7.01126 11.6229 6.96601 11.895 7.02602 12.1538C7.08603 12.4126 7.24639 12.6369 7.47182 12.7775C7.69726 12.9181 7.9693 12.9633 8.2281 12.9033C8.4869 12.8433 8.71126 12.6829 8.85182 12.4575C9.50949 11.3904 9.89575 10.1784 9.97682 8.92749C9.97682 8.66227 9.87146 8.40792 9.68392 8.22038C9.49639 8.03285 9.24204 7.92749 8.97682 7.92749Z" fill="#374957"/>
<path d="M19.5 19.5165C18.818 19.1545 18.114 18.7795 18.016 18.3545C17.97 18.1615 17.991 17.7265 18.531 16.8815C21.7 16.4275 24 11.9525 24 7.92746C24.0279 7.13201 23.8919 6.33931 23.6002 5.59872C23.3086 4.85813 22.8676 4.18549 22.3048 3.62267C21.742 3.05985 21.0693 2.6189 20.3287 2.32725C19.5882 2.03561 18.7955 1.89952 18 1.92746C17.033 1.90098 16.0745 2.11421 15.2099 2.54816C14.3453 2.9821 13.6016 3.62326 13.045 4.41446C12.2732 3.08289 11.0837 2.04309 9.6609 1.45622C8.2381 0.869351 6.66145 0.768182 5.17532 1.1684C3.68918 1.56861 2.37656 2.44786 1.44089 3.66986C0.505216 4.89186 -0.00124407 6.38838 2.2949e-06 7.92746C2.2949e-06 11.8985 2.257 16.4125 5.39 17.6125C5.17323 17.9734 5.03997 18.3783 5 18.7975C5 20.3685 6.489 21.0645 7.576 21.5735C8.176 21.8535 9 22.2385 9 22.5365C8.91854 22.847 8.77272 23.1369 8.572 23.3875C8.50109 23.498 8.45265 23.6215 8.42945 23.7508C8.40625 23.8801 8.40874 24.0127 8.43678 24.141C8.46482 24.2693 8.51787 24.3909 8.59289 24.4987C8.66791 24.6065 8.76343 24.6985 8.874 24.7695C9.09731 24.9127 9.36837 24.9613 9.62755 24.9047C9.75588 24.8766 9.87743 24.8236 9.98526 24.7486C10.0931 24.6736 10.1851 24.578 10.256 24.4675C10.6804 23.9065 10.9383 23.2372 11 22.5365C11 20.9655 9.511 20.2695 8.424 19.7615C7.824 19.4805 7 19.0955 6.991 18.8965C7.14303 18.5382 7.33348 18.1976 7.559 17.8805C9.911 17.5745 11.89 15.3805 13.011 12.6805C13.6406 14.3478 14.8532 15.7305 16.424 16.5725C16.0514 17.2553 15.9257 18.0457 16.068 18.8105C16.374 20.1205 17.587 20.7655 18.562 21.2845C19.178 21.6125 19.875 21.9845 19.981 22.3525C20.0073 22.7378 19.8956 23.1199 19.666 23.4305C19.5993 23.5442 19.5558 23.6701 19.5379 23.8007C19.52 23.9314 19.5282 24.0643 19.5619 24.1918C19.5956 24.3193 19.6542 24.4389 19.7343 24.5436C19.8144 24.6484 19.9145 24.7363 20.0287 24.8022C20.1429 24.8682 20.269 24.9109 20.3998 24.9279C20.5306 24.9449 20.6634 24.9358 20.7907 24.9013C20.918 24.8667 21.0371 24.8073 21.1414 24.7265C21.2456 24.6457 21.3328 24.5451 21.398 24.4305C21.6594 24.0514 21.8394 23.6222 21.9265 23.17C22.0136 22.7179 22.0059 22.2525 21.904 21.8035C21.6813 21.2779 21.3531 20.8037 20.9395 20.4103C20.526 20.0169 20.036 19.7126 19.5 19.5165ZM7 15.9275C4.354 15.9275 2 11.4535 2 7.92746C2 6.60138 2.52679 5.32961 3.46447 4.39193C4.40215 3.45425 5.67392 2.92746 7 2.92746C8.32609 2.92746 9.59785 3.45425 10.5355 4.39193C11.4732 5.32961 12 6.60138 12 7.92746C12 11.4535 9.646 15.9275 7 15.9275ZM14 7.92746C13.9699 7.39428 14.0527 6.86073 14.243 6.36177C14.4334 5.86281 14.727 5.40969 15.1046 5.03207C15.4822 4.65445 15.9354 4.36084 16.4343 4.17049C16.9333 3.98013 17.4668 3.89732 18 3.92746C18.5332 3.89732 19.0667 3.98013 19.5657 4.17049C20.0646 4.36084 20.5178 4.65445 20.8954 5.03207C21.273 5.40969 21.5666 5.86281 21.757 6.36177C21.9473 6.86073 22.0301 7.39428 22 7.92746C22 11.3275 19.944 14.9275 18 14.9275C16.056 14.9275 14 11.3275 14 7.92746Z" fill="#374957"/>
</g>
<defs>
<clipPath id="clip0_507_1897">
<rect width="24" height="24" fill="white" transform="translate(0 0.92749)"/>
</clipPath>
</defs>
</svg>
