<svg width="24" height="25" viewBox="0 0 24 25" fill="none" xmlns="http://www.w3.org/2000/svg">
<g clip-path="url(#clip0_507_2149)">
<path d="M2 14.9278C3.10457 14.9278 4 14.0324 4 12.9278C4 11.8232 3.10457 10.9278 2 10.9278C0.89543 10.9278 0 11.8232 0 12.9278C0 14.0324 0.89543 14.9278 2 14.9278Z" fill="#374957"/>
<path d="M12.0001 14.9278C13.1047 14.9278 14.0001 14.0324 14.0001 12.9278C14.0001 11.8232 13.1047 10.9278 12.0001 10.9278C10.8956 10.9278 10.0001 11.8232 10.0001 12.9278C10.0001 14.0324 10.8956 14.9278 12.0001 14.9278Z" fill="#374957"/>
<path d="M22 14.9278C23.1046 14.9278 24 14.0324 24 12.9278C24 11.8232 23.1046 10.9278 22 10.9278C20.8954 10.9278 20 11.8232 20 12.9278C20 14.0324 20.8954 14.9278 22 14.9278Z" fill="#374957"/>
</g>
<defs>
<clipPath id="clip0_507_2149">
<rect width="24" height="24" fill="white" transform="translate(0 0.92749)"/>
</clipPath>
</defs>
</svg>
