<svg width="24" height="25" viewBox="0 0 24 25" fill="none" xmlns="http://www.w3.org/2000/svg">
<g clip-path="url(#clip0_507_1936)">
<path d="M5.00495 24.9275H18.9999C19.8424 24.9274 20.6711 24.7145 21.4092 24.3084C22.1474 23.9024 22.7709 23.3164 23.222 22.6049C23.6731 21.8935 23.9371 21.0795 23.9896 20.2388C24.042 19.398 23.8812 18.5575 23.5219 17.7955L16.5349 3.82753C16.1345 2.96545 15.4965 2.23539 14.696 1.72293C13.8954 1.21047 12.9653 0.936831 12.0147 0.934103C11.0642 0.931374 10.1325 1.19966 9.329 1.70752C8.52548 2.21538 7.88337 2.94177 7.47795 3.80153L0.477949 17.8015L0.469949 17.8275C0.117454 18.5892 -0.0376442 19.4273 0.0189504 20.2647C0.075545 21.1021 0.342011 21.9117 0.793789 22.619C1.24557 23.3263 1.86812 23.9085 2.60407 24.312C3.34001 24.7154 4.16568 24.9271 5.00495 24.9275ZM8.40495 22.9275L11.1219 17.4895C11.1984 17.3211 11.322 17.1784 11.4778 17.0787C11.6336 16.9789 11.815 16.9264 11.9999 16.9275C12.19 16.9276 12.3758 16.9834 12.5345 17.0879C12.6931 17.1924 12.8178 17.341 12.8929 17.5155L15.5999 22.9275H8.40495ZM2.27795 18.6755L9.27795 4.66353C9.5199 4.14263 9.9063 3.70214 10.3912 3.39438C10.8762 3.08662 11.4393 2.92453 12.0136 2.92737C12.588 2.93021 13.1494 3.09787 13.6313 3.41042C14.1131 3.72296 14.4952 4.16726 14.7319 4.69053L21.7199 18.6635C21.9323 19.1206 22.0261 19.6238 21.9926 20.1267C21.9591 20.6296 21.7995 21.116 21.5285 21.5409C21.2574 21.9658 20.8837 22.3156 20.4417 22.558C19.9998 22.8003 19.504 22.9274 18.9999 22.9275H17.8359L14.6999 16.6475C14.4625 16.1361 14.0845 15.7027 13.6099 15.3981C13.1354 15.0935 12.5839 14.9303 12.02 14.9274C11.4561 14.9246 10.9031 15.0823 10.4255 15.3821C9.94789 15.6819 9.56549 16.1115 9.32295 16.6205L6.16795 22.9275H5.00495C4.50194 22.9277 4.00696 22.8013 3.56556 22.5601C3.12416 22.3189 2.75049 21.9705 2.47894 21.5471C2.20738 21.1237 2.04665 20.6388 2.01153 20.137C1.97641 19.6352 2.06802 19.1327 2.27795 18.6755Z" fill="#374957"/>
</g>
<defs>
<clipPath id="clip0_507_1936">
<rect width="24" height="24" fill="white" transform="translate(0 0.92749)"/>
</clipPath>
</defs>
</svg>
