<svg width="24" height="25" viewBox="0 0 24 25" fill="none" xmlns="http://www.w3.org/2000/svg">
<g clip-path="url(#clip0_507_2009)">
<path d="M12.9999 4.97849V2.92749H14.9999C15.2651 2.92749 15.5195 2.82213 15.707 2.6346C15.8945 2.44706 15.9999 2.19271 15.9999 1.92749C15.9999 1.66227 15.8945 1.40792 15.707 1.22038C15.5195 1.03285 15.2651 0.92749 14.9999 0.92749H8.99989C8.73467 0.92749 8.48032 1.03285 8.29278 1.22038C8.10525 1.40792 7.99989 1.66227 7.99989 1.92749C7.99989 2.19271 8.10525 2.44706 8.29278 2.6346C8.48032 2.82213 8.73467 2.92749 8.99989 2.92749H10.9999V4.97849C8.44725 5.23504 6.09085 6.46284 4.41805 8.40796C2.74524 10.3531 1.88399 12.8667 2.01243 15.429C2.14086 17.9913 3.24916 20.4062 5.10809 22.1743C6.96703 23.9424 9.43439 24.9284 11.9999 24.9284C14.5654 24.9284 17.0328 23.9424 18.8917 22.1743C20.7506 20.4062 21.8589 17.9913 21.9874 15.429C22.1158 12.8667 21.2545 10.3531 19.5817 8.40796C17.9089 6.46284 15.5525 5.23504 12.9999 4.97849ZM15.9999 16.5975V13.2575C18.6339 13.7255 19.9999 14.5655 19.9999 14.9275C19.9999 15.2895 18.6339 16.1275 15.9999 16.5975ZM3.99989 14.9275C3.99989 14.5655 5.36589 13.7275 7.99989 13.2575V16.5975C5.36589 16.1275 3.99989 15.2895 3.99989 14.9275ZM9.99989 13.0055C10.6209 12.9565 11.2849 12.9275 11.9999 12.9275C12.7149 12.9275 13.3789 12.9565 13.9999 13.0055V16.8495C13.3789 16.8985 12.7149 16.9275 11.9999 16.9275C11.2849 16.9275 10.6209 16.8985 9.99989 16.8495V13.0055ZM11.9999 6.92749C12.675 6.92991 13.3471 7.01829 13.9999 7.19049V11.0025C13.3359 10.9535 12.6649 10.9275 11.9999 10.9275C11.3349 10.9275 10.6639 10.9535 9.99989 11.0025V7.19049C10.6527 7.01829 11.3248 6.92991 11.9999 6.92749ZM19.4999 12.1635C18.3755 11.7107 17.2002 11.3964 15.9999 11.2275V8.00949C17.613 8.94632 18.8503 10.4148 19.4999 12.1635ZM7.99989 8.00949V11.2275C6.79971 11.3954 5.62442 11.7087 4.49989 12.1605C5.15005 10.4129 6.38728 8.94557 7.99989 8.00949ZM4.49989 17.6915C5.62428 18.1443 6.79958 18.4586 7.99989 18.6275V21.8485C6.38621 20.9109 5.14886 19.4413 4.49989 17.6915ZM9.99989 22.6645V18.8525C10.6639 18.9015 11.3349 18.9275 11.9999 18.9275C12.6649 18.9275 13.3359 18.9015 13.9999 18.8525V22.6645C12.6896 23.0152 11.3102 23.0152 9.99989 22.6645ZM15.9999 21.8455V18.6275C17.2001 18.4595 18.3754 18.1462 19.4999 17.6945C18.8497 19.4421 17.6125 20.9094 15.9999 21.8455Z" fill="#374957"/>
</g>
<defs>
<clipPath id="clip0_507_2009">
<rect width="24" height="24" fill="white" transform="translate(0 0.92749)"/>
</clipPath>
</defs>
</svg>
