<svg width="24" height="25" viewBox="0 0 24 25" fill="none" xmlns="http://www.w3.org/2000/svg">
<g clip-path="url(#clip0_507_2348)">
<path d="M11 23.9269C11 23.7291 11.0587 23.5358 11.1685 23.3713C11.2784 23.2069 11.4346 23.0787 11.6173 23.003C11.8001 22.9273 12.0011 22.9075 12.1951 22.9461C12.3891 22.9847 12.5673 23.0799 12.7071 23.2198C12.847 23.3596 12.9422 23.5378 12.9808 23.7318C13.0194 23.9258 12.9996 24.1268 12.9239 24.3096C12.8482 24.4923 12.72 24.6485 12.5556 24.7584C12.3911 24.8682 12.1978 24.9269 12 24.9269C11.7348 24.9269 11.4804 24.8215 11.2929 24.634C11.1054 24.4465 11 24.1921 11 23.9269ZM15.535 21.8049C15.7225 21.6174 15.8278 21.363 15.8278 21.0979C15.8278 20.8327 15.7225 20.5784 15.535 20.3909C14.5974 19.4535 13.3258 18.9269 12 18.9269C10.6742 18.9269 9.40265 19.4535 8.46501 20.3909C8.28285 20.5795 8.18206 20.8321 8.18434 21.0943C8.18662 21.3565 8.29179 21.6073 8.47719 21.7927C8.6626 21.9781 8.91341 22.0833 9.17561 22.0856C9.43781 22.0878 9.69041 21.987 9.87901 21.8049C10.4507 21.2599 11.2102 20.9559 12 20.9559C12.7898 20.9559 13.5493 21.2599 14.121 21.8049C14.3085 21.9924 14.5628 22.0977 14.828 22.0977C15.0932 22.0977 15.3475 21.9924 15.535 21.8049ZM18.364 18.9769C18.5515 18.7894 18.6568 18.535 18.6568 18.2699C18.6568 18.0047 18.5515 17.7504 18.364 17.5629C16.6749 15.8775 14.3862 14.9309 12 14.9309C9.61386 14.9309 7.32514 15.8775 5.63601 17.5629C5.45385 17.7515 5.35306 18.0041 5.35534 18.2663C5.35762 18.5285 5.46279 18.7793 5.64819 18.9647C5.8336 19.1501 6.08441 19.2553 6.34661 19.2576C6.60881 19.2598 6.86141 19.159 7.05001 18.9769C8.36421 17.6667 10.1443 16.9309 12 16.9309C13.8558 16.9309 15.6358 17.6667 16.95 18.9769C17.1375 19.1644 17.3918 19.2697 17.657 19.2697C17.9222 19.2697 18.1765 19.1644 18.364 18.9769ZM5.98701 23.0879C6.00816 22.9583 6.00357 22.8258 5.97351 22.6979C5.94344 22.5701 5.88849 22.4494 5.81179 22.3428C5.73508 22.2362 5.63813 22.1457 5.52647 22.0766C5.41481 22.0075 5.29063 21.961 5.16101 21.9399C4.40537 21.8204 3.70322 21.4761 3.14601 20.9519C2.5888 20.4277 2.20236 19.7478 2.03701 19.0009C1.92941 18.2866 2.04718 17.5566 2.37393 16.9124C2.70068 16.2683 3.22014 15.742 3.86001 15.4069C4.32064 15.1541 4.6633 14.7303 4.81393 14.2269C4.96457 13.7235 4.91107 13.1811 4.66501 12.7169C4.27617 11.9763 4.04646 11.1627 3.99062 10.3281C3.93477 9.4936 4.05403 8.6566 4.34074 7.87086C4.62745 7.08512 5.07527 6.368 5.65547 5.76554C6.23566 5.16308 6.93541 4.68858 7.7098 4.37249C8.48418 4.05641 9.3161 3.90572 10.1522 3.93011C10.9882 3.95449 11.8099 4.15341 12.5646 4.51409C13.3192 4.87478 13.9901 5.38926 14.5342 6.02451C15.0783 6.65977 15.4836 7.40177 15.724 8.20288C15.872 8.68559 16.1357 9.12484 16.4921 9.48246C16.8485 9.84008 17.2868 10.1052 17.769 10.2549C19.0754 10.6526 20.206 11.486 20.9725 12.6162C21.7389 13.7463 22.0949 15.1051 21.981 16.4659C21.8916 17.4878 21.5275 18.4665 20.9271 19.2983C20.3268 20.1301 19.5127 20.7841 18.571 21.1909C18.3378 21.3084 18.1599 21.5126 18.0752 21.7596C17.9905 22.0067 18.0059 22.277 18.1179 22.5129C18.23 22.7488 18.4299 22.9315 18.6749 23.0219C18.9199 23.1124 19.1906 23.1034 19.429 22.9969C20.6918 22.4435 21.7813 21.5585 22.5819 20.436C23.3824 19.3134 23.8641 17.9951 23.976 16.6209C24.127 14.8066 23.6516 12.9953 22.6289 11.4891C21.6062 9.98291 20.0981 8.8728 18.356 8.34388C18.1845 8.29058 18.0288 8.19566 17.9028 8.06759C17.7768 7.93953 17.6845 7.78228 17.634 7.60988C17.1046 5.90996 16.0233 4.43522 14.5612 3.41917C13.0992 2.40312 11.3399 1.90383 9.5621 2.00036C7.78428 2.09689 6.08945 2.78372 4.746 3.9521C3.40255 5.12048 2.48724 6.70364 2.14501 8.45088C1.79542 10.2188 2.07041 12.0532 2.92301 13.6409C1.91802 14.1664 1.10187 14.9921 0.588184 16.0032C0.0744934 17.0143 -0.11118 18.1603 0.0570113 19.2819C0.285495 20.45 0.866276 21.5201 1.72121 22.3482C2.57615 23.1763 3.66421 23.7227 4.83901 23.9139C4.96863 23.935 5.10114 23.9304 5.22898 23.9004C5.35682 23.8703 5.47749 23.8154 5.58409 23.7387C5.6907 23.662 5.78115 23.565 5.85028 23.4533C5.91941 23.3417 5.96587 23.2175 5.98701 23.0879Z" fill="#374957"/>
</g>
<defs>
<clipPath id="clip0_507_2348">
<rect width="24" height="24" fill="white" transform="translate(0 0.92749)"/>
</clipPath>
</defs>
</svg>
