<svg width="24" height="25" viewBox="0 0 24 25" fill="none" xmlns="http://www.w3.org/2000/svg">
<g clip-path="url(#clip0_507_2223)">
<path d="M21.962 13.8025C21.7691 16.0823 20.8026 18.2277 19.2229 19.8827C17.6431 21.5377 15.5449 22.6028 13.2765 22.9014C11.0081 23.2 8.70582 22.714 6.75158 21.5242C4.79734 20.3344 3.30863 18.5121 2.53244 16.3598C1.75626 14.2076 1.73924 11.8546 2.48423 9.69132C3.22921 7.52804 4.69141 5.68448 6.62824 4.4665C8.56507 3.24852 10.8601 2.72933 13.1326 2.99507C15.4051 3.26081 17.5184 4.2955 19.122 5.92749H16C15.7347 5.92749 15.4804 6.03285 15.2928 6.22038C15.1053 6.40792 15 6.66227 15 6.92749C15 7.19271 15.1053 7.44706 15.2928 7.6346C15.4804 7.82213 15.7347 7.92749 16 7.92749H20.143C20.6354 7.92723 21.1076 7.73149 21.4558 7.3833C21.804 7.0351 21.9997 6.56292 22 6.07049V1.92749C22 1.66227 21.8946 1.40792 21.7071 1.22038C21.5195 1.03285 21.2652 0.92749 21 0.92749V0.92749C20.7347 0.92749 20.4804 1.03285 20.2928 1.22038C20.1053 1.40792 20 1.66227 20 1.92749V4.00549C17.9886 2.20822 15.4298 1.14197 12.7374 0.979202C10.045 0.816429 7.3764 1.56665 5.1632 3.10852C2.95001 4.6504 1.32164 6.89377 0.54146 9.47581C-0.238719 12.0578 -0.125091 14.8276 0.863968 17.337C1.85303 19.8465 3.65968 21.9489 5.99174 23.3043C8.32379 24.6597 11.0449 25.1888 13.7149 24.8061C16.385 24.4233 18.8478 23.151 20.7052 21.1951C22.5625 19.2391 23.7057 16.7137 23.95 14.0275C23.9629 13.8882 23.9466 13.7478 23.9023 13.6152C23.8579 13.4825 23.7864 13.3606 23.6924 13.2571C23.5983 13.1536 23.4837 13.0709 23.3559 13.0141C23.2281 12.9574 23.0898 12.9279 22.95 12.9275C22.706 12.9246 22.4697 13.0125 22.287 13.1743C22.1044 13.336 21.9885 13.56 21.962 13.8025Z" fill="#374957"/>
</g>
<defs>
<clipPath id="clip0_507_2223">
<rect width="24" height="24" fill="white" transform="translate(0 0.92749)"/>
</clipPath>
</defs>
</svg>
