<svg width="24" height="25" viewBox="0 0 24 25" fill="none" xmlns="http://www.w3.org/2000/svg">
<g clip-path="url(#clip0_507_2168)">
<path d="M2.88588 7.76375C3.04916 7.76428 3.21008 7.72482 3.35459 7.64881C3.49909 7.57281 3.62279 7.46258 3.71488 7.32775C4.4583 6.22731 5.41315 5.28571 6.52388 4.55775C6.63367 4.48553 6.72815 4.39238 6.80194 4.28364C6.87573 4.1749 6.92737 4.05269 6.95393 3.92398C6.98049 3.79528 6.98144 3.66261 6.95672 3.53354C6.932 3.40447 6.88211 3.28154 6.80988 3.17175C6.73765 3.06197 6.64451 2.96748 6.53577 2.89369C6.42703 2.81991 6.30482 2.76826 6.17611 2.7417C6.04741 2.71514 5.91474 2.7142 5.78567 2.73891C5.6566 2.76363 5.53367 2.81352 5.42388 2.88575C4.09383 3.75758 2.95034 4.8851 2.05988 6.20275C1.95806 6.35299 1.89906 6.52811 1.88918 6.70933C1.8793 6.89055 1.91893 7.07104 2.00381 7.23146C2.0887 7.39188 2.21564 7.52617 2.37102 7.61994C2.52641 7.71371 2.70439 7.76342 2.88588 7.76375Z" fill="#374957"/>
<path d="M2 12.9273C1.99982 12.2662 2.06446 11.6067 2.193 10.9583C2.22083 10.8287 2.22263 10.6949 2.19829 10.5646C2.17395 10.4343 2.12397 10.3102 2.05123 10.1994C1.9785 10.0886 1.88448 9.99343 1.77462 9.91931C1.66477 9.84519 1.54127 9.79364 1.41132 9.76766C1.28137 9.74168 1.14755 9.7418 1.01764 9.76799C0.887732 9.79418 0.764326 9.84594 0.654595 9.92025C0.544864 9.99455 0.450996 10.0899 0.378449 10.2008C0.305902 10.3117 0.256122 10.4359 0.232002 10.5663C-0.0779852 12.127 -0.0779852 13.7335 0.232002 15.2943C0.278108 15.5201 0.400839 15.7231 0.579422 15.8689C0.758005 16.0147 0.981472 16.0943 1.212 16.0943C1.27913 16.0945 1.34612 16.0882 1.412 16.0753C1.67205 16.0231 1.90074 15.8699 2.04777 15.6491C2.19479 15.4284 2.24812 15.1583 2.196 14.8983C2.06625 14.2493 2.0006 13.5891 2 12.9273Z" fill="#374957"/>
<path d="M6.52809 21.2997C5.41713 20.5733 4.4619 19.633 3.71809 18.5337C3.64435 18.425 3.54992 18.3318 3.44018 18.2596C3.33045 18.1873 3.20756 18.1374 3.07853 18.1127C2.81795 18.0627 2.54818 18.1183 2.32859 18.2672C2.10899 18.4161 1.95754 18.6462 1.90756 18.9068C1.85758 19.1673 1.91317 19.4371 2.06209 19.6567C2.95436 20.9743 4.09995 22.1012 5.43209 22.9717C5.65381 23.1176 5.92439 23.1694 6.18432 23.1157C6.44424 23.0621 6.67222 22.9074 6.81809 22.6857C6.96395 22.464 7.01577 22.1934 6.96214 21.9335C6.9085 21.6735 6.75381 21.4456 6.53209 21.2997H6.52809Z" fill="#374957"/>
<path d="M12 0.927483C11.2718 0.928723 10.5452 0.995661 9.82904 1.12748C9.58323 1.17199 9.36298 1.30688 9.21163 1.50562C9.06029 1.70436 8.9888 1.95255 9.01125 2.20134C9.0337 2.45013 9.14845 2.68152 9.33292 2.84996C9.5174 3.0184 9.75823 3.11169 10.008 3.11148C10.0687 3.11103 10.1292 3.10568 10.189 3.09548C10.7864 2.98477 11.3925 2.92854 12 2.92748V22.9275C11.3927 22.9277 10.7865 22.8729 10.189 22.7635C9.92807 22.7157 9.65882 22.7736 9.44052 22.9244C9.22223 23.0752 9.07278 23.3065 9.02504 23.5675C8.9773 23.8285 9.03519 24.0977 9.18597 24.316C9.33674 24.5343 9.56807 24.6837 9.82904 24.7315C11.5597 25.0481 13.3388 24.9805 15.0404 24.5337C16.7421 24.0868 18.3248 23.2715 19.6767 22.1455C21.0285 21.0195 22.1164 19.6102 22.8635 18.0173C23.6106 16.4244 23.9986 14.6869 24 12.9275C23.9966 9.74594 22.7312 6.69569 20.4815 4.446C18.2318 2.19631 15.1816 0.930924 12 0.927483V0.927483Z" fill="#374957"/>
</g>
<defs>
<clipPath id="clip0_507_2168">
<rect width="24" height="24" fill="white" transform="translate(0 0.92749)"/>
</clipPath>
</defs>
</svg>
