<svg width="24" height="25" viewBox="0 0 24 25" fill="none" xmlns="http://www.w3.org/2000/svg">
<g clip-path="url(#clip0_507_2209)">
<path d="M19 5.9281H5C3.67392 5.9281 2.40215 6.45488 1.46447 7.39257C0.526784 8.33025 0 9.60202 0 10.9281L0 14.9281C0 16.2542 0.526784 17.526 1.46447 18.4636C2.40215 19.4013 3.67392 19.9281 5 19.9281H19C19.6566 19.9281 20.3068 19.7988 20.9134 19.5475C21.52 19.2962 22.0712 18.9279 22.5355 18.4636C22.9998 17.9993 23.3681 17.4481 23.6194 16.8415C23.8707 16.2349 24 15.5847 24 14.9281V10.9281C24 10.2715 23.8707 9.62131 23.6194 9.01468C23.3681 8.40806 22.9998 7.85686 22.5355 7.39257C22.0712 6.92827 21.52 6.55998 20.9134 6.3087C20.3068 6.05743 19.6566 5.9281 19 5.9281ZM22 14.9281C22 15.7238 21.6839 16.4868 21.1213 17.0494C20.5587 17.612 19.7956 17.9281 19 17.9281H5C4.20435 17.9281 3.44129 17.612 2.87868 17.0494C2.31607 16.4868 2 15.7238 2 14.9281V10.9281C2 10.1325 2.31607 9.36939 2.87868 8.80678C3.44129 8.24417 4.20435 7.9281 5 7.9281H19C19.7956 7.9281 20.5587 8.24417 21.1213 8.80678C21.6839 9.36939 22 10.1325 22 10.9281V14.9281Z" fill="#374957"/>
</g>
<defs>
<clipPath id="clip0_507_2209">
<rect width="24" height="24" fill="white" transform="translate(0 0.92749)"/>
</clipPath>
</defs>
</svg>
