<svg width="24" height="25" viewBox="0 0 24 25" fill="none" xmlns="http://www.w3.org/2000/svg">
<g clip-path="url(#clip0_507_2230)">
<path d="M19 14.9282C18.177 14.9336 17.3684 15.145 16.648 15.5432L13.3 11.5282L20.767 2.56816C20.9293 2.36365 21.0051 2.1038 20.9784 1.84412C20.9516 1.58443 20.8244 1.3455 20.6238 1.17838C20.4233 1.01125 20.1653 0.929175 19.9051 0.949688C19.6448 0.970202 19.4029 1.09168 19.231 1.28816L12 9.96616L4.768 1.28816C4.59611 1.09168 4.3542 0.970202 4.09394 0.949688C3.83369 0.929175 3.57573 1.01125 3.37518 1.17838C3.17463 1.3455 3.04739 1.58443 3.02063 1.84412C2.99388 2.1038 3.06974 2.36365 3.232 2.56816L10.7 11.5282L7.352 15.5432C6.63146 15.1455 5.82299 14.9341 5 14.9282C4.0111 14.9282 3.0444 15.2214 2.22215 15.7708C1.39991 16.3202 0.759043 17.1011 0.380605 18.0147C0.00216642 18.9284 -0.0968503 19.9337 0.0960759 20.9036C0.289002 21.8735 0.765206 22.7644 1.46447 23.4637C2.16373 24.163 3.05465 24.6392 4.02455 24.8321C4.99446 25.025 5.99979 24.926 6.91342 24.5476C7.82705 24.1691 8.60794 23.5283 9.15735 22.706C9.70676 21.8838 10 20.9171 10 19.9282C9.99428 18.7982 9.60185 17.7042 8.888 16.8282L12 13.0902L15.111 16.8282C14.3981 17.7046 14.0061 18.7984 14 19.9282C14 20.9171 14.2932 21.8838 14.8427 22.706C15.3921 23.5283 16.173 24.1691 17.0866 24.5476C18.0002 24.926 19.0055 25.025 19.9755 24.8321C20.9454 24.6392 21.8363 24.163 22.5355 23.4637C23.2348 22.7644 23.711 21.8735 23.9039 20.9036C24.0969 19.9337 23.9978 18.9284 23.6194 18.0147C23.241 17.1011 22.6001 16.3202 21.7779 15.7708C20.9556 15.2214 19.9889 14.9282 19 14.9282ZM5 22.9282C4.40666 22.9282 3.82664 22.7522 3.33329 22.4226C2.83994 22.0929 2.45543 21.6244 2.22836 21.0762C2.0013 20.528 1.94189 19.9248 2.05765 19.3429C2.1734 18.7609 2.45912 18.2264 2.87868 17.8068C3.29824 17.3873 3.83279 17.1016 4.41473 16.9858C4.99667 16.87 5.59987 16.9295 6.14805 17.1565C6.69623 17.3836 7.16477 17.7681 7.49441 18.2614C7.82406 18.7548 8 19.3348 8 19.9282C8 20.7238 7.68393 21.4869 7.12132 22.0495C6.55871 22.6121 5.79565 22.9282 5 22.9282ZM19 22.9282C18.4067 22.9282 17.8266 22.7522 17.3333 22.4226C16.8399 22.0929 16.4554 21.6244 16.2284 21.0762C16.0013 20.528 15.9419 19.9248 16.0576 19.3429C16.1734 18.7609 16.4591 18.2264 16.8787 17.8068C17.2982 17.3873 17.8328 17.1016 18.4147 16.9858C18.9967 16.87 19.5999 16.9295 20.1481 17.1565C20.6962 17.3836 21.1648 17.7681 21.4944 18.2614C21.8241 18.7548 22 19.3348 22 19.9282C22 20.7238 21.6839 21.4869 21.1213 22.0495C20.5587 22.6121 19.7957 22.9282 19 22.9282Z" fill="#374957"/>
</g>
<defs>
<clipPath id="clip0_507_2230">
<rect width="24" height="24" fill="white" transform="translate(0 0.92749)"/>
</clipPath>
</defs>
</svg>
