<svg width="24" height="25" viewBox="0 0 24 25" fill="none" xmlns="http://www.w3.org/2000/svg">
<g clip-path="url(#clip0_507_2302)">
<path d="M23.7071 16.2211C23.5195 16.0336 23.2652 15.9283 23.0001 15.9283C22.7349 15.9283 22.4806 16.0336 22.2931 16.2211L19.5001 19.0141L16.7071 16.2211C16.5185 16.0389 16.2659 15.9381 16.0037 15.9404C15.7415 15.9427 15.4907 16.0479 15.3053 16.2333C15.1199 16.4187 15.0147 16.6695 15.0124 16.9317C15.0101 17.1939 15.1109 17.4465 15.2931 17.6351L18.0861 20.4281L15.2931 23.2211C15.1976 23.3133 15.1214 23.4237 15.069 23.5457C15.0166 23.6677 14.989 23.7989 14.9878 23.9317C14.9867 24.0645 15.012 24.1961 15.0623 24.319C15.1125 24.4419 15.1868 24.5536 15.2807 24.6475C15.3746 24.7414 15.4862 24.8156 15.6091 24.8659C15.732 24.9162 15.8637 24.9415 15.9965 24.9403C16.1293 24.9392 16.2605 24.9116 16.3825 24.8592C16.5045 24.8068 16.6148 24.7306 16.7071 24.6351L19.5001 21.8421L22.2931 24.6351C22.4817 24.8172 22.7343 24.918 22.9965 24.9158C23.2587 24.9135 23.5095 24.8083 23.6949 24.6229C23.8803 24.4375 23.9855 24.1867 23.9877 23.9245C23.99 23.6623 23.8892 23.4097 23.7071 23.2211L20.9141 20.4281L23.7071 17.6351C23.8945 17.4476 23.9999 17.1933 23.9999 16.9281C23.9999 16.6629 23.8945 16.4086 23.7071 16.2211Z" fill="#374957"/>
<path d="M12 22.9275C10.0222 22.9275 8.08879 22.341 6.4443 21.2422C4.79981 20.1434 3.51809 18.5816 2.76121 16.7543C2.00433 14.9271 1.8063 12.9164 2.19215 10.9766C2.578 9.03678 3.53041 7.25495 4.92894 5.85643C6.32746 4.4579 8.10929 3.5055 10.0491 3.11964C11.9889 2.73379 13.9996 2.93182 15.8268 3.6887C17.6541 4.44558 19.2159 5.7273 20.3147 7.37179C21.4135 9.01628 22 10.9497 22 12.9275C22 13.1927 22.1054 13.4471 22.2929 13.6346C22.4804 13.8221 22.7348 13.9275 23 13.9275C23.2652 13.9275 23.5196 13.8221 23.7071 13.6346C23.8946 13.4471 24 13.1927 24 12.9275C24 10.5541 23.2962 8.23404 21.9776 6.26065C20.6591 4.28726 18.7849 2.74919 16.5922 1.84094C14.3995 0.93269 11.9867 0.69505 9.65892 1.15807C7.33115 1.62109 5.19295 2.76398 3.51472 4.44221C1.83649 6.12044 0.693605 8.25864 0.230582 10.5864C-0.232441 12.9142 0.00519943 15.327 0.913451 17.5197C1.8217 19.7124 3.35977 21.5866 5.33316 22.9051C7.30655 24.2237 9.62663 24.9275 12 24.9275C12.2652 24.9275 12.5196 24.8221 12.7071 24.6346C12.8946 24.4471 13 24.1927 13 23.9275C13 23.6623 12.8946 23.4079 12.7071 23.2204C12.5196 23.0329 12.2652 22.9275 12 22.9275Z" fill="#374957"/>
<path d="M12.0002 6.92749C11.735 6.92749 11.4806 7.03285 11.2931 7.22038C11.1056 7.40792 11.0002 7.66227 11.0002 7.92749V12.5135L8.2932 15.2205C8.19769 15.3127 8.12151 15.4231 8.0691 15.5451C8.01669 15.6671 7.98911 15.7983 7.98795 15.9311C7.9868 16.0639 8.0121 16.1955 8.06238 16.3184C8.11266 16.4413 8.18692 16.553 8.28081 16.6469C8.3747 16.7408 8.48635 16.815 8.60925 16.8653C8.73214 16.9156 8.86382 16.9409 8.9966 16.9397C9.12938 16.9386 9.2606 16.911 9.3826 16.8586C9.50461 16.8062 9.61495 16.73 9.7072 16.6345L12.7072 13.6345C12.8947 13.447 13.0001 13.1927 13.0002 12.9275V7.92749C13.0002 7.66227 12.8948 7.40792 12.7073 7.22038C12.5198 7.03285 12.2654 6.92749 12.0002 6.92749Z" fill="#374957"/>
</g>
<defs>
<clipPath id="clip0_507_2302">
<rect width="24" height="24" fill="white" transform="translate(0 0.92749)"/>
</clipPath>
</defs>
</svg>
