<svg width="24" height="25" viewBox="0 0 24 25" fill="none" xmlns="http://www.w3.org/2000/svg">
<g clip-path="url(#clip0_507_2107)">
<path d="M20 0.927483H7C6.73478 0.927483 6.48043 1.03284 6.29289 1.22038C6.10536 1.40791 6 1.66227 6 1.92748C6 2.1927 6.10536 2.44705 6.29289 2.63459C6.48043 2.82213 6.73478 2.92748 7 2.92748H12.354L9.627 22.9275H4C3.73478 22.9275 3.48043 23.0328 3.29289 23.2204C3.10536 23.4079 3 23.6623 3 23.9275C3 24.1927 3.10536 24.4471 3.29289 24.6346C3.48043 24.8221 3.73478 24.9275 4 24.9275H17C17.2652 24.9275 17.5196 24.8221 17.7071 24.6346C17.8946 24.4471 18 24.1927 18 23.9275C18 23.6623 17.8946 23.4079 17.7071 23.2204C17.5196 23.0328 17.2652 22.9275 17 22.9275H11.646L14.373 2.92748H20C20.2652 2.92748 20.5196 2.82213 20.7071 2.63459C20.8946 2.44705 21 2.1927 21 1.92748C21 1.66227 20.8946 1.40791 20.7071 1.22038C20.5196 1.03284 20.2652 0.927483 20 0.927483V0.927483Z" fill="#374957"/>
</g>
<defs>
<clipPath id="clip0_507_2107">
<rect width="24" height="24" fill="white" transform="translate(0 0.92749)"/>
</clipPath>
</defs>
</svg>
