<svg width="24" height="25" viewBox="0 0 24 25" fill="none" xmlns="http://www.w3.org/2000/svg">
<g clip-path="url(#clip0_507_1932)">
<path d="M14.9802 7.95046V3.95046C14.9802 3.68524 15.0855 3.43089 15.2731 3.24335C15.4606 3.05582 15.715 2.95046 15.9802 2.95046C16.2454 2.95046 16.4998 3.05582 16.6873 3.24335C16.8748 3.43089 16.9802 3.68524 16.9802 3.95046V6.56146C17.6102 5.92746 21.6812 1.83546 22.2732 1.24346C22.3654 1.14795 22.4758 1.07177 22.5978 1.01936C22.7198 0.966949 22.851 0.939363 22.9838 0.938209C23.1166 0.937055 23.2482 0.962357 23.3711 1.01264C23.494 1.06292 23.6057 1.13717 23.6996 1.23106C23.7935 1.32496 23.8677 1.43661 23.918 1.55951C23.9683 1.6824 23.9936 1.81408 23.9924 1.94686C23.9913 2.07964 23.9637 2.21086 23.9113 2.33286C23.8589 2.45487 23.7827 2.56521 23.6872 2.65746C23.0952 3.24946 19.0452 7.32246 18.4192 7.95046H20.9802C21.2454 7.95046 21.4998 8.05582 21.6873 8.24335C21.8748 8.43089 21.9802 8.68524 21.9802 8.95046C21.9802 9.21568 21.8748 9.47003 21.6873 9.65757C21.4998 9.8451 21.2454 9.95046 20.9802 9.95046H16.9802C16.4497 9.95046 15.941 9.73975 15.566 9.36467C15.1909 8.9896 14.9802 8.48089 14.9802 7.95046ZM23.0752 17.6895C23.6547 18.2706 23.9801 19.0578 23.9801 19.8785C23.9801 20.6991 23.6547 21.4863 23.0752 22.0675L22.1632 23.1175C13.9722 30.9555 -5.95582 11.0335 1.76318 2.81746L2.91318 1.81746C3.49482 1.25401 4.27491 0.942198 5.08468 0.949497C5.89445 0.956796 6.66879 1.28261 7.24018 1.85646C7.27118 1.88646 9.12318 4.29446 9.12318 4.29446C9.6711 4.873 9.97597 5.63984 9.97485 6.43666C9.97374 7.23348 9.66672 7.99946 9.11718 8.57646L7.95918 10.0325C8.60017 11.5895 9.54244 13.0045 10.7319 14.1964C11.9213 15.3882 13.3345 16.3333 14.8902 16.9775L16.3552 15.8125C16.931 15.2615 17.697 14.9534 18.494 14.9523C19.291 14.9512 20.0578 15.2571 20.6352 15.8065C20.6352 15.8065 23.0442 17.6595 23.0752 17.6895ZM21.7002 19.1435C21.7002 19.1435 19.3072 17.3015 19.2762 17.2715C19.0702 17.0672 18.7918 16.9526 18.5017 16.9526C18.2116 16.9526 17.9332 17.0672 17.7272 17.2715C17.7002 17.2975 15.6832 18.9055 15.6832 18.9055C15.5473 19.0137 15.3855 19.0846 15.2138 19.1112C15.0422 19.1379 14.8665 19.1193 14.7042 19.0575C12.6876 18.3072 10.8559 17.1321 9.33327 15.6119C7.81064 14.0917 6.63265 12.2618 5.87918 10.2465C5.81238 10.0819 5.7906 9.90255 5.81609 9.7268C5.84157 9.55105 5.9134 9.38525 6.02418 9.24646C6.02418 9.24646 7.63218 7.23246 7.65918 7.20646C7.86345 7.00045 7.97806 6.72208 7.97806 6.43196C7.97806 6.14184 7.86345 5.86347 7.65918 5.65746C7.62918 5.62746 5.78718 3.23246 5.78718 3.23246C5.57808 3.04497 5.30519 2.94456 5.02443 2.95181C4.74367 2.95906 4.47633 3.07342 4.27718 3.27146L3.12718 4.27146C-2.51482 11.0545 14.7572 27.3685 20.7002 21.7545L21.6122 20.7035C21.8272 20.5061 21.9567 20.2327 21.9731 19.9413C21.9896 19.65 21.8916 19.3637 21.7002 19.1435Z" fill="#374957"/>
</g>
<defs>
<clipPath id="clip0_507_1932">
<rect width="24" height="24" fill="white" transform="translate(0 0.92749)"/>
</clipPath>
</defs>
</svg>
