<svg width="24" height="25" viewBox="0 0 24 25" fill="none" xmlns="http://www.w3.org/2000/svg">
<g clip-path="url(#clip0_507_2270)">
<path d="M12 24.9275C9.86522 24.927 7.76922 24.357 5.92818 23.2764C4.08713 22.1958 2.56769 20.6436 1.52656 18.7799C0.485432 16.9162 -0.039689 14.8085 0.00535817 12.6742C0.0504054 10.54 0.663989 8.45631 1.78283 6.63823C2.90166 4.82014 4.48525 3.33344 6.37025 2.33144C8.25525 1.32945 10.3734 0.848441 12.5063 0.938035C14.6392 1.02763 16.7096 1.68458 18.5039 2.84113C20.2982 3.99768 21.7516 5.61195 22.714 7.51746C22.7779 7.63512 22.8176 7.76442 22.8306 7.8977C22.8436 8.03097 22.8297 8.1655 22.7898 8.29331C22.7498 8.42111 22.6846 8.53959 22.598 8.64172C22.5113 8.74384 22.4051 8.82753 22.2855 8.88781C22.166 8.9481 22.0355 8.98376 21.9019 8.99267C21.7683 9.00159 21.6342 8.98358 21.5077 8.93971C21.3812 8.89584 21.2648 8.82701 21.1654 8.7373C21.066 8.64759 20.9856 8.53883 20.929 8.41746C19.9155 6.41068 18.2553 4.80397 16.2164 3.85667C14.1775 2.90937 11.8789 2.67675 9.69159 3.19636C7.50426 3.71596 5.55584 4.95748 4.16081 6.72051C2.76579 8.48355 2.00555 10.6652 2.00281 12.9134C2.00008 15.1616 2.755 17.3452 4.14573 19.1116C5.53646 20.878 7.48186 22.1243 9.66792 22.6492C11.854 23.1741 14.1531 22.9471 16.1943 22.0048C18.2355 21.0624 19.8996 19.4598 20.918 17.4555C21.043 17.2274 21.2519 17.057 21.5004 16.9805C21.7489 16.9039 22.0174 16.9271 22.2491 17.0452C22.4808 17.1633 22.6573 17.367 22.7413 17.6131C22.8253 17.8592 22.8101 18.1284 22.699 18.3635C21.6995 20.3419 20.1696 22.0034 18.2803 23.1626C16.3909 24.3217 14.2165 24.9327 12 24.9275Z" fill="#374957"/>
</g>
<defs>
<clipPath id="clip0_507_2270">
<rect width="24" height="24" fill="white" transform="translate(0 0.92749)"/>
</clipPath>
</defs>
</svg>
