<svg width="24" height="25" viewBox="0 0 24 25" fill="none" xmlns="http://www.w3.org/2000/svg">
<g clip-path="url(#clip0_507_2229)">
<path d="M19 6.92799H14.321C13.9224 6.6439 13.4744 6.43637 13 6.31598V5.92798L16.53 4.27598C16.6747 4.1863 16.7941 4.06116 16.8769 3.91241C16.9598 3.76366 17.0032 3.59623 17.0032 3.42598C17.0032 3.25574 16.9598 3.08831 16.8769 2.93956C16.7941 2.79081 16.6747 2.66567 16.53 2.57598L13.33 1.07598C13.0802 0.959236 12.8049 0.907501 12.5297 0.92558C12.2545 0.943659 11.9883 1.03097 11.7559 1.1794C11.5235 1.32783 11.3323 1.53258 11.2002 1.77463C11.068 2.01669 10.9992 2.28821 11 2.56398V6.31598C10.5258 6.4362 10.0782 6.64375 9.68 6.92799H5C3.67441 6.92957 2.40356 7.45687 1.46622 8.39421C0.528882 9.33154 0.00158786 10.6024 0 11.928L0 21.928C0 22.7236 0.31607 23.4867 0.87868 24.0493C1.44129 24.6119 2.20435 24.928 3 24.928H21C21.7956 24.928 22.5587 24.6119 23.1213 24.0493C23.6839 23.4867 24 22.7236 24 21.928V11.928C23.9984 10.6024 23.4711 9.33154 22.5338 8.39421C21.5964 7.45687 20.3256 6.92957 19 6.92799ZM21.816 10.928H19.657C18.8618 10.926 18.0995 10.6101 17.536 10.049L16.414 8.92799H19C19.6183 8.93055 20.2206 9.12407 20.7247 9.48207C21.2288 9.84008 21.6099 10.3451 21.816 10.928ZM5 8.92799H7.586L6.464 10.049C5.90047 10.6101 5.13821 10.926 4.343 10.928H2.184C2.39008 10.3451 2.77123 9.84008 3.2753 9.48207C3.77937 9.12407 4.38174 8.93055 5 8.92799ZM13 22.928H11V19.928C11 19.6628 11.1054 19.4084 11.2929 19.2209C11.4804 19.0333 11.7348 18.928 12 18.928C12.2652 18.928 12.5196 19.0333 12.7071 19.2209C12.8946 19.4084 13 19.6628 13 19.928V22.928ZM21 22.928H15V19.928C15 19.1323 14.6839 18.3693 14.1213 17.8067C13.5587 17.2441 12.7956 16.928 12 16.928C11.2044 16.928 10.4413 17.2441 9.87868 17.8067C9.31607 18.3693 9 19.1323 9 19.928V22.928H3C2.73478 22.928 2.48043 22.8226 2.29289 22.6351C2.10536 22.4476 2 22.1932 2 21.928V12.928H4.343C4.99982 12.9296 5.65043 12.801 6.25721 12.5495C6.86398 12.298 7.41487 11.9287 7.878 11.463L10.586 8.75599C10.9611 8.38104 11.4697 8.17041 12 8.17041C12.5303 8.17041 13.0389 8.38104 13.414 8.75599L16.122 11.463C16.5851 11.9287 17.136 12.298 17.7428 12.5495C18.3496 12.801 19.0002 12.9296 19.657 12.928H22V21.928C22 22.1932 21.8946 22.4476 21.7071 22.6351C21.5196 22.8226 21.2652 22.928 21 22.928ZM7 15.928C7 16.1932 6.89464 16.4476 6.70711 16.6351C6.51957 16.8226 6.26522 16.928 6 16.928H5C4.73478 16.928 4.48043 16.8226 4.29289 16.6351C4.10536 16.4476 4 16.1932 4 15.928C4 15.6628 4.10536 15.4084 4.29289 15.2209C4.48043 15.0333 4.73478 14.928 5 14.928H6C6.26522 14.928 6.51957 15.0333 6.70711 15.2209C6.89464 15.4084 7 15.6628 7 15.928ZM7 19.928C7 20.1932 6.89464 20.4476 6.70711 20.6351C6.51957 20.8226 6.26522 20.928 6 20.928H5C4.73478 20.928 4.48043 20.8226 4.29289 20.6351C4.10536 20.4476 4 20.1932 4 19.928C4 19.6628 4.10536 19.4084 4.29289 19.2209C4.48043 19.0333 4.73478 18.928 5 18.928H6C6.26522 18.928 6.51957 19.0333 6.70711 19.2209C6.89464 19.4084 7 19.6628 7 19.928ZM20 15.928C20 16.1932 19.8946 16.4476 19.7071 16.6351C19.5196 16.8226 19.2652 16.928 19 16.928H18C17.7348 16.928 17.4804 16.8226 17.2929 16.6351C17.1054 16.4476 17 16.1932 17 15.928C17 15.6628 17.1054 15.4084 17.2929 15.2209C17.4804 15.0333 17.7348 14.928 18 14.928H19C19.2652 14.928 19.5196 15.0333 19.7071 15.2209C19.8946 15.4084 20 15.6628 20 15.928ZM20 19.928C20 20.1932 19.8946 20.4476 19.7071 20.6351C19.5196 20.8226 19.2652 20.928 19 20.928H18C17.7348 20.928 17.4804 20.8226 17.2929 20.6351C17.1054 20.4476 17 20.1932 17 19.928C17 19.6628 17.1054 19.4084 17.2929 19.2209C17.4804 19.0333 17.7348 18.928 18 18.928H19C19.2652 18.928 19.5196 19.0333 19.7071 19.2209C19.8946 19.4084 20 19.6628 20 19.928ZM14 12.928C14 13.3235 13.8827 13.7102 13.6629 14.0391C13.4432 14.368 13.1308 14.6244 12.7654 14.7757C12.3999 14.9271 11.9978 14.9667 11.6098 14.8896C11.2219 14.8124 10.8655 14.6219 10.5858 14.3422C10.3061 14.0625 10.1156 13.7061 10.0384 13.3182C9.96126 12.9302 10.0009 12.5281 10.1522 12.1626C10.3036 11.7972 10.56 11.4848 10.8889 11.265C11.2178 11.0453 11.6044 10.928 12 10.928C12.5304 10.928 13.0391 11.1387 13.4142 11.5138C13.7893 11.8888 14 12.3976 14 12.928Z" fill="#374957"/>
</g>
<defs>
<clipPath id="clip0_507_2229">
<rect width="24" height="24" fill="white" transform="translate(0 0.92749)"/>
</clipPath>
</defs>
</svg>
