<svg width="24" height="25" viewBox="0 0 24 25" fill="none" xmlns="http://www.w3.org/2000/svg">
<g clip-path="url(#clip0_507_2162)">
<path d="M22.554 1.85049C22.1026 1.47398 21.5733 1.2022 21.0042 1.0547C20.4352 0.907212 19.8405 0.887672 19.263 0.997488L10.079 2.71949C8.93274 2.93431 7.89762 3.54306 7.15274 4.44041C6.40787 5.33776 6.00011 6.46726 6 7.63349V17.4835C5.39466 17.1236 4.70426 16.9316 4 16.9275C3.20888 16.9275 2.43552 17.1621 1.77772 17.6016C1.11992 18.0411 0.607234 18.6659 0.304484 19.3968C0.00173312 20.1277 -0.0774802 20.9319 0.0768607 21.7078C0.231202 22.4838 0.612165 23.1965 1.17157 23.7559C1.73098 24.3153 2.44372 24.6963 3.21964 24.8506C3.99557 25.005 4.79983 24.9258 5.53074 24.623C6.26164 24.3203 6.88636 23.8076 7.32588 23.1498C7.76541 22.492 8 21.7186 8 20.9275V11.8035C7.99997 11.3369 8.16309 10.8849 8.46113 10.5259C8.75916 10.1669 9.17335 9.92335 9.632 9.83749L20.815 7.73749C20.9601 7.71018 21.1094 7.71532 21.2522 7.75254C21.3951 7.78977 21.5279 7.85816 21.6412 7.9528C21.7545 8.04744 21.8454 8.16598 21.9074 8.29992C21.9695 8.43387 22.0011 8.57988 22 8.72749V14.4875C21.3951 14.1262 20.7046 13.9328 20 13.9275C19.2089 13.9275 18.4355 14.1621 17.7777 14.6016C17.1199 15.0411 16.6072 15.6658 16.3045 16.3968C16.0017 17.1277 15.9225 17.9319 16.0769 18.7078C16.2312 19.4838 16.6122 20.1965 17.1716 20.7559C17.731 21.3153 18.4437 21.6963 19.2196 21.8506C19.9956 22.005 20.7998 21.9258 21.5307 21.623C22.2616 21.3203 22.8864 20.8076 23.3259 20.1498C23.7654 19.492 24 18.7186 24 17.9275V4.92749C24.0007 4.33973 23.8714 3.75908 23.6214 3.22713C23.3714 2.69518 23.0069 2.22508 22.554 1.85049ZM4 22.9275C3.60444 22.9275 3.21776 22.8102 2.88886 22.5904C2.55996 22.3707 2.30362 22.0583 2.15224 21.6929C2.00087 21.3274 1.96126 20.9253 2.03843 20.5373C2.1156 20.1493 2.30608 19.793 2.58579 19.5133C2.86549 19.2336 3.22186 19.0431 3.60982 18.9659C3.99778 18.8887 4.39992 18.9284 4.76537 19.0797C5.13082 19.2311 5.44318 19.4874 5.66294 19.8163C5.8827 20.1452 6 20.5319 6 20.9275C6 21.4579 5.78929 21.9666 5.41422 22.3417C5.03914 22.7168 4.53044 22.9275 4 22.9275ZM20.447 5.77549L9.263 7.87149C8.81833 7.95622 8.39126 8.11582 8 8.34349V7.63349C7.99991 6.93371 8.24445 6.25591 8.6913 5.71738C9.13816 5.17885 9.75921 4.81348 10.447 4.68449L19.632 2.96249C19.9207 2.90844 20.2178 2.91865 20.5022 2.99241C20.7865 3.06617 21.0511 3.20165 21.2772 3.38924C21.5032 3.57682 21.6852 3.8119 21.8101 4.07776C21.935 4.34362 21.9999 4.63374 22 4.92749V5.91149C21.5038 5.72796 20.9675 5.68099 20.447 5.77549ZM20 19.9275C19.6044 19.9275 19.2178 19.8102 18.8889 19.5904C18.56 19.3707 18.3036 19.0583 18.1522 18.6929C18.0009 18.3274 17.9613 17.9253 18.0384 17.5373C18.1156 17.1493 18.3061 16.793 18.5858 16.5133C18.8655 16.2336 19.2219 16.0431 19.6098 15.9659C19.9978 15.8887 20.3999 15.9284 20.7654 16.0797C21.1308 16.2311 21.4432 16.4874 21.6629 16.8163C21.8827 17.1452 22 17.5319 22 17.9275C22 18.4579 21.7893 18.9666 21.4142 19.3417C21.0391 19.7168 20.5304 19.9275 20 19.9275Z" fill="#374957"/>
</g>
<defs>
<clipPath id="clip0_507_2162">
<rect width="24" height="24" fill="white" transform="translate(0 0.92749)"/>
</clipPath>
</defs>
</svg>
