<svg width="24" height="25" viewBox="0 0 24 25" fill="none" xmlns="http://www.w3.org/2000/svg">
<path d="M17.9999 6.92746C17.8124 6.73999 17.5581 6.63467 17.2929 6.63467C17.0278 6.63467 16.7735 6.73999 16.5859 6.92746L11.9999 11.5135L7.41394 6.92746C7.22641 6.73999 6.9721 6.63467 6.70694 6.63467C6.44178 6.63467 6.18747 6.73999 5.99994 6.92746C5.81247 7.11499 5.70715 7.3693 5.70715 7.63446C5.70715 7.89962 5.81247 8.15393 5.99994 8.34146L10.5859 12.9275L5.99994 17.5135C5.81247 17.701 5.70715 17.9553 5.70715 18.2205C5.70715 18.4856 5.81247 18.7399 5.99994 18.9275C6.18747 19.1149 6.44178 19.2202 6.70694 19.2202C6.9721 19.2202 7.22641 19.1149 7.41394 18.9275L11.9999 14.3415L16.5859 18.9275C16.7735 19.1149 17.0278 19.2202 17.2929 19.2202C17.5581 19.2202 17.8124 19.1149 17.9999 18.9275C18.1874 18.7399 18.2927 18.4856 18.2927 18.2205C18.2927 17.9553 18.1874 17.701 17.9999 17.5135L13.4139 12.9275L17.9999 8.34146C18.1874 8.15393 18.2927 7.89962 18.2927 7.63446C18.2927 7.3693 18.1874 7.11499 17.9999 6.92746Z" fill="#374957"/>
</svg>
