<svg width="24" height="25" viewBox="0 0 24 25" fill="none" xmlns="http://www.w3.org/2000/svg">
<g clip-path="url(#clip0_507_2222)">
<path d="M23 19.9271V17.9271C22.9964 15.1845 21.9692 12.5419 20.1196 10.5167C18.27 8.49161 15.7311 7.22972 13 6.97813V5.65013C13.3813 5.42999 13.6793 5.0902 13.8478 4.68344C14.0162 4.27669 14.0458 3.8257 13.9319 3.40044C13.8179 2.97517 13.5668 2.59939 13.2175 2.33137C12.8682 2.06335 12.4403 1.91808 12 1.91808C11.5597 1.91808 11.1318 2.06335 10.7825 2.33137C10.4332 2.59939 10.1821 2.97517 10.0681 3.40044C9.9542 3.8257 9.98376 4.27669 10.1522 4.68344C10.3207 5.0902 10.6187 5.42999 11 5.65013V6.97813C8.26889 7.22972 5.73002 8.49161 3.88041 10.5167C2.0308 12.5419 1.00363 15.1845 1 17.9271V19.9271C0.734784 19.9271 0.48043 20.0325 0.292893 20.22C0.105357 20.4076 0 20.6619 0 20.9271C0 21.1923 0.105357 21.4467 0.292893 21.6342C0.48043 21.8218 0.734784 21.9271 1 21.9271H23C23.2652 21.9271 23.5196 21.8218 23.7071 21.6342C23.8946 21.4467 24 21.1923 24 20.9271C24 20.6619 23.8946 20.4076 23.7071 20.22C23.5196 20.0325 23.2652 19.9271 23 19.9271ZM3 17.9271C3.473 5.99313 20.531 6.00213 21 17.9271V19.9271H3V17.9271Z" fill="#374957"/>
</g>
<defs>
<clipPath id="clip0_507_2222">
<rect width="24" height="24" fill="white" transform="translate(0 0.92749)"/>
</clipPath>
</defs>
</svg>
