<svg width="24" height="25" viewBox="0 0 24 25" fill="none" xmlns="http://www.w3.org/2000/svg">
<g clip-path="url(#clip0_507_2002)">
<path d="M23.8998 12.3647C23.5069 9.34009 21.9771 6.57861 19.6212 4.64151C17.2653 2.70442 14.2602 1.73708 11.2167 1.93612C8.17322 2.13516 5.31972 3.48563 3.23619 5.71305C1.15266 7.94047 -0.00452438 10.8777 -0.000170087 13.9277C-0.00593449 15.5602 0.324888 17.1764 0.971645 18.6753C1.6184 20.1743 2.56721 21.5238 3.75883 22.6397C4.67017 23.4834 5.87099 23.9446 7.11283 23.9277H16.8798C18.1918 23.9308 19.4523 23.4174 20.3888 22.4987C21.7235 21.2001 22.7361 19.6075 23.3457 17.8479C23.9554 16.0883 24.1451 14.2106 23.8998 12.3647ZM18.9908 21.0647C18.4282 21.619 17.6697 21.9291 16.8798 21.9277H7.11283C6.3821 21.9427 5.67332 21.6776 5.13183 21.1867C4.1391 20.2568 3.34865 19.1323 2.80979 17.8834C2.27092 16.6345 1.9952 15.2879 1.99983 13.9277C2.00081 12.5199 2.2986 11.1282 2.87377 9.84328C3.44893 8.55837 4.28855 7.40918 5.33783 6.47067C7.16097 4.82658 9.53087 3.92004 11.9858 3.92767C12.3781 3.92784 12.77 3.94987 13.1598 3.99367C15.0354 4.21151 16.811 4.95623 18.2808 6.1416C19.7506 7.32696 20.8545 8.90445 21.4647 10.6914C22.0748 12.4783 22.1663 14.4015 21.7285 16.2382C21.2907 18.075 20.3415 19.7502 18.9908 21.0697V21.0647ZM7.80683 18.2127C7.99646 18.3983 8.10457 18.6517 8.10739 18.9171C8.1102 19.1824 8.00748 19.438 7.82183 19.6277C7.63618 19.8173 7.3828 19.9254 7.11744 19.9282C6.85207 19.931 6.59646 19.8283 6.40683 19.6427C5.27179 18.5308 4.49353 17.1062 4.17124 15.5504C3.84895 13.9946 3.99725 12.378 4.59721 10.9068C5.19718 9.43557 6.22165 8.17631 7.54003 7.28955C8.8584 6.40279 10.411 5.92869 11.9998 5.92767C12.3823 5.92756 12.7642 5.95463 13.1428 6.00867C13.2729 6.02742 13.3979 6.0716 13.5109 6.13869C13.6238 6.20578 13.7224 6.29447 13.8011 6.39968C13.8797 6.5049 13.9369 6.62459 13.9693 6.7519C14.0017 6.87921 14.0086 7.01166 13.9898 7.14167C13.9726 7.2724 13.9294 7.39837 13.8628 7.51216C13.7962 7.62595 13.7075 7.72527 13.6019 7.80428C13.4964 7.88329 13.3761 7.9404 13.2481 7.97223C13.1201 8.00407 12.9871 8.01 12.8568 7.98967C11.6053 7.81091 10.3293 8.03203 9.21092 8.62148C8.09253 9.21092 7.1889 10.1386 6.62899 11.272C6.06908 12.4055 5.88149 13.6869 6.09301 14.9332C6.30452 16.1796 6.90433 17.3274 7.80683 18.2127ZM19.9188 12.7847C19.9729 13.1633 19.9999 13.5452 19.9998 13.9277C20.0031 14.9933 19.7915 16.0487 19.3778 17.0308C18.9641 18.0129 18.3566 18.9016 17.5918 19.6437C17.4019 19.8293 17.1461 19.9319 16.8805 19.9289C16.615 19.9259 16.3615 19.8176 16.1758 19.6277C15.9902 19.4378 15.8876 19.1819 15.8906 18.9164C15.8936 18.6508 16.0019 18.3973 16.1918 18.2117C16.8675 17.5531 17.3777 16.744 17.6808 15.8505C17.9839 14.957 18.0713 14.0044 17.9358 13.0707C17.8979 12.808 17.9659 12.541 18.1248 12.3284C18.2838 12.1158 18.5206 11.9751 18.7833 11.9372C19.046 11.8992 19.313 11.9672 19.5256 12.1262C19.7382 12.2851 19.8789 12.522 19.9168 12.7847H19.9188ZM13.9258 13.4157C14.0462 13.8484 14.0198 14.3089 13.8509 14.725C13.6819 15.1412 13.3799 15.4897 12.9919 15.7162C12.604 15.9426 12.152 16.0342 11.7065 15.9766C11.2611 15.919 10.8472 15.7155 10.5296 15.3979C10.212 15.0803 10.0085 14.6664 9.95093 14.221C9.89335 13.7755 9.98492 13.3235 10.2113 12.9356C10.4378 12.5476 10.7863 12.2456 11.2025 12.0766C11.6187 11.9077 12.0791 11.8813 12.5118 12.0017L16.2928 8.22067C16.3851 8.12516 16.4954 8.04898 16.6174 7.99657C16.7394 7.94416 16.8706 7.91658 17.0034 7.91542C17.1362 7.91427 17.2679 7.93957 17.3908 7.98985C17.5137 8.04013 17.6253 8.11438 17.7192 8.20828C17.8131 8.30217 17.8874 8.41382 17.9377 8.53672C17.9879 8.65961 18.0132 8.79129 18.0121 8.92407C18.0109 9.05685 17.9833 9.18807 17.9309 9.31008C17.8785 9.43208 17.8023 9.54243 17.7068 9.63467L13.9258 13.4157Z" fill="#374957"/>
</g>
<defs>
<clipPath id="clip0_507_2002">
<rect width="24" height="24" fill="white" transform="translate(0 0.92749)"/>
</clipPath>
</defs>
</svg>
