<svg width="24" height="25" viewBox="0 0 24 25" fill="none" xmlns="http://www.w3.org/2000/svg">
<g clip-path="url(#clip0_507_1974)">
<path d="M13.4998 7.42738C13.4998 7.82521 13.3418 8.20674 13.0605 8.48804C12.7792 8.76935 12.3976 8.92738 11.9998 8.92738C11.602 8.92738 11.2205 8.76935 10.9391 8.48804C10.6578 8.20674 10.4998 7.82521 10.4998 7.42738C10.4998 7.02956 10.6578 6.64803 10.9391 6.36672C11.2205 6.08542 11.602 5.92738 11.9998 5.92738C12.3976 5.92738 12.7792 6.08542 13.0605 6.36672C13.3418 6.64803 13.4998 7.02956 13.4998 7.42738ZM23.9998 19.9274V13.2674C24.0371 10.1848 22.9069 7.20227 20.8361 4.91855C18.7653 2.63483 15.9073 1.21902 12.8358 0.95538C11.1215 0.835438 9.40134 1.08512 7.79185 1.68753C6.18235 2.28995 4.72102 3.23104 3.50672 4.44713C2.29243 5.66322 1.35351 7.12595 0.753484 8.73634C0.153457 10.3467 -0.0936746 12.0672 0.0288091 13.7814C0.470809 20.1354 6.08181 24.9274 13.0828 24.9274H18.9998C20.3254 24.9258 21.5963 24.3985 22.5336 23.4612C23.4709 22.5238 23.9982 21.253 23.9998 19.9274ZM12.6998 2.95138C15.2663 3.17842 17.6517 4.36829 19.3769 6.28193C21.1021 8.19558 22.0391 10.6912 21.9998 13.2674V19.9274C21.9998 20.723 21.6837 21.4861 21.1211 22.0487C20.5585 22.6113 19.7955 22.9274 18.9998 22.9274H13.0828C7.04881 22.9274 2.39981 19.0274 2.02481 13.6434C1.92636 12.272 2.11178 10.895 2.56949 9.59845C3.0272 8.30192 3.74736 7.11371 4.68498 6.10805C5.6226 5.10239 6.75754 4.30089 8.01888 3.75363C9.28022 3.20636 10.6409 2.92509 12.0158 2.92738C12.2428 2.92738 12.4718 2.93638 12.6998 2.95138ZM13.9998 18.9274V12.9274C13.9998 12.3969 13.7891 11.8882 13.414 11.5132C13.039 11.1381 12.5302 10.9274 11.9998 10.9274H10.9998C10.7346 10.9274 10.4802 11.0327 10.2927 11.2203C10.1052 11.4078 9.99981 11.6622 9.99981 11.9274C9.99981 12.1926 10.1052 12.447 10.2927 12.6345C10.4802 12.822 10.7346 12.9274 10.9998 12.9274H11.9998V18.9274C11.9998 19.1926 12.1052 19.447 12.2927 19.6345C12.4802 19.822 12.7346 19.9274 12.9998 19.9274C13.265 19.9274 13.5194 19.822 13.7069 19.6345C13.8945 19.447 13.9998 19.1926 13.9998 18.9274Z" fill="#374957"/>
</g>
<defs>
<clipPath id="clip0_507_1974">
<rect width="24" height="24" fill="white" transform="translate(0 0.92749)"/>
</clipPath>
</defs>
</svg>
