<svg width="24" height="25" viewBox="0 0 24 25" fill="none" xmlns="http://www.w3.org/2000/svg">
<g clip-path="url(#clip0_507_2093)">
<path d="M23.1213 9.9964L15.5363 2.4104C14.5975 1.47439 13.3259 0.948776 12.0003 0.948776C10.6746 0.948776 9.40301 1.47439 8.46426 2.4104L0.879256 9.9964C0.599682 10.2742 0.378026 10.6047 0.227139 10.9688C0.0762514 11.3329 -0.00086626 11.7233 0.00025622 12.1174V21.9344C0.00025622 22.7301 0.316327 23.4931 0.878936 24.0557C1.44155 24.6183 2.20461 24.9344 3.00026 24.9344H21.0003C21.7959 24.9344 22.559 24.6183 23.1216 24.0557C23.6842 23.4931 24.0003 22.7301 24.0003 21.9344V12.1174C24.0014 11.7233 23.9243 11.3329 23.7734 10.9688C23.6225 10.6047 23.4008 10.2742 23.1213 9.9964ZM15.0003 22.9344H9.00026V19.0004C9.00026 18.2048 9.31633 17.4417 9.87894 16.8791C10.4415 16.3165 11.2046 16.0004 12.0003 16.0004C12.7959 16.0004 13.559 16.3165 14.1216 16.8791C14.6842 17.4417 15.0003 18.2048 15.0003 19.0004V22.9344ZM22.0003 21.9344C22.0003 22.1996 21.8949 22.454 21.7074 22.6415C21.5198 22.829 21.2655 22.9344 21.0003 22.9344H17.0003V19.0004C17.0003 17.6743 16.4735 16.4026 15.5358 15.4649C14.5981 14.5272 13.3263 14.0004 12.0003 14.0004C10.6742 14.0004 9.40241 14.5272 8.46472 15.4649C7.52704 16.4026 7.00026 17.6743 7.00026 19.0004V22.9344H3.00026C2.73504 22.9344 2.48069 22.829 2.29315 22.6415C2.10561 22.454 2.00026 22.1996 2.00026 21.9344V12.1174C2.00118 11.8524 2.10645 11.5984 2.29326 11.4104L9.87826 3.8274C10.442 3.26633 11.2049 2.95134 12.0003 2.95134C12.7956 2.95134 13.5586 3.26633 14.1223 3.8274L21.7073 11.4134C21.8933 11.6006 21.9985 11.8534 22.0003 12.1174V21.9344Z" fill="#374957"/>
</g>
<defs>
<clipPath id="clip0_507_2093">
<rect width="24" height="24" fill="white" transform="translate(0 0.92749)"/>
</clipPath>
</defs>
</svg>
