<svg width="24" height="25" viewBox="0 0 24 25" fill="none" xmlns="http://www.w3.org/2000/svg">
<g clip-path="url(#clip0_507_2017)">
<path d="M21.5 3.42746C19.8937 1.83588 17.7239 0.942963 15.4625 0.942963C13.2012 0.942963 11.0314 1.83588 9.42505 3.42746C7.04804 5.80446 6.26804 11.3365 6.01505 14.4275C5.94547 15.2959 6.15008 16.1644 6.60005 16.9104L2.80004 20.7104C2.65894 20.4523 2.44506 20.2414 2.18502 20.1039C1.92497 19.9664 1.63024 19.9084 1.33749 19.9371C1.04473 19.9658 0.766883 20.08 0.538504 20.2654C0.310124 20.4508 0.141295 20.6992 0.0530209 20.9798C-0.035253 21.2604 -0.0390753 21.5608 0.0420294 21.8436C0.123134 22.1263 0.285586 22.379 0.509174 22.5701C0.732762 22.7613 1.00762 22.8825 1.29954 22.9186C1.59147 22.9548 1.88758 22.9043 2.15104 22.7734C2.02021 23.0369 1.96973 23.333 2.00588 23.6249C2.04203 23.9169 2.16322 24.1917 2.35436 24.4153C2.54551 24.6389 2.79818 24.8013 3.08093 24.8825C3.36369 24.9636 3.66405 24.9597 3.94465 24.8715C4.22525 24.7832 4.4737 24.6144 4.65909 24.386C4.84449 24.1576 4.95864 23.8798 4.98735 23.587C5.01606 23.2942 4.95806 22.9995 4.82056 22.7395C4.68307 22.4794 4.47215 22.2655 4.21405 22.1244L8.01404 18.3244C8.75888 18.7788 9.62833 18.9861 10.498 18.9164C13.584 18.6634 19.115 17.8844 21.498 15.5065C23.0914 13.9003 23.9856 11.7297 23.9859 9.46737C23.9863 7.20501 23.0928 5.03412 21.5 3.42746ZM20.085 14.0895C18.698 15.4745 15.056 16.5335 10.341 16.9204C10.0277 16.9476 9.71222 16.9058 9.41673 16.7981C9.12123 16.6905 8.85287 16.5194 8.63048 16.297C8.40809 16.0746 8.23704 15.8063 8.12935 15.5108C8.02165 15.2153 7.97991 14.8998 8.00704 14.5865C8.39404 9.87146 9.45304 6.22746 10.838 4.84246C11.4428 4.22446 12.1641 3.73254 12.9603 3.39516C13.7564 3.05779 14.6116 2.88166 15.4762 2.87698C16.3409 2.8723 17.1979 3.03915 17.9976 3.36788C18.7974 3.69661 19.524 4.18069 20.1354 4.79211C20.7468 5.40353 21.2309 6.13013 21.5596 6.92988C21.8884 7.72963 22.0552 8.58663 22.0505 9.45129C22.0458 10.3159 21.8697 11.1711 21.5323 11.9672C21.195 12.7634 20.703 13.4847 20.085 14.0895Z" fill="#374957"/>
</g>
<defs>
<clipPath id="clip0_507_2017">
<rect width="24" height="24" fill="white" transform="translate(0 0.92749)"/>
</clipPath>
</defs>
</svg>
