<svg width="24" height="25" viewBox="0 0 24 25" fill="none" xmlns="http://www.w3.org/2000/svg">
<g clip-path="url(#clip0_507_2235)">
<path d="M1 5.67781H3.736C3.95064 6.46754 4.41917 7.1647 5.06933 7.66174C5.71948 8.15878 6.51512 8.42807 7.3335 8.42807C8.15188 8.42807 8.94752 8.15878 9.59767 7.66174C10.2478 7.1647 10.7164 6.46754 10.931 5.67781H23C23.2652 5.67781 23.5196 5.57245 23.7071 5.38492C23.8946 5.19738 24 4.94303 24 4.67781C24 4.41259 23.8946 4.15824 23.7071 3.9707C23.5196 3.78317 23.2652 3.67781 23 3.67781H10.931C10.7164 2.88808 10.2478 2.19092 9.59767 1.69388C8.94752 1.19684 8.15188 0.927551 7.3335 0.927551C6.51512 0.927551 5.71948 1.19684 5.06933 1.69388C4.41917 2.19092 3.95064 2.88808 3.736 3.67781H1C0.734784 3.67781 0.48043 3.78317 0.292893 3.9707C0.105357 4.15824 0 4.41259 0 4.67781C0 4.94303 0.105357 5.19738 0.292893 5.38492C0.48043 5.57245 0.734784 5.67781 1 5.67781ZM7.333 2.92781C7.67912 2.92781 8.01746 3.03045 8.30525 3.22274C8.59303 3.41503 8.81734 3.68834 8.94979 4.00811C9.08224 4.32788 9.1169 4.67975 9.04937 5.01922C8.98185 5.35869 8.81518 5.67051 8.57044 5.91525C8.3257 6.15999 8.01388 6.32666 7.67441 6.39418C7.33494 6.46171 6.98307 6.42705 6.6633 6.2946C6.34353 6.16215 6.07022 5.93784 5.87793 5.65006C5.68564 5.36227 5.583 5.02393 5.583 4.67781C5.58353 4.21384 5.76807 3.76903 6.09615 3.44096C6.42422 3.11288 6.86903 2.92834 7.333 2.92781Z" fill="#374957"/>
<path d="M23 11.9266H20.264C20.0497 11.1367 19.5814 10.4393 18.9313 9.94203C18.2812 9.44479 17.4855 9.17537 16.667 9.17537C15.8485 9.17537 15.0528 9.44479 14.4027 9.94203C13.7526 10.4393 13.2843 11.1367 13.07 11.9266H1C0.734784 11.9266 0.48043 12.032 0.292893 12.2195C0.105357 12.407 0 12.6614 0 12.9266C0 13.1918 0.105357 13.4462 0.292893 13.6337C0.48043 13.8212 0.734784 13.9266 1 13.9266H13.07C13.2843 14.7165 13.7526 15.4139 14.4027 15.9112C15.0528 16.4084 15.8485 16.6778 16.667 16.6778C17.4855 16.6778 18.2812 16.4084 18.9313 15.9112C19.5814 15.4139 20.0497 14.7165 20.264 13.9266H23C23.2652 13.9266 23.5196 13.8212 23.7071 13.6337C23.8946 13.4462 24 13.1918 24 12.9266C24 12.6614 23.8946 12.407 23.7071 12.2195C23.5196 12.032 23.2652 11.9266 23 11.9266ZM16.667 14.6766C16.3209 14.6766 15.9825 14.574 15.6948 14.3817C15.407 14.1894 15.1827 13.9161 15.0502 13.5963C14.9178 13.2765 14.8831 12.9247 14.9506 12.5852C15.0181 12.2457 15.1848 11.9339 15.4296 11.6892C15.6743 11.4444 15.9861 11.2777 16.3256 11.2102C16.6651 11.1427 17.0169 11.1774 17.3367 11.3098C17.6565 11.4423 17.9298 11.6666 18.1221 11.9543C18.3144 12.2421 18.417 12.5805 18.417 12.9266C18.4165 13.3906 18.2319 13.8354 17.9039 14.1634C17.5758 14.4915 17.131 14.6761 16.667 14.6766Z" fill="#374957"/>
<path d="M23 20.1778H10.931C10.7164 19.3881 10.2478 18.6909 9.59767 18.1939C8.94752 17.6968 8.15188 17.4276 7.3335 17.4276C6.51512 17.4276 5.71948 17.6968 5.06933 18.1939C4.41917 18.6909 3.95064 19.3881 3.736 20.1778H1C0.734784 20.1778 0.48043 20.2832 0.292893 20.4707C0.105357 20.6582 0 20.9126 0 21.1778C0 21.443 0.105357 21.6974 0.292893 21.8849C0.48043 22.0724 0.734784 22.1778 1 22.1778H3.736C3.95064 22.9675 4.41917 23.6647 5.06933 24.1617C5.71948 24.6588 6.51512 24.928 7.3335 24.928C8.15188 24.928 8.94752 24.6588 9.59767 24.1617C10.2478 23.6647 10.7164 22.9675 10.931 22.1778H23C23.2652 22.1778 23.5196 22.0724 23.7071 21.8849C23.8946 21.6974 24 21.443 24 21.1778C24 20.9126 23.8946 20.6582 23.7071 20.4707C23.5196 20.2832 23.2652 20.1778 23 20.1778ZM7.333 22.9278C6.98688 22.9278 6.64854 22.8252 6.36075 22.6329C6.07297 22.4406 5.84866 22.1673 5.71621 21.8475C5.58376 21.5277 5.5491 21.1759 5.61663 20.8364C5.68415 20.4969 5.85082 20.1851 6.09556 19.9404C6.3403 19.6956 6.65213 19.529 6.99159 19.4614C7.33106 19.3939 7.68293 19.4286 8.0027 19.561C8.32247 19.6935 8.59578 19.9178 8.78807 20.2056C8.98036 20.4933 9.083 20.8317 9.083 21.1778C9.08221 21.6417 8.89758 22.0863 8.56956 22.4144C8.24154 22.7424 7.79689 22.927 7.333 22.9278Z" fill="#374957"/>
</g>
<defs>
<clipPath id="clip0_507_2235">
<rect width="24" height="24" fill="white" transform="translate(0 0.92749)"/>
</clipPath>
</defs>
</svg>
