<svg width="24" height="25" viewBox="0 0 24 25" fill="none" xmlns="http://www.w3.org/2000/svg">
<g clip-path="url(#clip0_507_2069)">
<path d="M23.1469 10.3985L22.3599 9.32749C21.8145 8.58542 21.1026 7.98169 20.2815 7.56485C19.4603 7.14801 18.5528 6.92971 17.6319 6.92749H6.38288C5.4809 6.92985 4.5915 7.13925 3.78323 7.53958C2.97495 7.9399 2.26938 8.52045 1.72087 9.23649L0.899875 10.3105C0.233357 11.1898 -0.0800167 12.2867 0.0213957 13.3854C0.122808 14.4841 0.631666 15.505 1.44787 16.2475L9.43788 23.9545C10.1396 24.5803 11.0476 24.9253 11.9879 24.9235C12.9481 24.9216 13.8739 24.5655 14.5879 23.9235L22.5239 16.2905C23.3448 15.5636 23.8639 14.5558 23.9792 13.4654C24.0945 12.375 23.7976 11.281 23.1469 10.3985ZM20.7469 10.5055L21.5339 11.5795C21.6129 11.6894 21.6825 11.8058 21.7419 11.9275H16.9509C16.8785 11.4486 16.7537 10.9791 16.5789 10.5275L15.9389 8.92749H17.6319C18.2383 8.92864 18.836 9.07199 19.377 9.34605C19.918 9.62011 20.3872 10.0172 20.7469 10.5055ZM11.9899 21.0155L9.22088 14.7455C9.12072 14.4803 9.04507 14.2065 8.99488 13.9275H14.9469C14.9049 14.1474 14.8461 14.3637 14.7709 14.5745L11.9899 21.0155ZM9.09988 11.9275C9.1417 11.7482 9.19412 11.5716 9.25688 11.3985L10.2409 8.92749H13.7849L14.7219 11.2705C14.8041 11.4844 14.871 11.704 14.9219 11.9275H9.09988ZM3.31088 10.4485C3.67244 9.97684 4.13741 9.59444 4.67 9.33075C5.20259 9.06706 5.78858 8.9291 6.38288 8.92749H8.08288L7.39988 10.6565C7.23509 11.0667 7.11213 11.4926 7.03288 11.9275H2.24487C2.31346 11.7861 2.39622 11.6521 2.49188 11.5275L3.31088 10.4485ZM2.81088 14.7815C2.55 14.5449 2.34505 14.2531 2.21088 13.9275H6.98288C7.04919 14.4663 7.1791 14.9953 7.36988 15.5035L10.1969 21.9035L2.81088 14.7815ZM13.7709 21.9415L16.6249 15.3275C16.7905 14.8748 16.9059 14.4054 16.9689 13.9275H21.7999C21.6583 14.2708 21.4421 14.5782 21.1669 14.8275L13.7709 21.9415Z" fill="#374957"/>
<path d="M11.9999 4.92749C12.2651 4.92749 12.5195 4.82213 12.707 4.6346C12.8945 4.44706 12.9999 4.19271 12.9999 3.92749V1.92749C12.9999 1.66227 12.8945 1.40792 12.707 1.22038C12.5195 1.03285 12.2651 0.92749 11.9999 0.92749C11.7347 0.92749 11.4803 1.03285 11.2928 1.22038C11.1052 1.40792 10.9999 1.66227 10.9999 1.92749V3.92749C10.9999 4.19271 11.1052 4.44706 11.2928 4.6346C11.4803 4.82213 11.7347 4.92749 11.9999 4.92749Z" fill="#374957"/>
<path d="M16.5529 4.82736C16.671 4.88672 16.7996 4.92209 16.9315 4.93143C17.0633 4.94077 17.1956 4.92389 17.3209 4.88177C17.4462 4.83965 17.5618 4.77311 17.6612 4.68602C17.7606 4.59893 17.8417 4.493 17.8999 4.37436L18.8999 2.37436C19.0185 2.13699 19.0379 1.86225 18.9539 1.61057C18.8699 1.3589 18.6893 1.15091 18.4519 1.03236C18.2146 0.913807 17.9398 0.894405 17.6881 0.978421C17.4365 1.06244 17.2285 1.24299 17.1099 1.48036L16.1099 3.48036C16.0502 3.59782 16.0143 3.72593 16.0043 3.85731C15.9942 3.9887 16.0102 4.12078 16.0514 4.24595C16.0926 4.37113 16.1581 4.48693 16.2441 4.58671C16.3302 4.68649 16.4351 4.76827 16.5529 4.82736Z" fill="#374957"/>
<path d="M6.10506 4.37436C6.22361 4.61239 6.43186 4.79358 6.68401 4.87806C6.93615 4.96255 7.21152 4.94341 7.44956 4.82486C7.68759 4.70631 7.86878 4.49805 7.95326 4.24591C8.03775 3.99377 8.01861 3.71839 7.90006 3.48036L6.90006 1.48036C6.84136 1.36283 6.76008 1.25801 6.66087 1.17188C6.56166 1.08576 6.44646 1.02002 6.32184 0.978421C6.07017 0.894405 5.79543 0.913807 5.55806 1.03236C5.32069 1.15091 5.14014 1.3589 5.05612 1.61057C4.9721 1.86225 4.9915 2.13699 5.11006 2.37436L6.10506 4.37436Z" fill="#374957"/>
</g>
<defs>
<clipPath id="clip0_507_2069">
<rect width="24" height="24" fill="white" transform="translate(0 0.92749)"/>
</clipPath>
</defs>
</svg>
