<svg width="24" height="25" viewBox="0 0 24 25" fill="none" xmlns="http://www.w3.org/2000/svg">
<g clip-path="url(#clip0_507_2056)">
<path d="M12.0001 16.9277C10.9392 16.9277 9.92181 16.5063 9.17166 15.7561C8.42151 15.006 8.00009 13.9885 8.00009 12.9277C8.00009 11.8668 8.42151 10.8494 9.17166 10.0993C9.92181 9.34911 10.9392 8.92768 12.0001 8.92768C13.061 8.92768 14.0784 9.34911 14.8285 10.0993C15.5787 10.8494 16.0001 11.8668 16.0001 12.9277C16.0001 13.9885 15.5787 15.006 14.8285 15.7561C14.0784 16.5063 13.061 16.9277 12.0001 16.9277ZM12.0001 10.9277C11.4697 10.9277 10.9609 11.1384 10.5859 11.5135C10.2108 11.8885 10.0001 12.3972 10.0001 12.9277C10.0001 13.4581 10.2108 13.9668 10.5859 14.3419C10.9609 14.717 11.4697 14.9277 12.0001 14.9277C12.5305 14.9277 13.0392 14.717 13.4143 14.3419C13.7894 13.9668 14.0001 13.4581 14.0001 12.9277C14.0001 12.3972 13.7894 11.8885 13.4143 11.5135C13.0392 11.1384 12.5305 10.9277 12.0001 10.9277ZM12.0001 24.9277C10.9092 24.9266 9.84862 24.5692 8.97949 23.91C8.11037 23.2508 7.48029 22.3258 7.18509 21.2757C6.12976 21.5087 5.02759 21.3987 4.03915 20.9617C3.0507 20.5246 2.22763 19.7834 1.68983 18.846C1.15203 17.9085 0.9276 16.8238 1.04924 15.75C1.17088 14.6761 1.63223 13.6691 2.36609 12.8757C-1.03391 9.36468 2.37509 3.27568 7.20009 4.52668C7.51132 3.49584 8.14614 2.59257 9.01062 1.95056C9.87509 1.30854 10.9233 0.961884 12.0001 0.961884C13.0769 0.961884 14.1251 1.30854 14.9896 1.95056C15.854 2.59257 16.4889 3.49584 16.8001 4.52668C21.7001 3.31068 25.0001 9.33968 21.6291 12.9187C25.0371 16.4567 21.6401 22.3607 16.8151 21.2757C16.5199 22.3258 15.8898 23.2508 15.0207 23.91C14.1516 24.5692 13.0909 24.9266 12.0001 24.9277ZM8.00009 18.9277C8.2653 18.9277 8.51966 19.033 8.70719 19.2206C8.89473 19.4081 9.00009 19.6625 9.00009 19.9277C9.00009 20.7233 9.31616 21.4864 9.87877 22.049C10.4414 22.6116 11.2044 22.9277 12.0001 22.9277C12.7957 22.9277 13.5588 22.6116 14.1214 22.049C14.684 21.4864 15.0001 20.7233 15.0001 19.9277C15 19.7515 15.0465 19.5785 15.1348 19.426C15.2231 19.2736 15.35 19.1472 15.5029 19.0596C15.6557 18.972 15.829 18.9263 16.0052 18.9272C16.1813 18.9281 16.3541 18.9755 16.5061 19.0647C19.9721 20.7397 22.9061 15.8827 19.5221 13.8057C19.3659 13.7183 19.2359 13.5909 19.1454 13.4366C19.0549 13.2823 19.0072 13.1066 19.0072 12.9277C19.0072 12.7488 19.0549 12.5731 19.1454 12.4187C19.2359 12.2644 19.3659 12.137 19.5221 12.0497C22.8351 10.0407 20.0441 4.83068 16.5031 6.79568C16.3508 6.88428 16.1779 6.9311 16.0018 6.93139C15.8256 6.93169 15.6525 6.88545 15.5 6.79736C15.3474 6.70927 15.2209 6.58245 15.1331 6.42973C15.0453 6.27702 14.9994 6.10382 15.0001 5.92768C15.0001 5.13203 14.684 4.36897 14.1214 3.80636C13.5588 3.24375 12.7957 2.92768 12.0001 2.92768C11.2044 2.92768 10.4414 3.24375 9.87877 3.80636C9.31616 4.36897 9.00009 5.13203 9.00009 5.92768C9.00043 6.10338 8.95448 6.27608 8.86686 6.42837C8.77923 6.58067 8.65302 6.70718 8.50094 6.79519C8.34887 6.88319 8.17629 6.92957 8.00058 6.92965C7.82488 6.92974 7.65225 6.88353 7.50009 6.79568C4.00009 4.83568 1.13809 10.0077 4.47809 11.9977C4.63422 12.0852 4.76421 12.2127 4.85469 12.3671C4.94517 12.5215 4.99286 12.6972 4.99286 12.8762C4.99286 13.0551 4.94517 13.2309 4.85469 13.3853C4.76421 13.5397 4.63422 13.6672 4.47809 13.7547C1.13009 15.8677 3.96409 20.7277 7.49409 19.0647C7.64757 18.9748 7.82224 18.9275 8.00009 18.9277Z" fill="#374957"/>
</g>
<defs>
<clipPath id="clip0_507_2056">
<rect width="24" height="24" fill="white" transform="translate(0 0.92749)"/>
</clipPath>
</defs>
</svg>
