<svg width="24" height="25" viewBox="0 0 24 25" fill="none" xmlns="http://www.w3.org/2000/svg">
<g clip-path="url(#clip0_507_2269)">
<path d="M13 1.92749V3.92749C13 4.19271 12.8946 4.44706 12.7071 4.6346C12.5196 4.82213 12.2652 4.92749 12 4.92749C11.7348 4.92749 11.4804 4.82213 11.2929 4.6346C11.1054 4.44706 11 4.19271 11 3.92749V1.92749C11 1.66227 11.1054 1.40792 11.2929 1.22038C11.4804 1.03285 11.7348 0.92749 12 0.92749C12.2652 0.92749 12.5196 1.03285 12.7071 1.22038C12.8946 1.40792 13 1.66227 13 1.92749ZM12 20.9275C11.7348 20.9275 11.4804 21.0328 11.2929 21.2204C11.1054 21.4079 11 21.6623 11 21.9275V23.9275C11 24.1927 11.1054 24.4471 11.2929 24.6346C11.4804 24.8221 11.7348 24.9275 12 24.9275C12.2652 24.9275 12.5196 24.8221 12.7071 24.6346C12.8946 24.4471 13 24.1927 13 23.9275V21.9275C13 21.6623 12.8946 21.4079 12.7071 21.2204C12.5196 21.0328 12.2652 20.9275 12 20.9275ZM4 12.9275C4 12.6623 3.89464 12.4079 3.70711 12.2204C3.51957 12.0328 3.26522 11.9275 3 11.9275H1C0.734784 11.9275 0.48043 12.0328 0.292893 12.2204C0.105357 12.4079 0 12.6623 0 12.9275C0 13.1927 0.105357 13.4471 0.292893 13.6346C0.48043 13.8221 0.734784 13.9275 1 13.9275H3C3.26522 13.9275 3.51957 13.8221 3.70711 13.6346C3.89464 13.4471 4 13.1927 4 12.9275ZM23 11.9275H21C20.7348 11.9275 20.4804 12.0328 20.2929 12.2204C20.1054 12.4079 20 12.6623 20 12.9275C20 13.1927 20.1054 13.4471 20.2929 13.6346C20.4804 13.8221 20.7348 13.9275 21 13.9275H23C23.2652 13.9275 23.5196 13.8221 23.7071 13.6346C23.8946 13.4471 24 13.1927 24 12.9275C24 12.6623 23.8946 12.4079 23.7071 12.2204C23.5196 12.0328 23.2652 11.9275 23 11.9275ZM18.018 2.54549C17.9044 2.47959 17.7788 2.43674 17.6486 2.41937C17.5184 2.40199 17.386 2.41045 17.2591 2.44426C17.1321 2.47806 17.0131 2.53655 16.9088 2.61637C16.8044 2.6962 16.7168 2.7958 16.651 2.90949L15.651 4.64049C15.5183 4.87005 15.4822 5.1429 15.5507 5.39906C15.6191 5.65522 15.7865 5.87371 16.016 6.00649C16.1677 6.09519 16.3403 6.1418 16.516 6.14149C16.6915 6.14149 16.864 6.09528 17.016 6.00751C17.168 5.91974 17.2942 5.79351 17.382 5.64149L18.382 3.91049C18.5145 3.68114 18.5505 3.40862 18.4823 3.15272C18.414 2.89681 18.2471 2.67843 18.018 2.54549ZM7.987 19.8485C7.75756 19.7157 7.4848 19.6795 7.22865 19.7477C6.97251 19.816 6.75395 19.9832 6.621 20.2125L5.621 21.9435C5.48823 22.1729 5.45199 22.4457 5.52025 22.7018C5.5885 22.958 5.75567 23.1765 5.985 23.3095C6.13672 23.3981 6.3093 23.4447 6.485 23.4445C6.6607 23.4447 6.83335 23.3985 6.98555 23.3108C7.13776 23.223 7.26415 23.0967 7.352 22.9445L8.352 21.2135C8.48437 20.984 8.52028 20.7114 8.45185 20.4555C8.38341 20.1996 8.21623 19.9813 7.987 19.8485ZM4.715 7.54849L2.984 6.54849C2.75505 6.42528 2.48712 6.39609 2.23701 6.46709C1.9869 6.5381 1.77428 6.70372 1.64422 6.92885C1.51417 7.15398 1.4769 7.42091 1.54033 7.67304C1.60376 7.92518 1.7629 8.1427 1.984 8.27949L3.715 9.27949C3.94395 9.4027 4.21188 9.43189 4.46199 9.36089C4.7121 9.28988 4.92472 9.12426 5.05478 8.89913C5.18483 8.674 5.2221 8.40707 5.15867 8.15494C5.09524 7.9028 4.9361 7.68528 4.715 7.54849ZM22.015 17.5785L20.284 16.5785C20.0551 16.4553 19.7871 16.4261 19.537 16.4971C19.2869 16.5681 19.0743 16.7337 18.9442 16.9589C18.8142 17.184 18.7769 17.4509 18.8403 17.703C18.9038 17.9552 19.0629 18.1727 19.284 18.3095L21.015 19.3095C21.1667 19.3982 21.3393 19.4448 21.515 19.4445C21.7351 19.4445 21.9491 19.3718 22.1237 19.2378C22.2984 19.1038 22.4239 18.9159 22.4809 18.7033C22.5379 18.4907 22.5231 18.2652 22.4388 18.0618C22.3546 17.8585 22.2056 17.6886 22.015 17.5785ZM7.349 2.90949C7.21221 2.68839 6.99469 2.52925 6.74255 2.46582C6.49042 2.40239 6.22349 2.43966 5.99836 2.56971C5.77323 2.69977 5.60761 2.91239 5.5366 3.1625C5.4656 3.41261 5.49479 3.68054 5.618 3.90949L6.618 5.64049C6.70577 5.79251 6.832 5.91874 6.98401 6.00651C7.13603 6.09428 7.30847 6.14049 7.484 6.14049C7.65971 6.1408 7.83232 6.09419 7.984 6.00549C8.2135 5.87271 8.38088 5.65422 8.44933 5.39806C8.51777 5.1419 8.48169 4.86905 8.349 4.63949L7.349 2.90949ZM17.379 20.2095C17.2422 19.9884 17.0247 19.8293 16.7726 19.7658C16.5204 19.7024 16.2535 19.7397 16.0284 19.8697C15.8032 19.9998 15.6376 20.2124 15.5666 20.4625C15.4956 20.7126 15.5248 20.9805 15.648 21.2095L16.648 22.9405C16.7848 23.1616 17.0023 23.3207 17.2544 23.3842C17.5066 23.4476 17.7735 23.4103 17.9986 23.2803C18.2238 23.1502 18.3894 22.9376 18.4604 22.6875C18.5314 22.4374 18.5022 22.1694 18.379 21.9405L17.379 20.2095ZM19.787 9.40949C19.9625 9.40948 20.135 9.36327 20.287 9.27549L22.018 8.27549C22.2391 8.1387 22.3982 7.92118 22.4617 7.66904C22.5251 7.41691 22.4878 7.14998 22.3578 6.92485C22.2277 6.69972 22.0151 6.5341 21.765 6.46309C21.5149 6.39209 21.2469 6.42128 21.018 6.54449L19.287 7.54449C19.0969 7.65478 18.9484 7.82465 18.8645 8.02782C18.7806 8.23098 18.766 8.45613 18.8229 8.66844C18.8798 8.88075 19.0051 9.06839 19.1794 9.20235C19.3536 9.3363 19.5672 9.4091 19.787 9.40949ZM3.713 16.5755L1.982 17.5755C1.79137 17.6856 1.64239 17.8555 1.55815 18.0588C1.47392 18.2622 1.45915 18.4877 1.51612 18.7003C1.57309 18.9129 1.69863 19.1008 1.87327 19.2348C2.0479 19.3688 2.26187 19.4415 2.482 19.4415C2.65771 19.4418 2.83032 19.3952 2.982 19.3065L4.713 18.3065C4.9341 18.1697 5.09324 17.9522 5.15667 17.7C5.2201 17.4479 5.18283 17.181 5.05278 16.9559C4.92272 16.7307 4.7101 16.5651 4.45999 16.4941C4.20988 16.4231 3.94195 16.4523 3.713 16.5755Z" fill="#374957"/>
</g>
<defs>
<clipPath id="clip0_507_2269">
<rect width="24" height="24" fill="white" transform="translate(0 0.92749)"/>
</clipPath>
</defs>
</svg>
