<svg width="24" height="25" viewBox="0 0 24 25" fill="none" xmlns="http://www.w3.org/2000/svg">
<g clip-path="url(#clip0_507_2136)">
<path d="M8.17465 23.3748C10.2773 25.4318 13.6354 25.4401 15.7483 23.3938L19.7302 19.7141C24.0437 15.4581 24.0902 8.51115 19.8341 4.19771C15.5781 -0.115727 8.63116 -0.162321 4.31772 4.09374C4.28285 4.12815 4.24816 4.16284 4.21376 4.19771C-0.0707597 8.48288 -0.0701971 15.43 4.21497 19.7145C4.22383 19.7234 4.23274 19.7322 4.24165 19.7411L8.17465 23.3748ZM5.62413 5.60813C9.12222 2.09462 14.8062 2.0821 18.3198 5.58019C21.8333 9.07829 21.8458 14.7623 18.3477 18.2758L14.3738 21.9485C13.0165 23.2259 10.8969 23.218 9.54912 21.9305L5.62413 18.3038C2.11835 14.798 2.1183 9.11401 5.62404 5.60818C5.62408 5.60818 5.62413 5.60813 5.62413 5.60813ZM6.98468 11.9559C6.98468 11.4051 7.43126 10.9585 7.98213 10.9585H10.9745V7.96613C10.9745 7.41526 11.4211 6.96868 11.9719 6.96868C12.5228 6.96868 12.9694 7.41526 12.9694 7.96613V10.9585H15.9618C16.5126 10.9585 16.9592 11.4051 16.9592 11.9559C16.9592 12.5068 16.5126 12.9534 15.9618 12.9534H12.9694V15.9458C12.9694 16.4966 12.5228 16.9432 11.9719 16.9432C11.4211 16.9432 10.9745 16.4966 10.9745 15.9458V12.9534H7.98213C7.43126 12.9534 6.98468 12.5068 6.98468 11.9559Z" fill="#374957"/>
</g>
<defs>
<clipPath id="clip0_507_2136">
<rect width="24" height="24" fill="white" transform="translate(0 0.92749)"/>
</clipPath>
</defs>
</svg>
