<svg width="24" height="25" viewBox="0 0 24 25" fill="none" xmlns="http://www.w3.org/2000/svg">
<g clip-path="url(#clip0_507_1912)">
<path d="M22.2 3.09046C21.6378 2.62039 20.9791 2.27985 20.2705 2.09303C19.5619 1.9062 18.8209 1.87767 18.1 2.00946L14.278 2.70346C13.3956 2.86551 12.5933 3.31949 12 3.99246C11.4052 3.31833 10.6006 2.86424 9.716 2.70346L5.9 2.00946C5.17916 1.87756 4.43813 1.90571 3.72938 2.09194C3.02062 2.27816 2.36147 2.61791 1.79857 3.08712C1.23567 3.55633 0.782786 4.14353 0.471982 4.80717C0.161178 5.47081 4.88125e-05 6.19465 0 6.92746L0 17.7205C5.74559e-05 18.8913 0.410977 20.0249 1.16113 20.9238C1.91129 21.8227 2.95311 22.4299 4.105 22.6395L10.391 23.7825C11.455 23.9758 12.545 23.9758 13.609 23.7825L19.9 22.6395C21.051 22.4288 22.0916 21.8212 22.8408 20.9224C23.5899 20.0236 24.0002 18.8905 24 17.7205V6.92746C24.0005 6.19491 23.8394 5.47126 23.5283 4.80806C23.2171 4.14485 22.7636 3.5584 22.2 3.09046ZM11 21.8555C10.916 21.8435 10.832 21.8295 10.748 21.8145L4.463 20.6725C3.77176 20.5467 3.14659 20.1823 2.69649 19.6429C2.24638 19.1034 1.99989 18.423 2 17.7205V6.92746C2 6.13181 2.31607 5.36875 2.87868 4.80614C3.44129 4.24353 4.20435 3.92746 5 3.92746C5.18109 3.92789 5.36179 3.94429 5.54 3.97646L9.36 4.67646C9.81961 4.76057 10.2353 5.00293 10.5348 5.36151C10.8344 5.72008 10.999 6.17222 11 6.63946V21.8555ZM22 17.7205C22.0001 18.423 21.7536 19.1034 21.3035 19.6429C20.8534 20.1823 20.2282 20.5467 19.537 20.6725L13.252 21.8145C13.168 21.8295 13.084 21.8435 13 21.8555V6.63946C12.9999 6.17107 13.1643 5.71752 13.4643 5.35787C13.7644 4.99822 14.1812 4.7553 14.642 4.67146L18.463 3.97146C18.8957 3.89273 19.3405 3.91011 19.7657 4.02237C20.191 4.13463 20.5863 4.33902 20.9238 4.62107C21.2613 4.90311 21.5326 5.25592 21.7186 5.65449C21.9046 6.05305 22.0007 6.48764 22 6.92746V17.7205Z" fill="#374957"/>
</g>
<defs>
<clipPath id="clip0_507_1912">
<rect width="24" height="24" fill="white" transform="translate(0 0.92749)"/>
</clipPath>
</defs>
</svg>
