<svg width="24" height="25" viewBox="0 0 24 25" fill="none" xmlns="http://www.w3.org/2000/svg">
<g clip-path="url(#clip0_507_1883)">
<path d="M17.0001 0.92749H7.00012C5.67453 0.929078 4.40368 1.45637 3.46634 2.39371C2.529 3.33105 2.00171 4.60189 2.00012 5.92749V19.9275C2.00171 21.2531 2.529 22.5239 3.46634 23.4613C4.40368 24.3986 5.67453 24.9259 7.00012 24.9275H17.0001C18.3257 24.9259 19.5966 24.3986 20.5339 23.4613C21.4712 22.5239 21.9985 21.2531 22.0001 19.9275V5.92749C21.9985 4.60189 21.4712 3.33105 20.5339 2.39371C19.5966 1.45637 18.3257 0.929078 17.0001 0.92749V0.92749ZM7.00012 2.92749H17.0001C17.7958 2.92749 18.5588 3.24356 19.1214 3.80617C19.6841 4.36878 20.0001 5.13184 20.0001 5.92749V11.9275H4.00012V5.92749C4.00012 5.13184 4.31619 4.36878 4.8788 3.80617C5.44141 3.24356 6.20447 2.92749 7.00012 2.92749ZM17.0001 22.9275H7.00012C6.20447 22.9275 5.44141 22.6114 4.8788 22.0488C4.31619 21.4862 4.00012 20.7231 4.00012 19.9275V13.9275H20.0001V19.9275C20.0001 20.7231 19.6841 21.4862 19.1214 22.0488C18.5588 22.6114 17.7958 22.9275 17.0001 22.9275Z" fill="#374957"/>
<path d="M10.9999 7.92749H12.9999C13.2651 7.92749 13.5194 7.82213 13.707 7.63459C13.8945 7.44706 13.9999 7.1927 13.9999 6.92749C13.9999 6.66227 13.8945 6.40792 13.707 6.22038C13.5194 6.03285 13.2651 5.92749 12.9999 5.92749H10.9999C10.7347 5.92749 10.4803 6.03285 10.2928 6.22038C10.1052 6.40792 9.99988 6.66227 9.99988 6.92749C9.99988 7.1927 10.1052 7.44706 10.2928 7.63459C10.4803 7.82213 10.7347 7.92749 10.9999 7.92749Z" fill="#374957"/>
<path d="M12.9999 17.9275H10.9999C10.7347 17.9275 10.4803 18.0328 10.2928 18.2204C10.1052 18.4079 9.99988 18.6623 9.99988 18.9275C9.99988 19.1927 10.1052 19.4471 10.2928 19.6346C10.4803 19.8221 10.7347 19.9275 10.9999 19.9275H12.9999C13.2651 19.9275 13.5194 19.8221 13.707 19.6346C13.8945 19.4471 13.9999 19.1927 13.9999 18.9275C13.9999 18.6623 13.8945 18.4079 13.707 18.2204C13.5194 18.0328 13.2651 17.9275 12.9999 17.9275Z" fill="#374957"/>
</g>
<defs>
<clipPath id="clip0_507_1883">
<rect width="24" height="24" fill="white" transform="translate(0 0.92749)"/>
</clipPath>
</defs>
</svg>
