<svg width="24" height="25" viewBox="0 0 24 25" fill="none" xmlns="http://www.w3.org/2000/svg">
<g clip-path="url(#clip0_507_1894)">
<path d="M12.0002 0.92749C8.81865 0.930931 5.7684 2.19632 3.51871 4.44601C1.26902 6.6957 0.00363259 9.74595 0.000191505 12.9275C-0.125809 22.5005 11.1592 28.3565 18.9002 22.7445C19.0114 22.6705 19.1067 22.575 19.1804 22.4635C19.2541 22.3521 19.3048 22.227 19.3293 22.0957C19.3539 21.9644 19.3519 21.8294 19.3234 21.6989C19.295 21.5684 19.2406 21.4449 19.1637 21.3357C19.0867 21.2265 18.9886 21.1338 18.8752 21.0631C18.7618 20.9925 18.6354 20.9453 18.5035 20.9243C18.3715 20.9033 18.2367 20.909 18.107 20.9409C17.9773 20.9729 17.8553 21.0306 17.7482 21.1105C11.3002 25.7835 1.90019 20.9055 2.00019 12.9275C2.54919 -0.33851 21.4532 -0.335509 22.0002 12.9275V14.9275C22.0002 15.4579 21.7895 15.9666 21.4144 16.3417C21.0393 16.7168 20.5306 16.9275 20.0002 16.9275C19.4698 16.9275 18.9611 16.7168 18.586 16.3417C18.2109 15.9666 18.0002 15.4579 18.0002 14.9275V12.9275C17.7482 4.99849 6.25119 4.99949 6.00019 12.9275C6.01183 14.1435 6.39164 15.3274 7.08958 16.3232C7.78751 17.3191 8.77079 18.0801 9.90984 18.5059C11.0489 18.9317 12.2902 19.0025 13.4703 18.7087C14.6503 18.415 15.7137 17.7706 16.5202 16.8605C16.954 17.6261 17.6282 18.2273 18.4383 18.571C19.2484 18.9146 20.1492 18.9816 21.0012 18.7614C21.8532 18.5412 22.6088 18.0462 23.151 17.3531C23.6932 16.66 23.9916 15.8074 24.0002 14.9275V12.9275C23.9968 9.74595 22.7314 6.6957 20.4817 4.44601C18.232 2.19632 15.1817 0.930931 12.0002 0.92749V0.92749ZM12.0002 16.9275C10.9393 16.9275 9.92191 16.5061 9.17177 15.7559C8.42162 15.0058 8.00019 13.9884 8.00019 12.9275C8.00019 11.8666 8.42162 10.8492 9.17177 10.0991C9.92191 9.34892 10.9393 8.92749 12.0002 8.92749C13.0611 8.92749 14.0785 9.34892 14.8286 10.0991C15.5788 10.8492 16.0002 11.8666 16.0002 12.9275C16.0002 13.9884 15.5788 15.0058 14.8286 15.7559C14.0785 16.5061 13.0611 16.9275 12.0002 16.9275Z" fill="#374957"/>
</g>
<defs>
<clipPath id="clip0_507_1894">
<rect width="24" height="24" fill="white" transform="translate(0 0.92749)"/>
</clipPath>
</defs>
</svg>
