<svg width="24" height="25" viewBox="0 0 24 25" fill="none" xmlns="http://www.w3.org/2000/svg">
<g clip-path="url(#clip0_507_2138)">
<path d="M20.68 2.09468L20.659 2.08768L17.944 1.18768C17.0062 0.876338 15.9974 0.848855 15.044 1.10868L9.468 2.72768C8.78525 2.90862 8.06072 2.84494 7.42 2.54768L6.92 2.31568C6.16059 1.99985 5.335 1.87624 4.51639 1.95579C3.69779 2.03534 2.91144 2.31559 2.22705 2.77172C1.54266 3.22785 0.981356 3.84577 0.592883 4.5707C0.204411 5.29564 0.000767286 6.10521 0 6.92767L0 19.0027C0.0021016 20.084 0.353792 21.1357 1.00259 22.0007C1.65139 22.8658 2.56251 23.4979 3.6 23.8027L6.469 24.7027C6.95302 24.8531 7.45713 24.929 7.964 24.9277C8.41581 24.9334 8.866 24.8724 9.3 24.7467L15.1 23.1467C15.63 23.0029 16.1893 23.0074 16.717 23.1597L19.06 23.8357C19.6482 23.9779 20.261 23.9848 20.8523 23.8558C21.4436 23.7269 21.9979 23.4654 22.4735 23.0912C22.9491 22.717 23.3336 22.2398 23.598 21.6954C23.8624 21.1511 23.9999 20.5538 24 19.9487V6.80367C23.9985 5.77251 23.6788 4.76694 23.0847 3.92417C22.4905 3.08141 21.6507 2.44252 20.68 2.09468ZM4.176 21.8867C3.55031 21.7057 3.00009 21.3269 2.6078 20.807C2.2155 20.287 2.00225 19.654 2 19.0027V6.92767C1.99514 6.43235 2.11496 5.94377 2.34842 5.5069C2.58189 5.07002 2.9215 4.69889 3.336 4.42768C3.8292 4.10052 4.40816 3.92656 5 3.92768C5.38166 3.92778 5.75955 4.00323 6.112 4.14968C6.112 4.14968 6.857 4.46868 6.999 4.51968V22.7697L4.176 21.8867ZM9 22.7547V4.80668C9.33966 4.78865 9.67667 4.73673 10.006 4.65168L15 3.20068V21.1277L9 22.7547ZM22 19.9487C22.0002 20.2482 21.9331 20.544 21.8037 20.8141C21.6743 21.0843 21.4859 21.3219 21.2524 21.5095C21.0188 21.697 20.7461 21.8297 20.4544 21.8978C20.1627 21.9658 19.8594 21.9675 19.567 21.9027L17 21.1797V3.00268L20.018 3.98168C20.598 4.19183 21.0993 4.57536 21.4539 5.0802C21.8085 5.58504 21.9991 6.18676 22 6.80367V19.9487Z" fill="#374957"/>
</g>
<defs>
<clipPath id="clip0_507_2138">
<rect width="24" height="24" fill="white" transform="translate(0 0.92749)"/>
</clipPath>
</defs>
</svg>
