<svg width="24" height="25" viewBox="0 0 24 25" fill="none" xmlns="http://www.w3.org/2000/svg">
<g clip-path="url(#clip0_507_2339)">
<path d="M21 16.9279V12.9279C20.9997 11.5844 20.698 10.2581 20.1172 9.04666C19.5364 7.83521 18.6912 6.76946 17.644 5.9279H20.277C20.4986 6.30551 20.8385 6.59954 21.2441 6.76448C21.6497 6.92942 22.0983 6.95606 22.5206 6.84028C22.9429 6.72451 23.3152 6.47277 23.5799 6.12404C23.8447 5.7753 23.9871 5.34903 23.9851 4.91119C23.9831 4.47335 23.8369 4.04838 23.569 3.70204C23.3011 3.35571 22.9266 3.10733 22.5033 2.99536C22.08 2.88339 21.6316 2.91406 21.2275 3.08264C20.8235 3.25122 20.4862 3.5483 20.268 3.9279H15.858C15.6397 3.07031 15.1419 2.3099 14.4433 1.76679C13.7446 1.22368 12.8849 0.928833 12 0.928833C11.1151 0.928833 10.2554 1.22368 9.55672 1.76679C8.85806 2.3099 8.36027 3.07031 8.142 3.9279H3.723C3.50139 3.55028 3.16148 3.25625 2.75589 3.09131C2.3503 2.92638 1.90166 2.89974 1.4794 3.01551C1.05714 3.13129 0.684827 3.38303 0.42008 3.73176C0.155333 4.08049 0.0129225 4.50677 0.0148928 4.9446C0.0168631 5.38244 0.163104 5.80742 0.430979 6.15375C0.698853 6.50009 1.07342 6.74847 1.4967 6.86044C1.91999 6.97241 2.36837 6.94173 2.77246 6.77315C3.17655 6.60457 3.51379 6.30749 3.732 5.9279H6.356C5.30876 6.76946 4.46362 7.83521 3.88281 9.04666C3.30201 10.2581 3.00033 11.5844 3 12.9279V16.9279C2.20435 16.9279 1.44129 17.244 0.87868 17.8066C0.31607 18.3692 0 19.1322 0 19.9279L0 21.9279C0 22.7235 0.31607 23.4866 0.87868 24.0492C1.44129 24.6118 2.20435 24.9279 3 24.9279H5C5.79565 24.9279 6.55871 24.6118 7.12132 24.0492C7.68393 23.4866 8 22.7235 8 21.9279V19.9279C8 19.1322 7.68393 18.3692 7.12132 17.8066C6.55871 17.244 5.79565 16.9279 5 16.9279V12.9279C5.00163 11.6966 5.32801 10.4875 5.94621 9.42266C6.5644 8.35781 7.45254 7.47485 8.521 6.8629C8.86194 7.48787 9.36493 8.00946 9.97712 8.37286C10.5893 8.73625 11.2881 8.92802 12 8.92802C12.7119 8.92802 13.4107 8.73625 14.0229 8.37286C14.6351 8.00946 15.1381 7.48787 15.479 6.8629C16.5475 7.47485 17.4356 8.35781 18.0538 9.42266C18.672 10.4875 18.9984 11.6966 19 12.9279V16.9279C18.2044 16.9279 17.4413 17.244 16.8787 17.8066C16.3161 18.3692 16 19.1322 16 19.9279V21.9279C16 22.7235 16.3161 23.4866 16.8787 24.0492C17.4413 24.6118 18.2044 24.9279 19 24.9279H21C21.7956 24.9279 22.5587 24.6118 23.1213 24.0492C23.6839 23.4866 24 22.7235 24 21.9279V19.9279C24 19.1322 23.6839 18.3692 23.1213 17.8066C22.5587 17.244 21.7956 16.9279 21 16.9279ZM6 19.9279V21.9279C6 22.1931 5.89464 22.4475 5.70711 22.635C5.51957 22.8225 5.26522 22.9279 5 22.9279H3C2.73478 22.9279 2.48043 22.8225 2.29289 22.635C2.10536 22.4475 2 22.1931 2 21.9279V19.9279C2 19.6627 2.10536 19.4083 2.29289 19.2208C2.48043 19.0333 2.73478 18.9279 3 18.9279H5C5.26522 18.9279 5.51957 19.0333 5.70711 19.2208C5.89464 19.4083 6 19.6627 6 19.9279ZM12 6.9279C11.6044 6.9279 11.2178 6.8106 10.8889 6.59084C10.56 6.37107 10.3036 6.05872 10.1522 5.69326C10.0009 5.32781 9.96126 4.92568 10.0384 4.53772C10.1156 4.14976 10.3061 3.79339 10.5858 3.51368C10.8655 3.23398 11.2219 3.0435 11.6098 2.96633C11.9978 2.88916 12.3999 2.92876 12.7654 3.08014C13.1308 3.23151 13.4432 3.48786 13.6629 3.81676C13.8827 4.14566 14 4.53234 14 4.9279C14 5.45833 13.7893 5.96704 13.4142 6.34211C13.0391 6.71718 12.5304 6.9279 12 6.9279ZM22 21.9279C22 22.1931 21.8946 22.4475 21.7071 22.635C21.5196 22.8225 21.2652 22.9279 21 22.9279H19C18.7348 22.9279 18.4804 22.8225 18.2929 22.635C18.1054 22.4475 18 22.1931 18 21.9279V19.9279C18 19.6627 18.1054 19.4083 18.2929 19.2208C18.4804 19.0333 18.7348 18.9279 19 18.9279H21C21.2652 18.9279 21.5196 19.0333 21.7071 19.2208C21.8946 19.4083 22 19.6627 22 19.9279V21.9279Z" fill="#374957"/>
</g>
<defs>
<clipPath id="clip0_507_2339">
<rect width="24" height="24" fill="white" transform="translate(0 0.92749)"/>
</clipPath>
</defs>
</svg>
