<svg width="24" height="25" viewBox="0 0 24 25" fill="none" xmlns="http://www.w3.org/2000/svg">
<g clip-path="url(#clip0_507_2182)">
<path d="M22.563 2.36481C20.189 -0.00918919 16.644 0.56981 12 4.06481C7.35699 0.56981 3.81299 -0.0101891 1.43699 2.36481C-0.939013 4.73981 -0.358012 8.2838 3.13699 12.9278C-0.358012 17.5708 -0.938013 21.1158 1.43699 23.4908C1.88228 23.9525 2.41738 24.3182 3.00934 24.5653C3.60129 24.8125 4.23757 24.9358 4.87899 24.9278C6.84999 24.9278 9.22999 23.8758 12 21.7918C14.769 23.8758 17.149 24.9278 19.121 24.9278C19.7624 24.9358 20.3987 24.8125 20.9906 24.5653C21.5826 24.3182 22.1177 23.9525 22.563 23.4908C24.938 21.1158 24.363 17.5718 20.863 12.9278C24.358 8.2838 24.938 4.73981 22.563 2.36481ZM19.085 2.95581C19.4671 2.9443 19.8476 3.01101 20.2031 3.15185C20.5585 3.29269 20.8814 3.50468 21.152 3.77481C22.898 5.5218 21.608 8.4878 19.564 11.3138C18.726 10.3258 17.782 9.2988 16.706 8.2218C15.63 7.1448 14.6 6.2008 13.612 5.3618C15.51 3.98881 17.472 2.95581 19.085 2.95581ZM18.311 12.9278C17.3 14.1478 16.229 15.2888 15.295 16.2278C14.361 17.1668 13.22 18.2278 12 19.2388C10.78 18.2278 9.63899 17.1568 8.70499 16.2278C7.77099 15.2988 6.69999 14.1478 5.68899 12.9278C6.69999 11.7078 7.77099 10.5658 8.70499 9.6328C9.63899 8.6998 10.78 7.6278 12 6.6158C13.22 7.6258 14.361 8.6988 15.3 9.6328C16.239 10.5668 17.3 11.7078 18.311 12.9278ZM2.84799 3.77581C3.11826 3.50521 3.44109 3.29284 3.79659 3.15181C4.15209 3.01078 4.53272 2.94408 4.91499 2.95581C6.52799 2.95581 8.48999 3.98881 10.388 5.3618C9.39999 6.2008 8.37199 7.1448 7.29399 8.2218C6.21599 9.2988 5.27399 10.3218 4.43499 11.3138C2.39199 8.4878 1.09999 5.5218 2.84799 3.77581ZM2.84799 22.0758C1.10199 20.3298 2.39199 17.3628 4.43499 14.5378C5.27399 15.5258 6.21799 16.5528 7.29399 17.6298C8.36999 18.7068 9.39399 19.6528 10.383 20.4908C7.55799 22.5368 4.59199 23.8278 2.84799 22.0798V22.0758ZM21.148 22.0758C19.403 23.8198 16.438 22.5328 13.613 20.4908C14.599 19.6528 15.627 18.7038 16.702 17.6298C17.777 16.5558 18.722 15.5298 19.56 14.5378C21.608 17.3678 22.9 20.3338 21.152 22.0798L21.148 22.0758Z" fill="#374957"/>
<path d="M11.9999 14.9278C13.1044 14.9278 13.9999 14.0324 13.9999 12.9278C13.9999 11.8232 13.1044 10.9278 11.9999 10.9278C10.8953 10.9278 9.99988 11.8232 9.99988 12.9278C9.99988 14.0324 10.8953 14.9278 11.9999 14.9278Z" fill="#374957"/>
</g>
<defs>
<clipPath id="clip0_507_2182">
<rect width="24" height="24" fill="white" transform="translate(0 0.92749)"/>
</clipPath>
</defs>
</svg>
