<svg width="24" height="25" viewBox="0 0 24 25" fill="none" xmlns="http://www.w3.org/2000/svg">
<g clip-path="url(#clip0_507_1980)">
<path d="M19 1.92734H5C3.67441 1.92893 2.40356 2.45622 1.46622 3.39356C0.528882 4.3309 0.00158786 5.60174 0 6.92734L0 14.9273C0.00158786 16.2529 0.528882 17.5238 1.46622 18.4611C2.40356 19.3985 3.67441 19.9258 5 19.9273H11V21.9273H7C6.73478 21.9273 6.48043 22.0327 6.29289 22.2202C6.10536 22.4078 6 22.6621 6 22.9273C6 23.1926 6.10536 23.4469 6.29289 23.6344C6.48043 23.822 6.73478 23.9273 7 23.9273H17C17.2652 23.9273 17.5196 23.822 17.7071 23.6344C17.8946 23.4469 18 23.1926 18 22.9273C18 22.6621 17.8946 22.4078 17.7071 22.2202C17.5196 22.0327 17.2652 21.9273 17 21.9273H13V19.9273H19C20.3256 19.9258 21.5964 19.3985 22.5338 18.4611C23.4711 17.5238 23.9984 16.2529 24 14.9273V6.92734C23.9984 5.60174 23.4711 4.3309 22.5338 3.39356C21.5964 2.45622 20.3256 1.92893 19 1.92734ZM5 3.92734H19C19.7956 3.92734 20.5587 4.24341 21.1213 4.80602C21.6839 5.36863 22 6.13169 22 6.92734V13.9273H2V6.92734C2 6.13169 2.31607 5.36863 2.87868 4.80602C3.44129 4.24341 4.20435 3.92734 5 3.92734ZM19 17.9273H5C4.38174 17.9248 3.77937 17.7313 3.2753 17.3732C2.77123 17.0152 2.39008 16.5102 2.184 15.9273H21.816C21.6099 16.5102 21.2288 17.0152 20.7247 17.3732C20.2206 17.7313 19.6183 17.9248 19 17.9273Z" fill="#374957"/>
</g>
<defs>
<clipPath id="clip0_507_1980">
<rect width="24" height="24" fill="white" transform="translate(0 0.92749)"/>
</clipPath>
</defs>
</svg>
