<svg width="24" height="25" viewBox="0 0 24 25" fill="none" xmlns="http://www.w3.org/2000/svg">
<path d="M7.40006 6.48018C7.30779 6.32519 7.17684 6.19683 7.02003 6.10768C6.86322 6.01854 6.68594 5.97167 6.50556 5.97167C6.32518 5.97167 6.1479 6.01854 5.99109 6.10768C5.83428 6.19683 5.70333 6.32519 5.61106 6.48018L0.111059 17.4802C0.0511452 17.5978 0.0151011 17.7261 0.00500536 17.8577C-0.00509038 17.9892 0.0109619 18.1215 0.0522367 18.2469C0.0935115 18.3722 0.159192 18.4882 0.245492 18.588C0.331792 18.6879 0.437004 18.7697 0.555062 18.8287C0.673119 18.8877 0.801687 18.9227 0.933353 18.9318C1.06502 18.9409 1.19718 18.9238 1.32221 18.8815C1.44724 18.8393 1.56267 18.7727 1.66185 18.6856C1.76103 18.5985 1.84199 18.4927 1.90006 18.3742L3.61906 14.9272H9.38306L11.1071 18.3742C11.1651 18.4927 11.2461 18.5985 11.3453 18.6856C11.4444 18.7727 11.5599 18.8393 11.6849 18.8815C11.8099 18.9238 11.9421 18.9409 12.0738 18.9318C12.2054 18.9227 12.334 18.8877 12.4521 18.8287C12.5701 18.7697 12.6753 18.6879 12.7616 18.588C12.8479 18.4882 12.9136 18.3722 12.9549 18.2469C12.9962 18.1215 13.0122 17.9892 13.0021 17.8577C12.992 17.7261 12.956 17.5978 12.8961 17.4802L7.40006 6.48018ZM4.61906 12.9272L6.50006 9.16318L8.38306 12.9272H4.61906Z" fill="#374957"/>
<path d="M22.9999 8.92717C22.7346 8.92717 22.4803 9.03253 22.2927 9.22006C22.1052 9.4076 21.9999 9.66195 21.9999 9.92717V9.95317C21.1395 9.29136 20.0853 8.93085 18.9999 8.92717C17.6738 8.92717 16.402 9.45395 15.4643 10.3916C14.5267 11.3293 13.9999 12.6011 13.9999 13.9272C13.9999 15.2533 14.5267 16.525 15.4643 17.4627C16.402 18.4004 17.6738 18.9272 18.9999 18.9272C20.0853 18.9235 21.1395 18.563 21.9999 17.9012V17.9272C21.9999 18.1924 22.1052 18.4467 22.2927 18.6343C22.4803 18.8218 22.7346 18.9272 22.9999 18.9272C23.2651 18.9272 23.5194 18.8218 23.707 18.6343C23.8945 18.4467 23.9998 18.1924 23.9998 17.9272V9.92717C23.9998 9.66195 23.8945 9.4076 23.707 9.22006C23.5194 9.03253 23.2651 8.92717 22.9999 8.92717ZM18.9999 16.9272C18.4065 16.9272 17.8265 16.7512 17.3332 16.4216C16.8398 16.0919 16.4553 15.6234 16.2282 15.0752C16.0012 14.527 15.9418 13.9238 16.0575 13.3419C16.1733 12.76 16.459 12.2254 16.8785 11.8058C17.2981 11.3863 17.8327 11.1006 18.4146 10.9848C18.9965 10.8691 19.5997 10.9285 20.1479 11.1555C20.6961 11.3826 21.1646 11.7671 21.4943 12.2605C21.8239 12.7538 21.9999 13.3338 21.9999 13.9272C21.9999 14.7228 21.6838 15.4859 21.1212 16.0485C20.5586 16.6111 19.7955 16.9272 18.9999 16.9272Z" fill="#374957"/>
</svg>
