<svg width="24" height="25" viewBox="0 0 24 25" fill="none" xmlns="http://www.w3.org/2000/svg">
<g clip-path="url(#clip0_507_2241)">
<path d="M18.5811 3.06816L12.3161 0.979158C12.111 0.910837 11.8893 0.910837 11.6841 0.979158L5.41912 3.06816C4.42303 3.39904 3.55654 4.03542 2.94277 4.88687C2.329 5.73832 1.99916 6.76155 2.00012 7.81116V12.9282C2.00012 20.4912 11.2001 24.6682 11.5941 24.8422C11.7219 24.8989 11.8603 24.9283 12.0001 24.9283C12.14 24.9283 12.2783 24.8989 12.4061 24.8422C12.8001 24.6682 22.0001 20.4912 22.0001 12.9282V7.81116C22.0011 6.76155 21.6713 5.73832 21.0575 4.88687C20.4437 4.03542 19.5772 3.39904 18.5811 3.06816ZM20.0001 12.9282C20.0001 18.3832 13.6811 21.9612 12.0001 22.8172C10.3171 21.9642 4.00012 18.3972 4.00012 12.9282V7.81116C4.00018 7.18144 4.1984 6.5677 4.56669 6.0569C4.93498 5.5461 5.45467 5.16415 6.05212 4.96516L12.0001 2.98216L17.9481 4.96516C18.5456 5.16415 19.0653 5.5461 19.4336 6.0569C19.8018 6.5677 20.0001 7.18144 20.0001 7.81116V12.9282Z" fill="#374957"/>
<path d="M15.0001 10.9269H13.0001V8.92688C13.0001 8.66166 12.8948 8.40731 12.7072 8.21977C12.5197 8.03224 12.2653 7.92688 12.0001 7.92688C11.7349 7.92688 11.4805 8.03224 11.293 8.21977C11.1055 8.40731 11.0001 8.66166 11.0001 8.92688V10.9269H9.00012C8.7349 10.9269 8.48055 11.0322 8.29301 11.2198C8.10548 11.4073 8.00012 11.6617 8.00012 11.9269C8.00012 12.1921 8.10548 12.4464 8.29301 12.634C8.48055 12.8215 8.7349 12.9269 9.00012 12.9269H11.0001V14.9269C11.0001 15.1921 11.1055 15.4464 11.293 15.634C11.4805 15.8215 11.7349 15.9269 12.0001 15.9269C12.2653 15.9269 12.5197 15.8215 12.7072 15.634C12.8948 15.4464 13.0001 15.1921 13.0001 14.9269V12.9269H15.0001C15.2653 12.9269 15.5197 12.8215 15.7072 12.634C15.8948 12.4464 16.0001 12.1921 16.0001 11.9269C16.0001 11.6617 15.8948 11.4073 15.7072 11.2198C15.5197 11.0322 15.2653 10.9269 15.0001 10.9269Z" fill="#374957"/>
</g>
<defs>
<clipPath id="clip0_507_2241">
<rect width="24" height="24" fill="white" transform="translate(0 0.92749)"/>
</clipPath>
</defs>
</svg>
