<svg width="24" height="25" viewBox="0 0 24 25" fill="none" xmlns="http://www.w3.org/2000/svg">
<g clip-path="url(#clip0_507_1865)">
<path d="M23.052 12.5815L21.233 8.4905C20.7616 7.42993 19.9927 6.52884 19.0195 5.89644C18.0463 5.26403 16.9106 4.92746 15.75 4.9275H14.4L13.74 2.2855C13.6427 1.89775 13.4186 1.55363 13.1033 1.30775C12.7881 1.06188 12.3998 0.928345 12 0.928345C11.6002 0.928345 11.2119 1.06188 10.8967 1.30775C10.5814 1.55363 10.3573 1.89775 10.26 2.2855L9.6 4.9275H5C3.67441 4.92908 2.40356 5.45638 1.46622 6.39372C0.528882 7.33105 0.00158786 8.6019 0 9.9275L0 17.9275C0.0021456 18.5584 0.203551 19.1725 0.575468 19.6822C0.947384 20.1919 1.4708 20.571 2.071 20.7655C2.02573 20.9833 2.00195 21.205 2 21.4275C2 22.3558 2.36875 23.246 3.02513 23.9024C3.6815 24.5588 4.57174 24.9275 5.5 24.9275C6.42826 24.9275 7.3185 24.5588 7.97487 23.9024C8.63125 23.246 9 22.3558 9 21.4275C8.99843 21.2601 8.98473 21.093 8.959 20.9275H15.041C15.0153 21.093 15.0016 21.2601 15 21.4275C15 22.3558 15.3687 23.246 16.0251 23.9024C16.6815 24.5588 17.5717 24.9275 18.5 24.9275C19.4283 24.9275 20.3185 24.5588 20.9749 23.9024C21.6313 23.246 22 22.3558 22 21.4275C21.998 21.205 21.9743 20.9833 21.929 20.7655C22.5292 20.571 23.0526 20.1919 23.4245 19.6822C23.7964 19.1725 23.9979 18.5584 24 17.9275V17.0495C24.0022 15.51 23.6791 13.9874 23.052 12.5815ZM19.406 9.3035L20.573 11.9275H17C16.7348 11.9275 16.4804 11.8221 16.2929 11.6346C16.1054 11.4471 16 11.1927 16 10.9275V6.9455C16.7289 6.99019 17.4316 7.23356 18.032 7.64923C18.6324 8.0649 19.1076 8.63699 19.406 9.3035ZM7 21.4275C7 21.8253 6.84196 22.2069 6.56066 22.4882C6.27936 22.7695 5.89782 22.9275 5.5 22.9275C5.10218 22.9275 4.72064 22.7695 4.43934 22.4882C4.15804 22.2069 4 21.8253 4 21.4275C4.00061 21.2566 4.03212 21.0872 4.093 20.9275H6.907C6.96788 21.0872 6.99939 21.2566 7 21.4275ZM18.5 22.9275C18.1022 22.9275 17.7206 22.7695 17.4393 22.4882C17.158 22.2069 17 21.8253 17 21.4275C17.0006 21.2566 17.0321 21.0872 17.093 20.9275H19.907C19.9679 21.0872 19.9994 21.2566 20 21.4275C20 21.8253 19.842 22.2069 19.5607 22.4882C19.2794 22.7695 18.8978 22.9275 18.5 22.9275ZM22 17.9275C22 18.1927 21.8946 18.4471 21.7071 18.6346C21.5196 18.8221 21.2652 18.9275 21 18.9275H3C2.73478 18.9275 2.48043 18.8221 2.29289 18.6346C2.10536 18.4471 2 18.1927 2 17.9275V9.9275C2 9.13185 2.31607 8.36879 2.87868 7.80618C3.44129 7.24357 4.20435 6.9275 5 6.9275H14V10.9275C14 11.7231 14.3161 12.4862 14.8787 13.0488C15.4413 13.6114 16.2044 13.9275 17 13.9275H21.429C21.8045 14.9256 21.9979 15.9831 22 17.0495V17.9275ZM11 12.9275C11 13.1927 10.8946 13.4471 10.7071 13.6346C10.5196 13.8221 10.2652 13.9275 10 13.9275H9V14.9275C9 15.1927 8.89464 15.4471 8.70711 15.6346C8.51957 15.8221 8.26522 15.9275 8 15.9275C7.73478 15.9275 7.48043 15.8221 7.29289 15.6346C7.10536 15.4471 7 15.1927 7 14.9275V13.9275H6C5.73478 13.9275 5.48043 13.8221 5.29289 13.6346C5.10536 13.4471 5 13.1927 5 12.9275C5 12.6623 5.10536 12.4079 5.29289 12.2204C5.48043 12.0329 5.73478 11.9275 6 11.9275H7V10.9275C7 10.6623 7.10536 10.4079 7.29289 10.2204C7.48043 10.0329 7.73478 9.9275 8 9.9275C8.26522 9.9275 8.51957 10.0329 8.70711 10.2204C8.89464 10.4079 9 10.6623 9 10.9275V11.9275H10C10.2652 11.9275 10.5196 12.0329 10.7071 12.2204C10.8946 12.4079 11 12.6623 11 12.9275Z" fill="#374957"/>
</g>
<defs>
<clipPath id="clip0_507_1865">
<rect width="24" height="24" fill="white" transform="translate(0 0.92749)"/>
</clipPath>
</defs>
</svg>
