<svg width="24" height="25" viewBox="0 0 24 25" fill="none" xmlns="http://www.w3.org/2000/svg">
<g clip-path="url(#clip0_507_1935)">
<path d="M19 4.92749H18.492L16.308 2.09549C16.0265 1.7333 15.6663 1.43991 15.2547 1.23754C14.843 1.03518 14.3907 0.929153 13.932 0.92749L10.068 0.92749C9.6093 0.929153 9.15699 1.03518 8.74533 1.23754C8.33368 1.43991 7.97347 1.7333 7.692 2.09549L5.508 4.92749H5C3.67441 4.92908 2.40356 5.45637 1.46622 6.39371C0.528882 7.33105 0.00158786 8.6019 0 9.92749L0 19.9275C0.00158786 21.2531 0.528882 22.5239 1.46622 23.4613C2.40356 24.3986 3.67441 24.9259 5 24.9275H19C20.3256 24.9259 21.5964 24.3986 22.5338 23.4613C23.4711 22.5239 23.9984 21.2531 24 19.9275V9.92749C23.9984 8.6019 23.4711 7.33105 22.5338 6.39371C21.5964 5.45637 20.3256 4.92908 19 4.92749ZM9.276 3.31749C9.36967 3.19654 9.48969 3.09855 9.62693 3.03097C9.76418 2.96339 9.91502 2.928 10.068 2.92749H13.932C14.085 2.92815 14.2357 2.9636 14.373 3.03117C14.5102 3.09874 14.6302 3.19666 14.724 3.31749L15.966 4.92749H8.034L9.276 3.31749ZM22 19.9275C22 20.7231 21.6839 21.4862 21.1213 22.0488C20.5587 22.6114 19.7956 22.9275 19 22.9275H5C4.20435 22.9275 3.44129 22.6114 2.87868 22.0488C2.31607 21.4862 2 20.7231 2 19.9275V9.92749C2 9.13184 2.31607 8.36878 2.87868 7.80617C3.44129 7.24356 4.20435 6.92749 5 6.92749H19C19.7956 6.92749 20.5587 7.24356 21.1213 7.80617C21.6839 8.36878 22 9.13184 22 9.92749V19.9275Z" fill="#374957"/>
<path d="M11.9999 8.92743C10.8132 8.92743 9.65315 9.27932 8.66646 9.93861C7.67976 10.5979 6.91073 11.535 6.4566 12.6313C6.00248 13.7277 5.88366 14.9341 6.11517 16.098C6.34668 17.2619 6.91813 18.331 7.75724 19.1701C8.59636 20.0092 9.66545 20.5806 10.8293 20.8121C11.9932 21.0437 13.1996 20.9248 14.296 20.4707C15.3923 20.0166 16.3294 19.2475 16.9887 18.2609C17.648 17.2742 17.9999 16.1141 17.9999 14.9274C17.9983 13.3366 17.3656 11.8114 16.2408 10.6865C15.1159 9.56167 13.5907 8.92902 11.9999 8.92743ZM11.9999 18.9274C11.2088 18.9274 10.4354 18.6928 9.7776 18.2533C9.1198 17.8138 8.60711 17.1891 8.30436 16.4582C8.00161 15.7273 7.9224 14.923 8.07674 14.1471C8.23108 13.3711 8.61204 12.6584 9.17145 12.099C9.73086 11.5396 10.4436 11.1586 11.2195 11.0043C11.9954 10.8499 12.7997 10.9292 13.5306 11.2319C14.2615 11.5347 14.8862 12.0474 15.3258 12.7051C15.7653 13.3629 15.9999 14.1363 15.9999 14.9274C15.9999 15.9883 15.5785 17.0057 14.8283 17.7559C14.0782 18.506 13.0607 18.9274 11.9999 18.9274Z" fill="#374957"/>
</g>
<defs>
<clipPath id="clip0_507_1935">
<rect width="24" height="24" fill="white" transform="translate(0 0.92749)"/>
</clipPath>
</defs>
</svg>
