<svg width="24" height="25" viewBox="0 0 24 25" fill="none" xmlns="http://www.w3.org/2000/svg">
<g clip-path="url(#clip0_507_2310)">
<path d="M24 12.9275C24 13.1927 23.8946 13.4471 23.7071 13.6346C23.5196 13.8221 23.2652 13.9275 23 13.9275C22.7348 13.9275 22.4804 13.8221 22.2929 13.6346C22.1054 13.4471 22 13.1927 22 12.9275C21.9971 10.2762 20.9426 7.73437 19.0679 5.85964C17.1931 3.98491 14.6513 2.9304 12 2.92749C11.7348 2.92749 11.4804 2.82213 11.2929 2.6346C11.1054 2.44706 11 2.19271 11 1.92749C11 1.66227 11.1054 1.40792 11.2929 1.22038C11.4804 1.03285 11.7348 0.92749 12 0.92749C15.1815 0.930931 18.2318 2.19632 20.4815 4.44601C22.7312 6.6957 23.9966 9.74595 24 12.9275ZM16 13.9275C16.2652 13.9275 16.5196 13.8221 16.7071 13.6346C16.8946 13.4471 17 13.1927 17 12.9275C17 12.6623 16.8946 12.4079 16.7071 12.2204C16.5196 12.0328 16.2652 11.9275 16 11.9275H13.723C13.5487 11.6279 13.2996 11.3788 13 11.2045V7.92749C13 7.66227 12.8946 7.40792 12.7071 7.22038C12.5196 7.03285 12.2652 6.92749 12 6.92749C11.7348 6.92749 11.4804 7.03285 11.2929 7.22038C11.1054 7.40792 11 7.66227 11 7.92749V11.2045C10.7348 11.3572 10.5083 11.5689 10.338 11.8232C10.1677 12.0776 10.0583 12.3677 10.0182 12.6711C9.97807 12.9745 10.0083 13.2831 10.1066 13.5729C10.2049 13.8627 10.3686 14.1261 10.585 14.3425C10.8014 14.5589 11.0647 14.7226 11.3546 14.8209C11.6444 14.9192 11.953 14.9494 12.2564 14.9093C12.5598 14.8692 12.8499 14.7597 13.1042 14.5895C13.3586 14.4192 13.5703 14.1927 13.723 13.9275H16ZM1.827 7.71149C1.62922 7.71149 1.43588 7.77014 1.27143 7.88002C1.10698 7.9899 0.978809 8.14608 0.903121 8.32881C0.827433 8.51153 0.80763 8.7126 0.846215 8.90658C0.8848 9.10056 0.980041 9.27874 1.11989 9.4186C1.25975 9.55845 1.43793 9.65369 1.63191 9.69228C1.82589 9.73086 2.02696 9.71106 2.20968 9.63537C2.39241 9.55968 2.54859 9.43151 2.65847 9.26706C2.76835 9.10261 2.827 8.90927 2.827 8.71149C2.827 8.44627 2.72164 8.19192 2.53411 8.00438C2.34657 7.81685 2.09222 7.71149 1.827 7.71149ZM2 12.9275C2 12.7297 1.94135 12.5364 1.83147 12.3719C1.72159 12.2075 1.56541 12.0793 1.38268 12.0036C1.19996 11.9279 0.998891 11.9081 0.80491 11.9467C0.610929 11.9853 0.432746 12.0805 0.292894 12.2204C0.153041 12.3602 0.0578004 12.5384 0.0192152 12.7324C-0.0193701 12.9264 0.000433281 13.1274 0.0761209 13.3102C0.151809 13.4929 0.279981 13.6491 0.44443 13.759C0.608879 13.8688 0.802219 13.9275 1 13.9275C1.26522 13.9275 1.51957 13.8221 1.70711 13.6346C1.89464 13.4471 2 13.1927 2 12.9275ZM12 22.9275C11.8022 22.9275 11.6089 22.9861 11.4444 23.096C11.28 23.2059 11.1518 23.3621 11.0761 23.5448C11.0004 23.7275 10.9806 23.9286 11.0192 24.1226C11.0578 24.3166 11.153 24.4947 11.2929 24.6346C11.4327 24.7745 11.6109 24.8697 11.8049 24.9083C11.9989 24.9469 12.2 24.9271 12.3827 24.8514C12.5654 24.7757 12.7216 24.6475 12.8315 24.4831C12.9414 24.3186 13 24.1253 13 23.9275C13 23.6623 12.8946 23.4079 12.7071 23.2204C12.5196 23.0328 12.2652 22.9275 12 22.9275ZM4.221 4.13449C4.02322 4.13449 3.82988 4.19314 3.66543 4.30302C3.50098 4.4129 3.37281 4.56908 3.29712 4.75181C3.22143 4.93453 3.20163 5.1356 3.24022 5.32958C3.2788 5.52356 3.37404 5.70174 3.51389 5.8416C3.65375 5.98145 3.83193 6.07669 4.02591 6.11528C4.21989 6.15386 4.42096 6.13406 4.60368 6.05837C4.78641 5.98268 4.94259 5.85451 5.05247 5.69006C5.16235 5.52561 5.221 5.33227 5.221 5.13449C5.221 4.86927 5.11564 4.61492 4.92811 4.42738C4.74057 4.23985 4.48622 4.13449 4.221 4.13449ZM7.779 1.76849C7.58122 1.76849 7.38788 1.82714 7.22343 1.93702C7.05898 2.0469 6.93081 2.20308 6.85512 2.38581C6.77943 2.56853 6.75963 2.7696 6.79822 2.96358C6.8368 3.15756 6.93204 3.33574 7.07189 3.4756C7.21175 3.61545 7.38993 3.71069 7.58391 3.74928C7.77789 3.78786 7.97896 3.76806 8.16168 3.69237C8.34441 3.61668 8.50059 3.48851 8.61047 3.32406C8.72035 3.15961 8.779 2.96627 8.779 2.76849C8.779 2.50327 8.67364 2.24892 8.48611 2.06138C8.29857 1.87385 8.04422 1.76849 7.779 1.76849ZM1.827 16.1435C1.62922 16.1435 1.43588 16.2021 1.27143 16.312C1.10698 16.4219 0.978809 16.5781 0.903121 16.7608C0.827433 16.9435 0.80763 17.1446 0.846215 17.3386C0.8848 17.5326 0.980041 17.7107 1.11989 17.8506C1.25975 17.9904 1.43793 18.0857 1.63191 18.1243C1.82589 18.1629 2.02696 18.1431 2.20968 18.0674C2.39241 17.9917 2.54859 17.8635 2.65847 17.6991C2.76835 17.5346 2.827 17.3413 2.827 17.1435C2.827 16.8783 2.72164 16.6239 2.53411 16.4364C2.34657 16.2488 2.09222 16.1435 1.827 16.1435ZM4.221 19.7205C4.02322 19.7205 3.82988 19.7791 3.66543 19.889C3.50098 19.9989 3.37281 20.1551 3.29712 20.3378C3.22143 20.5205 3.20163 20.7216 3.24022 20.9156C3.2788 21.1096 3.37404 21.2877 3.51389 21.4276C3.65375 21.5674 3.83193 21.6627 4.02591 21.7013C4.21989 21.7399 4.42096 21.7201 4.60368 21.6444C4.78641 21.5687 4.94259 21.4405 5.05247 21.2761C5.16235 21.1116 5.221 20.9183 5.221 20.7205C5.221 20.4553 5.11564 20.2009 4.92811 20.0134C4.74057 19.8258 4.48622 19.7205 4.221 19.7205ZM7.779 22.0865C7.58122 22.0865 7.38788 22.1451 7.22343 22.255C7.05898 22.3649 6.93081 22.5211 6.85512 22.7038C6.77943 22.8865 6.75963 23.0876 6.79822 23.2816C6.8368 23.4756 6.93204 23.6537 7.07189 23.7936C7.21175 23.9334 7.38993 24.0287 7.58391 24.0673C7.77789 24.1059 7.97896 24.0861 8.16168 24.0104C8.34441 23.9347 8.50059 23.8065 8.61047 23.6421C8.72035 23.4776 8.779 23.2843 8.779 23.0865C8.779 22.8213 8.67364 22.5669 8.48611 22.3794C8.29857 22.1918 8.04422 22.0865 7.779 22.0865ZM22.173 16.1435C21.9752 16.1435 21.7819 16.2021 21.6174 16.312C21.453 16.4219 21.3248 16.5781 21.2491 16.7608C21.1734 16.9435 21.1536 17.1446 21.1922 17.3386C21.2308 17.5326 21.326 17.7107 21.4659 17.8506C21.6057 17.9904 21.7839 18.0857 21.9779 18.1243C22.1719 18.1629 22.373 18.1431 22.5557 18.0674C22.7384 17.9917 22.8946 17.8635 23.0045 17.6991C23.1144 17.5346 23.173 17.3413 23.173 17.1435C23.173 16.8783 23.0676 16.6239 22.8801 16.4364C22.6926 16.2488 22.4382 16.1435 22.173 16.1435ZM19.779 19.7205C19.5812 19.7205 19.3879 19.7791 19.2234 19.889C19.059 19.9989 18.9308 20.1551 18.8551 20.3378C18.7794 20.5205 18.7596 20.7216 18.7982 20.9156C18.8368 21.1096 18.932 21.2877 19.0719 21.4276C19.2117 21.5674 19.3899 21.6627 19.5839 21.7013C19.7779 21.7399 19.979 21.7201 20.1617 21.6444C20.3444 21.5687 20.5006 21.4405 20.6105 21.2761C20.7204 21.1116 20.779 20.9183 20.779 20.7205C20.779 20.4553 20.6736 20.2009 20.4861 20.0134C20.2986 19.8258 20.0442 19.7205 19.779 19.7205ZM16.221 22.0865C16.0232 22.0865 15.8299 22.1451 15.6654 22.255C15.501 22.3649 15.3728 22.5211 15.2971 22.7038C15.2214 22.8865 15.2016 23.0876 15.2402 23.2816C15.2788 23.4756 15.374 23.6537 15.5139 23.7936C15.6537 23.9334 15.8319 24.0287 16.0259 24.0673C16.2199 24.1059 16.421 24.0861 16.6037 24.0104C16.7864 23.9347 16.9426 23.8065 17.0525 23.6421C17.1624 23.4776 17.221 23.2843 17.221 23.0865C17.221 22.8213 17.1156 22.5669 16.9281 22.3794C16.7406 22.1918 16.4862 22.0865 16.221 22.0865Z" fill="#374957"/>
</g>
<defs>
<clipPath id="clip0_507_2310">
<rect width="24" height="24" fill="white" transform="translate(0 0.92749)"/>
</clipPath>
</defs>
</svg>
