<svg width="24" height="25" viewBox="0 0 24 25" fill="none" xmlns="http://www.w3.org/2000/svg">
<path d="M17.7099 13.6375C17.617 13.5438 17.5064 13.4694 17.3845 13.4186C17.2627 13.3678 17.1319 13.3417 16.9999 13.3417C16.8679 13.3417 16.7372 13.3678 16.6154 13.4186C16.4935 13.4694 16.3829 13.5438 16.2899 13.6375L12.9999 16.9275V6.92749C12.9999 6.66227 12.8946 6.40792 12.707 6.22038C12.5195 6.03285 12.2652 5.92749 11.9999 5.92749C11.7347 5.92749 11.4804 6.03285 11.2928 6.22038C11.1053 6.40792 10.9999 6.66227 10.9999 6.92749V16.9275L7.70994 13.6375C7.61697 13.5438 7.50637 13.4694 7.38451 13.4186C7.26266 13.3678 7.13195 13.3417 6.99994 13.3417C6.86793 13.3417 6.73722 13.3678 6.61536 13.4186C6.4935 13.4694 6.3829 13.5438 6.28994 13.6375C6.10369 13.8249 5.99915 14.0783 5.99915 14.3425C5.99915 14.6067 6.10369 14.8601 6.28994 15.0475L10.5899 19.3375C10.9633 19.7131 11.4704 19.9253 11.9999 19.9275C12.526 19.9226 13.029 19.7106 13.3999 19.3375L17.6999 15.0475C17.8875 14.8615 17.9939 14.6087 17.9957 14.3446C17.9976 14.0804 17.8949 13.8262 17.7099 13.6375Z" fill="#374957"/>
</svg>
