<svg width="24" height="25" viewBox="0 0 24 25" fill="none" xmlns="http://www.w3.org/2000/svg">
<g clip-path="url(#clip0_507_2312)">
<path d="M14.6002 22.2277C14.3002 22.4537 13.9812 22.6917 13.7102 22.9277H16.0002C16.2654 22.9277 16.5197 23.0331 16.7073 23.2206C16.8948 23.4082 17.0002 23.6625 17.0002 23.9277C17.0002 24.1929 16.8948 24.4473 16.7073 24.6348C16.5197 24.8224 16.2654 24.9277 16.0002 24.9277H12.0002C11.735 24.9277 11.4806 24.8224 11.2931 24.6348C11.1055 24.4473 11.0002 24.1929 11.0002 23.9277C11.0002 22.4277 12.2752 21.4717 13.4002 20.6277C14.1502 20.0657 15.0002 19.4277 15.0002 18.9277C15.0002 18.6625 14.8948 18.4082 14.7073 18.2206C14.5197 18.0331 14.2654 17.9277 14.0002 17.9277C13.735 17.9277 13.4806 18.0331 13.2931 18.2206C13.1055 18.4082 13.0002 18.6625 13.0002 18.9277C13.0002 19.1929 12.8948 19.4473 12.7073 19.6348C12.5197 19.8224 12.2654 19.9277 12.0002 19.9277C11.735 19.9277 11.4806 19.8224 11.2931 19.6348C11.1055 19.4473 11.0002 19.1929 11.0002 18.9277C11.0002 18.1321 11.3162 17.369 11.8788 16.8064C12.4415 16.2438 13.2045 15.9277 14.0002 15.9277C14.7958 15.9277 15.5589 16.2438 16.1215 16.8064C16.6841 17.369 17.0002 18.1321 17.0002 18.9277C17.0002 20.4277 15.7252 21.3837 14.6002 22.2277ZM23.0002 15.9277C22.735 15.9277 22.4806 16.0331 22.2931 16.2206C22.1055 16.4082 22.0002 16.6625 22.0002 16.9277V19.9277H21.0002C20.735 19.9277 20.4806 19.8224 20.2931 19.6348C20.1055 19.4473 20.0002 19.1929 20.0002 18.9277V16.9277C20.0002 16.6625 19.8948 16.4082 19.7073 16.2206C19.5197 16.0331 19.2654 15.9277 19.0002 15.9277C18.735 15.9277 18.4806 16.0331 18.2931 16.2206C18.1055 16.4082 18.0002 16.6625 18.0002 16.9277V18.9277C18.0002 19.7234 18.3162 20.4864 18.8788 21.049C19.4415 21.6117 20.2045 21.9277 21.0002 21.9277H22.0002V23.9277C22.0002 24.1929 22.1055 24.4473 22.2931 24.6348C22.4806 24.8224 22.735 24.9277 23.0002 24.9277C23.2654 24.9277 23.5197 24.8224 23.7073 24.6348C23.8948 24.4473 24.0002 24.1929 24.0002 23.9277V16.9277C24.0002 16.6625 23.8948 16.4082 23.7073 16.2206C23.5197 16.0331 23.2654 15.9277 23.0002 15.9277ZM13.0002 12.9277V7.92772C13.0002 7.66251 12.8948 7.40815 12.7073 7.22062C12.5197 7.03308 12.2654 6.92772 12.0002 6.92772C11.735 6.92772 11.4806 7.03308 11.2931 7.22062C11.1055 7.40815 11.0002 7.66251 11.0002 7.92772V11.9277H8.00017C7.73495 11.9277 7.4806 12.0331 7.29306 12.2206C7.10553 12.4082 7.00017 12.6625 7.00017 12.9277C7.00017 13.1929 7.10553 13.4473 7.29306 13.6348C7.4806 13.8224 7.73495 13.9277 8.00017 13.9277H12.0002C12.2654 13.9277 12.5197 13.8224 12.7073 13.6348C12.8948 13.4473 13.0002 13.1929 13.0002 12.9277ZM23.0002 2.92772C22.735 2.92772 22.4806 3.03308 22.2931 3.22062C22.1055 3.40815 22.0002 3.66251 22.0002 3.92772V6.30172C20.9582 4.7293 19.5603 3.42464 17.9198 2.49363C16.2792 1.56261 14.4423 1.03145 12.5581 0.943242C10.6738 0.855038 8.79533 1.21227 7.075 1.98597C5.35467 2.75966 3.84096 3.92801 2.65669 5.39623C1.47242 6.86444 0.650953 8.59116 0.258942 10.4363C-0.133069 12.2814 -0.0845825 14.193 0.400467 16.0158C0.885517 17.8387 1.79347 19.5216 3.05065 20.9278C4.30783 22.3341 5.87882 23.4242 7.63617 24.1097C7.75231 24.1545 7.87569 24.1776 8.00017 24.1777C8.23353 24.1781 8.45967 24.0968 8.63942 23.948C8.81917 23.7992 8.94122 23.5922 8.98442 23.3629C9.02763 23.1335 8.98927 22.8963 8.876 22.6923C8.76272 22.4883 8.58166 22.3303 8.36417 22.2457C6.87219 21.6688 5.54039 20.7424 4.48055 19.5442C3.42072 18.3461 2.66378 16.9112 2.27328 15.3599C1.88278 13.8087 1.87011 12.1864 2.23634 10.6293C2.60257 9.07212 3.33702 7.62555 4.37802 6.411C5.41901 5.19644 6.73619 4.24934 8.21898 3.6492C9.70176 3.04905 11.3069 2.81338 12.8996 2.96197C14.4923 3.11055 16.0261 3.63906 17.3723 4.50312C18.7185 5.36717 19.8378 6.54157 20.6362 7.92772H18.0002C17.735 7.92772 17.4806 8.03308 17.2931 8.22062C17.1055 8.40815 17.0002 8.66251 17.0002 8.92772C17.0002 9.19294 17.1055 9.44729 17.2931 9.63483C17.4806 9.82236 17.735 9.92772 18.0002 9.92772H21.0002C21.7958 9.92772 22.5589 9.61165 23.1215 9.04904C23.6841 8.48643 24.0002 7.72337 24.0002 6.92772V3.92772C24.0002 3.66251 23.8948 3.40815 23.7073 3.22062C23.5197 3.03308 23.2654 2.92772 23.0002 2.92772Z" fill="#374957"/>
</g>
<defs>
<clipPath id="clip0_507_2312">
<rect width="24" height="24" fill="white" transform="translate(0 0.92749)"/>
</clipPath>
</defs>
</svg>
