<svg width="24" height="25" viewBox="0 0 24 25" fill="none" xmlns="http://www.w3.org/2000/svg">
<g clip-path="url(#clip0_507_2155)">
<path d="M17.9999 19.9272C18.1977 19.9272 18.391 19.8685 18.5554 19.7586C18.7198 19.6487 18.8479 19.4926 18.9236 19.3099C18.9993 19.1272 19.0191 18.9261 18.9805 18.7322C18.9419 18.5382 18.8467 18.3601 18.7069 18.2202L12.5349 12.0492C11.5973 11.1119 10.3257 10.5853 8.99992 10.5853C7.6741 10.5853 6.40256 11.1119 5.46492 12.0492L3.29292 14.2202C3.11076 14.4088 3.00997 14.6614 3.01224 14.9236C3.01452 15.1858 3.11969 15.4366 3.3051 15.622C3.49051 15.8074 3.74132 15.9126 4.00352 15.9149C4.26571 15.9172 4.51832 15.8164 4.70692 15.6342L6.87892 13.4632C7.45014 12.9174 8.20982 12.6127 8.99992 12.6127C9.79002 12.6127 10.5497 12.9174 11.1209 13.4632L17.2929 19.6342C17.4804 19.8218 17.7347 19.9272 17.9999 19.9272Z" fill="#374957"/>
<path d="M16.0001 11.4271C16.6924 11.4271 17.369 11.2219 17.9446 10.8373C18.5202 10.4527 18.9688 9.90607 19.2337 9.26653C19.4986 8.62699 19.5679 7.92326 19.4329 7.24433C19.2978 6.56539 18.9645 5.94175 18.475 5.45227C17.9855 4.96278 17.3619 4.62944 16.6829 4.49439C16.004 4.35934 15.3003 4.42866 14.6607 4.69356C14.0212 4.95847 13.4746 5.40707 13.09 5.98265C12.7054 6.55822 12.5001 7.23491 12.5001 7.92714C12.5001 8.8554 12.8689 9.74564 13.5252 10.402C14.1816 11.0584 15.0719 11.4271 16.0001 11.4271ZM16.0001 6.42714C16.2968 6.42714 16.5868 6.51511 16.8335 6.67994C17.0802 6.84476 17.2724 7.07903 17.3859 7.35312C17.4995 7.62721 17.5292 7.92881 17.4713 8.21978C17.4134 8.51075 17.2706 8.77802 17.0608 8.9878C16.851 9.19758 16.5837 9.34044 16.2928 9.39832C16.0018 9.4562 15.7002 9.42649 15.4261 9.31296C15.152 9.19943 14.9177 9.00717 14.7529 8.7605C14.5881 8.51382 14.5001 8.22381 14.5001 7.92714C14.5001 7.52932 14.6582 7.14779 14.9395 6.86648C15.2208 6.58518 15.6023 6.42714 16.0001 6.42714Z" fill="#374957"/>
<path d="M22.9999 16.9278C22.7346 16.9278 22.4803 17.0332 22.2928 17.2207C22.1052 17.4082 21.9999 17.6626 21.9999 17.9278V19.9278C21.9999 20.7235 21.6838 21.4865 21.1212 22.0491C20.5586 22.6117 19.7955 22.9278 18.9999 22.9278H16.9999C16.7347 22.9278 16.4803 23.0332 16.2928 23.2207C16.1052 23.4082 15.9999 23.6626 15.9999 23.9278C15.9999 24.193 16.1052 24.4474 16.2928 24.6349C16.4803 24.8224 16.7347 24.9278 16.9999 24.9278H18.9999C20.3255 24.9262 21.5963 24.3989 22.5336 23.4616C23.471 22.5242 23.9983 21.2534 23.9999 19.9278V17.9278C23.9999 17.6626 23.8945 17.4082 23.707 17.2207C23.5194 17.0332 23.2651 16.9278 22.9999 16.9278Z" fill="#374957"/>
<path d="M1 8.92749C1.26522 8.92749 1.51957 8.82213 1.70711 8.6346C1.89464 8.44706 2 8.19271 2 7.92749V5.92749C2 5.13184 2.31607 4.36878 2.87868 3.80617C3.44129 3.24356 4.20435 2.92749 5 2.92749H7C7.26522 2.92749 7.51957 2.82213 7.70711 2.6346C7.89464 2.44706 8 2.19271 8 1.92749C8 1.66227 7.89464 1.40792 7.70711 1.22038C7.51957 1.03285 7.26522 0.92749 7 0.92749H5C3.67441 0.929078 2.40356 1.45637 1.46622 2.39371C0.528882 3.33105 0.00158786 4.6019 0 5.92749L0 7.92749C0 8.19271 0.105357 8.44706 0.292893 8.6346C0.48043 8.82213 0.734784 8.92749 1 8.92749Z" fill="#374957"/>
<path d="M7 22.9278H5C4.20435 22.9278 3.44129 22.6117 2.87868 22.0491C2.31607 21.4865 2 20.7235 2 19.9278V17.9278C2 17.6626 1.89464 17.4082 1.70711 17.2207C1.51957 17.0332 1.26522 16.9278 1 16.9278C0.734784 16.9278 0.48043 17.0332 0.292893 17.2207C0.105357 17.4082 0 17.6626 0 17.9278L0 19.9278C0.00158786 21.2534 0.528882 22.5242 1.46622 23.4616C2.40356 24.3989 3.67441 24.9262 5 24.9278H7C7.26522 24.9278 7.51957 24.8224 7.70711 24.6349C7.89464 24.4474 8 24.193 8 23.9278C8 23.6626 7.89464 23.4082 7.70711 23.2207C7.51957 23.0332 7.26522 22.9278 7 22.9278Z" fill="#374957"/>
<path d="M18.9999 0.927483H16.9999C16.7347 0.927483 16.4803 1.03284 16.2928 1.22038C16.1052 1.40791 15.9999 1.66227 15.9999 1.92748C15.9999 2.1927 16.1052 2.44705 16.2928 2.63459C16.4803 2.82213 16.7347 2.92748 16.9999 2.92748H18.9999C19.7955 2.92748 20.5586 3.24355 21.1212 3.80616C21.6838 4.36877 21.9999 5.13183 21.9999 5.92748V7.92748C21.9999 8.1927 22.1052 8.44705 22.2928 8.63459C22.4803 8.82213 22.7346 8.92748 22.9999 8.92748C23.2651 8.92748 23.5194 8.82213 23.707 8.63459C23.8945 8.44705 23.9999 8.1927 23.9999 7.92748V5.92748C23.9983 4.60189 23.471 3.33104 22.5336 2.3937C21.5963 1.45636 20.3255 0.92907 18.9999 0.927483V0.927483Z" fill="#374957"/>
</g>
<defs>
<clipPath id="clip0_507_2155">
<rect width="24" height="24" fill="white" transform="translate(0 0.92749)"/>
</clipPath>
</defs>
</svg>
