<svg width="24" height="25" viewBox="0 0 24 25" fill="none" xmlns="http://www.w3.org/2000/svg">
<g clip-path="url(#clip0_507_2248)">
<path d="M6.99987 24.9281C8.10444 24.9281 8.99987 24.0327 8.99987 22.9281C8.99987 21.8236 8.10444 20.9281 6.99987 20.9281C5.89531 20.9281 4.99988 21.8236 4.99988 22.9281C4.99988 24.0327 5.89531 24.9281 6.99987 24.9281Z" fill="#374957"/>
<path d="M17 24.9281C18.1046 24.9281 19 24.0327 19 22.9281C19 21.8236 18.1046 20.9281 17 20.9281C15.8954 20.9281 15 21.8236 15 22.9281C15 24.0327 15.8954 24.9281 17 24.9281Z" fill="#374957"/>
<path d="M23.0001 3.92749H21.0001V1.92749C21.0001 1.66227 20.8948 1.40792 20.7072 1.22038C20.5197 1.03285 20.2653 0.92749 20.0001 0.92749C19.7349 0.92749 19.4805 1.03285 19.293 1.22038C19.1055 1.40792 19.0001 1.66227 19.0001 1.92749V3.92749H17.0001C16.7349 3.92749 16.4805 4.03285 16.293 4.22038C16.1055 4.40792 16.0001 4.66227 16.0001 4.92749C16.0001 5.19271 16.1055 5.44706 16.293 5.6346C16.4805 5.82213 16.7349 5.92749 17.0001 5.92749H19.0001V7.92749C19.0001 8.19271 19.1055 8.44706 19.293 8.6346C19.4805 8.82213 19.7349 8.92749 20.0001 8.92749C20.2653 8.92749 20.5197 8.82213 20.7072 8.6346C20.8948 8.44706 21.0001 8.19271 21.0001 7.92749V5.92749H23.0001C23.2653 5.92749 23.5197 5.82213 23.7072 5.6346C23.8948 5.44706 24.0001 5.19271 24.0001 4.92749C24.0001 4.66227 23.8948 4.40792 23.7072 4.22038C23.5197 4.03285 23.2653 3.92749 23.0001 3.92749Z" fill="#374957"/>
<path d="M21.771 10.6535C21.6417 10.6293 21.5089 10.631 21.3803 10.6585C21.2516 10.686 21.1297 10.7388 21.0216 10.8138C20.9136 10.8888 20.8214 10.9844 20.7506 11.0953C20.6798 11.2061 20.6316 11.3299 20.609 11.4595C20.4843 12.1516 20.1203 12.778 19.5808 13.2291C19.0412 13.6802 18.3603 13.9274 17.657 13.9275H5.418L4.478 5.92749H13C13.2652 5.92749 13.5196 5.82213 13.7071 5.6346C13.8946 5.44706 14 5.19271 14 4.92749C14 4.66227 13.8946 4.40792 13.7071 4.22038C13.5196 4.03285 13.2652 3.92749 13 3.92749H4.242L4.2 3.57549C4.11382 2.84609 3.76306 2.17364 3.21419 1.68559C2.66532 1.19754 1.95647 0.927803 1.222 0.92749L1 0.92749C0.734784 0.92749 0.48043 1.03285 0.292893 1.22038C0.105357 1.40792 0 1.66227 0 1.92749C0 2.19271 0.105357 2.44706 0.292893 2.6346C0.48043 2.82213 0.734784 2.92749 1 2.92749H1.222C1.46693 2.92752 1.70334 3.01745 1.88637 3.18021C2.06941 3.34296 2.18634 3.56724 2.215 3.81049L3.591 15.5105C3.73385 16.7273 4.31848 17.8493 5.23391 18.6635C6.14934 19.4777 7.33185 19.9275 8.557 19.9275H19C19.2652 19.9275 19.5196 19.8221 19.7071 19.6346C19.8946 19.4471 20 19.1927 20 18.9275C20 18.6623 19.8946 18.4079 19.7071 18.2204C19.5196 18.0328 19.2652 17.9275 19 17.9275H8.557C7.93652 17.9276 7.33127 17.7353 6.82461 17.3771C6.31796 17.019 5.93483 16.5125 5.728 15.9275H17.657C18.8291 15.9276 19.9641 15.5159 20.8635 14.7643C21.763 14.0127 22.3698 12.969 22.578 11.8155C22.6014 11.6862 22.599 11.5536 22.5711 11.4252C22.5432 11.2968 22.4902 11.1752 22.4153 11.0673C22.3403 10.9594 22.2449 10.8673 22.1343 10.7963C22.0238 10.7253 21.9003 10.6768 21.771 10.6535Z" fill="#374957"/>
</g>
<defs>
<clipPath id="clip0_507_2248">
<rect width="24" height="24" fill="white" transform="translate(0 0.92749)"/>
</clipPath>
</defs>
</svg>
