<svg width="24" height="25" viewBox="0 0 24 25" fill="none" xmlns="http://www.w3.org/2000/svg">
<g clip-path="url(#clip0_507_2123)">
<path d="M17.0001 14.1116V10.9276C17.0001 10.6623 16.8948 10.408 16.7072 10.2204C16.5197 10.0329 16.2653 9.92755 16.0001 9.92755V3.34155C16.0002 2.93026 15.8951 2.52579 15.6947 2.16657C15.4944 1.80735 15.2056 1.50531 14.8557 1.28917C14.5058 1.07303 14.1064 0.949952 13.6955 0.931641C13.2846 0.91333 12.8759 1.00039 12.5081 1.18455L9.88612 2.49455C9.31832 2.77693 8.84081 3.21247 8.50753 3.75197C8.17426 4.29146 7.9985 4.91342 8.00012 5.54755V9.92755C7.73491 9.92755 7.48055 10.0329 7.29302 10.2204C7.10548 10.408 7.00012 10.6623 7.00012 10.9276V14.1116C6.41721 14.3176 5.91221 14.6988 5.55421 15.2029C5.19621 15.7069 5.00269 16.3093 5.00012 16.9276V19.9276C5.00171 21.2531 5.529 22.524 6.46634 23.4613C7.40368 24.3987 8.67453 24.926 10.0001 24.9276H14.0001C15.3257 24.926 16.5966 24.3987 17.5339 23.4613C18.4712 22.524 18.9985 21.2531 19.0001 19.9276V16.9276C18.9976 16.3093 18.804 15.7069 18.446 15.2029C18.088 14.6988 17.583 14.3176 17.0001 14.1116ZM9.00012 13.9276V11.9276H15.0001V13.9276H9.00012ZM10.0001 5.54755C9.99939 5.28497 10.0721 5.02743 10.2102 4.80405C10.3482 4.58068 10.546 4.40038 10.7811 4.28355L13.4001 2.97355C13.463 2.94099 13.5332 2.92522 13.604 2.92778C13.6748 2.93034 13.7437 2.95114 13.804 2.98816C13.8644 3.02518 13.9141 3.07717 13.9485 3.13909C13.9829 3.201 14.0006 3.27074 14.0001 3.34155V9.92755H10.0001V5.54755ZM17.0001 19.9276C17.0001 20.7232 16.6841 21.4863 16.1214 22.0489C15.5588 22.6115 14.7958 22.9276 14.0001 22.9276H10.0001C9.20447 22.9276 8.44141 22.6115 7.8788 22.0489C7.31619 21.4863 7.00012 20.7232 7.00012 19.9276V16.9276C7.00012 16.6623 7.10548 16.408 7.29302 16.2204C7.48055 16.0329 7.73491 15.9276 8.00012 15.9276H16.0001C16.2653 15.9276 16.5197 16.0329 16.7072 16.2204C16.8948 16.408 17.0001 16.6623 17.0001 16.9276V19.9276Z" fill="#374957"/>
</g>
<defs>
<clipPath id="clip0_507_2123">
<rect width="24" height="24" fill="white" transform="translate(0 0.92749)"/>
</clipPath>
</defs>
</svg>
