<svg width="24" height="25" viewBox="0 0 24 25" fill="none" xmlns="http://www.w3.org/2000/svg">
<g clip-path="url(#clip0_507_1915)">
<path d="M16 16.9275C16 17.1253 15.9414 17.3186 15.8315 17.4831C15.7216 17.6475 15.5654 17.7757 15.3827 17.8514C15.2 17.9271 14.9989 17.9469 14.8049 17.9083C14.6109 17.8697 14.4328 17.7745 14.2929 17.6346C14.1531 17.4947 14.0578 17.3166 14.0192 17.1226C13.9806 16.9286 14.0005 16.7275 14.0761 16.5448C14.1518 16.3621 14.28 16.2059 14.4444 16.096C14.6089 15.9861 14.8022 15.9275 15 15.9275C15.2652 15.9275 15.5196 16.0328 15.7071 16.2204C15.8947 16.4079 16 16.6623 16 16.9275ZM19 15.9275C18.8022 15.9275 18.6089 15.9861 18.4445 16.096C18.28 16.2059 18.1518 16.3621 18.0761 16.5448C18.0005 16.7275 17.9806 16.9286 18.0192 17.1226C18.0578 17.3166 18.1531 17.4947 18.2929 17.6346C18.4328 17.7745 18.6109 17.8697 18.8049 17.9083C18.9989 17.9469 19.2 17.9271 19.3827 17.8514C19.5654 17.7757 19.7216 17.6475 19.8315 17.4831C19.9414 17.3186 20 17.1253 20 16.9275C20 16.6623 19.8947 16.4079 19.7071 16.2204C19.5196 16.0328 19.2652 15.9275 19 15.9275ZM17 12.9275C16.8022 12.9275 16.6089 12.9861 16.4445 13.096C16.28 13.2059 16.1518 13.3621 16.0761 13.5448C16.0005 13.7275 15.9806 13.9286 16.0192 14.1226C16.0578 14.3166 16.1531 14.4947 16.2929 14.6346C16.4328 14.7744 16.6109 14.8697 16.8049 14.9083C16.9989 14.9469 17.2 14.9271 17.3827 14.8514C17.5654 14.7757 17.7216 14.6475 17.8315 14.4831C17.9414 14.3186 18 14.1253 18 13.9275C18 13.6623 17.8947 13.4079 17.7071 13.2204C17.5196 13.0328 17.2652 12.9275 17 12.9275ZM24 16.9275C24.002 18.4569 23.5649 19.9547 22.7408 21.2431C21.9167 22.5314 20.7401 23.5562 19.3508 24.1957C17.9615 24.8351 16.4179 25.0624 14.9032 24.8506C13.3886 24.6387 11.9665 23.9966 10.806 23.0005C10.4497 23.5876 9.94827 24.0733 9.35004 24.4108C8.75182 24.7482 8.07686 24.9262 7.39002 24.9275H4.61002C3.84984 24.9281 3.10522 24.7121 2.46339 24.3047C1.82156 23.8974 1.3091 23.3156 0.98602 22.6275C0.31771 21.1517 -0.0188615 19.5474 2.02776e-05 17.9275C0.12009 15.9913 0.716407 14.1148 1.73602 12.4645C2.41765 11.3954 2.84968 10.1865 3.00002 8.92749C2.88598 8.18631 2.70045 7.45791 2.44602 6.75249C2.21793 6.16636 2.06798 5.55276 2.00002 4.92749C2.00002 3.86662 2.42145 2.84921 3.17159 2.09906C3.92174 1.34892 4.93915 0.92749 6.00002 0.92749C7.06089 0.92749 8.0783 1.34892 8.82845 2.09906C9.57859 2.84921 10 3.86662 10 4.92749C9.93206 5.55276 9.78211 6.16636 9.55402 6.75249C9.29959 7.45791 9.11406 8.18631 9.00002 8.92749C9.08537 9.92992 9.39537 10.9003 9.90702 11.7665C10.9632 10.5139 12.3792 9.6164 13.9628 9.1958C15.5464 8.77519 17.221 8.85181 18.7596 9.41525C20.2981 9.97869 21.6262 11.0017 22.5637 12.3455C23.5011 13.6894 24.0026 15.289 24 16.9275ZM4.00002 4.92749C4.01602 5.07749 4.21102 5.69949 4.35402 6.15349C4.69192 7.04527 4.90917 7.97818 5.00002 8.92749H7.00002C7.09087 7.97818 7.30812 7.04527 7.64602 6.15349C7.78661 5.74254 7.90478 5.32426 8.00002 4.90049C7.99644 4.37006 7.78229 3.86277 7.40469 3.49023C7.02708 3.11769 6.51695 2.91041 5.98652 2.91399C5.45609 2.91757 4.9488 3.13172 4.57626 3.50932C4.20372 3.88693 3.99644 4.39706 4.00002 4.92749ZM9.20002 21.7835C9.74544 20.5721 10.0185 19.2559 10 17.9275C9.86728 16.3142 9.34871 14.7564 8.48802 13.3855C8.05495 12.5947 7.68061 11.7732 7.36802 10.9275H4.63202C4.31944 11.7732 3.94509 12.5947 3.51202 13.3855C2.65133 14.7564 2.13276 16.3142 2.00002 17.9275C1.98163 19.2562 2.2547 20.5727 2.80002 21.7845C2.96242 22.1269 3.21878 22.4162 3.53922 22.6185C3.85967 22.8209 4.23103 22.928 4.61002 22.9275H7.39002C7.76912 22.928 8.14055 22.8207 8.46101 22.6181C8.78147 22.4156 9.03776 22.1261 9.20002 21.7835ZM22 16.9275C22.0018 15.6239 21.5783 14.3552 20.7938 13.3141C20.0093 12.273 18.9066 11.5161 17.653 11.1584C16.3994 10.8006 15.0634 10.8616 13.8476 11.3319C12.6318 11.8022 11.6025 12.6563 10.916 13.7645C11.5858 15.053 11.9563 16.476 12 17.9275C12.0002 18.9607 11.863 19.9894 11.592 20.9865C12.4087 21.8762 13.4751 22.4984 14.6515 22.7715C15.8279 23.0447 17.0593 22.9561 18.1845 22.5173C19.3096 22.0785 20.276 21.31 20.9568 20.3125C21.6377 19.3151 22.0013 18.1352 22 16.9275Z" fill="#374957"/>
</g>
<defs>
<clipPath id="clip0_507_1915">
<rect width="24" height="24" fill="white" transform="translate(0 0.92749)"/>
</clipPath>
</defs>
</svg>
