<svg width="24" height="25" viewBox="0 0 24 25" fill="none" xmlns="http://www.w3.org/2000/svg">
<g clip-path="url(#clip0_507_2117)">
<path d="M2 11.9275H13C13.5304 11.9275 14.0391 11.7168 14.4142 11.3417C14.7893 10.9666 15 10.4579 15 9.92749V2.92749C15 2.39706 14.7893 1.88835 14.4142 1.51328C14.0391 1.1382 13.5304 0.92749 13 0.92749H2C1.46957 0.92749 0.960859 1.1382 0.585786 1.51328C0.210714 1.88835 0 2.39706 0 2.92749L0 9.92749C0 10.4579 0.210714 10.9666 0.585786 11.3417C0.960859 11.7168 1.46957 11.9275 2 11.9275ZM2 2.92749H13V9.92749H2V2.92749Z" fill="#374957"/>
<path d="M22.0002 0.927483H19.0002C18.4698 0.927483 17.9611 1.1382 17.586 1.51327C17.211 1.88834 17.0002 2.39705 17.0002 2.92748V9.92748C17.0002 10.4579 17.211 10.9666 17.586 11.3417C17.9611 11.7168 18.4698 11.9275 19.0002 11.9275H22.0002C22.5307 11.9275 23.0394 11.7168 23.4145 11.3417C23.7895 10.9666 24.0002 10.4579 24.0002 9.92748V2.92748C24.0002 2.39705 23.7895 1.88834 23.4145 1.51327C23.0394 1.1382 22.5307 0.927483 22.0002 0.927483V0.927483ZM22.0002 9.92748H19.0002V2.92748H22.0002V9.92748Z" fill="#374957"/>
<path d="M5 13.9278H2C1.46957 13.9278 0.960859 14.1385 0.585787 14.5136C0.210714 14.8887 0 15.3974 0 15.9278L0 22.9278C0 23.4582 0.210714 23.9669 0.585787 24.342C0.960859 24.7171 1.46957 24.9278 2 24.9278H5C5.53043 24.9278 6.03914 24.7171 6.41421 24.342C6.78929 23.9669 7 23.4582 7 22.9278V15.9278C7 15.3974 6.78929 14.8887 6.41421 14.5136C6.03914 14.1385 5.53043 13.9278 5 13.9278ZM5 22.9278H2V15.9278H5V22.9278Z" fill="#374957"/>
<path d="M22 13.9278H11C10.4696 13.9278 9.96086 14.1385 9.58579 14.5136C9.21071 14.8887 9 15.3974 9 15.9278V22.9278C9 23.4582 9.21071 23.9669 9.58579 24.342C9.96086 24.7171 10.4696 24.9278 11 24.9278H22C22.5304 24.9278 23.0391 24.7171 23.4142 24.342C23.7893 23.9669 24 23.4582 24 22.9278V15.9278C24 15.3974 23.7893 14.8887 23.4142 14.5136C23.0391 14.1385 22.5304 13.9278 22 13.9278ZM22 22.9278H11V15.9278H22V22.9278Z" fill="#374957"/>
</g>
<defs>
<clipPath id="clip0_507_2117">
<rect width="24" height="24" fill="white" transform="translate(0 0.92749)"/>
</clipPath>
</defs>
</svg>
