<svg width="24" height="25" viewBox="0 0 24 25" fill="none" xmlns="http://www.w3.org/2000/svg">
<g clip-path="url(#clip0_507_2200)">
<path d="M20.036 24.9269H3.96395C3.28814 24.9284 2.6232 24.7568 2.03257 24.4284C1.44194 24.0999 0.945331 23.6256 0.59012 23.0506C0.23491 22.4757 0.0329505 21.8193 0.00351079 21.1442C-0.025929 20.469 0.118133 19.7975 0.421953 19.1939L8.45895 3.11586C8.76533 2.49641 9.22956 1.96865 9.80487 1.58576C10.3802 1.20286 11.0462 0.978359 11.736 0.934865C12.5142 0.885341 13.2897 1.06568 13.9663 1.45346C14.6428 1.84124 15.1904 2.41934 15.541 3.11586L23.578 19.1939C23.88 19.7977 24.0227 20.4688 23.9924 21.1433C23.9622 21.8178 23.76 22.4734 23.4052 23.0478C23.0503 23.6222 22.5545 24.0963 21.9648 24.4252C21.3751 24.7541 20.7111 24.9268 20.036 24.9269ZM1.99995 20.9699C2.00416 21.4888 2.21265 21.9852 2.58026 22.3515C2.94787 22.7178 3.445 22.9245 3.96395 22.9269H20.036C20.5549 22.9245 21.052 22.7178 21.4196 22.3515C21.7873 21.9852 21.9957 21.4888 22 20.9699C21.9994 20.6636 21.9268 20.3618 21.788 20.0889L13.753 4.00986C13.5904 3.68403 13.3403 3.40995 13.0306 3.21838C12.721 3.0268 12.3641 2.92532 12 2.92532C11.6358 2.92532 11.2789 3.0268 10.9693 3.21838C10.6596 3.40995 10.4095 3.68403 10.247 4.00986L2.20995 20.0889C2.07178 20.362 1.99984 20.6638 1.99995 20.9699Z" fill="#374957"/>
</g>
<defs>
<clipPath id="clip0_507_2200">
<rect width="24" height="24" fill="white" transform="translate(0 0.92749)"/>
</clipPath>
</defs>
</svg>
