<svg width="24" height="25" viewBox="0 0 24 25" fill="none" xmlns="http://www.w3.org/2000/svg">
<g clip-path="url(#clip0_507_2253)">
<path d="M7 22.9275H5C4.20435 22.9275 3.44129 22.6114 2.87868 22.0488C2.31607 21.4862 2 20.7231 2 19.9275V5.92749C2 5.13184 2.31607 4.36878 2.87868 3.80617C3.44129 3.24356 4.20435 2.92749 5 2.92749H7C7.26522 2.92749 7.51957 2.82213 7.70711 2.6346C7.89464 2.44706 8 2.19271 8 1.92749C8 1.66227 7.89464 1.40792 7.70711 1.22038C7.51957 1.03285 7.26522 0.92749 7 0.92749H5C3.67441 0.929078 2.40356 1.45637 1.46622 2.39371C0.528882 3.33105 0.00158786 4.6019 0 5.92749L0 19.9275C0.00158786 21.2531 0.528882 22.5239 1.46622 23.4613C2.40356 24.3986 3.67441 24.9259 5 24.9275H7C7.26522 24.9275 7.51957 24.8221 7.70711 24.6346C7.89464 24.4471 8 24.1927 8 23.9275C8 23.6623 7.89464 23.4079 7.70711 23.2204C7.51957 23.0328 7.26522 22.9275 7 22.9275Z" fill="#374957"/>
<path d="M22.9998 11.9277L7.22282 11.9597C7.31052 11.7968 7.42022 11.6467 7.54882 11.5137L11.4278 7.63469C11.5233 7.54245 11.5995 7.4321 11.6519 7.3101C11.7043 7.18809 11.7319 7.05687 11.7331 6.92409C11.7342 6.79132 11.7089 6.65964 11.6586 6.53674C11.6084 6.41384 11.5341 6.30219 11.4402 6.2083C11.3463 6.11441 11.2347 6.04015 11.1118 5.98987C10.9889 5.93959 10.8572 5.91429 10.7244 5.91544C10.5916 5.9166 10.4604 5.94418 10.3384 5.99659C10.2164 6.049 10.1061 6.12518 10.0138 6.22069L6.13282 10.0997C5.38293 10.8498 4.96167 11.867 4.96167 12.9277C4.96167 13.9884 5.38293 15.0056 6.13282 15.7557L10.0118 19.6347C10.1041 19.7302 10.2144 19.8064 10.3364 19.8588C10.4584 19.9112 10.5896 19.9388 10.7224 19.9399C10.8552 19.9411 10.9869 19.9158 11.1098 19.8655C11.2327 19.8152 11.3443 19.741 11.4382 19.6471C11.5321 19.5532 11.6064 19.4415 11.6566 19.3186C11.7069 19.1958 11.7322 19.0641 11.7311 18.9313C11.7299 18.7985 11.7023 18.6673 11.6499 18.5453C11.5975 18.4233 11.5213 18.3129 11.4258 18.2207L7.54682 14.3417C7.4349 14.2264 7.3372 14.0982 7.25582 13.9597L22.9998 13.9277C23.265 13.9277 23.5194 13.8223 23.7069 13.6348C23.8945 13.4473 23.9998 13.1929 23.9998 12.9277C23.9998 12.6625 23.8945 12.4081 23.7069 12.2206C23.5194 12.0331 23.265 11.9277 22.9998 11.9277Z" fill="#374957"/>
</g>
<defs>
<clipPath id="clip0_507_2253">
<rect width="24" height="24" fill="white" transform="translate(0 0.92749)"/>
</clipPath>
</defs>
</svg>
