<svg width="24" height="25" viewBox="0 0 24 25" fill="none" xmlns="http://www.w3.org/2000/svg">
<g clip-path="url(#clip0_507_2130)">
<path d="M17.9999 9.99124C18 9.589 17.9206 9.1907 17.7661 8.81931C17.6117 8.44791 17.3852 8.11074 17.0999 7.82724C16.516 7.27008 15.7399 6.95923 14.9329 6.95923C14.1258 6.95923 13.3498 7.27008 12.7659 7.82724L0.899887 19.6962C0.358306 20.277 0.0633283 21.0453 0.0771231 21.8392C0.0909179 22.6332 0.412407 23.3907 0.973835 23.9523C1.53526 24.5139 2.29278 24.8355 3.08672 24.8495C3.88067 24.8635 4.64904 24.5687 5.22989 24.0272L17.0999 12.1582C17.3857 11.8744 17.6124 11.5368 17.7668 11.1648C17.9213 10.7929 18.0005 10.394 17.9999 9.99124ZM3.81589 22.6152C3.61373 22.8079 3.34517 22.9154 3.06589 22.9154C2.78661 22.9154 2.51804 22.8079 2.31589 22.6152C2.1173 22.4161 2.00578 22.1464 2.00578 21.8652C2.00578 21.584 2.1173 21.3143 2.31589 21.1152L10.0849 13.3452L11.5899 14.8502L3.81589 22.6152ZM15.6879 10.7432L12.9999 13.4322L11.4999 11.9272L14.1889 9.23924C14.2847 9.12973 14.4021 9.04107 14.5336 8.97876C14.6651 8.91645 14.808 8.8818 14.9535 8.87698C15.0989 8.87215 15.2438 8.89724 15.3792 8.95069C15.5145 9.00415 15.6375 9.08483 15.7404 9.18774C15.8433 9.29064 15.924 9.41359 15.9774 9.54895C16.0309 9.68431 16.056 9.8292 16.0511 9.97466C16.0463 10.1201 16.0117 10.263 15.9494 10.3945C15.887 10.5261 15.7984 10.6434 15.6889 10.7392L15.6879 10.7432ZM4.86289 3.78224L6.41289 3.34024L6.85489 1.79024C6.92609 1.54152 7.07634 1.32275 7.28293 1.16702C7.48951 1.01128 7.74118 0.92704 7.99989 0.92704C8.25859 0.92704 8.51027 1.01128 8.71685 1.16702C8.92343 1.32275 9.07368 1.54152 9.14489 1.79024L9.58689 3.34024L11.1369 3.78224C11.3856 3.85344 11.6044 4.00369 11.7601 4.21027C11.9158 4.41686 12.0001 4.66853 12.0001 4.92724C12.0001 5.18594 11.9158 5.43762 11.7601 5.6442C11.6044 5.85078 11.3856 6.00103 11.1369 6.07224L9.58689 6.51424L9.14489 8.06424C9.07368 8.31295 8.92343 8.53172 8.71685 8.68746C8.51027 8.84319 8.25859 8.92743 7.99989 8.92743C7.74118 8.92743 7.48951 8.84319 7.28293 8.68746C7.07634 8.53172 6.92609 8.31295 6.85489 8.06424L6.41289 6.51424L4.86289 6.07224C4.61417 6.00103 4.3954 5.85078 4.23967 5.6442C4.08393 5.43762 3.99969 5.18594 3.99969 4.92724C3.99969 4.66853 4.08393 4.41686 4.23967 4.21027C4.3954 4.00369 4.61417 3.85344 4.86289 3.78224ZM23.1369 18.0722L21.5869 18.5142L21.1449 20.0642C21.0737 20.313 20.9234 20.5317 20.7168 20.6875C20.5103 20.8432 20.2586 20.9274 19.9999 20.9274C19.7412 20.9274 19.4895 20.8432 19.2829 20.6875C19.0763 20.5317 18.9261 20.313 18.8549 20.0642L18.4129 18.5142L16.8629 18.0722C16.6142 18.001 16.3954 17.8508 16.2397 17.6442C16.0839 17.4376 15.9997 17.1859 15.9997 16.9272C15.9997 16.6685 16.0839 16.4169 16.2397 16.2103C16.3954 16.0037 16.6142 15.8534 16.8629 15.7822L18.4129 15.3402L18.8549 13.7902C18.9261 13.5415 19.0763 13.3228 19.2829 13.167C19.4895 13.0113 19.7412 12.927 19.9999 12.927C20.2586 12.927 20.5103 13.0113 20.7168 13.167C20.9234 13.3228 21.0737 13.5415 21.1449 13.7902L21.5869 15.3402L23.1369 15.7822C23.3856 15.8534 23.6044 16.0037 23.7601 16.2103C23.9158 16.4169 24.0001 16.6685 24.0001 16.9272C24.0001 17.1859 23.9158 17.4376 23.7601 17.6442C23.6044 17.8508 23.3856 18.001 23.1369 18.0722ZM17.7549 3.42724L19.1109 3.04024L19.4999 1.68224C19.5632 1.46605 19.6949 1.27621 19.8751 1.14115C20.0554 1.00609 20.2746 0.93309 20.4999 0.93309C20.7252 0.93309 20.9443 1.00609 21.1246 1.14115C21.3049 1.27621 21.4366 1.46605 21.4999 1.68224L21.8869 3.03824L23.2429 3.42524C23.4591 3.48855 23.6489 3.62021 23.784 3.80049C23.919 3.98078 23.992 4.19997 23.992 4.42524C23.992 4.6505 23.919 4.86969 23.784 5.04998C23.6489 5.23026 23.4591 5.36193 23.2429 5.42524L21.8869 5.81224L21.4999 7.17124C21.4366 7.38742 21.3049 7.57726 21.1246 7.71232C20.9443 7.84738 20.7252 7.92038 20.4999 7.92038C20.2746 7.92038 20.0554 7.84738 19.8751 7.71232C19.6949 7.57726 19.5632 7.38742 19.4999 7.17124L19.1129 5.81624L17.7549 5.42724C17.5387 5.36392 17.3489 5.23226 17.2138 5.05198C17.0787 4.87169 17.0057 4.6525 17.0057 4.42724C17.0057 4.20197 17.0787 3.98278 17.2138 3.80249C17.3489 3.62221 17.5387 3.49055 17.7549 3.42724Z" fill="#374957"/>
</g>
<defs>
<clipPath id="clip0_507_2130">
<rect width="24" height="24" fill="white" transform="translate(0 0.92749)"/>
</clipPath>
</defs>
</svg>
