<svg width="24" height="25" viewBox="0 0 24 25" fill="none" xmlns="http://www.w3.org/2000/svg">
<g clip-path="url(#clip0_507_2151)">
<path d="M11.9999 20.9275C14.1209 20.9251 16.1543 20.0815 17.6541 18.5817C19.1539 17.0819 19.9975 15.0485 19.9999 12.9275V8.92748C19.9999 6.80575 19.157 4.77092 17.6567 3.27063C16.1564 1.77034 14.1216 0.927483 11.9999 0.927483C9.87815 0.927483 7.84331 1.77034 6.34302 3.27063C4.84273 4.77092 3.99988 6.80575 3.99988 8.92748V12.9275C4.00226 15.0485 4.84588 17.0819 6.34565 18.5817C7.84543 20.0815 9.87888 20.9251 11.9999 20.9275ZM11.9999 2.92748C13.4164 2.93011 14.7865 3.43335 15.8679 4.34828C16.9494 5.26321 17.6726 6.53094 17.9099 7.92748H14.9999C14.7347 7.92748 14.4803 8.03284 14.2928 8.22038C14.1052 8.40791 13.9999 8.66227 13.9999 8.92748C13.9999 9.1927 14.1052 9.44705 14.2928 9.63459C14.4803 9.82213 14.7347 9.92748 14.9999 9.92748H17.9999V11.9275H14.9999C14.7347 11.9275 14.4803 12.0328 14.2928 12.2204C14.1052 12.4079 13.9999 12.6623 13.9999 12.9275C13.9999 13.1927 14.1052 13.4471 14.2928 13.6346C14.4803 13.8221 14.7347 13.9275 14.9999 13.9275H17.9099C17.6748 15.325 16.9522 16.594 15.8702 17.5092C14.7883 18.4244 13.417 18.9265 11.9999 18.9265C10.5828 18.9265 9.21149 18.4244 8.12952 17.5092C7.04756 16.594 6.32491 15.325 6.08988 13.9275H8.99988C9.26509 13.9275 9.51945 13.8221 9.70698 13.6346C9.89452 13.4471 9.99988 13.1927 9.99988 12.9275C9.99988 12.6623 9.89452 12.4079 9.70698 12.2204C9.51945 12.0328 9.26509 11.9275 8.99988 11.9275H5.99988V9.92748H8.99988C9.26509 9.92748 9.51945 9.82213 9.70698 9.63459C9.89452 9.44705 9.99988 9.1927 9.99988 8.92748C9.99988 8.66227 9.89452 8.40791 9.70698 8.22038C9.51945 8.03284 9.26509 7.92748 8.99988 7.92748H6.08988C6.32715 6.53094 7.0504 5.26321 8.13185 4.34828C9.21329 3.43335 10.5833 2.93011 11.9999 2.92748Z" fill="#374957"/>
<path d="M23 12.9275C22.7348 12.9275 22.4804 13.0328 22.2929 13.2204C22.1054 13.4079 22 13.6623 22 13.9275C21.9974 16.3136 21.0483 18.6013 19.361 20.2885C17.6738 21.9758 15.3861 22.9248 13 22.9275H11C8.61395 22.9246 6.32645 21.9754 4.63925 20.2882C2.95206 18.601 2.00291 16.3135 2 13.9275C2 13.6623 1.89464 13.4079 1.70711 13.2204C1.51957 13.0328 1.26522 12.9275 1 12.9275C0.734784 12.9275 0.48043 13.0328 0.292893 13.2204C0.105357 13.4079 0 13.6623 0 13.9275C0.00344047 16.8438 1.16347 19.6397 3.22563 21.7019C5.28778 23.764 8.08367 24.924 11 24.9275H13C15.9163 24.924 18.7122 23.764 20.7744 21.7019C22.8365 19.6397 23.9966 16.8438 24 13.9275C24 13.6623 23.8946 13.4079 23.7071 13.2204C23.5196 13.0328 23.2652 12.9275 23 12.9275Z" fill="#374957"/>
</g>
<defs>
<clipPath id="clip0_507_2151">
<rect width="24" height="24" fill="white" transform="translate(0 0.92749)"/>
</clipPath>
</defs>
</svg>
