<svg width="24" height="25" viewBox="0 0 24 25" fill="none" xmlns="http://www.w3.org/2000/svg">
<path d="M10.4801 19.9275C10.2178 19.9264 9.96637 19.8222 9.7801 19.6375L5.1901 15.0475C4.6283 14.485 4.31274 13.7225 4.31274 12.9275C4.31274 12.1325 4.6283 11.37 5.1901 10.8075L9.7801 6.21749C9.96747 6.03124 10.2209 5.9267 10.4851 5.9267C10.7493 5.9267 11.0027 6.03124 11.1901 6.21749C11.2838 6.31045 11.3582 6.42105 11.409 6.54291C11.4598 6.66477 11.4859 6.79548 11.4859 6.92749C11.4859 7.0595 11.4598 7.19021 11.409 7.31207C11.3582 7.43393 11.2838 7.54453 11.1901 7.63749L6.6001 12.2175C6.50638 12.3105 6.43198 12.4211 6.38121 12.5429C6.33044 12.6648 6.30431 12.7955 6.30431 12.9275C6.30431 13.0595 6.33044 13.1902 6.38121 13.3121C6.43198 13.4339 6.50638 13.5445 6.6001 13.6375L11.1901 18.2175C11.2838 18.3105 11.3582 18.4211 11.409 18.5429C11.4598 18.6648 11.4859 18.7955 11.4859 18.9275C11.4859 19.0595 11.4598 19.1902 11.409 19.3121C11.3582 19.4339 11.2838 19.5445 11.1901 19.6375C11.0967 19.7302 10.9858 19.8035 10.864 19.8533C10.7422 19.903 10.6117 19.9283 10.4801 19.9275Z" fill="#374957"/>
<path d="M17.4799 19.9275C17.2176 19.9264 16.9662 19.8222 16.7799 19.6375L10.7799 13.6375C10.6862 13.5445 10.6118 13.4339 10.561 13.3121C10.5103 13.1902 10.4841 13.0595 10.4841 12.9275C10.4841 12.7955 10.5103 12.6648 10.561 12.5429C10.6118 12.4211 10.6862 12.3105 10.7799 12.2175L16.7799 6.21749C16.9673 6.03124 17.2207 5.9267 17.4849 5.9267C17.7491 5.9267 18.0026 6.03124 18.1899 6.21749C18.2836 6.31045 18.358 6.42105 18.4088 6.54291C18.4596 6.66477 18.4857 6.79548 18.4857 6.92749C18.4857 7.0595 18.4596 7.19021 18.4088 7.31207C18.358 7.43393 18.2836 7.54453 18.1899 7.63749L12.8999 12.9275L18.1899 18.2175C18.2836 18.3105 18.358 18.4211 18.4088 18.5429C18.4596 18.6648 18.4857 18.7955 18.4857 18.9275C18.4857 19.0595 18.4596 19.1902 18.4088 19.3121C18.358 19.4339 18.2836 19.5445 18.1899 19.6375C18.0965 19.7302 17.9857 19.8035 17.8638 19.8533C17.742 19.903 17.6115 19.9283 17.4799 19.9275Z" fill="#374957"/>
</svg>
