<svg width="24" height="25" viewBox="0 0 24 25" fill="none" xmlns="http://www.w3.org/2000/svg">
<path d="M19 11.9275H9L12.29 8.63749C12.3837 8.54452 12.4581 8.43392 12.5089 8.31206C12.5597 8.19021 12.5858 8.0595 12.5858 7.92749C12.5858 7.79548 12.5597 7.66477 12.5089 7.54291C12.4581 7.42105 12.3837 7.31045 12.29 7.21749C12.1026 7.03124 11.8492 6.9267 11.585 6.9267C11.3208 6.9267 11.0674 7.03124 10.88 7.21749L6.59 11.5175C6.21441 11.8908 6.00223 12.3979 6 12.9275C6.00487 13.4536 6.21684 13.9566 6.59 14.3275L10.88 18.6275C10.9732 18.7201 11.0838 18.7934 11.2054 18.8432C11.3269 18.8931 11.4571 18.9185 11.5885 18.918C11.7199 18.9176 11.8499 18.8912 11.9712 18.8405C12.0924 18.7898 12.2024 18.7157 12.295 18.6225C12.3876 18.5292 12.4609 18.4187 12.5107 18.2971C12.5606 18.1755 12.586 18.0453 12.5856 17.9139C12.5851 17.7825 12.5588 17.6525 12.508 17.5313C12.4573 17.4101 12.3832 17.3001 12.29 17.2075L9 13.9275H19C19.2652 13.9275 19.5196 13.8221 19.7071 13.6346C19.8946 13.4471 20 13.1927 20 12.9275C20 12.6623 19.8946 12.4079 19.7071 12.2204C19.5196 12.0328 19.2652 11.9275 19 11.9275Z" fill="#374957"/>
</svg>
