<svg width="24" height="25" viewBox="0 0 24 25" fill="none" xmlns="http://www.w3.org/2000/svg">
<g clip-path="url(#clip0_507_2118)">
<path d="M23.119 1.79908C22.8065 1.48727 22.4287 1.24867 22.0128 1.10048C21.5969 0.952282 21.1534 0.898184 20.7141 0.942079C17.9211 1.21208 8.52806 2.37508 4.90007 5.99908C3.16584 7.73803 2.13747 10.0579 2.01354 12.5107C1.88962 14.9635 2.67894 17.3752 4.22907 19.2801L0.289073 23.2201C0.106915 23.4087 0.0061212 23.6613 0.00839962 23.9235C0.010678 24.1857 0.115847 24.4365 0.301255 24.6219C0.486663 24.8073 0.737475 24.9125 0.999671 24.9148C1.26187 24.917 1.51447 24.8162 1.70307 24.6341L5.64307 20.6941C7.54757 22.2463 9.95993 23.0372 12.4138 22.914C14.8676 22.7908 17.1886 21.7622 18.9281 20.0271C22.604 16.3501 23.728 6.98608 23.987 4.20408C24.0294 3.76395 23.9735 3.31991 23.8234 2.90401C23.6733 2.48811 23.4327 2.11072 23.119 1.79908ZM17.5191 18.6091C16.1556 19.9676 14.3443 20.7834 12.4233 20.9043C10.5024 21.0252 8.60312 20.4429 7.08006 19.2661L16.7121 9.63408C16.8942 9.44548 16.995 9.19287 16.9927 8.93068C16.9904 8.66848 16.8853 8.41767 16.6999 8.23226C16.5145 8.04685 16.2637 7.94168 16.0015 7.9394C15.7393 7.93713 15.4867 8.03792 15.2981 8.22008L5.66107 17.8521C4.48404 16.3291 3.9016 14.4298 4.0225 12.5088C4.1434 10.5878 4.95938 8.77647 6.31807 7.41308C8.82706 4.90508 15.7451 3.42708 20.907 2.93208C21.0532 2.91785 21.2008 2.93601 21.3392 2.98526C21.4776 3.03451 21.6034 3.11364 21.7078 3.21703C21.8121 3.32042 21.8924 3.44553 21.9429 3.58346C21.9934 3.72139 22.0129 3.86875 22 4.01508C21.5 9.40208 20.059 16.0641 17.5141 18.6091H17.5191Z" fill="#374957"/>
</g>
<defs>
<clipPath id="clip0_507_2118">
<rect width="24" height="24" fill="white" transform="translate(0 0.92749)"/>
</clipPath>
</defs>
</svg>
