<svg width="24" height="25" viewBox="0 0 24 25" fill="none" xmlns="http://www.w3.org/2000/svg">
<g clip-path="url(#clip0_507_2205)">
<path d="M16 0.92749H8C6.67441 0.929078 5.40356 1.45637 4.46622 2.39371C3.52888 3.33105 3.00159 4.6019 3 5.92749V23.9275C3.00014 24.1094 3.04989 24.2878 3.14388 24.4435C3.23788 24.5992 3.37256 24.7263 3.53344 24.8112C3.69431 24.8961 3.87529 24.9354 4.05688 24.9251C4.23847 24.9148 4.4138 24.8551 4.564 24.7525L6.67 23.3135L8.776 24.7525C8.94239 24.8664 9.13934 24.9274 9.341 24.9274C9.54266 24.9274 9.73961 24.8664 9.906 24.7525L12.006 23.3135L14.106 24.7525C14.2725 24.8666 14.4696 24.9277 14.6715 24.9277C14.8734 24.9277 15.0705 24.8666 15.237 24.7525L17.337 23.3145L19.437 24.7515C19.5871 24.8538 19.7623 24.9132 19.9436 24.9234C20.125 24.9337 20.3057 24.8943 20.4664 24.8096C20.627 24.7249 20.7616 24.5981 20.8556 24.4426C20.9496 24.2872 20.9996 24.1091 21 23.9275V5.92749C20.9984 4.6019 20.4711 3.33105 19.5338 2.39371C18.5964 1.45637 17.3256 0.929078 16 0.92749V0.92749ZM19 22.0275L17.9 21.2755C17.7334 21.1611 17.5361 21.0999 17.334 21.0999C17.1319 21.0999 16.9346 21.1611 16.768 21.2755L14.668 22.7145L12.568 21.2755C12.4015 21.1613 12.2044 21.1002 12.0025 21.1002C11.8006 21.1002 11.6035 21.1613 11.437 21.2755L9.337 22.7145L7.237 21.2755C7.07071 21.1618 6.87396 21.1009 6.6725 21.1009C6.47105 21.1009 6.27429 21.1618 6.108 21.2755L5 22.0275V5.92749C5 5.13184 5.31607 4.36878 5.87868 3.80617C6.44129 3.24356 7.20435 2.92749 8 2.92749H16C16.7956 2.92749 17.5587 3.24356 18.1213 3.80617C18.6839 4.36878 19 5.13184 19 5.92749V22.0275Z" fill="#374957"/>
<path d="M15.9999 8.9281H7.99988C7.44759 8.9281 6.99988 9.37581 6.99988 9.9281C6.99988 10.4804 7.44759 10.9281 7.99988 10.9281H15.9999C16.5522 10.9281 16.9999 10.4804 16.9999 9.9281C16.9999 9.37581 16.5522 8.9281 15.9999 8.9281Z" fill="#374957"/>
<path d="M13.9999 12.9275H7.99988C7.44759 12.9275 6.99988 13.3752 6.99988 13.9275C6.99988 14.4798 7.44759 14.9275 7.99988 14.9275H13.9999C14.5521 14.9275 14.9999 14.4798 14.9999 13.9275C14.9999 13.3752 14.5521 12.9275 13.9999 12.9275Z" fill="#374957"/>
</g>
<defs>
<clipPath id="clip0_507_2205">
<rect width="24" height="24" fill="white" transform="translate(0 0.92749)"/>
</clipPath>
</defs>
</svg>
