<svg width="24" height="25" viewBox="0 0 24 25" fill="none" xmlns="http://www.w3.org/2000/svg">
<g clip-path="url(#clip0_507_2097)">
<path d="M23 19.9271C22.7348 19.9271 22.4804 20.0325 22.2929 20.22C22.1054 20.4075 22 20.6619 22 20.9271C22 21.4575 21.7893 21.9662 21.4142 22.3413C21.0391 22.7164 20.5304 22.9271 20 22.9271H16V18.9271H18.1C19.1339 18.9258 20.1251 18.5145 20.8563 17.7834C21.5874 17.0522 21.9987 16.061 22 15.0271C21.9973 13.6409 21.5157 12.2982 20.6369 11.2261C19.758 10.1541 18.5358 9.41862 17.177 9.1441L13.3 8.3671C12.8903 8.28547 12.5165 8.07763 12.231 7.77274C11.9455 7.46785 11.7626 7.08122 11.708 6.6671L11.3 3.5031C11.2408 3.08875 11.0955 2.69138 10.8735 2.33653C10.6515 1.98169 10.3578 1.67722 10.0111 1.4427C9.66438 1.20819 9.27245 1.04881 8.86049 0.974824C8.44852 0.900836 8.02563 0.913874 7.619 1.0131L2.91 2.3471C2.07333 2.58661 1.33714 3.09149 0.812295 3.78569C0.28745 4.47989 0.00237401 5.32583 0 6.1961L0 14.9271C0 15.988 0.421427 17.0054 1.17157 17.7555C1.92172 18.5057 2.93913 18.9271 4 18.9271H5V22.9271H1C0.734784 22.9271 0.48043 23.0325 0.292893 23.22C0.105357 23.4075 0 23.6619 0 23.9271C0 24.1923 0.105357 24.4467 0.292893 24.6342C0.48043 24.8217 0.734784 24.9271 1 24.9271H20C21.0609 24.9271 22.0783 24.5057 22.8284 23.7555C23.5786 23.0054 24 21.988 24 20.9271C24 20.6619 23.8946 20.4075 23.7071 20.22C23.5196 20.0325 23.2652 19.9271 23 19.9271ZM2 14.9271V6.1961C2.00149 5.76098 2.14413 5.33809 2.4065 4.99097C2.66887 4.64385 3.03679 4.39124 3.455 4.2711L8.107 2.9511C8.17961 2.93532 8.25369 2.92728 8.328 2.9271C8.56647 2.92767 8.79688 3.01343 8.97768 3.16892C9.15847 3.32442 9.27775 3.5394 9.314 3.7751L9.466 4.9271H7C6.73478 4.9271 6.48043 5.03245 6.29289 5.21999C6.10536 5.40753 6 5.66188 6 5.9271C6 6.19231 6.10536 6.44667 6.29289 6.6342C6.48043 6.82174 6.73478 6.9271 7 6.9271H9.729C9.77374 7.24081 9.856 7.548 9.974 7.8421L7.635 9.2651C7.40837 9.40288 7.24576 9.62504 7.18294 9.88272C7.15183 10.0103 7.14615 10.1428 7.16624 10.2725C7.18633 10.4023 7.23178 10.5269 7.3 10.6391C7.36822 10.7513 7.45788 10.849 7.56385 10.9266C7.66982 11.0041 7.79003 11.0601 7.91762 11.0912C8.17529 11.154 8.44737 11.1119 8.674 10.9741L11.14 9.4741C11.4039 9.69219 11.695 9.87506 12.006 10.0181L10.631 12.4311C10.4997 12.6616 10.4654 12.9348 10.5355 13.1906C10.6056 13.4464 10.7745 13.6638 11.005 13.7951C11.2355 13.9264 11.5087 13.9607 11.7645 13.8906C12.0203 13.8205 12.2377 13.6516 12.369 13.4211L14.007 10.5471L16.784 11.1031C17.6902 11.2863 18.5052 11.777 19.0912 12.492C19.6773 13.2071 19.9983 14.1026 20 15.0271C20 15.531 19.7998 16.0143 19.4435 16.3706C19.0872 16.7269 18.6039 16.9271 18.1 16.9271H4C3.46957 16.9271 2.96086 16.7164 2.58579 16.3413C2.21071 15.9662 2 15.4575 2 14.9271ZM7 18.9271H14V22.9271H7V18.9271Z" fill="#374957"/>
</g>
<defs>
<clipPath id="clip0_507_2097">
<rect width="24" height="24" fill="white" transform="translate(0 0.92749)"/>
</clipPath>
</defs>
</svg>
