<svg width="24" height="25" viewBox="0 0 24 25" fill="none" xmlns="http://www.w3.org/2000/svg">
<g clip-path="url(#clip0_507_1965)">
<path d="M21 18.9273C20.2243 18.9282 19.4794 19.2309 18.923 19.7713L15.963 18.2903C15.9829 18.1702 15.9953 18.049 16 17.9273C15.9953 17.8057 15.9829 17.6844 15.963 17.5643L18.923 16.0833C19.4214 16.5607 20.0695 16.8513 20.7575 16.9058C21.4455 16.9603 22.1313 16.7755 22.6986 16.3825C23.266 15.9896 23.6802 15.4126 23.8712 14.7494C24.0621 14.0862 24.018 13.3773 23.7464 12.7428C23.4748 12.1084 22.9923 11.5872 22.3806 11.2676C21.7689 10.948 21.0655 10.8495 20.3896 10.9888C19.7136 11.1281 19.1065 11.4967 18.6711 12.0322C18.2356 12.5677 17.9986 13.2372 18 13.9273C18.0047 14.049 18.0171 14.1702 18.037 14.2903L15.077 15.7713C14.6536 15.3617 14.119 15.0858 13.5398 14.978C12.9606 14.8702 12.3625 14.9353 11.8201 15.1653C11.2777 15.3952 10.815 15.7797 10.4897 16.2709C10.1644 16.7621 9.99094 17.3382 9.99094 17.9273C9.99094 18.5165 10.1644 19.0926 10.4897 19.5838C10.815 20.0749 11.2777 20.4595 11.8201 20.6894C12.3625 20.9193 12.9606 20.9845 13.5398 20.8767C14.119 20.7689 14.6536 20.493 15.077 20.0833L18.037 21.5643C18.0171 21.6844 18.0047 21.8057 18 21.9273C18 22.5207 18.176 23.1007 18.5056 23.594C18.8352 24.0874 19.3038 24.4719 19.852 24.699C20.4001 24.926 21.0033 24.9854 21.5853 24.8697C22.1672 24.7539 22.7018 24.4682 23.1213 24.0487C23.5409 23.6291 23.8266 23.0946 23.9424 22.5126C24.0581 21.9307 23.9987 21.3275 23.7716 20.7793C23.5446 20.2311 23.1601 19.7626 22.6667 19.4329C22.1734 19.1033 21.5933 18.9273 21 18.9273ZM21 12.9273C21.1978 12.9273 21.3911 12.986 21.5556 13.0959C21.72 13.2057 21.8482 13.3619 21.9239 13.5447C21.9996 13.7274 22.0194 13.9284 21.9808 14.1224C21.9422 14.3164 21.847 14.4946 21.7071 14.6344C21.5673 14.7743 21.3891 14.8695 21.1951 14.9081C21.0011 14.9467 20.8 14.9269 20.6173 14.8512C20.4346 14.7755 20.2784 14.6474 20.1685 14.4829C20.0587 14.3185 20 14.1251 20 13.9273C20 13.6621 20.1054 13.4078 20.2929 13.2202C20.4804 13.0327 20.7348 12.9273 21 12.9273ZM13 18.9273C12.8022 18.9273 12.6089 18.8687 12.4444 18.7588C12.28 18.6489 12.1518 18.4927 12.0761 18.31C12.0004 18.1273 11.9806 17.9262 12.0192 17.7322C12.0578 17.5383 12.153 17.3601 12.2929 17.2202C12.4328 17.0804 12.6109 16.9851 12.8049 16.9466C12.9989 16.908 13.2 16.9278 13.3827 17.0035C13.5654 17.0791 13.7216 17.2073 13.8315 17.3718C13.9414 17.5362 14 17.7296 14 17.9273C14 18.1926 13.8946 18.4469 13.7071 18.6344C13.5196 18.822 13.2652 18.9273 13 18.9273ZM21 22.9273C20.8022 22.9273 20.6089 22.8687 20.4444 22.7588C20.28 22.6489 20.1518 22.4927 20.0761 22.31C20.0004 22.1273 19.9806 21.9262 20.0192 21.7322C20.0578 21.5383 20.153 21.3601 20.2929 21.2202C20.4328 21.0804 20.6109 20.9851 20.8049 20.9466C20.9989 20.908 21.2 20.9278 21.3827 21.0035C21.5654 21.0791 21.7216 21.2073 21.8315 21.3718C21.9414 21.5362 22 21.7296 22 21.9273C22 22.1926 21.8946 22.4469 21.7071 22.6344C21.5196 22.822 21.2652 22.9273 21 22.9273ZM12 22.9273C12 23.1926 11.8946 23.4469 11.7071 23.6344C11.5196 23.822 11.2652 23.9273 11 23.9273H5.67901C4.34628 23.903 3.06196 23.4236 2.0393 22.5686C1.01665 21.7137 0.317167 20.5347 0.0570061 19.2273C-0.113285 18.102 0.0734522 16.9517 0.590954 15.938C1.10846 14.9243 1.93069 14.0984 2.94201 13.5763C2.07386 11.9977 1.79056 10.1633 2.14201 8.39634C2.48373 6.64862 3.39882 5.06488 4.74232 3.896C6.08583 2.72711 7.78093 2.03991 9.55912 1.94326C11.3373 1.8466 13.0969 2.34601 14.5592 3.36237C16.0215 4.37874 17.1029 5.85396 17.632 7.55434C17.6824 7.72689 17.7747 7.88429 17.9007 8.01253C18.0267 8.14077 18.1824 8.23586 18.354 8.28934C18.4824 8.32546 18.6022 8.3869 18.7065 8.47003C18.8108 8.55317 18.8974 8.65632 18.9612 8.77341C19.025 8.89051 19.0647 9.01918 19.0781 9.15187C19.0914 9.28455 19.0781 9.41857 19.0389 9.54603C18.9997 9.67349 18.9353 9.79181 18.8497 9.89405C18.7641 9.99628 18.6589 10.0804 18.5403 10.1413C18.4217 10.2023 18.2921 10.2389 18.1591 10.249C18.0261 10.2592 17.8925 10.2426 17.766 10.2003C17.2839 10.0505 16.8457 9.78509 16.4894 9.42729C16.1332 9.0695 15.8698 8.63012 15.722 8.14734C15.4814 7.34654 15.076 6.60489 14.5319 5.96995C13.9878 5.33502 13.317 4.82081 12.5625 4.46033C11.808 4.09985 10.9865 3.90105 10.1507 3.87668C9.31491 3.85231 8.48323 4.00291 7.70903 4.31882C6.93483 4.63473 6.23521 5.10897 5.65505 5.71113C5.07488 6.31329 4.62699 7.03006 4.34009 7.81547C4.05319 8.60088 3.93362 9.43759 3.98906 10.2719C4.0445 11.1063 4.27372 11.9198 4.66201 12.6603C4.90944 13.1223 4.96507 13.6631 4.81685 14.1658C4.66864 14.6684 4.3285 15.0925 3.87001 15.3463C3.22633 15.6794 2.70317 16.2058 2.37405 16.8515C2.04492 17.4972 1.92635 18.2298 2.03501 18.9463C2.22011 19.7799 2.68006 20.527 3.34096 21.0677C4.00185 21.6083 4.8253 21.9111 5.67901 21.9273H11C11.2652 21.9273 11.5196 22.0327 11.7071 22.2202C11.8946 22.4078 12 22.6621 12 22.9273Z" fill="#374957"/>
</g>
<defs>
<clipPath id="clip0_507_1965">
<rect width="24" height="24" fill="white" transform="translate(0 0.92749)"/>
</clipPath>
</defs>
</svg>
