<svg width="24" height="25" viewBox="0 0 24 25" fill="none" xmlns="http://www.w3.org/2000/svg">
<g clip-path="url(#clip0_507_1902)">
<path d="M12 0.92749C9.62663 0.92749 7.30655 1.63128 5.33316 2.94986C3.35977 4.26843 1.8217 6.14258 0.913451 8.33529C0.00519943 10.528 -0.232441 12.9408 0.230582 15.2686C0.693605 17.5963 1.83649 19.7345 3.51472 21.4128C5.19295 23.091 7.33115 24.2339 9.65892 24.6969C11.9867 25.1599 14.3995 24.9223 16.5922 24.014C18.7849 23.1058 20.6591 21.5677 21.9776 19.5943C23.2962 17.6209 24 15.3009 24 12.9275C23.9966 9.74595 22.7312 6.6957 20.4815 4.44601C18.2318 2.19632 15.1815 0.930931 12 0.92749V0.92749ZM19.879 19.0635C19.0254 18.3504 18.3302 17.4669 17.838 16.4695L19.371 15.8565C19.6174 15.7581 19.8146 15.5659 19.9192 15.3221C20.0239 15.0783 20.0274 14.8029 19.929 14.5565C19.8306 14.3101 19.6384 14.1129 19.3946 14.0083C19.1508 13.9036 18.8754 13.9001 18.629 13.9985L17.184 14.5765C16.9384 13.4902 16.9384 12.3628 17.184 11.2765L18.629 11.8545C18.751 11.9032 18.8814 11.9274 19.0128 11.9258C19.1441 11.9241 19.2739 11.8965 19.3946 11.8447C19.5153 11.7929 19.6246 11.7178 19.7163 11.6238C19.808 11.5297 19.8803 11.4185 19.929 11.2965C19.9777 11.1745 20.0019 11.0441 20.0003 10.9127C19.9986 10.7814 19.9711 10.6516 19.9192 10.5309C19.8674 10.4102 19.7923 10.3009 19.6983 10.2092C19.6042 10.1175 19.493 10.0452 19.371 9.99649L17.838 9.38349C18.3302 8.3861 19.0254 7.50255 19.879 6.78949C21.2531 8.53962 22 10.7004 22 12.9255C22 15.1506 21.2531 17.3114 19.879 19.0615V19.0635ZM4.12101 6.79149C4.97459 7.50455 5.66978 8.3881 6.16201 9.38549L4.62901 9.99849C4.38262 10.0969 4.18541 10.2891 4.08077 10.5329C3.97612 10.7767 3.97261 11.0521 4.07101 11.2985C4.1694 11.5449 4.36164 11.7421 4.60544 11.8467C4.84924 11.9514 5.12462 11.9549 5.37101 11.8565L6.81601 11.2785C6.93433 11.8203 6.99599 12.3729 7.00001 12.9275C6.99599 13.482 6.93433 14.0347 6.81601 14.5765L5.37101 13.9985C5.24901 13.9498 5.11861 13.9256 4.98725 13.9272C4.8559 13.9289 4.72616 13.9564 4.60544 14.0083C4.48472 14.0601 4.3754 14.1352 4.2837 14.2292C4.192 14.3233 4.11973 14.4345 4.07101 14.5565C4.02228 14.6785 3.99807 14.8089 3.99975 14.9402C4.00142 15.0716 4.02895 15.2013 4.08077 15.3221C4.13258 15.4428 4.20767 15.5521 4.30173 15.6438C4.3958 15.7355 4.50701 15.8078 4.62901 15.8565L6.16201 16.4695C5.66978 17.4669 4.97459 18.3504 4.12101 19.0635C2.74687 17.3134 1.99997 15.1526 1.99997 12.9275C1.99997 10.7024 2.74687 8.54162 4.12101 6.79149ZM5.50701 20.5175C6.56704 19.6042 7.42264 18.4777 8.01801 17.2115L9.62901 17.8565C9.751 17.9052 9.8814 17.9294 10.0128 17.9278C10.1441 17.9261 10.2739 17.8985 10.3946 17.8467C10.5153 17.7949 10.6246 17.7198 10.7163 17.6258C10.808 17.5317 10.8803 17.4205 10.929 17.2985C10.9777 17.1765 11.0019 17.0461 11.0003 16.9147C10.9986 16.7834 10.9711 16.6536 10.9192 16.5329C10.8674 16.4122 10.7923 16.3029 10.6983 16.2112C10.6042 16.1195 10.493 16.0472 10.371 15.9985L8.70501 15.3325C8.90016 14.5457 8.99921 13.7381 9.00001 12.9275C8.99881 12.1185 8.89976 11.3127 8.70501 10.5275L10.371 9.86149C10.6174 9.7631 10.8146 9.57085 10.9192 9.32706C11.0239 9.08326 11.0274 8.80788 10.929 8.56149C10.8306 8.3151 10.6384 8.1179 10.3946 8.01325C10.1508 7.90861 9.87539 7.9051 9.62901 8.00349L8.01801 8.64849C7.42324 7.38048 6.5676 6.25223 5.50701 5.33749C7.313 3.78271 9.61695 2.92759 12 2.92759C14.3831 2.92759 16.687 3.78271 18.493 5.33749C17.433 6.25078 16.5774 7.37727 15.982 8.64349L14.371 7.99849C14.249 7.94977 14.1186 7.92556 13.9873 7.92723C13.8559 7.92891 13.7262 7.95644 13.6054 8.00825C13.4847 8.06007 13.3754 8.13515 13.2837 8.22922C13.192 8.32329 13.1197 8.43449 13.071 8.55649C13.0223 8.67849 12.9981 8.80889 12.9997 8.94024C13.0014 9.0716 13.029 9.20134 13.0808 9.32206C13.1326 9.44277 13.2077 9.5521 13.3017 9.6438C13.3958 9.7355 13.507 9.80777 13.629 9.85649L15.3 10.5275C14.9067 12.1067 14.9067 13.7583 15.3 15.3375L13.634 16.0035C13.3876 16.1019 13.1904 16.2941 13.0858 16.5379C12.9811 16.7817 12.9776 17.0571 13.076 17.3035C13.1744 17.5499 13.3666 17.7471 13.6104 17.8517C13.8542 17.9564 14.1296 17.9599 14.376 17.8615L15.987 17.2165C16.5824 18.4827 17.438 19.6092 18.498 20.5225C16.692 22.0773 14.3881 22.9324 12.005 22.9324C9.62195 22.9324 7.318 22.0773 5.51201 20.5225L5.50701 20.5175Z" fill="#374957"/>
</g>
<defs>
<clipPath id="clip0_507_1902">
<rect width="24" height="24" fill="white" transform="translate(0 0.92749)"/>
</clipPath>
</defs>
</svg>
