<svg width="24" height="25" viewBox="0 0 24 25" fill="none" xmlns="http://www.w3.org/2000/svg">
<g clip-path="url(#clip0_507_1877)">
<path d="M23.7101 17.2175L15.5401 9.04749C15.0756 8.58186 14.5239 8.21243 13.9164 7.96036C13.3089 7.7083 12.6577 7.57855 12.0001 7.57855C11.3424 7.57855 10.6912 7.7083 10.0837 7.96036C9.47628 8.21243 8.92452 8.58186 8.46006 9.04749L0.290063 17.2175C0.10176 17.4058 -0.00402832 17.6612 -0.00402832 17.9275C-0.00402832 18.1938 0.10176 18.4492 0.290063 18.6375C0.478367 18.8258 0.733762 18.9316 1.00006 18.9316C1.26637 18.9316 1.52176 18.8258 1.71006 18.6375L9.88006 10.4675C10.4426 9.90569 11.2051 9.59013 12.0001 9.59013C12.7951 9.59013 13.5576 9.90569 14.1201 10.4675L22.2901 18.6375C22.383 18.7312 22.4936 18.8056 22.6155 18.8564C22.7373 18.9072 22.8681 18.9333 23.0001 18.9333C23.1321 18.9333 23.2628 18.9072 23.3846 18.8564C23.5065 18.8056 23.6171 18.7312 23.7101 18.6375C23.8038 18.5445 23.8782 18.4339 23.929 18.3121C23.9797 18.1902 24.0059 18.0595 24.0059 17.9275C24.0059 17.7955 23.9797 17.6648 23.929 17.5429C23.8782 17.4211 23.8038 17.3105 23.7101 17.2175Z" fill="#374957"/>
</g>
<defs>
<clipPath id="clip0_507_1877">
<rect width="24" height="24" fill="white" transform="translate(0 0.92749)"/>
</clipPath>
</defs>
</svg>
