<svg width="24" height="25" viewBox="0 0 24 25" fill="none" xmlns="http://www.w3.org/2000/svg">
<g clip-path="url(#clip0_507_1871)">
<path d="M17.1699 24.9275C17.0383 24.9282 16.9078 24.903 16.786 24.8532C16.6641 24.8035 16.5533 24.7301 16.4599 24.6375L8.28986 16.4675C7.82423 16.003 7.4548 15.4513 7.20274 14.8438C6.95067 14.2364 6.82092 13.5851 6.82092 12.9275C6.82092 12.2698 6.95067 11.6186 7.20274 11.0111C7.4548 10.4037 7.82423 9.85194 8.28986 9.38748L16.4599 1.21749C16.5531 1.12425 16.6638 1.05029 16.7856 0.999833C16.9074 0.949372 17.038 0.923401 17.1699 0.923401C17.3017 0.923401 17.4323 0.949372 17.5541 0.999833C17.6759 1.05029 17.7866 1.12425 17.8799 1.21749C17.9731 1.31073 18.0471 1.42142 18.0975 1.54324C18.148 1.66506 18.174 1.79563 18.174 1.92749C18.174 2.05935 18.148 2.18992 18.0975 2.31174C18.0471 2.43356 17.9731 2.54425 17.8799 2.63749L9.70986 10.8075C9.14806 11.37 8.8325 12.1325 8.8325 12.9275C8.8325 13.7225 9.14806 14.485 9.70986 15.0475L17.8799 23.2175C17.9736 23.3104 18.048 23.421 18.0988 23.5429C18.1495 23.6647 18.1757 23.7955 18.1757 23.9275C18.1757 24.0595 18.1495 24.1902 18.0988 24.312C18.048 24.4339 17.9736 24.5445 17.8799 24.6375C17.7864 24.7301 17.6756 24.8035 17.5538 24.8532C17.4319 24.903 17.3015 24.9282 17.1699 24.9275Z" fill="#374957"/>
</g>
<defs>
<clipPath id="clip0_507_1871">
<rect width="24" height="24" fill="white" transform="translate(0 0.92749)"/>
</clipPath>
</defs>
</svg>
