<svg width="24" height="25" viewBox="0 0 24 25" fill="none" xmlns="http://www.w3.org/2000/svg">
<g clip-path="url(#clip0_507_2242)">
<path d="M18.5811 3.06816L12.3161 0.979158C12.111 0.910837 11.8893 0.910837 11.6841 0.979158L5.41812 3.06816C4.42222 3.39921 3.55594 4.03566 2.94236 4.8871C2.32878 5.73854 1.99909 6.76167 2.00012 7.81116V12.9282C2.00012 20.4912 11.2001 24.6682 11.5941 24.8422C11.7219 24.8989 11.8603 24.9283 12.0001 24.9283C12.14 24.9283 12.2783 24.8989 12.4061 24.8422C12.8001 24.6682 22.0001 20.4912 22.0001 12.9282V7.81116C22.0011 6.76155 21.6713 5.73832 21.0575 4.88687C20.4437 4.03542 19.5772 3.39904 18.5811 3.06816ZM20.0001 12.9282C20.0001 18.3832 13.6811 21.9612 12.0001 22.8172C10.3171 21.9642 4.00012 18.3972 4.00012 12.9282V7.81116C4.00011 7.18156 4.19818 6.56791 4.56628 6.05713C4.93438 5.54635 5.45386 5.16432 6.05112 4.96516L12.0001 2.98216L17.9481 4.96516C18.5456 5.16415 19.0653 5.5461 19.4336 6.0569C19.8018 6.5677 20.0001 7.18144 20.0001 7.81116V12.9282Z" fill="#374957"/>
</g>
<defs>
<clipPath id="clip0_507_2242">
<rect width="24" height="24" fill="white" transform="translate(0 0.92749)"/>
</clipPath>
</defs>
</svg>
