<svg width="24" height="25" viewBox="0 0 24 25" fill="none" xmlns="http://www.w3.org/2000/svg">
<g clip-path="url(#clip0_507_2032)">
<path d="M23.2709 10.3463C22.3682 8.86803 21.2294 7.54756 19.8999 6.43731L22.6999 3.63731C22.8821 3.44871 22.9829 3.1961 22.9806 2.93391C22.9783 2.67171 22.8732 2.4209 22.6877 2.23549C22.5023 2.05008 22.2515 1.94491 21.9893 1.94263C21.7271 1.94036 21.4745 2.04115 21.2859 2.22331L18.2409 5.27231C16.3533 4.15113 14.1953 3.56677 11.9999 3.58231C5.80893 3.58231 2.28093 7.82031 0.728929 10.3463C0.249457 11.1218 -0.0045166 12.0155 -0.0045166 12.9273C-0.0045166 13.8391 0.249457 14.7328 0.728929 15.5083C1.63169 16.9866 2.77042 18.3071 4.09993 19.4173L1.29993 22.2173C1.20442 22.3096 1.12824 22.4199 1.07583 22.5419C1.02342 22.6639 0.995833 22.7951 0.994679 22.9279C0.993525 23.0607 1.01883 23.1924 1.06911 23.3153C1.11939 23.4382 1.19364 23.5498 1.28753 23.6437C1.38143 23.7376 1.49308 23.8118 1.61598 23.8621C1.73887 23.9124 1.87055 23.9377 2.00333 23.9366C2.13611 23.9354 2.26733 23.9078 2.38933 23.8554C2.51134 23.803 2.62168 23.7268 2.71393 23.6313L5.76593 20.5793C7.6512 21.7003 9.8066 22.2857 11.9999 22.2723C18.1909 22.2723 21.7189 18.0343 23.2709 15.5083C23.7504 14.7328 24.0044 13.8391 24.0044 12.9273C24.0044 12.0155 23.7504 11.1218 23.2709 10.3463ZM2.43293 14.4613C2.14806 14.0004 1.99718 13.4692 1.99718 12.9273C1.99718 12.3854 2.14806 11.8543 2.43293 11.3933C3.76693 9.22731 6.78193 5.58231 11.9999 5.58231C13.6602 5.57301 15.2972 5.97315 16.7659 6.74731L14.7529 8.76031C13.7929 8.12291 12.6418 7.8373 11.4952 7.95195C10.3485 8.0666 9.2768 8.57445 8.46193 9.38931C7.64707 10.2042 7.13922 11.2759 7.02457 12.4225C6.90992 13.5692 7.19553 14.7202 7.83293 15.6803L5.52293 17.9903C4.29803 17 3.25277 15.8063 2.43293 14.4613ZM14.9999 12.9273C14.9999 13.723 14.6839 14.486 14.1213 15.0486C13.5586 15.6112 12.7956 15.9273 11.9999 15.9273C11.5544 15.9256 11.1151 15.823 10.7149 15.6273L14.6999 11.6423C14.8956 12.0425 14.9982 12.4818 14.9999 12.9273ZM8.99993 12.9273C8.99993 12.1317 9.316 11.3686 9.87861 10.806C10.4412 10.2434 11.2043 9.92731 11.9999 9.92731C12.4454 9.92903 12.8847 10.0316 13.2849 10.2273L9.29993 14.2123C9.10422 13.8121 9.00165 13.3728 8.99993 12.9273ZM21.5669 14.4613C20.2329 16.6273 17.2179 20.2723 11.9999 20.2723C10.3397 20.2816 8.70269 19.8815 7.23393 19.1073L9.24693 17.0943C10.207 17.7317 11.358 18.0173 12.5047 17.9027C13.6514 17.788 14.7231 17.2802 15.5379 16.4653C16.3528 15.6504 16.8606 14.5787 16.9753 13.4321C17.0899 12.2854 16.8043 11.1344 16.1669 10.1743L18.4769 7.86431C19.7018 8.85459 20.7471 10.0484 21.5669 11.3933C21.8518 11.8543 22.0027 12.3854 22.0027 12.9273C22.0027 13.4692 21.8518 14.0004 21.5669 14.4613Z" fill="#374957"/>
</g>
<defs>
<clipPath id="clip0_507_2032">
<rect width="24" height="24" fill="white" transform="translate(0 0.92749)"/>
</clipPath>
</defs>
</svg>
