<svg width="24" height="25" viewBox="0 0 24 25" fill="none" xmlns="http://www.w3.org/2000/svg">
<path d="M12.0001 5.92764C10.6156 5.92764 9.26222 6.33819 8.11107 7.10736C6.95993 7.87653 6.06272 8.96978 5.53291 10.2489C5.00309 11.5279 4.86447 12.9354 5.13457 14.2933C5.40466 15.6511 6.07135 16.8984 7.05032 17.8774C8.02928 18.8564 9.27657 19.523 10.6344 19.7931C11.9923 20.0632 13.3998 19.9246 14.6788 19.3948C15.9579 18.865 17.0512 17.9678 17.8204 16.8166C18.5895 15.6655 19.0001 14.3121 19.0001 12.9276C19.0001 11.0711 18.2626 9.29065 16.9498 7.9779C15.6371 6.66514 13.8566 5.92764 12.0001 5.92764ZM12.0001 17.9276C11.0112 17.9276 10.0445 17.6344 9.22221 17.085C8.39997 16.5356 7.75911 15.7547 7.38067 14.8411C7.00223 13.9274 6.90321 12.9221 7.09614 11.9522C7.28906 10.9823 7.76527 10.0914 8.46453 9.39211C9.16379 8.69285 10.0547 8.21664 11.0246 8.02372C11.9945 7.83079 12.9999 7.92981 13.9135 8.30825C14.8271 8.68668 15.608 9.32755 16.1574 10.1498C16.7068 10.972 17.0001 11.9387 17.0001 12.9276C17.0001 14.2537 16.4733 15.5255 15.5356 16.4632C14.5979 17.4009 13.3261 17.9276 12.0001 17.9276Z" fill="#374957"/>
</svg>
