<svg width="24" height="25" viewBox="0 0 24 25" fill="none" xmlns="http://www.w3.org/2000/svg">
<g clip-path="url(#clip0_507_1970)">
<path d="M23.0001 5.92749C23.0001 5.13184 22.6841 4.36878 22.1215 3.80617C21.5588 3.24356 20.7958 2.92749 20.0001 2.92749H19.8291C19.6216 2.34298 19.2382 1.837 18.7317 1.47893C18.2253 1.12087 17.6204 0.928247 17.0001 0.92749L7.00013 0.92749C6.37986 0.928247 5.77501 1.12087 5.26852 1.47893C4.76203 1.837 4.37872 2.34298 4.17113 2.92749H4.00013C3.394 2.93148 2.80329 3.11899 2.30583 3.46532C1.80836 3.81164 1.42748 4.30054 1.21334 4.8676C0.999204 5.43466 0.961864 6.05329 1.10624 6.64199C1.25062 7.23069 1.56994 7.76184 2.02213 8.16549L3.57013 20.5475C3.72268 21.7561 4.31063 22.8677 5.22386 23.6739C6.13708 24.4802 7.31292 24.9259 8.53113 24.9275H15.4691C16.6873 24.9257 17.863 24.4799 18.7762 23.6737C19.6894 22.8675 20.2774 21.756 20.4301 20.5475L21.9781 8.16549C22.2979 7.88667 22.5545 7.54279 22.7308 7.15684C22.907 6.7709 22.9989 6.35177 23.0001 5.92749ZM19.1171 14.9275H15.9171C15.0251 9.64049 8.97013 9.64349 8.07913 14.9275H4.87913L4.12913 8.92749H19.8671L19.1171 14.9275ZM14.0001 15.9275C13.8951 19.8815 10.1051 19.8805 10.0001 15.9275C10.1051 11.9735 13.9001 11.9745 14.0001 15.9275ZM4.00013 4.92749H5.00013C5.26535 4.92749 5.5197 4.82213 5.70724 4.6346C5.89478 4.44706 6.00013 4.19271 6.00013 3.92749C6.00013 3.66227 6.10549 3.40792 6.29303 3.22038C6.48056 3.03285 6.73492 2.92749 7.00013 2.92749H17.0001C17.2654 2.92749 17.5197 3.03285 17.7072 3.22038C17.8948 3.40792 18.0001 3.66227 18.0001 3.92749C18.0001 4.19271 18.1055 4.44706 18.293 4.6346C18.4806 4.82213 18.7349 4.92749 19.0001 4.92749H20.0001C20.2654 4.92749 20.5197 5.03285 20.7072 5.22038C20.8948 5.40792 21.0001 5.66227 21.0001 5.92749C21.0001 6.19271 20.8948 6.44706 20.7072 6.6346C20.5197 6.82213 20.2654 6.92749 20.0001 6.92749H4.00013C3.73492 6.92749 3.48056 6.82213 3.29303 6.6346C3.10549 6.44706 3.00013 6.19271 3.00013 5.92749C3.00013 5.66227 3.10549 5.40792 3.29303 5.22038C3.48056 5.03285 3.73492 4.92749 4.00013 4.92749ZM18.4451 20.2995C18.3545 21.0249 18.002 21.6923 17.4541 22.1762C16.9061 22.6601 16.2002 22.9273 15.4691 22.9275H8.53113C7.79988 22.9275 7.0938 22.6605 6.54559 22.1765C5.99738 21.6926 5.64481 21.0251 5.55413 20.2995L5.13313 16.9275H8.08113C8.97313 22.2145 15.0291 22.2115 15.9191 16.9275H18.8671L18.4451 20.2995Z" fill="#374957"/>
</g>
<defs>
<clipPath id="clip0_507_1970">
<rect width="24" height="24" fill="white" transform="translate(0 0.92749)"/>
</clipPath>
</defs>
</svg>
