<svg width="24" height="25" viewBox="0 0 24 25" fill="none" xmlns="http://www.w3.org/2000/svg">
<g clip-path="url(#clip0_507_2318)">
<path d="M15 5.92749C15 6.19271 14.8947 6.44706 14.7071 6.6346C14.5196 6.82213 14.2652 6.92749 14 6.92749H10C9.73481 6.92749 9.48045 6.82213 9.29291 6.6346C9.10538 6.44706 9.00002 6.19271 9.00002 5.92749C9.00002 5.66227 9.10538 5.40792 9.29291 5.22038C9.48045 5.03285 9.73481 4.92749 10 4.92749H14C14.2652 4.92749 14.5196 5.03285 14.7071 5.22038C14.8947 5.40792 15 5.66227 15 5.92749ZM21 6.64749V17.1045C20.9997 18.361 20.5263 19.5712 19.674 20.4945L20.924 23.5485C20.9737 23.6701 20.999 23.8003 20.9984 23.9317C20.9978 24.063 20.9713 24.193 20.9204 24.3141C20.8696 24.4353 20.7954 24.5452 20.7021 24.6377C20.6087 24.7301 20.4981 24.8033 20.3765 24.853C20.2549 24.9027 20.1247 24.928 19.9933 24.9273C19.862 24.9267 19.732 24.9003 19.6109 24.8494C19.4897 24.7986 19.3798 24.7244 19.2874 24.631C19.1949 24.5377 19.1217 24.4271 19.072 24.3055L18 21.6725C16.1219 22.5429 14.0696 22.9722 12 22.9275C9.93052 22.9718 7.87827 22.5425 6.00002 21.6725L4.92702 24.3055C4.87856 24.4288 4.80608 24.5412 4.7138 24.6363C4.62152 24.7313 4.51127 24.8071 4.38947 24.8591C4.26766 24.9112 4.13672 24.9386 4.00425 24.9396C3.87178 24.9407 3.74042 24.9154 3.6178 24.8653C3.49519 24.8151 3.38376 24.7411 3.28998 24.6475C3.19621 24.5539 3.12196 24.4427 3.07156 24.3202C3.02115 24.1977 2.99559 24.0664 2.99635 23.9339C2.99712 23.8014 3.0242 23.6704 3.07602 23.5485L4.32502 20.4945C3.47314 19.5711 3.00011 18.3608 3.00002 17.1045V6.64749C2.99675 5.58693 3.332 4.553 3.95701 3.69616C4.58201 2.83932 5.46414 2.20429 6.47502 1.88349C8.25691 1.28393 10.1203 0.961509 12 0.92749C13.8799 0.96123 15.7433 1.28401 17.525 1.88449C18.536 2.20483 19.4183 2.8396 20.0433 3.69633C20.6684 4.55306 21.0036 5.58699 21 6.64749ZM19 12.6645C17.447 14.9925 15.05 16.9275 12 16.9275C8.95002 16.9275 6.55302 14.9925 5.00002 12.6645V17.1045C4.99528 17.6347 5.13312 18.1564 5.39911 18.615C5.66511 19.0736 6.04949 19.4523 6.51202 19.7115C8.21018 20.5713 10.0976 20.9895 12 20.9275C13.9022 20.9898 15.7893 20.5716 17.487 19.7115C17.9498 19.4525 18.3344 19.0739 18.6006 18.6152C18.8668 18.1566 19.0048 17.6348 19 17.1045V12.6645ZM19 6.92749V6.64749C19.0022 6.01143 18.8014 5.39126 18.4268 4.87723C18.0521 4.3632 17.5232 3.98214 16.917 3.78949C15.3318 3.25238 13.6735 2.96167 12 2.92749C10.3267 2.96191 8.66849 3.25227 7.08302 3.78849C6.47683 3.98146 5.94799 4.36275 5.57338 4.87692C5.19877 5.39108 4.99792 6.01133 5.00002 6.64749V6.92749C5.00002 9.37049 7.64502 14.9275 12 14.9275C16.355 14.9275 19 9.37049 19 6.92749ZM12 17.9275C11.8022 17.9275 11.6089 17.9861 11.4445 18.096C11.28 18.2059 11.1518 18.3621 11.0761 18.5448C11.0005 18.7275 10.9807 18.9286 11.0192 19.1226C11.0578 19.3166 11.1531 19.4947 11.2929 19.6346C11.4328 19.7745 11.6109 19.8697 11.8049 19.9083C11.9989 19.9469 12.2 19.9271 12.3827 19.8514C12.5654 19.7757 12.7216 19.6475 12.8315 19.4831C12.9414 19.3186 13 19.1253 13 18.9275C13 18.6623 12.8947 18.4079 12.7071 18.2204C12.5196 18.0328 12.2652 17.9275 12 17.9275Z" fill="#374957"/>
</g>
<defs>
<clipPath id="clip0_507_2318">
<rect width="24" height="24" fill="white" transform="translate(0 0.92749)"/>
</clipPath>
</defs>
</svg>
