<svg width="24" height="25" viewBox="0 0 24 25" fill="none" xmlns="http://www.w3.org/2000/svg">
<g clip-path="url(#clip0_507_1969)">
<path d="M23.5171 3.01449C23.172 2.38308 22.6634 1.85615 22.0446 1.48895C21.4258 1.12175 20.7196 0.927819 20.0001 0.92749L4.00005 0.92749C3.28051 0.927819 2.57431 1.12175 1.95551 1.48895C1.33671 1.85615 0.828111 2.38308 0.483052 3.01449C0.135144 3.6361 -0.036434 4.3409 -0.0131719 5.05286C0.0100903 5.76482 0.22731 6.45692 0.615052 7.05449C1.78713 8.75424 3.33201 10.1638 5.1318 11.1756C6.9316 12.1873 8.93874 12.7746 11.0001 12.8925V22.9275H7.00005C6.73484 22.9275 6.48048 23.0328 6.29295 23.2204C6.10541 23.4079 6.00005 23.6623 6.00005 23.9275C6.00005 24.1927 6.10541 24.4471 6.29295 24.6346C6.48048 24.8221 6.73484 24.9275 7.00005 24.9275H17.0001C17.2653 24.9275 17.5196 24.8221 17.7072 24.6346C17.8947 24.4471 18.0001 24.1927 18.0001 23.9275C18.0001 23.6623 17.8947 23.4079 17.7072 23.2204C17.5196 23.0328 17.2653 22.9275 17.0001 22.9275H13.0001V12.8925C15.0614 12.7746 17.0685 12.1873 18.8683 11.1756C20.6681 10.1638 22.213 8.75424 23.3851 7.05449C23.7728 6.45692 23.99 5.76482 24.0133 5.05286C24.0365 4.3409 23.865 3.6361 23.5171 3.01449ZM4.00005 2.92749H20.0001C20.5305 2.92749 21.0392 3.1382 21.4143 3.51328C21.7893 3.88835 22.0001 4.39706 22.0001 4.92749H2.00005C2.00005 4.39706 2.21077 3.88835 2.58584 3.51328C2.96091 3.1382 3.46962 2.92749 4.00005 2.92749ZM12.0001 10.9275C10.3042 10.9334 8.62636 10.58 7.07699 9.89057C5.52762 9.20112 4.14189 8.19126 3.01105 6.92749H20.9891C19.8585 8.19156 18.4728 9.20162 16.9233 9.8911C15.3739 10.5806 13.6959 10.9338 12.0001 10.9275Z" fill="#374957"/>
</g>
<defs>
<clipPath id="clip0_507_1969">
<rect width="24" height="24" fill="white" transform="translate(0 0.92749)"/>
</clipPath>
</defs>
</svg>
