<svg width="24" height="25" viewBox="0 0 24 25" fill="none" xmlns="http://www.w3.org/2000/svg">
<g clip-path="url(#clip0_507_1906)">
<path d="M20.8588 16.2585L17.0868 22.4135C16.6726 23.0935 16.1087 23.6701 15.4381 24.0993C14.7675 24.5285 14.0078 24.7991 13.2168 24.8905C13.0084 24.9152 12.7987 24.9276 12.5888 24.9275C11.5143 24.926 10.4665 24.5925 9.58881 23.9725C8.68187 24.652 7.56155 24.9841 6.43082 24.9087C5.3001 24.8333 4.23378 24.3554 3.42506 23.5616C2.61634 22.7677 2.11873 21.7105 2.02237 20.5813C1.92602 19.4522 2.2373 18.3259 2.89982 17.4065L1.58482 16.0935C1.02331 15.532 0.596131 14.8507 0.335267 14.1006C0.0744026 13.3506 -0.0133848 12.5512 0.0784792 11.7625C0.170343 10.9737 0.439478 10.2159 0.865727 9.5459C1.29198 8.87588 1.86429 8.31098 2.53982 7.89351L8.30682 4.32751C9.86903 3.32629 11.7062 2.84086 13.5591 2.93972C15.4119 3.03859 17.187 3.71674 18.6338 4.87851L20.2928 3.21951C20.3851 3.124 20.4954 3.04782 20.6174 2.99541C20.7394 2.943 20.8706 2.91541 21.0034 2.91426C21.1362 2.91311 21.2679 2.93841 21.3908 2.98869C21.5137 3.03897 21.6253 3.11322 21.7192 3.20712C21.8131 3.30101 21.8874 3.41266 21.9376 3.53556C21.9879 3.65845 22.0132 3.79013 22.0121 3.92291C22.0109 4.05569 21.9833 4.18691 21.9309 4.30892C21.8785 4.43092 21.8023 4.54126 21.7068 4.63351L20.0498 6.29151C21.1612 7.68375 21.8318 9.37593 21.9759 11.1515C22.12 12.9271 21.7311 14.7053 20.8588 16.2585ZM8.06481 22.5745L4.34582 18.8545C4.05519 19.3743 3.9431 19.975 4.02673 20.5646C4.11037 21.1542 4.38511 21.7001 4.80882 22.1185C5.23624 22.5245 5.77989 22.7867 6.36371 22.8685C6.94753 22.9503 7.5423 22.8475 8.06481 22.5745ZM17.9858 6.97451C16.8754 5.85335 15.4136 5.14753 13.845 4.97515C12.2764 4.80277 10.6963 5.17427 9.36882 6.02751L3.59182 9.59351C3.17286 9.85248 2.81791 10.2029 2.55357 10.6185C2.28923 11.0341 2.12234 11.5041 2.06539 11.9933C2.00844 12.4825 2.06292 12.9783 2.22474 13.4435C2.38657 13.9087 2.65154 14.3312 2.99982 14.6795L10.2898 21.9705C10.6387 22.3197 11.0621 22.5853 11.5284 22.7473C11.9947 22.9093 12.4916 22.9634 12.9818 22.9057C13.472 22.8479 13.9428 22.6798 14.3587 22.4139C14.7745 22.148 15.1247 21.7912 15.3828 21.3705L19.1378 15.2455C19.8712 13.9282 20.1555 12.4079 19.9477 10.9146C19.7398 9.42132 19.0511 8.03641 17.9858 6.96951V6.97451ZM19.2648 24.9275C19.0536 24.9279 18.8477 24.8614 18.6767 24.7376C18.5056 24.6138 18.3781 24.4389 18.3125 24.2382C18.2469 24.0375 18.2465 23.8211 18.3114 23.6202C18.3763 23.4192 18.5032 23.2439 18.6738 23.1195C20.4248 21.8031 21.6099 19.8702 21.9888 17.7125C22.0154 17.5826 22.0675 17.4593 22.1422 17.3498C22.2169 17.2402 22.3126 17.1466 22.4237 17.0744C22.5349 17.0021 22.6593 16.9527 22.7898 16.929C22.9202 16.9053 23.0541 16.9078 23.1835 16.9363C23.313 16.9648 23.4355 17.0188 23.544 17.0951C23.6524 17.1714 23.7446 17.2685 23.8151 17.3807C23.8857 17.493 23.9332 17.6181 23.955 17.7489C23.9767 17.8797 23.9723 18.0135 23.9418 18.1425C23.4518 20.7742 21.9932 23.1266 19.8538 24.7355C19.6828 24.8602 19.4765 24.9275 19.2648 24.9275ZM0.999815 6.66651C0.815118 6.66569 0.634257 6.61373 0.477286 6.51639C0.320315 6.41906 0.193368 6.28016 0.11052 6.11508C0.0276712 5.95 -0.00784092 5.76521 0.00792078 5.58118C0.0236825 5.39716 0.0901021 5.22109 0.199815 5.07251C1.8308 2.8931 4.23163 1.41783 6.91282 0.947511C7.17273 0.894468 7.44307 0.946847 7.66436 1.09313C7.88565 1.2394 8.03977 1.4676 8.09282 1.72751C8.14586 1.98742 8.09348 2.25776 7.9472 2.47905C7.80092 2.70035 7.57273 2.85447 7.31282 2.90751C5.11079 3.27113 3.13505 4.47314 1.79982 6.26151C1.70719 6.38663 1.58664 6.48839 1.44775 6.5587C1.30887 6.62901 1.15548 6.66593 0.999815 6.66651Z" fill="#374957"/>
</g>
<defs>
<clipPath id="clip0_507_1906">
<rect width="24" height="24" fill="white" transform="translate(0 0.92749)"/>
</clipPath>
</defs>
</svg>
