<svg width="24" height="25" viewBox="0 0 24 25" fill="none" xmlns="http://www.w3.org/2000/svg">
<g clip-path="url(#clip0_507_2055)">
<path d="M23.5352 15.6529C23.3281 15.4014 23.0624 15.2046 22.7614 15.0798C22.4605 14.9549 22.1335 14.9059 21.8092 14.9369C20.0668 15.0747 18.3756 15.5916 16.854 16.4515C15.3324 17.3114 14.0171 18.4934 13.0002 19.9149V14.8379C14.3967 14.6007 15.6644 13.8774 16.5794 12.796C17.4943 11.7145 17.9975 10.3445 18.0002 8.92794C18.0002 6.13494 16.0572 3.77594 14.1562 1.83694C13.5798 1.27379 12.806 0.958496 12.0002 0.958496C11.1944 0.958496 10.4205 1.27379 9.84417 1.83694C7.94317 3.77594 6.00017 6.13494 6.00017 8.92794C6.0028 10.3445 6.50604 11.7145 7.42097 12.796C8.3359 13.8774 9.60363 14.6007 11.0002 14.8379V19.9149C9.98328 18.4934 8.66798 17.3114 7.14635 16.4515C5.62471 15.5916 3.93352 15.0747 2.19117 14.9369C1.86686 14.906 1.53992 14.9552 1.239 15.08C0.938089 15.2048 0.672383 15.4016 0.465169 15.6529C0.259282 15.8974 0.115928 16.1882 0.0474636 16.5004C-0.0210008 16.8126 -0.0125222 17.1368 0.0721686 17.4449C2.11117 24.7829 11.5912 24.9279 11.9942 24.9279H12.0062C12.4062 24.9279 21.8902 24.7829 23.9292 17.4449C24.0134 17.1367 24.0215 16.8125 23.9529 16.5004C23.8843 16.1883 23.7409 15.8975 23.5352 15.6529ZM8.00017 8.92794C8.00017 6.27394 11.3182 3.20894 11.3382 3.19194C10.9732 4.12794 8.69317 9.82794 11.0002 9.92794C11.2654 9.92794 11.5197 9.82258 11.7073 9.63505C11.8948 9.44751 12.0002 9.19316 12.0002 8.92794C12.0757 7.14938 12.5029 5.40341 13.2572 3.79094C14.6882 5.32094 16.0002 7.08194 16.0002 8.92794C16.0002 9.98881 15.5787 11.0062 14.8286 11.7564C14.0785 12.5065 13.061 12.9279 12.0002 12.9279C10.9393 12.9279 9.92189 12.5065 9.17174 11.7564C8.4216 11.0062 8.00017 9.98881 8.00017 8.92794ZM2.00617 16.9279C3.8079 17.0739 5.53918 17.6929 7.02502 18.7223C8.51086 19.7518 9.69859 21.1553 10.4682 22.7909C7.97117 22.4449 3.20017 21.2279 2.00617 16.9279ZM13.5452 22.7889C14.321 21.1579 15.5091 19.7575 16.9919 18.7263C18.4748 17.6951 20.2011 17.0686 22.0002 16.9089C20.8062 21.2109 16.0462 22.4389 13.5452 22.7889Z" fill="#374957"/>
</g>
<defs>
<clipPath id="clip0_507_2055">
<rect width="24" height="24" fill="white" transform="translate(0 0.92749)"/>
</clipPath>
</defs>
</svg>
