<svg width="24" height="25" viewBox="0 0 24 25" fill="none" xmlns="http://www.w3.org/2000/svg">
<g clip-path="url(#clip0_507_2077)">
<path d="M19 4.9278H7C5.67441 4.92938 4.40356 5.45668 3.46622 6.39402C2.52888 7.33135 2.00159 8.6022 2 9.9278V11.9278H1C0.734784 11.9278 0.48043 12.0332 0.292893 12.2207C0.105357 12.4082 0 12.6626 0 12.9278C0 13.193 0.105357 13.4474 0.292893 13.6349C0.48043 13.8224 0.734784 13.9278 1 13.9278H2V15.9278C2.00159 17.2534 2.52888 18.5242 3.46622 19.4616C4.40356 20.3989 5.67441 20.9262 7 20.9278H19C20.3256 20.9262 21.5964 20.3989 22.5338 19.4616C23.4711 18.5242 23.9984 17.2534 24 15.9278V9.9278C23.9984 8.6022 23.4711 7.33135 22.5338 6.39402C21.5964 5.45668 20.3256 4.92938 19 4.9278ZM4 15.9278V13.9278C4.26522 13.9278 4.51957 13.8224 4.70711 13.6349C4.89464 13.4474 5 13.193 5 12.9278C5 12.6626 4.89464 12.4082 4.70711 12.2207C4.51957 12.0332 4.26522 11.9278 4 11.9278V9.9278C4 9.13215 4.31607 8.36908 4.87868 7.80648C5.44129 7.24387 6.20435 6.9278 7 6.9278V18.9278C6.20435 18.9278 5.44129 18.6117 4.87868 18.0491C4.31607 17.4865 4 16.7234 4 15.9278ZM22 15.9278C22 16.7234 21.6839 17.4865 21.1213 18.0491C20.5587 18.6117 19.7956 18.9278 19 18.9278H9V6.9278H19C19.7956 6.9278 20.5587 7.24387 21.1213 7.80648C21.6839 8.36908 22 9.13215 22 9.9278V15.9278Z" fill="#374957"/>
</g>
<defs>
<clipPath id="clip0_507_2077">
<rect width="24" height="24" fill="white" transform="translate(0 0.92749)"/>
</clipPath>
</defs>
</svg>
