<svg width="24" height="25" viewBox="0 0 24 25" fill="none" xmlns="http://www.w3.org/2000/svg">
<g clip-path="url(#clip0_507_2315)">
<path d="M15.9088 24.9268C15.1375 24.926 14.398 24.6193 13.8527 24.0739C13.3073 23.5285 13.0006 22.7891 12.9998 22.0178V15.9268C12.9998 15.6616 12.8944 15.4073 12.7069 15.2197C12.5193 15.0322 12.265 14.9268 11.9998 14.9268C11.7345 14.9268 11.4802 15.0322 11.2927 15.2197C11.1051 15.4073 10.9998 15.6616 10.9998 15.9268V22.0178C10.9998 22.6564 10.7898 23.2772 10.4022 23.7846C10.0145 24.292 9.47073 24.6578 8.85464 24.8257C8.23855 24.9935 7.58436 24.9541 6.99291 24.7134C6.40146 24.4727 5.9056 24.0442 5.58176 23.4938C3.18576 19.3898 -0.000241719 13.2058 -0.000241719 6.92682C-0.0304194 6.13079 0.104132 5.3371 0.394981 4.5955C0.685831 3.85389 1.12671 3.18034 1.68999 2.61706C2.25328 2.05377 2.92682 1.61289 3.66843 1.32204C4.41004 1.03119 5.20373 0.896644 5.99976 0.926821C7.32877 0.927332 8.6496 1.13482 9.91476 1.54182C10.5863 1.77472 11.2893 1.90453 11.9998 1.92682C12.7102 1.90453 13.4132 1.77472 14.0848 1.54182C15.3499 1.13469 16.6707 0.927202 17.9998 0.926821C18.7958 0.896644 19.5895 1.03119 20.3311 1.32204C21.0727 1.61289 21.7462 2.05377 22.3095 2.61706C22.8728 3.18034 23.3137 3.85389 23.6045 4.5955C23.8954 5.3371 24.0299 6.13079 23.9998 6.92682C23.9998 13.2048 20.8138 19.3888 18.4178 23.4938C18.1605 23.9304 17.7936 24.2923 17.3536 24.5436C16.9136 24.7949 16.4155 24.927 15.9088 24.9268ZM11.9998 12.9268C12.7954 12.9268 13.5585 13.2429 14.1211 13.8055C14.6837 14.3681 14.9998 15.1312 14.9998 15.9268V22.0178C15.0001 22.2167 15.0656 22.41 15.1861 22.5682C15.3066 22.7265 15.4756 22.8409 15.6673 22.894C15.8589 22.9472 16.0627 22.9362 16.2475 22.8626C16.4323 22.7891 16.588 22.6571 16.6908 22.4868C18.9698 18.5808 21.9998 12.7198 21.9998 6.92682C22.0209 6.39588 21.9319 5.86631 21.7383 5.37145C21.5448 4.87659 21.2509 4.42715 20.8752 4.05142C20.4994 3.67569 20.05 3.3818 19.5551 3.18826C19.0603 2.99471 18.5307 2.9057 17.9998 2.92682C16.8591 2.92623 15.7256 3.10716 14.6418 3.46282C13.7894 3.7492 12.8987 3.90562 11.9998 3.92682C11.1008 3.90571 10.2101 3.74929 9.35776 3.46282C8.27392 3.10726 7.14043 2.92633 5.99976 2.92682C2.04476 2.92682 1.99976 6.76382 1.99976 6.92682C1.99976 12.7208 5.02976 18.5818 7.30976 22.4868C7.41225 22.6574 7.56782 22.7896 7.75265 22.8634C7.93747 22.9371 8.14137 22.9482 8.3331 22.895C8.52484 22.8418 8.69385 22.7272 8.81425 22.5687C8.93466 22.4103 8.99982 22.2168 8.99976 22.0178V15.9268C8.99976 15.1312 9.31583 14.3681 9.87844 13.8055C10.441 13.2429 11.2041 12.9268 11.9998 12.9268Z" fill="#374957"/>
</g>
<defs>
<clipPath id="clip0_507_2315">
<rect width="24" height="24" fill="white" transform="translate(0 0.92749)"/>
</clipPath>
</defs>
</svg>
