<svg width="24" height="25" viewBox="0 0 24 25" fill="none" xmlns="http://www.w3.org/2000/svg">
<g clip-path="url(#clip0_507_2262)">
<path d="M12 24.9275C9.62663 24.9275 7.30655 24.2237 5.33316 22.9051C3.35977 21.5866 1.8217 19.7124 0.913451 17.5197C0.00519943 15.327 -0.232441 12.9142 0.230582 10.5864C0.693605 8.25864 1.83649 6.12044 3.51472 4.44221C5.19295 2.76398 7.33115 1.62109 9.65892 1.15807C11.9867 0.69505 14.3995 0.93269 16.5922 1.84094C18.7849 2.74919 20.6591 4.28726 21.9776 6.26065C23.2962 8.23404 24 10.5541 24 12.9275C23.9966 16.109 22.7312 19.1593 20.4815 21.409C18.2318 23.6587 15.1815 24.9241 12 24.9275ZM12 2.9275C10.0222 2.9275 8.08879 3.51399 6.4443 4.6128C4.79981 5.71161 3.51809 7.2734 2.76121 9.10066C2.00433 10.9279 1.8063 12.9386 2.19215 14.8784C2.578 16.8182 3.53041 18.6 4.92894 19.9986C6.32746 21.3971 8.10929 22.3495 10.0491 22.7353C11.9889 23.1212 13.9996 22.9232 15.8268 22.1663C17.6541 21.4094 19.2159 20.1277 20.3147 18.4832C21.4135 16.8387 22 14.9053 22 12.9275C21.9971 10.2762 20.9426 7.73438 19.0679 5.85964C17.1931 3.98491 14.6513 2.93041 12 2.9275ZM17.666 16.6735C17.8641 16.4971 17.9841 16.2493 17.9994 15.9845C18.0148 15.7197 17.9244 15.4596 17.748 15.2615C17.5716 15.0634 17.3238 14.9434 17.059 14.9281C16.7942 14.9127 16.5341 15.0031 16.336 15.1795C15.1135 16.2088 13.5945 16.8211 12 16.9275C10.4064 16.8212 8.88823 16.2096 7.66601 15.1815C7.46815 15.0049 7.20824 14.9141 6.94344 14.9291C6.67864 14.9441 6.43064 15.0636 6.25401 15.2615C6.07737 15.4593 5.98657 15.7193 6.00157 15.9841C6.01657 16.2489 6.13615 16.4969 6.33401 16.6735C7.92187 18.03 9.91422 18.8226 12 18.9275C14.0858 18.8226 16.0781 18.03 17.666 16.6735ZM6.00001 10.9275C6.00001 11.9275 6.89501 11.9275 8.00001 11.9275C9.10501 11.9275 10 11.9275 10 10.9275C10 10.3971 9.78929 9.88836 9.41422 9.51328C9.03915 9.13821 8.53044 8.9275 8.00001 8.9275C7.46957 8.9275 6.96086 9.13821 6.58579 9.51328C6.21072 9.88836 6.00001 10.3971 6.00001 10.9275ZM14 10.9275C14 11.9275 14.895 11.9275 16 11.9275C17.105 11.9275 18 11.9275 18 10.9275C18 10.3971 17.7893 9.88836 17.4142 9.51328C17.0391 9.13821 16.5304 8.9275 16 8.9275C15.4696 8.9275 14.9609 9.13821 14.5858 9.51328C14.2107 9.88836 14 10.3971 14 10.9275Z" fill="#374957"/>
</g>
<defs>
<clipPath id="clip0_507_2262">
<rect width="24" height="24" fill="white" transform="translate(0 0.92749)"/>
</clipPath>
</defs>
</svg>
