<svg width="24" height="25" viewBox="0 0 24 25" fill="none" xmlns="http://www.w3.org/2000/svg">
<g clip-path="url(#clip0_507_2048)">
<path d="M14.0001 24.9275C13.7837 24.9275 13.5732 24.8573 13.4001 24.7275L9.4001 21.7275C9.27591 21.6343 9.1751 21.5136 9.10568 21.3747C9.03625 21.2358 9.0001 21.0827 9.0001 20.9275V15.3075L1.9841 7.41449C1.48582 6.85237 1.16048 6.15831 1.04718 5.41572C0.933883 4.67314 1.03745 3.91364 1.34543 3.2285C1.6534 2.54337 2.15269 1.96175 2.78328 1.55356C3.41387 1.14536 4.14893 0.927965 4.9001 0.92749H19.1001C19.8512 0.928371 20.5861 1.14613 21.2164 1.5546C21.8468 1.96306 22.3457 2.54486 22.6534 3.23008C22.961 3.91529 23.0643 4.67477 22.9507 5.41724C22.8371 6.15971 22.5115 6.85359 22.0131 7.41549L15.0001 15.3075V23.9275C15.0001 24.1927 14.8947 24.4471 14.7072 24.6346C14.5197 24.8221 14.2653 24.9275 14.0001 24.9275ZM11.0001 20.4275L13.0001 21.9275V14.9275C13.0003 14.6826 13.0903 14.4464 13.2531 14.2635L20.5211 6.08649C20.7635 5.81257 20.9216 5.47453 20.9765 5.11294C21.0315 4.75136 20.9809 4.38159 20.8309 4.04805C20.6808 3.7145 20.4377 3.43135 20.1307 3.23258C19.8237 3.03381 19.4658 2.92787 19.1001 2.92749H4.9001C4.53455 2.92804 4.17692 3.03404 3.87011 3.23276C3.56329 3.43148 3.32031 3.71448 3.17031 4.04784C3.02031 4.3812 2.96966 4.75075 3.02443 5.11217C3.0792 5.47359 3.23707 5.81154 3.4791 6.08549L10.7481 14.2635C10.9105 14.4465 11.0002 14.6828 11.0001 14.9275V20.4275Z" fill="#374957"/>
</g>
<defs>
<clipPath id="clip0_507_2048">
<rect width="24" height="24" fill="white" transform="translate(0 0.92749)"/>
</clipPath>
</defs>
</svg>
