<svg width="24" height="25" viewBox="0 0 24 25" fill="none" xmlns="http://www.w3.org/2000/svg">
<g clip-path="url(#clip0_507_2345)">
<path d="M12.0034 0.925171C5.36579 0.925171 -0.0151367 6.30609 -0.0151367 12.9437C-0.0151367 19.5814 5.36579 24.9622 12.0034 24.9622C18.6411 24.9622 24.0219 19.5814 24.0219 12.9437C24.0219 6.30609 18.6411 0.925171 12.0034 0.925171ZM21.8752 11.4274V11.4304C20.968 11.9952 19.976 12.4109 18.9372 12.6614C18.7218 9.45825 17.663 6.36914 15.8682 3.70734C19.0762 5.06166 21.3508 7.98487 21.8752 11.4274ZM12.0001 2.92739C12.2531 2.92739 12.5002 2.94637 12.7492 2.96541C15.244 5.70497 16.7261 9.21581 16.9492 12.9144C15.5826 12.9611 14.2211 12.7263 12.9492 12.2244C12.7501 8.84301 11.1349 5.7022 8.50018 3.57337C9.61833 3.14883 10.8041 2.92997 12.0001 2.92739ZM6.48713 4.59239C7.42655 5.205 8.25638 5.97098 8.94211 6.85837C5.94464 8.86842 3.61032 11.722 2.23416 15.0584C1.34396 11.0253 3.03605 6.86133 6.48713 4.59239ZM3.35616 17.9324C4.35441 14.114 6.70735 10.789 9.97618 8.57737C10.5681 9.79345 10.9059 11.1174 10.9692 12.4684C8.24011 14.5422 6.52496 17.6815 6.25416 21.0984C5.0716 20.2639 4.08305 19.184 3.35616 17.9324ZM12.0001 22.9274C10.7064 22.927 9.42511 22.6743 8.22816 22.1834C8.20613 20.8934 8.43432 19.6115 8.90016 18.4084C12.1871 19.8675 15.8373 20.3027 19.3752 19.6574C17.4878 21.7384 14.8096 22.926 12.0001 22.9274ZM9.80016 16.6174C10.4341 15.6349 11.2359 14.7718 12.1692 14.0674C13.5827 14.639 15.0924 14.9353 16.6172 14.9404C18.4722 14.9402 20.3023 14.5125 21.9652 13.6904C21.8715 14.9126 21.5518 16.1068 21.0222 17.2124C17.3297 18.3544 13.3511 18.1435 9.80016 16.6174Z" fill="#374957"/>
</g>
<defs>
<clipPath id="clip0_507_2345">
<rect width="24" height="24" fill="white" transform="translate(0 0.92749)"/>
</clipPath>
</defs>
</svg>
