<svg width="24" height="25" viewBox="0 0 24 25" fill="none" xmlns="http://www.w3.org/2000/svg">
<g clip-path="url(#clip0_507_1910)">
<path d="M12 24.9275C9.62663 24.9275 7.30655 24.2237 5.33316 22.9051C3.35977 21.5866 1.8217 19.7124 0.913451 17.5197C0.00519943 15.327 -0.232441 12.9142 0.230582 10.5864C0.693605 8.25864 1.83649 6.12044 3.51472 4.44221C5.19295 2.76398 7.33115 1.62109 9.65892 1.15807C11.9867 0.69505 14.3995 0.93269 16.5922 1.84094C18.7849 2.74919 20.6591 4.28726 21.9776 6.26065C23.2962 8.23404 24 10.5541 24 12.9275C23.9966 16.109 22.7312 19.1593 20.4815 21.409C18.2318 23.6587 15.1815 24.9241 12 24.9275ZM12 2.9275C10.0222 2.9275 8.08879 3.51399 6.4443 4.6128C4.79981 5.71161 3.51809 7.2734 2.76121 9.10066C2.00433 10.9279 1.8063 12.9386 2.19215 14.8784C2.578 16.8182 3.53041 18.6 4.92894 19.9986C6.32746 21.3971 8.10929 22.3495 10.0491 22.7353C11.9889 23.1212 13.9996 22.9232 15.8268 22.1663C17.6541 21.4094 19.2159 20.1277 20.3147 18.4832C21.4135 16.8387 22 14.9053 22 12.9275C21.9971 10.2762 20.9426 7.73438 19.0679 5.85964C17.1931 3.98491 14.6513 2.93041 12 2.9275ZM12 20.9275C10.4178 20.9275 8.87104 20.4583 7.55544 19.5793C6.23985 18.7002 5.21447 17.4508 4.60897 15.989C4.00347 14.5272 3.84504 12.9186 4.15372 11.3668C4.46241 9.81493 5.22433 8.38946 6.34315 7.27064C7.46197 6.15182 8.88743 5.3899 10.4393 5.08121C11.9911 4.77253 13.5997 4.93096 15.0615 5.53646C16.5233 6.14196 17.7727 7.16734 18.6518 8.48293C19.5308 9.79853 20 11.3452 20 12.9275C19.9976 15.0485 19.154 17.0819 17.6542 18.5817C16.1545 20.0815 14.121 20.9251 12 20.9275ZM12 6.9275C10.8133 6.9275 9.65328 7.27939 8.66658 7.93868C7.67989 8.59797 6.91085 9.53504 6.45673 10.6314C6.0026 11.7278 5.88378 12.9342 6.11529 14.098C6.3468 15.2619 6.91825 16.331 7.75736 17.1701C8.59648 18.0093 9.66558 18.5807 10.8295 18.8122C11.9934 19.0437 13.1997 18.9249 14.2961 18.4708C15.3925 18.0166 16.3295 17.2476 16.9888 16.2609C17.6481 15.2742 18 14.1142 18 12.9275C17.9984 11.3367 17.3658 9.81148 16.2409 8.68661C15.116 7.56174 13.5908 6.92908 12 6.9275ZM11.857 16.4425L14.857 11.4425C14.9482 11.2908 14.9974 11.1176 14.9997 10.9406C15.002 10.7636 14.9574 10.5892 14.8702 10.4351C14.7831 10.2811 14.6566 10.1529 14.5037 10.0637C14.3508 9.97454 14.177 9.92753 14 9.9275H10C9.73479 9.9275 9.48044 10.0329 9.2929 10.2204C9.10536 10.4079 9.00001 10.6623 9.00001 10.9275C9.00001 11.1927 9.10536 11.4471 9.2929 11.6346C9.48044 11.8221 9.73479 11.9275 10 11.9275H12.234L10.143 15.4125C10.0725 15.5251 10.0252 15.6506 10.0038 15.7817C9.98237 15.9128 9.98729 16.0469 10.0183 16.1761C10.0492 16.3053 10.1056 16.427 10.1841 16.5341C10.2627 16.6413 10.3618 16.7317 10.4756 16.8001C10.5895 16.8685 10.7158 16.9136 10.8473 16.9326C10.9788 16.9517 11.1127 16.9443 11.2413 16.9111C11.3699 16.8778 11.4906 16.8192 11.5963 16.7387C11.702 16.6583 11.7906 16.5576 11.857 16.4425Z" fill="#374957"/>
</g>
<defs>
<clipPath id="clip0_507_1910">
<rect width="24" height="24" fill="white" transform="translate(0 0.92749)"/>
</clipPath>
</defs>
</svg>
