<svg width="24" height="25" viewBox="0 0 24 25" fill="none" xmlns="http://www.w3.org/2000/svg">
<g clip-path="url(#clip0_507_1893)">
<path d="M20.5368 13.6275L19.4068 12.9275L20.5378 12.2275C21.3231 11.7606 21.9312 11.0463 22.2668 10.1965C22.4769 9.63468 22.5552 9.0321 22.4957 8.43522C22.4362 7.83833 22.2405 7.26307 21.9236 6.75375C21.6067 6.24443 21.1772 5.81465 20.668 5.49752C20.1588 5.18038 19.5837 4.98435 18.9868 4.92454C18.0762 4.85005 17.1666 5.08009 16.4008 5.57854L15.9998 5.82754V5.09954C16.0167 4.08429 15.6578 3.09863 14.9919 2.33202C14.3261 1.56541 13.4004 1.07196 12.3928 0.946538C11.8371 0.89167 11.276 0.953783 10.7457 1.12888C10.2154 1.30398 9.72762 1.58818 9.31381 1.96319C8.89999 2.33819 8.56928 2.7957 8.34298 3.30625C8.11667 3.8168 7.99978 4.36908 7.99983 4.92754V5.82754L7.59983 5.57754C6.83423 5.07768 5.92416 4.84656 5.01283 4.92054C4.41587 4.97983 3.8405 5.17541 3.33107 5.4922C2.82163 5.80898 2.39175 6.23852 2.07455 6.7477C1.75736 7.25688 1.56132 7.83209 1.50155 8.429C1.44178 9.02592 1.51988 9.62858 1.72983 10.1905C2.06547 11.0406 2.67401 11.755 3.45983 12.2215L4.59283 12.9275L3.46183 13.6275C2.67653 14.0944 2.0684 14.8088 1.73283 15.6585C1.52247 16.2208 1.44414 16.8239 1.5039 17.4213C1.56365 18.0187 1.75988 18.5943 2.07744 19.1038C2.395 19.6133 2.82539 20.043 3.33539 20.3597C3.84539 20.6765 4.42136 20.8718 5.01883 20.9305C5.92747 21.0048 6.8351 20.7759 7.59983 20.2795L7.99983 20.0275V20.9275C7.99983 21.9884 8.42125 23.0058 9.1714 23.756C9.92155 24.5061 10.939 24.9275 11.9998 24.9275C13.0607 24.9275 14.0781 24.5061 14.8283 23.756C15.5784 23.0058 15.9998 21.9884 15.9998 20.9275V20.0275L16.3998 20.2785C17.1641 20.7752 18.0713 21.0048 18.9798 20.9315C19.5771 20.8725 20.1529 20.677 20.6626 20.3601C21.1724 20.0433 21.6025 19.6135 21.9199 19.1041C22.2372 18.5947 22.4333 18.0191 22.4929 17.4219C22.5525 16.8246 22.4742 16.2217 22.2638 15.6595C21.9288 14.8098 21.3214 14.0952 20.5368 13.6275ZM20.2258 18.0455C19.9571 18.4767 19.5281 18.7835 19.0333 18.8985C18.5384 19.0134 18.0181 18.9271 17.5868 18.6585L15.5278 17.3765C15.3763 17.2823 15.2023 17.2304 15.0239 17.2261C14.8455 17.2218 14.6692 17.2653 14.5133 17.3521C14.3574 17.439 14.2275 17.5659 14.1372 17.7199C14.047 17.8738 13.9995 18.0491 13.9998 18.2275V20.9275C13.9998 21.458 13.7891 21.9667 13.414 22.3418C13.039 22.7168 12.5303 22.9275 11.9998 22.9275C11.4694 22.9275 10.9607 22.7168 10.5856 22.3418C10.2105 21.9667 9.99983 21.458 9.99983 20.9275V18.2275C9.99978 18.0493 9.95208 17.8742 9.86165 17.7206C9.77122 17.5669 9.64136 17.4402 9.48552 17.3537C9.32967 17.2671 9.15351 17.2237 8.97528 17.2281C8.79705 17.2325 8.62323 17.2844 8.47183 17.3785L6.41283 18.6625C6.1993 18.7955 5.96167 18.8851 5.71351 18.9262C5.46535 18.9674 5.21152 18.9592 4.96652 18.9022C4.72151 18.8453 4.49012 18.7406 4.28557 18.5942C4.08101 18.4478 3.90729 18.2626 3.77433 18.049C3.64136 17.8355 3.55176 17.5979 3.51063 17.3497C3.4695 17.1016 3.47766 16.8477 3.53463 16.6027C3.59159 16.3577 3.69626 16.1263 3.84266 15.9218C3.98905 15.7172 4.1743 15.5435 4.38783 15.4105L7.01283 13.7765C7.15754 13.6869 7.27695 13.5617 7.35977 13.413C7.44258 13.2642 7.48604 13.0968 7.48604 12.9265C7.48604 12.7563 7.44258 12.5889 7.35977 12.4401C7.27695 12.2914 7.15754 12.1662 7.01283 12.0765L4.38783 10.4435C3.95659 10.175 3.64968 9.74616 3.53463 9.25135C3.41957 8.75653 3.5058 8.23628 3.77433 7.80504C4.04286 7.3738 4.4717 7.06689 4.96652 6.95184C5.46133 6.83678 5.98159 6.92301 6.41283 7.19154L8.47183 8.47354C8.62302 8.56754 8.79656 8.61947 8.97454 8.62398C9.15251 8.62848 9.32846 8.58539 9.48421 8.49916C9.63996 8.41292 9.76987 8.28667 9.86051 8.13344C9.95116 7.98022 9.99925 7.80557 9.99983 7.62754V5.03454C9.98903 4.54769 10.1498 4.07255 10.454 3.69229C10.7582 3.31203 11.1865 3.05087 11.6638 2.95454C11.9509 2.90562 12.2452 2.91997 12.5261 2.9966C12.807 3.07323 13.0679 3.21028 13.2903 3.39817C13.5128 3.58607 13.6916 3.82029 13.8141 4.08444C13.9367 4.3486 14 4.63634 13.9998 4.92754V7.62754C14 7.80574 14.0479 7.98064 14.1384 8.13415C14.2289 8.28766 14.3588 8.4142 14.5146 8.50067C14.6704 8.58714 14.8465 8.63041 15.0246 8.62599C15.2028 8.62157 15.3765 8.56963 15.5278 8.47554L17.5868 7.19454C17.8004 7.06158 18.038 6.97197 18.2861 6.93084C18.5343 6.88972 18.7881 6.89787 19.0331 6.95484C19.2781 7.01181 19.5095 7.11648 19.7141 7.26287C19.9186 7.40926 20.0924 7.59451 20.2253 7.80804C20.3583 8.02157 20.4479 8.2592 20.489 8.50735C20.5301 8.75551 20.522 9.00934 20.465 9.25435C20.4081 9.49936 20.3034 9.73074 20.157 9.9353C20.0106 10.1399 19.8254 10.3136 19.6118 10.4465L16.9868 12.0805C16.8421 12.1702 16.7227 12.2954 16.6399 12.4441C16.5571 12.5929 16.5136 12.7603 16.5136 12.9305C16.5136 13.1008 16.5571 13.2682 16.6399 13.417C16.7227 13.5657 16.8421 13.6909 16.9868 13.7805L19.6118 15.4145C19.8255 15.5473 20.0109 15.7209 20.1574 15.9254C20.3039 16.1299 20.4086 16.3613 20.4657 16.6063C20.5227 16.8513 20.5309 17.1051 20.4897 17.3533C20.4486 17.6014 20.3589 17.8391 20.2258 18.0525V18.0455Z" fill="#374957"/>
</g>
<defs>
<clipPath id="clip0_507_1893">
<rect width="24" height="24" fill="white" transform="translate(0 0.92749)"/>
</clipPath>
</defs>
</svg>
