<svg width="24" height="25" viewBox="0 0 24 25" fill="none" xmlns="http://www.w3.org/2000/svg">
<g clip-path="url(#clip0_507_2306)">
<path d="M23 11.9275C22.7348 11.9275 22.4804 12.0328 22.2929 12.2204C22.1053 12.4079 22 12.6623 22 12.9275C22.0081 15.2528 21.2084 17.5087 19.7375 19.3096C18.2666 21.1106 16.2159 22.3448 13.9359 22.8013C11.6558 23.2578 9.28801 22.9082 7.23715 21.8124C5.18629 20.7165 3.57971 18.9423 2.692 16.7932C1.80429 14.644 1.69058 12.2532 2.37028 10.0295C3.04999 7.80577 4.48093 5.88715 6.41852 4.60156C8.3561 3.31598 10.68 2.74324 12.9931 2.98126C15.3062 3.21928 17.4648 4.25327 19.1 5.90649C19.0671 5.91546 19.0337 5.92247 19 5.92749H16C15.7348 5.92749 15.4804 6.03285 15.2929 6.22038C15.1053 6.40792 15 6.66227 15 6.92749C15 7.19271 15.1053 7.44706 15.2929 7.6346C15.4804 7.82213 15.7348 7.92749 16 7.92749H19C19.7956 7.92749 20.5587 7.61142 21.1213 7.04881C21.6839 6.4862 22 5.72314 22 4.92749V1.92749C22 1.66227 21.8946 1.40792 21.7071 1.22038C21.5195 1.03285 21.2652 0.92749 21 0.92749C20.7348 0.92749 20.4804 1.03285 20.2929 1.22038C20.1053 1.40792 20 1.66227 20 1.92749V3.99249C17.9525 2.16202 15.3389 1.08966 12.5958 0.954593C9.85275 0.819529 7.14641 1.62995 4.92905 3.25043C2.71168 4.8709 1.1176 7.20327 0.413192 9.85779C-0.291217 12.5123 -0.0632888 15.3282 1.05889 17.8348C2.18107 20.3415 4.12952 22.3871 6.57865 23.6299C9.02778 24.8726 11.8292 25.2372 14.5149 24.6627C17.2005 24.0883 19.6076 22.6095 21.334 20.4735C23.0604 18.3376 24.0015 15.6739 24 12.9275C24 12.6623 23.8946 12.4079 23.7071 12.2204C23.5195 12.0328 23.2652 11.9275 23 11.9275Z" fill="#374957"/>
<path d="M12.0001 6.92749C11.7349 6.92749 11.4806 7.03285 11.293 7.22038C11.1055 7.40792 11.0001 7.66227 11.0001 7.92749V12.9275C11.0002 13.1927 11.1056 13.447 11.2931 13.6345L14.2931 16.6345C14.4817 16.8166 14.7343 16.9174 14.9965 16.9152C15.2587 16.9129 15.5095 16.8077 15.6949 16.6223C15.8803 16.4369 15.9855 16.1861 15.9878 15.9239C15.9901 15.6617 15.8893 15.4091 15.7071 15.2205L13.0001 12.5135V7.92749C13.0001 7.66227 12.8948 7.40792 12.7072 7.22038C12.5197 7.03285 12.2653 6.92749 12.0001 6.92749Z" fill="#374957"/>
</g>
<defs>
<clipPath id="clip0_507_2306">
<rect width="24" height="24" fill="white" transform="translate(0 0.92749)"/>
</clipPath>
</defs>
</svg>
