<svg width="24" height="25" viewBox="0 0 24 25" fill="none" xmlns="http://www.w3.org/2000/svg">
<g clip-path="url(#clip0_507_2105)">
<path d="M10 6.92779H23C23.2652 6.92779 23.5196 6.82243 23.7071 6.6349C23.8946 6.44736 24 6.19301 24 5.92779C24 5.66258 23.8946 5.40822 23.7071 5.22069C23.5196 5.03315 23.2652 4.9278 23 4.9278H10C9.73478 4.9278 9.48043 5.03315 9.29289 5.22069C9.10536 5.40822 9 5.66258 9 5.92779C9 6.19301 9.10536 6.44736 9.29289 6.6349C9.48043 6.82243 9.73478 6.92779 10 6.92779Z" fill="#374957"/>
<path d="M23 11.9272H10C9.73478 11.9272 9.48043 12.0325 9.29289 12.2201C9.10536 12.4076 9 12.662 9 12.9272C9 13.1924 9.10536 13.4468 9.29289 13.6343C9.48043 13.8218 9.73478 13.9272 10 13.9272H23C23.2652 13.9272 23.5196 13.8218 23.7071 13.6343C23.8946 13.4468 24 13.1924 24 12.9272C24 12.662 23.8946 12.4076 23.7071 12.2201C23.5196 12.0325 23.2652 11.9272 23 11.9272Z" fill="#374957"/>
<path d="M23 18.9275H10C9.73478 18.9275 9.48043 19.0328 9.29289 19.2204C9.10536 19.4079 9 19.6623 9 19.9275C9 20.1927 9.10536 20.4471 9.29289 20.6346C9.48043 20.8221 9.73478 20.9275 10 20.9275H23C23.2652 20.9275 23.5196 20.8221 23.7071 20.6346C23.8946 20.4471 24 20.1927 24 19.9275C24 19.6623 23.8946 19.4079 23.7071 19.2204C23.5196 19.0328 23.2652 18.9275 23 18.9275Z" fill="#374957"/>
<path d="M6.08692 6.92777C6.18585 6.92775 6.28256 6.89837 6.36479 6.84337C6.44703 6.78836 6.5111 6.7102 6.54889 6.61877C6.58669 6.52733 6.59651 6.42675 6.57711 6.32973C6.55771 6.23272 6.50996 6.14364 6.43992 6.07377L3.99992 3.63477C3.81239 3.4473 3.55808 3.34198 3.29292 3.34198C3.02775 3.34198 2.77345 3.4473 2.58592 3.63477L0.146918 6.07377C0.076872 6.14364 0.0291282 6.23272 0.00972972 6.32973C-0.00966876 6.42675 0.000150092 6.52733 0.0379436 6.61877C0.075737 6.7102 0.139806 6.78836 0.222042 6.84337C0.304277 6.89837 0.400983 6.92775 0.499918 6.92777H2.29392V18.9278H0.499918C0.400898 18.9276 0.304054 18.9568 0.221665 19.0117C0.139276 19.0667 0.0750515 19.1448 0.0371339 19.2363C-0.000783589 19.3278 -0.0106867 19.4284 0.00868009 19.5256C0.0280469 19.6227 0.0758114 19.7118 0.145918 19.7818L2.58592 22.2208C2.77345 22.4082 3.02775 22.5136 3.29292 22.5136C3.55808 22.5136 3.81239 22.4082 3.99992 22.2208L6.43992 19.7818C6.50996 19.7119 6.55771 19.6228 6.57711 19.5258C6.59651 19.4288 6.58669 19.3282 6.54889 19.2368C6.5111 19.1453 6.44703 19.0672 6.36479 19.0122C6.28256 18.9572 6.18585 18.9278 6.08692 18.9278H4.29392V6.92777H6.08692Z" fill="#374957"/>
</g>
<defs>
<clipPath id="clip0_507_2105">
<rect width="24" height="24" fill="white" transform="translate(0 0.92749)"/>
</clipPath>
</defs>
</svg>
