<svg width="24" height="25" viewBox="0 0 24 25" fill="none" xmlns="http://www.w3.org/2000/svg">
<g clip-path="url(#clip0_507_1990)">
<path d="M15.9999 8.92761C15.8124 8.74014 15.5581 8.63483 15.2929 8.63483C15.0278 8.63483 14.7735 8.74014 14.5859 8.92761L11.9999 11.5136L9.41395 8.92761C9.22534 8.74546 8.97274 8.64466 8.71055 8.64694C8.44835 8.64922 8.19754 8.75439 8.01213 8.93979C7.82672 9.1252 7.72155 9.37602 7.71928 9.63821C7.717 9.90041 7.81779 10.153 7.99995 10.3416L10.5859 12.9276L7.99995 15.5136C7.81779 15.7022 7.717 15.9548 7.71928 16.217C7.72155 16.4792 7.82672 16.73 8.01213 16.9154C8.19754 17.1008 8.44835 17.206 8.71055 17.2083C8.97274 17.2106 9.22534 17.1098 9.41395 16.9276L11.9999 14.3416L14.5859 16.9276C14.7745 17.1098 15.0271 17.2106 15.2893 17.2083C15.5515 17.206 15.8023 17.1008 15.9878 16.9154C16.1732 16.73 16.2783 16.4792 16.2806 16.217C16.2829 15.9548 16.1821 15.7022 15.9999 15.5136L13.4139 12.9276L15.9999 10.3416C16.1874 10.1541 16.2927 9.89978 16.2927 9.63461C16.2927 9.36945 16.1874 9.11514 15.9999 8.92761Z" fill="#374957"/>
<path d="M12 0.92749C9.62663 0.92749 7.30655 1.63128 5.33316 2.94986C3.35977 4.26843 1.8217 6.14258 0.913451 8.33529C0.00519943 10.528 -0.232441 12.9408 0.230582 15.2686C0.693605 17.5963 1.83649 19.7345 3.51472 21.4128C5.19295 23.091 7.33115 24.2339 9.65892 24.6969C11.9867 25.1599 14.3995 24.9223 16.5922 24.014C18.7849 23.1058 20.6591 21.5677 21.9776 19.5943C23.2962 17.6209 24 15.3009 24 12.9275C23.9966 9.74595 22.7312 6.6957 20.4815 4.44601C18.2318 2.19632 15.1815 0.930931 12 0.92749V0.92749ZM12 22.9275C10.0222 22.9275 8.08879 22.341 6.4443 21.2422C4.79981 20.1434 3.51809 18.5816 2.76121 16.7543C2.00433 14.9271 1.8063 12.9164 2.19215 10.9766C2.578 9.03678 3.53041 7.25495 4.92894 5.85642C6.32746 4.4579 8.10929 3.50549 10.0491 3.11964C11.9889 2.73379 13.9996 2.93182 15.8268 3.6887C17.6541 4.44557 19.2159 5.7273 20.3147 7.37179C21.4135 9.01628 22 10.9497 22 12.9275C21.9971 15.5788 20.9426 18.1206 19.0679 19.9953C17.1931 21.8701 14.6513 22.9246 12 22.9275Z" fill="#374957"/>
</g>
<defs>
<clipPath id="clip0_507_1990">
<rect width="24" height="24" fill="white" transform="translate(0 0.92749)"/>
</clipPath>
</defs>
</svg>
