<svg width="24" height="25" viewBox="0 0 24 25" fill="none" xmlns="http://www.w3.org/2000/svg">
<g clip-path="url(#clip0_507_2146)">
<path d="M12 24.9275C9.62663 24.9275 7.30655 24.2237 5.33316 22.9051C3.35977 21.5865 1.8217 19.7124 0.913451 17.5197C0.00519943 15.327 -0.232441 12.9142 0.230582 10.5864C0.693605 8.25864 1.83649 6.12044 3.51472 4.44221C5.19295 2.76398 7.33115 1.62109 9.65892 1.15807C11.9867 0.695044 14.3995 0.932684 16.5922 1.84094C18.7849 2.74919 20.6591 4.28726 21.9776 6.26065C23.2962 8.23404 24 10.5541 24 12.9275C23.9966 16.109 22.7312 19.1593 20.4815 21.409C18.2318 23.6587 15.1815 24.924 12 24.9275ZM12 2.92749C10.0222 2.92749 8.08879 3.51398 6.4443 4.61279C4.79981 5.71161 3.51809 7.2734 2.76121 9.10066C2.00433 10.9279 1.8063 12.9386 2.19215 14.8784C2.578 16.8182 3.53041 18.6 4.92894 19.9986C6.32746 21.3971 8.10929 22.3495 10.0491 22.7353C11.9889 23.1212 13.9996 22.9232 15.8268 22.1663C17.6541 21.4094 19.2159 20.1277 20.3147 18.4832C21.4135 16.8387 22 14.9053 22 12.9275C21.9971 10.2762 20.9426 7.73437 19.0679 5.85964C17.1931 3.98491 14.6513 2.9304 12 2.92749ZM17 16.9275C17 16.6623 16.8946 16.4079 16.7071 16.2204C16.5196 16.0328 16.2652 15.9275 16 15.9275H8.00001C7.73479 15.9275 7.48043 16.0328 7.2929 16.2204C7.10536 16.4079 7.00001 16.6623 7.00001 16.9275C7.00001 17.1927 7.10536 17.4471 7.2929 17.6346C7.48043 17.8221 7.73479 17.9275 8.00001 17.9275H16C16.2652 17.9275 16.5196 17.8221 16.7071 17.6346C16.8946 17.4471 17 17.1927 17 16.9275ZM6.00001 10.9275C6.00001 11.9275 6.89501 11.9275 8.00001 11.9275C9.10501 11.9275 10 11.9275 10 10.9275C10 10.3971 9.78929 9.88835 9.41422 9.51328C9.03915 9.13821 8.53044 8.92749 8.00001 8.92749C7.46957 8.92749 6.96086 9.13821 6.58579 9.51328C6.21072 9.88835 6.00001 10.3971 6.00001 10.9275ZM14 10.9275C14 11.9275 14.895 11.9275 16 11.9275C17.105 11.9275 18 11.9275 18 10.9275C18 10.3971 17.7893 9.88835 17.4142 9.51328C17.0391 9.13821 16.5304 8.92749 16 8.92749C15.4696 8.92749 14.9609 9.13821 14.5858 9.51328C14.2107 9.88835 14 10.3971 14 10.9275Z" fill="#374957"/>
</g>
<defs>
<clipPath id="clip0_507_2146">
<rect width="24" height="24" fill="white" transform="translate(0 0.92749)"/>
</clipPath>
</defs>
</svg>
