<svg width="24" height="25" viewBox="0 0 24 25" fill="none" xmlns="http://www.w3.org/2000/svg">
<g clip-path="url(#clip0_507_1933)">
<path d="M3.00008 7.92755V3.92755C3.00008 3.39712 3.21079 2.88841 3.58586 2.51334C3.96094 2.13827 4.46964 1.92755 5.00008 1.92755H9.00008C9.2653 1.92755 9.51965 2.03291 9.70718 2.22044C9.89472 2.40798 10.0001 2.66233 10.0001 2.92755C10.0001 3.19277 9.89472 3.44712 9.70718 3.63466C9.51965 3.82219 9.2653 3.92755 9.00008 3.92755H6.43908L12.3451 9.85355C12.3656 9.87425 12.3901 9.89066 12.4171 9.90182C12.444 9.91298 12.4729 9.91867 12.5021 9.91855C12.531 9.91878 12.5597 9.91323 12.5865 9.90225C12.6133 9.89126 12.6376 9.87504 12.6581 9.85455L19.5421 2.97055C19.7307 2.78839 19.9833 2.6876 20.2455 2.68988C20.5077 2.69216 20.7585 2.79732 20.9439 2.98273C21.1293 3.16814 21.2345 3.41895 21.2368 3.68115C21.239 3.94335 21.1382 4.19595 20.9561 4.38455L14.0721 11.2686C13.8666 11.4756 13.6219 11.6397 13.3524 11.7512C13.0828 11.8628 12.7938 11.9197 12.5021 11.9186C12.2099 11.9193 11.9204 11.8619 11.6506 11.7498C11.3807 11.6377 11.1358 11.4731 10.9301 11.2656L5.00008 5.31655V7.92755C5.00008 8.19277 4.89472 8.44712 4.70718 8.63466C4.51965 8.8222 4.26529 8.92755 4.00008 8.92755C3.73486 8.92755 3.48051 8.8222 3.29297 8.63466C3.10543 8.44712 3.00008 8.19277 3.00008 7.92755ZM24.0001 21.0346L23.9151 22.2986C23.9004 23.0081 23.6076 23.6836 23.0998 24.1794C22.592 24.6752 21.9098 24.9518 21.2001 24.9496C21.1561 24.9496 18.6781 24.6276 18.6781 24.6276C17.9808 24.6081 17.3175 24.3221 16.8248 23.8284C16.332 23.3347 16.0472 22.6709 16.0291 21.9736L15.8741 20.6816C14.6381 20.201 13.3261 19.9457 12.0001 19.9276C10.6775 19.9342 9.36757 20.1865 8.13708 20.6716L7.98008 21.9716C7.96237 22.67 7.67713 23.3351 7.18325 23.8293C6.68937 24.3236 6.02456 24.6093 5.32608 24.6276C5.32608 24.6276 2.84808 24.9496 2.80408 24.9496C2.08249 24.9488 1.39071 24.6617 0.880563 24.1514C0.37042 23.641 0.0836062 22.9491 0.0830768 22.2276L7.67961e-05 21.1036C-0.00602896 20.4021 0.128521 19.7066 0.395775 19.058C0.66303 18.4095 1.05757 17.821 1.55608 17.3276C6.04708 12.8396 17.9561 12.8406 22.4431 17.3276C22.935 17.8117 23.3259 18.3887 23.5931 19.025C23.8604 19.6613 23.9987 20.3444 24.0001 21.0346ZM22.0001 20.9646C21.9791 20.1255 21.6293 19.3282 21.0261 18.7446C17.0441 14.7596 6.39908 15.3156 2.96908 18.7446C2.66429 19.0429 2.42171 19.3987 2.25538 19.7915C2.08905 20.1842 2.00228 20.6061 2.00008 21.0326L2.08108 22.1596C2.06925 22.3523 2.13253 22.5421 2.25763 22.6892C2.38273 22.8363 2.55994 22.9293 2.75208 22.9486C2.75208 22.9486 5.21008 22.6286 5.25208 22.6286C5.4434 22.628 5.62674 22.5518 5.76203 22.4165C5.89731 22.2812 5.97355 22.0979 5.97408 21.9066C5.97408 21.8666 6.21308 19.8566 6.21308 19.8566C6.23365 19.6849 6.29836 19.5216 6.40089 19.3824C6.50341 19.2433 6.64026 19.1331 6.79808 19.0626C8.41297 18.324 10.1664 17.9372 11.9421 17.9276H12.0051C13.7898 17.9536 15.5511 18.3372 17.1851 19.0556C17.3465 19.1245 17.4869 19.2347 17.5923 19.3752C17.6976 19.5156 17.7641 19.6813 17.7851 19.8556C17.7851 19.8556 18.0241 21.8656 18.0241 21.9056C18.0246 22.0969 18.1008 22.2802 18.2361 22.4155C18.3714 22.5508 18.5548 22.627 18.7461 22.6276C18.7901 22.6276 21.2461 22.9476 21.2461 22.9476C21.4277 22.9342 21.5976 22.8527 21.7217 22.7193C21.8457 22.586 21.9148 22.4107 21.9151 22.2286L22.0001 20.9646Z" fill="#374957"/>
</g>
<defs>
<clipPath id="clip0_507_1933">
<rect width="24" height="24" fill="white" transform="translate(0 0.92749)"/>
</clipPath>
</defs>
</svg>
