<svg width="24" height="25" viewBox="0 0 24 25" fill="none" xmlns="http://www.w3.org/2000/svg">
<g clip-path="url(#clip0_507_2194)">
<path d="M21.0001 22.9275H6.88412C7.65603 21.7395 8.0455 20.3435 8.00012 18.9275V14.9275H15.0001C15.2653 14.9275 15.5197 14.8221 15.7072 14.6346C15.8948 14.4471 16.0001 14.1927 16.0001 13.9275C16.0001 13.6623 15.8948 13.4079 15.7072 13.2204C15.5197 13.0328 15.2653 12.9275 15.0001 12.9275H8.00012V8.92748C8.00012 7.33618 8.63226 5.81006 9.75748 4.68484C10.8827 3.55962 12.4088 2.92748 14.0001 2.92748C15.5914 2.92748 17.1175 3.55962 18.2428 4.68484C19.368 5.81006 20.0001 7.33618 20.0001 8.92748C20.0001 9.1927 20.1055 9.44705 20.293 9.63459C20.4806 9.82213 20.7349 9.92748 21.0001 9.92748C21.2653 9.92748 21.5197 9.82213 21.7072 9.63459C21.8948 9.44705 22.0001 9.1927 22.0001 8.92748C22.0001 6.80575 21.1573 4.77092 19.657 3.27063C18.1567 1.77034 16.1219 0.927483 14.0001 0.927483C11.8784 0.927483 9.84356 1.77034 8.34327 3.27063C6.84298 4.77092 6.00012 6.80575 6.00012 8.92748V12.9275H4.00012C3.73491 12.9275 3.48055 13.0328 3.29302 13.2204C3.10548 13.4079 3.00012 13.6623 3.00012 13.9275C3.00012 14.1927 3.10548 14.4471 3.29302 14.6346C3.48055 14.8221 3.73491 14.9275 4.00012 14.9275H6.00012V18.9275C6.00012 20.1275 5.70812 22.9275 3.00012 22.9275C2.73491 22.9275 2.48055 23.0328 2.29302 23.2204C2.10548 23.4079 2.00012 23.6623 2.00012 23.9275C2.00012 24.1927 2.10548 24.4471 2.29302 24.6346C2.48055 24.8221 2.73491 24.9275 3.00012 24.9275H21.0001C21.2653 24.9275 21.5197 24.8221 21.7072 24.6346C21.8948 24.4471 22.0001 24.1927 22.0001 23.9275C22.0001 23.6623 21.8948 23.4079 21.7072 23.2204C21.5197 23.0328 21.2653 22.9275 21.0001 22.9275Z" fill="#374957"/>
</g>
<defs>
<clipPath id="clip0_507_2194">
<rect width="24" height="24" fill="white" transform="translate(0 0.92749)"/>
</clipPath>
</defs>
</svg>
