<svg width="24" height="25" viewBox="0 0 24 25" fill="none" xmlns="http://www.w3.org/2000/svg">
<g clip-path="url(#clip0_507_1929)">
<path d="M18.0001 24.9275H6.00012C4.67453 24.9259 3.40368 24.3986 2.46634 23.4613C1.529 22.5239 1.00171 21.2531 1.00012 19.9275V5.92749C1.00171 4.6019 1.529 3.33105 2.46634 2.39371C3.40368 1.45637 4.67453 0.929078 6.00012 0.92749L18.0001 0.92749C19.3257 0.929078 20.5966 1.45637 21.5339 2.39371C22.4712 3.33105 22.9985 4.6019 23.0001 5.92749V19.9275C22.9985 21.2531 22.4712 22.5239 21.5339 23.4613C20.5966 24.3986 19.3257 24.9259 18.0001 24.9275ZM6.00012 2.92749C5.20447 2.92749 4.44141 3.24356 3.8788 3.80617C3.31619 4.36878 3.00012 5.13184 3.00012 5.92749V19.9275C3.00012 20.7231 3.31619 21.4862 3.8788 22.0488C4.44141 22.6114 5.20447 22.9275 6.00012 22.9275H18.0001C18.7958 22.9275 19.5588 22.6114 20.1214 22.0488C20.6841 21.4862 21.0001 20.7231 21.0001 19.9275V5.92749C21.0001 5.13184 20.6841 4.36878 20.1214 3.80617C19.5588 3.24356 18.7958 2.92749 18.0001 2.92749H6.00012ZM16.0001 10.9275H8.00012C7.20447 10.9275 6.44141 10.6114 5.8788 10.0488C5.31619 9.4862 5.00012 8.72314 5.00012 7.92749C5.00012 7.13184 5.31619 6.36878 5.8788 5.80617C6.44141 5.24356 7.20447 4.92749 8.00012 4.92749H16.0001C16.7958 4.92749 17.5588 5.24356 18.1214 5.80617C18.6841 6.36878 19.0001 7.13184 19.0001 7.92749C19.0001 8.72314 18.6841 9.4862 18.1214 10.0488C17.5588 10.6114 16.7958 10.9275 16.0001 10.9275ZM8.00012 6.92749C7.73491 6.92749 7.48055 7.03285 7.29302 7.22038C7.10548 7.40792 7.00012 7.66227 7.00012 7.92749C7.00012 8.19271 7.10548 8.44706 7.29302 8.6346C7.48055 8.82213 7.73491 8.92749 8.00012 8.92749H16.0001C16.2653 8.92749 16.5197 8.82213 16.7072 8.6346C16.8948 8.44706 17.0001 8.19271 17.0001 7.92749C17.0001 7.66227 16.8948 7.40792 16.7072 7.22038C16.5197 7.03285 16.2653 6.92749 16.0001 6.92749H8.00012ZM6.00012 13.9275C5.80234 13.9275 5.609 13.9861 5.44455 14.096C5.2801 14.2059 5.15193 14.3621 5.07624 14.5448C5.00056 14.7275 4.98075 14.9286 5.01934 15.1226C5.05792 15.3166 5.15316 15.4947 5.29302 15.6346C5.43287 15.7744 5.61105 15.8697 5.80503 15.9083C5.99901 15.9469 6.20008 15.9271 6.38281 15.8514C6.56553 15.7757 6.72171 15.6475 6.83159 15.4831C6.94147 15.3186 7.00012 15.1253 7.00012 14.9275C7.00012 14.6623 6.89476 14.4079 6.70723 14.2204C6.51969 14.0328 6.26534 13.9275 6.00012 13.9275ZM10.0001 13.9275C9.80234 13.9275 9.609 13.9861 9.44455 14.096C9.2801 14.2059 9.15193 14.3621 9.07624 14.5448C9.00056 14.7275 8.98075 14.9286 9.01934 15.1226C9.05792 15.3166 9.15316 15.4947 9.29302 15.6346C9.43287 15.7744 9.61105 15.8697 9.80503 15.9083C9.99901 15.9469 10.2001 15.9271 10.3828 15.8514C10.5655 15.7757 10.7217 15.6475 10.8316 15.4831C10.9415 15.3186 11.0001 15.1253 11.0001 14.9275C11.0001 14.6623 10.8948 14.4079 10.7072 14.2204C10.5197 14.0328 10.2653 13.9275 10.0001 13.9275ZM14.0001 13.9275C13.8023 13.9275 13.609 13.9861 13.4446 14.096C13.2801 14.2059 13.1519 14.3621 13.0762 14.5448C13.0006 14.7275 12.9808 14.9286 13.0193 15.1226C13.0579 15.3166 13.1532 15.4947 13.293 15.6346C13.4329 15.7744 13.6111 15.8697 13.805 15.9083C13.999 15.9469 14.2001 15.9271 14.3828 15.8514C14.5655 15.7757 14.7217 15.6475 14.8316 15.4831C14.9415 15.3186 15.0001 15.1253 15.0001 14.9275C15.0001 14.6623 14.8948 14.4079 14.7072 14.2204C14.5197 14.0328 14.2653 13.9275 14.0001 13.9275ZM6.00012 17.9275C5.80234 17.9275 5.609 17.9861 5.44455 18.096C5.2801 18.2059 5.15193 18.3621 5.07624 18.5448C5.00056 18.7275 4.98075 18.9286 5.01934 19.1226C5.05792 19.3166 5.15316 19.4947 5.29302 19.6346C5.43287 19.7745 5.61105 19.8697 5.80503 19.9083C5.99901 19.9469 6.20008 19.9271 6.38281 19.8514C6.56553 19.7757 6.72171 19.6475 6.83159 19.4831C6.94147 19.3186 7.00012 19.1253 7.00012 18.9275C7.00012 18.6623 6.89476 18.4079 6.70723 18.2204C6.51969 18.0328 6.26534 17.9275 6.00012 17.9275ZM10.0001 17.9275C9.80234 17.9275 9.609 17.9861 9.44455 18.096C9.2801 18.2059 9.15193 18.3621 9.07624 18.5448C9.00056 18.7275 8.98075 18.9286 9.01934 19.1226C9.05792 19.3166 9.15316 19.4947 9.29302 19.6346C9.43287 19.7745 9.61105 19.8697 9.80503 19.9083C9.99901 19.9469 10.2001 19.9271 10.3828 19.8514C10.5655 19.7757 10.7217 19.6475 10.8316 19.4831C10.9415 19.3186 11.0001 19.1253 11.0001 18.9275C11.0001 18.6623 10.8948 18.4079 10.7072 18.2204C10.5197 18.0328 10.2653 17.9275 10.0001 17.9275ZM18.0001 13.9275C17.8023 13.9275 17.609 13.9861 17.4446 14.096C17.2801 14.2059 17.1519 14.3621 17.0762 14.5448C17.0006 14.7275 16.9808 14.9286 17.0193 15.1226C17.0579 15.3166 17.1532 15.4947 17.293 15.6346C17.4329 15.7744 17.611 15.8697 17.805 15.9083C17.999 15.9469 18.2001 15.9271 18.3828 15.8514C18.5655 15.7757 18.7217 15.6475 18.8316 15.4831C18.9415 15.3186 19.0001 15.1253 19.0001 14.9275C19.0001 14.6623 18.8948 14.4079 18.7072 14.2204C18.5197 14.0328 18.2653 13.9275 18.0001 13.9275ZM19.0001 18.9275C19.0001 18.6623 18.8948 18.4079 18.7072 18.2204C18.5197 18.0328 18.2653 17.9275 18.0001 17.9275H14.0001C13.7349 17.9275 13.4806 18.0328 13.293 18.2204C13.1055 18.4079 13.0001 18.6623 13.0001 18.9275C13.0001 19.1927 13.1055 19.4471 13.293 19.6346C13.4806 19.8221 13.7349 19.9275 14.0001 19.9275H18.0001C18.2653 19.9275 18.5197 19.8221 18.7072 19.6346C18.8948 19.4471 19.0001 19.1927 19.0001 18.9275Z" fill="#374957"/>
</g>
<defs>
<clipPath id="clip0_507_1929">
<rect width="24" height="24" fill="white" transform="translate(0 0.92749)"/>
</clipPath>
</defs>
</svg>
