<svg width="24" height="25" viewBox="0 0 24 25" fill="none" xmlns="http://www.w3.org/2000/svg">
<g clip-path="url(#clip0_507_1923)">
<path d="M22 7.92749C22.5304 7.92749 23.0391 7.71678 23.4142 7.3417C23.7893 6.96663 24 6.45792 24 5.92749V1.92749C24 1.66227 23.8946 1.40792 23.7071 1.22038C23.5196 1.03285 23.2652 0.92749 23 0.92749C22.7348 0.92749 22.4804 1.03285 22.2929 1.22038C22.1054 1.40792 22 1.66227 22 1.92749V5.92749H18C17.982 5.92749 17.968 5.93649 17.95 5.93749C17.4717 4.75249 16.6502 3.73747 15.5909 3.02271C14.5316 2.30794 13.2829 1.92605 12.005 1.92605C10.7271 1.92605 9.47839 2.30794 8.4191 3.02271C7.35981 3.73747 6.5383 4.75249 6.06 5.93749C6.039 5.93849 6.021 5.92749 6 5.92749H2V1.92749C2 1.66227 1.89464 1.40792 1.70711 1.22038C1.51957 1.03285 1.26522 0.92749 1 0.92749C0.734784 0.92749 0.48043 1.03285 0.292893 1.22038C0.105357 1.40792 0 1.66227 0 1.92749L0 5.92749C0 6.45792 0.210714 6.96663 0.585786 7.3417C0.960859 7.71678 1.46957 7.92749 2 7.92749H5.485L4.472 11.9275H1C0.734784 11.9275 0.48043 12.0328 0.292893 12.2204C0.105357 12.4079 0 12.6623 0 12.9275C0 13.1927 0.105357 13.4471 0.292893 13.6346C0.48043 13.8221 0.734784 13.9275 1 13.9275H3.965L3.82 14.5005L3.8 14.6275C3.75541 14.9697 3.73203 15.3144 3.73 15.6595C3.73101 16.4269 3.83974 17.1903 4.053 17.9275H2C1.46957 17.9275 0.960859 18.1382 0.585786 18.5133C0.210714 18.8883 0 19.3971 0 19.9275L0 23.9275C0 24.1927 0.105357 24.4471 0.292893 24.6346C0.48043 24.8221 0.734784 24.9275 1 24.9275C1.26522 24.9275 1.51957 24.8221 1.70711 24.6346C1.89464 24.4471 2 24.1927 2 23.9275V19.9275H4.93C5.66311 21.1476 6.69952 22.1573 7.93842 22.8582C9.17732 23.5592 10.5765 23.9276 12 23.9276C13.4235 23.9276 14.8227 23.5592 16.0616 22.8582C17.3005 22.1573 18.3369 21.1476 19.07 19.9275H22V23.9275C22 24.1927 22.1054 24.4471 22.2929 24.6346C22.4804 24.8221 22.7348 24.9275 23 24.9275C23.2652 24.9275 23.5196 24.8221 23.7071 24.6346C23.8946 24.4471 24 24.1927 24 23.9275V19.9275C24 19.3971 23.7893 18.8883 23.4142 18.5133C23.0391 18.1382 22.5304 17.9275 22 17.9275H19.947C20.1614 17.1888 20.2708 16.4236 20.272 15.6545C20.2691 15.311 20.2451 14.968 20.2 14.6275L20.025 13.9275H23C23.2652 13.9275 23.5196 13.8221 23.7071 13.6346C23.8946 13.4471 24 13.1927 24 12.9275C24 12.6623 23.8946 12.4079 23.7071 12.2204C23.5196 12.0328 23.2652 11.9275 23 11.9275H19.522L18.513 7.92749H22ZM12 21.9275C10.337 21.9256 8.74257 21.2641 7.56672 20.0881C6.39086 18.912 5.72959 17.3175 5.728 15.6545C5.72938 15.4114 5.74507 15.1687 5.775 14.9275L7.805 6.89749C8.10966 6.03259 8.67418 5.28299 9.42129 4.7513C10.1684 4.21961 11.0616 3.93183 11.9786 3.92734C12.8955 3.92285 13.7915 4.20188 14.5438 4.72623C15.2961 5.25058 15.8679 5.99462 16.181 6.85649L18.225 14.9275C18.2549 15.168 18.2705 15.4101 18.272 15.6525C18.2709 17.3159 17.6099 18.9109 16.434 20.0874C15.2581 21.2638 13.6634 21.9256 12 21.9275Z" fill="#374957"/>
</g>
<defs>
<clipPath id="clip0_507_1923">
<rect width="24" height="24" fill="white" transform="translate(0 0.92749)"/>
</clipPath>
</defs>
</svg>
