<svg width="24" height="25" viewBox="0 0 24 25" fill="none" xmlns="http://www.w3.org/2000/svg">
<g clip-path="url(#clip0_507_1916)">
<path d="M19 0.92749H5C3.67441 0.929078 2.40356 1.45637 1.46622 2.39371C0.528882 3.33105 0.00158786 4.6019 0 5.92749L0 19.9275C0.00158786 21.2531 0.528882 22.5239 1.46622 23.4613C2.40356 24.3986 3.67441 24.9259 5 24.9275H19C20.3256 24.9259 21.5964 24.3986 22.5338 23.4613C23.4711 22.5239 23.9984 21.2531 24 19.9275V5.92749C23.9984 4.6019 23.4711 3.33105 22.5338 2.39371C21.5964 1.45637 20.3256 0.929078 19 0.92749V0.92749ZM22 5.92749H15V2.92749H19C19.7956 2.92749 20.5587 3.24356 21.1213 3.80617C21.6839 4.36878 22 5.13184 22 5.92749ZM11 2.92749H13V7.92749C13 8.19271 12.8946 8.44706 12.7071 8.6346C12.5196 8.82213 12.2652 8.92749 12 8.92749C11.7348 8.92749 11.4804 8.82213 11.2929 8.6346C11.1054 8.44706 11 8.19271 11 7.92749V2.92749ZM5 2.92749H9V5.92749H2C2 5.13184 2.31607 4.36878 2.87868 3.80617C3.44129 3.24356 4.20435 2.92749 5 2.92749ZM19 22.9275H5C4.20435 22.9275 3.44129 22.6114 2.87868 22.0488C2.31607 21.4862 2 20.7231 2 19.9275V7.92749H9C9 8.72314 9.31607 9.4862 9.87868 10.0488C10.4413 10.6114 11.2044 10.9275 12 10.9275C12.7956 10.9275 13.5587 10.6114 14.1213 10.0488C14.6839 9.4862 15 8.72314 15 7.92749H22V19.9275C22 20.7231 21.6839 21.4862 21.1213 22.0488C20.5587 22.6114 19.7956 22.9275 19 22.9275ZM20 19.9275C20 20.1927 19.8946 20.4471 19.7071 20.6346C19.5196 20.8221 19.2652 20.9275 19 20.9275H16C15.7348 20.9275 15.4804 20.8221 15.2929 20.6346C15.1054 20.4471 15 20.1927 15 19.9275C15 19.6623 15.1054 19.4079 15.2929 19.2204C15.4804 19.0328 15.7348 18.9275 16 18.9275H19C19.2652 18.9275 19.5196 19.0328 19.7071 19.2204C19.8946 19.4079 20 19.6623 20 19.9275Z" fill="#374957"/>
</g>
<defs>
<clipPath id="clip0_507_1916">
<rect width="24" height="24" fill="white" transform="translate(0 0.92749)"/>
</clipPath>
</defs>
</svg>
