<svg width="24" height="25" viewBox="0 0 24 25" fill="none" xmlns="http://www.w3.org/2000/svg">
<g clip-path="url(#clip0_507_2337)">
<path d="M17 24.9274C15.6156 24.9274 14.2622 24.5169 13.111 23.7477C11.9599 22.9786 11.0627 21.8853 10.5329 20.6062C10.0031 19.3271 9.86444 17.9197 10.1345 16.5618C10.4046 15.2039 11.0713 13.9567 12.0503 12.9777C13.0293 11.9987 14.2765 11.332 15.6344 11.0619C16.9923 10.7918 18.3997 10.9305 19.6788 11.4603C20.9579 11.9901 22.0512 12.8873 22.8203 14.0384C23.5895 15.1896 24 16.543 24 17.9274C23.9979 19.7833 23.2597 21.5625 21.9474 22.8748C20.6352 24.1871 18.8559 24.9253 17 24.9274ZM17 12.9274C16.0111 12.9274 15.0444 13.2207 14.2222 13.7701C13.3999 14.3195 12.7591 15.1004 12.3806 16.014C12.0022 16.9276 11.9032 17.933 12.0961 18.9029C12.289 19.8728 12.7652 20.7637 13.4645 21.463C14.1638 22.1622 15.0547 22.6384 16.0246 22.8314C16.9945 23.0243 17.9998 22.9253 18.9135 22.5468C19.8271 22.1684 20.608 21.5275 21.1574 20.7053C21.7068 19.883 22 18.9163 22 17.9274C21.9985 16.6018 21.4712 15.331 20.5338 14.3937C19.5965 13.4563 18.3256 12.929 17 12.9274ZM18.707 19.6344C18.8945 19.4469 18.9998 19.1926 18.9998 18.9274C18.9998 18.6623 18.8945 18.408 18.707 18.2204L18 17.5134V15.9274C18 15.6622 17.8947 15.4079 17.7071 15.2203C17.5196 15.0328 17.2653 14.9274 17 14.9274C16.7348 14.9274 16.4805 15.0328 16.2929 15.2203C16.1054 15.4079 16 15.6622 16 15.9274V17.9274C16.0001 18.1926 16.1055 18.4469 16.293 18.6344L17.293 19.6344C17.4806 19.8219 17.7349 19.9272 18 19.9272C18.2652 19.9272 18.5195 19.8219 18.707 19.6344ZM2.00004 23.9274C2.00256 22.09 2.61472 20.3054 3.74054 18.8533C4.86636 17.4012 6.4422 16.3637 8.22104 15.9034C8.34921 15.8744 8.47041 15.8204 8.57771 15.7446C8.68502 15.6687 8.77634 15.5725 8.84645 15.4613C8.91655 15.3501 8.96408 15.2263 8.98632 15.0968C9.00855 14.9672 9.00506 14.8346 8.97604 14.7064C8.94702 14.5783 8.89303 14.4571 8.81717 14.3498C8.74131 14.2424 8.64506 14.1511 8.5339 14.081C8.42275 14.0109 8.29888 13.9634 8.16936 13.9412C8.03984 13.9189 7.90721 13.9224 7.77904 13.9514C5.55008 14.4984 3.5703 15.7801 2.15901 17.59C0.747718 19.3999 -0.0128247 21.6324 3.84534e-05 23.9274C3.84534e-05 24.1926 0.105395 24.447 0.292932 24.6345C0.480468 24.8221 0.734822 24.9274 1.00004 24.9274C1.26525 24.9274 1.51961 24.8221 1.70715 24.6345C1.89468 24.447 2.00004 24.1926 2.00004 23.9274ZM8.47404 11.9274C7.38624 11.9274 6.32287 11.6049 5.4184 11.0005C4.51393 10.3962 3.80898 9.53718 3.3927 8.53219C2.97642 7.5272 2.8675 6.42133 3.07972 5.35444C3.29194 4.28754 3.81576 3.30753 4.58495 2.53834C5.35414 1.76916 6.33415 1.24533 7.40104 1.03311C8.46794 0.820894 9.5738 0.929812 10.5788 1.34609C11.5838 1.76238 12.4428 2.46733 13.0471 3.3718C13.6515 4.27627 13.974 5.33963 13.974 6.42743C13.9725 7.88564 13.3925 9.28366 12.3614 10.3148C11.3303 11.3459 9.93224 11.9258 8.47404 11.9274ZM8.47404 2.92743C7.7818 2.92743 7.10511 3.1327 6.52954 3.51729C5.95397 3.90187 5.50537 4.4485 5.24046 5.08804C4.97555 5.72758 4.90624 6.43131 5.04129 7.11025C5.17634 7.78918 5.50968 8.41282 5.99917 8.90231C6.48865 9.39179 7.11229 9.72513 7.79122 9.86018C8.47016 9.99523 9.17389 9.92592 9.81343 9.66101C10.453 9.3961 10.9996 8.9475 11.3842 8.37193C11.7688 7.79636 11.974 7.11967 11.974 6.42743C11.974 5.49917 11.6053 4.60894 10.9489 3.95256C10.2925 3.29618 9.4023 2.92743 8.47404 2.92743Z" fill="#374957"/>
</g>
<defs>
<clipPath id="clip0_507_2337">
<rect width="24" height="24" fill="white" transform="translate(0 0.92749)"/>
</clipPath>
</defs>
</svg>
