<svg width="24" height="25" viewBox="0 0 24 25" fill="none" xmlns="http://www.w3.org/2000/svg">
<g clip-path="url(#clip0_507_1931)">
<path d="M17.7621 24.9275C9.63112 25.2025 -5.01686 10.6725 1.78413 2.79447L2.93413 1.79447C3.51625 1.23173 4.29654 0.920843 5.10615 0.929077C5.91576 0.937312 6.68957 1.26401 7.26012 1.83847C7.29096 1.86987 7.31969 1.90328 7.34612 1.93847L9.14612 4.27747C9.69314 4.8563 9.99708 5.62304 9.99522 6.41946C9.99336 7.21588 9.68584 7.98119 9.13612 8.55747L7.97812 10.0135C8.61924 11.5705 9.56154 12.9857 10.7509 14.1776C11.9403 15.3696 13.3534 16.315 14.9091 16.9595L16.3731 15.7945C16.9569 15.2583 17.7203 14.9603 18.5129 14.9592C19.3056 14.9581 20.0698 15.254 20.6551 15.7885L22.9951 17.5885C23.0301 17.6148 23.0634 17.6432 23.0951 17.6735C23.6722 18.2559 23.9959 19.0426 23.9959 19.8625C23.9959 20.6824 23.6722 21.4691 23.0951 22.0515L22.1841 23.1015C21.6063 23.6856 20.9173 24.1482 20.1578 24.4618C19.3983 24.7754 18.5838 24.9337 17.7621 24.9275ZM5.07112 2.92747C4.92742 2.92735 4.78509 2.95556 4.65229 3.01046C4.51948 3.06537 4.3988 3.1459 4.29712 3.24747L3.14613 4.24747C-2.49987 11.0355 14.7771 27.3505 20.7201 21.7355L21.6321 20.6845C21.7405 20.588 21.8288 20.471 21.8918 20.3402C21.9548 20.2095 21.9913 20.0676 21.9992 19.9227C22.0071 19.7777 21.9862 19.6327 21.9378 19.4959C21.8894 19.3591 21.8144 19.2332 21.7171 19.1255L19.3901 17.3385C19.3545 17.3122 19.321 17.2831 19.2901 17.2515C19.0815 17.0527 18.8043 16.9418 18.5161 16.9418C18.2279 16.9418 17.9508 17.0527 17.7421 17.2515C17.7156 17.2784 17.6875 17.3037 17.6581 17.3275L15.7001 18.8875C15.5642 18.9957 15.4024 19.0666 15.2308 19.0932C15.0591 19.1199 14.8834 19.1014 14.7211 19.0395C12.7052 18.2885 10.8743 17.113 9.35242 15.5926C7.83051 14.0723 6.65316 12.2426 5.90012 10.2275C5.83346 10.0628 5.81184 9.88342 5.8375 9.70767C5.86316 9.53191 5.93517 9.36617 6.04612 9.22747L7.60012 7.27147C7.62323 7.24184 7.64829 7.21378 7.67512 7.18747C7.87939 6.98145 7.994 6.70308 7.994 6.41297C7.994 6.12285 7.87939 5.84448 7.67512 5.63847C7.64395 5.60737 7.6152 5.57394 7.58912 5.53847L5.80612 3.21447C5.60466 3.03243 5.34265 2.93191 5.07112 2.93247V2.92747ZM22.5641 13.5035C27.5541 6.15847 18.7641 -2.62254 11.4271 2.36647C11.3165 2.44034 11.2217 2.53555 11.1483 2.64651C11.0749 2.75748 11.0244 2.88197 10.9997 3.0127C10.9751 3.14344 10.9767 3.27777 11.0046 3.40785C11.0325 3.53793 11.0861 3.66114 11.1622 3.77025C11.2383 3.87937 11.3355 3.9722 11.4479 4.04331C11.5603 4.11441 11.6858 4.16237 11.817 4.18437C11.9482 4.20637 12.0825 4.20196 12.212 4.17142C12.3415 4.14087 12.4636 4.08479 12.5711 4.00647C18.0451 0.247465 24.6811 6.89047 20.9241 12.3605C20.8441 12.4679 20.7865 12.5903 20.7547 12.7205C20.7229 12.8506 20.7176 12.9858 20.7391 13.1181C20.7605 13.2503 20.8084 13.3769 20.8797 13.4903C20.951 13.6037 21.0444 13.7016 21.1544 13.7782C21.2643 13.8548 21.3884 13.9085 21.5195 13.9362C21.6506 13.9639 21.7859 13.9649 21.9174 13.9393C22.0489 13.9137 22.1739 13.8619 22.285 13.787C22.3961 13.7122 22.491 13.6157 22.5641 13.5035ZM18.7061 11.6385C18.8936 11.4509 18.9989 11.1966 18.9989 10.9315C18.9989 10.6663 18.8936 10.412 18.7061 10.2245L17.0001 8.51747V5.92747C17.0001 5.66225 16.8948 5.4079 16.7072 5.22036C16.5197 5.03282 16.2653 4.92747 16.0001 4.92747C15.7349 4.92747 15.4805 5.03282 15.293 5.22036C15.1055 5.4079 15.0001 5.66225 15.0001 5.92747V8.92747C15.0002 9.19266 15.1056 9.44697 15.2931 9.63447L17.2931 11.6345C17.4806 11.8219 17.7349 11.9273 18.0001 11.9273C18.2653 11.9273 18.5196 11.8219 18.7071 11.6345L18.7061 11.6385Z" fill="#374957"/>
</g>
<defs>
<clipPath id="clip0_507_1931">
<rect width="24" height="24" fill="white" transform="translate(0 0.92749)"/>
</clipPath>
</defs>
</svg>
