<svg width="24" height="25" viewBox="0 0 24 25" fill="none" xmlns="http://www.w3.org/2000/svg">
<g clip-path="url(#clip0_507_1884)">
<path d="M18.05 18.7175C17.9571 18.6238 17.8465 18.5494 17.7246 18.4986C17.6028 18.4478 17.472 18.4217 17.34 18.4217C17.208 18.4217 17.0773 18.4478 16.9555 18.4986C16.8336 18.5494 16.723 18.6238 16.63 18.7175L13 22.3475V1.92749C13 1.66227 12.8947 1.40792 12.7071 1.22038C12.5196 1.03285 12.2653 0.92749 12 0.92749V0.92749C11.7348 0.92749 11.4805 1.03285 11.2929 1.22038C11.1054 1.40792 11 1.66227 11 1.92749V22.3375L7.38004 18.7175C7.29432 18.6003 7.18412 18.5032 7.05708 18.4329C6.93005 18.3626 6.78922 18.3208 6.6444 18.3104C6.49958 18.3 6.35424 18.3213 6.21847 18.3727C6.0827 18.4242 5.95976 18.5046 5.85821 18.6084C5.75665 18.7121 5.67891 18.8368 5.63038 18.9736C5.58185 19.1104 5.56371 19.2562 5.57721 19.4008C5.5907 19.5453 5.63552 19.6852 5.70854 19.8107C5.78156 19.9362 5.88103 20.0443 6.00004 20.1275L9.92004 24.0475C10.4825 24.6093 11.245 24.9248 12.04 24.9248C12.835 24.9248 13.5975 24.6093 14.16 24.0475L18.08 20.1275C18.2624 19.9362 18.3615 19.6805 18.3559 19.4163C18.3503 19.1521 18.2403 18.9009 18.05 18.7175Z" fill="#374957"/>
</g>
<defs>
<clipPath id="clip0_507_1884">
<rect width="24" height="24" fill="white" transform="translate(0 0.92749)"/>
</clipPath>
</defs>
</svg>
