<svg width="24" height="25" viewBox="0 0 24 25" fill="none" xmlns="http://www.w3.org/2000/svg">
<g clip-path="url(#clip0_507_1859)">
<path d="M18.0001 0.92749H8.00012C7.02836 0.928769 6.07802 1.2132 5.26533 1.74599C4.45265 2.27878 3.81283 3.03685 3.42412 3.92749H2.00012C1.73491 3.92749 1.48055 4.03285 1.29302 4.22038C1.10548 4.40792 1.00012 4.66227 1.00012 4.92749C1.00012 5.19271 1.10548 5.44706 1.29302 5.6346C1.48055 5.82213 1.73491 5.92749 2.00012 5.92749H3.00012V7.92749H2.00012C1.73491 7.92749 1.48055 8.03285 1.29302 8.22038C1.10548 8.40792 1.00012 8.66227 1.00012 8.92749C1.00012 9.19271 1.10548 9.44706 1.29302 9.6346C1.48055 9.82213 1.73491 9.92749 2.00012 9.92749H3.00012V11.9275H2.00012C1.73491 11.9275 1.48055 12.0328 1.29302 12.2204C1.10548 12.4079 1.00012 12.6623 1.00012 12.9275C1.00012 13.1927 1.10548 13.4471 1.29302 13.6346C1.48055 13.8221 1.73491 13.9275 2.00012 13.9275H3.00012V15.9275H2.00012C1.73491 15.9275 1.48055 16.0328 1.29302 16.2204C1.10548 16.4079 1.00012 16.6623 1.00012 16.9275C1.00012 17.1927 1.10548 17.4471 1.29302 17.6346C1.48055 17.8221 1.73491 17.9275 2.00012 17.9275H3.00012V19.9275H2.00012C1.73491 19.9275 1.48055 20.0328 1.29302 20.2204C1.10548 20.4079 1.00012 20.6623 1.00012 20.9275C1.00012 21.1927 1.10548 21.4471 1.29302 21.6346C1.48055 21.8221 1.73491 21.9275 2.00012 21.9275H3.42412C3.81283 22.8181 4.45265 23.5762 5.26533 24.109C6.07802 24.6418 7.02836 24.9262 8.00012 24.9275H18.0001C19.3257 24.9259 20.5966 24.3986 21.5339 23.4613C22.4712 22.5239 22.9985 21.2531 23.0001 19.9275V5.92749C22.9985 4.6019 22.4712 3.33105 21.5339 2.39371C20.5966 1.45637 19.3257 0.929078 18.0001 0.92749V0.92749ZM21.0001 19.9275C21.0001 20.7231 20.6841 21.4862 20.1214 22.0488C19.5588 22.6114 18.7958 22.9275 18.0001 22.9275H8.00012C7.20447 22.9275 6.44141 22.6114 5.8788 22.0488C5.31619 21.4862 5.00012 20.7231 5.00012 19.9275V5.92749C5.00012 5.13184 5.31619 4.36878 5.8788 3.80617C6.44141 3.24356 7.20447 2.92749 8.00012 2.92749H18.0001C18.7958 2.92749 19.5588 3.24356 20.1214 3.80617C20.6841 4.36878 21.0001 5.13184 21.0001 5.92749V19.9275ZM13.0001 12.9275C13.7958 12.9275 14.5588 12.6114 15.1214 12.0488C15.6841 11.4862 16.0001 10.7231 16.0001 9.92749C16.0001 9.13184 15.6841 8.36878 15.1214 7.80617C14.5588 7.24356 13.7958 6.92749 13.0001 6.92749C12.2045 6.92749 11.4414 7.24356 10.8788 7.80617C10.3162 8.36878 10.0001 9.13184 10.0001 9.92749C10.0001 10.7231 10.3162 11.4862 10.8788 12.0488C11.4414 12.6114 12.2045 12.9275 13.0001 12.9275ZM18.0001 18.9275C18.0001 19.1927 17.8948 19.4471 17.7072 19.6346C17.5197 19.8221 17.2653 19.9275 17.0001 19.9275C16.7349 19.9275 16.4806 19.8221 16.293 19.6346C16.1055 19.4471 16.0001 19.1927 16.0001 18.9275C16.0001 18.1318 15.6841 17.3688 15.1214 16.8062C14.5588 16.2436 13.7958 15.9275 13.0001 15.9275C12.2045 15.9275 11.4414 16.2436 10.8788 16.8062C10.3162 17.3688 10.0001 18.1318 10.0001 18.9275C10.0001 19.1927 9.89476 19.4471 9.70723 19.6346C9.51969 19.8221 9.26534 19.9275 9.00012 19.9275C8.73491 19.9275 8.48055 19.8221 8.29302 19.6346C8.10548 19.4471 8.00012 19.1927 8.00012 18.9275C8.21112 12.3195 17.7911 12.3215 18.0001 18.9275Z" fill="#374957"/>
</g>
<defs>
<clipPath id="clip0_507_1859">
<rect width="24" height="24" fill="white" transform="translate(0 0.92749)"/>
</clipPath>
</defs>
</svg>
