<svg width="24" height="25" viewBox="0 0 24 25" fill="none" xmlns="http://www.w3.org/2000/svg">
<g clip-path="url(#clip0_507_2233)">
<path d="M23.7196 23.2277L17.7592 17.2673C21.2557 12.9911 20.6235 6.69005 16.3473 3.19365C12.071 -0.30276 5.77003 0.329303 2.27357 4.60557C-1.22288 8.88183 -0.590724 15.1829 3.68554 18.6793C7.36889 21.691 12.664 21.691 16.3473 18.6793L22.3077 24.6397C22.7044 25.0228 23.3366 25.0118 23.7197 24.6151C24.0934 24.2282 24.0934 23.6147 23.7196 23.2277ZM2.04389 10.9524C2.04389 6.54052 5.62045 2.96396 10.0324 2.96396C14.4443 2.96396 18.0209 6.54052 18.0209 10.9524C18.0209 15.3644 14.4443 18.9409 10.0324 18.9409C5.62251 18.936 2.04885 15.3623 2.04389 10.9524ZM12.0295 6.95818C11.2836 6.96155 10.5678 7.25354 10.0324 7.77301C9.49701 7.25358 8.78128 6.96155 8.03531 6.95818C6.32751 7.01733 4.98857 8.44552 5.03962 10.1536C5.03962 12.1507 7.0777 14.2107 8.78821 15.5857C9.51632 16.1656 10.5485 16.1656 11.2766 15.5857C12.9871 14.2107 15.0252 12.1507 15.0252 10.1536C15.0762 8.44552 13.7373 7.01733 12.0295 6.95818ZM10.0384 14.028C8.18704 12.5401 7.03668 11.0523 7.03668 10.1536C6.98685 9.54863 7.43118 9.01538 8.03526 8.95533C8.63929 9.01538 9.08367 9.54863 9.03384 10.1536C9.03384 10.7051 9.48088 11.1522 10.0324 11.1522C10.5839 11.1522 11.031 10.7051 11.031 10.1536C10.9812 9.54863 11.4255 9.01538 12.0296 8.95533C12.6336 9.01538 13.078 9.54863 13.0282 10.1536C13.0281 11.0523 11.8777 12.5401 10.0384 14.028Z" fill="#374957"/>
</g>
<defs>
<clipPath id="clip0_507_2233">
<rect width="24" height="24" fill="white" transform="translate(0 0.92749)"/>
</clipPath>
</defs>
</svg>
