<svg width="24" height="25" viewBox="0 0 24 25" fill="none" xmlns="http://www.w3.org/2000/svg">
<g clip-path="url(#clip0_507_2061)">
<path d="M10 10.9272C9.20435 10.9272 8.44129 11.2433 7.87868 11.8059C7.31607 12.3685 7 13.1315 7 13.9272C7 14.7228 7.31607 15.4859 7.87868 16.0485C8.44129 16.6111 9.20435 16.9272 10 16.9272H14C14.7956 16.9272 15.5587 16.6111 16.1213 16.0485C16.6839 15.4859 17 14.7228 17 13.9272C17 13.1315 16.6839 12.3685 16.1213 11.8059C15.5587 11.2433 14.7956 10.9272 14 10.9272H10ZM15 13.9272C15 14.1924 14.8946 14.4468 14.7071 14.6343C14.5196 14.8218 14.2652 14.9272 14 14.9272H10C9.73478 14.9272 9.48043 14.8218 9.29289 14.6343C9.10536 14.4468 9 14.1924 9 13.9272C9 13.662 9.10536 13.4076 9.29289 13.2201C9.48043 13.0325 9.73478 12.9272 10 12.9272H14C14.2652 12.9272 14.5196 13.0325 14.7071 13.2201C14.8946 13.4076 15 13.662 15 13.9272ZM17 19.9272C17 20.1924 16.8946 20.4468 16.7071 20.6343C16.5196 20.8218 16.2652 20.9272 16 20.9272H8C7.73478 20.9272 7.48043 20.8218 7.29289 20.6343C7.10536 20.4468 7 20.1924 7 19.9272C7 19.662 7.10536 19.4076 7.29289 19.2201C7.48043 19.0325 7.73478 18.9272 8 18.9272H16C16.2652 18.9272 16.5196 19.0325 16.7071 19.2201C16.8946 19.4076 17 19.662 17 19.9272ZM19.536 4.04819L17.878 2.39218C17.4149 1.92644 16.864 1.55715 16.2572 1.30568C15.6504 1.05422 14.9998 0.925572 14.343 0.927185H8C6.67441 0.928773 5.40356 1.45607 4.46622 2.3934C3.52888 3.33074 3.00159 4.60159 3 5.92719V19.9272C3.00159 21.2528 3.52888 22.5236 4.46622 23.461C5.40356 24.3983 6.67441 24.9256 8 24.9272H16C17.3256 24.9256 18.5964 24.3983 19.5338 23.461C20.4711 22.5236 20.9984 21.2528 21 19.9272V7.58419C21.0019 6.92727 20.8735 6.27651 20.6222 5.66955C20.3709 5.0626 20.0017 4.51152 19.536 4.04819ZM18.122 5.46218C18.2627 5.60461 18.3893 5.76034 18.5 5.92719H16V3.42719C16.1671 3.53671 16.3226 3.66304 16.464 3.80419L18.122 5.46218ZM19 19.9272C19 20.7228 18.6839 21.4859 18.1213 22.0485C17.5587 22.6111 16.7956 22.9272 16 22.9272H8C7.20435 22.9272 6.44129 22.6111 5.87868 22.0485C5.31607 21.4859 5 20.7228 5 19.9272V5.92719C5 5.13154 5.31607 4.36847 5.87868 3.80586C6.44129 3.24326 7.20435 2.92719 8 2.92719H14V5.92719C14 6.45762 14.2107 6.96633 14.5858 7.3414C14.9609 7.71647 15.4696 7.92719 16 7.92719H19V19.9272Z" fill="#374957"/>
</g>
<defs>
<clipPath id="clip0_507_2061">
<rect width="24" height="24" fill="white" transform="translate(0 0.92749)"/>
</clipPath>
</defs>
</svg>
