<svg width="24" height="25" viewBox="0 0 24 25" fill="none" xmlns="http://www.w3.org/2000/svg">
<g clip-path="url(#clip0_507_1899)">
<path d="M9 10.9276C9 10.7298 9.05865 10.5364 9.16853 10.372C9.27841 10.2075 9.43459 10.0794 9.61732 10.0037C9.80004 9.92798 10.0011 9.90818 10.1951 9.94677C10.3891 9.98535 10.5673 10.0806 10.7071 10.2204C10.847 10.3603 10.9422 10.5385 10.9808 10.7325C11.0194 10.9264 10.9996 11.1275 10.9239 11.3102C10.8482 11.493 10.72 11.6491 10.5556 11.759C10.3911 11.8689 10.1978 11.9276 10 11.9276C9.73478 11.9276 9.48043 11.8222 9.29289 11.6347C9.10536 11.4471 9 11.1928 9 10.9276ZM14 11.9276C14.1978 11.9276 14.3911 11.8689 14.5556 11.759C14.72 11.6491 14.8482 11.493 14.9239 11.3102C14.9996 11.1275 15.0194 10.9264 14.9808 10.7325C14.9422 10.5385 14.847 10.3603 14.7071 10.2204C14.5673 10.0806 14.3891 9.98535 14.1951 9.94677C14.0011 9.90818 13.8 9.92798 13.6173 10.0037C13.4346 10.0794 13.2784 10.2075 13.1685 10.372C13.0586 10.5364 13 10.7298 13 10.9276C13 11.1928 13.1054 11.4471 13.2929 11.6347C13.4804 11.8222 13.7348 11.9276 14 11.9276ZM10 13.9276C9.80222 13.9276 9.60888 13.9862 9.44443 14.0961C9.27998 14.206 9.15181 14.3621 9.07612 14.5449C9.00043 14.7276 8.98063 14.9287 9.01921 15.1226C9.0578 15.3166 9.15304 15.4948 9.29289 15.6347C9.43275 15.7745 9.61093 15.8698 9.80491 15.9083C9.99889 15.9469 10.2 15.9271 10.3827 15.8514C10.5654 15.7757 10.7216 15.6476 10.8315 15.4831C10.9414 15.3187 11 15.1253 11 14.9276C11 14.6623 10.8946 14.408 10.7071 14.2204C10.5196 14.0329 10.2652 13.9276 10 13.9276ZM14 15.9276C14.1978 15.9276 14.3911 15.8689 14.5556 15.759C14.72 15.6491 14.8482 15.493 14.9239 15.3102C14.9996 15.1275 15.0194 14.9264 14.9808 14.7325C14.9422 14.5385 14.847 14.3603 14.7071 14.2204C14.5673 14.0806 14.3891 13.9854 14.1951 13.9468C14.0011 13.9082 13.8 13.928 13.6173 14.0037C13.4346 14.0794 13.2784 14.2075 13.1685 14.372C13.0586 14.5364 13 14.7298 13 14.9276C13 15.1928 13.1054 15.4471 13.2929 15.6347C13.4804 15.8222 13.7348 15.9276 14 15.9276ZM24 10.9276V14.9276C23.9984 16.2531 23.4711 17.524 22.5338 18.4613C21.5964 19.3987 20.3256 19.926 19 19.9276H5C3.67441 19.926 2.40356 19.3987 1.46622 18.4613C0.528882 17.524 0.00158786 16.2531 0 14.9276L0 10.9276C0.00158786 9.60196 0.528882 8.33111 1.46622 7.39377C2.40356 6.45643 3.67441 5.92914 5 5.92755H19C20.3256 5.92914 21.5964 6.45643 22.5338 7.39377C23.4711 8.33111 23.9984 9.60196 24 10.9276ZM7 7.92755V17.9276H17V7.92755H7ZM5 17.9276V7.92755C4.20435 7.92755 3.44129 8.24362 2.87868 8.80623C2.31607 9.36884 2 10.1319 2 10.9276V14.9276C2 15.7232 2.31607 16.4863 2.87868 17.0489C3.44129 17.6115 4.20435 17.9276 5 17.9276ZM22 10.9276C22 10.1319 21.6839 9.36884 21.1213 8.80623C20.5587 8.24362 19.7956 7.92755 19 7.92755V17.9276C19.7956 17.9276 20.5587 17.6115 21.1213 17.0489C21.6839 16.4863 22 15.7232 22 14.9276V10.9276Z" fill="#374957"/>
</g>
<defs>
<clipPath id="clip0_507_1899">
<rect width="24" height="24" fill="white" transform="translate(0 0.92749)"/>
</clipPath>
</defs>
</svg>
