<svg width="24" height="25" viewBox="0 0 24 25" fill="none" xmlns="http://www.w3.org/2000/svg">
<g clip-path="url(#clip0_507_2144)">
<path d="M16 7.92722L15.977 6.75022C16.648 6.52072 17.2158 6.06032 17.5789 5.45112C17.942 4.84193 18.0769 4.12355 17.9595 3.42412C17.8422 2.72469 17.4802 2.08969 16.9381 1.63236C16.3961 1.17504 15.7092 0.925136 15 0.92722H9C8.29317 0.925881 7.60868 1.17474 7.06776 1.62972C6.52683 2.0847 6.16439 2.71644 6.04461 3.41304C5.92484 4.10965 6.05547 4.82617 6.41336 5.43569C6.77126 6.04521 7.33332 6.5084 8 6.74322V7.92722C6.67441 7.92881 5.40356 8.4561 4.46622 9.39344C3.52888 10.3308 3.00159 11.6016 3 12.9272V19.9272C3.00159 21.2528 3.52888 22.5237 4.46622 23.461C5.40356 24.3983 6.67441 24.9256 8 24.9272H16C17.3256 24.9256 18.5964 24.3983 19.5338 23.461C20.4711 22.5237 20.9984 21.2528 21 19.9272V12.9272C20.9984 11.6016 20.4711 10.3308 19.5338 9.39344C18.5964 8.4561 17.3256 7.92881 16 7.92722ZM9 2.92722H15C15.2652 2.92722 15.5196 3.03258 15.7071 3.22011C15.8946 3.40765 16 3.662 16 3.92722C16 4.19244 15.8946 4.44679 15.7071 4.63433C15.5196 4.82186 15.2652 4.92722 15 4.92722H9C8.73478 4.92722 8.48043 4.82186 8.29289 4.63433C8.10536 4.44679 8 4.19244 8 3.92722C8 3.662 8.10536 3.40765 8.29289 3.22011C8.48043 3.03258 8.73478 2.92722 9 2.92722ZM19 19.9272C19 20.7229 18.6839 21.4859 18.1213 22.0485C17.5587 22.6112 16.7956 22.9272 16 22.9272H8C7.20435 22.9272 6.44129 22.6112 5.87868 22.0485C5.31607 21.4859 5 20.7229 5 19.9272V12.9272C5 12.1316 5.31607 11.3685 5.87868 10.8059C6.44129 10.2433 7.20435 9.92722 8 9.92722H9C9.26522 9.92722 9.51957 9.82186 9.70711 9.63433C9.89464 9.44679 10 9.19244 10 8.92722V6.92722H13.973L14 8.94122C14.0037 9.204 14.1107 9.45478 14.2978 9.63929C14.4849 9.82381 14.7372 9.92725 15 9.92722H16C16.7956 9.92722 17.5587 10.2433 18.1213 10.8059C18.6839 11.3685 19 12.1316 19 12.9272V19.9272ZM16 15.9272C16 16.1924 15.8946 16.4468 15.7071 16.6343C15.5196 16.8219 15.2652 16.9272 15 16.9272H13V18.9272C13 19.1924 12.8946 19.4468 12.7071 19.6343C12.5196 19.8219 12.2652 19.9272 12 19.9272C11.7348 19.9272 11.4804 19.8219 11.2929 19.6343C11.1054 19.4468 11 19.1924 11 18.9272V16.9272H9C8.73478 16.9272 8.48043 16.8219 8.29289 16.6343C8.10536 16.4468 8 16.1924 8 15.9272C8 15.662 8.10536 15.4077 8.29289 15.2201C8.48043 15.0326 8.73478 14.9272 9 14.9272H11V12.9272C11 12.662 11.1054 12.4077 11.2929 12.2201C11.4804 12.0326 11.7348 11.9272 12 11.9272C12.2652 11.9272 12.5196 12.0326 12.7071 12.2201C12.8946 12.4077 13 12.662 13 12.9272V14.9272H15C15.2652 14.9272 15.5196 15.0326 15.7071 15.2201C15.8946 15.4077 16 15.662 16 15.9272Z" fill="#374957"/>
</g>
<defs>
<clipPath id="clip0_507_2144">
<rect width="24" height="24" fill="white" transform="translate(0 0.92749)"/>
</clipPath>
</defs>
</svg>
