<svg width="24" height="25" viewBox="0 0 24 25" fill="none" xmlns="http://www.w3.org/2000/svg">
<g clip-path="url(#clip0_507_2323)">
<path d="M20.4672 18.2274C20.4462 18.1974 18.9102 16.4124 18.9102 16.4124C19.4683 16.0012 19.8446 15.3891 19.9595 14.7055C20.0745 14.022 19.9191 13.3205 19.5262 12.7494C19.5012 12.7134 17.6412 10.6584 17.6412 10.6584C18.1064 10.4237 18.4858 10.0482 18.7252 9.58537C18.9311 9.18889 19.0236 8.74329 18.9925 8.29761C18.9615 7.85194 18.8081 7.42347 18.5492 7.05937C18.5282 7.02737 13.8862 1.77337 13.8862 1.77337C13.6427 1.51857 13.35 1.31576 13.026 1.17719C12.7019 1.03863 12.3531 0.967194 12.0007 0.967194C11.6482 0.967194 11.2994 1.03863 10.9754 1.17719C10.6513 1.31576 10.3587 1.51857 10.1152 1.77337C10.1152 1.77337 5.47217 7.02737 5.45117 7.05737C5.19228 7.42147 5.03886 7.84994 5.00781 8.29561C4.97676 8.74129 5.06927 9.18689 5.27517 9.58337C5.51453 10.0462 5.89389 10.4217 6.35917 10.6564C6.35917 10.6564 4.50017 12.7114 4.47417 12.7474C4.08126 13.3185 3.92586 14.02 4.04082 14.7035C4.15577 15.3871 4.53208 15.9992 5.09017 16.4104C5.09017 16.4104 3.55417 18.1954 3.53317 18.2274C3.22361 18.6775 3.04283 19.2035 3.01032 19.7488C2.97781 20.2941 3.09481 20.838 3.3487 21.3217C3.60258 21.8053 3.98371 22.2105 4.45098 22.4935C4.91824 22.7765 5.4539 22.9265 6.00017 22.9274H11.0002V23.9274C11.0002 24.1926 11.1055 24.4469 11.2931 24.6345C11.4806 24.822 11.735 24.9274 12.0002 24.9274C12.2654 24.9274 12.5197 24.822 12.7073 24.6345C12.8948 24.4469 13.0002 24.1926 13.0002 23.9274V22.9274H18.0002C18.5468 22.9272 19.083 22.7777 19.5508 22.4951C20.0186 22.2124 20.4003 21.8072 20.6547 21.3234C20.9091 20.8396 21.0264 20.2955 20.9941 19.7498C20.9617 19.2042 20.7809 18.6777 20.4712 18.2274H20.4672ZM18.8822 20.3944C18.7987 20.556 18.6721 20.6913 18.5164 20.7854C18.3608 20.8795 18.1821 20.9286 18.0002 20.9274H6.00017C5.82165 20.9276 5.64631 20.8801 5.49237 20.7897C5.33844 20.6993 5.21151 20.5693 5.12477 20.4133C5.03802 20.2572 4.99463 20.0808 4.9991 19.9024C5.00357 19.7239 5.05573 19.5499 5.15017 19.3984L7.28517 16.9274H13.0002C13.2654 16.9274 13.5197 16.822 13.7073 16.6345C13.8948 16.4469 14.0002 16.1926 14.0002 15.9274C14.0002 15.6622 13.8948 15.4078 13.7073 15.2203C13.5197 15.0327 13.2654 14.9274 13.0002 14.9274H6.67017C6.55313 14.9274 6.43814 14.8966 6.33677 14.8381C6.23539 14.7796 6.15119 14.6955 6.09262 14.5942C6.03405 14.4928 6.00317 14.3779 6.00309 14.2608C6.00302 14.1438 6.03373 14.0288 6.09217 13.9274L8.81417 10.9274H12.0002C12.2654 10.9274 12.5197 10.822 12.7073 10.6345C12.8948 10.4469 13.0002 10.1926 13.0002 9.92737C13.0002 9.66216 12.8948 9.4078 12.7073 9.22027C12.5197 9.03273 12.2654 8.92737 12.0002 8.92737H7.50017C7.4077 8.93065 7.3162 8.90757 7.23635 8.86083C7.1565 8.81409 7.09158 8.74561 7.04917 8.66337C7.01379 8.59902 6.99608 8.52644 6.99784 8.45303C6.99959 8.37961 7.02075 8.30796 7.05917 8.24537L11.6112 3.09637C11.6589 3.04046 11.7181 2.99556 11.7848 2.96478C11.8516 2.93399 11.9242 2.91804 11.9977 2.91804C12.0712 2.91804 12.1438 2.93399 12.2105 2.96478C12.2772 2.99556 12.3365 3.04046 12.3842 3.09637L16.9342 8.24437C16.9728 8.30684 16.9942 8.37845 16.9962 8.45189C16.9981 8.52533 16.9805 8.59796 16.9452 8.66237C16.9033 8.74385 16.8394 8.81192 16.7607 8.85878C16.682 8.90564 16.5917 8.92941 16.5002 8.92737H15.6322C15.4397 8.93003 15.252 8.98786 15.0914 9.09399C14.9308 9.20012 14.804 9.3501 14.7261 9.52613C14.6482 9.70216 14.6225 9.89685 14.6519 10.0871C14.6813 10.2773 14.7647 10.4551 14.8922 10.5994L17.9082 13.9274C17.9666 14.0288 17.9973 14.1438 17.9972 14.2608C17.9972 14.3779 17.9663 14.4928 17.9077 14.5942C17.8491 14.6955 17.7649 14.7796 17.6636 14.8381C17.5622 14.8966 17.4472 14.9274 17.3302 14.9274H17.1732C16.9829 14.9303 16.7974 14.987 16.6381 15.091C16.4788 15.195 16.3522 15.342 16.273 15.515C16.1938 15.6879 16.1652 15.8798 16.1905 16.0684C16.2159 16.2569 16.2941 16.4344 16.4162 16.5804L18.8462 19.3984C18.9404 19.5457 18.9935 19.7157 18.9998 19.8905C19.0061 20.0653 18.9655 20.2386 18.8822 20.3924V20.3944Z" fill="#374957"/>
</g>
<defs>
<clipPath id="clip0_507_2323">
<rect width="24" height="24" fill="white" transform="translate(0 0.92749)"/>
</clipPath>
</defs>
</svg>
