<svg width="24" height="25" viewBox="0 0 24 25" fill="none" xmlns="http://www.w3.org/2000/svg">
<g clip-path="url(#clip0_507_2124)">
<path d="M3.99993 6.92761C3.60568 6.92864 3.21514 6.85149 2.8509 6.70061C2.48667 6.54973 2.15597 6.32813 1.87793 6.04861L0.333929 4.67461C0.135812 4.49798 0.0159778 4.24987 0.000787327 3.98489C-0.0144031 3.7199 0.076295 3.45973 0.252929 3.26161C0.429563 3.06349 0.677665 2.94366 0.942654 2.92847C1.20764 2.91328 1.46781 3.00398 1.66593 3.18061L3.25093 4.59461C3.34167 4.69651 3.45229 4.77876 3.57601 4.8363C3.69972 4.89384 3.8339 4.92546 3.97029 4.92921C4.10668 4.93295 4.24239 4.90875 4.36907 4.85809C4.49576 4.80742 4.61074 4.73137 4.70693 4.63461L8.31093 1.20361C8.50472 1.03108 8.75799 0.940629 9.01723 0.951361C9.27648 0.962093 9.5214 1.07317 9.70027 1.26112C9.87914 1.44908 9.97795 1.6992 9.97584 1.95866C9.97372 2.21812 9.87084 2.4666 9.68893 2.65161L6.09993 6.06561C5.8237 6.34023 5.49605 6.55771 5.13572 6.70562C4.77539 6.85352 4.38944 6.92896 3.99993 6.92761ZM23.9999 4.92761C23.9999 4.66239 23.8946 4.40804 23.707 4.2205C23.5195 4.03297 23.2651 3.92761 22.9999 3.92761H12.9999C12.7347 3.92761 12.4804 4.03297 12.2928 4.2205C12.1053 4.40804 11.9999 4.66239 11.9999 4.92761C11.9999 5.19283 12.1053 5.44718 12.2928 5.63472C12.4804 5.82225 12.7347 5.92761 12.9999 5.92761H22.9999C23.2651 5.92761 23.5195 5.82225 23.707 5.63472C23.8946 5.44718 23.9999 5.19283 23.9999 4.92761ZM6.09993 14.0656L9.68893 10.6516C9.7891 10.5624 9.87031 10.454 9.92772 10.3328C9.98514 10.2116 10.0176 10.0801 10.0231 9.94608C10.0287 9.81207 10.0072 9.67833 9.96002 9.55279C9.91282 9.42725 9.84085 9.31249 9.74839 9.21533C9.65593 9.11818 9.54487 9.04062 9.42183 8.98726C9.29878 8.9339 9.16626 8.90584 9.03214 8.90475C8.89803 8.90366 8.76507 8.92955 8.64117 8.98089C8.51727 9.03224 8.40496 9.10798 8.31093 9.20361L4.71093 12.6346C4.52056 12.8166 4.26732 12.9182 4.00393 12.9182C3.74054 12.9182 3.4873 12.8166 3.29693 12.6346L1.70693 11.0496C1.51833 10.8675 1.26572 10.7667 1.00353 10.7689C0.741331 10.7712 0.490519 10.8764 0.305111 11.0618C0.119703 11.2472 0.0145336 11.498 0.0122552 11.7602C0.00997675 12.0224 0.110771 12.275 0.292929 12.4636L1.87793 14.0486C2.4376 14.6084 3.19585 14.9243 3.98743 14.9275C4.77901 14.9307 5.53977 14.6209 6.10393 14.0656H6.09993ZM23.9999 12.9276C23.9999 12.6624 23.8946 12.408 23.707 12.2205C23.5195 12.033 23.2651 11.9276 22.9999 11.9276H12.9999C12.7347 11.9276 12.4804 12.033 12.2928 12.2205C12.1053 12.408 11.9999 12.6624 11.9999 12.9276C11.9999 13.1928 12.1053 13.4472 12.2928 13.6347C12.4804 13.8223 12.7347 13.9276 12.9999 13.9276H22.9999C23.2651 13.9276 23.5195 13.8223 23.707 13.6347C23.8946 13.4472 23.9999 13.1928 23.9999 12.9276ZM6.09993 22.0656L9.68493 18.6516C9.7851 18.5624 9.86631 18.454 9.92372 18.3328C9.98114 18.2116 10.0136 18.0801 10.0191 17.9461C10.0247 17.8121 10.0032 17.6783 9.95601 17.5528C9.90882 17.4273 9.83685 17.3125 9.74439 17.2153C9.65193 17.1182 9.54087 17.0406 9.41783 16.9873C9.29478 16.9339 9.16226 16.9058 9.02814 16.9047C8.89403 16.9037 8.76107 16.9296 8.63717 16.9809C8.51327 17.0322 8.40096 17.108 8.30693 17.2036L4.70693 20.6346C4.61074 20.7314 4.49576 20.8074 4.36907 20.8581C4.24239 20.9088 4.10668 20.933 3.97029 20.9292C3.8339 20.9255 3.69972 20.8938 3.57601 20.8363C3.45229 20.7788 3.34167 20.6965 3.25093 20.5946L1.66593 19.1806C1.46781 19.004 1.20764 18.9133 0.942654 18.9285C0.677665 18.9437 0.429563 19.0635 0.252929 19.2616C0.076295 19.4597 -0.0144031 19.7199 0.000787327 19.9849C0.0159778 20.2499 0.135812 20.498 0.333929 20.6746L1.87793 22.0486C2.4376 22.6084 3.19585 22.9243 3.98743 22.9275C4.77901 22.9307 5.53977 22.6209 6.10393 22.0656H6.09993ZM23.9999 20.9276C23.9999 20.6624 23.8946 20.408 23.707 20.2205C23.5195 20.033 23.2651 19.9276 22.9999 19.9276H12.9999C12.7347 19.9276 12.4804 20.033 12.2928 20.2205C12.1053 20.408 11.9999 20.6624 11.9999 20.9276C11.9999 21.1928 12.1053 21.4472 12.2928 21.6347C12.4804 21.8223 12.7347 21.9276 12.9999 21.9276H22.9999C23.2651 21.9276 23.5195 21.8223 23.707 21.6347C23.8946 21.4472 23.9999 21.1928 23.9999 20.9276Z" fill="#374957"/>
</g>
<defs>
<clipPath id="clip0_507_2124">
<rect width="24" height="24" fill="white" transform="translate(0 0.92749)"/>
</clipPath>
</defs>
</svg>
