<svg width="24" height="25" viewBox="0 0 24 25" fill="none" xmlns="http://www.w3.org/2000/svg">
<g clip-path="url(#clip0_507_2129)">
<path d="M19 8.92749H17V5.92749C17 4.60141 16.4732 3.32964 15.5355 2.39196C14.5979 1.45427 13.3261 0.92749 12 0.92749C10.6739 0.92749 9.40215 1.45427 8.46447 2.39196C7.52678 3.32964 7 4.60141 7 5.92749V8.92749H5C3.67441 8.92908 2.40356 9.45637 1.46622 10.3937C0.528882 11.331 0.00158786 12.6019 0 13.9275L0 17.9275C0.00127838 18.8993 0.285705 19.8496 0.818499 20.6623C1.35129 21.475 2.10936 22.1148 3 22.5035V23.9275C3 24.1927 3.10536 24.4471 3.29289 24.6346C3.48043 24.8221 3.73478 24.9275 4 24.9275C4.26522 24.9275 4.51957 24.8221 4.70711 24.6346C4.89464 24.4471 5 24.1927 5 23.9275V22.9275H19V23.9275C19 24.1927 19.1054 24.4471 19.2929 24.6346C19.4804 24.8221 19.7348 24.9275 20 24.9275C20.2652 24.9275 20.5196 24.8221 20.7071 24.6346C20.8946 24.4471 21 24.1927 21 23.9275V22.5035C21.8906 22.1148 22.6487 21.475 23.1815 20.6623C23.7143 19.8496 23.9987 18.8993 24 17.9275V13.9275C23.9984 12.6019 23.4711 11.331 22.5338 10.3937C21.5964 9.45637 20.3256 8.92908 19 8.92749ZM9 5.92749C9 5.13184 9.31607 4.36878 9.87868 3.80617C10.4413 3.24356 11.2044 2.92749 12 2.92749C12.7956 2.92749 13.5587 3.24356 14.1213 3.80617C14.6839 4.36878 15 5.13184 15 5.92749V8.92749H9V5.92749ZM22 17.9275C22 18.7231 21.6839 19.4862 21.1213 20.0488C20.5587 20.6114 19.7956 20.9275 19 20.9275H5C4.20435 20.9275 3.44129 20.6114 2.87868 20.0488C2.31607 19.4862 2 18.7231 2 17.9275V13.9275C2 13.1318 2.31607 12.3688 2.87868 11.8062C3.44129 11.2436 4.20435 10.9275 5 10.9275H19C19.7956 10.9275 20.5587 11.2436 21.1213 11.8062C21.6839 12.3688 22 13.1318 22 13.9275V17.9275ZM17 13.9275C17 14.1927 16.8946 14.4471 16.7071 14.6346C16.5196 14.8221 16.2652 14.9275 16 14.9275H8C7.73478 14.9275 7.48043 14.8221 7.29289 14.6346C7.10536 14.4471 7 14.1927 7 13.9275C7 13.6623 7.10536 13.4079 7.29289 13.2204C7.48043 13.0328 7.73478 12.9275 8 12.9275H16C16.2652 12.9275 16.5196 13.0328 16.7071 13.2204C16.8946 13.4079 17 13.6623 17 13.9275Z" fill="#374957"/>
</g>
<defs>
<clipPath id="clip0_507_2129">
<rect width="24" height="24" fill="white" transform="translate(0 0.92749)"/>
</clipPath>
</defs>
</svg>
