<svg width="24" height="25" viewBox="0 0 24 25" fill="none" xmlns="http://www.w3.org/2000/svg">
<g clip-path="url(#clip0_507_1858)">
<path d="M12 0.92749C9.62663 0.92749 7.30655 1.63128 5.33316 2.94986C3.35977 4.26843 1.8217 6.14258 0.913451 8.33529C0.00519943 10.528 -0.232441 12.9408 0.230582 15.2686C0.693605 17.5963 1.83649 19.7345 3.51472 21.4128C5.19295 23.091 7.33115 24.2339 9.65892 24.6969C11.9867 25.1599 14.3995 24.9223 16.5922 24.014C18.7849 23.1058 20.6591 21.5677 21.9776 19.5943C23.2962 17.6209 24 15.3009 24 12.9275C23.9966 9.74595 22.7312 6.6957 20.4815 4.44601C18.2318 2.19632 15.1815 0.930931 12 0.92749V0.92749ZM12 22.9275C10.0222 22.9275 8.08879 22.341 6.4443 21.2422C4.79981 20.1434 3.51809 18.5816 2.76121 16.7543C2.00433 14.9271 1.8063 12.9164 2.19215 10.9766C2.578 9.03678 3.53041 7.25495 4.92894 5.85642C6.32746 4.4579 8.10929 3.50549 10.0491 3.11964C11.9889 2.73379 13.9996 2.93182 15.8268 3.6887C17.6541 4.44557 19.2159 5.7273 20.3147 7.37179C21.4135 9.01628 22 10.9497 22 12.9275C21.9971 15.5788 20.9426 18.1206 19.0679 19.9953C17.1931 21.8701 14.6513 22.9246 12 22.9275ZM17 12.9275C17 13.1927 16.8946 13.4471 16.7071 13.6346C16.5196 13.8221 16.2652 13.9275 16 13.9275H13V16.9275C13 17.1927 12.8946 17.4471 12.7071 17.6346C12.5196 17.8221 12.2652 17.9275 12 17.9275C11.7348 17.9275 11.4804 17.8221 11.2929 17.6346C11.1054 17.4471 11 17.1927 11 16.9275V13.9275H8.00001C7.73479 13.9275 7.48043 13.8221 7.2929 13.6346C7.10536 13.4471 7.00001 13.1927 7.00001 12.9275C7.00001 12.6623 7.10536 12.4079 7.2929 12.2204C7.48043 12.0328 7.73479 11.9275 8.00001 11.9275H11V8.92749C11 8.66227 11.1054 8.40792 11.2929 8.22038C11.4804 8.03285 11.7348 7.92749 12 7.92749C12.2652 7.92749 12.5196 8.03285 12.7071 8.22038C12.8946 8.40792 13 8.66227 13 8.92749V11.9275H16C16.2652 11.9275 16.5196 12.0328 16.7071 12.2204C16.8946 12.4079 17 12.6623 17 12.9275Z" fill="#374957"/>
</g>
<defs>
<clipPath id="clip0_507_1858">
<rect width="24" height="24" fill="white" transform="translate(0 0.92749)"/>
</clipPath>
</defs>
</svg>
