<svg width="24" height="25" viewBox="0 0 24 25" fill="none" xmlns="http://www.w3.org/2000/svg">
<path d="M6.40987 16.9275H17.5899C17.7876 16.9267 17.9807 16.8672 18.1447 16.7567C18.3087 16.6461 18.4362 16.4894 18.5111 16.3064C18.5861 16.1233 18.605 15.9222 18.5656 15.7284C18.5263 15.5346 18.4303 15.3568 18.2899 15.2175L12.7099 9.63753C12.6169 9.54381 12.5063 9.46941 12.3844 9.41864C12.2626 9.36787 12.1319 9.34174 11.9999 9.34174C11.8679 9.34174 11.7372 9.36787 11.6153 9.41864C11.4934 9.46941 11.3828 9.54381 11.2899 9.63753L5.70987 15.2175C5.56945 15.3568 5.47348 15.5346 5.43409 15.7284C5.39471 15.9222 5.41368 16.1233 5.4886 16.3064C5.56353 16.4894 5.69104 16.6461 5.85503 16.7567C6.01901 16.8672 6.2121 16.9267 6.40987 16.9275Z" fill="#374957"/>
</svg>
