<svg width="24" height="25" viewBox="0 0 24 25" fill="none" xmlns="http://www.w3.org/2000/svg">
<g clip-path="url(#clip0_507_2267)">
<path d="M16 0.92749H8C6.67441 0.929078 5.40356 1.45637 4.46622 2.39371C3.52888 3.33105 3.00159 4.6019 3 5.92749V19.9275C3.00159 21.2531 3.52888 22.5239 4.46622 23.4613C5.40356 24.3986 6.67441 24.9259 8 24.9275H16C17.3256 24.9259 18.5964 24.3986 19.5338 23.4613C20.4711 22.5239 20.9984 21.2531 21 19.9275V5.92749C20.9984 4.6019 20.4711 3.33105 19.5338 2.39371C18.5964 1.45637 17.3256 0.929078 16 0.92749V0.92749ZM19 19.9275C19 20.7231 18.6839 21.4862 18.1213 22.0488C17.5587 22.6114 16.7956 22.9275 16 22.9275H8C7.20435 22.9275 6.44129 22.6114 5.87868 22.0488C5.31607 21.4862 5 20.7231 5 19.9275V5.92749C5 5.13184 5.31607 4.36878 5.87868 3.80617C6.44129 3.24356 7.20435 2.92749 8 2.92749H16C16.7956 2.92749 17.5587 3.24356 18.1213 3.80617C18.6839 4.36878 19 5.13184 19 5.92749V19.9275Z" fill="#374957"/>
<path d="M12 8.42749C12.8284 8.42749 13.5 7.75592 13.5 6.92749C13.5 6.09906 12.8284 5.42749 12 5.42749C11.1716 5.42749 10.5 6.09906 10.5 6.92749C10.5 7.75592 11.1716 8.42749 12 8.42749Z" fill="#374957"/>
<path d="M11.9998 10.9269C11.0109 10.9269 10.0442 11.2201 9.22191 11.7695C8.39966 12.3189 7.7588 13.0998 7.38036 14.0135C7.00192 14.9271 6.90291 15.9324 7.09583 16.9023C7.28876 17.8722 7.76496 18.7632 8.46422 19.4624C9.16349 20.1617 10.0544 20.6379 11.0243 20.8308C11.9942 21.0237 12.9995 20.9247 13.9132 20.5463C14.8268 20.1678 15.6077 19.527 16.1571 18.7047C16.7065 17.8825 16.9998 16.9158 16.9998 15.9269C16.9982 14.6013 16.4709 13.3304 15.5335 12.3931C14.5962 11.4558 13.3254 10.9285 11.9998 10.9269ZM11.9998 18.9269C11.4064 18.9269 10.8264 18.7509 10.333 18.4213C9.8397 18.0916 9.45518 17.6231 9.22812 17.0749C9.00106 16.5268 8.94165 15.9236 9.0574 15.3416C9.17316 14.7597 9.45888 14.2251 9.87844 13.8056C10.298 13.386 10.8325 13.1003 11.4145 12.9845C11.9964 12.8688 12.5996 12.9282 13.1478 13.1552C13.696 13.3823 14.1645 13.7668 14.4942 14.2602C14.8238 14.7535 14.9998 15.3335 14.9998 15.9269C14.9998 16.7225 14.6837 17.4856 14.1211 18.0482C13.5585 18.6108 12.7954 18.9269 11.9998 18.9269Z" fill="#374957"/>
<path d="M12.0001 16.9281C12.5524 16.9281 13.0001 16.4804 13.0001 15.9281C13.0001 15.3758 12.5524 14.9281 12.0001 14.9281C11.4478 14.9281 11.0001 15.3758 11.0001 15.9281C11.0001 16.4804 11.4478 16.9281 12.0001 16.9281Z" fill="#374957"/>
</g>
<defs>
<clipPath id="clip0_507_2267">
<rect width="24" height="24" fill="white" transform="translate(0 0.92749)"/>
</clipPath>
</defs>
</svg>
