<svg width="24" height="25" viewBox="0 0 24 25" fill="none" xmlns="http://www.w3.org/2000/svg">
<g clip-path="url(#clip0_507_2172)">
<path d="M23.1189 1.80951C22.7604 1.44664 22.3143 1.18237 21.8238 1.04223C21.3333 0.902089 20.815 0.890821 20.3189 1.00951L4.31889 4.37951C3.39746 4.50588 2.52962 4.88699 1.81309 5.47992C1.09656 6.07286 0.559801 6.85407 0.263263 7.73558C-0.033275 8.61708 -0.0778146 9.56388 0.13466 10.4693C0.347135 11.3748 0.808185 12.2029 1.46589 12.8605L3.18389 14.5775C3.27687 14.6705 3.35061 14.7808 3.40089 14.9023C3.45117 15.0238 3.47699 15.154 3.47689 15.2855V18.4535C3.47909 18.8989 3.58163 19.3382 3.77689 19.7385L3.76889 19.7455L3.79489 19.7715C4.0879 20.3606 4.56647 20.8371 5.15689 21.1275L5.18289 21.1535L5.18989 21.1455C5.59025 21.3408 6.02946 21.4433 6.47489 21.4455H9.64289C9.90794 21.4453 10.1622 21.5503 10.3499 21.7375L12.0669 23.4545C12.5274 23.9201 13.0755 24.29 13.6797 24.5428C14.2838 24.7956 14.932 24.9264 15.5869 24.9275C16.1326 24.9268 16.6747 24.8377 17.1919 24.6635C18.0653 24.3767 18.8413 23.8515 19.4321 23.1472C20.023 22.4429 20.4053 21.5875 20.5359 20.6775L23.9109 4.64251C24.0357 4.14215 24.0284 3.61793 23.8895 3.12127C23.7507 2.62462 23.4851 2.17258 23.1189 1.80951ZM4.59989 13.1655L2.88089 11.4485C2.48061 11.0579 2.20006 10.5612 2.07217 10.0167C1.94429 9.47218 1.97437 8.90251 2.15889 8.37451C2.33778 7.83284 2.66849 7.35394 3.11168 6.99477C3.55488 6.63561 4.0919 6.4113 4.65889 6.34851L20.4999 3.01351L5.47489 18.0405V15.2855C5.4764 14.8918 5.39985 14.5018 5.24966 14.1379C5.09947 13.774 4.87862 13.4435 4.59989 13.1655ZM18.5709 20.3355C18.4941 20.8878 18.2649 21.4079 17.909 21.8372C17.5531 22.2665 17.0846 22.5881 16.556 22.7659C16.0275 22.9437 15.4598 22.9706 14.9168 22.8438C14.3738 22.7169 13.8769 22.4411 13.4819 22.0475L11.7619 20.3275C11.4843 20.0484 11.154 19.827 10.7903 19.6763C10.4266 19.5256 10.0366 19.4485 9.64289 19.4495H6.88789L21.9149 4.42751L18.5709 20.3355Z" fill="#374957"/>
</g>
<defs>
<clipPath id="clip0_507_2172">
<rect width="24" height="24" fill="white" transform="translate(0 0.92749)"/>
</clipPath>
</defs>
</svg>
