<svg width="24" height="25" viewBox="0 0 24 25" fill="none" xmlns="http://www.w3.org/2000/svg">
<g clip-path="url(#clip0_507_2133)">
<path d="M8.33695 14.2498L10.6233 11.9634L8.33695 9.67705C7.94085 9.2945 7.92984 8.66324 8.31243 8.26714C8.69498 7.87105 9.32624 7.86004 9.72234 8.24263C9.73063 8.25064 9.73884 8.25885 9.74685 8.26714L12.0332 10.5535L14.3196 8.26714C14.7022 7.87105 15.3334 7.86008 15.7295 8.24268C16.1256 8.62527 16.1366 9.25649 15.754 9.65258C15.746 9.66088 15.7378 9.66903 15.7295 9.67705L13.4431 11.9634L15.7295 14.2498C16.1256 14.6324 16.1366 15.2636 15.754 15.6597C15.3714 16.0558 14.7402 16.0668 14.3441 15.6842C14.3358 15.6762 14.3276 15.668 14.3196 15.6597L12.0332 13.3733L9.74685 15.6597C9.35076 16.0423 8.71954 16.0313 8.33695 15.6352C7.96373 15.2488 7.96373 14.6362 8.33695 14.2498ZM4.30565 19.7458C-0.0290211 15.5145 -0.112833 8.57038 4.11853 4.23566C8.34988 -0.0990577 15.294 -0.182823 19.6287 4.04854C19.6826 4.10113 19.7359 4.15429 19.7887 4.20796C24.0718 8.49125 24.0718 15.4356 19.7887 19.7189L15.8083 23.3973C13.6961 25.4429 10.3391 25.4345 8.23724 23.3783L4.30565 19.7458ZM3.05929 11.9635C3.05278 14.3448 3.99923 16.6298 5.68767 18.309L9.61129 21.9345C10.9583 23.2218 13.0772 23.2302 14.4343 21.9534L18.4068 18.2821C21.9039 14.7698 21.8917 9.08755 18.3794 5.59044C14.8671 2.09333 9.18482 2.10557 5.68771 5.61786C3.99918 7.29711 3.05278 9.58213 3.05929 11.9635Z" fill="#374957"/>
</g>
<defs>
<clipPath id="clip0_507_2133">
<rect width="24" height="24" fill="white" transform="translate(0 0.92749)"/>
</clipPath>
</defs>
</svg>
