<svg width="24" height="25" viewBox="0 0 24 25" fill="none" xmlns="http://www.w3.org/2000/svg">
<g clip-path="url(#clip0_507_2304)">
<path d="M14.0002 18.9277C13.6596 18.9277 13.3214 18.9855 13.0002 19.0987V18.9277C13.0002 18.6625 13.1055 18.4082 13.2931 18.2206C13.4806 18.0331 13.735 17.9277 14.0002 17.9277C14.1422 17.9268 14.2828 17.9566 14.4123 18.0151C14.5417 18.0736 14.657 18.1595 14.7502 18.2667C14.8359 18.3689 14.9412 18.4528 15.0599 18.5136C15.1785 18.5745 15.3082 18.611 15.4411 18.621C15.5741 18.631 15.7077 18.6143 15.8341 18.5718C15.9606 18.5294 16.0772 18.4622 16.1773 18.374C16.2773 18.2858 16.3587 18.1785 16.4167 18.0584C16.4746 17.9384 16.508 17.8079 16.5148 17.6747C16.5216 17.5415 16.5017 17.4084 16.4562 17.283C16.4108 17.1576 16.3407 17.0426 16.2502 16.9447C15.8472 16.4878 15.3146 16.1644 14.7233 16.0175C14.1321 15.8706 13.5101 15.9073 12.9401 16.1226C12.3702 16.3378 11.8793 16.7215 11.5327 17.2226C11.1862 17.7237 11.0004 18.3185 11.0002 18.9277V21.9277C11.0004 22.5791 11.2126 23.2126 11.6047 23.7327C11.9968 24.2528 12.5475 24.6312 13.1736 24.8106C13.7997 24.9901 14.4672 24.9609 15.0753 24.7275C15.6834 24.494 16.199 24.0691 16.5442 23.5167C16.8226 23.0684 16.9801 22.5555 17.0013 22.0282C17.0225 21.5008 16.9067 20.977 16.6652 20.5077C16.4119 20.0225 16.0283 19.6176 15.5575 19.3385C15.0867 19.0594 14.5474 18.9171 14.0002 18.9277ZM14.8492 22.4567C14.7571 22.6045 14.628 22.7256 14.4747 22.8081C14.3215 22.8907 14.1493 22.9318 13.9753 22.9274C13.8012 22.923 13.6314 22.8732 13.4825 22.7831C13.3336 22.6929 13.2108 22.5654 13.1263 22.4132C13.0418 22.261 12.9985 22.0893 13.0006 21.9153C13.0028 21.7412 13.0504 21.5707 13.1386 21.4207C13.2269 21.2706 13.3528 21.1462 13.5039 21.0598C13.655 20.9733 13.8261 20.9278 14.0002 20.9277C14.1721 20.9183 14.3435 20.9557 14.4959 21.0358C14.6484 21.1159 14.7763 21.2358 14.8662 21.3827C14.9585 21.5473 15.0055 21.7334 15.0025 21.922C14.9995 22.1107 14.9466 22.2952 14.8492 22.4567ZM21.0002 15.9277C20.2045 15.9277 19.4415 16.2438 18.8788 16.8064C18.3162 17.369 18.0002 18.1321 18.0002 18.9277V21.9277C18.0002 22.7234 18.3162 23.4864 18.8788 24.049C19.4415 24.6117 20.2045 24.9277 21.0002 24.9277C21.7958 24.9277 22.5589 24.6117 23.1215 24.049C23.6841 23.4864 24.0002 22.7234 24.0002 21.9277V18.9277C24.0002 18.1321 23.6841 17.369 23.1215 16.8064C22.5589 16.2438 21.7958 15.9277 21.0002 15.9277ZM22.0002 21.9277C22.0002 22.1929 21.8948 22.4473 21.7073 22.6348C21.5197 22.8224 21.2654 22.9277 21.0002 22.9277C20.735 22.9277 20.4806 22.8224 20.2931 22.6348C20.1055 22.4473 20.0002 22.1929 20.0002 21.9277V18.9277C20.0002 18.6625 20.1055 18.4082 20.2931 18.2206C20.4806 18.0331 20.735 17.9277 21.0002 17.9277C21.2654 17.9277 21.5197 18.0331 21.7073 18.2206C21.8948 18.4082 22.0002 18.6625 22.0002 18.9277V21.9277ZM12.0002 13.9277H8.00017C7.73495 13.9277 7.4806 13.8224 7.29306 13.6348C7.10553 13.4473 7.00017 13.1929 7.00017 12.9277C7.00017 12.6625 7.10553 12.4082 7.29306 12.2206C7.4806 12.0331 7.73495 11.9277 8.00017 11.9277H11.0002V7.92772C11.0002 7.66251 11.1055 7.40815 11.2931 7.22062C11.4806 7.03308 11.735 6.92772 12.0002 6.92772C12.2654 6.92772 12.5197 7.03308 12.7073 7.22062C12.8948 7.40815 13.0002 7.66251 13.0002 7.92772V12.9277C13.0002 13.1929 12.8948 13.4473 12.7073 13.6348C12.5197 13.8224 12.2654 13.9277 12.0002 13.9277ZM24.0002 3.92772V6.92772C24.0002 7.72337 23.6841 8.48643 23.1215 9.04904C22.5589 9.61165 21.7958 9.92772 21.0002 9.92772H18.0002C17.735 9.92772 17.4806 9.82236 17.2931 9.63483C17.1055 9.44729 17.0002 9.19294 17.0002 8.92772C17.0002 8.66251 17.1055 8.40815 17.2931 8.22062C17.4806 8.03308 17.735 7.92772 18.0002 7.92772H20.6372C19.837 6.54685 18.7177 5.37776 17.3729 4.51832C16.0282 3.65887 14.4971 3.13408 12.9078 2.98789C11.3186 2.84169 9.71745 3.07834 8.23845 3.67803C6.75946 4.27771 5.44564 5.22298 4.40699 6.43469C3.36834 7.64641 2.63508 9.08932 2.2686 10.6426C1.90211 12.1959 1.91307 13.8144 2.30055 15.3626C2.68804 16.9108 3.44077 18.3436 4.49573 19.5412C5.55069 20.7387 6.87719 21.6661 8.36417 22.2457C8.61135 22.3423 8.81006 22.533 8.91658 22.7761C9.0231 23.0191 9.02871 23.2945 8.93217 23.5417C8.83563 23.7889 8.64485 23.9876 8.40181 24.0941C8.15876 24.2007 7.88335 24.2063 7.63617 24.1097C5.87882 23.4242 4.30783 22.3341 3.05065 20.9278C1.79347 19.5216 0.885517 17.8387 0.400467 16.0158C-0.0845825 14.193 -0.133069 12.2814 0.258942 10.4363C0.650953 8.59116 1.47242 6.86444 2.65669 5.39623C3.84096 3.92801 5.35467 2.75966 7.075 1.98597C8.79533 1.21227 10.6738 0.855038 12.5581 0.943242C14.4423 1.03145 16.2792 1.56261 17.9198 2.49363C19.5603 3.42464 20.9582 4.7293 22.0002 6.30172V3.92772C22.0002 3.66251 22.1055 3.40815 22.2931 3.22062C22.4806 3.03308 22.735 2.92772 23.0002 2.92772C23.2654 2.92772 23.5197 3.03308 23.7073 3.22062C23.8948 3.40815 24.0002 3.66251 24.0002 3.92772Z" fill="#374957"/>
</g>
<defs>
<clipPath id="clip0_507_2304">
<rect width="24" height="24" fill="white" transform="translate(0 0.92749)"/>
</clipPath>
</defs>
</svg>
