<svg width="24" height="25" viewBox="0 0 24 25" fill="none" xmlns="http://www.w3.org/2000/svg">
<g clip-path="url(#clip0_507_1911)">
<path d="M17.954 11.5906C18.6096 10.5314 18.9702 9.3162 18.9982 8.07085C19.0263 6.8255 18.7208 5.5953 18.1135 4.5077C17.5062 3.42009 16.6192 2.51465 15.5443 1.88517C14.4693 1.25569 13.2457 0.925071 12 0.927565H5C4.46957 0.927565 3.96086 1.13828 3.58579 1.51335C3.21071 1.88842 3 2.39713 3 2.92757V22.9276C3 23.458 3.21071 23.9667 3.58579 24.3418C3.96086 24.7169 4.46957 24.9276 5 24.9276H15C16.5934 24.9293 18.1397 24.3868 19.3828 23.39C20.6259 22.3932 21.4914 21.0017 21.8359 19.446C22.1805 17.8903 21.9835 16.2635 21.2776 14.835C20.5717 13.4065 19.3991 12.2619 17.954 11.5906ZM7 4.92757H12C12.7956 4.92757 13.5587 5.24364 14.1213 5.80624C14.6839 6.36885 15 7.13192 15 7.92757C15 8.72321 14.6839 9.48628 14.1213 10.0489C13.5587 10.6115 12.7956 10.9276 12 10.9276H7V4.92757ZM15 20.9276H7V14.9276H15C15.7956 14.9276 16.5587 15.2436 17.1213 15.8062C17.6839 16.3689 18 17.1319 18 17.9276C18 18.7232 17.6839 19.4863 17.1213 20.0489C16.5587 20.6115 15.7956 20.9276 15 20.9276Z" fill="#374957"/>
</g>
<defs>
<clipPath id="clip0_507_1911">
<rect width="24" height="24" fill="white" transform="translate(0 0.92749)"/>
</clipPath>
</defs>
</svg>
