<svg width="24" height="25" viewBox="0 0 24 25" fill="none" xmlns="http://www.w3.org/2000/svg">
<g clip-path="url(#clip0_507_1917)">
<path d="M9.00012 14.9275H15.0001C15.2653 14.9275 15.5197 14.8221 15.7072 14.6346C15.8948 14.4471 16.0001 14.1927 16.0001 13.9275C16.0001 13.6623 15.8948 13.4079 15.7072 13.2204C15.5197 13.0328 15.2653 12.9275 15.0001 12.9275H9.00012C8.7349 12.9275 8.48055 13.0328 8.29301 13.2204C8.10548 13.4079 8.00012 13.6623 8.00012 13.9275C8.00012 14.1927 8.10548 14.4471 8.29301 14.6346C8.48055 14.8221 8.7349 14.9275 9.00012 14.9275Z" fill="#374957"/>
<path d="M19 0.92749H5C3.67441 0.929078 2.40356 1.45637 1.46622 2.39371C0.528882 3.33105 0.00158786 4.6019 0 5.92749L0 6.92749C0.000290807 7.34923 0.0895008 7.76617 0.261809 8.15111C0.434117 8.53605 0.685652 8.88033 1 9.16149V19.9275C1.00159 21.2531 1.52888 22.5239 2.46622 23.4613C3.40356 24.3986 4.67441 24.9259 6 24.9275H18C19.3256 24.9259 20.5964 24.3986 21.5338 23.4613C22.4711 22.5239 22.9984 21.2531 23 19.9275V9.16149C23.3143 8.88033 23.5659 8.53605 23.7382 8.15111C23.9105 7.76617 23.9997 7.34923 24 6.92749V5.92749C23.9984 4.6019 23.4711 3.33105 22.5338 2.39371C21.5964 1.45637 20.3256 0.929078 19 0.92749V0.92749ZM2 5.92749C2 5.13184 2.31607 4.36878 2.87868 3.80617C3.44129 3.24356 4.20435 2.92749 5 2.92749H19C19.7956 2.92749 20.5587 3.24356 21.1213 3.80617C21.6839 4.36878 22 5.13184 22 5.92749V6.92749C22 7.19271 21.8946 7.44706 21.7071 7.6346C21.5196 7.82213 21.2652 7.92749 21 7.92749H3C2.73478 7.92749 2.48043 7.82213 2.29289 7.6346C2.10536 7.44706 2 7.19271 2 6.92749V5.92749ZM21 19.9275C21 20.7231 20.6839 21.4862 20.1213 22.0488C19.5587 22.6114 18.7956 22.9275 18 22.9275H6C5.20435 22.9275 4.44129 22.6114 3.87868 22.0488C3.31607 21.4862 3 20.7231 3 19.9275V9.92749H21V19.9275Z" fill="#374957"/>
</g>
<defs>
<clipPath id="clip0_507_1917">
<rect width="24" height="24" fill="white" transform="translate(0 0.92749)"/>
</clipPath>
</defs>
</svg>
