<svg width="24" height="25" viewBox="0 0 24 25" fill="none" xmlns="http://www.w3.org/2000/svg">
<g clip-path="url(#clip0_507_2026)">
<path d="M22.459 9.02761L15.535 2.39161C14.5966 1.4631 13.3307 0.94105 12.0106 0.938244C10.6905 0.935437 9.4223 1.4521 8.48 2.37661L1.54 9.02761C1.05461 9.4951 0.668162 10.0554 0.403609 10.6752C0.139055 11.295 0.00180022 11.9617 0 12.6356L0 19.9276C0.00158786 21.2532 0.528882 22.524 1.46622 23.4614C2.40356 24.3987 3.67441 24.926 5 24.9276H19C20.3256 24.926 21.5964 24.3987 22.5338 23.4614C23.4711 22.524 23.9984 21.2532 24 19.9276V12.6356C23.9982 11.9616 23.8609 11.2948 23.5962 10.675C23.3314 10.0552 22.9447 9.49492 22.459 9.02761ZM9.879 3.80561C10.446 3.2436 11.213 2.92962 12.0113 2.93262C12.8097 2.93562 13.5742 3.25536 14.137 3.82161L20.884 10.2856L14.121 17.0496C13.5493 17.5946 12.7898 17.8986 12 17.8986C11.2102 17.8986 10.4507 17.5946 9.879 17.0496L3.115 10.2856L9.879 3.80561ZM22 19.9276C22 20.7233 21.6839 21.4863 21.1213 22.0489C20.5587 22.6115 19.7956 22.9276 19 22.9276H5C4.20435 22.9276 3.44129 22.6115 2.87868 22.0489C2.31607 21.4863 2 20.7233 2 19.9276V12.6356C2.00101 12.4415 2.02077 12.2479 2.059 12.0576L8.465 18.4636C9.40572 19.3951 10.6761 19.9177 12 19.9177C13.3239 19.9177 14.5943 19.3951 15.535 18.4636L21.941 12.0576C21.9792 12.2479 21.999 12.4415 22 12.6356V19.9276Z" fill="#374957"/>
</g>
<defs>
<clipPath id="clip0_507_2026">
<rect width="24" height="24" fill="white" transform="translate(0 0.92749)"/>
</clipPath>
</defs>
</svg>
