<svg width="24" height="25" viewBox="0 0 24 25" fill="none" xmlns="http://www.w3.org/2000/svg">
<g clip-path="url(#clip0_507_2195)">
<path d="M14.9997 4.77608C15.0029 4.97494 15.0641 5.16855 15.1759 5.33307C15.2876 5.4976 15.445 5.62586 15.6287 5.70208C17.271 6.42466 18.6597 7.62158 19.6168 9.13918C20.5738 10.6568 21.0554 12.4258 20.9997 14.2191C20.961 16.606 19.9757 18.8798 18.2605 20.5403C16.5453 22.2007 14.2407 23.1118 11.8537 23.0731C9.46679 23.0344 7.19299 22.049 5.53254 20.3338C3.87209 18.6186 2.96101 16.314 2.99974 13.9271C3.00205 12.1833 3.51088 10.4777 4.46439 9.01775C5.41789 7.55776 6.775 6.4062 8.37074 5.70308C8.55453 5.6264 8.71194 5.49775 8.82367 5.33291C8.93541 5.16806 8.9966 4.97419 8.99974 4.77508C8.99999 4.61129 8.96002 4.44994 8.88331 4.30522C8.80661 4.1605 8.69554 4.03683 8.55985 3.94509C8.42417 3.85335 8.26802 3.79634 8.10514 3.77907C7.94227 3.76181 7.77764 3.78482 7.62574 3.84608C5.30502 4.85222 3.40196 6.62742 2.2371 8.87267C1.07224 11.1179 0.716765 13.696 1.23055 16.1727C1.74433 18.6494 3.09597 20.8734 5.05781 22.47C7.01965 24.0667 9.4718 24.9384 12.0012 24.9384C14.5307 24.9384 16.9828 24.0667 18.9447 22.47C20.9065 20.8734 22.2581 18.6494 22.7719 16.1727C23.2857 13.696 22.9302 11.1179 21.7654 8.87267C20.6005 6.62742 18.6975 4.85222 16.3767 3.84608C16.2246 3.78415 16.0596 3.76065 15.8962 3.77766C15.7328 3.79467 15.5762 3.85165 15.44 3.94358C15.3039 4.03551 15.1925 4.15956 15.1158 4.30475C15.039 4.44995 14.9991 4.61182 14.9997 4.77608Z" fill="#374957"/>
<path d="M13.0001 1.92748C13.0001 1.3752 12.5524 0.927483 12.0001 0.927483C11.4478 0.927483 11.0001 1.3752 11.0001 1.92748V7.92748C11.0001 8.47977 11.4478 8.92748 12.0001 8.92748C12.5524 8.92748 13.0001 8.47977 13.0001 7.92748V1.92748Z" fill="#374957"/>
</g>
<defs>
<clipPath id="clip0_507_2195">
<rect width="24" height="24" fill="white" transform="translate(0 0.92749)"/>
</clipPath>
</defs>
</svg>
