<svg width="24" height="25" viewBox="0 0 24 25" fill="none" xmlns="http://www.w3.org/2000/svg">
<g clip-path="url(#clip0_507_2236)">
<path d="M12.0001 8.9281C11.209 8.9281 10.4356 9.1627 9.77784 9.60222C9.12005 10.0417 8.60736 10.6665 8.30461 11.3974C8.00186 12.1283 7.92264 12.9325 8.07698 13.7085C8.23132 14.4844 8.61229 15.1971 9.1717 15.7565C9.73111 16.3159 10.4438 16.6969 11.2198 16.8512C11.9957 17.0056 12.8 16.9264 13.5309 16.6236C14.2618 16.3209 14.8865 15.8082 15.326 15.1504C15.7655 14.4926 16.0001 13.7192 16.0001 12.9281C16.0001 11.8672 15.5787 10.8498 14.8286 10.0997C14.0784 9.34953 13.061 8.9281 12.0001 8.9281ZM12.0001 14.9281C11.6046 14.9281 11.2179 14.8108 10.889 14.591C10.5601 14.3713 10.3037 14.0589 10.1524 13.6935C10.001 13.328 9.96138 12.9259 10.0386 12.5379C10.1157 12.15 10.3062 11.7936 10.5859 11.5139C10.8656 11.2342 11.222 11.0437 11.6099 10.9665C11.9979 10.8894 12.4 10.929 12.7655 11.0803C13.1309 11.2317 13.4433 11.4881 13.6631 11.817C13.8828 12.1459 14.0001 12.5325 14.0001 12.9281C14.0001 13.4585 13.7894 13.9672 13.4143 14.3423C13.0393 14.7174 12.5306 14.9281 12.0001 14.9281Z" fill="#374957"/>
<path d="M21.294 14.8275L20.85 14.5715C21.0499 13.4839 21.0499 12.369 20.85 11.2815L21.294 11.0255C21.6355 10.8285 21.9348 10.5662 22.1748 10.2536C22.4149 9.9409 22.591 9.58403 22.6932 9.20331C22.7953 8.82259 22.8215 8.42548 22.7702 8.03465C22.7188 7.64382 22.591 7.26693 22.394 6.92549C22.1971 6.58405 21.9348 6.28476 21.6221 6.04469C21.3095 5.80463 20.9526 5.6285 20.5719 5.52635C20.1911 5.42421 19.794 5.39805 19.4032 5.44938C19.0124 5.5007 18.6355 5.62851 18.294 5.82549L17.849 6.08249C17.0086 5.36441 16.0427 4.80774 15 4.44049V3.92749C15 3.13184 14.684 2.36878 14.1214 1.80617C13.5588 1.24356 12.7957 0.92749 12 0.92749C11.2044 0.92749 10.4413 1.24356 9.87872 1.80617C9.31611 2.36878 9.00004 3.13184 9.00004 3.92749V4.44049C7.95743 4.80906 6.99189 5.36709 6.15204 6.08649L5.70504 5.82749C5.01548 5.42967 4.19612 5.32206 3.42723 5.52835C2.65833 5.73464 2.00287 6.23793 1.60504 6.92749C1.20722 7.61705 1.09962 8.43641 1.30591 9.20531C1.5122 9.97421 2.01548 10.6297 2.70504 11.0275L3.14904 11.2835C2.94915 12.371 2.94915 13.4859 3.14904 14.5735L2.70504 14.8295C2.01548 15.2273 1.5122 15.8828 1.30591 16.6517C1.09962 17.4206 1.20722 18.2399 1.60504 18.9295C2.00287 19.6191 2.65833 20.1223 3.42723 20.3286C4.19612 20.5349 5.01548 20.4273 5.70504 20.0295L6.15004 19.7725C6.99081 20.4907 7.95702 21.0474 9.00004 21.4145V21.9275C9.00004 22.7231 9.31611 23.4862 9.87872 24.0488C10.4413 24.6114 11.2044 24.9275 12 24.9275C12.7957 24.9275 13.5588 24.6114 14.1214 24.0488C14.684 23.4862 15 22.7231 15 21.9275V21.4145C16.0427 21.0459 17.0082 20.4879 17.848 19.7685L18.295 20.0265C18.9846 20.4243 19.804 20.5319 20.5729 20.3256C21.3418 20.1193 21.9972 19.6161 22.395 18.9265C22.7929 18.2369 22.9005 17.4176 22.6942 16.6487C22.4879 15.8798 21.9846 15.2243 21.295 14.8265L21.294 14.8275ZM18.746 11.0515C19.0847 12.2786 19.0847 13.5744 18.746 14.8015C18.6869 15.0151 18.7004 15.2422 18.7844 15.4473C18.8684 15.6524 19.0181 15.8237 19.21 15.9345L20.294 16.5605C20.5239 16.6931 20.6916 16.9116 20.7603 17.1678C20.829 17.4241 20.7932 17.6972 20.6605 17.927C20.5279 18.1568 20.3095 18.3245 20.0532 18.3933C19.7969 18.462 19.5239 18.4261 19.294 18.2935L18.208 17.6655C18.0159 17.5542 17.7923 17.51 17.5723 17.5399C17.3523 17.5698 17.1485 17.672 16.993 17.8305C16.103 18.7391 14.9816 19.3875 13.75 19.7055C13.5351 19.7608 13.3446 19.886 13.2086 20.0614C13.0727 20.2368 12.9989 20.4525 12.999 20.6745V21.9275C12.999 22.1927 12.8937 22.4471 12.7062 22.6346C12.5186 22.8221 12.2643 22.9275 11.999 22.9275C11.7338 22.9275 11.4795 22.8221 11.2919 22.6346C11.1044 22.4471 10.999 22.1927 10.999 21.9275V20.6755C10.9992 20.4535 10.9254 20.2378 10.7894 20.0624C10.6535 19.887 10.463 19.7618 10.248 19.7065C9.01639 19.3872 7.89537 18.7374 7.00604 17.8275C6.85057 17.669 6.64678 17.5668 6.4268 17.5369C6.20682 17.507 5.98315 17.5512 5.79104 17.6625L4.70704 18.2895C4.59327 18.3562 4.46743 18.3997 4.33677 18.4176C4.2061 18.4355 4.0732 18.4273 3.9457 18.3936C3.8182 18.3599 3.69862 18.3013 3.59386 18.2212C3.4891 18.1411 3.40122 18.041 3.33528 17.9268C3.26934 17.8126 3.22664 17.6865 3.20964 17.5557C3.19264 17.4249 3.20168 17.2921 3.23623 17.1648C3.27079 17.0375 3.33017 16.9183 3.41098 16.8141C3.49178 16.7099 3.5924 16.6227 3.70704 16.5575L4.79104 15.9315C4.98299 15.8207 5.13272 15.6494 5.2167 15.4443C5.30069 15.2392 5.31417 15.0121 5.25504 14.7985C4.9164 13.5714 4.9164 12.2756 5.25504 11.0485C5.31311 10.8354 5.29898 10.609 5.21486 10.4048C5.13074 10.2005 4.98136 10.0299 4.79004 9.91949L3.70604 9.29349C3.47623 9.16088 3.30851 8.94241 3.23978 8.68614C3.17105 8.42988 3.20693 8.1568 3.33954 7.92699C3.47215 7.69718 3.69062 7.52946 3.94689 7.46073C4.20316 7.392 4.47623 7.42788 4.70604 7.56049L5.79204 8.18849C5.98362 8.3 6.20682 8.3447 6.42657 8.31556C6.64632 8.28642 6.85015 8.18508 7.00604 8.02749C7.89613 7.11883 9.01747 6.47051 10.249 6.15249C10.4647 6.09705 10.6556 5.97124 10.7917 5.79499C10.9277 5.61874 11.001 5.40213 11 5.17949V3.92749C11 3.66227 11.1054 3.40792 11.2929 3.22038C11.4805 3.03285 11.7348 2.92749 12 2.92749C12.2653 2.92749 12.5196 3.03285 12.7071 3.22038C12.8947 3.40792 13 3.66227 13 3.92749V5.17949C12.9999 5.40145 13.0737 5.61713 13.2096 5.79257C13.3456 5.96801 13.5361 6.09322 13.751 6.14849C14.9831 6.46764 16.1044 7.11737 16.994 8.02749C17.1495 8.18596 17.3533 8.28818 17.5733 8.31806C17.7933 8.34793 18.0169 8.30375 18.209 8.19249L19.293 7.56549C19.4068 7.49879 19.5327 7.45526 19.6633 7.43739C19.794 7.41953 19.9269 7.42768 20.0544 7.46139C20.1819 7.4951 20.3015 7.5537 20.4062 7.6338C20.511 7.71391 20.5989 7.81395 20.6648 7.92816C20.7307 8.04237 20.7734 8.1685 20.7904 8.29928C20.8074 8.43006 20.7984 8.56291 20.7639 8.69018C20.7293 8.81746 20.6699 8.93664 20.5891 9.04086C20.5083 9.14509 20.4077 9.23231 20.293 9.29749L19.209 9.92349C19.0181 10.0342 18.8691 10.205 18.7854 10.4092C18.7016 10.6134 18.6878 10.8396 18.746 11.0525V11.0515Z" fill="#374957"/>
</g>
<defs>
<clipPath id="clip0_507_2236">
<rect width="24" height="24" fill="white" transform="translate(0 0.92749)"/>
</clipPath>
</defs>
</svg>
