<svg width="24" height="25" viewBox="0 0 24 25" fill="none" xmlns="http://www.w3.org/2000/svg">
<path d="M17.7102 10.8075L13.4102 6.5175C13.0355 6.145 12.5286 5.93591 12.0002 5.93591C11.4718 5.93591 10.9649 6.145 10.5902 6.5175L6.29018 10.8075C6.10393 10.9949 5.99939 11.2483 5.99939 11.5125C5.99939 11.7767 6.10393 12.0301 6.29018 12.2175C6.38315 12.3112 6.49375 12.3856 6.61561 12.4364C6.73746 12.4872 6.86817 12.5133 7.00018 12.5133C7.13219 12.5133 7.2629 12.4872 7.38476 12.4364C7.50662 12.3856 7.61722 12.3112 7.71018 12.2175L11.0002 8.9275V19.9275C11.0002 20.1927 11.1055 20.4471 11.2931 20.6346C11.4806 20.8221 11.735 20.9275 12.0002 20.9275C12.2654 20.9275 12.5198 20.8221 12.7073 20.6346C12.8948 20.4471 13.0002 20.1927 13.0002 19.9275V8.9275L16.2902 12.2175C16.4772 12.4058 16.7313 12.5121 16.9966 12.5131C17.262 12.514 17.5169 12.4095 17.7052 12.2225C17.8935 12.0355 17.9998 11.7814 18.0007 11.516C18.0017 11.2507 17.8972 10.9958 17.7102 10.8075Z" fill="#374957"/>
</svg>
