<svg width="24" height="25" viewBox="0 0 24 25" fill="none" xmlns="http://www.w3.org/2000/svg">
<g clip-path="url(#clip0_507_2029)">
<path d="M21.715 19.2904C20.5696 20.6792 19.0705 21.733 17.376 22.3407C15.6814 22.9483 13.8543 23.0873 12.0873 22.7429C10.3204 22.3985 8.67918 21.5835 7.33689 20.384C5.99461 19.1844 5.00103 17.6447 4.461 15.9275H15C15.2652 15.9275 15.5196 15.8221 15.7071 15.6346C15.8946 15.447 16 15.1927 16 14.9275C16 14.6622 15.8946 14.4079 15.7071 14.2203C15.5196 14.0328 15.2652 13.9275 15 13.9275H4.051C3.983 13.2625 3.983 12.5924 4.051 11.9275H15C15.2652 11.9275 15.5196 11.8221 15.7071 11.6346C15.8946 11.447 16 11.1927 16 10.9275C16 10.6622 15.8946 10.4079 15.7071 10.2204C15.5196 10.0328 15.2652 9.92746 15 9.92746H4.461C5.00103 8.21018 5.99461 6.67051 7.33689 5.47095C8.67918 4.27138 10.3204 3.4564 12.0873 3.112C13.8543 2.76761 15.6814 2.90657 17.376 3.51422C19.0705 4.12188 20.5696 5.17569 21.715 6.56446C21.7987 6.66571 21.9014 6.74949 22.0175 6.81102C22.1335 6.87255 22.2605 6.91062 22.3912 6.92307C22.522 6.93551 22.6539 6.92208 22.7795 6.88354C22.905 6.845 23.0217 6.78211 23.123 6.69846C23.2242 6.61481 23.308 6.51203 23.3696 6.396C23.4311 6.27997 23.4692 6.15296 23.4816 6.02221C23.494 5.89147 23.4806 5.75955 23.4421 5.634C23.4035 5.50845 23.3407 5.39171 23.257 5.29046C21.8496 3.58475 19.998 2.30152 17.9067 1.58266C15.8155 0.863807 13.5661 0.737346 11.4075 1.21726C9.24883 1.69718 7.26497 2.76478 5.67529 4.30199C4.08561 5.8392 2.95206 7.78613 2.4 9.92746H1C0.734784 9.92746 0.48043 10.0328 0.292893 10.2204C0.105357 10.4079 0 10.6622 0 10.9275C0 11.1927 0.105357 11.447 0.292893 11.6346C0.48043 11.8221 0.734784 11.9275 1 11.9275H2.051C2.023 12.2585 2 12.5895 2 12.9275C2 13.2655 2.023 13.5965 2.051 13.9275H1C0.734784 13.9275 0.48043 14.0328 0.292893 14.2203C0.105357 14.4079 0 14.6622 0 14.9275C0 15.1927 0.105357 15.447 0.292893 15.6346C0.48043 15.8221 0.734784 15.9275 1 15.9275H2.4C2.95144 18.0699 4.08492 20.018 5.67498 21.5561C7.26505 23.0942 9.24969 24.1624 11.4093 24.6424C13.5688 25.1224 15.8191 24.9955 17.911 24.2758C20.0029 23.5561 21.8549 22.2716 23.262 20.5644C23.4309 20.36 23.5117 20.0967 23.4866 19.8327C23.4615 19.5686 23.3325 19.3254 23.128 19.1564C22.9235 18.9875 22.6603 18.9067 22.3962 18.9318C22.1322 18.957 21.8889 19.086 21.72 19.2904H21.715Z" fill="#374957"/>
</g>
<defs>
<clipPath id="clip0_507_2029">
<rect width="24" height="24" fill="white" transform="translate(0 0.92749)"/>
</clipPath>
</defs>
</svg>
