<svg width="24" height="25" viewBox="0 0 24 25" fill="none" xmlns="http://www.w3.org/2000/svg">
<g clip-path="url(#clip0_507_1986)">
<path d="M23.6302 4.77249C23.4432 4.51149 23.1967 4.29874 22.9112 4.15181C22.6257 4.00488 22.3093 3.92799 21.9882 3.92749H18.4442C18.9632 3.08049 19.5442 1.03549 18.0002 0.92749C17.735 0.92749 17.4806 1.03285 17.2931 1.22038C17.1056 1.40792 17.0002 1.66227 17.0002 1.92749C17.0002 2.45792 16.7895 2.96663 16.4144 3.3417C16.0394 3.71678 15.5307 3.92749 15.0002 3.92749H9.00022C8.46979 3.92749 7.96108 3.71678 7.586 3.3417C7.21093 2.96663 7.00022 2.45792 7.00022 1.92749C7.00022 1.66227 6.89486 1.40792 6.70732 1.22038C6.51979 1.03285 6.26543 0.92749 6.00022 0.92749C4.45222 1.03649 5.03822 3.07949 5.55622 3.92749H2.01222C1.69682 3.92786 1.38595 4.00253 1.10479 4.14543C0.823622 4.28833 0.580074 4.49546 0.393873 4.75002C0.207672 5.00459 0.0840553 5.29943 0.033037 5.61068C-0.0179813 5.92192 0.00503403 6.2408 0.100218 6.54149C0.643852 8.01436 1.67352 9.2578 3.01922 10.0665C3.01922 10.1015 6.01922 22.1315 6.01922 22.1315C6.06939 22.8885 6.40508 23.5982 6.95843 24.1173C7.51179 24.6363 8.24155 24.9259 9.00022 24.9275H15.0002C15.7592 24.9253 16.489 24.6349 17.042 24.1151C17.5951 23.5953 17.93 22.8849 17.9792 22.1275C17.9792 22.1275 20.9792 10.0975 20.9792 10.0625C22.3248 9.2554 23.3551 8.01381 23.9002 6.54249C24.001 6.24751 24.029 5.93257 23.982 5.62442C23.935 5.31628 23.8143 5.02403 23.6302 4.77249ZM18.3802 8.88949C17.6928 8.85278 17.005 8.95542 16.3582 9.19123C15.7114 9.42705 15.1189 9.79119 14.6164 10.2618C14.1139 10.7323 13.7117 11.2996 13.4339 11.9296C13.1562 12.5595 13.0087 13.2391 13.0002 13.9275V18.9275H11.0002V13.9275C10.9918 13.2391 10.8442 12.5595 10.5665 11.9296C10.2888 11.2996 9.88657 10.7323 9.38405 10.2618C8.88154 9.79119 8.28908 9.42705 7.64228 9.19123C6.99548 8.95542 6.30769 8.85278 5.62022 8.88949C6.31321 7.72195 7.2399 6.71014 8.34222 5.91749L15.6422 5.92749C16.7502 6.71455 17.6825 7.72319 18.3802 8.88949ZM2.01222 5.92749H5.33322C4.7181 6.60534 4.18138 7.35037 3.73322 8.14849C2.9469 7.60054 2.3465 6.82571 2.01222 5.92749ZM6.00022 10.9275C6.353 10.9304 6.70245 10.9961 7.03222 11.1215C6.98339 11.3649 6.99544 11.6166 7.0673 11.8542C7.13917 12.0918 7.26863 12.308 7.44416 12.4835C7.6197 12.6591 7.83589 12.7885 8.07351 12.8604C8.31113 12.9323 8.56282 12.9443 8.80622 12.8955C8.93158 13.2253 8.99728 13.5747 9.00022 13.9275V18.9275C8.43278 18.929 7.8776 19.0927 7.40022 19.3995L5.26322 10.8565C5.50698 10.8969 5.75322 10.9206 6.00022 10.9275ZM15.0002 22.9275H9.00022C8.735 22.9275 8.48065 22.8221 8.29311 22.6346C8.10558 22.4471 8.00022 22.1927 8.00022 21.9275C8.00022 21.6623 8.10558 21.4079 8.29311 21.2204C8.48065 21.0328 8.735 20.9275 9.00022 20.9275H15.0002C15.2654 20.9275 15.5198 21.0328 15.7073 21.2204C15.8949 21.4079 16.0002 21.6623 16.0002 21.9275C16.0002 22.1927 15.8949 22.4471 15.7073 22.6346C15.5198 22.8221 15.2654 22.9275 15.0002 22.9275ZM16.6002 19.3995C16.1228 19.0927 15.5677 18.929 15.0002 18.9275V13.9275C15.0032 13.5747 15.0689 13.2253 15.1942 12.8955C15.4376 12.9443 15.6893 12.9323 15.9269 12.8604C16.1645 12.7885 16.3807 12.6591 16.5563 12.4835C16.7318 12.308 16.8613 12.0918 16.9331 11.8542C17.005 11.6166 17.0171 11.3649 16.9682 11.1215C17.5457 10.9654 18.1393 10.8765 18.7372 10.8565L16.6002 19.3995ZM20.2642 8.14249C19.8132 7.33658 19.2714 6.58501 18.6492 5.90249L22.0002 5.89749C21.6622 6.80434 21.0569 7.5872 20.2642 8.14249Z" fill="#374957"/>
</g>
<defs>
<clipPath id="clip0_507_1986">
<rect width="24" height="24" fill="white" transform="translate(0 0.92749)"/>
</clipPath>
</defs>
</svg>
