<svg width="24" height="25" viewBox="0 0 24 25" fill="none" xmlns="http://www.w3.org/2000/svg">
<g clip-path="url(#clip0_507_2198)">
<path d="M21.977 12.1915C21.613 6.65149 16.474 1.96849 10.731 1.92749C10.5556 1.62361 10.3032 1.37123 9.9994 1.1957C9.69557 1.02017 9.35089 0.927675 9 0.92749L7 0.92749C5.93913 0.92749 4.92172 1.34892 4.17157 2.09906C3.42143 2.84921 3 3.86662 3 4.92749V20.9275C3 21.9884 3.42143 23.0058 4.17157 23.7559C4.92172 24.5061 5.93913 24.9275 7 24.9275H9C9.35089 24.9273 9.69557 24.8348 9.9994 24.6593C10.3032 24.4838 10.5556 24.2314 10.731 23.9275H11C12.5047 23.9249 13.993 23.6148 15.3736 23.0162C16.7541 22.4176 17.9977 21.5431 19.028 20.4465C20.0634 19.3491 20.86 18.0489 21.3676 16.628C21.8752 15.2072 22.0827 13.6966 21.977 12.1915ZM17.568 19.0785C16.7297 19.9817 15.7132 20.7012 14.5827 21.1916C13.4522 21.682 12.2323 21.9326 11 21.9275H10C9.73478 21.9275 9.48043 22.0328 9.29289 22.2204C9.10536 22.4079 9 22.6623 9 22.9275H7C6.46957 22.9275 5.96086 22.7168 5.58579 22.3417C5.21071 21.9666 5 21.4579 5 20.9275V19.9275H6C6.26522 19.9275 6.51957 19.8221 6.70711 19.6346C6.89464 19.4471 7 19.1927 7 18.9275C7 18.6623 6.89464 18.4079 6.70711 18.2204C6.51957 18.0328 6.26522 17.9275 6 17.9275H5V15.9275H6C6.26522 15.9275 6.51957 15.8221 6.70711 15.6346C6.89464 15.4471 7 15.1927 7 14.9275C7 14.6623 6.89464 14.4079 6.70711 14.2204C6.51957 14.0328 6.26522 13.9275 6 13.9275H5V11.9275H6C6.26522 11.9275 6.51957 11.8221 6.70711 11.6346C6.89464 11.4471 7 11.1927 7 10.9275C7 10.6623 6.89464 10.4079 6.70711 10.2204C6.51957 10.0328 6.26522 9.92749 6 9.92749H5V7.92749H6C6.26522 7.92749 6.51957 7.82213 6.70711 7.6346C6.89464 7.44706 7 7.19271 7 6.92749C7 6.66227 6.89464 6.40792 6.70711 6.22038C6.51957 6.03285 6.26522 5.92749 6 5.92749H5V4.92749C5 4.39706 5.21071 3.88835 5.58579 3.51328C5.96086 3.1382 6.46957 2.92749 7 2.92749H9C9 3.19271 9.10536 3.44706 9.29289 3.6346C9.48043 3.82213 9.73478 3.92749 10 3.92749H10.656C15.413 3.92749 19.683 7.77149 19.98 12.3215C20.0673 13.5534 19.898 14.7899 19.4829 15.953C19.0677 17.1161 18.4157 18.1804 17.568 19.0785ZM11 7.92749C10.4696 7.92749 9.96086 8.1382 9.58579 8.51328C9.21071 8.88835 9 9.39706 9 9.92749V15.9275C9.00615 16.4509 9.21591 16.9512 9.5848 17.3226C9.95368 17.6939 10.4527 17.9069 10.976 17.9165C12.2142 17.9029 13.4049 17.4385 14.3253 16.6102C15.2457 15.7818 15.8325 14.6464 15.976 13.4165C16.0442 12.722 15.9664 12.0209 15.7474 11.3583C15.5283 10.6957 15.1731 10.0863 14.7044 9.5693C14.2357 9.05228 13.6639 8.6391 13.0259 8.35634C12.388 8.07358 11.6978 7.92749 11 7.92749ZM11 15.9275V9.92749C11.4194 9.92735 11.8341 10.0151 12.2174 10.1852C12.6008 10.3552 12.9442 10.6037 13.2255 10.9146C13.5069 11.2256 13.72 11.5921 13.8509 11.9905C13.9819 12.3888 14.0279 12.8102 13.986 13.2275C13.8932 13.9602 13.541 14.6354 12.9932 15.1307C12.4454 15.626 11.7383 15.9087 11 15.9275Z" fill="#374957"/>
</g>
<defs>
<clipPath id="clip0_507_2198">
<rect width="24" height="24" fill="white" transform="translate(0 0.92749)"/>
</clipPath>
</defs>
</svg>
