<svg width="24" height="25" viewBox="0 0 24 25" fill="none" xmlns="http://www.w3.org/2000/svg">
<g clip-path="url(#clip0_507_2058)">
<path d="M19 3.9278H12.472C12.3173 3.92882 12.1645 3.89462 12.025 3.8278L8.869 2.2438C8.45239 2.03634 7.9934 1.92818 7.528 1.9278H5C3.67441 1.92938 2.40356 2.45668 1.46622 3.39402C0.528882 4.33135 0.00158786 5.6022 0 6.9278L0 18.9278C0.00158786 20.2534 0.528882 21.5242 1.46622 22.4616C2.40356 23.3989 3.67441 23.9262 5 23.9278H19C20.3256 23.9262 21.5964 23.3989 22.5338 22.4616C23.4711 21.5242 23.9984 20.2534 24 18.9278V8.9278C23.9984 7.6022 23.4711 6.33135 22.5338 5.39402C21.5964 4.45668 20.3256 3.92938 19 3.9278ZM5 3.9278H7.528C7.68266 3.92677 7.83552 3.96097 7.975 4.0278L11.131 5.6068C11.5472 5.81598 12.0062 5.92586 12.472 5.9278H19C19.598 5.92877 20.1821 6.10847 20.6773 6.44381C21.1725 6.77915 21.5561 7.25484 21.779 7.8098L2 7.9218V6.9278C2 6.13215 2.31607 5.36908 2.87868 4.80648C3.44129 4.24387 4.20435 3.9278 5 3.9278ZM19 21.9278H5C4.20435 21.9278 3.44129 21.6117 2.87868 21.0491C2.31607 20.4865 2 19.7234 2 18.9278V9.9218L22 9.80879V18.9278C22 19.7234 21.6839 20.4865 21.1213 21.0491C20.5587 21.6117 19.7956 21.9278 19 21.9278Z" fill="#374957"/>
</g>
<defs>
<clipPath id="clip0_507_2058">
<rect width="24" height="24" fill="white" transform="translate(0 0.92749)"/>
</clipPath>
</defs>
</svg>
