<svg width="24" height="25" viewBox="0 0 24 25" fill="none" xmlns="http://www.w3.org/2000/svg">
<g clip-path="url(#clip0_507_2217)">
<path d="M10.4202 21.5835C9.61651 21.5828 8.83412 21.3253 8.18715 20.8485L1.54615 15.9785C1.06745 15.627 0.678204 15.1677 0.409917 14.6379C0.141629 14.108 0.00183105 13.5224 0.00183105 12.9285C0.00183105 12.3346 0.141629 11.749 0.409917 11.2192C0.678204 10.6893 1.06745 10.23 1.54615 9.87852L8.18715 5.00852C8.73183 4.60827 9.37379 4.36126 10.0463 4.29319C10.7188 4.22512 11.3972 4.33847 12.011 4.62145C12.6249 4.90442 13.1517 5.3467 13.5367 5.90227C13.9217 6.45783 14.1508 7.1064 14.2002 7.78052L17.9822 5.00652C18.546 4.59407 19.2131 4.34577 19.9094 4.28913C20.6057 4.2325 21.3041 4.36974 21.9272 4.68564C22.5503 5.00155 23.0738 5.48379 23.4397 6.07893C23.8056 6.67408 23.9996 7.3589 24.0002 8.05752V17.7975C24 18.4966 23.8061 19.182 23.4401 19.7777C23.0741 20.3733 22.5502 20.8559 21.9265 21.1719C21.3029 21.4879 20.6039 21.625 19.9072 21.5679C19.2104 21.5108 18.543 21.2618 17.9792 20.8485L14.2002 18.0745C14.1293 19.028 13.7006 19.9194 13.0002 20.5702C12.2998 21.2209 11.3792 21.5829 10.4232 21.5835H10.4202ZM13.2072 15.1085C13.4201 15.1085 13.6275 15.1765 13.7992 15.3025L19.1622 19.2355C19.428 19.4302 19.7425 19.5474 20.0709 19.5742C20.3992 19.6011 20.7286 19.5365 21.0225 19.3875C21.3164 19.2386 21.5633 19.0112 21.7359 18.7306C21.9084 18.4499 21.9999 18.127 22.0002 17.7975V8.05752C21.9997 7.72804 21.908 7.40512 21.7353 7.12453C21.5626 6.84393 21.3156 6.61661 21.0217 6.46773C20.7278 6.31885 20.3984 6.25423 20.07 6.28102C19.7416 6.30781 19.4271 6.42497 19.1612 6.61952L13.8002 10.5525C13.6512 10.662 13.4747 10.728 13.2905 10.7432C13.1063 10.7584 12.9214 10.7223 12.7565 10.6388C12.5915 10.5553 12.453 10.4277 12.3562 10.2702C12.2594 10.1126 12.2081 9.93139 12.2082 9.74652V8.05752C12.208 7.72789 12.1166 7.40474 11.944 7.12392C11.7714 6.8431 11.5243 6.6156 11.2303 6.46665C10.9362 6.31771 10.6066 6.25314 10.2781 6.28013C9.94959 6.30711 9.63497 6.42459 9.36915 6.61952L2.72915 11.4895C2.50326 11.6551 2.31955 11.8716 2.19292 12.1214C2.0663 12.3713 2.00031 12.6474 2.00031 12.9275C2.00031 13.2076 2.0663 13.4838 2.19292 13.7336C2.31955 13.9834 2.50326 14.1999 2.72915 14.3655L9.36915 19.2355C9.63497 19.4302 9.94949 19.5474 10.2779 19.5742C10.6062 19.6011 10.9356 19.5365 11.2295 19.3875C11.5234 19.2386 11.7703 19.0112 11.9429 18.7306C12.1154 18.4499 12.2069 18.127 12.2072 17.7975V16.1085C12.2072 15.8433 12.3125 15.5889 12.5 15.4014C12.6876 15.2139 12.9419 15.1085 13.2072 15.1085Z" fill="#374957"/>
</g>
<defs>
<clipPath id="clip0_507_2217">
<rect width="24" height="24" fill="white" transform="translate(0 0.92749)"/>
</clipPath>
</defs>
</svg>
