<svg width="24" height="25" viewBox="0 0 24 25" fill="none" xmlns="http://www.w3.org/2000/svg">
<g clip-path="url(#clip0_507_1934)">
<path d="M23.9799 2.95047V6.95047C23.9799 7.21569 23.8745 7.47004 23.687 7.65758C23.4995 7.84512 23.2451 7.95047 22.9799 7.95047C22.7147 7.95047 22.4603 7.84512 22.2728 7.65758C22.0853 7.47004 21.9799 7.21569 21.9799 6.95047V4.38747L16.6799 9.65947C16.4908 9.84117 16.2379 9.94131 15.9757 9.93832C15.7134 9.93533 15.4629 9.82945 15.278 9.64349C15.0931 9.45753 14.9886 9.20637 14.9871 8.94413C14.9856 8.68188 15.0871 8.42954 15.2699 8.24147L20.5899 2.95047H17.9799C17.7147 2.95047 17.4603 2.84512 17.2728 2.65758C17.0853 2.47004 16.9799 2.21569 16.9799 1.95047C16.9799 1.68526 17.0853 1.4309 17.2728 1.24337C17.4603 1.05583 17.7147 0.950472 17.9799 0.950472H21.9799C22.5103 0.950472 23.019 1.16119 23.3941 1.53626C23.7692 1.91133 23.9799 2.42004 23.9799 2.95047ZM23.0749 17.6895C23.6544 18.2706 23.9798 19.0578 23.9798 19.8785C23.9798 20.6992 23.6544 21.4864 23.0749 22.0675L22.1629 23.1175C13.9719 30.9555 -5.95709 11.0325 1.76291 2.81747L2.91191 1.81747C3.494 1.25424 4.27425 0.942533 5.08419 0.949643C5.89413 0.956753 6.66879 1.28211 7.24091 1.85547C7.27091 1.88647 9.12391 4.29447 9.12391 4.29447C9.67358 4.87192 9.97965 5.63894 9.97853 6.43617C9.97741 7.23341 9.66919 7.99957 9.11791 8.57547L7.95891 10.0325C8.59975 11.5896 9.54197 13.0047 10.7314 14.1966C11.9209 15.3884 13.3341 16.3335 14.8899 16.9775L16.3549 15.8125C16.9308 15.2615 17.6967 14.9534 18.4937 14.9523C19.2907 14.9512 20.0575 15.2571 20.6349 15.8065C20.6349 15.8065 23.0439 17.6595 23.0749 17.6895ZM21.6999 19.1435C21.6999 19.1435 19.3069 17.3015 19.2759 17.2715C19.0699 17.0672 18.7915 16.9526 18.5014 16.9526C18.2113 16.9526 17.9329 17.0672 17.7269 17.2715C17.6999 17.2975 15.6829 18.9055 15.6829 18.9055C15.547 19.0137 15.3852 19.0846 15.2136 19.1112C15.0419 19.1379 14.8662 19.1194 14.7039 19.0575C12.6871 18.3075 10.8553 17.1324 9.33276 15.6119C7.81022 14.0915 6.63263 12.2612 5.87991 10.2455C5.81406 10.0816 5.79278 9.90319 5.81825 9.72842C5.84372 9.55365 5.91502 9.38874 6.02491 9.25047C6.02491 9.25047 7.63191 7.23347 7.65891 7.20647C7.86317 7.00046 7.97779 6.72209 7.97779 6.43197C7.97779 6.14186 7.86317 5.86349 7.65891 5.65747C7.62891 5.62747 5.78691 3.23347 5.78691 3.23347C5.57793 3.04585 5.30511 2.94526 5.02435 2.95233C4.7436 2.95939 4.47618 3.07357 4.27691 3.27147L3.12791 4.27147C-2.51609 11.0535 14.7569 27.3695 20.6999 21.7535L21.6119 20.7035C21.8269 20.5062 21.9564 20.2327 21.9729 19.9414C21.9893 19.65 21.8914 19.3637 21.6999 19.1435Z" fill="#374957"/>
</g>
<defs>
<clipPath id="clip0_507_1934">
<rect width="24" height="24" fill="white" transform="translate(0 0.92749)"/>
</clipPath>
</defs>
</svg>
