<svg width="24" height="25" viewBox="0 0 24 25" fill="none" xmlns="http://www.w3.org/2000/svg">
<g clip-path="url(#clip0_507_2034)">
<path d="M23.2709 10.3463C21.7199 7.82034 18.1919 3.58234 11.9999 3.58234C5.80793 3.58234 2.27993 7.82034 0.728929 10.3463C0.249457 11.1218 -0.0045166 12.0156 -0.0045166 12.9273C-0.0045166 13.8391 0.249457 14.7328 0.728929 15.5083C2.27993 18.0343 5.80793 22.2723 11.9999 22.2723C18.1919 22.2723 21.7199 18.0343 23.2709 15.5083C23.7504 14.7328 24.0044 13.8391 24.0044 12.9273C24.0044 12.0156 23.7504 11.1218 23.2709 10.3463ZM21.5659 14.4613C20.2339 16.6273 17.2189 20.2723 11.9999 20.2723C6.78093 20.2723 3.76593 16.6273 2.43393 14.4613C2.14906 14.0004 1.99818 13.4692 1.99818 12.9273C1.99818 12.3855 2.14906 11.8543 2.43393 11.3933C3.76593 9.22734 6.78093 5.58234 11.9999 5.58234C17.2189 5.58234 20.2339 9.22334 21.5659 11.3933C21.8508 11.8543 22.0017 12.3855 22.0017 12.9273C22.0017 13.4692 21.8508 14.0004 21.5659 14.4613Z" fill="#374957"/>
<path d="M11.9998 7.92734C11.0109 7.92734 10.0442 8.22058 9.22191 8.76999C8.39966 9.3194 7.7588 10.1003 7.38036 11.0139C7.00192 11.9276 6.90291 12.9329 7.09583 13.9028C7.28876 14.8727 7.76496 15.7636 8.46422 16.4629C9.16349 17.1621 10.0544 17.6383 11.0243 17.8313C11.9942 18.0242 12.9995 17.9252 13.9132 17.5467C14.8268 17.1683 15.6077 16.5274 16.1571 15.7052C16.7065 14.8829 16.9998 13.9162 16.9998 12.9273C16.9982 11.6017 16.4709 10.3309 15.5335 9.39356C14.5962 8.45622 13.3254 7.92893 11.9998 7.92734ZM11.9998 15.9273C11.4064 15.9273 10.8264 15.7514 10.333 15.4217C9.8397 15.0921 9.45518 14.6236 9.22812 14.0754C9.00106 13.5272 8.94165 12.924 9.0574 12.3421C9.17316 11.7601 9.45888 11.2256 9.87844 10.806C10.298 10.3865 10.8325 10.1007 11.4145 9.98498C11.9964 9.86923 12.5996 9.92864 13.1478 10.1557C13.696 10.3828 14.1645 10.7673 14.4942 11.2606C14.8238 11.754 14.9998 12.334 14.9998 12.9273C14.9998 13.723 14.6837 14.4861 14.1211 15.0487C13.5585 15.6113 12.7954 15.9273 11.9998 15.9273Z" fill="#374957"/>
</g>
<defs>
<clipPath id="clip0_507_2034">
<rect width="24" height="24" fill="white" transform="translate(0 0.92749)"/>
</clipPath>
</defs>
</svg>
