<svg width="24" height="25" viewBox="0 0 24 25" fill="none" xmlns="http://www.w3.org/2000/svg">
<g clip-path="url(#clip0_507_2351)">
<path d="M12 0.92749C9.62663 0.92749 7.30655 1.63128 5.33316 2.94986C3.35977 4.26843 1.8217 6.14258 0.913451 8.33529C0.00519943 10.528 -0.232441 12.9408 0.230582 15.2686C0.693605 17.5963 1.83649 19.7345 3.51472 21.4128C5.19295 23.091 7.33115 24.2339 9.65892 24.6969C11.9867 25.1599 14.3995 24.9223 16.5922 24.014C18.7849 23.1058 20.6591 21.5677 21.9776 19.5943C23.2962 17.6209 24 15.3009 24 12.9275C23.9966 9.74595 22.7312 6.6957 20.4815 4.44601C18.2318 2.19632 15.1815 0.930931 12 0.92749V0.92749ZM22 12.9275C22.0012 14.8872 21.423 16.8035 20.338 18.4355L19.146 17.2425C19.0525 17.1488 19 17.0218 19 16.8895V15.9275C19 15.1318 18.6839 14.3688 18.1213 13.8062C17.5587 13.2436 16.7957 12.9275 16 12.9275H13C12.7348 12.9275 12.4804 12.8221 12.2929 12.6346C12.1054 12.4471 12 12.1927 12 11.9275V11.4275C12 11.2949 12.0527 11.1677 12.1465 11.0739C12.2402 10.9802 12.3674 10.9275 12.5 10.9275C13.163 10.9275 13.7989 10.6641 14.2678 10.1953C14.7366 9.72642 15 9.09053 15 8.42749V7.42749C15 7.29488 15.0527 7.16771 15.1465 7.07394C15.2402 6.98017 15.3674 6.92749 15.5 6.92749H16.879C17.5414 6.92561 18.1763 6.66258 18.646 6.19549L19.023 5.81849C19.9662 6.74657 20.7152 7.85313 21.2263 9.07366C21.7374 10.2942 22.0004 11.6043 22 12.9275ZM2.04901 13.8905L5.20701 17.0485C5.48491 17.3282 5.81559 17.5499 6.17985 17.7008C6.54412 17.8517 6.93472 17.9287 7.32901 17.9275H10C10.2652 17.9275 10.5196 18.0328 10.7071 18.2204C10.8946 18.4079 11 18.6623 11 18.9275V22.8765C8.7002 22.6417 6.5524 21.6187 4.92093 19.9808C3.28947 18.343 2.27479 16.1912 2.04901 13.8905ZM13 22.8765V18.9275C13 18.1318 12.6839 17.3688 12.1213 16.8062C11.5587 16.2436 10.7957 15.9275 10 15.9275H7.32901C7.19753 15.9276 7.06732 15.9018 6.94583 15.8515C6.82434 15.8012 6.71396 15.7275 6.62101 15.6345L2.16301 11.1765C2.44918 9.54969 3.13474 8.01938 4.15818 6.72287C5.18162 5.42636 6.51091 4.4042 8.0268 3.7481C9.54269 3.09201 11.1977 2.82251 12.8435 2.96377C14.4892 3.10504 16.0741 3.65266 17.456 4.55749L17.232 4.78149C17.1379 4.87432 17.0112 4.92671 16.879 4.92749H15.5C14.837 4.92749 14.2011 5.19088 13.7322 5.65972C13.2634 6.12856 13 6.76445 13 7.42749V8.42749C13 8.5601 12.9473 8.68728 12.8536 8.78104C12.7598 8.87481 12.6326 8.92749 12.5 8.92749C11.837 8.92749 11.2011 9.19088 10.7322 9.65972C10.2634 10.1286 10 10.7645 10 11.4275V11.9275C10 12.7231 10.3161 13.4862 10.8787 14.0488C11.4413 14.6114 12.2044 14.9275 13 14.9275H16C16.2652 14.9275 16.5196 15.0328 16.7071 15.2204C16.8946 15.4079 17 15.6623 17 15.9275V16.8895C17.0019 17.5519 17.2649 18.1868 17.732 18.6565L19.069 19.9935C17.4405 21.6277 15.2956 22.6466 13 22.8765Z" fill="#374957"/>
</g>
<defs>
<clipPath id="clip0_507_2351">
<rect width="24" height="24" fill="white" transform="translate(0 0.92749)"/>
</clipPath>
</defs>
</svg>
