<svg width="24" height="25" viewBox="0 0 24 25" fill="none" xmlns="http://www.w3.org/2000/svg">
<g clip-path="url(#clip0_507_2314)">
<path d="M24 18.9275V19.9275C23.9984 21.2531 23.4711 22.5239 22.5338 23.4613C21.5964 24.3986 20.3256 24.9259 19 24.9275H18C17.7348 24.9275 17.4804 24.8221 17.2929 24.6346C17.1054 24.4471 17 24.1927 17 23.9275C17 23.6623 17.1054 23.4079 17.2929 23.2204C17.4804 23.0328 17.7348 22.9275 18 22.9275H19C19.7956 22.9275 20.5587 22.6114 21.1213 22.0488C21.6839 21.4862 22 20.7231 22 19.9275V18.9275C22 18.6623 22.1054 18.4079 22.2929 18.2204C22.4804 18.0328 22.7348 17.9275 23 17.9275C23.2652 17.9275 23.5196 18.0328 23.7071 18.2204C23.8946 18.4079 24 18.6623 24 18.9275ZM19 0.92749H18C17.7348 0.92749 17.4804 1.03285 17.2929 1.22038C17.1054 1.40792 17 1.66227 17 1.92749C17 2.19271 17.1054 2.44706 17.2929 2.6346C17.4804 2.82213 17.7348 2.92749 18 2.92749H19C19.7956 2.92749 20.5587 3.24356 21.1213 3.80617C21.6839 4.36878 22 5.13184 22 5.92749V6.92749C22 7.19271 22.1054 7.44706 22.2929 7.6346C22.4804 7.82213 22.7348 7.92749 23 7.92749C23.2652 7.92749 23.5196 7.82213 23.7071 7.6346C23.8946 7.44706 24 7.19271 24 6.92749V5.92749C23.9984 4.6019 23.4711 3.33105 22.5338 2.39371C21.5964 1.45637 20.3256 0.929078 19 0.92749V0.92749ZM23 9.92749C22.7348 9.92749 22.4804 10.0328 22.2929 10.2204C22.1054 10.4079 22 10.6623 22 10.9275V14.9275C22 15.1927 22.1054 15.4471 22.2929 15.6346C22.4804 15.8221 22.7348 15.9275 23 15.9275C23.2652 15.9275 23.5196 15.8221 23.7071 15.6346C23.8946 15.4471 24 15.1927 24 14.9275V10.9275C24 10.6623 23.8946 10.4079 23.7071 10.2204C23.5196 10.0328 23.2652 9.92749 23 9.92749ZM6 22.9275H5C4.20435 22.9275 3.44129 22.6114 2.87868 22.0488C2.31607 21.4862 2 20.7231 2 19.9275V18.9275C2 18.6623 1.89464 18.4079 1.70711 18.2204C1.51957 18.0328 1.26522 17.9275 1 17.9275C0.734784 17.9275 0.48043 18.0328 0.292893 18.2204C0.105357 18.4079 0 18.6623 0 18.9275L0 19.9275C0.00158786 21.2531 0.528882 22.5239 1.46622 23.4613C2.40356 24.3986 3.67441 24.9259 5 24.9275H6C6.26522 24.9275 6.51957 24.8221 6.70711 24.6346C6.89464 24.4471 7 24.1927 7 23.9275C7 23.6623 6.89464 23.4079 6.70711 23.2204C6.51957 23.0328 6.26522 22.9275 6 22.9275ZM6 0.92749H5C3.67441 0.929078 2.40356 1.45637 1.46622 2.39371C0.528882 3.33105 0.00158786 4.6019 0 5.92749L0 6.92749C0 7.19271 0.105357 7.44706 0.292893 7.6346C0.48043 7.82213 0.734784 7.92749 1 7.92749C1.26522 7.92749 1.51957 7.82213 1.70711 7.6346C1.89464 7.44706 2 7.19271 2 6.92749V5.92749C2 5.13184 2.31607 4.36878 2.87868 3.80617C3.44129 3.24356 4.20435 2.92749 5 2.92749H6C6.26522 2.92749 6.51957 2.82213 6.70711 2.6346C6.89464 2.44706 7 2.19271 7 1.92749C7 1.66227 6.89464 1.40792 6.70711 1.22038C6.51957 1.03285 6.26522 0.92749 6 0.92749V0.92749ZM1 15.9275C1.26522 15.9275 1.51957 15.8221 1.70711 15.6346C1.89464 15.4471 2 15.1927 2 14.9275V10.9275C2 10.6623 1.89464 10.4079 1.70711 10.2204C1.51957 10.0328 1.26522 9.92749 1 9.92749C0.734784 9.92749 0.48043 10.0328 0.292893 10.2204C0.105357 10.4079 0 10.6623 0 10.9275L0 14.9275C0 15.1927 0.105357 15.4471 0.292893 15.6346C0.48043 15.8221 0.734784 15.9275 1 15.9275ZM10 2.92749H13.932C14.1972 2.92749 14.4516 2.82213 14.6391 2.6346C14.8266 2.44706 14.932 2.19271 14.932 1.92749C14.932 1.66227 14.8266 1.40792 14.6391 1.22038C14.4516 1.03285 14.1972 0.92749 13.932 0.92749H10C9.73478 0.92749 9.48043 1.03285 9.29289 1.22038C9.10536 1.40792 9 1.66227 9 1.92749C9 2.19271 9.10536 2.44706 9.29289 2.6346C9.48043 2.82213 9.73478 2.92749 10 2.92749ZM14 22.9275H10C9.73478 22.9275 9.48043 23.0328 9.29289 23.2204C9.10536 23.4079 9 23.6623 9 23.9275C9 24.1927 9.10536 24.4471 9.29289 24.6346C9.48043 24.8221 9.73478 24.9275 10 24.9275H14C14.2652 24.9275 14.5196 24.8221 14.7071 24.6346C14.8946 24.4471 15 24.1927 15 23.9275C15 23.6623 14.8946 23.4079 14.7071 23.2204C14.5196 23.0328 14.2652 22.9275 14 22.9275Z" fill="#374957"/>
</g>
<defs>
<clipPath id="clip0_507_2314">
<rect width="24" height="24" fill="white" transform="translate(0 0.92749)"/>
</clipPath>
</defs>
</svg>
