<svg width="24" height="25" viewBox="0 0 24 25" fill="none" xmlns="http://www.w3.org/2000/svg">
<g clip-path="url(#clip0_507_2066)">
<path d="M19 0.92749H13C11.6744 0.929078 10.4036 1.45637 9.46622 2.39371C8.52888 3.33105 8.00159 4.6019 8 5.92749V6.02749C6.87141 6.25959 5.85735 6.87367 5.12872 7.76624C4.40009 8.65881 4.00145 9.77529 4 10.9275V11.0275C2.87141 11.2596 1.85735 11.8737 1.12872 12.7662C0.40009 13.6588 0.00145452 14.7753 0 15.9275L0 19.9275C0.00158786 21.2531 0.528882 22.5239 1.46622 23.4613C2.40356 24.3986 3.67441 24.9259 5 24.9275H11C12.3256 24.9259 13.5964 24.3986 14.5338 23.4613C15.4711 22.5239 15.9984 21.2531 16 19.9275V19.8275C17.1286 19.5954 18.1427 18.9813 18.8713 18.0887C19.5999 17.1962 19.9985 16.0797 20 14.9275V14.8275C21.1286 14.5954 22.1427 13.9813 22.8713 13.0887C23.5999 12.1962 23.9985 11.0797 24 9.92749V5.92749C23.9984 4.6019 23.4711 3.33105 22.5338 2.39371C21.5964 1.45637 20.3256 0.929078 19 0.92749V0.92749ZM2 15.9275C2 15.1318 2.31607 14.3688 2.87868 13.8062C3.44129 13.2436 4.20435 12.9275 5 12.9275H11C11.5437 12.929 12.0766 13.0787 12.5415 13.3607C13.0063 13.6426 13.3855 14.046 13.638 14.5275L10.183 17.9905L9.708 17.5115C9.3539 17.1547 8.87802 16.945 8.37579 16.9245C7.87356 16.9039 7.38211 17.0739 7 17.4005L2.379 21.3605C2.13318 20.9227 2.00275 20.4296 2 19.9275V15.9275ZM14 19.9275C14 20.7231 13.6839 21.4862 13.1213 22.0488C12.5587 22.6114 11.7956 22.9275 11 22.9275H5C4.61656 22.9267 4.23691 22.8516 3.882 22.7065L8.288 18.9275L8.764 19.4085C9.13906 19.7834 9.64767 19.9941 10.178 19.9941C10.7083 19.9941 11.2169 19.7834 11.592 19.4085L14 16.9955V19.9275ZM18 14.9275C17.9974 15.5458 17.8039 16.1481 17.4459 16.6522C17.0879 17.1563 16.5829 17.5374 16 17.7435V15.9275C15.9984 14.6019 15.4711 13.331 14.5338 12.3937C13.5964 11.4564 12.3256 10.9291 11 10.9275H6C6 10.1318 6.31607 9.36878 6.87868 8.80617C7.44129 8.24356 8.20435 7.92749 9 7.92749H15C15.7956 7.92749 16.5587 8.24356 17.1213 8.80617C17.6839 9.36878 18 10.1318 18 10.9275V14.9275ZM22 9.92749C21.9974 10.5458 21.8039 11.1481 21.4459 11.6522C21.0879 12.1563 20.5829 12.5374 20 12.7435V10.9275C19.9984 9.6019 19.4711 8.33105 18.5338 7.39371C17.5964 6.45637 16.3256 5.92908 15 5.92749H10C10 5.13184 10.3161 4.36878 10.8787 3.80617C11.4413 3.24356 12.2044 2.92749 13 2.92749H19C19.7956 2.92749 20.5587 3.24356 21.1213 3.80617C21.6839 4.36878 22 5.13184 22 5.92749V9.92749ZM4 15.9275C4 15.7297 4.05865 15.5364 4.16853 15.3719C4.27841 15.2075 4.43459 15.0793 4.61732 15.0036C4.80004 14.9279 5.00111 14.9081 5.19509 14.9467C5.38907 14.9853 5.56725 15.0805 5.70711 15.2204C5.84696 15.3602 5.9422 15.5384 5.98079 15.7324C6.01937 15.9264 5.99957 16.1274 5.92388 16.3102C5.84819 16.4929 5.72002 16.6491 5.55557 16.759C5.39112 16.8688 5.19778 16.9275 5 16.9275C4.73478 16.9275 4.48043 16.8221 4.29289 16.6346C4.10536 16.4471 4 16.1927 4 15.9275Z" fill="#374957"/>
</g>
<defs>
<clipPath id="clip0_507_2066">
<rect width="24" height="24" fill="white" transform="translate(0 0.92749)"/>
</clipPath>
</defs>
</svg>
