<svg width="24" height="25" viewBox="0 0 24 25" fill="none" xmlns="http://www.w3.org/2000/svg">
<g clip-path="url(#clip0_507_2031)">
<path d="M18.9999 24.9273H16.9999C16.7347 24.9273 16.4803 24.822 16.2928 24.6344C16.1052 24.4469 15.9999 24.1925 15.9999 23.9273C15.9999 23.6621 16.1052 23.4078 16.2928 23.2202C16.4803 23.0327 16.7347 22.9273 16.9999 22.9273H18.9999C19.7955 22.9273 20.5586 22.6113 21.1212 22.0486C21.6838 21.486 21.9999 20.723 21.9999 19.9273V17.9273C21.9999 17.6621 22.1052 17.4078 22.2928 17.2202C22.4803 17.0327 22.7346 16.9273 22.9999 16.9273C23.2651 16.9273 23.5194 17.0327 23.707 17.2202C23.8945 17.4078 23.9999 17.6621 23.9999 17.9273V19.9273C23.9983 21.2529 23.471 22.5238 22.5336 23.4611C21.5963 24.3984 20.3255 24.9257 18.9999 24.9273Z" fill="#374957"/>
<path d="M1 8.92749C0.734784 8.92749 0.48043 8.82213 0.292893 8.6346C0.105357 8.44706 0 8.19271 0 7.92749V5.92749C0.00158786 4.6019 0.528882 3.33105 1.46622 2.39371C2.40356 1.45637 3.67441 0.929078 5 0.92749L7 0.92749C7.26522 0.92749 7.51957 1.03285 7.70711 1.22038C7.89464 1.40792 8 1.66227 8 1.92749C8 2.19271 7.89464 2.44706 7.70711 2.6346C7.51957 2.82213 7.26522 2.92749 7 2.92749H5C4.20435 2.92749 3.44129 3.24356 2.87868 3.80617C2.31607 4.36878 2 5.13184 2 5.92749V7.92749C2 8.19271 1.89464 8.44706 1.70711 8.6346C1.51957 8.82213 1.26522 8.92749 1 8.92749Z" fill="#374957"/>
<path d="M7 24.9273H5C3.67441 24.9257 2.40356 24.3984 1.46622 23.4611C0.528882 22.5238 0.00158786 21.2529 0 19.9273L0 17.9273C0 17.6621 0.105357 17.4078 0.292893 17.2202C0.48043 17.0327 0.734784 16.9273 1 16.9273C1.26522 16.9273 1.51957 17.0327 1.70711 17.2202C1.89464 17.4078 2 17.6621 2 17.9273V19.9273C2 20.723 2.31607 21.486 2.87868 22.0486C3.44129 22.6113 4.20435 22.9273 5 22.9273H7C7.26522 22.9273 7.51957 23.0327 7.70711 23.2202C7.89464 23.4078 8 23.6621 8 23.9273C8 24.1925 7.89464 24.4469 7.70711 24.6344C7.51957 24.822 7.26522 24.9273 7 24.9273Z" fill="#374957"/>
<path d="M22.9999 8.92749C22.7346 8.92749 22.4803 8.82213 22.2928 8.6346C22.1052 8.44706 21.9999 8.19271 21.9999 7.92749V5.92749C21.9999 5.13184 21.6838 4.36878 21.1212 3.80617C20.5586 3.24356 19.7955 2.92749 18.9999 2.92749H16.9999C16.7347 2.92749 16.4803 2.82213 16.2928 2.6346C16.1052 2.44706 15.9999 2.19271 15.9999 1.92749C15.9999 1.66227 16.1052 1.40792 16.2928 1.22038C16.4803 1.03285 16.7347 0.92749 16.9999 0.92749H18.9999C20.3255 0.929078 21.5963 1.45637 22.5336 2.39371C23.471 3.33105 23.9983 4.6019 23.9999 5.92749V7.92749C23.9999 8.19271 23.8945 8.44706 23.707 8.6346C23.5194 8.82213 23.2651 8.92749 22.9999 8.92749Z" fill="#374957"/>
</g>
<defs>
<clipPath id="clip0_507_2031">
<rect width="24" height="24" fill="white" transform="translate(0 0.92749)"/>
</clipPath>
</defs>
</svg>
