<svg width="24" height="25" viewBox="0 0 24 25" fill="none" xmlns="http://www.w3.org/2000/svg">
<g clip-path="url(#clip0_507_2176)">
<path d="M22.8531 2.07549C22.1733 1.39669 21.2518 1.01543 20.2911 1.01543C19.3304 1.01543 18.409 1.39669 17.7291 2.07549L1.46514 18.3395C0.999388 18.8026 0.630099 19.3535 0.378635 19.9603C0.127171 20.5671 -0.00147591 21.2177 0.000137052 21.8745V23.9275C0.000137052 24.1927 0.105494 24.4471 0.29303 24.6346C0.480567 24.8221 0.734921 24.9275 1.00014 24.9275H3.05314C3.7099 24.9293 4.36051 24.8009 4.96729 24.5496C5.57408 24.2983 6.12499 23.9291 6.58814 23.4635L22.8531 7.19849C23.5316 6.51868 23.9127 5.59746 23.9127 4.63699C23.9127 3.67652 23.5316 2.75529 22.8531 2.07549ZM5.17414 22.0495C4.61014 22.6097 3.8481 22.9252 3.05314 22.9275H2.00014V21.8745C1.99913 21.4804 2.07629 21.09 2.22717 20.7259C2.37806 20.3619 2.59965 20.0313 2.87914 19.7535L15.2221 7.41049L17.5221 9.71049L5.17414 22.0495ZM21.4381 5.78449L18.9321 8.29149L16.6321 5.99649L19.1391 3.48949C19.2902 3.3388 19.4694 3.21933 19.6666 3.1379C19.8638 3.05647 20.0751 3.01468 20.2884 3.01491C20.5017 3.01514 20.713 3.05739 20.91 3.13925C21.107 3.22111 21.2859 3.34097 21.4366 3.49199C21.5873 3.64301 21.7068 3.82223 21.7882 4.01942C21.8697 4.21662 21.9114 4.42791 21.9112 4.64126C21.911 4.8546 21.8687 5.06581 21.7869 5.26282C21.705 5.45984 21.5852 5.6388 21.4341 5.78949L21.4381 5.78449Z" fill="#374957"/>
</g>
<defs>
<clipPath id="clip0_507_2176">
<rect width="24" height="24" fill="white" transform="translate(0 0.92749)"/>
</clipPath>
</defs>
</svg>
