<svg width="24" height="25" viewBox="0 0 24 25" fill="none" xmlns="http://www.w3.org/2000/svg">
<g clip-path="url(#clip0_507_2344)">
<path d="M22.9 9.88313C22.2246 9.54085 21.4133 9.61219 20.808 10.0671L18.975 11.4281C18.7151 8.87476 16.5666 6.93137 14 6.92813H13.915L9.79303 2.80712C9.23208 2.24222 8.46816 1.92563 7.67203 1.92812H0.999984C0.447703 1.92812 0 2.37587 0 2.92815C0 3.48043 0.447703 3.92813 0.999984 3.92813H7.67198C7.93706 3.92883 8.19112 4.03412 8.379 4.22115L11.086 6.92813H5.00002C2.23997 6.93146 0.00332812 9.1681 0 11.9281V19.9282C0.00332812 22.6882 2.23997 24.9249 5.00002 24.9281H14C16.5666 24.9249 18.7151 22.9815 18.975 20.4281L20.805 21.7921C21.6886 22.4549 22.9423 22.2758 23.605 21.3922C23.8646 21.046 24.005 20.6249 24.005 20.1922V11.6711C24.0076 10.9132 23.5791 10.2198 22.9 9.88313ZM17 19.9281C17 21.585 15.6569 22.9281 14 22.9281H5.00002C3.34317 22.9281 2.00002 21.585 2.00002 19.9281V11.9281C2.00002 10.2713 3.34317 8.92815 5.00002 8.92815H14C15.6569 8.92815 17 10.2713 17 11.9281V19.9281ZM22 20.1851L19 17.9491V13.9072L22 11.6712V20.1851Z" fill="#374957"/>
</g>
<defs>
<clipPath id="clip0_507_2344">
<rect width="24" height="24" fill="white" transform="translate(0 0.92749)"/>
</clipPath>
</defs>
</svg>
