<svg width="24" height="25" viewBox="0 0 24 25" fill="none" xmlns="http://www.w3.org/2000/svg">
<path d="M22.2075 5.95668C21.3112 4.46292 19.7178 3.46706 17.9253 3.46706H5.97511C4.18256 3.46706 2.58923 4.46292 1.69294 5.95668C0.597516 7.9484 0 10.1393 0 12.4297C0 17.9069 2.19089 22.3882 4.97925 22.3882C6.47302 22.3882 7.66805 20.994 8.5643 18.1061C8.66386 17.7077 9.0622 17.409 9.56016 17.409H14.4398C14.8382 17.409 15.2365 17.7077 15.4357 18.1061C16.332 20.994 17.527 22.3882 19.0208 22.3882C21.8091 22.3882 24 17.9069 24 12.4297C23.9004 10.1393 23.3029 7.9484 22.2075 5.95668ZM18.9211 20.3965C18.6224 20.3965 17.9253 19.5998 17.2282 17.5086C16.8299 16.214 15.6348 15.4173 14.3402 15.4173H9.56016C8.26556 15.4173 7.07053 16.3135 6.67219 17.5086C5.97511 19.5998 5.27798 20.3965 4.97925 20.3965C3.98339 20.3965 1.99172 17.3094 1.99172 12.4297C1.99172 10.5376 2.48962 8.64552 3.38592 6.95259C3.98344 6.05634 4.9793 5.45882 5.97516 5.45882H17.9254C18.9212 5.45882 19.9171 6.05634 20.5146 6.95259C21.4109 8.64552 21.9088 10.5376 21.9088 12.4297C21.9087 17.3094 19.917 20.3965 18.9211 20.3965Z" fill="#374957"/>
<path d="M9.00005 9.9275H8.00006V8.92752C8.00006 8.32752 7.60008 7.92754 7.00008 7.92754C6.40008 7.92754 6.00009 8.32752 6.00009 8.92752V9.9275H5.00011C4.40011 9.9275 4.00012 10.3275 4.00012 10.9275C4.00012 11.5275 4.40011 11.9275 5.00011 11.9275H6.00005V12.9275C6.00005 13.5275 6.40003 13.9275 7.00003 13.9275C7.60003 13.9275 8.00002 13.5275 8.00002 12.9275V11.9275H9.00005C9.60005 11.9275 10 11.5275 10 10.9275C10 10.3275 9.60005 9.9275 9.00005 9.9275Z" fill="#374957"/>
<path d="M18.5 10.9275C19.3284 10.9275 20 10.2559 20 9.42746C20 8.59903 19.3284 7.92746 18.5 7.92746C17.6716 7.92746 17 8.59903 17 9.42746C17 10.2559 17.6716 10.9275 18.5 10.9275Z" fill="#374957"/>
<path d="M15.5 13.9275C16.3284 13.9275 17 13.2559 17 12.4275C17 11.599 16.3284 10.9275 15.5 10.9275C14.6716 10.9275 14 11.599 14 12.4275C14 13.2559 14.6716 13.9275 15.5 13.9275Z" fill="#374957"/>
</svg>
