<svg width="24" height="25" viewBox="0 0 24 25" fill="none" xmlns="http://www.w3.org/2000/svg">
<path d="M10.5999 13.6375C10.5061 13.5445 10.4317 13.4339 10.381 13.3121C10.3302 13.1902 10.3041 13.0595 10.3041 12.9275C10.3041 12.7955 10.3302 12.6648 10.381 12.5429C10.4317 12.4211 10.5061 12.3105 10.5999 12.2175L15.1899 7.63749C15.2836 7.54453 15.358 7.43393 15.4088 7.31207C15.4595 7.19021 15.4857 7.0595 15.4857 6.92749C15.4857 6.79548 15.4595 6.66477 15.4088 6.54291C15.358 6.42105 15.2836 6.31045 15.1899 6.21749C15.0025 6.03124 14.749 5.9267 14.4849 5.9267C14.2207 5.9267 13.9672 6.03124 13.7799 6.21749L9.18986 10.8075C8.62806 11.37 8.3125 12.1325 8.3125 12.9275C8.3125 13.7225 8.62806 14.485 9.18986 15.0475L13.7799 19.6375C13.9661 19.8222 14.2175 19.9264 14.4799 19.9275C14.6115 19.9283 14.7419 19.903 14.8638 19.8533C14.9856 19.8035 15.0964 19.7302 15.1899 19.6375C15.2836 19.5445 15.358 19.4339 15.4088 19.3121C15.4595 19.1902 15.4857 19.0595 15.4857 18.9275C15.4857 18.7955 15.4595 18.6648 15.4088 18.5429C15.358 18.4211 15.2836 18.3105 15.1899 18.2175L10.5999 13.6375Z" fill="#374957"/>
</svg>
