<svg width="24" height="25" viewBox="0 0 24 25" fill="none" xmlns="http://www.w3.org/2000/svg">
<g clip-path="url(#clip0_507_1919)">
<path d="M19 4.92749H17.9C17.6679 3.7989 17.0538 2.78484 16.1613 2.05621C15.2687 1.32758 14.1522 0.928945 13 0.92749L11 0.92749C9.8478 0.928945 8.73132 1.32758 7.83875 2.05621C6.94618 2.78484 6.3321 3.7989 6.1 4.92749H5C3.67441 4.92908 2.40356 5.45637 1.46622 6.39371C0.528882 7.33105 0.00158786 8.6019 0 9.92749L0 19.9275C0.00158786 21.2531 0.528882 22.5239 1.46622 23.4613C2.40356 24.3986 3.67441 24.9259 5 24.9275H19C20.3256 24.9259 21.5964 24.3986 22.5338 23.4613C23.4711 22.5239 23.9984 21.2531 24 19.9275V9.92749C23.9984 8.6019 23.4711 7.33105 22.5338 6.39371C21.5964 5.45637 20.3256 4.92908 19 4.92749ZM11 2.92749H13C13.6183 2.93005 14.2206 3.12357 14.7247 3.48158C15.2288 3.83958 15.6099 4.34458 15.816 4.92749H8.184C8.39008 4.34458 8.77123 3.83958 9.2753 3.48158C9.77937 3.12357 10.3817 2.93005 11 2.92749ZM5 6.92749H19C19.7956 6.92749 20.5587 7.24356 21.1213 7.80617C21.6839 8.36878 22 9.13184 22 9.92749V12.9275H2V9.92749C2 9.13184 2.31607 8.36878 2.87868 7.80617C3.44129 7.24356 4.20435 6.92749 5 6.92749ZM19 22.9275H5C4.20435 22.9275 3.44129 22.6114 2.87868 22.0488C2.31607 21.4862 2 20.7231 2 19.9275V14.9275H11V15.9275C11 16.1927 11.1054 16.4471 11.2929 16.6346C11.4804 16.8221 11.7348 16.9275 12 16.9275C12.2652 16.9275 12.5196 16.8221 12.7071 16.6346C12.8946 16.4471 13 16.1927 13 15.9275V14.9275H22V19.9275C22 20.7231 21.6839 21.4862 21.1213 22.0488C20.5587 22.6114 19.7956 22.9275 19 22.9275Z" fill="#374957"/>
</g>
<defs>
<clipPath id="clip0_507_1919">
<rect width="24" height="24" fill="white" transform="translate(0 0.92749)"/>
</clipPath>
</defs>
</svg>
