<svg width="24" height="25" viewBox="0 0 24 25" fill="none" xmlns="http://www.w3.org/2000/svg">
<g clip-path="url(#clip0_507_2285)">
<path d="M23.7071 6.2209L18.7071 1.2209C18.5185 1.03874 18.2659 0.937945 18.0037 0.940223C17.7415 0.942502 17.4907 1.04767 17.3053 1.23308C17.1199 1.41849 17.0147 1.6693 17.0124 1.9315C17.0101 2.19369 17.1109 2.4463 17.2931 2.6349L19.0861 4.4279L17.6001 5.9109C16.6397 5.20571 15.459 4.86668 14.2708 4.95486C13.0825 5.04305 11.9649 5.55266 11.1191 6.3919L5.05008 12.4639C4.39816 13.1123 3.8813 13.8836 3.52942 14.7331C3.17754 15.5826 2.99763 16.4934 3.00008 17.4129V20.5129L0.293081 23.2209C0.197571 23.3131 0.121389 23.4235 0.0689798 23.5455C0.0165708 23.6675 -0.0110155 23.7987 -0.0121693 23.9315C-0.0133231 24.0643 0.0119786 24.196 0.0622595 24.3188C0.11254 24.4417 0.186794 24.5534 0.280686 24.6473C0.374579 24.7412 0.486231 24.8154 0.609127 24.8657C0.732023 24.916 0.863703 24.9413 0.996482 24.9401C1.12926 24.939 1.26048 24.9114 1.38249 24.859C1.50449 24.8066 1.61483 24.7304 1.70708 24.6349L4.41408 21.9279H7.51408C8.43356 21.9304 9.3444 21.7504 10.1939 21.3986C11.0434 21.0467 11.8147 20.5298 12.4631 19.8779L18.5351 13.8059C19.375 12.9611 19.8852 11.8439 19.9736 10.656C20.062 9.46805 19.7227 8.28765 19.0171 7.3279L20.5001 5.8419L22.2931 7.6349C22.4817 7.81706 22.7343 7.91785 22.9965 7.91557C23.2587 7.91329 23.5095 7.80812 23.6949 7.62272C23.8803 7.43731 23.9855 7.1865 23.9878 6.9243C23.99 6.6621 23.8892 6.4095 23.7071 6.2209ZM17.1221 12.3919L11.0501 18.4639C10.5869 18.9295 10.036 19.2986 9.4292 19.5499C8.82243 19.8012 8.17183 19.9297 7.51508 19.9279H5.00008V17.4129C5.00039 17.0853 5.0322 16.7584 5.09508 16.4369L6.29508 17.6369C6.38733 17.7324 6.49767 17.8086 6.61968 17.861C6.74168 17.9134 6.8729 17.941 7.00568 17.9421C7.13846 17.9433 7.27014 17.918 7.39303 17.8677C7.51593 17.8174 7.62758 17.7432 7.72148 17.6493C7.81537 17.5554 7.88962 17.4437 7.9399 17.3209C7.99018 17.198 8.01549 17.0663 8.01433 16.9335C8.01318 16.8007 7.98559 16.6695 7.93318 16.5475C7.88077 16.4255 7.80459 16.3151 7.70908 16.2229L5.96808 14.4819C6.11881 14.2691 6.28599 14.0685 6.46808 13.8819L7.50008 12.8419L9.29308 14.6349C9.48168 14.8171 9.73429 14.9178 9.99648 14.9156C10.2587 14.9133 10.5095 14.8081 10.6949 14.6227C10.8803 14.4373 10.9855 14.1865 10.9878 13.9243C10.99 13.6621 10.8892 13.4095 10.7071 13.2209L8.91408 11.4279L10.5001 9.8419L12.2931 11.6349C12.4817 11.8171 12.7343 11.9178 12.9965 11.9156C13.2587 11.9133 13.5095 11.8081 13.6949 11.6227C13.8803 11.4373 13.9855 11.1865 13.9878 10.9243C13.99 10.6621 13.8892 10.4095 13.7071 10.2209L11.9141 8.4279L12.5361 7.8059C13.1077 7.26072 13.8672 6.95656 14.6571 6.95656C15.447 6.95656 16.2065 7.26072 16.7781 7.8059L17.1221 8.1499C17.6845 8.71248 18.0004 9.47541 18.0004 10.2709C18.0004 11.0664 17.6845 11.8293 17.1221 12.3919Z" fill="#374957"/>
</g>
<defs>
<clipPath id="clip0_507_2285">
<rect width="24" height="24" fill="white" transform="translate(0 0.92749)"/>
</clipPath>
</defs>
</svg>
