<svg width="24" height="25" viewBox="0 0 24 25" fill="none" xmlns="http://www.w3.org/2000/svg">
<g clip-path="url(#clip0_507_2264)">
<path d="M17 8.89149V7.92749C16.9974 7.30923 16.8039 6.70686 16.4459 6.20279C16.0879 5.69872 15.5829 5.31757 15 5.11149V2.92749H19C19.2652 2.92749 19.5196 2.82213 19.7071 2.6346C19.8946 2.44706 20 2.19271 20 1.92749C20 1.66227 19.8946 1.40792 19.7071 1.22038C19.5196 1.03285 19.2652 0.92749 19 0.92749H12C11.2044 0.92749 10.4413 1.24356 9.87868 1.80617C9.31607 2.36878 9 3.13184 9 3.92749V5.11149C8.4171 5.31757 7.9121 5.69872 7.55409 6.20279C7.19609 6.70686 7.00257 7.30923 7 7.92749V8.89149C5.49832 9.62916 4.23368 10.7733 3.34981 12.1938C2.46594 13.6144 1.99829 15.2544 2 16.9275V18.9275C2.00159 20.5183 2.63424 22.0435 3.75912 23.1684C4.88399 24.2933 6.40919 24.9259 8 24.9275H16C17.5908 24.9259 19.116 24.2933 20.2409 23.1684C21.3658 22.0435 21.9984 20.5183 22 18.9275V16.9275C22.0017 15.2544 21.5341 13.6144 20.6502 12.1938C19.7663 10.7733 18.5017 9.62916 17 8.89149ZM11 3.92749C11 3.66227 11.1054 3.40792 11.2929 3.22038C11.4804 3.03285 11.7348 2.92749 12 2.92749H13V4.92749H11V3.92749ZM9 7.92749C9 7.66227 9.10536 7.40792 9.2929 7.22038C9.48043 7.03285 9.73479 6.92749 10 6.92749H14C14.2652 6.92749 14.5196 7.03285 14.7071 7.22038C14.8946 7.40792 15 7.66227 15 7.92749V8.92749H9V7.92749ZM20 18.9275C20 19.9884 19.5786 21.0058 18.8284 21.7559C18.0783 22.5061 17.0609 22.9275 16 22.9275H8C6.93914 22.9275 5.92172 22.5061 5.17158 21.7559C4.42143 21.0058 4 19.9884 4 18.9275V16.9275C3.99682 15.7189 4.30802 14.5303 4.90307 13.4784C5.49811 12.4265 6.35652 11.5474 7.394 10.9275H16.606C17.6435 11.5474 18.5019 12.4265 19.0969 13.4784C19.692 14.5303 20.0032 15.7189 20 16.9275V18.9275ZM15 14.9275H9C8.20436 14.9275 7.44129 15.2436 6.87868 15.8062C6.31608 16.3688 6 17.1318 6 17.9275C6 18.7231 6.31608 19.4862 6.87868 20.0488C7.44129 20.6114 8.20436 20.9275 9 20.9275H15C15.7957 20.9275 16.5587 20.6114 17.1213 20.0488C17.6839 19.4862 18 18.7231 18 17.9275C18 17.1318 17.6839 16.3688 17.1213 15.8062C16.5587 15.2436 15.7957 14.9275 15 14.9275ZM15 18.9275H9C8.73479 18.9275 8.48043 18.8221 8.2929 18.6346C8.10536 18.4471 8 18.1927 8 17.9275C8 17.6623 8.10536 17.4079 8.2929 17.2204C8.48043 17.0328 8.73479 16.9275 9 16.9275H15C15.2652 16.9275 15.5196 17.0328 15.7071 17.2204C15.8946 17.4079 16 17.6623 16 17.9275C16 18.1927 15.8946 18.4471 15.7071 18.6346C15.5196 18.8221 15.2652 18.9275 15 18.9275Z" fill="#374957"/>
</g>
<defs>
<clipPath id="clip0_507_2264">
<rect width="24" height="24" fill="white" transform="translate(0 0.92749)"/>
</clipPath>
</defs>
</svg>
