<svg width="24" height="25" viewBox="0 0 24 25" fill="none" xmlns="http://www.w3.org/2000/svg">
<path d="M18.7098 9.13747C18.6169 9.04374 18.5063 8.96935 18.3844 8.91858C18.2625 8.86781 18.1318 8.84167 17.9998 8.84167C17.8678 8.84167 17.7371 8.86781 17.6152 8.91858C17.4934 8.96935 17.3828 9.04374 17.2898 9.13747L12.7098 13.7175C12.6169 13.8112 12.5063 13.8856 12.3844 13.9364C12.2625 13.9871 12.1318 14.0133 11.9998 14.0133C11.8678 14.0133 11.7371 13.9871 11.6152 13.9364C11.4934 13.8856 11.3828 13.8112 11.2898 13.7175L6.70982 9.13747C6.61685 9.04374 6.50625 8.96935 6.38439 8.91858C6.26253 8.86781 6.13183 8.84167 5.99982 8.84167C5.8678 8.84167 5.7371 8.86781 5.61524 8.91858C5.49338 8.96935 5.38278 9.04374 5.28982 9.13747C5.10356 9.32483 4.99902 9.57829 4.99902 9.84247C4.99902 10.1067 5.10356 10.3601 5.28982 10.5475L9.87982 15.1375C10.4423 15.6993 11.2048 16.0148 11.9998 16.0148C12.7948 16.0148 13.5573 15.6993 14.1198 15.1375L18.7098 10.5475C18.8961 10.3601 19.0006 10.1067 19.0006 9.84247C19.0006 9.57829 18.8961 9.32483 18.7098 9.13747Z" fill="#374957"/>
</svg>
