<svg width="24" height="25" viewBox="0 0 24 25" fill="none" xmlns="http://www.w3.org/2000/svg">
<g clip-path="url(#clip0_507_2284)">
<path d="M23.4141 1.51379C23.1632 1.26668 22.8522 1.08935 22.5118 0.999375C22.1713 0.909398 21.8133 0.909887 21.4731 1.00079C19.0321 1.80451 16.8132 3.16858 14.9941 4.98379L5.51808 14.4588C4.14986 13.7215 2.67255 13.2076 1.14208 12.9368C0.882462 12.9048 0.62065 12.9759 0.412786 13.1347C0.204922 13.2934 0.0675555 13.5274 0.0301412 13.7863C-0.00727305 14.0452 0.058244 14.3084 0.212644 14.5196C0.367043 14.7307 0.598033 14.873 0.856081 14.9158C2.80288 15.2808 4.63657 16.0985 6.20908 17.3028L2.50008 21.0128L1.70708 20.2198C1.61483 20.1243 1.50449 20.0481 1.38249 19.9957C1.26048 19.9433 1.12926 19.9157 0.996482 19.9145C0.863703 19.9134 0.732024 19.9387 0.609127 19.989C0.486231 20.0393 0.374579 20.1135 0.280686 20.2074C0.186794 20.3013 0.11254 20.4129 0.0622595 20.5358C0.0119786 20.6587 -0.0133231 20.7904 -0.0121693 20.9232C-0.0110155 21.056 0.0165708 21.1872 0.0689798 21.3092C0.121389 21.4312 0.197571 21.5415 0.293081 21.6338L3.29308 24.6338C3.38533 24.7293 3.49567 24.8055 3.61768 24.8579C3.73968 24.9103 3.8709 24.9379 4.00368 24.939C4.13646 24.9402 4.26814 24.9149 4.39104 24.8646C4.51393 24.8143 4.62558 24.7401 4.71948 24.6462C4.81337 24.5523 4.88762 24.4406 4.9379 24.3177C4.98818 24.1949 5.01349 24.0632 5.01233 23.9304C5.01118 23.7976 4.98359 23.6664 4.93118 23.5444C4.87877 23.4224 4.80259 23.312 4.70708 23.2198L3.91408 22.4268L7.62308 18.7168C8.82831 20.2892 9.64608 22.1234 10.0101 24.0708C10.0447 24.3086 10.1638 24.526 10.3456 24.6832C10.5274 24.8404 10.7597 24.9269 11.0001 24.9268C11.0483 24.9271 11.0965 24.9234 11.1441 24.9158C11.4061 24.8779 11.6424 24.7377 11.8011 24.5259C11.9599 24.314 12.0282 24.0479 11.9911 23.7858C11.7213 22.255 11.2074 20.7776 10.4691 19.4098L19.9441 9.93379C21.7799 8.08894 23.1539 5.83641 23.9541 3.35979C24.027 3.03152 24.0158 2.69013 23.9214 2.36738C23.827 2.04463 23.6525 1.75099 23.4141 1.51379ZM18.5291 8.51879L9.36208 17.6868C9.05865 17.287 8.72856 16.9081 8.37408 16.5528C8.01864 16.1988 7.64015 15.8687 7.24108 15.5648L16.4081 6.39779C17.9772 4.82773 19.8884 3.64213 21.9921 2.93379C21.2819 5.03667 20.097 6.94773 18.5291 8.51879Z" fill="#374957"/>
</g>
<defs>
<clipPath id="clip0_507_2284">
<rect width="24" height="24" fill="white" transform="translate(0 0.92749)"/>
</clipPath>
</defs>
</svg>
