<svg width="24" height="25" viewBox="0 0 24 25" fill="none" xmlns="http://www.w3.org/2000/svg">
<g clip-path="url(#clip0_507_1921)">
<path d="M19 1.92755H5C3.67441 1.92914 2.40356 2.45643 1.46622 3.39377C0.528882 4.33111 0.00158786 5.60196 0 6.92755L0 18.9276C0.00158786 20.2531 0.528882 21.524 1.46622 22.4613C2.40356 23.3987 3.67441 23.926 5 23.9276H19C20.3256 23.926 21.5964 23.3987 22.5338 22.4613C23.4711 21.524 23.9984 20.2531 24 18.9276V6.92755C23.9984 5.60196 23.4711 4.33111 22.5338 3.39377C21.5964 2.45643 20.3256 1.92914 19 1.92755ZM5 3.92755H19C19.7956 3.92755 20.5587 4.24362 21.1213 4.80623C21.6839 5.36884 22 6.1319 22 6.92755V7.92755H2V6.92755C2 6.1319 2.31607 5.36884 2.87868 4.80623C3.44129 4.24362 4.20435 3.92755 5 3.92755ZM19 21.9276H5C4.20435 21.9276 3.44129 21.6115 2.87868 21.0489C2.31607 20.4863 2 19.7232 2 18.9276V9.92755H22V18.9276C22 19.7232 21.6839 20.4863 21.1213 21.0489C20.5587 21.6115 19.7956 21.9276 19 21.9276ZM19 13.9276C19 14.1928 18.8946 14.4471 18.7071 14.6347C18.5196 14.8222 18.2652 14.9276 18 14.9276H6C5.73478 14.9276 5.48043 14.8222 5.29289 14.6347C5.10536 14.4471 5 14.1928 5 13.9276C5 13.6623 5.10536 13.408 5.29289 13.2204C5.48043 13.0329 5.73478 12.9276 6 12.9276H18C18.2652 12.9276 18.5196 13.0329 18.7071 13.2204C18.8946 13.408 19 13.6623 19 13.9276ZM15 17.9276C15 18.1928 14.8946 18.4471 14.7071 18.6347C14.5196 18.8222 14.2652 18.9276 14 18.9276H6C5.73478 18.9276 5.48043 18.8222 5.29289 18.6347C5.10536 18.4471 5 18.1928 5 17.9276C5 17.6623 5.10536 17.408 5.29289 17.2204C5.48043 17.0329 5.73478 16.9276 6 16.9276H14C14.2652 16.9276 14.5196 17.0329 14.7071 17.2204C14.8946 17.408 15 17.6623 15 17.9276ZM3 5.92755C3 5.72977 3.05865 5.53643 3.16853 5.37198C3.27841 5.20753 3.43459 5.07936 3.61732 5.00367C3.80004 4.92798 4.00111 4.90818 4.19509 4.94677C4.38907 4.98535 4.56725 5.08059 4.70711 5.22044C4.84696 5.3603 4.9422 5.53848 4.98079 5.73246C5.01937 5.92644 4.99957 6.12751 4.92388 6.31023C4.84819 6.49296 4.72002 6.64914 4.55557 6.75902C4.39112 6.8689 4.19778 6.92755 4 6.92755C3.73478 6.92755 3.48043 6.82219 3.29289 6.63466C3.10536 6.44712 3 6.19277 3 5.92755ZM6 5.92755C6 5.72977 6.05865 5.53643 6.16853 5.37198C6.27841 5.20753 6.43459 5.07936 6.61732 5.00367C6.80004 4.92798 7.00111 4.90818 7.19509 4.94677C7.38907 4.98535 7.56725 5.08059 7.70711 5.22044C7.84696 5.3603 7.9422 5.53848 7.98079 5.73246C8.01937 5.92644 7.99957 6.12751 7.92388 6.31023C7.84819 6.49296 7.72002 6.64914 7.55557 6.75902C7.39112 6.8689 7.19778 6.92755 7 6.92755C6.73478 6.92755 6.48043 6.82219 6.29289 6.63466C6.10536 6.44712 6 6.19277 6 5.92755ZM9 5.92755C9 5.72977 9.05865 5.53643 9.16853 5.37198C9.27841 5.20753 9.43459 5.07936 9.61732 5.00367C9.80004 4.92798 10.0011 4.90818 10.1951 4.94677C10.3891 4.98535 10.5673 5.08059 10.7071 5.22044C10.847 5.3603 10.9422 5.53848 10.9808 5.73246C11.0194 5.92644 10.9996 6.12751 10.9239 6.31023C10.8482 6.49296 10.72 6.64914 10.5556 6.75902C10.3911 6.8689 10.1978 6.92755 10 6.92755C9.73478 6.92755 9.48043 6.82219 9.29289 6.63466C9.10536 6.44712 9 6.19277 9 5.92755Z" fill="#374957"/>
</g>
<defs>
<clipPath id="clip0_507_1921">
<rect width="24" height="24" fill="white" transform="translate(0 0.92749)"/>
</clipPath>
</defs>
</svg>
