<svg width="24" height="25" viewBox="0 0 24 25" fill="none" xmlns="http://www.w3.org/2000/svg">
<g clip-path="url(#clip0_507_2166)">
<path d="M23 20.9275H14.816C14.6666 20.5092 14.4262 20.1294 14.1122 19.8153C13.7981 19.5013 13.4182 19.2609 13 19.1115V14.9275H19C19.6067 14.9297 20.1997 14.7472 20.7001 14.4044C21.2006 14.0615 21.585 13.5744 21.802 13.0079C22.0191 12.4414 22.0586 11.8222 21.9153 11.2327C21.7721 10.6432 21.4528 10.1112 21 9.70749V4.92749C21 3.86662 20.5786 2.84921 19.8284 2.09906C19.0783 1.34892 18.0609 0.92749 17 0.92749L7 0.92749C5.93913 0.92749 4.92172 1.34892 4.17157 2.09906C3.42143 2.84921 3 3.86662 3 4.92749V9.70749C2.54717 10.1112 2.22792 10.6432 2.08466 11.2327C1.94141 11.8222 1.98094 12.4414 2.19799 13.0079C2.41505 13.5744 2.79936 14.0615 3.29985 14.4044C3.80035 14.7472 4.39333 14.9297 5 14.9275H11V19.1115C10.5818 19.2609 10.2019 19.5013 9.88785 19.8153C9.5738 20.1294 9.3334 20.5092 9.184 20.9275H1C0.734784 20.9275 0.48043 21.0328 0.292893 21.2204C0.105357 21.4079 0 21.6623 0 21.9275C0 22.1927 0.105357 22.4471 0.292893 22.6346C0.48043 22.8221 0.734784 22.9275 1 22.9275H9.184C9.38765 23.512 9.76816 24.0187 10.2727 24.3773C10.7773 24.7358 11.381 24.9284 12 24.9284C12.619 24.9284 13.2227 24.7358 13.7273 24.3773C14.2318 24.0187 14.6124 23.512 14.816 22.9275H23C23.2652 22.9275 23.5196 22.8221 23.7071 22.6346C23.8946 22.4471 24 22.1927 24 21.9275C24 21.6623 23.8946 21.4079 23.7071 21.2204C23.5196 21.0328 23.2652 20.9275 23 20.9275ZM5 4.92749C5 4.39706 5.21071 3.88835 5.58579 3.51328C5.96086 3.1382 6.46957 2.92749 7 2.92749H17C17.5304 2.92749 18.0391 3.1382 18.4142 3.51328C18.7893 3.88835 19 4.39706 19 4.92749V8.92749H15.414C15.1513 8.92678 14.891 8.97821 14.6483 9.0788C14.4056 9.17939 14.1852 9.32714 14 9.51349L13.586 9.92749H10.414L10 9.51349C9.81479 9.32714 9.59444 9.17939 9.35172 9.0788C9.109 8.97821 8.84874 8.92678 8.586 8.92749H5V4.92749ZM4 11.9275C4 11.6623 4.10536 11.4079 4.29289 11.2204C4.48043 11.0328 4.73478 10.9275 5 10.9275H8.586L9 11.3415C9.18521 11.5278 9.40556 11.6756 9.64828 11.7762C9.891 11.8768 10.1513 11.9282 10.414 11.9275H13.586C13.8487 11.9282 14.109 11.8768 14.3517 11.7762C14.5944 11.6756 14.8148 11.5278 15 11.3415L15.414 10.9275H19C19.2652 10.9275 19.5196 11.0328 19.7071 11.2204C19.8946 11.4079 20 11.6623 20 11.9275C20 12.1927 19.8946 12.4471 19.7071 12.6346C19.5196 12.8221 19.2652 12.9275 19 12.9275H5C4.73478 12.9275 4.48043 12.8221 4.29289 12.6346C4.10536 12.4471 4 12.1927 4 11.9275ZM12 22.9275C11.8022 22.9275 11.6089 22.8688 11.4444 22.759C11.28 22.6491 11.1518 22.4929 11.0761 22.3102C11.0004 22.1274 10.9806 21.9264 11.0192 21.7324C11.0578 21.5384 11.153 21.3602 11.2929 21.2204C11.4327 21.0805 11.6109 20.9853 11.8049 20.9467C11.9989 20.9081 12.2 20.9279 12.3827 21.0036C12.5654 21.0793 12.7216 21.2075 12.8315 21.3719C12.9414 21.5364 13 21.7297 13 21.9275C13 22.1927 12.8946 22.4471 12.7071 22.6346C12.5196 22.8221 12.2652 22.9275 12 22.9275Z" fill="#374957"/>
</g>
<defs>
<clipPath id="clip0_507_2166">
<rect width="24" height="24" fill="white" transform="translate(0 0.92749)"/>
</clipPath>
</defs>
</svg>
