<svg width="24" height="25" viewBox="0 0 24 25" fill="none" xmlns="http://www.w3.org/2000/svg">
<g clip-path="url(#clip0_507_2003)">
<path d="M8 0.92749H4C2.93913 0.92749 1.92172 1.34892 1.17157 2.09906C0.421427 2.84921 0 3.86662 0 4.92749L0 5.92749C0 6.98836 0.421427 8.00577 1.17157 8.75592C1.92172 9.50606 2.93913 9.92749 4 9.92749H5V11.9275H3C2.73478 11.9275 2.48043 12.0328 2.29289 12.2204C2.10536 12.4079 2 12.6623 2 12.9275C2 13.1927 2.10536 13.4471 2.29289 13.6346C2.48043 13.8221 2.73478 13.9275 3 13.9275H9C9.26522 13.9275 9.51957 13.8221 9.70711 13.6346C9.89464 13.4471 10 13.1927 10 12.9275C10 12.6623 9.89464 12.4079 9.70711 12.2204C9.51957 12.0328 9.26522 11.9275 9 11.9275H7V9.92749H8C9.06087 9.92749 10.0783 9.50606 10.8284 8.75592C11.5786 8.00577 12 6.98836 12 5.92749V4.92749C12 3.86662 11.5786 2.84921 10.8284 2.09906C10.0783 1.34892 9.06087 0.92749 8 0.92749V0.92749ZM10 5.92749C10 6.45792 9.78929 6.96663 9.41421 7.3417C9.03914 7.71678 8.53043 7.92749 8 7.92749H4C3.46957 7.92749 2.96086 7.71678 2.58579 7.3417C2.21071 6.96663 2 6.45792 2 5.92749V4.92749C2 4.39706 2.21071 3.88835 2.58579 3.51328C2.96086 3.1382 3.46957 2.92749 4 2.92749H8C8.53043 2.92749 9.03914 3.1382 9.41421 3.51328C9.78929 3.88835 10 4.39706 10 4.92749V5.92749ZM20 11.9275H18C16.9391 11.9275 15.9217 12.3489 15.1716 13.0991C14.4214 13.8492 14 14.8666 14 15.9275V20.9275C14 21.9884 14.4214 23.0058 15.1716 23.7559C15.9217 24.5061 16.9391 24.9275 18 24.9275H20C21.0609 24.9275 22.0783 24.5061 22.8284 23.7559C23.5786 23.0058 24 21.9884 24 20.9275V15.9275C24 14.8666 23.5786 13.8492 22.8284 13.0991C22.0783 12.3489 21.0609 11.9275 20 11.9275ZM22 20.9275C22 21.4579 21.7893 21.9666 21.4142 22.3417C21.0391 22.7168 20.5304 22.9275 20 22.9275H18C17.4696 22.9275 16.9609 22.7168 16.5858 22.3417C16.2107 21.9666 16 21.4579 16 20.9275V15.9275C16 15.3971 16.2107 14.8883 16.5858 14.5133C16.9609 14.1382 17.4696 13.9275 18 13.9275H20C20.5304 13.9275 21.0391 14.1382 21.4142 14.5133C21.7893 14.8883 22 15.3971 22 15.9275V20.9275ZM14 4.92749C14 4.66227 14.1054 4.40792 14.2929 4.22038C14.4804 4.03285 14.7348 3.92749 15 3.92749H17C17.7956 3.92749 18.5587 4.24356 19.1213 4.80617C19.6839 5.36878 20 6.13184 20 6.92749V8.92749C20 9.19271 19.8946 9.44706 19.7071 9.6346C19.5196 9.82213 19.2652 9.92749 19 9.92749C18.7348 9.92749 18.4804 9.82213 18.2929 9.6346C18.1054 9.44706 18 9.19271 18 8.92749V6.92749C18 6.66227 17.8946 6.40792 17.7071 6.22038C17.5196 6.03285 17.2652 5.92749 17 5.92749H15C14.7348 5.92749 14.4804 5.82213 14.2929 5.6346C14.1054 5.44706 14 5.19271 14 4.92749ZM12 20.9275C12 21.1927 11.8946 21.4471 11.7071 21.6346C11.5196 21.8221 11.2652 21.9275 11 21.9275H8C7.20435 21.9275 6.44129 21.6114 5.87868 21.0488C5.31607 20.4862 5 19.7231 5 18.9275V16.9275C5 16.6623 5.10536 16.4079 5.29289 16.2204C5.48043 16.0328 5.73478 15.9275 6 15.9275C6.26522 15.9275 6.51957 16.0328 6.70711 16.2204C6.89464 16.4079 7 16.6623 7 16.9275V18.9275C7 19.1927 7.10536 19.4471 7.29289 19.6346C7.48043 19.8221 7.73478 19.9275 8 19.9275H11C11.2652 19.9275 11.5196 20.0328 11.7071 20.2204C11.8946 20.4079 12 20.6623 12 20.9275ZM20 20.9275C20 21.1253 19.9414 21.3186 19.8315 21.4831C19.7216 21.6475 19.5654 21.7757 19.3827 21.8514C19.2 21.9271 18.9989 21.9469 18.8049 21.9083C18.6109 21.8697 18.4327 21.7745 18.2929 21.6346C18.153 21.4947 18.0578 21.3166 18.0192 21.1226C17.9806 20.9286 18.0004 20.7275 18.0761 20.5448C18.1518 20.3621 18.28 20.2059 18.4444 20.096C18.6089 19.9861 18.8022 19.9275 19 19.9275C19.2652 19.9275 19.5196 20.0328 19.7071 20.2204C19.8946 20.4079 20 20.6623 20 20.9275Z" fill="#374957"/>
</g>
<defs>
<clipPath id="clip0_507_2003">
<rect width="24" height="24" fill="white" transform="translate(0 0.92749)"/>
</clipPath>
</defs>
</svg>
