<svg width="24" height="25" viewBox="0 0 24 25" fill="none" xmlns="http://www.w3.org/2000/svg">
<path d="M13.29 19.5175L7.70998 13.9275C7.52373 13.7402 7.41919 13.4867 7.41919 13.2225C7.41919 12.9583 7.52373 12.7049 7.70998 12.5175L13.29 6.92753C13.4299 6.7865 13.6086 6.69032 13.8033 6.65125C13.998 6.61218 14.2 6.63199 14.3835 6.70816C14.5669 6.78433 14.7235 6.9134 14.8333 7.07892C14.9431 7.24444 15.0011 7.43891 15 7.63753V18.8075C15.0011 19.0062 14.9431 19.2006 14.8333 19.3661C14.7235 19.5317 14.5669 19.6607 14.3835 19.7369C14.2 19.8131 13.998 19.8329 13.8033 19.7938C13.6086 19.7547 13.4299 19.6586 13.29 19.5175Z" fill="#374957"/>
</svg>
