<svg width="24" height="25" viewBox="0 0 24 25" fill="none" xmlns="http://www.w3.org/2000/svg">
<g clip-path="url(#clip0_507_1885)">
<path d="M18 22.9275H13V3.75047L17.3 8.05047C17.4886 8.23263 17.7412 8.33342 18.0034 8.33114C18.2656 8.32887 18.5164 8.2237 18.7018 8.03829C18.8872 7.85288 18.9924 7.60207 18.9947 7.33987C18.997 7.07768 18.8962 6.82507 18.714 6.63647L13.768 1.69047C13.5359 1.45826 13.2602 1.27405 12.9569 1.14837C12.6535 1.02269 12.3284 0.958008 12 0.958008C11.6717 0.958008 11.3465 1.02269 11.0432 1.14837C10.7398 1.27405 10.4642 1.45826 10.232 1.69047L5.28201 6.64047C5.0945 6.82851 4.98937 7.08333 4.98975 7.34889C4.99012 7.61444 5.09597 7.86896 5.28401 8.05647C5.47205 8.24398 5.72687 8.34911 5.99242 8.34873C6.25798 8.34836 6.5125 8.24251 6.70001 8.05447L11 3.75447V22.9275H6.00001C5.73479 22.9275 5.48044 23.0328 5.2929 23.2204C5.10537 23.4079 5.00001 23.6622 5.00001 23.9275C5.00001 24.1927 5.10537 24.447 5.2929 24.6346C5.48044 24.8221 5.73479 24.9275 6.00001 24.9275H18C18.2652 24.9275 18.5196 24.8221 18.7071 24.6346C18.8947 24.447 19 24.1927 19 23.9275C19 23.6622 18.8947 23.4079 18.7071 23.2204C18.5196 23.0328 18.2652 22.9275 18 22.9275Z" fill="#374957"/>
</g>
<defs>
<clipPath id="clip0_507_1885">
<rect width="24" height="24" fill="white" transform="translate(0 0.92749)"/>
</clipPath>
</defs>
</svg>
