<svg width="24" height="25" viewBox="0 0 24 25" fill="none" xmlns="http://www.w3.org/2000/svg">
<g clip-path="url(#clip0_507_2231)">
<path d="M19 3.92749H5C3.67441 3.92908 2.40356 4.45637 1.46622 5.39371C0.528882 6.33105 0.00158786 7.6019 0 8.92749L0 14.9275C0.00158786 16.2531 0.528882 17.5239 1.46622 18.4613C2.40356 19.3986 3.67441 19.9259 5 19.9275H11V20.9275H8C7.73478 20.9275 7.48043 21.0328 7.29289 21.2204C7.10536 21.4079 7 21.6623 7 21.9275C7 22.1927 7.10536 22.4471 7.29289 22.6346C7.48043 22.8221 7.73478 22.9275 8 22.9275H16C16.2652 22.9275 16.5196 22.8221 16.7071 22.6346C16.8946 22.4471 17 22.1927 17 21.9275C17 21.6623 16.8946 21.4079 16.7071 21.2204C16.5196 21.0328 16.2652 20.9275 16 20.9275H13V19.9275H19C20.3256 19.9259 21.5964 19.3986 22.5338 18.4613C23.4711 17.5239 23.9984 16.2531 24 14.9275V8.92749C23.9984 7.6019 23.4711 6.33105 22.5338 5.39371C21.5964 4.45637 20.3256 3.92908 19 3.92749ZM22 14.9275C22 15.7231 21.6839 16.4862 21.1213 17.0488C20.5587 17.6114 19.7956 17.9275 19 17.9275H5C4.20435 17.9275 3.44129 17.6114 2.87868 17.0488C2.31607 16.4862 2 15.7231 2 14.9275V8.92749C2 8.13184 2.31607 7.36878 2.87868 6.80617C3.44129 6.24356 4.20435 5.92749 5 5.92749H19C19.7956 5.92749 20.5587 6.24356 21.1213 6.80617C21.6839 7.36878 22 8.13184 22 8.92749V14.9275Z" fill="#374957"/>
</g>
<defs>
<clipPath id="clip0_507_2231">
<rect width="24" height="24" fill="white" transform="translate(0 0.92749)"/>
</clipPath>
</defs>
</svg>
