<svg width="24" height="25" viewBox="0 0 24 25" fill="none" xmlns="http://www.w3.org/2000/svg">
<path d="M21.9999 16.1115V8.92748C21.9983 7.60189 21.471 6.33104 20.5337 5.3937C19.5963 4.45636 18.3255 3.92907 16.9999 3.92748H6.9999C5.6743 3.92907 4.40346 4.45636 3.46612 5.3937C2.52878 6.33104 2.00149 7.60189 1.9999 8.92748V16.1115C1.33322 16.3463 0.771153 16.8095 0.413259 17.419C0.0553652 18.0285 -0.0752631 18.7451 0.0445109 19.4417C0.164285 20.1383 0.526731 20.77 1.06766 21.225C1.60858 21.68 2.29307 21.9288 2.9999 21.9275H20.9999C21.7067 21.9288 22.3912 21.68 22.9321 21.225C23.4731 20.77 23.8355 20.1383 23.9553 19.4417C24.0751 18.7451 23.9444 18.0285 23.5865 17.419C23.2286 16.8095 22.6666 16.3463 21.9999 16.1115ZM6.9999 5.92748H16.9999C17.7955 5.92748 18.5586 6.24355 19.1212 6.80616C19.6838 7.36877 19.9999 8.13183 19.9999 8.92748V15.9275H15.8489C15.558 15.9273 15.2706 15.9905 15.0067 16.1128C14.7428 16.2351 14.5088 16.4135 14.3209 16.6355L14.0739 16.9275H9.9249L9.6789 16.6355C9.49101 16.4135 9.25695 16.2351 8.99305 16.1128C8.72915 15.9905 8.44175 15.9273 8.1509 15.9275H3.9999V8.92748C3.9999 8.13183 4.31597 7.36877 4.87858 6.80616C5.44119 6.24355 6.20425 5.92748 6.9999 5.92748ZM20.9999 19.9275H2.9999C2.73468 19.9275 2.48033 19.8221 2.29279 19.6346C2.10525 19.4471 1.9999 19.1927 1.9999 18.9275C1.9999 18.6623 2.10525 18.4079 2.29279 18.2204C2.48033 18.0328 2.73468 17.9275 2.9999 17.9275H8.1519L8.3979 18.2195C8.58568 18.4414 8.81958 18.6197 9.08329 18.7419C9.34701 18.8642 9.63421 18.9275 9.9249 18.9275H14.0739C14.3648 18.9277 14.6521 18.8644 14.916 18.7421C15.18 18.6199 15.414 18.4415 15.6019 18.2195L15.8489 17.9275H20.9999C21.2651 17.9275 21.5195 18.0328 21.707 18.2204C21.8945 18.4079 21.9999 18.6623 21.9999 18.9275C21.9999 19.1927 21.8945 19.4471 21.707 19.6346C21.5195 19.8221 21.2651 19.9275 20.9999 19.9275Z" fill="#374957"/>
</svg>
