<svg width="24" height="25" viewBox="0 0 24 25" fill="none" xmlns="http://www.w3.org/2000/svg">
<g clip-path="url(#clip0_507_2187)">
<path d="M19 24.9275H5C3.67441 24.9259 2.40356 24.3986 1.46622 23.4613C0.528882 22.5239 0.00158786 21.2531 0 19.9275L0 5.92749C0.00158786 4.6019 0.528882 3.33105 1.46622 2.39371C2.40356 1.45637 3.67441 0.929078 5 0.92749L19 0.92749C20.3256 0.929078 21.5964 1.45637 22.5338 2.39371C23.4711 3.33105 23.9984 4.6019 24 5.92749V19.9275C23.9984 21.2531 23.4711 22.5239 22.5338 23.4613C21.5964 24.3986 20.3256 24.9259 19 24.9275ZM5 2.92749C4.20435 2.92749 3.44129 3.24356 2.87868 3.80617C2.31607 4.36878 2 5.13184 2 5.92749V19.9275C2 20.7231 2.31607 21.4862 2.87868 22.0488C3.44129 22.6114 4.20435 22.9275 5 22.9275H19C19.7956 22.9275 20.5587 22.6114 21.1213 22.0488C21.6839 21.4862 22 20.7231 22 19.9275V5.92749C22 5.13184 21.6839 4.36878 21.1213 3.80617C20.5587 3.24356 19.7956 2.92749 19 2.92749H5ZM9.342 17.9325C8.92513 17.9311 8.51601 17.8197 8.156 17.6095C7.80034 17.4059 7.50515 17.1115 7.30063 16.7564C7.09611 16.4013 6.9896 15.9983 6.992 15.5885V10.2665C6.99166 9.85664 7.09911 9.4539 7.30358 9.09869C7.50805 8.74348 7.80234 8.44828 8.15692 8.24273C8.5115 8.03717 8.9139 7.92848 9.32376 7.92756C9.73361 7.92664 10.1365 8.03353 10.492 8.23749L15.77 10.8725C16.1366 11.0704 16.4436 11.3628 16.6592 11.7193C16.8748 12.0758 16.9912 12.4835 16.9962 12.9001C17.0012 13.3167 16.8946 13.727 16.6877 14.0886C16.4807 14.4502 16.1808 14.7498 15.819 14.9565L10.443 17.6435C10.1077 17.8347 9.728 17.9344 9.342 17.9325ZM9.317 9.93249C9.26189 9.93247 9.20774 9.94695 9.16 9.97449C9.10814 10.0033 9.0651 10.0458 9.0355 10.0972C9.00591 10.1486 8.99087 10.2072 8.992 10.2665V15.5885C8.99234 15.6469 9.00788 15.7043 9.03709 15.7549C9.0663 15.8056 9.10818 15.8477 9.15861 15.8773C9.20905 15.9068 9.2663 15.9228 9.32475 15.9235C9.3832 15.9242 9.44084 15.9098 9.492 15.8815L14.868 13.1935C14.908 13.1622 14.9399 13.1216 14.9608 13.0753C14.9817 13.0289 14.991 12.9782 14.988 12.9275C14.9893 12.868 14.9742 12.8093 14.9444 12.7578C14.9146 12.7064 14.8712 12.664 14.819 12.6355L9.545 10.0005C9.47624 9.95831 9.39763 9.93486 9.317 9.93249Z" fill="#374957"/>
</g>
<defs>
<clipPath id="clip0_507_2187">
<rect width="24" height="24" fill="white" transform="translate(0 0.92749)"/>
</clipPath>
</defs>
</svg>
