<svg width="24" height="25" viewBox="0 0 24 25" fill="none" xmlns="http://www.w3.org/2000/svg">
<g clip-path="url(#clip0_507_2116)">
<path d="M22.4851 11.9028L12.0001 18.1948L1.51512 11.9028C1.2877 11.7663 1.01538 11.7258 0.758084 11.7901C0.500784 11.8545 0.279576 12.0184 0.143122 12.2458C0.00666773 12.4732 -0.0338539 12.7455 0.0304711 13.0028C0.0947961 13.2601 0.258699 13.4813 0.486122 13.6178L11.4861 20.2178C11.6417 20.3112 11.8197 20.3606 12.0011 20.3606C12.1826 20.3606 12.3606 20.3112 12.5161 20.2178L23.5161 13.6178C23.7435 13.4813 23.9075 13.2601 23.9718 13.0028C24.0361 12.7455 23.9956 12.4732 23.8591 12.2458C23.7227 12.0184 23.5015 11.8545 23.2442 11.7901C22.9869 11.7258 22.7145 11.7663 22.4871 11.9028H22.4851Z" fill="#374957"/>
<path d="M22.4852 16.4703L12.0002 22.7613L1.51524 16.4703C1.40263 16.4028 1.27782 16.358 1.14793 16.3387C1.01803 16.3194 0.885605 16.3258 0.758203 16.3577C0.630801 16.3895 0.51092 16.4461 0.405405 16.5243C0.299889 16.6025 0.210806 16.7007 0.143241 16.8133C0.0756756 16.9259 0.030952 17.0507 0.0116234 17.1806C-0.00770524 17.3105 -0.0012603 17.443 0.0305902 17.5704C0.0949152 17.8277 0.258818 18.0489 0.486241 18.1853L11.4862 24.7853C11.6418 24.8788 11.8198 24.9282 12.0012 24.9282C12.1827 24.9282 12.3607 24.8788 12.5162 24.7853L23.5162 18.1853C23.7437 18.0489 23.9076 17.8277 23.9719 17.5704C24.0362 17.3131 23.9957 17.0407 23.8592 16.8133C23.7228 16.5859 23.5016 16.422 23.2443 16.3577C22.987 16.2933 22.7147 16.3339 22.4872 16.4703H22.4852Z" fill="#374957"/>
<path d="M11.9999 15.7009C11.4605 15.7006 10.9313 15.5537 10.4689 15.2759L0.484928 9.28491C0.337075 9.196 0.214739 9.07036 0.129809 8.92019C0.0448784 8.77002 0.000244141 8.60043 0.000244141 8.42791C0.000244141 8.25538 0.0448784 8.08579 0.129809 7.93562C0.214739 7.78545 0.337075 7.65981 0.484928 7.57091L10.4689 1.5799C10.9313 1.30213 11.4605 1.15539 11.9999 1.15539C12.5393 1.15539 13.0686 1.30213 13.5309 1.5799L23.5149 7.57091C23.6628 7.65981 23.7851 7.78545 23.87 7.93562C23.955 8.08579 23.9996 8.25538 23.9996 8.42791C23.9996 8.60043 23.955 8.77002 23.87 8.92019C23.7851 9.07036 23.6628 9.196 23.5149 9.28491L13.5309 15.2759C13.0685 15.5537 12.5393 15.7006 11.9999 15.7009ZM2.94393 8.42791L11.4999 13.5609C11.651 13.6513 11.8238 13.699 11.9999 13.699C12.176 13.699 12.3488 13.6513 12.4999 13.5609L21.0559 8.42791L12.4999 3.2949C12.3488 3.20451 12.176 3.15677 11.9999 3.15677C11.8238 3.15677 11.651 3.20451 11.4999 3.2949L2.94393 8.42791Z" fill="#374957"/>
</g>
<defs>
<clipPath id="clip0_507_2116">
<rect width="24" height="24" fill="white" transform="translate(0 0.92749)"/>
</clipPath>
</defs>
</svg>
