<svg width="24" height="25" viewBox="0 0 24 25" fill="none" xmlns="http://www.w3.org/2000/svg">
<g clip-path="url(#clip0_507_2030)">
<path d="M12 0.92749C9.62663 0.92749 7.30655 1.63128 5.33316 2.94986C3.35977 4.26843 1.8217 6.14258 0.913451 8.33529C0.00519943 10.528 -0.232441 12.9408 0.230582 15.2686C0.693605 17.5963 1.83649 19.7345 3.51472 21.4128C5.19295 23.091 7.33115 24.2339 9.65892 24.6969C11.9867 25.1599 14.3995 24.9223 16.5922 24.014C18.7849 23.1058 20.6591 21.5677 21.9776 19.5943C23.2962 17.6209 24 15.3009 24 12.9275C23.9966 9.74595 22.7312 6.6957 20.4815 4.44601C18.2318 2.19632 15.1815 0.930931 12 0.92749V0.92749ZM12 22.9275C10.0222 22.9275 8.08879 22.341 6.4443 21.2422C4.79981 20.1434 3.51809 18.5816 2.76121 16.7543C2.00433 14.9271 1.8063 12.9164 2.19215 10.9766C2.578 9.03678 3.53041 7.25495 4.92894 5.85642C6.32746 4.4579 8.10929 3.50549 10.0491 3.11964C11.9889 2.73379 13.9996 2.93182 15.8268 3.6887C17.6541 4.44557 19.2159 5.7273 20.3147 7.37179C21.4135 9.01628 22 10.9497 22 12.9275C21.9971 15.5788 20.9426 18.1206 19.0679 19.9953C17.1931 21.8701 14.6513 22.9246 12 22.9275Z" fill="#374957"/>
<path d="M12.0001 5.92764C11.7349 5.92764 11.4806 6.033 11.293 6.22054C11.1055 6.40807 11.0001 6.66243 11.0001 6.92764V14.9276C11.0001 15.1929 11.1055 15.4472 11.293 15.6347C11.4806 15.8223 11.7349 15.9276 12.0001 15.9276C12.2653 15.9276 12.5197 15.8223 12.7072 15.6347C12.8948 15.4472 13.0001 15.1929 13.0001 14.9276V6.92764C13.0001 6.66243 12.8948 6.40807 12.7072 6.22054C12.5197 6.033 12.2653 5.92764 12.0001 5.92764Z" fill="#374957"/>
<path d="M13.0001 18.9276C13.0001 18.3754 12.5524 17.9276 12.0001 17.9276C11.4478 17.9276 11.0001 18.3754 11.0001 18.9276C11.0001 19.4799 11.4478 19.9277 12.0001 19.9277C12.5524 19.9277 13.0001 19.4799 13.0001 18.9276Z" fill="#374957"/>
</g>
<defs>
<clipPath id="clip0_507_2030">
<rect width="24" height="24" fill="white" transform="translate(0 0.92749)"/>
</clipPath>
</defs>
</svg>
