<svg width="24" height="25" viewBox="0 0 24 25" fill="none" xmlns="http://www.w3.org/2000/svg">
<g clip-path="url(#clip0_507_2110)">
<path d="M19 6.92717H13V3.92717C13 3.66195 12.8946 3.4076 12.7071 3.22006C12.5196 3.03253 12.2652 2.92717 12 2.92717C11.7348 2.92717 11.4804 3.03253 11.2929 3.22006C11.1054 3.4076 11 3.66195 11 3.92717V6.92717H5C3.67441 6.92876 2.40356 7.45605 1.46622 8.39339C0.528882 9.33073 0.00158786 10.6016 0 11.9272L0 15.9272C0.00158786 17.2528 0.528882 18.5236 1.46622 19.461C2.40356 20.3983 3.67441 20.9256 5 20.9272H19C20.3256 20.9256 21.5964 20.3983 22.5338 19.461C23.4711 18.5236 23.9984 17.2528 24 15.9272V11.9272C23.9984 10.6016 23.4711 9.33073 22.5338 8.39339C21.5964 7.45605 20.3256 6.92876 19 6.92717ZM22 15.9272C22 16.7228 21.6839 17.4859 21.1213 18.0485C20.5587 18.6111 19.7956 18.9272 19 18.9272H5C4.20435 18.9272 3.44129 18.6111 2.87868 18.0485C2.31607 17.4859 2 16.7228 2 15.9272V11.9272C2 11.1315 2.31607 10.3685 2.87868 9.80585C3.44129 9.24324 4.20435 8.92717 5 8.92717H19C19.7956 8.92717 20.5587 9.24324 21.1213 9.80585C21.6839 10.3685 22 11.1315 22 11.9272V15.9272Z" fill="#374957"/>
<path d="M15.0001 14.9272H9.00012C8.7349 14.9272 8.48055 15.0325 8.29301 15.2201C8.10548 15.4076 8.00012 15.662 8.00012 15.9272C8.00012 16.1924 8.10548 16.4467 8.29301 16.6343C8.48055 16.8218 8.7349 16.9272 9.00012 16.9272H15.0001C15.2653 16.9272 15.5197 16.8218 15.7072 16.6343C15.8948 16.4467 16.0001 16.1924 16.0001 15.9272C16.0001 15.662 15.8948 15.4076 15.7072 15.2201C15.5197 15.0325 15.2653 14.9272 15.0001 14.9272Z" fill="#374957"/>
<path d="M10 12.9278H11C11.2652 12.9278 11.5196 12.8224 11.7071 12.6349C11.8946 12.4474 12 12.193 12 11.9278C12 11.6626 11.8946 11.4082 11.7071 11.2207C11.5196 11.0332 11.2652 10.9278 11 10.9278H10C9.73478 10.9278 9.48043 11.0332 9.29289 11.2207C9.10536 11.4082 9 11.6626 9 11.9278C9 12.193 9.10536 12.4474 9.29289 12.6349C9.48043 12.8224 9.73478 12.9278 10 12.9278Z" fill="#374957"/>
<path d="M19.0001 10.9278H15.0001C14.7349 10.9278 14.4806 11.0332 14.293 11.2207C14.1055 11.4082 14.0001 11.6626 14.0001 11.9278C14.0001 12.193 14.1055 12.4474 14.293 12.6349C14.4806 12.8224 14.7349 12.9278 15.0001 12.9278H19.0001C19.2653 12.9278 19.5197 12.8224 19.7072 12.6349C19.8948 12.4474 20.0001 12.193 20.0001 11.9278C20.0001 11.6626 19.8948 11.4082 19.7072 11.2207C19.5197 11.0332 19.2653 10.9278 19.0001 10.9278Z" fill="#374957"/>
<path d="M6.00012 10.9278H5.00012C4.73491 10.9278 4.48055 11.0332 4.29302 11.2207C4.10548 11.4082 4.00012 11.6626 4.00012 11.9278C4.00012 12.193 4.10548 12.4474 4.29302 12.6349C4.48055 12.8224 4.73491 12.9278 5.00012 12.9278H6.00012C6.26534 12.9278 6.51969 12.8224 6.70723 12.6349C6.89477 12.4474 7.00012 12.193 7.00012 11.9278C7.00012 11.6626 6.89477 11.4082 6.70723 11.2207C6.51969 11.0332 6.26534 10.9278 6.00012 10.9278Z" fill="#374957"/>
<path d="M5.00012 16.9272C5.5524 16.9272 6.00012 16.4795 6.00012 15.9272C6.00012 15.3749 5.5524 14.9272 5.00012 14.9272C4.44784 14.9272 4.00012 15.3749 4.00012 15.9272C4.00012 16.4795 4.44784 16.9272 5.00012 16.9272Z" fill="#374957"/>
<path d="M19 16.9272C19.5523 16.9272 20 16.4795 20 15.9272C20 15.3749 19.5523 14.9272 19 14.9272C18.4477 14.9272 18 15.3749 18 15.9272C18 16.4795 18.4477 16.9272 19 16.9272Z" fill="#374957"/>
</g>
<defs>
<clipPath id="clip0_507_2110">
<rect width="24" height="24" fill="white" transform="translate(0 0.92749)"/>
</clipPath>
</defs>
</svg>
