<svg width="24" height="25" viewBox="0 0 24 25" fill="none" xmlns="http://www.w3.org/2000/svg">
<g clip-path="url(#clip0_507_2042)">
<path d="M19 0.92749H5C3.67441 0.929078 2.40356 1.45637 1.46622 2.39371C0.528882 3.33105 0.00158786 4.6019 0 5.92749L0 19.9275C0.00158786 21.2531 0.528882 22.5239 1.46622 23.4613C2.40356 24.3986 3.67441 24.9259 5 24.9275H16.343C17 24.9292 17.6508 24.8006 18.2577 24.5491C18.8647 24.2976 19.4157 23.9283 19.879 23.4625L22.535 20.8065C23.0008 20.3432 23.3702 19.7922 23.6216 19.1852C23.8731 18.5783 24.0017 17.9275 24 17.2705V5.92749C23.9984 4.6019 23.4711 3.33105 22.5338 2.39371C21.5964 1.45637 20.3256 0.929078 19 0.92749V0.92749ZM2 19.9275V5.92749C2 5.13184 2.31607 4.36878 2.87868 3.80617C3.44129 3.24356 4.20435 2.92749 5 2.92749H19C19.7956 2.92749 20.5587 3.24356 21.1213 3.80617C21.6839 4.36878 22 5.13184 22 5.92749V15.9275H18C17.2044 15.9275 16.4413 16.2436 15.8787 16.8062C15.3161 17.3688 15 18.1318 15 18.9275V22.9275H5C4.20435 22.9275 3.44129 22.6114 2.87868 22.0488C2.31607 21.4862 2 20.7231 2 19.9275ZM18.465 22.0485C18.0628 22.4493 17.5546 22.7268 17 22.8485V18.9275C17 18.6623 17.1054 18.4079 17.2929 18.2204C17.4804 18.0328 17.7348 17.9275 18 17.9275H21.922C21.8003 18.4821 21.5228 18.9903 21.122 19.3925L18.465 22.0485ZM8 9.67749V10.0115C7.99578 10.5391 7.7832 11.0438 7.40859 11.4154C7.03397 11.787 6.52767 11.9955 6 11.9955C5.73837 11.9967 5.47907 11.9463 5.23693 11.8472C4.99479 11.7481 4.77455 11.6023 4.5888 11.418C4.40306 11.2337 4.25545 11.0147 4.15442 10.7733C4.05339 10.532 4.00092 10.2731 4 10.0115V7.91149C4.00092 7.64986 4.05339 7.39097 4.15442 7.14963C4.25545 6.9083 4.40306 6.68924 4.5888 6.50498C4.77455 6.32072 4.99479 6.17488 5.23693 6.07579C5.47907 5.9767 5.73837 5.92631 6 5.92749C6.36528 5.9305 6.72293 6.03242 7.03493 6.2224C7.34694 6.41239 7.60165 6.68335 7.772 7.00649C7.81008 7.07937 7.83344 7.15904 7.84073 7.24095C7.84802 7.32286 7.83911 7.40541 7.81451 7.48387C7.7899 7.56234 7.75008 7.63519 7.69731 7.69827C7.64455 7.76134 7.57988 7.81341 7.507 7.85149C7.43412 7.88957 7.35445 7.91293 7.27254 7.92022C7.19063 7.92752 7.10808 7.9186 7.02962 7.894C6.95115 7.86939 6.8783 7.82957 6.81523 7.7768C6.75215 7.72404 6.70008 7.65937 6.662 7.58649C6.59719 7.46627 6.50192 7.3652 6.38573 7.29341C6.26954 7.22162 6.13651 7.18165 6 7.17749C5.90129 7.17655 5.80339 7.19532 5.71203 7.23269C5.62067 7.27006 5.53768 7.32529 5.46793 7.39513C5.39818 7.46498 5.34307 7.54804 5.30582 7.63945C5.26857 7.73086 5.24993 7.82879 5.251 7.92749V9.99549C5.2498 10.0943 5.26833 10.1923 5.30552 10.2838C5.34271 10.3754 5.39781 10.4585 5.46757 10.5285C5.53734 10.5984 5.62037 10.6538 5.7118 10.6912C5.80323 10.7286 5.90121 10.7474 6 10.7465C6.19565 10.7443 6.38288 10.6666 6.52262 10.5296C6.66237 10.3927 6.74383 10.2071 6.75 10.0115V9.92749H6.5C6.36739 9.92749 6.24021 9.87481 6.14645 9.78104C6.05268 9.68728 6 9.5601 6 9.42749C6 9.29488 6.05268 9.1677 6.14645 9.07394C6.24021 8.98017 6.36739 8.92749 6.5 8.92749H7.25C7.44891 8.92749 7.63968 9.00651 7.78033 9.14716C7.92098 9.28781 8 9.47858 8 9.67749ZM14 9.56549V11.3655C14 11.5312 13.9342 11.6902 13.8169 11.8074C13.6997 11.9246 13.5408 11.9905 13.375 11.9905C13.2092 11.9905 13.0503 11.9246 12.9331 11.8074C12.8158 11.6902 12.75 11.5312 12.75 11.3655V6.55249C12.75 6.38673 12.8158 6.22776 12.9331 6.11055C13.0503 5.99334 13.2092 5.92749 13.375 5.92749H15.388C15.5538 5.92749 15.7127 5.99334 15.8299 6.11055C15.9472 6.22776 16.013 6.38673 16.013 6.55249C16.013 6.71825 15.9472 6.87722 15.8299 6.99443C15.7127 7.11164 15.5538 7.17749 15.388 7.17749H14V8.31549H15.239C15.4048 8.31549 15.5637 8.38134 15.6809 8.49855C15.7982 8.61576 15.864 8.77473 15.864 8.94049C15.864 9.10625 15.7982 9.26522 15.6809 9.38243C15.5637 9.49964 15.4048 9.56549 15.239 9.56549H14ZM11 6.55249V11.3715C11 11.5373 10.9342 11.6962 10.8169 11.8134C10.6997 11.9306 10.5408 11.9965 10.375 11.9965C10.2092 11.9965 10.0503 11.9306 9.93306 11.8134C9.81585 11.6962 9.75 11.5373 9.75 11.3715V6.55249C9.75 6.38673 9.81585 6.22776 9.93306 6.11055C10.0503 5.99334 10.2092 5.92749 10.375 5.92749C10.5408 5.92749 10.6997 5.99334 10.8169 6.11055C10.9342 6.22776 11 6.38673 11 6.55249Z" fill="#374957"/>
</g>
<defs>
<clipPath id="clip0_507_2042">
<rect width="24" height="24" fill="white" transform="translate(0 0.92749)"/>
</clipPath>
</defs>
</svg>
