<svg width="24" height="25" viewBox="0 0 24 25" fill="none" xmlns="http://www.w3.org/2000/svg">
<g clip-path="url(#clip0_507_2132)">
<path d="M14.5001 13.9279C14.2034 13.9279 13.9134 13.8399 13.6668 13.6751C13.4201 13.5103 13.2278 13.276 13.1143 13.0019C13.0008 12.7279 12.971 12.4263 13.0289 12.1353C13.0868 11.8443 13.2297 11.577 13.4394 11.3673C13.6492 11.1575 13.9165 11.0146 14.2075 10.9567C14.4984 10.8989 14.8 10.9286 15.0741 11.0421C15.3482 11.1556 15.5825 11.3479 15.7473 11.5946C15.9121 11.8412 16.0001 12.1312 16.0001 12.4279C16.0001 12.8257 15.8421 13.2073 15.5608 13.4886C15.2795 13.7699 14.8979 13.9279 14.5001 13.9279ZM21.8511 9.20192C21.4496 6.88202 20.2405 4.7789 18.4377 3.26466C16.6348 1.75043 14.3545 0.922699 12.0001 0.927915C5.1001 0.927915 3.1241 5.60192 1.8191 8.69492C1.55449 9.57007 1.10464 10.378 0.500104 11.0639C0.319513 11.1692 0.176474 11.3285 0.091097 11.5194C0.0057198 11.7102 -0.0177015 11.923 0.0241261 12.1278C0.0659537 12.3326 0.170926 12.5192 0.324286 12.6613C0.477645 12.8034 0.671678 12.8938 0.879104 12.9199C3.35091 13.1278 5.83693 12.7509 8.1361 11.8199C8.00925 12.101 7.97214 12.4144 8.02982 12.7174C8.0875 13.0204 8.23717 13.2982 8.45845 13.5131C8.67973 13.7279 8.96186 13.8693 9.2664 13.918C9.57095 13.9668 9.88311 13.9204 10.1604 13.7853C10.4376 13.6502 10.6665 13.433 10.8158 13.1631C10.9651 12.8932 11.0277 12.5839 10.9948 12.2772C10.962 11.9706 10.8355 11.6815 10.6324 11.4493C10.4294 11.2172 10.1597 11.0533 9.8601 10.9799C11.8247 9.87936 13.5181 8.35305 14.8161 6.51292C14.8985 6.40653 14.9585 6.28461 14.9927 6.15446C15.0268 6.02432 15.0343 5.88862 15.0148 5.7555C14.9953 5.62237 14.9491 5.49456 14.879 5.37972C14.8089 5.26487 14.7163 5.16535 14.6068 5.08712C14.4974 5.00889 14.3732 4.95356 14.2419 4.92443C14.1105 4.89531 13.9746 4.89299 13.8423 4.91762C13.7101 4.94225 13.5841 4.99332 13.4721 5.06777C13.36 5.14222 13.2641 5.23853 13.1901 5.35092C12.0239 6.99276 10.5016 8.34966 8.73701 9.32011C6.9724 10.2906 5.01119 10.8494 3.0001 10.9549C3.2271 10.5019 3.4381 9.99892 3.6621 9.47192C4.8921 6.55592 6.4231 2.92792 12.0001 2.92792C13.9759 2.92319 15.8832 3.65182 17.3526 4.9727C18.8221 6.29359 19.749 8.11275 19.9541 10.0779C19.977 10.2928 20.0689 10.4944 20.216 10.6527C20.3631 10.811 20.5575 10.9174 20.7701 10.9559C21.1344 11.0272 21.4594 11.231 21.6822 11.528C21.9049 11.825 22.0096 12.194 21.976 12.5637C21.9424 12.9335 21.7729 13.2776 21.5003 13.5296C21.2277 13.7815 20.8713 13.9235 20.5001 13.9279C20.4155 13.9256 20.3313 13.9165 20.2481 13.9009C20.0149 13.8584 19.7741 13.9006 19.5693 14.02C19.3645 14.1394 19.2091 14.328 19.1311 14.5519C18.2151 17.1489 15.1321 19.9279 12.0001 19.9279C9.10011 19.9279 6.4001 17.6449 5.2341 15.3889C5.11211 15.1534 4.90155 14.976 4.64875 14.8957C4.39595 14.8155 4.12162 14.8389 3.8861 14.9609C3.65059 15.0829 3.47319 15.2935 3.39292 15.5463C3.31266 15.7991 3.3361 16.0734 3.4581 16.3089C4.49452 18.2427 6.07314 19.8318 8.0001 20.8809V23.9279C8.0001 24.1931 8.10546 24.4475 8.293 24.635C8.48053 24.8226 8.73489 24.9279 9.0001 24.9279C9.26532 24.9279 9.51968 24.8226 9.70721 24.635C9.89475 24.4475 10.0001 24.1931 10.0001 23.9279V21.6659C11.3102 22.0179 12.69 22.0179 14.0001 21.6659V23.9279C14.0001 24.1931 14.1055 24.4475 14.293 24.635C14.4805 24.8226 14.7349 24.9279 15.0001 24.9279C15.2653 24.9279 15.5197 24.8226 15.7072 24.635C15.8947 24.4475 16.0001 24.1931 16.0001 23.9279V20.8819C18.0642 19.7722 19.7216 18.0343 20.7321 15.9199C21.5179 15.8663 22.2627 15.5492 22.8459 15.0199C23.4292 14.4906 23.8169 13.78 23.9463 13.0031C24.0757 12.2262 23.9393 11.4283 23.5591 10.7385C23.1789 10.0487 22.5771 9.50735 21.8511 9.20192Z" fill="#374957"/>
</g>
<defs>
<clipPath id="clip0_507_2132">
<rect width="24" height="24" fill="white" transform="translate(0 0.92749)"/>
</clipPath>
</defs>
</svg>
