<svg width="24" height="25" viewBox="0 0 24 25" fill="none" xmlns="http://www.w3.org/2000/svg">
<g clip-path="url(#clip0_507_1870)">
<path d="M12.0001 18.0975C11.343 18.0987 10.6922 17.9703 10.0848 17.7198C9.47734 17.4693 8.92525 17.1015 8.46006 16.6375L0.290063 8.46751C0.10176 8.27921 -0.00402832 8.02381 -0.00402832 7.75751C-0.00402832 7.49121 0.10176 7.23581 0.290063 7.04751C0.478367 6.85921 0.733762 6.75342 1.00006 6.75342C1.26636 6.75342 1.52176 6.85921 1.71006 7.04751L9.88006 15.2175C10.4426 15.7793 11.2051 16.0949 12.0001 16.0949C12.7951 16.0949 13.5576 15.7793 14.1201 15.2175L22.2901 7.04751C22.4784 6.85921 22.7338 6.75342 23.0001 6.75342C23.2664 6.75342 23.5218 6.85921 23.7101 7.04751C23.8984 7.23581 24.0042 7.49121 24.0042 7.75751C24.0042 8.02381 23.8984 8.27921 23.7101 8.46751L15.5401 16.6375C15.0749 17.1015 14.5228 17.4693 13.9154 17.7198C13.308 17.9703 12.6571 18.0987 12.0001 18.0975Z" fill="#374957"/>
</g>
<defs>
<clipPath id="clip0_507_1870">
<rect width="24" height="24" fill="white" transform="translate(0 0.92749)"/>
</clipPath>
</defs>
</svg>
