<svg width="24" height="25" viewBox="0 0 24 25" fill="none" xmlns="http://www.w3.org/2000/svg">
<g clip-path="url(#clip0_507_2201)">
<path d="M8 4.92686H4C2.93913 4.92686 1.92172 5.34829 1.17157 6.09844C0.421427 6.84858 0 7.866 0 8.92686L0 12.9269C0 13.4573 0.210714 13.966 0.585786 14.3411C0.960859 14.7162 1.46957 14.9269 2 14.9269H7.91C7.67273 16.3234 6.94948 17.5911 5.86803 18.5061C4.78658 19.421 3.41655 19.9242 2 19.9269C1.73478 19.9269 1.48043 20.0322 1.29289 20.2198C1.10536 20.4073 1 20.6616 1 20.9269C1 21.1921 1.10536 21.4464 1.29289 21.634C1.48043 21.8215 1.73478 21.9269 2 21.9269C4.121 21.9245 6.15445 21.0809 7.65422 19.5811C9.154 18.0813 9.99762 16.0479 10 13.9269V6.92686C10 6.39643 9.78929 5.88772 9.41421 5.51265C9.03914 5.13758 8.53043 4.92686 8 4.92686Z" fill="#374957"/>
<path d="M22.0001 4.92686H18.0001C16.9393 4.92686 15.9218 5.34829 15.1717 6.09844C14.4215 6.84858 14.0001 7.866 14.0001 8.92686V12.9269C14.0001 13.4573 14.2108 13.966 14.5859 14.3411C14.961 14.7162 15.4697 14.9269 16.0001 14.9269H21.9101C21.6729 16.3234 20.9496 17.5911 19.8682 18.5061C18.7867 19.421 17.4167 19.9242 16.0001 19.9269C15.7349 19.9269 15.4806 20.0322 15.293 20.2198C15.1055 20.4073 15.0001 20.6616 15.0001 20.9269C15.0001 21.1921 15.1055 21.4464 15.293 21.634C15.4806 21.8215 15.7349 21.9269 16.0001 21.9269C18.1211 21.9245 20.1546 21.0809 21.6543 19.5811C23.1541 18.0813 23.9977 16.0479 24.0001 13.9269V6.92686C24.0001 6.39643 23.7894 5.88772 23.4143 5.51265C23.0393 5.13758 22.5306 4.92686 22.0001 4.92686Z" fill="#374957"/>
</g>
<defs>
<clipPath id="clip0_507_2201">
<rect width="24" height="24" fill="white" transform="translate(0 0.92749)"/>
</clipPath>
</defs>
</svg>
