<svg width="24" height="25" viewBox="0 0 24 25" fill="none" xmlns="http://www.w3.org/2000/svg">
<g clip-path="url(#clip0_507_1928)">
<path d="M23 22.9375H22V17.9275C21.9987 16.9557 21.7143 16.0054 21.1815 15.1927C20.6487 14.38 19.8906 13.7402 19 13.3515V12.9275C18.9977 12.1552 18.8158 11.3941 18.4687 10.7042C18.1216 10.0143 17.6188 9.41461 17 8.95248L16.161 4.72749C16.1149 4.50145 15.992 4.29831 15.8132 4.15251C15.6344 4.00671 15.4107 3.92721 15.18 3.92749H14.82C14.5893 3.92721 14.3656 4.00671 14.1868 4.15251C14.008 4.29831 13.8851 4.50145 13.839 4.72749L13.2 7.92749H10.25L11 4.92749C11 4.66227 10.8946 4.40792 10.7071 4.22038C10.5196 4.03285 10.2652 3.92749 10 3.92749H8C7.73478 3.92749 7.48043 4.03285 7.29289 4.22038C7.10536 4.40792 7 4.66227 7 4.92749L7.873 8.42049C7.01625 8.82227 6.29131 9.45924 5.78266 10.2572C5.274 11.0551 5.00258 11.9812 5 12.9275V13.3515C4.10936 13.7402 3.35129 14.38 2.8185 15.1927C2.28571 16.0054 2.00128 16.9557 2 17.9275V22.9375H1C0.734784 22.9375 0.48043 23.0428 0.292893 23.2304C0.105357 23.4179 0 23.6722 0 23.9375C0 24.2027 0.105357 24.457 0.292893 24.6446C0.48043 24.8321 0.734784 24.9375 1 24.9375H23C23.2652 24.9375 23.5196 24.8321 23.7071 24.6446C23.8946 24.457 24 24.2027 24 23.9375C24 23.6722 23.8946 23.4179 23.7071 23.2304C23.5196 23.0428 23.2652 22.9375 23 22.9375ZM10 9.92748H14C14.7956 9.92748 15.5587 10.2436 16.1213 10.8062C16.6839 11.3688 17 12.1318 17 12.9275H7C7 12.1318 7.31607 11.3688 7.87868 10.8062C8.44129 10.2436 9.20435 9.92748 10 9.92748ZM7 14.9275H17C17.7956 14.9275 18.5587 15.2435 19.1213 15.8062C19.6839 16.3688 20 17.1318 20 17.9275V18.9075C19.064 18.8075 18.5 18.2075 18.5 17.9275C18.5 17.6623 18.3946 17.4079 18.2071 17.2204C18.0196 17.0328 17.7652 16.9275 17.5 16.9275C17.2348 16.9275 16.9804 17.0328 16.7929 17.2204C16.6054 17.4079 16.5 17.6623 16.5 17.9275C16.5 18.2715 15.818 18.9275 14.75 18.9275C13.661 18.9275 13 18.2335 13 17.9275C13 17.6623 12.8946 17.4079 12.7071 17.2204C12.5196 17.0328 12.2652 16.9275 12 16.9275C11.7348 16.9275 11.4804 17.0328 11.2929 17.2204C11.1054 17.4079 11 17.6623 11 17.9275C11 18.2715 10.318 18.9275 9.25 18.9275C8.161 18.9275 7.5 18.2335 7.5 17.9275C7.5 17.6623 7.39464 17.4079 7.20711 17.2204C7.01957 17.0328 6.76522 16.9275 6.5 16.9275C6.23478 16.9275 5.98043 17.0328 5.79289 17.2204C5.60536 17.4079 5.5 17.6623 5.5 17.9275C5.5 18.2435 4.921 18.8155 4 18.9085V17.9275C4 17.1318 4.31607 16.3688 4.87868 15.8062C5.44129 15.2435 6.20435 14.9275 7 14.9275ZM4 20.9065C4.91869 20.8657 5.79793 20.5214 6.5 19.9275C7.27136 20.5705 8.24308 20.9239 9.2473 20.9266C10.2515 20.9293 11.2251 20.5812 12 19.9425C12.7749 20.5812 13.7485 20.9293 14.7527 20.9266C15.7569 20.9239 16.7286 20.5705 17.5 19.9275C18.2022 20.521 19.0814 20.865 20 20.9055V22.9375H4V20.9065Z" fill="#374957"/>
<path d="M8.99988 2.92749C9.55216 2.92749 9.99987 2.47977 9.99987 1.92749C9.99987 1.37521 9.55216 0.92749 8.99988 0.92749C8.44759 0.92749 7.99988 1.37521 7.99988 1.92749C7.99988 2.47977 8.44759 2.92749 8.99988 2.92749Z" fill="#374957"/>
<path d="M14.9999 2.92749C15.5522 2.92749 15.9999 2.47977 15.9999 1.92749C15.9999 1.37521 15.5522 0.92749 14.9999 0.92749C14.4476 0.92749 13.9999 1.37521 13.9999 1.92749C13.9999 2.47977 14.4476 2.92749 14.9999 2.92749Z" fill="#374957"/>
</g>
<defs>
<clipPath id="clip0_507_1928">
<rect width="24" height="24" fill="white" transform="translate(0 0.92749)"/>
</clipPath>
</defs>
</svg>
