<svg width="24" height="25" viewBox="0 0 24 25" fill="none" xmlns="http://www.w3.org/2000/svg">
<g clip-path="url(#clip0_507_2237)">
<path d="M19.3332 15.595C18.5771 15.5957 17.8325 15.7802 17.1637 16.1329C16.4949 16.4855 15.9219 16.9955 15.4942 17.619L8.98518 14.68C9.44749 13.5637 9.44929 12.3097 8.99018 11.192L15.4902 8.23804C16.124 9.1548 17.0655 9.81401 18.1438 10.0961C19.222 10.3782 20.3657 10.2644 21.3673 9.77554C22.3689 9.28664 23.1621 8.45494 23.603 7.43131C24.0439 6.40768 24.1034 5.25991 23.7705 4.19622C23.4377 3.13252 22.7347 2.22334 21.7889 1.6336C20.8432 1.04386 19.7174 0.812615 18.6157 0.981819C17.5141 1.15102 16.5096 1.70946 15.7844 2.55585C15.0592 3.40223 14.6614 4.48049 14.6632 5.59504C14.6674 5.85884 14.6942 6.1218 14.7432 6.38104L7.83318 9.52104C7.16952 8.89926 6.33868 8.48488 5.44275 8.32881C4.54682 8.17273 3.6248 8.28176 2.78999 8.6425C1.95517 9.00324 1.2439 9.59998 0.743573 10.3594C0.243244 11.1188 -0.0243578 12.0079 -0.0263559 12.9173C-0.0283541 13.8267 0.235338 14.7169 0.732325 15.4785C1.22931 16.2402 1.93795 16.84 2.77117 17.2044C3.6044 17.5688 4.52592 17.6819 5.42253 17.5298C6.31915 17.3776 7.15179 16.9669 7.81818 16.348L14.7462 19.476C14.6981 19.7351 14.6716 19.9976 14.6672 20.261C14.667 21.1842 14.9406 22.0866 15.4533 22.8543C15.966 23.6219 16.6949 24.2202 17.5477 24.5736C18.4006 24.927 19.339 25.0195 20.2444 24.8394C21.1498 24.6594 21.9815 24.2149 22.6342 23.5621C23.287 22.9094 23.7315 22.0777 23.9116 21.1723C24.0916 20.2669 23.9991 19.3284 23.6457 18.4756C23.2924 17.6228 22.694 16.8939 21.9264 16.3812C21.1588 15.8684 20.2563 15.5948 19.3332 15.595ZM19.3332 2.92804C19.8607 2.92785 20.3764 3.08409 20.8152 3.37703C21.2539 3.66996 21.5959 4.08642 21.7979 4.57373C21.9999 5.06105 22.0528 5.59732 21.9501 6.11474C21.8473 6.63215 21.5933 7.10746 21.2204 7.48054C20.8474 7.85363 20.3722 8.10774 19.8549 8.21072C19.3375 8.31371 18.8012 8.26096 18.3138 8.05913C17.8264 7.8573 17.4098 7.51546 17.1167 7.07685C16.8236 6.63825 16.6672 6.12257 16.6672 5.59504C16.6677 4.88805 16.9487 4.21014 17.4486 3.71013C17.9484 3.21011 18.6262 2.92884 19.3332 2.92804ZM4.66718 15.595C4.13965 15.5952 3.62392 15.439 3.1852 15.1461C2.74648 14.8531 2.40449 14.4367 2.20248 13.9494C2.00046 13.462 1.94751 12.9258 2.0503 12.4084C2.15309 11.8909 2.40702 11.4156 2.77997 11.0425C3.15292 10.6695 3.62813 10.4154 4.1455 10.3124C4.66288 10.2094 5.19917 10.2621 5.68656 10.464C6.17395 10.6658 6.59054 11.0076 6.88364 11.4462C7.17673 11.8848 7.33318 12.4005 7.33318 12.928C7.33238 13.635 7.05128 14.3127 6.55151 14.8127C6.05174 15.3126 5.37409 15.594 4.66718 15.595ZM19.3332 22.928C18.8057 22.928 18.2901 22.7716 17.8515 22.4786C17.4129 22.1855 17.071 21.769 16.8692 21.2817C16.6673 20.7943 16.6145 20.2581 16.7174 19.7407C16.8203 19.2234 17.0743 18.7482 17.4473 18.3752C17.8203 18.0022 18.2955 17.7482 18.8129 17.6453C19.3302 17.5424 19.8665 17.5952 20.3538 17.7971C20.8411 17.9989 21.2577 18.3408 21.5507 18.7793C21.8438 19.2179 22.0002 19.7336 22.0002 20.261C21.9996 20.9682 21.7185 21.6463 21.2184 22.1463C20.7184 22.6464 20.0403 22.9275 19.3332 22.928Z" fill="#374957"/>
</g>
<defs>
<clipPath id="clip0_507_2237">
<rect width="24" height="24" fill="white" transform="translate(0 0.92749)"/>
</clipPath>
</defs>
</svg>
