<svg width="24" height="25" viewBox="0 0 24 25" fill="none" xmlns="http://www.w3.org/2000/svg">
<g clip-path="url(#clip0_507_2006)">
<path d="M23.2198 6.67046L20.2088 2.60246C19.8385 2.08479 19.3502 1.66283 18.7843 1.37154C18.2184 1.08024 17.5913 0.928013 16.9548 0.927461H7.0448C6.41144 0.926867 5.78698 1.07668 5.22283 1.36458C4.65868 1.65248 4.17096 2.07024 3.7998 2.58346L0.734803 6.68046C0.235767 7.38415 -0.0219516 8.23054 0.000221156 9.09293C0.0223939 9.95532 0.323265 10.7873 0.857803 11.4645L9.6498 23.7925C9.92999 24.1473 10.2871 24.4338 10.6942 24.6304C11.1013 24.827 11.5477 24.9286 11.9998 24.9275C12.4596 24.9265 12.9131 24.8201 13.3254 24.6164C13.7377 24.4127 14.0977 24.1172 14.3778 23.7525L23.0998 11.5615C23.6583 10.8744 23.973 10.0216 23.9948 9.13645C24.0165 8.25134 23.7439 7.38404 23.2198 6.67046ZM18.5918 3.77846L21.6098 7.85646C21.6258 7.87846 21.6298 7.90446 21.6458 7.92746H16.7538L15.3258 2.92746H16.9548C17.2758 2.92846 17.5918 3.00622 17.8766 3.15426C18.1614 3.30231 18.4066 3.51633 18.5918 3.77846ZM11.9998 20.0455L9.2998 9.92746H14.6998L11.9998 20.0455ZM9.3258 7.92746L10.7538 2.92746H13.2458L14.6738 7.92746H9.3258ZM5.4168 3.76446C5.60235 3.50585 5.84675 3.29508 6.12982 3.14954C6.41289 3.00401 6.72651 2.92789 7.0448 2.92746H8.6738L7.2458 7.92746H2.3178C2.3318 7.90546 2.3358 7.87846 2.3518 7.85746L5.4168 3.76446ZM2.4478 10.2525C2.3756 10.1505 2.31363 10.0416 2.2628 9.92746H7.2318L10.2258 21.1575L2.4478 10.2525ZM13.7708 21.1675L16.7708 9.92746H21.7568C21.6924 10.0767 21.6108 10.218 21.5138 10.3485L13.7708 21.1675Z" fill="#374957"/>
</g>
<defs>
<clipPath id="clip0_507_2006">
<rect width="24" height="24" fill="white" transform="translate(0 0.92749)"/>
</clipPath>
</defs>
</svg>
