<svg width="24" height="25" viewBox="0 0 24 25" fill="none" xmlns="http://www.w3.org/2000/svg">
<g clip-path="url(#clip0_507_1977)">
<path d="M24 16.9274V21.9274C24 22.7231 23.6839 23.4861 23.1213 24.0487C22.5587 24.6113 21.7956 24.9274 21 24.9274H16C14.5971 24.926 13.2192 24.5556 12.0047 23.8536C10.7901 23.1515 9.78145 22.1424 9.08 20.9274C9.83387 20.922 10.5852 20.8389 11.322 20.6794C11.8832 21.3811 12.595 21.9474 13.4048 22.3366C14.2146 22.7257 15.1016 22.9277 16 22.9274H21C21.2652 22.9274 21.5196 22.8221 21.7071 22.6345C21.8946 22.447 22 22.1926 22 21.9274V16.9274C21.9998 16.0286 21.7972 15.1415 21.4074 14.3316C21.0175 13.5218 20.4504 12.8102 19.748 12.2494C19.9088 11.5127 19.9933 10.7614 20 10.0074C21.215 10.7089 22.2241 11.7175 22.9262 12.9321C23.6282 14.1467 23.9986 15.5245 24 16.9274ZM17.977 10.5784C18.0705 9.29005 17.8856 7.99665 17.4348 6.78611C16.9841 5.57556 16.278 4.47623 15.3646 3.56283C14.4512 2.64942 13.3518 1.94334 12.1413 1.49257C10.9308 1.04179 9.63736 0.856884 8.349 0.95041C6.06592 1.21114 3.95693 2.29759 2.41918 4.00515C0.881427 5.71272 0.0210272 7.92358 0 10.2214L0 15.2614C0 17.7934 1.507 18.9274 3 18.9274H8.7C10.9988 18.9076 13.211 18.0478 14.9198 16.51C16.6286 14.9721 17.7159 12.8624 17.977 10.5784ZM13.95 4.97841C14.6599 5.68991 15.2088 6.54561 15.5593 7.4876C15.9099 8.42959 16.054 9.43589 15.982 10.4384C15.7686 12.2221 14.9105 13.8662 13.5693 15.0614C12.2282 16.2565 10.4964 16.9201 8.7 16.9274H3C2.072 16.9274 2 15.6524 2 15.2614V10.2214C2.00834 8.42579 2.67265 6.69512 3.86792 5.35509C5.06319 4.01506 6.70699 3.15808 8.49 2.94541C8.656 2.93341 8.822 2.92741 8.988 2.92741C9.90927 2.92655 10.8217 3.10725 11.6731 3.45917C12.5245 3.81109 13.2982 4.32734 13.95 4.97841Z" fill="#374957"/>
</g>
<defs>
<clipPath id="clip0_507_1977">
<rect width="24" height="24" fill="white" transform="translate(0 0.92749)"/>
</clipPath>
</defs>
</svg>
