<svg width="24" height="25" viewBox="0 0 24 25" fill="none" xmlns="http://www.w3.org/2000/svg">
<g clip-path="url(#clip0_507_1979)">
<path d="M7 0.92749C6.73478 0.92749 6.48043 1.03285 6.29289 1.22038C6.10536 1.40792 6 1.66227 6 1.92749V3.92749C6 4.72314 5.68393 5.4862 5.12132 6.04881C4.55871 6.61142 3.79565 6.92749 3 6.92749H1C0.734784 6.92749 0.48043 7.03285 0.292893 7.22038C0.105357 7.40792 0 7.66227 0 7.92749C0 8.19271 0.105357 8.44706 0.292893 8.6346C0.48043 8.82213 0.734784 8.92749 1 8.92749H3C4.32559 8.9259 5.59644 8.39861 6.53378 7.46127C7.47112 6.52393 7.99841 5.25309 8 3.92749V1.92749C8 1.66227 7.89464 1.40792 7.70711 1.22038C7.51957 1.03285 7.26522 0.92749 7 0.92749V0.92749Z" fill="#374957"/>
<path d="M23.0001 16.9273H21.0001C19.6745 16.9289 18.4037 17.4562 17.4663 18.3936C16.529 19.3309 16.0017 20.6017 16.0001 21.9273V23.9273C16.0001 24.1925 16.1055 24.4469 16.293 24.6344C16.4805 24.822 16.7349 24.9273 17.0001 24.9273C17.2653 24.9273 17.5197 24.822 17.7072 24.6344C17.8948 24.4469 18.0001 24.1925 18.0001 23.9273V21.9273C18.0001 21.1317 18.3162 20.3686 18.8788 19.806C19.4414 19.2434 20.2045 18.9273 21.0001 18.9273H23.0001C23.2653 18.9273 23.5197 18.822 23.7072 18.6344C23.8948 18.4469 24.0001 18.1926 24.0001 17.9273C24.0001 17.6621 23.8948 17.4078 23.7072 17.2202C23.5197 17.0327 23.2653 16.9273 23.0001 16.9273Z" fill="#374957"/>
<path d="M21.0001 8.92749H23.0001C23.2653 8.92749 23.5197 8.82213 23.7072 8.6346C23.8948 8.44706 24.0001 8.19271 24.0001 7.92749C24.0001 7.66227 23.8948 7.40792 23.7072 7.22038C23.5197 7.03285 23.2653 6.92749 23.0001 6.92749H21.0001C20.2045 6.92749 19.4414 6.61142 18.8788 6.04881C18.3162 5.4862 18.0001 4.72314 18.0001 3.92749V1.92749C18.0001 1.66227 17.8948 1.40792 17.7072 1.22038C17.5197 1.03285 17.2653 0.92749 17.0001 0.92749C16.7349 0.92749 16.4805 1.03285 16.293 1.22038C16.1055 1.40792 16.0001 1.66227 16.0001 1.92749V3.92749C16.0017 5.25309 16.529 6.52393 17.4663 7.46127C18.4037 8.39861 19.6745 8.9259 21.0001 8.92749Z" fill="#374957"/>
<path d="M3 16.9273H1C0.734784 16.9273 0.48043 17.0327 0.292893 17.2202C0.105357 17.4078 0 17.6621 0 17.9273C0 18.1926 0.105357 18.4469 0.292893 18.6344C0.48043 18.822 0.734784 18.9273 1 18.9273H3C3.79565 18.9273 4.55871 19.2434 5.12132 19.806C5.68393 20.3686 6 21.1317 6 21.9273V23.9273C6 24.1925 6.10536 24.4469 6.29289 24.6344C6.48043 24.822 6.73478 24.9273 7 24.9273C7.26522 24.9273 7.51957 24.822 7.70711 24.6344C7.89464 24.4469 8 24.1925 8 23.9273V21.9273C7.99841 20.6017 7.47112 19.3309 6.53378 18.3936C5.59644 17.4562 4.32559 16.9289 3 16.9273Z" fill="#374957"/>
</g>
<defs>
<clipPath id="clip0_507_1979">
<rect width="24" height="24" fill="white" transform="translate(0 0.92749)"/>
</clipPath>
</defs>
</svg>
