<svg width="24" height="25" viewBox="0 0 24 25" fill="none" xmlns="http://www.w3.org/2000/svg">
<g clip-path="url(#clip0_507_2352)">
<path d="M22.6099 1.13616C22.3999 0.975087 22.1347 0.9038 21.8723 0.937914C21.6099 0.972027 21.3717 1.10876 21.2099 1.31816L11.9999 13.2882L2.79187 1.31816C2.62754 1.11558 2.39056 0.98523 2.13148 0.954915C1.8724 0.924599 1.61173 0.996718 1.40507 1.15589C1.19841 1.31506 1.06213 1.54867 1.02529 1.80691C0.988446 2.06514 1.05397 2.32755 1.20787 2.53816L10.7379 14.9282H5.99987C5.73466 14.9282 5.4803 15.0335 5.29277 15.2211C5.10523 15.4086 4.99987 15.6629 4.99987 15.9282C4.99987 16.1934 5.10523 16.4477 5.29277 16.6353C5.4803 16.8228 5.73466 16.9282 5.99987 16.9282H10.9999V18.9282H5.99987C5.73466 18.9282 5.4803 19.0335 5.29277 19.2211C5.10523 19.4086 4.99987 19.6629 4.99987 19.9282C4.99987 20.1934 5.10523 20.4477 5.29277 20.6353C5.4803 20.8228 5.73466 20.9282 5.99987 20.9282H10.9999V23.9282C10.9999 24.1934 11.1052 24.4477 11.2928 24.6353C11.4803 24.8228 11.7347 24.9282 11.9999 24.9282C12.2651 24.9282 12.5194 24.8228 12.707 24.6353C12.8945 24.4477 12.9999 24.1934 12.9999 23.9282V20.9282H17.9999C18.2651 20.9282 18.5194 20.8228 18.707 20.6353C18.8945 20.4477 18.9999 20.1934 18.9999 19.9282C18.9999 19.6629 18.8945 19.4086 18.707 19.2211C18.5194 19.0335 18.2651 18.9282 17.9999 18.9282H12.9999V16.9282H17.9999C18.2651 16.9282 18.5194 16.8228 18.707 16.6353C18.8945 16.4477 18.9999 16.1934 18.9999 15.9282C18.9999 15.6629 18.8945 15.4086 18.707 15.2211C18.5194 15.0335 18.2651 14.9282 17.9999 14.9282H13.2619L22.7919 2.53816C22.9536 2.32808 23.0252 2.06238 22.9911 1.79948C22.957 1.53658 22.8199 1.29799 22.6099 1.13616Z" fill="#374957"/>
</g>
<defs>
<clipPath id="clip0_507_2352">
<rect width="24" height="24" fill="white" transform="translate(0 0.92749)"/>
</clipPath>
</defs>
</svg>
