<svg width="24" height="25" viewBox="0 0 24 25" fill="none" xmlns="http://www.w3.org/2000/svg">
<g clip-path="url(#clip0_507_2184)">
<path d="M21.2611 3.66639C19.5446 2.00692 17.2831 1.02844 14.8983 0.913447C12.5135 0.79845 10.1684 1.55478 8.30012 3.04139C7.89474 2.39089 7.32956 1.85502 6.65842 1.48483C5.98727 1.11464 5.23252 0.922466 4.46606 0.926609C3.6996 0.930751 2.94697 1.13108 2.27987 1.5085C1.61276 1.88592 1.05341 2.42787 0.655091 3.08271C0.256774 3.73755 0.0327628 4.48348 0.00439842 5.24942C-0.023966 6.01537 0.144261 6.77582 0.493054 7.45832C0.841846 8.14083 1.35959 8.72267 1.99695 9.1484C2.63431 9.57413 3.37006 9.82957 4.13411 9.89039C3.81905 11.8213 4.11335 13.8024 4.97611 15.5584C5.02308 15.6484 5.04154 15.7506 5.02904 15.8513C5.01654 15.952 4.97366 16.0466 4.90612 16.1224L2.00011 17.8724C1.26063 18.2617 0.672716 18.8873 0.330024 19.6495C-0.0126684 20.4118 -0.0904201 21.2667 0.109155 22.0783C0.308731 22.8898 0.774152 23.6112 1.43127 24.1275C2.08839 24.6439 2.89941 24.9254 3.73512 24.9274C3.88785 24.9274 4.04044 24.9184 4.19211 24.9004C4.74785 24.8357 5.28172 24.646 5.75367 24.3455C6.22562 24.045 6.62338 23.6416 6.91712 23.1654L8.98512 20.0384C9.05969 19.9654 9.15522 19.9176 9.25834 19.9016C9.36145 19.8857 9.46697 19.9024 9.56012 19.9494C11.4268 20.8532 13.5348 21.1324 15.5724 20.7458C17.6101 20.3591 19.4692 19.3272 20.8751 17.8024C22.7888 15.9172 23.9072 13.3701 24.0001 10.6854C24.0518 9.38985 23.8352 8.09761 23.3639 6.88975C22.8925 5.6819 22.1766 4.58449 21.2611 3.66639ZM2.00011 5.42739C2.00011 4.93293 2.14674 4.44959 2.42144 4.03846C2.69614 3.62734 3.08659 3.30691 3.54341 3.11769C4.00022 2.92847 4.50289 2.87896 4.98784 2.97543C5.47279 3.07189 5.91825 3.30999 6.26788 3.65962C6.61751 4.00925 6.85562 4.45471 6.95208 4.93966C7.04854 5.42461 6.99903 5.92728 6.80981 6.3841C6.62059 6.84091 6.30016 7.23136 5.88904 7.50606C5.47792 7.78077 4.99457 7.92739 4.50011 7.92739C3.83707 7.92739 3.20119 7.664 2.73235 7.19516C2.26351 6.72631 2.00011 6.09043 2.00011 5.42739ZM10.4401 18.1534C9.93915 17.9054 9.3694 17.8329 8.82229 17.9475C8.27517 18.0621 7.78243 18.3572 7.42312 18.7854C7.39912 18.8144 7.37712 18.8444 7.35612 18.8754L5.22912 22.0934C5.01946 22.4362 4.69776 22.6959 4.31851 22.8287C3.93926 22.9614 3.52579 22.959 3.14814 22.8217C2.77049 22.6845 2.45188 22.421 2.24631 22.0757C2.04073 21.7305 1.96082 21.3248 2.02011 20.9274C2.06296 20.6475 2.17269 20.3821 2.33999 20.1537C2.50729 19.9253 2.72722 19.7407 2.98111 19.6154L6.02212 17.7844C6.06648 17.7578 6.10862 17.7277 6.14812 17.6944C6.57519 17.3344 6.86881 16.8413 6.98181 16.2943C7.0948 15.7472 7.02059 15.1781 6.77112 14.6784C6.11808 13.3604 5.87662 11.8764 6.07812 10.4194L14.5111 18.8524C13.1151 19.0156 11.7017 18.7729 10.4401 18.1534ZM19.4611 16.3884C18.6754 17.1758 17.7487 17.8085 16.7291 18.2534C16.7201 18.2434 16.7171 18.2304 16.7071 18.2204L7.36012 8.87239C7.87058 8.45461 8.28233 7.92911 8.56586 7.33352C8.84939 6.73794 8.99768 6.08701 9.00012 5.42739C9.00012 5.30839 8.97412 5.19639 8.96512 5.08039C10.4456 3.71003 12.3887 2.94879 14.4061 2.94879C16.4235 2.94879 18.3666 3.71003 19.8471 5.08039C20.5692 5.80648 21.1332 6.67411 21.5037 7.62872C21.8743 8.58334 22.0433 9.6043 22.0001 10.6274C21.9218 12.8018 21.0131 14.8635 19.4611 16.3884Z" fill="#374957"/>
</g>
<defs>
<clipPath id="clip0_507_2184">
<rect width="24" height="24" fill="white" transform="translate(0 0.92749)"/>
</clipPath>
</defs>
</svg>
