<svg width="24" height="25" viewBox="0 0 24 25" fill="none" xmlns="http://www.w3.org/2000/svg">
<g clip-path="url(#clip0_507_2134)">
<path d="M12.0001 0.927483C9.82119 0.927532 7.69136 1.5747 5.88075 2.7869C4.07014 3.9991 2.66033 5.72173 1.83012 7.7363C0.999913 9.75087 0.786709 11.9666 1.21755 14.1025C1.6484 16.2384 2.70387 18.1983 4.25012 19.7335L8.19312 23.3745C9.20661 24.3666 10.5673 24.9238 11.9856 24.9275C13.4038 24.9313 14.7674 24.3812 15.7861 23.3945L19.7781 19.7055C21.3164 18.1671 22.364 16.2071 22.7884 14.0734C23.2128 11.9396 22.995 9.72796 22.1625 7.71801C21.3299 5.70807 19.9201 3.99013 18.1112 2.78143C16.3023 1.57273 14.1757 0.927552 12.0001 0.927483V0.927483ZM18.3921 18.2645L14.4081 21.9455C13.753 22.5627 12.8861 22.9049 11.986 22.9015C11.086 22.8982 10.2216 22.5495 9.57112 21.9275L5.63612 18.2915C4.58957 17.2449 3.81728 15.9564 3.38765 14.5401C2.95802 13.1238 2.88431 11.6233 3.17306 10.1717C3.46181 8.72011 4.10409 7.36211 5.04303 6.21802C5.98197 5.07392 7.18857 4.17904 8.55596 3.61265C9.92335 3.04626 11.4093 2.82583 12.8822 2.9709C14.3552 3.11596 15.7696 3.62204 17.0002 4.44431C18.2308 5.26658 19.2397 6.37965 19.9374 7.68494C20.6351 8.99022 21.0001 10.4474 21.0001 11.9275C21.0045 13.1035 20.7764 14.2688 20.3288 15.3564C19.8812 16.4439 19.223 17.4322 18.3921 18.2645ZM16.7101 8.59048L13.7101 6.50948C13.2075 6.16218 12.6111 5.97615 12.0001 5.97615C11.3892 5.97615 10.7927 6.16218 10.2901 6.50948L7.29012 8.59048C6.89203 8.86665 6.56675 9.23513 6.3421 9.6644C6.11745 10.0937 6.00011 10.571 6.00012 11.0555V14.4275C6.00012 15.0905 6.26351 15.7264 6.73235 16.1953C7.2012 16.6641 7.83708 16.9275 8.50012 16.9275H15.5001C16.1632 16.9275 16.799 16.6641 17.2679 16.1953C17.7367 15.7264 18.0001 15.0905 18.0001 14.4275V11.0555C18.0001 10.571 17.8828 10.0937 17.6581 9.6644C17.4335 9.23513 17.1082 8.86665 16.7101 8.59048ZM16.0001 14.4275C16.0001 14.5601 15.9474 14.6873 15.8537 14.781C15.7599 14.8748 15.6327 14.9275 15.5001 14.9275H14.0001V12.9275C14.0001 12.6623 13.8948 12.4079 13.7072 12.2204C13.5197 12.0328 13.2653 11.9275 13.0001 11.9275H11.0001C10.7349 11.9275 10.4806 12.0328 10.293 12.2204C10.1055 12.4079 10.0001 12.6623 10.0001 12.9275V14.9275H8.50012C8.36751 14.9275 8.24034 14.8748 8.14657 14.781C8.0528 14.6873 8.00012 14.5601 8.00012 14.4275V11.0555C8.00006 10.8939 8.03915 10.7348 8.11404 10.5916C8.18892 10.4485 8.29738 10.3256 8.43012 10.2335L11.4301 8.15248C11.5978 8.03716 11.7966 7.97542 12.0001 7.97542C12.2037 7.97542 12.4024 8.03716 12.5701 8.15248L15.5701 10.2335C15.7029 10.3256 15.8113 10.4485 15.8862 10.5916C15.9611 10.7348 16.0002 10.8939 16.0001 11.0555V14.4275Z" fill="#374957"/>
</g>
<defs>
<clipPath id="clip0_507_2134">
<rect width="24" height="24" fill="white" transform="translate(0 0.92749)"/>
</clipPath>
</defs>
</svg>
