<svg width="24" height="25" viewBox="0 0 24 25" fill="none" xmlns="http://www.w3.org/2000/svg">
<g clip-path="url(#clip0_507_2246)">
<path d="M22.9999 19.9269H20.9999V17.9269C20.9999 17.6617 20.8945 17.4073 20.707 17.2198C20.5194 17.0322 20.2651 16.9269 19.9999 16.9269C19.7347 16.9269 19.4803 17.0322 19.2928 17.2198C19.1052 17.4073 18.9999 17.6617 18.9999 17.9269V19.9269H16.9999C16.7347 19.9269 16.4803 20.0322 16.2928 20.2198C16.1052 20.4073 15.9999 20.6617 15.9999 20.9269C15.9999 21.1921 16.1052 21.4464 16.2928 21.634C16.4803 21.8215 16.7347 21.9269 16.9999 21.9269H18.9999V23.9269C18.9999 24.1921 19.1052 24.4464 19.2928 24.634C19.4803 24.8215 19.7347 24.9269 19.9999 24.9269C20.2651 24.9269 20.5194 24.8215 20.707 24.634C20.8945 24.4464 20.9999 24.1921 20.9999 23.9269V21.9269H22.9999C23.2651 21.9269 23.5194 21.8215 23.707 21.634C23.8945 21.4464 23.9999 21.1921 23.9999 20.9269C23.9999 20.6617 23.8945 20.4073 23.707 20.2198C23.5194 20.0322 23.2651 19.9269 22.9999 19.9269Z" fill="#374957"/>
<path d="M21 6.92749H18C18 5.33619 17.3679 3.81007 16.2426 2.68485C15.1174 1.55963 13.5913 0.92749 12 0.92749C10.4087 0.92749 8.88258 1.55963 7.75736 2.68485C6.63214 3.81007 6 5.33619 6 6.92749H3C2.20435 6.92749 1.44129 7.24356 0.87868 7.80617C0.31607 8.36878 0 9.13184 0 9.92749L0 19.9275C0.00158786 21.2531 0.528882 22.5239 1.46622 23.4613C2.40356 24.3986 3.67441 24.9259 5 24.9275H14C14.2652 24.9275 14.5196 24.8221 14.7071 24.6346C14.8946 24.4471 15 24.1927 15 23.9275C15 23.6623 14.8946 23.4079 14.7071 23.2204C14.5196 23.0328 14.2652 22.9275 14 22.9275H5C4.20435 22.9275 3.44129 22.6114 2.87868 22.0488C2.31607 21.4862 2 20.7231 2 19.9275V9.92749C2 9.66227 2.10536 9.40792 2.29289 9.22038C2.48043 9.03285 2.73478 8.92749 3 8.92749H6V10.9275C6 11.1927 6.10536 11.4471 6.29289 11.6346C6.48043 11.8221 6.73478 11.9275 7 11.9275C7.26522 11.9275 7.51957 11.8221 7.70711 11.6346C7.89464 11.4471 8 11.1927 8 10.9275V8.92749H16V10.9275C16 11.1927 16.1054 11.4471 16.2929 11.6346C16.4804 11.8221 16.7348 11.9275 17 11.9275C17.2652 11.9275 17.5196 11.8221 17.7071 11.6346C17.8946 11.4471 18 11.1927 18 10.9275V8.92749H21C21.2652 8.92749 21.5196 9.03285 21.7071 9.22038C21.8946 9.40792 22 9.66227 22 9.92749V14.9275C22 15.1927 22.1054 15.4471 22.2929 15.6346C22.4804 15.8221 22.7348 15.9275 23 15.9275C23.2652 15.9275 23.5196 15.8221 23.7071 15.6346C23.8946 15.4471 24 15.1927 24 14.9275V9.92749C24 9.13184 23.6839 8.36878 23.1213 7.80617C22.5587 7.24356 21.7956 6.92749 21 6.92749ZM8 6.92749C8 5.86662 8.42143 4.84921 9.17157 4.09906C9.92172 3.34892 10.9391 2.92749 12 2.92749C13.0609 2.92749 14.0783 3.34892 14.8284 4.09906C15.5786 4.84921 16 5.86662 16 6.92749H8Z" fill="#374957"/>
</g>
<defs>
<clipPath id="clip0_507_2246">
<rect width="24" height="24" fill="white" transform="translate(0 0.92749)"/>
</clipPath>
</defs>
</svg>
