<svg width="24" height="25" viewBox="0 0 24 25" fill="none" xmlns="http://www.w3.org/2000/svg">
<g clip-path="url(#clip0_507_1983)">
<path d="M13.0001 20.9276C14.3257 20.926 15.5966 20.3987 16.5339 19.4614C17.4712 18.524 17.9985 17.2532 18.0001 15.9276V7.1706C18.0017 6.64496 17.8989 6.12424 17.6977 5.63862C17.4965 5.153 17.2009 4.71214 16.8281 4.3416L14.5861 2.0996C14.2156 1.72677 13.7747 1.4312 13.2891 1.23002C12.8035 1.02884 12.2828 0.926044 11.7571 0.927599H7.00012C5.67453 0.929187 4.40368 1.45648 3.46634 2.39382C2.529 3.33116 2.00171 4.602 2.00012 5.9276V15.9276C2.00171 17.2532 2.529 18.524 3.46634 19.4614C4.40368 20.3987 5.67453 20.926 7.00012 20.9276H13.0001ZM4.00012 15.9276V5.9276C4.00012 5.13195 4.31619 4.36889 4.8788 3.80628C5.44141 3.24367 6.20447 2.9276 7.00012 2.9276C7.00012 2.9276 11.9191 2.9416 12.0001 2.9516V4.9276C12.0001 5.45803 12.2108 5.96674 12.5859 6.34181C12.961 6.71689 13.4697 6.9276 14.0001 6.9276H15.9761C15.9861 7.0086 16.0001 15.9276 16.0001 15.9276C16.0001 16.7232 15.6841 17.4863 15.1214 18.0489C14.5588 18.6115 13.7958 18.9276 13.0001 18.9276H7.00012C6.20447 18.9276 5.44141 18.6115 4.8788 18.0489C4.31619 17.4863 4.00012 16.7232 4.00012 15.9276ZM22.0001 8.9276V19.9276C21.9985 21.2532 21.4712 22.524 20.5339 23.4614C19.5966 24.3987 18.3257 24.926 17.0001 24.9276H8.00012C7.73491 24.9276 7.48055 24.8222 7.29302 24.6347C7.10548 24.4472 7.00012 24.1928 7.00012 23.9276C7.00012 23.6624 7.10548 23.408 7.29302 23.2205C7.48055 23.033 7.73491 22.9276 8.00012 22.9276H17.0001C17.7958 22.9276 18.5588 22.6115 19.1214 22.0489C19.6841 21.4863 20.0001 20.7232 20.0001 19.9276V8.9276C20.0001 8.66238 20.1055 8.40803 20.293 8.22049C20.4806 8.03296 20.7349 7.9276 21.0001 7.9276C21.2653 7.9276 21.5197 8.03296 21.7072 8.22049C21.8948 8.40803 22.0001 8.66238 22.0001 8.9276Z" fill="#374957"/>
</g>
<defs>
<clipPath id="clip0_507_1983">
<rect width="24" height="24" fill="white" transform="translate(0 0.92749)"/>
</clipPath>
</defs>
</svg>
