<svg width="24" height="25" viewBox="0 0 24 25" fill="none" xmlns="http://www.w3.org/2000/svg">
<g clip-path="url(#clip0_507_2342)">
<path d="M21.9998 0.92749H17.9998C17.7346 0.92749 17.4802 1.03285 17.2927 1.22038C17.1051 1.40792 16.9998 1.66227 16.9998 1.92749C16.9998 2.19271 17.1051 2.44706 17.2927 2.6346C17.4802 2.82213 17.7346 2.92749 17.9998 2.92749H20.5858L18.1858 5.32749C17.0913 4.50098 15.7765 4.01723 14.4073 3.93732C13.0382 3.85741 11.676 4.18491 10.4928 4.87849C9.60102 4.36319 8.60637 4.05136 7.58002 3.9653C6.55367 3.87925 5.52099 4.0211 4.55586 4.38071C3.59073 4.74032 2.71701 5.30879 1.99721 6.04547C1.2774 6.78214 0.729318 7.66879 0.392161 8.64199C0.0550032 9.6152 -0.0628912 10.6509 0.0469123 11.675C0.156716 12.699 0.491503 13.6862 1.02732 14.5658C1.56314 15.4454 2.28674 16.1957 3.14636 16.763C4.00598 17.3304 4.98036 17.7007 5.99979 17.8475V19.9275H3.99979C3.73457 19.9275 3.48022 20.0328 3.29268 20.2204C3.10515 20.4079 2.99979 20.6623 2.99979 20.9275C2.99979 21.1927 3.10515 21.4471 3.29268 21.6346C3.48022 21.8221 3.73457 21.9275 3.99979 21.9275H5.99979V23.9275C5.99979 24.1927 6.10515 24.4471 6.29268 24.6346C6.48022 24.8221 6.73457 24.9275 6.99979 24.9275C7.26501 24.9275 7.51936 24.8221 7.7069 24.6346C7.89443 24.4471 7.99979 24.1927 7.99979 23.9275V21.9275H9.99979C10.265 21.9275 10.5194 21.8221 10.7069 21.6346C10.8944 21.4471 10.9998 21.1927 10.9998 20.9275C10.9998 20.6623 10.8944 20.4079 10.7069 20.2204C10.5194 20.0328 10.265 19.9275 9.99979 19.9275H7.99979V17.8545C8.87885 17.7235 9.72453 17.4248 10.4908 16.9745C11.884 17.7894 13.5164 18.0967 15.1105 17.8443C16.7047 17.5918 18.1623 16.7952 19.2355 15.5897C20.3088 14.3842 20.9315 12.8443 20.9979 11.2317C21.0644 9.61901 20.5703 8.03312 19.5998 6.74349L21.9998 4.34349V6.92749C21.9998 7.19271 22.1051 7.44706 22.2927 7.6346C22.4802 7.82213 22.7346 7.92749 22.9998 7.92749C23.265 7.92749 23.5194 7.82213 23.7069 7.6346C23.8944 7.44706 23.9998 7.19271 23.9998 6.92749V2.92749C23.9998 2.39706 23.7891 1.88835 23.414 1.51328C23.0389 1.1382 22.5302 0.92749 21.9998 0.92749V0.92749ZM1.99979 10.9275C1.99505 10.1153 2.18937 9.3144 2.56576 8.59471C2.94216 7.87503 3.48915 7.25853 4.1589 6.79914C4.82865 6.33975 5.60076 6.05145 6.4077 5.95947C7.21464 5.86748 8.03183 5.97461 8.78779 6.27149C7.63673 7.54911 6.99973 9.20782 6.99973 10.9275C6.99973 12.6472 7.63673 14.3059 8.78779 15.5835C8.03183 15.8804 7.21464 15.9875 6.4077 15.8955C5.60076 15.8035 4.82865 15.5152 4.1589 15.0558C3.48915 14.5964 2.94216 13.9799 2.56576 13.2603C2.18937 12.5406 1.99505 11.7396 1.99979 10.9275ZM13.9998 15.9275C13.0109 15.9275 12.0442 15.6342 11.2219 15.0848C10.3997 14.5354 9.75883 13.7545 9.38039 12.8409C9.00195 11.9273 8.90294 10.9219 9.09586 9.95204C9.28879 8.98213 9.76499 8.09122 10.4643 7.39196C11.1635 6.69269 12.0544 6.21649 13.0243 6.02356C13.9942 5.83064 14.9996 5.92965 15.9132 6.30809C16.8268 6.68653 17.6077 7.32739 18.1571 8.14964C18.7065 8.97188 18.9998 9.93858 18.9998 10.9275C18.9982 12.2531 18.4709 13.5239 17.5336 14.4613C16.5962 15.3986 15.3254 15.9259 13.9998 15.9275Z" fill="#374957"/>
</g>
<defs>
<clipPath id="clip0_507_2342">
<rect width="24" height="24" fill="white" transform="translate(0 0.92749)"/>
</clipPath>
</defs>
</svg>
