<svg width="24" height="25" viewBox="0 0 24 25" fill="none" xmlns="http://www.w3.org/2000/svg">
<g clip-path="url(#clip0_507_2299)">
<path d="M16 0.92749H15.87C15.4225 0.931742 14.989 1.0845 14.6377 1.36179C14.2864 1.63908 14.0371 2.02518 13.929 2.45949C13.8132 2.88233 13.5617 3.25541 13.2132 3.52135C12.8647 3.78728 12.4384 3.93132 12 3.93132C11.5616 3.93132 11.1353 3.78728 10.7868 3.52135C10.4383 3.25541 10.1868 2.88233 10.071 2.45949C9.9629 2.02518 9.71362 1.63908 9.36231 1.36179C9.01099 1.0845 8.57754 0.931742 8.13 0.92749L8 0.92749C6.67441 0.929078 5.40356 1.45637 4.46622 2.39371C3.52888 3.33105 3.00159 4.6019 3 5.92749V21.9275C3 22.7231 3.31607 23.4862 3.87868 24.0488C4.44129 24.6114 5.20435 24.9275 6 24.9275H8.13C8.57754 24.9232 9.01099 24.7705 9.36231 24.4932C9.71362 24.2159 9.9629 23.8298 10.071 23.3955C10.1868 22.9727 10.4383 22.5996 10.7868 22.3336C11.1353 22.0677 11.5616 21.9237 12 21.9237C12.4384 21.9237 12.8647 22.0677 13.2132 22.3336C13.5617 22.5996 13.8132 22.9727 13.929 23.3955C14.0371 23.8298 14.2864 24.2159 14.6377 24.4932C14.989 24.7705 15.4225 24.9232 15.87 24.9275H18C18.7956 24.9275 19.5587 24.6114 20.1213 24.0488C20.6839 23.4862 21 22.7231 21 21.9275V5.92749C20.9984 4.6019 20.4711 3.33105 19.5338 2.39371C18.5964 1.45637 17.3256 0.929078 16 0.92749V0.92749ZM18 22.9275L15.857 22.8645C15.6221 22.0159 15.1138 21.2685 14.4109 20.7383C13.708 20.208 12.8498 19.9245 11.9693 19.9316C11.0889 19.9388 10.2354 20.2363 9.54122 20.778C8.84706 21.3196 8.35101 22.0752 8.13 22.9275H6C5.73478 22.9275 5.48043 22.8221 5.29289 22.6346C5.10536 22.4471 5 22.1927 5 21.9275V17.9275H7C7.26522 17.9275 7.51957 17.8221 7.70711 17.6346C7.89464 17.4471 8 17.1927 8 16.9275C8 16.6623 7.89464 16.4079 7.70711 16.2204C7.51957 16.0328 7.26522 15.9275 7 15.9275H5V5.92749C5 5.13184 5.31607 4.36878 5.87868 3.80617C6.44129 3.24356 7.20435 2.92749 8 2.92749L8.143 2.99049C8.37722 3.83392 8.881 4.57754 9.57742 5.10784C10.2738 5.63815 11.1247 5.92601 12 5.92749C12.8872 5.91994 13.7476 5.62279 14.4503 5.08125C15.153 4.53971 15.6596 3.78344 15.893 2.92749H16C16.7956 2.92749 17.5587 3.24356 18.1213 3.80617C18.6839 4.36878 19 5.13184 19 5.92749V15.9275H17C16.7348 15.9275 16.4804 16.0328 16.2929 16.2204C16.1054 16.4079 16 16.6623 16 16.9275C16 17.1927 16.1054 17.4471 16.2929 17.6346C16.4804 17.8221 16.7348 17.9275 17 17.9275H19V21.9275C19 22.1927 18.8946 22.4471 18.7071 22.6346C18.5196 22.8221 18.2652 22.9275 18 22.9275Z" fill="#374957"/>
<path d="M13.0001 15.9275H11.0001C10.7349 15.9275 10.4806 16.0328 10.293 16.2204C10.1055 16.4079 10.0001 16.6623 10.0001 16.9275C10.0001 17.1927 10.1055 17.4471 10.293 17.6346C10.4806 17.8221 10.7349 17.9275 11.0001 17.9275H13.0001C13.2653 17.9275 13.5197 17.8221 13.7072 17.6346C13.8948 17.4471 14.0001 17.1927 14.0001 16.9275C14.0001 16.6623 13.8948 16.4079 13.7072 16.2204C13.5197 16.0328 13.2653 15.9275 13.0001 15.9275Z" fill="#374957"/>
</g>
<defs>
<clipPath id="clip0_507_2299">
<rect width="24" height="24" fill="white" transform="translate(0 0.92749)"/>
</clipPath>
</defs>
</svg>
