<svg width="24" height="25" viewBox="0 0 24 25" fill="none" xmlns="http://www.w3.org/2000/svg">
<g clip-path="url(#clip0_507_2033)">
<path d="M23.1122 6.0924C23.3932 5.81149 23.6161 5.47795 23.7683 5.11085C23.9204 4.74375 23.9987 4.35027 23.9987 3.9529C23.9987 3.55553 23.9204 3.16206 23.7683 2.79496C23.6161 2.42786 23.3932 2.09432 23.1122 1.8134C22.5364 1.26303 21.7706 0.955872 20.9742 0.955872C20.1777 0.955872 19.4119 1.26303 18.8362 1.8134L16.4002 4.2514C15.3882 5.2644 13.2772 5.0404 11.8212 4.2384C11.2698 3.93992 10.6291 3.85072 10.0172 3.98725C9.40526 4.12378 8.86327 4.47684 8.49107 4.98139C8.11887 5.48594 7.94152 6.10799 7.9917 6.73295C8.04189 7.35792 8.31621 7.94371 8.76415 8.3824L10.1802 9.7984L2.02515 17.9524C1.48987 18.482 1.14226 19.172 1.03521 19.9173C0.928165 20.6627 1.06755 21.4226 1.43215 22.0814L0.293153 23.2204C0.105682 23.4079 0.000366211 23.6622 0.000366211 23.9274C0.000366211 24.1926 0.105682 24.4469 0.293153 24.6344C0.48068 24.8219 0.734988 24.9272 1.00015 24.9272C1.26532 24.9272 1.51963 24.8219 1.70715 24.6344L2.84615 23.4954C3.50499 23.86 4.2649 23.9994 5.01024 23.8923C5.75559 23.7853 6.44556 23.4377 6.97515 22.9024L15.1292 14.7474L16.5452 16.1634C16.9838 16.6113 17.5696 16.8857 18.1946 16.9359C18.8196 16.986 19.4416 16.8087 19.9462 16.4365C20.4507 16.0643 20.8038 15.5223 20.9403 14.9104C21.0768 14.2984 20.9876 13.6578 20.6892 13.1064C19.8892 11.6504 19.6642 9.5384 20.6762 8.5264L23.1122 6.0924ZM5.56015 21.4884C5.27443 21.7611 4.89463 21.9133 4.49965 21.9133C4.10468 21.9133 3.72488 21.7611 3.43915 21.4884C3.15795 21.2071 2.99997 20.8256 2.99997 20.4279C2.99997 20.0302 3.15795 19.6487 3.43915 19.3674L11.5942 11.2134L13.7152 13.3344L5.56015 21.4884ZM19.2602 7.1124C17.5012 8.8714 17.7602 11.9444 18.9352 14.0704C18.9909 14.1814 19.0094 14.3073 18.988 14.4296C18.9665 14.5519 18.9063 14.664 18.8162 14.7494C18.7006 14.8601 18.5467 14.9219 18.3867 14.9219C18.2266 14.9219 18.0727 14.8601 17.9572 14.7494L10.1782 6.9684C10.0941 6.88292 10.037 6.77463 10.014 6.65698C9.99093 6.53933 10.0029 6.41751 10.0485 6.30663C10.0941 6.19575 10.1713 6.1007 10.2704 6.03329C10.3695 5.96587 10.4863 5.92905 10.6062 5.9274C10.6938 5.927 10.7801 5.94867 10.8572 5.9904C12.9832 7.1604 16.0572 7.4244 17.8152 5.6654L20.2542 3.2274C20.4487 3.04099 20.7077 2.93692 20.9772 2.93692C21.2466 2.93692 21.5056 3.04099 21.7002 3.2274C21.7954 3.32251 21.8709 3.43544 21.9224 3.55976C21.974 3.68407 22.0005 3.81733 22.0005 3.9519C22.0005 4.08648 21.974 4.21973 21.9224 4.34405C21.8709 4.46836 21.7954 4.5813 21.7002 4.6764L19.2602 7.1124Z" fill="#374957"/>
</g>
<defs>
<clipPath id="clip0_507_2033">
<rect width="24" height="24" fill="white" transform="translate(0 0.92749)"/>
</clipPath>
</defs>
</svg>
