<svg width="24" height="25" viewBox="0 0 24 25" fill="none" xmlns="http://www.w3.org/2000/svg">
<g clip-path="url(#clip0_507_2191)">
<path d="M23 11.9275H13V1.92749C13 1.66227 12.8946 1.40792 12.7071 1.22038C12.5196 1.03285 12.2652 0.92749 12 0.92749V0.92749C11.7348 0.92749 11.4804 1.03285 11.2929 1.22038C11.1054 1.40792 11 1.66227 11 1.92749V11.9275H1C0.734784 11.9275 0.48043 12.0328 0.292893 12.2204C0.105357 12.4079 0 12.6623 0 12.9275H0C0 13.1927 0.105357 13.4471 0.292893 13.6346C0.48043 13.8221 0.734784 13.9275 1 13.9275H11V23.9275C11 24.1927 11.1054 24.4471 11.2929 24.6346C11.4804 24.8221 11.7348 24.9275 12 24.9275C12.2652 24.9275 12.5196 24.8221 12.7071 24.6346C12.8946 24.4471 13 24.1927 13 23.9275V13.9275H23C23.2652 13.9275 23.5196 13.8221 23.7071 13.6346C23.8946 13.4471 24 13.1927 24 12.9275C24 12.6623 23.8946 12.4079 23.7071 12.2204C23.5196 12.0328 23.2652 11.9275 23 11.9275Z" fill="#374957"/>
</g>
<defs>
<clipPath id="clip0_507_2191">
<rect width="24" height="24" fill="white" transform="translate(0 0.92749)"/>
</clipPath>
</defs>
</svg>
