<svg width="24" height="25" viewBox="0 0 24 25" fill="none" xmlns="http://www.w3.org/2000/svg">
<g clip-path="url(#clip0_507_2211)">
<path d="M16.9 15.6511C17.0875 15.8386 17.3418 15.9439 17.607 15.9439C17.8722 15.9439 18.1265 15.8386 18.314 15.6511L23.263 10.7011C23.4952 10.469 23.6794 10.1933 23.8051 9.88999C23.9308 9.58663 23.9955 9.26149 23.9955 8.93313C23.9955 8.60477 23.9308 8.27963 23.8051 7.97627C23.6794 7.67291 23.4952 7.39729 23.263 7.16513L18.313 2.21613C18.1228 2.0437 17.8736 1.95101 17.617 1.95723C17.3604 1.96346 17.116 2.06814 16.9344 2.24958C16.7529 2.43103 16.648 2.67536 16.6416 2.93197C16.6352 3.18859 16.7277 3.43784 16.9 3.62813L21.2 7.92813H5C3.67392 7.92813 2.40215 8.45492 1.46447 9.3926C0.526784 10.3303 0 11.602 0 12.9281L0 19.9281C0.00158786 21.2537 0.528882 22.5246 1.46622 23.4619C2.40356 24.3993 3.67441 24.9265 5 24.9281H19C19.2652 24.9281 19.5196 24.8228 19.7071 24.6352C19.8946 24.4477 20 24.1933 20 23.9281C20 23.6629 19.8946 23.4086 19.7071 23.221C19.5196 23.0335 19.2652 22.9281 19 22.9281H5C4.20435 22.9281 3.44129 22.6121 2.87868 22.0495C2.31607 21.4868 2 20.7238 2 19.9281V12.9281C2 12.1325 2.31607 11.3694 2.87868 10.8068C3.44129 10.2442 4.20435 9.92813 5 9.92813H21.212L16.9 14.2371C16.7125 14.4247 16.6072 14.679 16.6072 14.9441C16.6072 15.2093 16.7125 15.4636 16.9 15.6511Z" fill="#374957"/>
</g>
<defs>
<clipPath id="clip0_507_2211">
<rect width="24" height="24" fill="white" transform="translate(0 0.92749)"/>
</clipPath>
</defs>
</svg>
