<svg width="24" height="25" viewBox="0 0 24 25" fill="none" xmlns="http://www.w3.org/2000/svg">
<g clip-path="url(#clip0_507_2021)">
<path d="M9.28804 13.9943C6.97104 14.4403 5.82304 17.0203 5.32504 18.6283C5.27808 18.7782 5.26708 18.937 5.29294 19.092C5.31881 19.2469 5.3808 19.3935 5.4739 19.5201C5.567 19.6466 5.68859 19.7494 5.82882 19.8201C5.96905 19.8909 6.12398 19.9276 6.28104 19.9273H10C10.4172 19.9274 10.8297 19.8405 11.2113 19.6721C11.593 19.5038 11.9353 19.2577 12.2165 18.9496C12.4977 18.6416 12.7115 18.2782 12.8444 17.8828C12.9772 17.4874 13.0261 17.0687 12.988 16.6533C12.9349 16.2289 12.7947 15.8201 12.5762 15.4523C12.3577 15.0846 12.0657 14.766 11.7183 14.5164C11.371 14.2668 10.9758 14.0916 10.5577 14.0017C10.1395 13.9119 9.70725 13.9094 9.28804 13.9943Z" fill="#374957"/>
<path d="M23 9.90649C22.7348 9.90649 22.4804 10.0118 22.2929 10.1994C22.1054 10.3869 22 10.6413 22 10.9065V15.9275H18C17.2044 15.9275 16.4413 16.2436 15.8787 16.8062C15.3161 17.3688 15 18.1318 15 18.9275V22.9275H5C4.20435 22.9275 3.44129 22.6114 2.87868 22.0488C2.31607 21.4862 2 20.7231 2 19.9275V5.92749C2 5.13184 2.31607 4.36878 2.87868 3.80617C3.44129 3.24356 4.20435 2.92749 5 2.92749H16.042C16.3072 2.92749 16.5616 2.82213 16.7491 2.6346C16.9366 2.44706 17.042 2.19271 17.042 1.92749C17.042 1.66227 16.9366 1.40792 16.7491 1.22038C16.5616 1.03285 16.3072 0.92749 16.042 0.92749H5C3.67441 0.929078 2.40356 1.45637 1.46622 2.39371C0.528882 3.33105 0.00158786 4.6019 0 5.92749L0 19.9275C0.00158786 21.2531 0.528882 22.5239 1.46622 23.4613C2.40356 24.3986 3.67441 24.9259 5 24.9275H16.343C16.9998 24.9293 17.6504 24.8009 18.2572 24.5496C18.8639 24.2983 19.4149 23.9291 19.878 23.4635L22.536 20.8055C23.0017 20.3423 23.3708 19.7914 23.6221 19.1846C23.8734 18.5779 24.0019 17.9273 24 17.2705V10.9065C24 10.6413 23.8946 10.3869 23.7071 10.1994C23.5196 10.0118 23.2652 9.90649 23 9.90649ZM18.464 22.0495C18.0607 22.4482 17.5534 22.7255 17 22.8495V18.9275C17 18.6623 17.1054 18.4079 17.2929 18.2204C17.4804 18.0328 17.7348 17.9275 18 17.9275H21.925C21.801 18.4809 21.5238 18.9882 21.125 19.3915L18.464 22.0495Z" fill="#374957"/>
<path d="M14.566 15.0974C14.3682 15.0973 14.1749 15.0386 14.0105 14.9288C13.8461 14.8189 13.718 14.6627 13.6423 14.48C13.5666 14.2973 13.5468 14.0963 13.5854 13.9023C13.624 13.7084 13.7192 13.5302 13.859 13.3904L21.712 5.53735C21.7998 5.44976 21.8694 5.34572 21.9169 5.23118C21.9644 5.11664 21.9889 4.99385 21.9889 4.86985C21.9889 4.74585 21.9644 4.62306 21.9169 4.50852C21.8694 4.39399 21.7998 4.28994 21.712 4.20235C21.6227 4.10953 21.5146 4.03695 21.3948 3.98951C21.2751 3.94206 21.1466 3.92087 21.018 3.92735C20.8894 3.93015 20.7629 3.95948 20.6462 4.01352C20.5295 4.06755 20.4253 4.14512 20.34 4.24135L12.74 12.6484C12.5622 12.8451 12.3134 12.9632 12.0486 12.9766C11.7837 12.9901 11.5243 12.8977 11.3275 12.7199C11.1307 12.542 11.0126 12.2933 10.9992 12.0284C10.9858 11.7635 11.0782 11.5041 11.256 11.3074L18.856 2.90735C19.1225 2.60982 19.4467 2.36953 19.8089 2.20107C20.1711 2.03261 20.5637 1.93949 20.963 1.92735C21.3629 1.91878 21.7604 1.99067 22.132 2.13875C22.5036 2.28683 22.8416 2.50808 23.126 2.78935C23.6772 3.34183 23.9868 4.09041 23.9868 4.87085C23.9868 5.6513 23.6772 6.39987 23.126 6.95235L15.273 14.8054C15.1803 14.8983 15.0701 14.972 14.9487 15.0222C14.8274 15.0723 14.6973 15.0978 14.566 15.0974Z" fill="#374957"/>
</g>
<defs>
<clipPath id="clip0_507_2021">
<rect width="24" height="24" fill="white" transform="translate(0 0.92749)"/>
</clipPath>
</defs>
</svg>
