<svg width="24" height="25" viewBox="0 0 24 25" fill="none" xmlns="http://www.w3.org/2000/svg">
<g clip-path="url(#clip0_507_1973)">
<path d="M14.4998 7.92743C13.5682 7.91294 12.6689 8.26904 11.9998 8.91743C11.4853 8.43705 10.8403 8.1196 10.1458 8.00505C9.45133 7.8905 8.73848 7.98397 8.09702 8.2737C7.45556 8.56343 6.91415 9.03646 6.54095 9.63324C6.16776 10.23 5.97947 10.9239 5.99978 11.6274C5.99978 14.8834 10.8738 18.3634 11.4298 18.7484C11.5972 18.8646 11.796 18.9268 11.9998 18.9268C12.2035 18.9268 12.4024 18.8646 12.5698 18.7484C13.1258 18.3634 17.9998 14.8834 17.9998 11.6274C18.0245 10.6731 17.6701 9.74793 17.0141 9.05444C16.3581 8.36094 15.454 7.95569 14.4998 7.92743ZM11.9998 16.6894C10.2588 15.3594 7.99978 13.1294 7.99978 11.6274C7.92378 9.62143 10.9128 9.22743 10.9998 11.3814V11.9274C10.9998 12.1926 11.1051 12.447 11.2927 12.6345C11.4802 12.8221 11.7346 12.9274 11.9998 12.9274C12.265 12.9274 12.5194 12.8221 12.7069 12.6345C12.8944 12.447 12.9998 12.1926 12.9998 11.9274V11.3814C13.0868 9.22943 16.0758 9.62143 15.9998 11.6274C15.9998 13.1274 13.7408 15.3594 11.9998 16.6894ZM12.8358 0.955432C11.1215 0.83564 9.40151 1.08543 7.79213 1.68791C6.18275 2.29039 4.72155 3.23151 3.50737 4.44758C2.29319 5.66366 1.35436 7.12633 0.754391 8.73665C0.154423 10.347 -0.0926865 12.0674 0.0297806 13.7814C0.469781 20.1354 6.08178 24.9274 13.0828 24.9274H18.9998C20.3254 24.9258 21.5962 24.3986 22.5336 23.4612C23.4709 22.5239 23.9982 21.253 23.9998 19.9274V13.2674C24.0368 10.1849 22.9066 7.20252 20.8358 4.91885C18.7651 2.63518 15.9072 1.2193 12.8358 0.955432ZM21.9998 19.9274C21.9998 20.7231 21.6837 21.4861 21.1211 22.0488C20.5585 22.6114 19.7954 22.9274 18.9998 22.9274H13.0828C7.04878 22.9274 2.39978 19.0274 2.02478 13.6434C1.92212 12.2144 2.12771 10.7801 2.62763 9.43744C3.12755 8.09481 3.91013 6.87528 4.92238 5.86141C5.93463 4.84755 7.15292 4.06303 8.49475 3.56097C9.83658 3.05892 11.2706 2.85104 12.6998 2.95143C15.2662 3.17847 17.6517 4.36834 19.3769 6.28199C21.102 8.19563 22.0391 10.6913 21.9998 13.2674V19.9274Z" fill="#374957"/>
</g>
<defs>
<clipPath id="clip0_507_1973">
<rect width="24" height="24" fill="white" transform="translate(0 0.92749)"/>
</clipPath>
</defs>
</svg>
