<svg width="24" height="25" viewBox="0 0 24 25" fill="none" xmlns="http://www.w3.org/2000/svg">
<g clip-path="url(#clip0_507_2179)">
<path d="M22.9999 17.5802L20.6599 15.7802C20.0824 15.2305 19.3154 14.9245 18.5182 14.9256C17.7209 14.9267 16.9548 15.2349 16.3789 15.7862L14.9099 16.9542C13.3541 16.3102 11.9408 15.3651 10.7514 14.1733C9.56195 12.9814 8.61973 11.5663 7.97889 10.0092L9.13689 8.55319C9.6886 7.97736 9.99718 7.21107 9.99849 6.41359C9.99979 5.61612 9.69372 4.84882 9.14389 4.27119L7.34589 1.92719C7.31948 1.89198 7.29075 1.85857 7.25989 1.82719C6.68881 1.25338 5.91482 0.927389 5.10529 0.919717C4.29576 0.912045 3.51574 1.2233 2.93389 1.78619L1.78389 2.78619C-5.93511 10.9962 13.9839 30.9312 22.1839 23.0862L23.0939 22.0372C23.6734 21.4561 23.9988 20.6689 23.9988 19.8482C23.9988 19.0275 23.6734 18.2403 23.0939 17.6592C23.064 17.6312 23.0326 17.6048 22.9999 17.5802ZM21.6359 20.6802L20.7249 21.7302C14.7879 27.3452 -2.50011 11.0412 3.14689 4.25219L4.29689 3.25219C4.49603 3.05416 4.76338 2.93979 5.04413 2.93254C5.32489 2.92529 5.59779 3.0257 5.80689 3.21319L7.59289 5.53619C7.61907 5.57158 7.64781 5.60501 7.67889 5.63619C7.88315 5.84221 7.99777 6.12058 7.99777 6.41069C7.99777 6.70081 7.88315 6.97918 7.67889 7.18519C7.65075 7.21073 7.62435 7.23812 7.59989 7.26719L6.04389 9.22719C5.9331 9.36599 5.86127 9.53178 5.83579 9.70753C5.81031 9.88328 5.83208 10.0626 5.89889 10.2272C6.65203 12.2423 7.82956 14.0719 9.35166 15.5921C10.8738 17.1123 12.7049 18.2876 14.7209 19.0382C14.8832 19.1001 15.0589 19.1186 15.2305 19.092C15.4022 19.0653 15.564 18.9944 15.6999 18.8862L17.6599 17.3272C17.6893 17.3035 17.7174 17.2781 17.7439 17.2512C17.8552 17.1438 17.9874 17.0604 18.1323 17.0062C18.2771 16.9521 18.4316 16.9283 18.5861 16.9363C18.7405 16.9444 18.8917 16.9842 19.0301 17.0531C19.1686 17.1221 19.2914 17.2188 19.3909 17.3372L21.7169 19.1242C21.9076 19.344 22.0053 19.6293 21.9895 19.9199C21.9736 20.2104 21.8454 20.4835 21.6319 20.6812L21.6359 20.6802ZM23.7069 7.22019C23.889 7.40879 23.9898 7.6614 23.9876 7.92359C23.9853 8.18579 23.8801 8.4366 23.6947 8.62201C23.5093 8.80742 23.2585 8.91259 22.9963 8.91487C22.7341 8.91714 22.4815 8.81635 22.2929 8.63419L19.9999 6.34119L17.7069 8.63419C17.5183 8.81635 17.2657 8.91714 17.0035 8.91487C16.7413 8.91259 16.4905 8.80742 16.3051 8.62201C16.1197 8.4366 16.0145 8.18579 16.0122 7.92359C16.0099 7.6614 16.1107 7.40879 16.2929 7.22019L18.5859 4.92719L16.2929 2.63419C16.1107 2.44559 16.0099 2.19299 16.0122 1.93079C16.0145 1.66859 16.1197 1.41778 16.3051 1.23237C16.4905 1.04697 16.7413 0.941796 17.0035 0.939518C17.2657 0.937239 17.5183 1.03803 17.7069 1.22019L19.9999 3.51319L22.2929 1.22019C22.4815 1.03803 22.7341 0.937239 22.9963 0.939518C23.2585 0.941796 23.5093 1.04697 23.6947 1.23237C23.8801 1.41778 23.9853 1.66859 23.9876 1.93079C23.9898 2.19299 23.889 2.44559 23.7069 2.63419L21.4139 4.92719L23.7069 7.22019Z" fill="#374957"/>
</g>
<defs>
<clipPath id="clip0_507_2179">
<rect width="24" height="24" fill="white" transform="translate(0 0.92749)"/>
</clipPath>
</defs>
</svg>
