<svg width="24" height="25" viewBox="0 0 24 25" fill="none" xmlns="http://www.w3.org/2000/svg">
<g clip-path="url(#clip0_507_2279)">
<path d="M14 13.9275C14.0016 14.2789 13.9105 14.6246 13.736 14.9297C13.5615 15.2347 13.3097 15.4884 13.0059 15.6652C12.7021 15.8419 12.3571 15.9355 12.0057 15.9365C11.6542 15.9375 11.3087 15.8459 11.004 15.6708C10.6992 15.4958 10.4459 15.2435 10.2697 14.9395C10.0934 14.6354 10.0004 14.2903 10 13.9388C9.99963 13.5874 10.0918 13.242 10.2674 12.9375C10.443 12.6331 10.6956 12.3802 11 12.2045V7.92749C11 7.66227 11.1054 7.40792 11.2929 7.22038C11.4804 7.03285 11.7348 6.92749 12 6.92749C12.2652 6.92749 12.5196 7.03285 12.7071 7.22038C12.8946 7.40792 13 7.66227 13 7.92749V12.2045C13.3031 12.3788 13.5551 12.6297 13.7306 12.9322C13.9061 13.2346 13.999 13.5778 14 13.9275ZM20.06 6.46649C21.517 8.03527 22.4845 9.99515 22.8439 12.1058C23.2033 14.2164 22.9389 16.3861 22.0832 18.3486C21.2275 20.3112 19.8177 21.9814 18.0266 23.1544C16.2355 24.3274 14.141 24.9522 12 24.9522C9.85899 24.9522 7.76451 24.3274 5.97342 23.1544C4.18232 21.9814 2.77248 20.3112 1.91677 18.3486C1.06107 16.3861 0.796696 14.2164 1.15608 12.1058C1.51547 9.99515 2.483 8.03527 3.94001 6.46649L3.26801 5.71949C2.86085 5.86281 2.43161 5.93322 2.00001 5.92749C1.73479 5.92749 1.48044 5.82213 1.2929 5.6346C1.10536 5.44706 1.00001 5.19271 1.00001 4.92749C1.00001 4.66227 1.10536 4.40792 1.2929 4.22038C1.48044 4.03285 1.73479 3.92749 2.00001 3.92749C2.78501 3.92749 3.00001 3.71249 3.00001 2.92749C3.00001 2.66227 3.10536 2.40792 3.2929 2.22038C3.48044 2.03285 3.73479 1.92749 4.00001 1.92749C4.26522 1.92749 4.51958 2.03285 4.70711 2.22038C4.89465 2.40792 5.00001 2.66227 5.00001 2.92749C5.00583 3.41412 4.91048 3.89665 4.72001 4.34449L5.42601 5.12849C7.04811 3.90776 8.97831 3.16325 11 2.97849V1.92749C11 1.66227 11.1054 1.40792 11.2929 1.22038C11.4804 1.03285 11.7348 0.92749 12 0.92749C12.2652 0.92749 12.5196 1.03285 12.7071 1.22038C12.8946 1.40792 13 1.66227 13 1.92749V2.97849C15.0216 3.16296 16.9518 3.90712 18.574 5.12749L19.28 4.34349C19.0897 3.89596 18.9943 3.41378 19 2.92749C19 2.66227 19.1054 2.40792 19.2929 2.22038C19.4804 2.03285 19.7348 1.92749 20 1.92749C20.2652 1.92749 20.5196 2.03285 20.7071 2.22038C20.8946 2.40792 21 2.66227 21 2.92749C21 3.71249 21.215 3.92749 22 3.92749C22.2652 3.92749 22.5196 4.03285 22.7071 4.22038C22.8946 4.40792 23 4.66227 23 4.92749C23 5.19271 22.8946 5.44706 22.7071 5.6346C22.5196 5.82213 22.2652 5.92749 22 5.92749C21.5684 5.93322 21.1392 5.86281 20.732 5.71949L20.06 6.46649ZM21 13.9275C21 12.1475 20.4722 10.4074 19.4832 8.92736C18.4943 7.44732 17.0887 6.29376 15.4442 5.61258C13.7996 4.93139 11.99 4.75316 10.2442 5.10042C8.49836 5.44769 6.89472 6.30486 5.63604 7.56353C4.37737 8.8222 3.52021 10.4258 3.17294 12.1717C2.82567 13.9175 3.0039 15.7271 3.68509 17.3716C4.36628 19.0162 5.51983 20.4218 6.99987 21.4107C8.47992 22.3997 10.22 22.9275 12 22.9275C14.3861 22.9248 16.6738 21.9758 18.361 20.2885C20.0483 18.6013 20.9974 16.3136 21 13.9275Z" fill="#374957"/>
</g>
<defs>
<clipPath id="clip0_507_2279">
<rect width="24" height="24" fill="white" transform="translate(0 0.92749)"/>
</clipPath>
</defs>
</svg>
