<svg width="24" height="25" viewBox="0 0 24 25" fill="none" xmlns="http://www.w3.org/2000/svg">
<g clip-path="url(#clip0_507_2074)">
<path d="M12 0.92749C9.62663 0.92749 7.30655 1.63128 5.33316 2.94986C3.35977 4.26843 1.8217 6.14258 0.913451 8.33529C0.00519943 10.528 -0.232441 12.9408 0.230582 15.2686C0.693605 17.5963 1.83649 19.7345 3.51472 21.4128C5.19295 23.091 7.33115 24.2339 9.65892 24.6969C11.9867 25.1599 14.3995 24.9223 16.5922 24.014C18.7849 23.1058 20.6591 21.5677 21.9776 19.5943C23.2962 17.6209 24 15.3009 24 12.9275C23.9966 9.74595 22.7312 6.6957 20.4815 4.44601C18.2318 2.19632 15.1815 0.930931 12 0.92749V0.92749ZM20.647 7.92749H17.426C16.705 6.25648 15.7556 4.69358 14.605 3.28349C17.1515 3.97642 19.3223 5.64496 20.647 7.92749ZM16.5 12.9275C16.4918 13.9456 16.3314 14.9568 16.024 15.9275H7.97601C7.66866 14.9568 7.50821 13.9456 7.50001 12.9275C7.50821 11.9094 7.66866 10.8982 7.97601 9.92749H16.024C16.3314 10.8982 16.4918 11.9094 16.5 12.9275ZM8.77801 17.9275H15.222C14.3732 19.6032 13.2882 21.1483 12 22.5155C10.7114 21.1487 9.62625 19.6035 8.77801 17.9275ZM8.77801 7.92749C9.62677 6.25176 10.7119 4.70665 12 3.33949C13.2886 4.70626 14.3738 6.25145 15.222 7.92749H8.77801ZM9.40001 3.28349C8.24767 4.69327 7.29659 6.25619 6.57401 7.92749H3.35301C4.67886 5.64392 6.85166 3.97524 9.40001 3.28349ZM2.46101 9.92749H5.90001C5.64076 10.9066 5.50636 11.9146 5.50001 12.9275C5.50636 13.9404 5.64076 14.9483 5.90001 15.9275H2.46101C1.84635 13.9747 1.84635 11.8803 2.46101 9.92749ZM3.35301 17.9275H6.57401C7.29659 19.5988 8.24767 21.1617 9.40001 22.5715C6.85166 21.8797 4.67886 20.2111 3.35301 17.9275ZM14.605 22.5715C15.7556 21.1614 16.705 19.5985 17.426 17.9275H20.647C19.3223 20.21 17.1515 21.8786 14.605 22.5715ZM21.539 15.9275H18.1C18.3592 14.9483 18.4936 13.9404 18.5 12.9275C18.4936 11.9146 18.3592 10.9066 18.1 9.92749H21.537C22.1517 11.8803 22.1517 13.9747 21.537 15.9275H21.539Z" fill="#374957"/>
</g>
<defs>
<clipPath id="clip0_507_2074">
<rect width="24" height="24" fill="white" transform="translate(0 0.92749)"/>
</clipPath>
</defs>
</svg>
