<svg width="24" height="25" viewBox="0 0 24 25" fill="none" xmlns="http://www.w3.org/2000/svg">
<g clip-path="url(#clip0_507_2012)">
<path d="M19.535 4.04954L17.879 2.39154C17.4157 1.92585 16.8646 1.55668 16.2576 1.30538C15.6507 1.05409 14.9999 0.925665 14.343 0.927541H8C6.67441 0.929129 5.40356 1.45642 4.46622 2.39376C3.52888 3.3311 3.00159 4.60195 3 5.92754V19.9275C3.00159 21.2531 3.52888 22.524 4.46622 23.4613C5.40356 24.3987 6.67441 24.926 8 24.9275H16C17.3256 24.926 18.5964 24.3987 19.5338 23.4613C20.4711 22.524 20.9984 21.2531 21 19.9275V7.58454C21.0016 6.92773 20.873 6.27711 20.6215 5.67033C20.37 5.06356 20.0007 4.51267 19.535 4.04954ZM18.121 5.46354C18.2628 5.60486 18.3898 5.76034 18.5 5.92754H16V3.42754C16.1669 3.53886 16.3227 3.66612 16.465 3.80754L18.121 5.46354ZM19 19.9275C19 20.7232 18.6839 21.4863 18.1213 22.0489C17.5587 22.6115 16.7956 22.9275 16 22.9275H8C7.20435 22.9275 6.44129 22.6115 5.87868 22.0489C5.31607 21.4863 5 20.7232 5 19.9275V5.92754C5 5.13189 5.31607 4.36883 5.87868 3.80622C6.44129 3.24361 7.20435 2.92754 8 2.92754H14V5.92754C14 6.45797 14.2107 6.96668 14.5858 7.34176C14.9609 7.71683 15.4696 7.92754 16 7.92754H19V19.9275ZM16 9.92754C16.2652 9.92754 16.5196 10.0329 16.7071 10.2204C16.8946 10.408 17 10.6623 17 10.9275C17 11.1928 16.8946 11.4471 16.7071 11.6346C16.5196 11.8222 16.2652 11.9275 16 11.9275H8C7.73478 11.9275 7.48043 11.8222 7.29289 11.6346C7.10536 11.4471 7 11.1928 7 10.9275C7 10.6623 7.10536 10.408 7.29289 10.2204C7.48043 10.0329 7.73478 9.92754 8 9.92754H16ZM17 14.9275C17 15.1928 16.8946 15.4471 16.7071 15.6346C16.5196 15.8222 16.2652 15.9275 16 15.9275H8C7.73478 15.9275 7.48043 15.8222 7.29289 15.6346C7.10536 15.4471 7 15.1928 7 14.9275C7 14.6623 7.10536 14.408 7.29289 14.2204C7.48043 14.0329 7.73478 13.9275 8 13.9275H16C16.2652 13.9275 16.5196 14.0329 16.7071 14.2204C16.8946 14.408 17 14.6623 17 14.9275ZM16.808 18.3405C16.9634 18.5544 17.0279 18.8211 16.9872 19.0823C16.9466 19.3436 16.8041 19.5781 16.591 19.7345C15.5778 20.4565 14.3778 20.8707 13.135 20.9275C12.4089 20.924 11.7048 20.6776 11.135 20.2275C10.807 20.0025 10.682 19.9275 10.435 19.9275C9.76643 20.031 9.13562 20.3044 8.603 20.7215C8.39175 20.8721 8.13024 20.9347 7.87369 20.8961C7.61715 20.8575 7.38565 20.7207 7.22808 20.5146C7.07052 20.3085 6.99922 20.0492 7.02925 19.7915C7.05927 19.5338 7.18827 19.2979 7.389 19.1335C8.27018 18.4495 9.32828 18.0311 10.439 17.9275C11.1051 17.9382 11.7491 18.1684 12.271 18.5825C12.5089 18.7965 12.8152 18.9188 13.135 18.9275C13.9527 18.8663 14.739 18.5869 15.412 18.1185C15.6266 17.963 15.8942 17.899 16.1559 17.9406C16.4177 17.9822 16.6522 18.1261 16.808 18.3405Z" fill="#374957"/>
</g>
<defs>
<clipPath id="clip0_507_2012">
<rect width="24" height="24" fill="white" transform="translate(0 0.92749)"/>
</clipPath>
</defs>
</svg>
