<svg width="24" height="25" viewBox="0 0 24 25" fill="none" xmlns="http://www.w3.org/2000/svg">
<g clip-path="url(#clip0_507_1976)">
<path d="M23.9998 12.1747C23.8552 9.83471 23.0289 7.5882 21.623 5.71211C20.217 3.83603 18.2928 2.41238 16.0875 1.61668C13.8822 0.820985 11.4923 0.688021 9.21235 1.23418C6.93241 1.78035 4.86213 2.98176 3.25674 4.69031C1.65135 6.39886 0.581027 8.53985 0.177728 10.8493C-0.225571 13.1588 0.0557824 15.5359 0.987102 17.6874C1.91842 19.8389 3.45899 21.6709 5.41889 22.9574C7.37879 24.244 9.67234 24.9289 12.0168 24.9277H18.9998C20.3255 24.9264 21.5965 24.3992 22.5339 23.4618C23.4713 22.5244 23.9985 21.2534 23.9998 19.9277V12.1747ZM21.9998 19.9277C21.9998 20.7233 21.6837 21.4864 21.1211 22.049C20.5585 22.6116 19.7954 22.9277 18.9998 22.9277H12.0168C10.6057 22.9271 9.21063 22.629 7.92248 22.053C6.63434 21.477 5.48206 20.6359 4.54079 19.5847C3.59496 18.534 2.88472 17.2932 2.45768 15.9455C2.03064 14.5978 1.89668 13.1744 2.06479 11.7707C2.33022 9.55663 3.32497 7.49388 4.89223 5.90761C6.45948 4.32135 8.51009 3.3018 10.7208 3.00969C11.152 2.95564 11.5862 2.92825 12.0208 2.92769C14.3513 2.92133 16.6096 3.73559 18.3998 5.22769C19.4453 6.09663 20.3035 7.16884 20.9223 8.37932C21.5411 9.5898 21.9077 10.9133 21.9998 12.2697V19.9277Z" fill="#374957"/>
<path d="M7.99988 9.92733H11.9999C12.2651 9.92733 12.5194 9.82198 12.707 9.63444C12.8945 9.44691 12.9999 9.19255 12.9999 8.92734C12.9999 8.66212 12.8945 8.40777 12.707 8.22023C12.5194 8.03269 12.2651 7.92734 11.9999 7.92734H7.99988C7.73466 7.92734 7.48031 8.03269 7.29277 8.22023C7.10523 8.40777 6.99988 8.66212 6.99988 8.92734C6.99988 9.19255 7.10523 9.44691 7.29277 9.63444C7.48031 9.82198 7.73466 9.92733 7.99988 9.92733Z" fill="#374957"/>
<path d="M15.9999 11.9276H7.99988C7.73466 11.9276 7.48031 12.033 7.29277 12.2205C7.10523 12.4081 6.99988 12.6624 6.99988 12.9276C6.99988 13.1929 7.10523 13.4472 7.29277 13.6348C7.48031 13.8223 7.73466 13.9277 7.99988 13.9277H15.9999C16.2651 13.9277 16.5194 13.8223 16.707 13.6348C16.8945 13.4472 16.9999 13.1929 16.9999 12.9276C16.9999 12.6624 16.8945 12.4081 16.707 12.2205C16.5194 12.033 16.2651 11.9276 15.9999 11.9276Z" fill="#374957"/>
<path d="M15.9999 15.9275H7.99988C7.73466 15.9275 7.48031 16.0328 7.29277 16.2204C7.10523 16.4079 6.99988 16.6623 6.99988 16.9275C6.99988 17.1927 7.10523 17.4471 7.29277 17.6346C7.48031 17.8221 7.73466 17.9275 7.99988 17.9275H15.9999C16.2651 17.9275 16.5194 17.8221 16.707 17.6346C16.8945 17.4471 16.9999 17.1927 16.9999 16.9275C16.9999 16.6623 16.8945 16.4079 16.707 16.2204C16.5194 16.0328 16.2651 15.9275 15.9999 15.9275Z" fill="#374957"/>
</g>
<defs>
<clipPath id="clip0_507_1976">
<rect width="24" height="24" fill="white" transform="translate(0 0.92749)"/>
</clipPath>
</defs>
</svg>
