<svg width="24" height="25" viewBox="0 0 24 25" fill="none" xmlns="http://www.w3.org/2000/svg">
<g clip-path="url(#clip0_507_2295)">
<path d="M13.0001 15.112V8.92798C13.0001 8.66276 12.8948 8.40841 12.7072 8.22087C12.5197 8.03333 12.2653 7.92798 12.0001 7.92798C11.7349 7.92798 11.4806 8.03333 11.293 8.22087C11.1055 8.40841 11.0001 8.66276 11.0001 8.92798V15.112C10.3346 15.3478 9.77381 15.8113 9.41687 16.4205C9.05992 17.0297 8.92978 17.7455 9.04942 18.4414C9.16907 19.1372 9.53081 19.7684 10.0707 20.2235C10.6107 20.6785 11.294 20.928 12.0001 20.928C12.7062 20.928 13.3896 20.6785 13.9295 20.2235C14.4694 19.7684 14.8312 19.1372 14.9508 18.4414C15.0705 17.7455 14.9403 17.0297 14.5834 16.4205C14.2264 15.8113 13.6657 15.3478 13.0001 15.112ZM17.0001 13.039V5.92798C16.7891 -0.681013 7.20913 -0.672013 7.00013 5.92798V13.039C6.03546 14.0235 5.38293 15.271 5.12438 16.6249C4.86582 17.9788 5.01274 19.3789 5.54672 20.6497C6.0807 21.9204 6.97796 23.0053 8.126 23.7681C9.27403 24.531 10.6217 24.9379 12.0001 24.9379C13.3785 24.9379 14.7262 24.531 15.8743 23.7681C17.0223 23.0053 17.9196 21.9204 18.4535 20.6497C18.9875 19.3789 19.1344 17.9788 18.8759 16.6249C18.6173 15.271 17.9648 14.0235 17.0001 13.039ZM12.0001 22.928C10.9937 22.9167 10.0138 22.603 9.18797 22.0276C8.3621 21.4522 7.72835 20.6418 7.36904 19.7016C7.00974 18.7614 6.94148 17.7348 7.17315 16.7553C7.40482 15.7758 7.9257 14.8886 8.66813 14.209C8.77258 14.1152 8.85613 14.0005 8.91333 13.8723C8.97053 13.7441 9.0001 13.6053 9.00013 13.465V5.92798C9.00013 5.13233 9.3162 4.36927 9.87881 3.80666C10.4414 3.24405 11.2045 2.92798 12.0001 2.92798C12.7958 2.92798 13.5588 3.24405 14.1214 3.80666C14.6841 4.36927 15.0001 5.13233 15.0001 5.92798V13.465C15.0001 13.6053 15.0297 13.7441 15.0869 13.8723C15.1441 14.0005 15.2277 14.1152 15.3321 14.209C16.0746 14.8886 16.5954 15.7758 16.8271 16.7553C17.0588 17.7348 16.9905 18.7614 16.6312 19.7016C16.2719 20.6418 15.6381 21.4522 14.8123 22.0276C13.9864 22.603 13.0066 22.9167 12.0001 22.928Z" fill="#374957"/>
</g>
<defs>
<clipPath id="clip0_507_2295">
<rect width="24" height="24" fill="white" transform="translate(0 0.92749)"/>
</clipPath>
</defs>
</svg>
