<svg width="24" height="25" viewBox="0 0 24 25" fill="none" xmlns="http://www.w3.org/2000/svg">
<g clip-path="url(#clip0_507_2089)">
<path d="M22.9999 17.9279C22.7347 17.9279 22.4803 18.0333 22.2928 18.2208C22.1053 18.4083 21.9999 18.6627 21.9999 18.9279V21.5139L19.0059 18.5199C21.1999 16.1779 22.9999 13.4749 22.9999 10.9149C23.0552 9.39781 22.5077 7.92052 21.4771 6.80582C20.4466 5.69112 19.0167 5.02963 17.4999 4.9659C16.5979 4.97764 15.7132 5.21561 14.927 5.65798C14.1408 6.10036 13.4782 6.73299 12.9999 7.4979C12.5217 6.73299 11.8591 6.10036 11.0728 5.65798C10.2866 5.21561 9.40196 4.97764 8.49992 4.9659C7.65186 4.96837 6.81765 5.18105 6.07192 5.5849L1.70692 1.2209C1.51832 1.03874 1.26571 0.937945 1.00352 0.940223C0.741321 0.942502 0.490508 1.04767 0.3051 1.23308C0.119692 1.41849 0.0145233 1.6693 0.0122448 1.9315C0.00996641 2.19369 0.110761 2.4463 0.292919 2.6349L4.49992 6.8429C3.52478 7.97466 2.99199 9.421 2.99992 10.9149C2.99992 14.7059 6.95092 18.8149 10.2649 21.5909C11.0306 22.2352 11.9992 22.5885 12.9999 22.5885C14.0006 22.5885 14.9692 22.2352 15.7349 21.5909C16.3429 21.0809 16.9729 20.5259 17.5959 19.9369L20.5859 22.9279H17.9999C17.7347 22.9279 17.4803 23.0333 17.2928 23.2208C17.1053 23.4083 16.9999 23.6627 16.9999 23.9279C16.9999 24.1931 17.1053 24.4475 17.2928 24.635C17.4803 24.8225 17.7347 24.9279 17.9999 24.9279H21.9999C22.5304 24.9279 23.0391 24.7172 23.4141 24.3421C23.7892 23.967 23.9999 23.4583 23.9999 22.9279V18.9279C23.9999 18.6627 23.8946 18.4083 23.707 18.2208C23.5195 18.0333 23.2651 17.9279 22.9999 17.9279ZM14.4499 20.0599C14.0391 20.3909 13.5275 20.5714 12.9999 20.5714C12.4724 20.5714 11.9607 20.3909 11.5499 20.0599C7.38692 16.5709 4.99992 13.2379 4.99992 10.9149C4.94512 9.92825 5.28208 8.95987 5.93751 8.22036C6.59294 7.48085 7.51384 7.03001 8.49992 6.9659C9.486 7.03001 10.4069 7.48085 11.0623 8.22036C11.7178 8.95987 12.0547 9.92825 11.9999 10.9149C11.9999 11.1801 12.1053 11.4345 12.2928 11.622C12.4804 11.8095 12.7347 11.9149 12.9999 11.9149C13.2651 11.9149 13.5195 11.8095 13.707 11.622C13.8946 11.4345 13.9999 11.1801 13.9999 10.9149C13.9451 9.92825 14.2821 8.95987 14.9375 8.22036C15.5929 7.48085 16.5138 7.03001 17.4999 6.9659C18.486 7.03001 19.4069 7.48085 20.0623 8.22036C20.7178 8.95987 21.0547 9.92825 20.9999 10.9149C20.9999 13.2369 18.6119 16.5699 14.4499 20.0599Z" fill="#374957"/>
</g>
<defs>
<clipPath id="clip0_507_2089">
<rect width="24" height="24" fill="white" transform="translate(0 0.92749)"/>
</clipPath>
</defs>
</svg>
