<svg width="24" height="25" viewBox="0 0 24 25" fill="none" xmlns="http://www.w3.org/2000/svg">
<g clip-path="url(#clip0_507_2343)">
<path d="M19.9999 8.92679C20.0011 7.38695 19.5579 5.87947 18.7234 4.58532C17.889 3.29117 16.6988 2.26534 15.2957 1.63097C13.8926 0.996592 12.3362 0.780634 10.8134 1.00901C9.29055 1.23739 7.866 1.90041 6.71072 2.91847C5.55544 3.93653 4.71852 5.26637 4.30042 6.74837C3.88232 8.23037 3.90081 9.80154 4.35367 11.2733C4.80653 12.745 5.67451 14.0548 6.85343 15.0454C8.03235 16.036 9.47211 16.6653 10.9999 16.8578V19.9268H8.99988C8.73466 19.9268 8.48031 20.0321 8.29277 20.2197C8.10523 20.4072 7.99988 20.6616 7.99988 20.9268C7.99988 21.192 8.10523 21.4464 8.29277 21.6339C8.48031 21.8214 8.73466 21.9268 8.99988 21.9268H10.9999V23.9268C10.9999 24.192 11.1052 24.4464 11.2928 24.6339C11.4803 24.8214 11.7347 24.9268 11.9999 24.9268C12.2651 24.9268 12.5194 24.8214 12.707 24.6339C12.8945 24.4464 12.9999 24.192 12.9999 23.9268V21.9268H14.9999C15.2651 21.9268 15.5194 21.8214 15.707 21.6339C15.8945 21.4464 15.9999 21.192 15.9999 20.9268C15.9999 20.6616 15.8945 20.4072 15.707 20.2197C15.5194 20.0321 15.2651 19.9268 14.9999 19.9268H12.9999V16.8578C14.9314 16.6127 16.7074 15.6724 17.9958 14.2126C19.2842 12.7529 19.9966 10.8738 19.9999 8.92679ZM5.99988 8.92679C5.99988 7.7401 6.35177 6.58007 7.01106 5.59337C7.67035 4.60667 8.60742 3.83764 9.70377 3.38351C10.8001 2.92939 12.0065 2.81057 13.1704 3.04208C14.3343 3.27359 15.4034 3.84504 16.2425 4.68415C17.0816 5.52327 17.6531 6.59236 17.8846 7.75625C18.1161 8.92014 17.9973 10.1265 17.5432 11.2229C17.089 12.3192 16.32 13.2563 15.3333 13.9156C14.3466 14.5749 13.1866 14.9268 11.9999 14.9268C10.4091 14.9252 8.88386 14.2926 7.75899 13.1677C6.63411 12.0428 6.00146 10.5176 5.99988 8.92679Z" fill="#374957"/>
</g>
<defs>
<clipPath id="clip0_507_2343">
<rect width="24" height="24" fill="white" transform="translate(0 0.92749)"/>
</clipPath>
</defs>
</svg>
