<svg width="24" height="25" viewBox="0 0 24 25" fill="none" xmlns="http://www.w3.org/2000/svg">
<g clip-path="url(#clip0_507_2020)">
<path d="M19.0001 0.92749H14.0001C13.7349 0.92749 13.4805 1.03285 13.293 1.22038C13.1054 1.40792 13.0001 1.66227 13.0001 1.92749C13.0001 2.19271 13.1054 2.44706 13.293 2.6346C13.4805 2.82213 13.7349 2.92749 14.0001 2.92749H19.0001C19.4456 2.92922 19.8849 3.03178 20.2851 3.22749L0.293081 23.2205C0.197571 23.3127 0.121389 23.4231 0.0689798 23.5451C0.0165708 23.6671 -0.0110155 23.7983 -0.0121693 23.9311C-0.0133231 24.0639 0.0119786 24.1955 0.0622595 24.3184C0.11254 24.4413 0.186794 24.553 0.280686 24.6469C0.374579 24.7408 0.486231 24.815 0.609127 24.8653C0.732024 24.9156 0.863703 24.9409 0.996482 24.9397C1.12926 24.9386 1.26048 24.911 1.38249 24.8586C1.50449 24.8062 1.61483 24.73 1.70708 24.6345L21.7001 4.64249C21.8958 5.04269 21.9984 5.482 22.0001 5.92749V10.9275C22.0001 11.1927 22.1054 11.4471 22.293 11.6346C22.4805 11.8221 22.7349 11.9275 23.0001 11.9275C23.2653 11.9275 23.5197 11.8221 23.7072 11.6346C23.8947 11.4471 24.0001 11.1927 24.0001 10.9275V5.92749C23.9985 4.6019 23.4712 3.33105 22.5339 2.39371C21.5965 1.45637 20.3257 0.929078 19.0001 0.92749V0.92749Z" fill="#374957"/>
<path d="M5.99988 10.9276C6.791 10.9276 7.56436 10.693 8.22216 10.2535C8.87996 9.81397 9.39265 9.18925 9.6954 8.45835C9.99815 7.72744 10.0774 6.92318 9.92302 6.14725C9.76868 5.37133 9.38772 4.6586 8.82831 4.09919C8.2689 3.53978 7.55616 3.15881 6.78024 3.00447C6.00431 2.85013 5.20005 2.92935 4.46914 3.2321C3.73824 3.53485 3.11353 4.04754 2.674 4.70533C2.23447 5.36313 1.99988 6.13649 1.99988 6.92761C1.99988 7.98848 2.42131 9.0059 3.17145 9.75604C3.9216 10.5062 4.93901 10.9276 5.99988 10.9276ZM5.99988 4.92761C6.39544 4.92761 6.78212 5.04491 7.11102 5.26467C7.43992 5.48444 7.69626 5.79679 7.84764 6.16225C7.99901 6.5277 8.03862 6.92983 7.96145 7.31779C7.88428 7.70576 7.6938 8.06212 7.41409 8.34183C7.13439 8.62153 6.77802 8.81201 6.39006 8.88918C6.0021 8.96636 5.59996 8.92675 5.23451 8.77537C4.86906 8.624 4.5567 8.36765 4.33694 8.03875C4.11718 7.70986 3.99988 7.32318 3.99988 6.92761C3.99988 6.39718 4.21059 5.88847 4.58566 5.5134C4.96074 5.13833 5.46944 4.92761 5.99988 4.92761Z" fill="#374957"/>
<path d="M18.0001 14.9276C17.209 14.9276 16.4356 15.1622 15.7778 15.6018C15.12 16.0413 14.6074 16.666 14.3046 17.3969C14.0019 18.1278 13.9226 18.9321 14.077 19.708C14.2313 20.4839 14.6123 21.1967 15.1717 21.7561C15.7311 22.3155 16.4438 22.6964 17.2198 22.8508C17.9957 23.0051 18.8 22.9259 19.5309 22.6232C20.2618 22.3204 20.8865 21.8077 21.326 21.1499C21.7655 20.4921 22.0001 19.7188 22.0001 18.9276C22.0001 17.8668 21.5787 16.8494 20.8286 16.0992C20.0784 15.3491 19.061 14.9276 18.0001 14.9276ZM18.0001 20.9276C17.6046 20.9276 17.2179 20.8103 16.889 20.5906C16.5601 20.3708 16.3037 20.0585 16.1524 19.693C16.001 19.3276 15.9614 18.9254 16.0386 18.5375C16.1157 18.1495 16.3062 17.7931 16.5859 17.5134C16.8656 17.2337 17.222 17.0432 17.6099 16.9661C17.9979 16.8889 18.4 16.9285 18.7655 17.0799C19.1309 17.2313 19.4433 17.4876 19.6631 17.8165C19.8828 18.1454 20.0001 18.5321 20.0001 18.9276C20.0001 19.4581 19.7894 19.9668 19.4143 20.3419C19.0393 20.7169 18.5306 20.9276 18.0001 20.9276Z" fill="#374957"/>
</g>
<defs>
<clipPath id="clip0_507_2020">
<rect width="24" height="24" fill="white" transform="translate(0 0.92749)"/>
</clipPath>
</defs>
</svg>
