<svg width="24" height="25" viewBox="0 0 24 25" fill="none" xmlns="http://www.w3.org/2000/svg">
<g clip-path="url(#clip0_507_2122)">
<path d="M13.845 18.1944L10.583 21.4564C9.63594 22.3782 8.36403 22.89 7.04247 22.8812C5.72091 22.8723 4.45597 22.3435 3.52133 21.4091C2.58669 20.4747 2.05751 19.2099 2.04829 17.8884C2.03906 16.5668 2.55052 15.2948 3.47202 14.3474L6.73402 11.0824C6.92153 10.8948 7.02682 10.6404 7.02672 10.3751C7.02663 10.1098 6.92116 9.85545 6.73352 9.66795C6.54588 9.48044 6.29144 9.37515 6.02617 9.37524C5.7609 9.37534 5.50653 9.48081 5.31902 9.66845L2.05802 12.9334C0.740293 14.2518 0.00026379 16.0397 0.000732645 17.9037C0.0012015 19.7677 0.74213 21.5552 2.06052 22.8729C3.37891 24.1906 5.16677 24.9307 7.03079 24.9302C8.89481 24.9297 10.6823 24.1888 12 22.8704L15.262 19.6084C15.4442 19.4198 15.545 19.1672 15.5427 18.905C15.5404 18.6428 15.4352 18.392 15.2498 18.2066C15.0644 18.0212 14.8136 17.916 14.5514 17.9138C14.2892 17.9115 14.0366 18.0123 13.848 18.1944H13.845Z" fill="#374957"/>
<path d="M21.9441 2.98891C21.2934 2.33373 20.5191 1.81419 19.6662 1.46041C18.8132 1.10663 17.8985 0.925631 16.9751 0.927912C16.0522 0.92546 15.1379 1.10599 14.2852 1.45906C13.4324 1.81214 12.6582 2.33075 12.0071 2.98491L8.7401 6.24791C8.55246 6.43542 8.44699 6.68979 8.4469 6.95506C8.44681 7.22033 8.55209 7.47477 8.7396 7.66241C8.92711 7.85005 9.18148 7.95552 9.44675 7.95562C9.71202 7.95571 9.96646 7.85042 10.1541 7.66291L13.4191 4.40091C13.8847 3.93256 14.4385 3.56121 15.0485 3.30837C15.6586 3.05553 16.3127 2.92621 16.9731 2.92791C17.9674 2.92824 18.9392 3.22334 19.7658 3.77591C20.5924 4.32848 21.2366 5.11371 21.6169 6.03233C21.9973 6.95096 22.0968 7.96173 21.9028 8.93689C21.7088 9.91204 21.2301 10.8078 20.5271 11.5109L17.2651 14.7729C17.0775 14.9606 16.972 15.215 16.972 15.4804C16.972 15.7458 17.0775 16.0003 17.2651 16.1879C17.4527 16.3756 17.7072 16.481 17.9726 16.481C18.238 16.481 18.4925 16.3756 18.6801 16.1879L21.9421 12.9279C23.2581 11.609 23.9974 9.82202 23.9978 7.95883C23.9982 6.09564 23.2596 4.30835 21.9441 2.98891Z" fill="#374957"/>
<path d="M14.2932 9.22059L8.2932 15.2206C8.19769 15.3128 8.12151 15.4232 8.0691 15.5452C8.01669 15.6672 7.98911 15.7984 7.98795 15.9312C7.9868 16.064 8.0121 16.1956 8.06238 16.3185C8.11266 16.4414 8.18692 16.5531 8.28081 16.647C8.3747 16.7409 8.48635 16.8151 8.60925 16.8654C8.73215 16.9157 8.86382 16.941 8.9966 16.9398C9.12938 16.9387 9.2606 16.9111 9.38261 16.8587C9.50461 16.8063 9.61496 16.7301 9.7072 16.6346L15.7072 10.6346C15.8894 10.446 15.9902 10.1934 15.9879 9.93119C15.9856 9.66899 15.8804 9.41818 15.695 9.23277C15.5096 9.04737 15.2588 8.9422 14.9966 8.93992C14.7344 8.93764 14.4818 9.03843 14.2932 9.22059Z" fill="#374957"/>
</g>
<defs>
<clipPath id="clip0_507_2122">
<rect width="24" height="24" fill="white" transform="translate(0 0.92749)"/>
</clipPath>
</defs>
</svg>
