<svg width="24" height="25" viewBox="0 0 24 25" fill="none" xmlns="http://www.w3.org/2000/svg">
<g clip-path="url(#clip0_507_1960)">
<path d="M22.95 10.5273C22.7625 10.3398 22.5082 10.2345 22.243 10.2345C21.9779 10.2345 21.7236 10.3398 21.536 10.5273L10.644 21.4663C10.1797 21.9306 9.62853 22.299 9.02188 22.5503C8.41524 22.8017 7.76503 22.931 7.10838 22.9311C5.78221 22.9312 4.51033 22.4045 3.57252 21.4668C2.63472 20.5291 2.10781 19.2573 2.10772 17.9311C2.10762 16.605 2.63435 15.3331 3.57202 14.3953L14.121 3.80328C14.6851 3.24817 15.4457 2.93845 16.2371 2.94158C17.0285 2.94471 17.7866 3.26043 18.3463 3.81998C18.906 4.37954 19.2219 5.13758 19.2252 5.92899C19.2285 6.7204 18.919 7.48106 18.364 8.04528L7.81502 18.6373C7.62477 18.8195 7.37149 18.9213 7.10802 18.9213C6.84456 18.9213 6.59127 18.8195 6.40102 18.6373C6.21355 18.4497 6.10824 18.1954 6.10824 17.9303C6.10824 17.6651 6.21355 17.4108 6.40102 17.2233L15.793 7.78828C15.9752 7.59968 16.076 7.34707 16.0737 7.08488C16.0714 6.82268 15.9662 6.57187 15.7808 6.38646C15.5954 6.20105 15.3446 6.09588 15.0824 6.09361C14.8202 6.09133 14.5676 6.19212 14.379 6.37428L4.98702 15.8093C4.70839 16.0879 4.48737 16.4186 4.33657 16.7826C4.18578 17.1466 4.10816 17.5368 4.10816 17.9308C4.10816 18.3248 4.18578 18.7149 4.33657 19.0789C4.48737 19.443 4.70839 19.7737 4.98702 20.0523C5.55864 20.5978 6.3184 20.9021 7.10852 20.9021C7.89864 20.9021 8.6584 20.5978 9.23002 20.0523L19.778 9.45928C20.696 8.51758 21.206 7.25213 21.1976 5.93705C21.1892 4.62197 20.663 3.36316 19.733 2.4333C18.803 1.50345 17.5441 0.977424 16.229 0.969184C14.914 0.960944 13.6486 1.47115 12.707 2.38928L2.15802 12.9813C0.845201 14.2941 0.107666 16.0747 0.107666 17.9313C0.107666 19.7879 0.845201 21.5685 2.15802 22.8813C3.47084 24.1941 5.25141 24.9316 7.10802 24.9316C8.96463 24.9316 10.7452 24.1941 12.058 22.8813L22.95 11.9453C23.0435 11.8524 23.1176 11.7419 23.1682 11.6202C23.2188 11.4985 23.2448 11.3681 23.2448 11.2363C23.2448 11.1045 23.2188 10.974 23.1682 10.8524C23.1176 10.7307 23.0435 10.6202 22.95 10.5273Z" fill="#374957"/>
</g>
<defs>
<clipPath id="clip0_507_1960">
<rect width="24" height="24" fill="white" transform="translate(0 0.92749)"/>
</clipPath>
</defs>
</svg>
