<svg width="24" height="25" viewBox="0 0 24 25" fill="none" xmlns="http://www.w3.org/2000/svg">
<path d="M6.41005 9.92749H17.5901C17.7878 9.92832 17.9809 9.98777 18.1449 10.0983C18.3089 10.2089 18.4364 10.3656 18.5113 10.5486C18.5862 10.7317 18.6052 10.9328 18.5658 11.1266C18.5264 11.3204 18.4305 11.4982 18.2901 11.6375L12.7101 17.2175C12.6171 17.3112 12.5065 17.3856 12.3846 17.4364C12.2628 17.4871 12.1321 17.5133 12.0001 17.5133C11.868 17.5133 11.7373 17.4871 11.6155 17.4364C11.4936 17.3856 11.383 17.3112 11.2901 17.2175L5.71005 11.6375C5.56963 11.4982 5.47366 11.3204 5.43428 11.1266C5.39489 10.9328 5.41386 10.7317 5.48879 10.5486C5.56371 10.3656 5.69123 10.2089 5.85521 10.0983C6.01919 9.98777 6.21228 9.92832 6.41005 9.92749Z" fill="#374957"/>
</svg>
