<svg width="24" height="25" viewBox="0 0 24 25" fill="none" xmlns="http://www.w3.org/2000/svg">
<g clip-path="url(#clip0_507_1950)">
<path d="M21.7359 17.3275C21.4001 16.3374 20.7628 15.4772 19.9135 14.8675C19.0642 14.2578 18.0454 13.9291 16.9999 13.9275H12.9999V12.8435C14.4833 12.5928 15.8184 11.7939 16.7406 10.6052C17.6627 9.41657 18.1047 7.92484 17.9789 6.42567C17.8531 4.9265 17.1687 3.5293 16.0613 2.51095C14.9539 1.4926 13.5044 0.927429 11.9999 0.927429C10.4955 0.927429 9.04594 1.4926 7.93855 2.51095C6.83116 3.5293 6.14675 4.9265 6.02094 6.42567C5.89513 7.92484 6.3371 9.41657 7.25927 10.6052C8.18145 11.7939 9.51652 12.5928 10.9999 12.8435V13.9275H6.99992C5.95441 13.9291 4.93561 14.2578 4.0863 14.8675C3.23699 15.4772 2.59976 16.3374 2.26392 17.3275C1.40601 17.7414 0.723959 18.4478 0.340465 19.3197C-0.0430283 20.1917 -0.102788 21.1718 0.171936 22.0839C0.446661 22.9959 1.03784 23.78 1.83911 24.295C2.64038 24.8101 3.59914 25.0222 4.54291 24.8934C5.48669 24.7646 6.35351 24.3032 6.98744 23.5923C7.62138 22.8814 7.9808 21.9675 8.00105 21.0152C8.0213 20.0629 7.70106 19.1346 7.09792 18.3974C6.49479 17.6602 5.64836 17.1623 4.71092 16.9935C4.99205 16.6601 5.34248 16.3921 5.7378 16.208C6.13312 16.0239 6.56383 15.9281 6.99992 15.9275H10.9999V17.0545C10.0573 17.2979 9.23573 17.8767 8.68932 18.6825C8.1429 19.4883 7.90913 20.4657 8.0318 21.4315C8.15447 22.3973 8.62518 23.2852 9.35569 23.9288C10.0862 24.5724 11.0263 24.9275 11.9999 24.9275C12.9735 24.9275 13.9136 24.5724 14.6442 23.9288C15.3747 23.2852 15.8454 22.3973 15.968 21.4315C16.0907 20.4657 15.8569 19.4883 15.3105 18.6825C14.7641 17.8767 13.9426 17.2979 12.9999 17.0545V15.9275H16.9999C17.4358 15.9278 17.8663 16.023 18.2616 16.2066C18.6569 16.3902 19.0075 16.6577 19.2889 16.9905C18.3515 17.1593 17.505 17.6572 16.9019 18.3944C16.2988 19.1316 15.9785 20.0599 15.9988 21.0122C16.019 21.9645 16.3785 22.8784 17.0124 23.5893C17.6463 24.3002 18.5132 24.7616 19.4569 24.8904C20.4007 25.0192 21.3595 24.8071 22.1607 24.292C22.962 23.777 23.5532 22.9929 23.8279 22.0809C24.1026 21.1688 24.0429 20.1887 23.6594 19.3167C23.2759 18.4448 22.5938 17.7384 21.7359 17.3245V17.3275ZM7.99992 6.92751C7.99992 6.13638 8.23452 5.36302 8.67404 4.70523C9.11357 4.04743 9.73828 3.53474 10.4692 3.23199C11.2001 2.92924 12.0044 2.85003 12.7803 3.00437C13.5562 3.15871 14.2689 3.53967 14.8283 4.09908C15.3878 4.65849 15.7687 5.37122 15.9231 6.14715C16.0774 6.92307 15.9982 7.72734 15.6954 8.45824C15.3927 9.18915 14.88 9.81386 14.2222 10.2534C13.5644 10.6929 12.791 10.9275 11.9999 10.9275C10.9391 10.9275 9.92164 10.5061 9.17149 9.75594C8.42135 9.00579 7.99992 7.98837 7.99992 6.92751ZM5.99992 20.9275C5.99992 21.3231 5.88262 21.7098 5.66286 22.0387C5.4431 22.3675 5.13074 22.6239 4.76529 22.7753C4.39983 22.9266 3.9977 22.9663 3.60974 22.8891C3.22178 22.8119 2.86541 22.6214 2.58571 22.3417C2.306 22.062 2.11552 21.7057 2.03835 21.3177C1.96118 20.9297 2.00078 20.5276 2.15216 20.1621C2.30353 19.7967 2.55988 19.4843 2.88878 19.2646C3.21768 19.0448 3.60436 18.9275 3.99992 18.9275C4.53035 18.9275 5.03906 19.1382 5.41413 19.5133C5.78921 19.8884 5.99992 20.3971 5.99992 20.9275ZM13.9999 20.9275C13.9999 21.3231 13.8826 21.7098 13.6629 22.0387C13.4431 22.3675 13.1307 22.6239 12.7653 22.7753C12.3998 22.9266 11.9977 22.9663 11.6097 22.8891C11.2218 22.8119 10.8654 22.6214 10.5857 22.3417C10.306 22.062 10.1155 21.7057 10.0383 21.3177C9.96118 20.9297 10.0008 20.5276 10.1522 20.1621C10.3035 19.7967 10.5599 19.4843 10.8888 19.2646C11.2177 19.0448 11.6044 18.9275 11.9999 18.9275C12.5304 18.9275 13.0391 19.1382 13.4141 19.5133C13.7892 19.8884 13.9999 20.3971 13.9999 20.9275ZM19.9999 22.9275C19.6044 22.9275 19.2177 22.8102 18.8888 22.5904C18.5599 22.3707 18.3035 22.0583 18.1522 21.6929C18.0008 21.3274 17.9612 20.9253 18.0383 20.5373C18.1155 20.1494 18.306 19.793 18.5857 19.5133C18.8654 19.2336 19.2218 19.0431 19.6097 18.9659C19.9977 18.8888 20.3998 18.9284 20.7653 19.0798C21.1307 19.2311 21.4431 19.4875 21.6629 19.8164C21.8826 20.1453 21.9999 20.5319 21.9999 20.9275C21.9999 21.4579 21.7892 21.9667 21.4141 22.3417C21.0391 22.7168 20.5304 22.9275 19.9999 22.9275Z" fill="#374957"/>
</g>
<defs>
<clipPath id="clip0_507_1950">
<rect width="24" height="24" fill="white" transform="translate(0 0.92749)"/>
</clipPath>
</defs>
</svg>
