<svg width="24" height="25" viewBox="0 0 24 25" fill="none" xmlns="http://www.w3.org/2000/svg">
<g clip-path="url(#clip0_507_1925)">
<path d="M17.9942 3.21356C16.7736 2.1231 15.2787 1.38615 13.6705 1.08199C12.0623 0.777841 10.4015 0.918012 8.86703 1.48742C7.33253 2.05683 5.98235 3.03392 4.9618 4.31353C3.94126 5.59315 3.28898 7.12684 3.07517 8.74956C2.88315 10.1724 3.03672 11.6206 3.52289 12.9715C4.00906 14.3224 4.81351 15.5364 5.86817 16.5106C6.52037 17.0825 7.04665 17.7837 7.41366 18.5697C7.78066 19.3557 7.98038 20.2093 8.00017 21.0766V21.2376C8.00123 22.2159 8.39034 23.1538 9.08212 23.8456C9.7739 24.5374 10.7118 24.9265 11.6902 24.9276H12.3102C13.2885 24.9265 14.2264 24.5374 14.9182 23.8456C15.61 23.1538 15.9991 22.2159 16.0002 21.2376V20.6886C16.0151 19.922 16.1955 19.1678 16.529 18.4774C16.8624 17.787 17.3411 17.1768 17.9322 16.6886C18.8908 15.849 19.66 14.8153 20.189 13.656C20.7179 12.4967 20.9945 11.2383 21.0003 9.96403C21.0062 8.68978 20.7412 7.42883 20.223 6.26472C19.7047 5.1006 18.945 4.0599 17.9942 3.21156V3.21356ZM12.3102 22.9276H11.6902C11.2421 22.927 10.8126 22.7488 10.4957 22.432C10.1789 22.1152 10.0007 21.6856 10.0002 21.2376C10.0002 21.2376 9.99317 20.9776 9.99217 20.9276H14.0002V21.2376C13.9996 21.6856 13.8214 22.1152 13.5046 22.432C13.1878 22.7488 12.7582 22.927 12.3102 22.9276ZM16.6102 15.1866C15.4716 16.1741 14.6493 17.4753 14.2462 18.9276H13.0002V11.7436C13.5831 11.5375 14.0881 11.1563 14.4461 10.6523C14.8041 10.1482 14.9976 9.54582 15.0002 8.92756C15.0002 8.66235 14.8948 8.40799 14.7073 8.22046C14.5197 8.03292 14.2654 7.92756 14.0002 7.92756C13.735 7.92756 13.4806 8.03292 13.2931 8.22046C13.1055 8.40799 13.0002 8.66235 13.0002 8.92756C13.0002 9.19278 12.8948 9.44713 12.7073 9.63467C12.5197 9.8222 12.2654 9.92756 12.0002 9.92756C11.735 9.92756 11.4806 9.8222 11.2931 9.63467C11.1055 9.44713 11.0002 9.19278 11.0002 8.92756C11.0002 8.66235 10.8948 8.40799 10.7073 8.22046C10.5197 8.03292 10.2654 7.92756 10.0002 7.92756C9.73496 7.92756 9.4806 8.03292 9.29307 8.22046C9.10553 8.40799 9.00017 8.66235 9.00017 8.92756C9.00274 9.54582 9.19626 10.1482 9.55426 10.6523C9.91226 11.1563 10.4173 11.5375 11.0002 11.7436V18.9276H9.67817C9.22716 17.4368 8.38129 16.0957 7.23017 15.0466C6.25313 14.1362 5.5569 12.9653 5.22364 11.672C4.89039 10.3788 4.93402 9.01728 5.34938 7.74806C5.76475 6.47883 6.53451 5.35491 7.56784 4.50892C8.60117 3.66294 9.85493 3.1302 11.1812 2.97356C11.4561 2.94287 11.7325 2.92751 12.0092 2.92756C13.7267 2.92246 15.3848 3.55619 16.6612 4.70556C17.4009 5.36516 17.9919 6.17445 18.3951 7.07979C18.7983 7.98512 19.0045 8.96583 19 9.95688C18.9954 10.9479 18.7803 11.9267 18.3688 12.8283C17.9573 13.7299 17.3589 14.5338 16.6132 15.1866H16.6102Z" fill="#374957"/>
</g>
<defs>
<clipPath id="clip0_507_1925">
<rect width="24" height="24" fill="white" transform="translate(0 0.92749)"/>
</clipPath>
</defs>
</svg>
