<svg width="24" height="25" viewBox="0 0 24 25" fill="none" xmlns="http://www.w3.org/2000/svg">
<g clip-path="url(#clip0_507_2280)">
<path d="M19 22.9281H5C3.67441 22.9265 2.40356 22.3992 1.46622 21.4619C0.528882 20.5245 0.00158786 19.2537 0 17.9281L0 7.9281C0.00158786 6.60251 0.528882 5.33166 1.46622 4.39432C2.40356 3.45698 3.67441 2.92969 5 2.9281H19C20.3256 2.92969 21.5964 3.45698 22.5338 4.39432C23.4711 5.33166 23.9984 6.60251 24 7.9281V17.9281C23.9984 19.2537 23.4711 20.5245 22.5338 21.4619C21.5964 22.3992 20.3256 22.9265 19 22.9281ZM5 4.9281C4.20435 4.9281 3.44129 5.24417 2.87868 5.80678C2.31607 6.36939 2 7.13245 2 7.9281V17.9281C2 18.7238 2.31607 19.4868 2.87868 20.0494C3.44129 20.612 4.20435 20.9281 5 20.9281H19C19.7956 20.9281 20.5587 20.612 21.1213 20.0494C21.6839 19.4868 22 18.7238 22 17.9281V7.9281C22 7.13245 21.6839 6.36939 21.1213 5.80678C20.5587 5.24417 19.7956 4.9281 19 4.9281H5Z" fill="#374957"/>
<path d="M18.9999 13.9281H10.9999C10.7347 13.9281 10.4803 13.8228 10.2928 13.6352C10.1052 13.4477 9.99988 13.1933 9.99988 12.9281C9.99988 12.6629 10.1052 12.4085 10.2928 12.221C10.4803 12.0335 10.7347 11.9281 10.9999 11.9281H18.9999C19.2651 11.9281 19.5194 12.0335 19.707 12.221C19.8945 12.4085 19.9999 12.6629 19.9999 12.9281C19.9999 13.1933 19.8945 13.4477 19.707 13.6352C19.5194 13.8228 19.2651 13.9281 18.9999 13.9281Z" fill="#374957"/>
<path d="M7.00012 13.9281H5.00012C4.7349 13.9281 4.48055 13.8228 4.29301 13.6352C4.10548 13.4477 4.00012 13.1933 4.00012 12.9281C4.00012 12.6629 4.10548 12.4085 4.29301 12.221C4.48055 12.0335 4.7349 11.9281 5.00012 11.9281H7.00012C7.26533 11.9281 7.51969 12.0335 7.70722 12.221C7.89476 12.4085 8.00011 12.6629 8.00011 12.9281C8.00011 13.1933 7.89476 13.4477 7.70722 13.6352C7.51969 13.8228 7.26533 13.9281 7.00012 13.9281Z" fill="#374957"/>
<path d="M13.0001 18.9269H5.00012C4.73491 18.9269 4.48055 18.8215 4.29302 18.634C4.10548 18.4465 4.00012 18.1921 4.00012 17.9269C4.00012 17.6617 4.10548 17.4073 4.29302 17.2198C4.48055 17.0322 4.73491 16.9269 5.00012 16.9269H13.0001C13.2653 16.9269 13.5197 17.0322 13.7072 17.2198C13.8948 17.4073 14.0001 17.6617 14.0001 17.9269C14.0001 18.1921 13.8948 18.4465 13.7072 18.634C13.5197 18.8215 13.2653 18.9269 13.0001 18.9269Z" fill="#374957"/>
<path d="M18.9999 18.9269H16.9999C16.7347 18.9269 16.4803 18.8215 16.2928 18.634C16.1052 18.4465 15.9999 18.1921 15.9999 17.9269C15.9999 17.6617 16.1052 17.4073 16.2928 17.2198C16.4803 17.0322 16.7347 16.9269 16.9999 16.9269H18.9999C19.2651 16.9269 19.5194 17.0322 19.707 17.2198C19.8945 17.4073 19.9999 17.6617 19.9999 17.9269C19.9999 18.1921 19.8945 18.4465 19.707 18.634C19.5194 18.8215 19.2651 18.9269 18.9999 18.9269Z" fill="#374957"/>
</g>
<defs>
<clipPath id="clip0_507_2280">
<rect width="24" height="24" fill="white" transform="translate(0 0.92749)"/>
</clipPath>
</defs>
</svg>
