<svg width="24" height="25" viewBox="0 0 24 25" fill="none" xmlns="http://www.w3.org/2000/svg">
<g clip-path="url(#clip0_507_2075)">
<path d="M12 10.9271C10.6514 10.9266 9.30605 11.0606 7.984 11.3271L7.978 9.04205L12.987 6.96605C13.2921 6.81102 13.5523 6.58029 13.7428 6.29593C13.9332 6.01157 14.0475 5.6831 14.0747 5.34195C14.1019 5.00079 14.041 4.65837 13.8981 4.34744C13.7551 4.0365 13.5347 3.76746 13.258 3.56605C13.2263 3.54204 13.1928 3.52032 13.158 3.50105L8.9 1.13905C8.59494 0.985331 8.25558 0.912308 7.91429 0.926947C7.573 0.941587 7.24114 1.0434 6.95036 1.22268C6.65958 1.40196 6.41957 1.65273 6.2532 1.95109C6.08684 2.24945 5.99967 2.58545 6 2.92705V11.8411C2.391 13.0361 0 15.2871 0 17.9271C0 21.8521 5.271 24.9271 12 24.9271C18.729 24.9271 24 21.8521 24 17.9271C24 14.0021 18.729 10.9271 12 10.9271ZM12.073 5.18205L7.973 6.88205L7.963 2.91105L12.073 5.18205ZM12 22.9271C6.58 22.9271 2 20.6371 2 17.9271C2 16.3331 3.591 14.8881 6 13.9651V17.9271C6 18.1923 6.10536 18.4466 6.29289 18.6342C6.48043 18.8217 6.73478 18.9271 7 18.9271C7.26522 18.9271 7.51957 18.8217 7.70711 18.6342C7.89464 18.4466 8 18.1923 8 17.9271L7.989 13.3671C9.30562 13.0725 10.6508 12.925 12 12.9271C17.42 12.9271 22 15.2171 22 17.9271C22 20.6371 17.42 22.9271 12 22.9271ZM17 17.9271C17 18.3226 16.8827 18.7093 16.6629 19.0382C16.4432 19.3671 16.1308 19.6234 15.7654 19.7748C15.3999 19.9262 14.9978 19.9658 14.6098 19.8886C14.2219 19.8115 13.8655 19.621 13.5858 19.3413C13.3061 19.0616 13.1156 18.7052 13.0384 18.3172C12.9613 17.9293 13.0009 17.5271 13.1522 17.1617C13.3036 16.7962 13.56 16.4839 13.8889 16.2641C14.2178 16.0444 14.6044 15.9271 15 15.9271C15.5304 15.9271 16.0391 16.1378 16.4142 16.5128C16.7893 16.8879 17 17.3966 17 17.9271Z" fill="#374957"/>
</g>
<defs>
<clipPath id="clip0_507_2075">
<rect width="24" height="24" fill="white" transform="translate(0 0.92749)"/>
</clipPath>
</defs>
</svg>
