<svg width="24" height="25" viewBox="0 0 24 25" fill="none" xmlns="http://www.w3.org/2000/svg">
<g clip-path="url(#clip0_507_2226)">
<path d="M23.1939 12.5277C22.6625 11.8182 21.9076 11.3084 21.0509 11.0807C21.4684 9.86691 21.777 8.61831 21.9729 7.34972C22.0369 6.88859 21.993 6.41889 21.8446 5.97761C21.6962 5.53633 21.4475 5.1355 21.1179 4.8067C20.7883 4.47789 20.3869 4.23007 19.9453 4.08275C19.5036 3.93543 19.0338 3.89263 18.5729 3.95772C18.4469 3.97472 18.0729 4.02972 17.5619 4.12872C17.8783 3.42818 18.0282 2.66389 17.9999 1.89572C17.9957 1.7644 17.9656 1.63519 17.9115 1.51547C17.8574 1.39576 17.7802 1.28788 17.6843 1.19799C17.5885 1.1081 17.4759 1.03797 17.353 0.991597C17.23 0.945225 17.0992 0.92352 16.9679 0.927722C16.8365 0.931925 16.7073 0.961952 16.5876 1.01609C16.4679 1.07023 16.36 1.14741 16.2701 1.24324C16.1802 1.33907 16.1101 1.45167 16.0637 1.5746C16.0174 1.69754 15.9957 1.8284 15.9999 1.95972C16.0169 2.44279 15.9178 2.9229 15.7109 3.35972C15.5662 2.96938 15.3599 2.60475 15.0999 2.27972C14.6578 1.77662 14.0967 1.39237 13.4678 1.16213C12.8389 0.931878 12.1623 0.862976 11.4999 0.961722C10.7735 1.02002 10.0793 1.28592 9.49986 1.72772C8.8448 1.23492 8.05232 0.958752 7.23286 0.937722C6.19304 0.836943 5.15566 1.15229 4.34786 1.81472C3.93768 2.17989 3.60652 2.62508 3.3747 3.12293C3.14289 3.62078 3.01533 4.16077 2.99986 4.70972C2.97241 5.58874 3.22834 6.45329 3.72986 7.17572C3.11976 7.69882 2.64616 8.36257 2.34998 9.10965C2.05379 9.85673 1.94392 10.6647 2.02986 11.4637C1.23901 11.9044 0.622698 12.6024 0.283264 13.4417C-0.0561706 14.281 -0.0983059 15.2112 0.163855 16.0777C0.848864 18.4612 2.12383 20.6335 3.87086 22.3937C5.54686 24.028 7.798 24.938 10.1389 24.9277H13.8609C16.2014 24.9382 18.4523 24.0281 20.1279 22.3937C21.8755 20.6339 23.1509 18.4615 23.8359 16.0777C24.0144 15.4771 24.0493 14.8429 23.9378 14.2262C23.8263 13.6096 23.5715 13.0278 23.1939 12.5277ZM18.8509 5.93772C19.0056 5.91684 19.1631 5.93202 19.311 5.98208C19.4589 6.03213 19.5933 6.1157 19.7036 6.22627C19.8138 6.33683 19.897 6.4714 19.9467 6.61945C19.9964 6.7675 20.0111 6.92502 19.9899 7.07972C19.7801 8.39291 19.4401 9.68194 18.9749 10.9277H16.4139L17.7069 9.63472C17.889 9.44612 17.9898 9.19352 17.9875 8.93132C17.9853 8.66913 17.8801 8.41831 17.6947 8.2329C17.5093 8.0475 17.2585 7.94233 16.9963 7.94005C16.7341 7.93777 16.4815 8.03857 16.2929 8.22072L13.5859 10.9277H12.0369C11.9638 10.4018 12.014 9.86604 12.1833 9.36278C12.3527 8.85952 12.6367 8.40249 13.0129 8.02772C13.4399 7.59672 15.0769 6.42772 18.8509 5.93772ZM4.99986 4.77672C5.00587 4.50142 5.06794 4.23023 5.18227 3.97972C5.29661 3.72921 5.46081 3.50464 5.66486 3.31972C6.07743 3.01477 6.58997 2.8769 7.09986 2.93372C7.34614 2.9236 7.59178 2.96567 7.82065 3.05719C8.04952 3.1487 8.25645 3.28758 8.42786 3.46472C8.56279 3.61549 8.72801 3.73608 8.91274 3.81862C9.09746 3.90116 9.29753 3.94379 9.49986 3.94372C9.70171 3.94273 9.90111 3.8993 10.0851 3.81626C10.2691 3.73323 10.4336 3.61243 10.5679 3.46172C10.717 3.30395 10.896 3.17737 11.0944 3.08931C11.2929 3.00125 11.5068 2.95346 11.7239 2.94872C12.0544 2.88984 12.3944 2.91383 12.7134 3.01854C13.0324 3.12325 13.3205 3.30541 13.5519 3.54872C13.8554 3.93737 14.0139 4.41976 13.9999 4.91272C13.9999 4.97772 13.9999 5.11972 13.9999 5.11972C12.6724 5.59775 11.5384 6.49813 10.7719 7.68272C10.1404 6.9352 9.30023 6.39313 8.35889 6.1259C7.41755 5.85868 6.41788 5.87847 5.48786 6.18272C5.156 5.79105 4.98201 5.28977 4.99986 4.77672ZM3.99986 10.9277C3.99986 10.1321 4.31593 9.36901 4.87854 8.8064C5.44114 8.24379 6.20421 7.92772 6.99986 7.92772C7.79551 7.92772 8.55857 8.24379 9.12118 8.8064C9.68379 9.36901 9.99986 10.1321 9.99986 10.9277H3.99986ZM21.9159 15.5167C21.3184 17.5739 20.2187 19.4502 18.7159 20.9767C17.4164 22.2392 15.6726 22.94 13.8609 22.9277H10.1389C8.32664 22.9396 6.58232 22.2389 5.28186 20.9767C3.77894 19.4502 2.67927 17.5739 2.08186 15.5167C1.99221 15.214 1.97482 14.8944 2.03109 14.5837C2.08736 14.273 2.21572 13.9798 2.40585 13.7277C2.59034 13.4789 2.8307 13.2768 3.10757 13.1379C3.38444 12.9989 3.69008 12.9269 3.99986 12.9277H19.9999C20.3106 12.926 20.6175 12.9975 20.8955 13.1365C21.1734 13.2755 21.4148 13.4781 21.5999 13.7277C21.7886 13.9805 21.9156 14.274 21.9704 14.5847C22.0253 14.8954 22.0066 15.2146 21.9159 15.5167Z" fill="#374957"/>
</g>
<defs>
<clipPath id="clip0_507_2226">
<rect width="24" height="24" fill="white" transform="translate(0 0.92749)"/>
</clipPath>
</defs>
</svg>
