<svg width="24" height="25" viewBox="0 0 24 25" fill="none" xmlns="http://www.w3.org/2000/svg">
<g clip-path="url(#clip0_507_2004)">
<path d="M24 12.4275C23.9976 11.7533 23.843 11.0883 23.5475 10.4823C23.2521 9.87623 22.8236 9.34474 22.294 8.9275C23.0267 8.34992 23.5609 7.55804 23.8219 6.66234C24.083 5.76664 24.058 4.81178 23.7503 3.93099C23.4427 3.05019 22.8678 2.28737 22.1059 1.74895C21.344 1.21053 20.433 0.923363 19.5 0.927504H4.50004C3.56707 0.923363 2.65608 1.21053 1.89415 1.74895C1.13222 2.28737 0.557347 3.05019 0.249728 3.93099C-0.0578908 4.81178 -0.0829131 5.76664 0.178152 6.66234C0.439217 7.55804 0.973349 8.34992 1.70604 8.9275C1.17458 9.34308 0.744742 9.87422 0.449122 10.4806C0.153503 11.0871 -0.000132902 11.7529 -0.000132902 12.4275C-0.000132902 13.1021 0.153503 13.7679 0.449122 14.3744C0.744742 14.9808 1.17458 15.5119 1.70604 15.9275C0.973349 16.5051 0.439217 17.297 0.178152 18.1927C-0.0829131 19.0884 -0.0578908 20.0432 0.249728 20.924C0.557347 21.8048 1.13222 22.5676 1.89415 23.1061C2.65608 23.6445 3.56707 23.9316 4.50004 23.9275H19.5C20.433 23.9316 21.344 23.6445 22.1059 23.1061C22.8678 22.5676 23.4427 21.8048 23.7503 20.924C24.058 20.0432 24.083 19.0884 23.8219 18.1927C23.5609 17.297 23.0267 16.5051 22.294 15.9275C22.8236 15.5103 23.2521 14.9788 23.5475 14.3727C23.843 13.7667 23.9976 13.1017 24 12.4275ZM2.00004 5.4275C2.00004 4.76446 2.26343 4.12858 2.73227 3.65974C3.20111 3.1909 3.83699 2.9275 4.50004 2.9275H5.00004V3.9275C5.00004 4.19272 5.10539 4.44707 5.29293 4.63461C5.48046 4.82215 5.73482 4.9275 6.00004 4.9275C6.26525 4.9275 6.51961 4.82215 6.70714 4.63461C6.89468 4.44707 7.00004 4.19272 7.00004 3.9275V2.9275H9.00004V3.9275C9.00004 4.19272 9.10539 4.44707 9.29293 4.63461C9.48046 4.82215 9.73482 4.9275 10 4.9275C10.2653 4.9275 10.5196 4.82215 10.7071 4.63461C10.8947 4.44707 11 4.19272 11 3.9275V2.9275H19.5C20.1631 2.9275 20.799 3.1909 21.2678 3.65974C21.7366 4.12858 22 4.76446 22 5.4275C22 6.09055 21.7366 6.72643 21.2678 7.19527C20.799 7.66411 20.1631 7.9275 19.5 7.9275H4.50004C3.83699 7.9275 3.20111 7.66411 2.73227 7.19527C2.26343 6.72643 2.00004 6.09055 2.00004 5.4275ZM22 19.4275C22 20.0905 21.7366 20.7264 21.2678 21.1953C20.799 21.6641 20.1631 21.9275 19.5 21.9275H4.50004C3.83699 21.9275 3.20111 21.6641 2.73227 21.1953C2.26343 20.7264 2.00004 20.0905 2.00004 19.4275C2.00004 18.7645 2.26343 18.1286 2.73227 17.6597C3.20111 17.1909 3.83699 16.9275 4.50004 16.9275H5.00004V17.9275C5.00004 18.1927 5.10539 18.4471 5.29293 18.6346C5.48046 18.8221 5.73482 18.9275 6.00004 18.9275C6.26525 18.9275 6.51961 18.8221 6.70714 18.6346C6.89468 18.4471 7.00004 18.1927 7.00004 17.9275V16.9275H9.00004V17.9275C9.00004 18.1927 9.10539 18.4471 9.29293 18.6346C9.48046 18.8221 9.73482 18.9275 10 18.9275C10.2653 18.9275 10.5196 18.8221 10.7071 18.6346C10.8947 18.4471 11 18.1927 11 17.9275V16.9275H19.5C20.1631 16.9275 20.799 17.1909 21.2678 17.6597C21.7366 18.1286 22 18.7645 22 19.4275ZM4.50004 14.9275C3.83699 14.9275 3.20111 14.6641 2.73227 14.1953C2.26343 13.7264 2.00004 13.0905 2.00004 12.4275C2.00004 11.7645 2.26343 11.1286 2.73227 10.6597C3.20111 10.1909 3.83699 9.9275 4.50004 9.9275H5.00004V10.9275C5.00004 11.1927 5.10539 11.4471 5.29293 11.6346C5.48046 11.8221 5.73482 11.9275 6.00004 11.9275C6.26525 11.9275 6.51961 11.8221 6.70714 11.6346C6.89468 11.4471 7.00004 11.1927 7.00004 10.9275V9.9275H9.00004V10.9275C9.00004 11.1927 9.10539 11.4471 9.29293 11.6346C9.48046 11.8221 9.73482 11.9275 10 11.9275C10.2653 11.9275 10.5196 11.8221 10.7071 11.6346C10.8947 11.4471 11 11.1927 11 10.9275V9.9275H19.5C20.1631 9.9275 20.799 10.1909 21.2678 10.6597C21.7366 11.1286 22 11.7645 22 12.4275C22 13.0905 21.7366 13.7264 21.2678 14.1953C20.799 14.6641 20.1631 14.9275 19.5 14.9275H4.50004Z" fill="#374957"/>
</g>
<defs>
<clipPath id="clip0_507_2004">
<rect width="24" height="24" fill="white" transform="translate(0 0.92749)"/>
</clipPath>
</defs>
</svg>
