<svg width="24" height="25" viewBox="0 0 24 25" fill="none" xmlns="http://www.w3.org/2000/svg">
<path d="M15.3998 10.8075L10.8098 6.21749C10.6224 6.03124 10.369 5.9267 10.1048 5.9267C9.84062 5.9267 9.58716 6.03124 9.3998 6.21749C9.30607 6.31045 9.23168 6.42105 9.18091 6.54291C9.13014 6.66477 9.104 6.79548 9.104 6.92749C9.104 7.0595 9.13014 7.19021 9.18091 7.31207C9.23168 7.43393 9.30607 7.54453 9.3998 7.63749L13.9998 12.2175C14.0935 12.3105 14.1679 12.4211 14.2187 12.5429C14.2695 12.6648 14.2956 12.7955 14.2956 12.9275C14.2956 13.0595 14.2695 13.1902 14.2187 13.3121C14.1679 13.4339 14.0935 13.5445 13.9998 13.6375L9.3998 18.2175C9.2115 18.4045 9.10518 18.6586 9.10425 18.924C9.10331 19.1893 9.20783 19.4442 9.3948 19.6325C9.58178 19.8208 9.8359 19.9271 10.1013 19.928C10.3666 19.929 10.6215 19.8245 10.8098 19.6375L15.3998 15.0475C15.9616 14.485 16.2772 13.7225 16.2772 12.9275C16.2772 12.1325 15.9616 11.37 15.3998 10.8075Z" fill="#374957"/>
</svg>
