<svg width="24" height="25" viewBox="0 0 24 25" fill="none" xmlns="http://www.w3.org/2000/svg">
<g clip-path="url(#clip0_507_2254)">
<path d="M11.476 15.9275C11.2108 15.9275 10.9564 16.0328 10.7689 16.2204C10.5814 16.4079 10.476 16.6623 10.476 16.9275V19.9275C10.476 20.7231 10.1599 21.4862 9.59732 22.0488C9.03471 22.6114 8.27165 22.9275 7.476 22.9275H5C4.20435 22.9275 3.44129 22.6114 2.87868 22.0488C2.31607 21.4862 2 20.7231 2 19.9275V5.92749C2 5.13184 2.31607 4.36878 2.87868 3.80617C3.44129 3.24356 4.20435 2.92749 5 2.92749H7.476C8.27165 2.92749 9.03471 3.24356 9.59732 3.80617C10.1599 4.36878 10.476 5.13184 10.476 5.92749V8.92749C10.476 9.19271 10.5814 9.44706 10.7689 9.6346C10.9564 9.82213 11.2108 9.92749 11.476 9.92749C11.7412 9.92749 11.9956 9.82213 12.1831 9.6346C12.3706 9.44706 12.476 9.19271 12.476 8.92749V5.92749C12.4744 4.6019 11.9471 3.33105 11.0098 2.39371C10.0724 1.45637 8.80159 0.929078 7.476 0.92749H5C3.67441 0.929078 2.40356 1.45637 1.46622 2.39371C0.528882 3.33105 0.00158786 4.6019 0 5.92749L0 19.9275C0.00158786 21.2531 0.528882 22.5239 1.46622 23.4613C2.40356 24.3986 3.67441 24.9259 5 24.9275H7.476C8.80159 24.9259 10.0724 24.3986 11.0098 23.4613C11.9471 22.5239 12.4744 21.2531 12.476 19.9275V16.9275C12.476 16.6623 12.3706 16.4079 12.1831 16.2204C11.9956 16.0328 11.7412 15.9275 11.476 15.9275Z" fill="#374957"/>
<path d="M22.8671 10.8067L18.2811 6.22069C18.1889 6.12518 18.0785 6.049 17.9565 5.99659C17.8345 5.94418 17.7033 5.9166 17.5705 5.91544C17.4377 5.91429 17.3061 5.93959 17.1832 5.98987C17.0603 6.04015 16.9486 6.11441 16.8547 6.2083C16.7608 6.30219 16.6866 6.41384 16.6363 6.53674C16.586 6.65964 16.5607 6.79132 16.5619 6.92409C16.563 7.05687 16.5906 7.18809 16.643 7.3101C16.6954 7.4321 16.7716 7.54245 16.8671 7.63469L21.1291 11.8977L6.00012 11.9277C5.73491 11.9277 5.48055 12.0331 5.29302 12.2206C5.10548 12.4081 5.00012 12.6625 5.00012 12.9277C5.00012 13.1929 5.10548 13.4473 5.29302 13.6348C5.48055 13.8223 5.73491 13.9277 6.00012 13.9277L21.1881 13.8967L16.8651 18.2207C16.7696 18.3129 16.6934 18.4233 16.641 18.5453C16.5886 18.6673 16.561 18.7985 16.5599 18.9313C16.5587 19.0641 16.584 19.1958 16.6343 19.3186C16.6846 19.4415 16.7588 19.5532 16.8527 19.6471C16.9466 19.741 17.0583 19.8152 17.1812 19.8655C17.3041 19.9158 17.4357 19.9411 17.5685 19.9399C17.7013 19.9388 17.8325 19.9112 17.9545 19.8588C18.0765 19.8064 18.1869 19.7302 18.2791 19.6347L22.8651 15.0487C23.4278 14.4864 23.7441 13.7236 23.7445 12.9281C23.7449 12.1326 23.4293 11.3695 22.8671 10.8067Z" fill="#374957"/>
</g>
<defs>
<clipPath id="clip0_507_2254">
<rect width="24" height="24" fill="white" transform="translate(0 0.92749)"/>
</clipPath>
</defs>
</svg>
