<svg width="24" height="25" viewBox="0 0 24 25" fill="none" xmlns="http://www.w3.org/2000/svg">
<g clip-path="url(#clip0_507_1987)">
<path d="M22 13.1114V11.9274C21.9974 11.3092 21.8039 10.7068 21.4459 10.2027C21.0879 9.69867 20.5829 9.31752 20 9.11144C20.0524 6.53208 19.4136 3.98569 18.15 1.73644C17.9576 1.46472 17.6987 1.24686 17.3981 1.10366C17.0975 0.960452 16.7652 0.896684 16.433 0.918439C16.0871 0.940937 15.7527 1.0514 15.4615 1.23936C15.1703 1.42731 14.9319 1.68653 14.769 1.99244C14 3.40344 13.24 3.92744 11.962 3.92744H10C8.53439 3.85365 7.09716 4.35036 5.98986 5.31335C4.88256 6.27634 4.19126 7.63076 4.061 9.09244C3.46364 9.2893 2.94326 9.66892 2.57342 10.1777C2.20359 10.6864 2.00299 11.2985 2 11.9274V13.1114C1.41709 13.3175 0.912091 13.6987 0.554088 14.2027C0.196084 14.7068 0.00256297 15.3092 0 15.9274L0 19.9274C0.00158786 21.253 0.528882 22.5239 1.46622 23.4612C2.40356 24.3986 3.67441 24.9259 5 24.9274H19C20.3256 24.9259 21.5964 24.3986 22.5338 23.4612C23.4711 22.5239 23.9984 21.253 24 19.9274V15.9274C23.9974 15.3092 23.8039 14.7068 23.4459 14.2027C23.0879 13.6987 22.5829 13.3175 22 13.1114ZM10 5.92744H11.962C12.9359 5.92854 13.8885 5.64243 14.7007 5.10492C15.5128 4.5674 16.1484 3.80234 16.528 2.90544C17.5203 4.75591 18.0267 6.8279 18 8.92744H6.131C6.29118 8.03767 6.77518 7.23874 7.48963 6.68476C8.20408 6.13078 9.09838 5.86099 10 5.92744ZM4 11.9274C4 11.6622 4.10536 11.4079 4.29289 11.2203C4.48043 11.0328 4.73478 10.9274 5 10.9274H19C19.2652 10.9274 19.5196 11.0328 19.7071 11.2203C19.8946 11.4079 20 11.6622 20 11.9274V12.9274H4V11.9274ZM22 19.9274C22 20.7231 21.6839 21.4862 21.1213 22.0488C20.5587 22.6114 19.7956 22.9274 19 22.9274H5C4.20435 22.9274 3.44129 22.6114 2.87868 22.0488C2.31607 21.4862 2 20.7231 2 19.9274V15.9274C2 15.6622 2.10536 15.4079 2.29289 15.2203C2.48043 15.0328 2.73478 14.9274 3 14.9274H21C21.2652 14.9274 21.5196 15.0328 21.7071 15.2203C21.8946 15.4079 22 15.6622 22 15.9274V19.9274Z" fill="#374957"/>
</g>
<defs>
<clipPath id="clip0_507_1987">
<rect width="24" height="24" fill="white" transform="translate(0 0.92749)"/>
</clipPath>
</defs>
</svg>
