<svg width="24" height="25" viewBox="0 0 24 25" fill="none" xmlns="http://www.w3.org/2000/svg">
<g clip-path="url(#clip0_507_2054)">
<path d="M24 12.0279C24.0085 11.2804 23.7417 10.5559 23.2504 9.99249C22.7591 9.42908 22.0777 9.06615 21.336 8.97288C21.636 8.42788 22.072 7.15988 21.99 3.97288C21.984 3.65196 21.9043 3.3367 21.7571 3.05147C21.6099 2.76624 21.3991 2.51867 21.141 2.32788C20.8959 2.1454 20.6123 2.02149 20.3119 1.96567C20.0115 1.90985 19.7023 1.92361 19.408 2.00588C17.9191 2.42305 16.5245 3.12277 15.3 4.06688C14.811 3.25501 14.2685 2.47662 13.676 1.73688C13.4689 1.49507 13.2119 1.30095 12.9227 1.16786C12.6335 1.03476 12.3189 0.965851 12.0005 0.965851C11.6821 0.965851 11.3675 1.03476 11.0783 1.16786C10.7891 1.30095 10.5321 1.49507 10.325 1.73688C9.73476 2.4752 9.19423 3.25191 8.70698 4.06188C7.47611 3.12053 6.07767 2.42148 4.58598 2.00188C4.29244 1.91968 3.98389 1.90634 3.68435 1.96288C3.38481 2.01943 3.10236 2.14433 2.85898 2.32788C2.60109 2.5182 2.3904 2.76526 2.24319 3.04997C2.09597 3.33468 2.01619 3.64942 2.00998 3.96988C1.92798 7.15788 2.36698 8.42488 2.66198 8.96988C1.92022 9.06387 1.23897 9.42749 0.74805 9.99144C0.257129 10.5554 -0.00914035 11.2802 -1.72393e-05 12.0279C-1.72393e-05 16.3179 6.38698 19.2129 9.47798 20.3629C9.01329 20.7802 8.61176 21.263 8.28598 21.7959C8.10007 22.1068 8.00089 22.462 7.99878 22.8242C7.99667 23.1865 8.0917 23.5428 8.27398 23.8559C8.45983 24.181 8.7282 24.4514 9.05198 24.6396C9.37575 24.8278 9.74347 24.9273 10.118 24.9279H13.882C14.2569 24.9269 14.6249 24.8268 14.9487 24.6379C15.2725 24.4489 15.5406 24.1778 15.726 23.8519C15.9082 23.539 16.0033 23.183 16.0014 22.8209C15.9995 22.4588 15.9006 22.1038 15.715 21.7929C15.5268 21.4848 15.3098 21.1951 15.067 20.9279H16C16.5304 20.9279 17.0391 21.1386 17.4142 21.5137C17.7893 21.8887 18 22.3975 18 22.9279C18 23.1931 18.1053 23.4475 18.2929 23.635C18.4804 23.8225 18.7348 23.9279 19 23.9279C19.2652 23.9279 19.5196 23.8225 19.7071 23.635C19.8946 23.4475 20 23.1931 20 22.9279C19.9974 22.1005 19.7379 21.2944 19.2572 20.621C18.7766 19.9476 18.0986 19.4402 17.317 19.1689C20.415 17.6679 24 15.2379 24 12.0279ZM16.372 5.81188C17.3992 4.91418 18.6221 4.26902 19.943 3.92788C19.943 3.92788 19.989 3.94688 19.991 4.02088C20.054 6.45488 19.777 7.74088 19.521 8.10388C19.3745 8.319 19.1852 8.50161 18.965 8.64029C18.7448 8.77897 18.4983 8.87074 18.241 8.90988C17.9958 8.9445 17.7462 8.9279 17.5078 8.86111C17.2694 8.79433 17.0475 8.67882 16.856 8.52188C16.6412 8.37997 16.4575 8.19588 16.316 7.98079C16.1745 7.7657 16.0782 7.5241 16.0329 7.27066C15.9877 7.01722 15.9944 6.75722 16.0527 6.50645C16.1109 6.25569 16.2196 6.01938 16.372 5.81188ZM11.892 2.97988C11.9049 2.96345 11.9214 2.95017 11.9402 2.94104C11.959 2.9319 11.9796 2.92716 12.0005 2.92716C12.0214 2.92716 12.042 2.9319 12.0608 2.94104C12.0796 2.95017 12.0961 2.96345 12.109 2.97988C12.8711 3.88958 13.5186 4.88939 14.037 5.95688C14.0576 5.9918 14.0807 6.02522 14.106 6.05688C13.9932 6.54692 13.9799 7.05462 14.067 7.54988C13.9011 7.94701 13.6243 8.28793 13.2697 8.53187C12.9151 8.77582 12.4978 8.91245 12.0676 8.92542C11.6374 8.9384 11.2126 8.82717 10.844 8.60504C10.4753 8.38291 10.1785 8.05929 9.98898 7.67288C9.967 7.64095 9.9433 7.61024 9.91798 7.58088C10.0119 7.08769 10.0058 6.58066 9.89998 6.08988C9.90524 6.08224 9.90991 6.07422 9.91398 6.06588C10.4329 4.95372 11.0982 3.91587 11.892 2.97988ZM4.00898 4.01988C4.00856 4.00275 4.01172 3.98571 4.01826 3.96987C4.02481 3.95402 4.03459 3.93972 4.04698 3.92788C5.37669 4.26756 6.60916 4.91187 7.64698 5.80988C7.79475 6.02155 7.89852 6.26072 7.95217 6.51323C8.00581 6.76574 8.00822 7.02645 7.95926 7.2799C7.91031 7.53336 7.81097 7.77442 7.66715 7.98878C7.52333 8.20315 7.33795 8.38647 7.12198 8.52788C6.93262 8.68398 6.71286 8.79899 6.47667 8.86561C6.24047 8.93223 5.99301 8.94901 5.74998 8.91488C5.49378 8.8761 5.24842 8.78452 5.02945 8.64595C4.81049 8.50738 4.6227 8.32483 4.47798 8.10988C4.22198 7.74188 3.94598 6.45488 4.00898 4.01988ZM13.882 22.9279H10.118C10.056 22.9279 10.018 22.8819 10.006 22.8119C10.5077 22.0529 11.1799 21.4218 11.969 20.9689C12.7887 21.4229 13.4826 22.0738 13.988 22.8629C13.9776 22.8821 13.9623 22.8982 13.9437 22.9096C13.9251 22.921 13.9038 22.9273 13.882 22.9279ZM14.676 18.1369C15.3089 17.2176 15.7544 16.1825 15.987 15.0909C16.0302 14.8291 15.9677 14.5609 15.8132 14.3452C15.6586 14.1296 15.4248 13.9841 15.163 13.9409C14.9012 13.8977 14.633 13.9602 14.4173 14.1147C14.2017 14.2692 14.0562 14.5031 14.013 14.7649C13.6321 16.1137 12.948 17.3577 12.013 18.4019C11.0886 17.3233 10.3956 16.0663 9.97698 14.7089C9.94823 14.5807 9.8945 14.4595 9.81888 14.3521C9.74326 14.2446 9.64723 14.1532 9.53626 14.0829C9.4253 14.0126 9.30157 13.9648 9.17215 13.9424C9.04273 13.9199 8.91015 13.9231 8.78198 13.9519C8.65381 13.9806 8.53256 14.0344 8.42515 14.11C8.31775 14.1856 8.22629 14.2816 8.15599 14.3926C8.0857 14.5036 8.03795 14.6273 8.01547 14.7567C7.99299 14.8861 7.99622 15.0187 8.02498 15.1469C8.30549 16.2207 8.76492 17.2397 9.38398 18.1609C6.29998 16.8929 1.99998 14.5679 1.99998 12.0279C1.99551 11.8837 2.0203 11.7402 2.07286 11.6059C2.12542 11.4716 2.20466 11.3493 2.30579 11.2465C2.40692 11.1437 2.52784 11.0625 2.66125 11.0077C2.79466 10.9529 2.93778 10.9258 3.08198 10.9279H20.918C21.0622 10.9258 21.2053 10.9529 21.3387 11.0077C21.4721 11.0625 21.5931 11.1437 21.6942 11.2465C21.7953 11.3493 21.8745 11.4716 21.9271 11.6059C21.9797 11.7402 22.0045 11.8837 22 12.0279C22 14.5509 17.755 16.8629 14.676 18.1369Z" fill="#374957"/>
</g>
<defs>
<clipPath id="clip0_507_2054">
<rect width="24" height="24" fill="white" transform="translate(0 0.92749)"/>
</clipPath>
</defs>
</svg>
