<svg width="24" height="25" viewBox="0 0 24 25" fill="none" xmlns="http://www.w3.org/2000/svg">
<g clip-path="url(#clip0_507_1963)">
<path d="M21.781 21.2944C23.0569 20.0324 23.8376 18.3543 23.981 16.5654C24.132 14.751 23.6563 12.9396 22.6335 11.4334C21.6106 9.92721 20.1022 8.81717 18.36 8.28844C18.1886 8.23499 18.0331 8.14002 17.9073 8.01196C17.7816 7.8839 17.6894 7.72673 17.639 7.55444C17.244 6.25954 16.5252 5.08679 15.5507 4.14707C14.5761 3.20735 13.378 2.53171 12.0696 2.18404C10.7612 1.83636 9.38573 1.82814 8.07327 2.16015C6.7608 2.49216 5.55469 3.15343 4.56899 4.08144L1.70699 1.22044C1.51839 1.03828 1.26579 0.937487 1.00359 0.939766C0.741392 0.942044 0.49058 1.04721 0.305172 1.23262C0.119763 1.41803 0.0145945 1.66884 0.0123161 1.93104C0.0100377 2.19324 0.110832 2.44584 0.29299 2.63444L22.293 24.6344C22.4816 24.8166 22.7342 24.9174 22.9964 24.9151C23.2586 24.9128 23.5094 24.8077 23.6948 24.6223C23.8802 24.4368 23.9854 24.186 23.9877 23.9238C23.9899 23.6616 23.8892 23.409 23.707 23.2204L21.781 21.2944ZM9.09999 3.99244C10.5187 3.77712 11.9675 4.07807 13.1831 4.84056C14.3987 5.60306 15.3003 6.77647 15.724 8.14744C15.8719 8.63003 16.1354 9.06922 16.4916 9.42683C16.8478 9.78443 17.286 10.0497 17.768 10.1994C19.0745 10.5967 20.2053 11.4299 20.9719 12.5599C21.7386 13.6899 22.0947 15.0486 21.981 16.4094C21.8778 17.7218 21.2993 18.9513 20.354 19.8674L5.98199 5.49544C6.84948 4.69662 7.93471 4.1735 9.09999 3.99244ZM16.993 22.7554C17.021 23.0189 16.9434 23.2827 16.7771 23.4889C16.6107 23.6952 16.3694 23.827 16.106 23.8554C15.6672 23.9026 15.2263 23.926 14.785 23.9254H5.68499C4.35161 23.9022 3.0663 23.4235 2.04252 22.5689C1.01875 21.7143 0.318118 20.5352 0.0569901 19.2274C-0.112962 18.1028 0.0734934 16.9531 0.590191 15.9398C1.10689 14.9265 1.92789 14.1004 2.93799 13.5774C2.13819 12.1171 1.83693 10.4356 2.07999 8.78844C2.11686 8.52574 2.25657 8.28845 2.46839 8.12876C2.68021 7.96908 2.94679 7.90007 3.20949 7.93694C3.47219 7.9738 3.70948 8.11352 3.86917 8.32534C4.02885 8.53716 4.09786 8.80374 4.06099 9.06644C3.88336 10.2948 4.09309 11.5479 4.66099 12.6514C4.91129 13.115 4.96862 13.6585 4.82052 14.164C4.67241 14.6696 4.33084 15.0963 3.86999 15.3514C3.22677 15.6848 2.70415 16.2114 2.37556 16.8571C2.04697 17.5028 1.92892 18.2352 2.03799 18.9514C2.22444 19.7841 2.68505 20.53 3.34598 21.0696C4.00692 21.6092 4.8299 21.9113 5.68299 21.9274H14.783C15.1528 21.9278 15.5223 21.9081 15.89 21.8684C16.1537 21.8414 16.4174 21.9194 16.624 22.0854C16.8306 22.2514 16.9636 22.4921 16.994 22.7554H16.993Z" fill="#374957"/>
</g>
<defs>
<clipPath id="clip0_507_1963">
<rect width="24" height="24" fill="white" transform="translate(0 0.92749)"/>
</clipPath>
</defs>
</svg>
