<svg width="24" height="25" viewBox="0 0 24 25" fill="none" xmlns="http://www.w3.org/2000/svg">
<g clip-path="url(#clip0_507_1920)">
<path d="M23.715 3.2124C23.5251 3.02322 23.268 2.91699 23 2.91699C22.732 2.91699 22.4749 3.02322 22.285 3.2124L17.521 7.97639L17.201 7.66339C16.3573 6.83935 15.2499 6.33948 14.0738 6.25185C12.8977 6.16423 11.7285 6.49447 10.772 7.18439C9.39154 8.22539 7.85708 9.04458 6.224 9.61239L4.15 10.2204C3.47605 10.4182 2.85093 10.7549 2.31482 11.2086C1.7787 11.6624 1.34344 12.2234 1.037 12.8554C0.735606 13.4788 0.567738 14.1583 0.544147 14.8504C0.520555 15.5425 0.64176 16.2319 0.9 16.8744C1.87878 19.2771 3.55671 21.3305 5.71632 22.7683C7.87593 24.2062 10.4176 24.9622 13.012 24.9384H13.936C14.1427 24.9382 14.3445 24.8747 14.514 24.7564C16.2742 23.6074 17.7785 22.1078 18.9331 20.3512C20.0876 18.5947 20.8675 16.6189 21.224 14.5474C21.348 13.7553 21.2808 12.945 21.0281 12.1841C20.7753 11.4233 20.3443 10.7338 19.771 10.1734L18.971 9.38939L23.718 4.64239C23.9068 4.45213 24.0125 4.1948 24.0119 3.92678C24.0113 3.65875 23.9046 3.40187 23.715 3.2124ZM13.608 22.9124H13.008C11.5304 22.9144 10.0668 22.6266 8.7 22.0654L8.711 22.0594C10.4599 21.1819 11.9571 19.8743 13.062 18.2594L13.58 17.4984C13.7309 17.2769 13.7877 17.0046 13.7378 16.7413C13.6879 16.478 13.5355 16.2453 13.314 16.0944C13.0925 15.9435 12.8202 15.8867 12.5569 15.9366C12.2936 15.9865 12.0609 16.1389 11.91 16.3604L11.392 17.1214C10.4792 18.453 9.24326 19.531 7.8 20.2544L6.549 20.8844C5.54812 20.1808 4.67459 19.3117 3.966 18.3144C5.60498 17.763 7.1003 16.8529 8.343 15.6504C8.53475 15.4629 8.64416 15.2069 8.64716 14.9387C8.65016 14.6705 8.54651 14.4121 8.359 14.2204C8.17149 14.0286 7.91549 13.9192 7.64731 13.9162C7.37914 13.9132 7.12075 14.0169 6.929 14.2044C5.80989 15.2887 4.44403 16.0849 2.949 16.5244C2.888 16.3894 2.822 16.2574 2.767 16.1184C2.61212 15.738 2.53962 15.3292 2.55427 14.9188C2.56892 14.5084 2.6704 14.1057 2.852 13.7374C3.03585 13.3592 3.29659 13.0235 3.61755 12.7518C3.93851 12.4801 4.31263 12.2783 4.716 12.1594L6.789 11.5514C7.99195 11.1649 9.14264 10.6316 10.215 9.96339L18.13 17.6754C17.0784 19.7688 15.5248 21.5694 13.608 22.9164V22.9124ZM19.228 14.2294C19.1516 14.6972 19.0484 15.1603 18.919 15.6164L11.948 8.82739C12.4594 8.45982 13.0732 8.26187 13.703 8.26139C14.4821 8.2604 15.2304 8.56526 15.787 9.11039L18.356 11.6194C18.699 11.9542 18.957 12.3661 19.1087 12.8207C19.2604 13.2754 19.3013 13.7597 19.228 14.2334V14.2294Z" fill="#374957"/>
</g>
<defs>
<clipPath id="clip0_507_1920">
<rect width="24" height="24" fill="white" transform="translate(0 0.92749)"/>
</clipPath>
</defs>
</svg>
