<svg width="24" height="25" viewBox="0 0 24 25" fill="none" xmlns="http://www.w3.org/2000/svg">
<g clip-path="url(#clip0_507_2059)">
<path d="M9 12.9274C10.1867 12.9274 11.3467 12.5755 12.3334 11.9162C13.3201 11.257 14.0892 10.3199 14.5433 9.22353C14.9974 8.12718 15.1162 6.92078 14.8847 5.75689C14.6532 4.593 14.0818 3.52391 13.2426 2.68479C12.4035 1.84568 11.3344 1.27423 10.1705 1.04272C9.00666 0.811209 7.80026 0.930029 6.7039 1.38415C5.60754 1.83828 4.67047 2.60732 4.01118 3.59401C3.35189 4.58071 3 5.74074 3 6.92743C3.00159 8.51824 3.63424 10.0434 4.75911 11.1683C5.88399 12.2932 7.40919 12.9258 9 12.9274ZM9 2.92743C9.79113 2.92743 10.5645 3.16203 11.2223 3.60155C11.8801 4.04108 12.3928 4.66579 12.6955 5.3967C12.9983 6.1276 13.0775 6.93187 12.9231 7.70779C12.7688 8.48372 12.3878 9.19645 11.8284 9.75586C11.269 10.3153 10.5563 10.6962 9.78036 10.8506C9.00444 11.0049 8.20017 10.9257 7.46927 10.623C6.73836 10.3202 6.11365 9.80751 5.67412 9.14971C5.2346 8.49192 5 7.71856 5 6.92743C5 5.86657 5.42143 4.84915 6.17157 4.099C6.92172 3.34886 7.93913 2.92743 9 2.92743Z" fill="#374957"/>
<path d="M9 14.9272C6.61395 14.9301 4.32645 15.8792 2.63925 17.5664C0.952057 19.2536 0.00291096 21.5411 0 23.9271C0 24.1924 0.105357 24.4467 0.292893 24.6342C0.48043 24.8218 0.734784 24.9271 1 24.9271C1.26522 24.9271 1.51957 24.8218 1.70711 24.6342C1.89464 24.4467 2 24.1924 2 23.9271C2 22.0706 2.7375 20.2902 4.05025 18.9774C5.36301 17.6647 7.14348 16.9272 9 16.9272C10.8565 16.9272 12.637 17.6647 13.9497 18.9774C15.2625 20.2902 16 22.0706 16 23.9271C16 24.1924 16.1054 24.4467 16.2929 24.6342C16.4804 24.8218 16.7348 24.9271 17 24.9271C17.2652 24.9271 17.5196 24.8218 17.7071 24.6342C17.8946 24.4467 18 24.1924 18 23.9271C17.9971 21.5411 17.0479 19.2536 15.3607 17.5664C13.6735 15.8792 11.3861 14.9301 9 14.9272Z" fill="#374957"/>
<path d="M21.9998 8.80249C21.4433 8.83021 20.9204 9.07726 20.5456 9.48956C20.1708 9.90186 19.9746 10.4459 19.9998 11.0025C20.0251 10.4459 19.8289 9.90186 19.4541 9.48956C19.0792 9.07726 18.5564 8.83021 17.9998 8.80249C17.4433 8.83021 16.9204 9.07726 16.5456 9.48956C16.1708 9.90186 15.9746 10.4459 15.9999 11.0025C15.9999 12.7325 18.2558 14.7595 19.3798 15.6615C19.5558 15.8024 19.7745 15.8791 19.9998 15.8791C20.2252 15.8791 20.4439 15.8024 20.6198 15.6615C21.7438 14.7615 23.9998 12.7325 23.9998 11.0025C24.0251 10.4459 23.8289 9.90186 23.4541 9.48956C23.0792 9.07726 22.5564 8.83021 21.9998 8.80249Z" fill="#374957"/>
</g>
<defs>
<clipPath id="clip0_507_2059">
<rect width="24" height="24" fill="white" transform="translate(0 0.92749)"/>
</clipPath>
</defs>
</svg>
