<svg width="24" height="25" viewBox="0 0 24 25" fill="none" xmlns="http://www.w3.org/2000/svg">
<g clip-path="url(#clip0_507_2096)">
<path d="M16.9001 4.94793C16.6629 3.82413 16.0466 2.81603 15.1545 2.0926C14.2624 1.36917 13.1487 0.974365 12.0001 0.974365C10.8516 0.974365 9.73792 1.36917 8.84581 2.0926C7.95371 2.81603 7.33739 3.82413 7.10014 4.94793C6.17191 5.02141 5.27748 5.3291 4.50049 5.84223C3.72349 6.35535 3.08932 7.05714 2.65728 7.88197C2.22523 8.70681 2.00942 9.62774 2.03004 10.5586C2.05065 11.4896 2.30701 12.4 2.77514 13.2049L9.01915 23.2609C9.33623 23.7648 9.7759 24.18 10.2971 24.4678C10.8182 24.7556 11.4038 24.9066 11.9991 24.9066C12.5945 24.9066 13.1801 24.7556 13.7012 24.4678C14.2224 24.18 14.6621 23.7648 14.9791 23.2609L21.2401 13.1809C21.7028 12.3756 21.9543 11.4663 21.9711 10.5377C21.988 9.60908 21.7697 8.69128 21.3366 7.86967C20.9035 7.04807 20.2696 6.34935 19.4939 5.83851C18.7183 5.32767 17.826 5.02131 16.9001 4.94793ZM20.0001 10.4279C19.9981 10.6202 19.9793 10.8119 19.9441 11.0009C17.7698 11.5082 15.5515 11.8043 13.3201 11.8849C11.3291 6.57493 19.5931 4.76993 20.0001 10.4279ZM12.0001 2.92793C12.6631 2.93046 13.3065 3.15252 13.8299 3.55941C14.3533 3.96629 14.7272 4.53509 14.8931 5.17693C13.7237 5.53455 12.7061 6.27039 12.0001 7.26893C11.2942 6.27039 10.2766 5.53455 9.10715 5.17693C9.2731 4.53509 9.64698 3.96629 10.1704 3.55941C10.6938 3.15252 11.3372 2.93046 12.0001 2.92793ZM7.50014 6.92793C8.08458 6.93267 8.65863 7.08298 9.17038 7.36529C9.68214 7.64759 10.1155 8.05298 10.4312 8.54481C10.747 9.03664 10.9352 9.5994 10.9788 10.1822C11.0224 10.7651 10.9201 11.3496 10.6811 11.8829C8.45062 11.7958 6.23305 11.5012 4.05714 11.0029C3.97377 10.5023 4.00025 9.98961 4.13476 9.50027C4.26926 9.01094 4.50857 8.5567 4.83609 8.16906C5.16362 7.78141 5.57152 7.46963 6.03153 7.25532C6.49155 7.04101 6.99266 6.9293 7.50014 6.92793ZM13.2781 22.2139C13.1373 22.4239 12.947 22.596 12.7239 22.7149C12.5009 22.8339 12.252 22.8962 11.9991 22.8962C11.7463 22.8962 11.4974 22.8339 11.2744 22.7149C11.0513 22.596 10.861 22.4239 10.7201 22.2139L5.17014 13.2739C9.68467 14.0999 14.3116 14.0999 18.8261 13.2739L13.2781 22.2139Z" fill="#374957"/>
</g>
<defs>
<clipPath id="clip0_507_2096">
<rect width="24" height="24" fill="white" transform="translate(0 0.92749)"/>
</clipPath>
</defs>
</svg>
