<svg width="24" height="25" viewBox="0 0 24 25" fill="none" xmlns="http://www.w3.org/2000/svg">
<path d="M21 13.3512V11.9272C21 9.54024 20.0517 7.25105 18.3639 5.56322C16.6761 3.8754 14.3869 2.92719 12 2.92719C9.613 2.92719 7.32382 3.8754 5.63599 5.56322C3.94816 7.25105 2.99995 9.54024 2.99995 11.9272V13.3512C1.95111 13.813 1.09275 14.6211 0.568572 15.6403C0.0443932 16.6594 -0.113788 17.8276 0.120508 18.9494C0.354805 20.0712 0.967358 21.0785 1.85562 21.8026C2.74388 22.5268 3.85394 22.9238 4.99995 22.9272C5.53038 22.9272 6.03909 22.7165 6.41416 22.3414C6.78924 21.9663 6.99995 21.4576 6.99995 20.9272V14.9272C6.99995 14.3968 6.78924 13.888 6.41416 13.513C6.03909 13.1379 5.53038 12.9272 4.99995 12.9272V11.9272C4.99995 10.0707 5.73745 8.29019 7.0502 6.97744C8.36296 5.66468 10.1434 4.92718 12 4.92718C13.8565 4.92718 15.6369 5.66468 16.9497 6.97744C18.2625 8.29019 19 10.0707 19 11.9272V12.9272C18.4695 12.9272 17.9608 13.1379 17.5857 13.513C17.2107 13.888 17 14.3968 17 14.9272V20.9272H14C13.7347 20.9272 13.4804 21.0325 13.2928 21.2201C13.1053 21.4076 13 21.662 13 21.9272C13 22.1924 13.1053 22.4468 13.2928 22.6343C13.4804 22.8218 13.7347 22.9272 14 22.9272H19C20.146 22.9238 21.256 22.5268 22.1443 21.8026C23.0325 21.0785 23.6451 20.0712 23.8794 18.9494C24.1137 17.8276 23.9555 16.6594 23.4313 15.6403C22.9071 14.6211 22.0488 13.813 21 13.3512ZM4.99995 20.9272C4.2043 20.9272 3.44124 20.6111 2.87863 20.0485C2.31602 19.4859 1.99995 18.7228 1.99995 17.9272C1.99995 17.1315 2.31602 16.3685 2.87863 15.8059C3.44124 15.2433 4.2043 14.9272 4.99995 14.9272V20.9272ZM19 20.9272V14.9272C19.7956 14.9272 20.5587 15.2433 21.1213 15.8059C21.6839 16.3685 22 17.1315 22 17.9272C22 18.7228 21.6839 19.4859 21.1213 20.0485C20.5587 20.6111 19.7956 20.9272 19 20.9272Z" fill="#374957"/>
</svg>
