<svg width="24" height="25" viewBox="0 0 24 25" fill="none" xmlns="http://www.w3.org/2000/svg">
<g clip-path="url(#clip0_507_2046)">
<path d="M22.3269 19.3499C23.0549 20.3839 23.9999 21.5789 23.9999 22.4279C23.9999 23.0909 23.7365 23.7268 23.2677 24.1957C22.7988 24.6645 22.163 24.9279 21.4999 24.9279C20.8369 24.9279 20.201 24.6645 19.7322 24.1957C19.2633 23.7268 18.9999 23.0909 18.9999 22.4279C18.9999 21.6529 19.9609 20.4199 20.6919 19.3589C20.7835 19.2274 20.9054 19.1198 21.0472 19.0452C21.1891 18.9706 21.3468 18.9312 21.5071 18.9303C21.6674 18.9294 21.8255 18.9671 21.9682 19.0401C22.1109 19.1131 22.2339 19.2194 22.3269 19.3499ZM21.4499 14.7919L12.7779 23.4639C11.8395 24.4001 10.568 24.9258 9.24242 24.9258C7.91684 24.9258 6.64538 24.4001 5.70692 23.4639L1.46492 19.2209C0.527259 18.2832 0.000488281 17.0115 0.000488281 15.6854C0.000488281 14.3593 0.527259 13.0876 1.46492 12.1499L7.17392 6.4399L4.31792 3.5499C4.13654 3.36032 4.03693 3.10705 4.04057 2.84471C4.04421 2.58236 4.15081 2.33196 4.33738 2.14749C4.52395 1.96301 4.77555 1.85926 5.03792 1.85859C5.30028 1.85791 5.55241 1.96038 5.73992 2.1439L8.58792 5.0279L10.1359 3.4779L9.29292 2.6349C9.11076 2.4463 9.00997 2.19369 9.01225 1.9315C9.01453 1.6693 9.1197 1.41849 9.3051 1.23308C9.49051 1.04767 9.74132 0.942502 10.0035 0.940223C10.2657 0.937945 10.5183 1.03874 10.7069 1.2209L23.7069 14.2209C23.8024 14.3131 23.8786 14.4235 23.931 14.5455C23.9834 14.6675 24.011 14.7987 24.0122 14.9315C24.0133 15.0643 23.988 15.196 23.9377 15.3189C23.8875 15.4417 23.8132 15.5534 23.7193 15.6473C23.6254 15.7412 23.5138 15.8154 23.3909 15.8657C23.268 15.916 23.1363 15.9413 23.0035 15.9402C22.8707 15.939 22.7395 15.9114 22.6175 15.859C22.4955 15.8066 22.3852 15.7304 22.2929 15.6349L21.4499 14.7919ZM20.0359 13.3779L11.5499 4.8919L9.99292 6.4499L14.7109 11.2279C14.8133 11.3188 14.896 11.4299 14.9537 11.5541C15.0114 11.6783 15.043 11.813 15.0465 11.9499C15.0501 12.0868 15.0254 12.223 14.9741 12.35C14.9229 12.477 14.846 12.5921 14.7484 12.6882C14.6509 12.7843 14.5346 12.8593 14.4068 12.9086C14.279 12.9579 14.1424 12.9804 14.0056 12.9747C13.8688 12.9691 13.7345 12.9354 13.6113 12.8757C13.488 12.8161 13.3783 12.7317 13.2889 12.6279L8.57992 7.8629L2.87992 13.5629C2.60129 13.8415 2.38027 14.1722 2.22947 14.5362C2.07868 14.9002 2.00106 15.2904 2.00106 15.6844C2.00106 16.0784 2.07868 16.4686 2.22947 16.8326C2.38027 17.1966 2.60129 17.5273 2.87992 17.8059L7.12192 22.0489C7.68519 22.6104 8.44809 22.9257 9.24342 22.9257C10.0388 22.9257 10.8017 22.6104 11.3649 22.0489L20.0359 13.3779Z" fill="#374957"/>
</g>
<defs>
<clipPath id="clip0_507_2046">
<rect width="24" height="24" fill="white" transform="translate(0 0.92749)"/>
</clipPath>
</defs>
</svg>
