<svg width="24" height="25" viewBox="0 0 24 25" fill="none" xmlns="http://www.w3.org/2000/svg">
<g clip-path="url(#clip0_507_2245)">
<path d="M24 10.9276C24 10.8546 23.992 10.7819 23.976 10.7106L22.676 4.84264C22.4345 3.72887 21.8173 2.73202 20.9281 2.01922C20.0389 1.30642 18.9316 0.921015 17.792 0.927635H6.208C5.06905 0.921935 3.96273 1.30776 3.07433 2.02048C2.18593 2.73321 1.5694 3.72955 1.328 4.84264L0.0240014 10.7106C0.00800947 10.7819 -3.96599e-05 10.8546 1.3694e-06 10.9276V11.9276C-0.000805438 12.9012 0.354923 13.8414 1 14.5706V19.9276C1.00159 21.2532 1.52888 22.5241 2.46622 23.4614C3.40356 24.3988 4.67441 24.9261 6 24.9276H18C19.3256 24.9261 20.5964 24.3988 21.5338 23.4614C22.4711 22.5241 22.9984 21.2532 23 19.9276V14.5706C23.6451 13.8414 24.0008 12.9012 24 11.9276V10.9276ZM2 11.0366L3.28 5.27664C3.42504 4.60889 3.79502 4.01121 4.32801 3.58361C4.86101 3.15601 5.52469 2.92444 6.208 2.92764H7V5.92764C7 6.19285 7.10536 6.44721 7.2929 6.63474C7.48043 6.82228 7.73479 6.92764 8 6.92764C8.26522 6.92764 8.51957 6.82228 8.70711 6.63474C8.89464 6.44721 9 6.19285 9 5.92764V2.92764H15V5.92764C15 6.19285 15.1054 6.44721 15.2929 6.63474C15.4804 6.82228 15.7348 6.92764 16 6.92764C16.2652 6.92764 16.5196 6.82228 16.7071 6.63474C16.8946 6.44721 17 6.19285 17 5.92764V2.92764H17.792C18.4753 2.92444 19.139 3.15601 19.672 3.58361C20.205 4.01121 20.575 4.60889 20.72 5.27664L22 11.0366V11.9276C22 12.4581 21.7893 12.9668 21.4142 13.3419C21.0391 13.7169 20.5304 13.9276 20 13.9276H19C18.4696 13.9276 17.9609 13.7169 17.5858 13.3419C17.2107 12.9668 17 12.4581 17 11.9276C17 11.6624 16.8946 11.4081 16.7071 11.2205C16.5196 11.033 16.2652 10.9276 16 10.9276C15.7348 10.9276 15.4804 11.033 15.2929 11.2205C15.1054 11.4081 15 11.6624 15 11.9276C15 12.4581 14.7893 12.9668 14.4142 13.3419C14.0391 13.7169 13.5304 13.9276 13 13.9276H11C10.4696 13.9276 9.96086 13.7169 9.58579 13.3419C9.21072 12.9668 9 12.4581 9 11.9276C9 11.6624 8.89464 11.4081 8.70711 11.2205C8.51957 11.033 8.26522 10.9276 8 10.9276C7.73479 10.9276 7.48043 11.033 7.2929 11.2205C7.10536 11.4081 7 11.6624 7 11.9276C7 12.4581 6.78929 12.9668 6.41422 13.3419C6.03914 13.7169 5.53044 13.9276 5 13.9276H4C3.46957 13.9276 2.96086 13.7169 2.58579 13.3419C2.21072 12.9668 2 12.4581 2 11.9276V11.0366ZM18 22.9276H6C5.20435 22.9276 4.44129 22.6116 3.87868 22.049C3.31607 21.4863 3 20.7233 3 19.9276V15.8006C3.3266 15.8852 3.66263 15.9279 4 15.9276H5C5.56782 15.9279 6.12916 15.807 6.64651 15.573C7.16386 15.339 7.6253 14.9973 8 14.5706C8.3747 14.9973 8.83615 15.339 9.3535 15.573C9.87085 15.807 10.4322 15.9279 11 15.9276H13C13.5678 15.9279 14.1292 15.807 14.6465 15.573C15.1639 15.339 15.6253 14.9973 16 14.5706C16.3747 14.9973 16.8361 15.339 17.3535 15.573C17.8708 15.807 18.4322 15.9279 19 15.9276H20C20.3374 15.9279 20.6734 15.8852 21 15.8006V19.9276C21 20.7233 20.6839 21.4863 20.1213 22.049C19.5587 22.6116 18.7957 22.9276 18 22.9276Z" fill="#374957"/>
</g>
<defs>
<clipPath id="clip0_507_2245">
<rect width="24" height="24" fill="white" transform="translate(0 0.92749)"/>
</clipPath>
</defs>
</svg>
