<svg width="24" height="25" viewBox="0 0 24 25" fill="none" xmlns="http://www.w3.org/2000/svg">
<g clip-path="url(#clip0_507_2127)">
<path d="M12 0.92749C9.62663 0.92749 7.30655 1.63128 5.33316 2.94986C3.35977 4.26843 1.8217 6.14258 0.913451 8.33529C0.00519943 10.528 -0.232441 12.9408 0.230582 15.2686C0.693605 17.5963 1.83649 19.7345 3.51472 21.4128C5.19295 23.091 7.33115 24.2339 9.65892 24.6969C11.9867 25.1599 14.3995 24.9223 16.5922 24.014C18.7849 23.1058 20.6591 21.5677 21.9776 19.5943C23.2962 17.6209 24 15.3009 24 12.9275C23.9966 9.74595 22.7312 6.6957 20.4815 4.44601C18.2318 2.19632 15.1815 0.930931 12 0.92749V0.92749ZM12 22.9275C10.0222 22.9275 8.08879 22.341 6.4443 21.2422C4.79981 20.1434 3.51809 18.5816 2.76121 16.7543C2.00433 14.9271 1.8063 12.9164 2.19215 10.9766C2.578 9.03678 3.53041 7.25495 4.92894 5.85642C6.32746 4.4579 8.10929 3.50549 10.0491 3.11964C11.9889 2.73379 13.9996 2.93182 15.8268 3.6887C17.6541 4.44557 19.2159 5.7273 20.3147 7.37179C21.4135 9.01628 22 10.9497 22 12.9275C21.9971 15.5788 20.9426 18.1206 19.0679 19.9953C17.1931 21.8701 14.6513 22.9246 12 22.9275ZM12 7.92749C11.2932 7.92615 10.6087 8.17501 10.0678 8.62999C9.52684 9.08497 9.16439 9.71671 9.04462 10.4133C8.92484 11.1099 9.05547 11.8264 9.41337 12.436C9.77126 13.0455 10.3333 13.5087 11 13.7435V16.9275C11 17.1927 11.1054 17.4471 11.2929 17.6346C11.4804 17.8221 11.7348 17.9275 12 17.9275C12.2652 17.9275 12.5196 17.8221 12.7071 17.6346C12.8946 17.4471 13 17.1927 13 16.9275V13.7435C13.6667 13.5087 14.2288 13.0455 14.5866 12.436C14.9445 11.8264 15.0752 11.1099 14.9554 10.4133C14.8356 9.71671 14.4732 9.08497 13.9322 8.62999C13.3913 8.17501 12.7068 7.92615 12 7.92749ZM12 11.9275C11.8022 11.9275 11.6089 11.8688 11.4444 11.759C11.28 11.6491 11.1518 11.4929 11.0761 11.3102C11.0004 11.1274 10.9806 10.9264 11.0192 10.7324C11.0578 10.5384 11.153 10.3602 11.2929 10.2204C11.4328 10.0805 11.6109 9.98529 11.8049 9.94671C11.9989 9.90812 12.2 9.92792 12.3827 10.0036C12.5654 10.0793 12.7216 10.2075 12.8315 10.3719C12.9414 10.5364 13 10.7297 13 10.9275C13 11.1927 12.8946 11.4471 12.7071 11.6346C12.5196 11.8221 12.2652 11.9275 12 11.9275Z" fill="#374957"/>
</g>
<defs>
<clipPath id="clip0_507_2127">
<rect width="24" height="24" fill="white" transform="translate(0 0.92749)"/>
</clipPath>
</defs>
</svg>
