<svg width="24" height="25" viewBox="0 0 24 25" fill="none" xmlns="http://www.w3.org/2000/svg">
<g clip-path="url(#clip0_507_2158)">
<path d="M14.9999 24.9273C13.3194 24.926 11.6579 24.5724 10.1225 23.8893C8.58707 23.2061 7.21197 22.2087 6.08591 20.9613C4.95134 19.7124 4.09532 18.2365 3.57465 16.6316C3.05399 15.0267 2.88057 13.3293 3.06591 11.6523C3.36471 9.04228 4.50331 6.6 6.31027 4.69312C8.11724 2.78624 10.4948 1.51797 13.0849 1.07927C14.7593 0.820643 16.4681 0.89027 18.1159 1.28427C18.5474 1.39513 18.9414 1.61927 19.2572 1.93351C19.573 2.24775 19.7991 2.64066 19.9121 3.07159C20.0251 3.50252 20.0208 3.95582 19.8998 4.38457C19.7789 4.81333 19.5455 5.20196 19.2239 5.51027C14.6639 9.67627 15.0599 16.1543 20.0309 19.9203C20.3824 20.1961 20.6535 20.5612 20.8161 20.9773C20.9786 21.3935 21.0267 21.8457 20.9552 22.2868C20.8837 22.7278 20.6954 23.1417 20.4097 23.4852C20.124 23.8288 19.7515 24.0895 19.3309 24.2403C17.9327 24.6971 16.4708 24.929 14.9999 24.9273ZM15.0759 2.92727C14.5145 2.92592 13.9538 2.96838 13.3989 3.05427C11.2424 3.41898 9.26277 4.47431 7.75792 6.0614C6.25307 7.64849 5.30447 9.68145 5.05491 11.8543C4.89891 13.2543 5.04268 14.6715 5.47665 16.0117C5.91062 17.3519 6.62487 18.5844 7.57191 19.6273C8.95824 21.1069 10.7442 22.1525 12.7131 22.6371C14.682 23.1217 16.7492 23.0245 18.6639 22.3573C18.7464 22.3263 18.8193 22.2742 18.8752 22.206C18.9311 22.1378 18.9679 22.0561 18.9821 21.9691C18.9962 21.8821 18.987 21.7929 18.9556 21.7106C18.9241 21.6282 18.8714 21.5557 18.8029 21.5003C12.8739 17.0223 12.4029 9.01427 17.8549 4.05127C17.9175 3.99318 17.9626 3.9188 17.9852 3.83648C18.0078 3.75416 18.007 3.66716 17.9829 3.58527C17.9621 3.49835 17.918 3.41877 17.8552 3.35514C17.7925 3.29152 17.7135 3.24626 17.6269 3.22427C16.7917 3.02279 15.9351 2.92307 15.0759 2.92727Z" fill="#374957"/>
</g>
<defs>
<clipPath id="clip0_507_2158">
<rect width="24" height="24" fill="white" transform="translate(0 0.92749)"/>
</clipPath>
</defs>
</svg>
