<svg width="24" height="25" viewBox="0 0 24 25" fill="none" xmlns="http://www.w3.org/2000/svg">
<g clip-path="url(#clip0_507_2268)">
<path d="M12 0.92749C9.62663 0.92749 7.30655 1.63128 5.33316 2.94986C3.35977 4.26843 1.8217 6.14258 0.913451 8.33529C0.00519943 10.528 -0.232441 12.9408 0.230582 15.2686C0.693605 17.5963 1.83649 19.7345 3.51472 21.4128C5.19295 23.091 7.33115 24.2339 9.65892 24.6969C11.9867 25.1599 14.3995 24.9223 16.5922 24.014C18.7849 23.1058 20.6591 21.5677 21.9776 19.5943C23.2962 17.6209 24 15.3009 24 12.9275C23.9966 9.74595 22.7312 6.6957 20.4815 4.44601C18.2318 2.19632 15.1815 0.930931 12 0.92749V0.92749ZM12 16.9275C6.27601 16.9275 2.00001 14.8165 2.00001 12.9275C2.00001 11.0385 6.27601 8.92749 12 8.92749C17.724 8.92749 22 11.0385 22 12.9275C22 14.8165 17.724 16.9275 12 16.9275ZM12 2.92749C13.9564 2.92974 15.8693 3.50507 17.5023 4.58239C19.1354 5.65972 20.417 7.19184 21.189 8.98949C18.3531 7.52676 15.189 6.81675 12 6.92749C8.81098 6.81675 5.64694 7.52676 2.81101 8.98949C3.58297 7.19184 4.86464 5.65972 6.49769 4.58239C8.13074 3.50507 10.0436 2.92974 12 2.92749ZM12 22.9275C10.0436 22.9252 8.13074 22.3499 6.49769 21.2726C4.86464 20.1953 3.58297 18.6631 2.81101 16.8655C5.64694 18.3282 8.81098 19.0382 12 18.9275C15.189 19.0382 18.3531 18.3282 21.189 16.8655C20.417 18.6631 19.1354 20.1953 17.5023 21.2726C15.8693 22.3499 13.9564 22.9252 12 22.9275Z" fill="#374957"/>
</g>
<defs>
<clipPath id="clip0_507_2268">
<rect width="24" height="24" fill="white" transform="translate(0 0.92749)"/>
</clipPath>
</defs>
</svg>
