<svg width="24" height="25" viewBox="0 0 24 25" fill="none" xmlns="http://www.w3.org/2000/svg">
<g clip-path="url(#clip0_507_2275)">
<path d="M23 22.9275H3C2.73478 22.9275 2.48043 22.8221 2.29289 22.6346C2.10536 22.4471 2 22.1927 2 21.9275V1.92749C2 1.66227 1.89464 1.40792 1.70711 1.22038C1.51957 1.03285 1.26522 0.92749 1 0.92749C0.734784 0.92749 0.48043 1.03285 0.292893 1.22038C0.105357 1.40792 0 1.66227 0 1.92749L0 21.9275C0 22.7231 0.31607 23.4862 0.87868 24.0488C1.44129 24.6114 2.20435 24.9275 3 24.9275H23C23.2652 24.9275 23.5196 24.8221 23.7071 24.6346C23.8946 24.4471 24 24.1927 24 23.9275C24 23.6623 23.8946 23.4079 23.7071 23.2204C23.5196 23.0328 23.2652 22.9275 23 22.9275Z" fill="#374957"/>
<path d="M15.0001 20.9281C15.2653 20.9281 15.5197 20.8227 15.7072 20.6352C15.8948 20.4477 16.0001 20.1933 16.0001 19.9281V12.9281C16.0001 12.6629 15.8948 12.4085 15.7072 12.221C15.5197 12.0335 15.2653 11.9281 15.0001 11.9281C14.7349 11.9281 14.4806 12.0335 14.293 12.221C14.1055 12.4085 14.0001 12.6629 14.0001 12.9281V19.9281C14.0001 20.1933 14.1055 20.4477 14.293 20.6352C14.4806 20.8227 14.7349 20.9281 15.0001 20.9281Z" fill="#374957"/>
<path d="M7 20.9281C7.26521 20.9281 7.51957 20.8227 7.7071 20.6352C7.89464 20.4477 8 20.1933 8 19.9281V12.9281C8 12.6629 7.89464 12.4085 7.7071 12.221C7.51957 12.0335 7.26521 11.9281 7 11.9281C6.73478 11.9281 6.48043 12.0335 6.29289 12.221C6.10536 12.4085 6 12.6629 6 12.9281V19.9281C6 20.1933 6.10536 20.4477 6.29289 20.6352C6.48043 20.8227 6.73478 20.9281 7 20.9281Z" fill="#374957"/>
<path d="M19 20.9275C19.2652 20.9275 19.5196 20.8221 19.7071 20.6346C19.8947 20.4471 20 20.1927 20 19.9275V7.92749C20 7.66227 19.8947 7.40792 19.7071 7.22038C19.5196 7.03285 19.2652 6.92749 19 6.92749C18.7348 6.92749 18.4804 7.03285 18.2929 7.22038C18.1054 7.40792 18 7.66227 18 7.92749V19.9275C18 20.1927 18.1054 20.4471 18.2929 20.6346C18.4804 20.8221 18.7348 20.9275 19 20.9275Z" fill="#374957"/>
<path d="M10.9999 20.9275C11.2651 20.9275 11.5195 20.8221 11.707 20.6346C11.8945 20.4471 11.9999 20.1927 11.9999 19.9275V7.92749C11.9999 7.66227 11.8945 7.40792 11.707 7.22038C11.5195 7.03285 11.2651 6.92749 10.9999 6.92749C10.7347 6.92749 10.4803 7.03285 10.2928 7.22038C10.1052 7.40792 9.99988 7.66227 9.99988 7.92749V19.9275C9.99988 20.1927 10.1052 20.4471 10.2928 20.6346C10.4803 20.8221 10.7347 20.9275 10.9999 20.9275Z" fill="#374957"/>
</g>
<defs>
<clipPath id="clip0_507_2275">
<rect width="24" height="24" fill="white" transform="translate(0 0.92749)"/>
</clipPath>
</defs>
</svg>
