<svg width="24" height="25" viewBox="0 0 24 25" fill="none" xmlns="http://www.w3.org/2000/svg">
<g clip-path="url(#clip0_507_2313)">
<path d="M23 18.9275H20V9.92749C19.9984 8.6019 19.4711 7.33105 18.5338 6.39371C17.5964 5.45637 16.3256 4.92908 15 4.92749H6V1.92749C6 1.66227 5.89464 1.40792 5.70711 1.22038C5.51957 1.03285 5.26522 0.92749 5 0.92749C4.73478 0.92749 4.48043 1.03285 4.29289 1.22038C4.10536 1.40792 4 1.66227 4 1.92749V4.92749H1C0.734784 4.92749 0.48043 5.03285 0.292893 5.22038C0.105357 5.40792 0 5.66227 0 5.92749C0 6.19271 0.105357 6.44706 0.292893 6.6346C0.48043 6.82213 0.734784 6.92749 1 6.92749H4V15.9275C4.00159 17.2531 4.52888 18.5239 5.46622 19.4613C6.40356 20.3986 7.67441 20.9259 9 20.9275H18V23.9275C18 24.1927 18.1054 24.4471 18.2929 24.6346C18.4804 24.8221 18.7348 24.9275 19 24.9275C19.2652 24.9275 19.5196 24.8221 19.7071 24.6346C19.8946 24.4471 20 24.1927 20 23.9275V20.9275H23C23.2652 20.9275 23.5196 20.8221 23.7071 20.6346C23.8946 20.4471 24 20.1927 24 19.9275C24 19.6623 23.8946 19.4079 23.7071 19.2204C23.5196 19.0328 23.2652 18.9275 23 18.9275ZM9 18.9275C8.20435 18.9275 7.44129 18.6114 6.87868 18.0488C6.31607 17.4862 6 16.7231 6 15.9275V6.92749H15C15.7956 6.92749 16.5587 7.24356 17.1213 7.80617C17.6839 8.36878 18 9.13184 18 9.92749V18.9275H9Z" fill="#374957"/>
</g>
<defs>
<clipPath id="clip0_507_2313">
<rect width="24" height="24" fill="white" transform="translate(0 0.92749)"/>
</clipPath>
</defs>
</svg>
