<svg width="24" height="25" viewBox="0 0 24 25" fill="none" xmlns="http://www.w3.org/2000/svg">
<g clip-path="url(#clip0_507_2137)">
<path d="M11.9988 12.9275C12.79 12.9275 13.5633 12.6929 14.2211 12.2534C14.8789 11.8138 15.3916 11.1891 15.6944 10.4582C15.9971 9.72731 16.0763 8.92305 15.922 8.14712C15.7676 7.3712 15.3867 6.65847 14.8273 6.09906C14.2679 5.53965 13.5551 5.15868 12.7792 5.00434C12.0033 4.85 11.199 4.92921 10.4681 5.23196C9.7372 5.53472 9.11248 6.04741 8.67296 6.7052C8.23343 7.363 7.99884 8.13636 7.99884 8.92748C7.99884 9.98835 8.42026 11.0058 9.17041 11.7559C9.92055 12.5061 10.938 12.9275 11.9988 12.9275ZM11.9988 6.92748C12.3944 6.92748 12.7811 7.04478 13.11 7.26454C13.4389 7.48431 13.6952 7.79666 13.8466 8.16212C13.998 8.52757 14.0376 8.9297 13.9604 9.31766C13.8832 9.70563 13.6928 10.062 13.413 10.3417C13.1333 10.6214 12.777 10.8119 12.389 10.8891C12.0011 10.9662 11.5989 10.9266 11.2335 10.7752C10.868 10.6239 10.5557 10.3675 10.3359 10.0386C10.1161 9.70972 9.99884 9.32304 9.99884 8.92748C9.99884 8.39705 10.2095 7.88834 10.5846 7.51327C10.9597 7.1382 11.4684 6.92748 11.9988 6.92748ZM20.6588 10.0845L19.9398 9.84548C20.0692 8.72541 19.9604 7.59063 19.6204 6.51557C19.2805 5.44051 18.7172 4.44945 17.9673 3.60737C17.2175 2.7653 16.2982 2.09124 15.2696 1.6294C14.241 1.16755 13.1264 0.92835 11.9988 0.927483C10.8566 0.927924 9.72771 1.17318 8.68825 1.64672C7.64879 2.12026 6.7229 2.81109 5.97296 3.67266C5.22302 4.53423 4.66645 5.54653 4.34075 6.64135C4.01505 7.73617 3.92778 8.88809 4.08484 10.0195C3.12787 10.1979 2.24296 10.6494 1.53684 11.3195C1.04801 11.7842 0.659405 12.344 0.394913 12.9645C0.130422 13.585 -0.00436608 14.253 -0.001165 14.9275V19.0025C0.0009366 20.0838 0.352627 21.1355 1.00143 22.0005C1.65022 22.8656 2.56135 23.4977 3.59884 23.8025L6.46884 24.7025C6.9509 24.8525 7.45297 24.9284 7.95784 24.9275C8.41583 24.9269 8.87163 24.8643 9.31284 24.7415L15.0928 23.0315C15.6078 22.8909 16.1509 22.8909 16.6658 23.0315L19.0528 23.8315C19.6411 23.9747 20.2543 23.9825 20.846 23.8542C21.4377 23.726 21.9926 23.4651 22.4689 23.0912C22.9451 22.7173 23.3303 22.2402 23.5953 21.6958C23.8603 21.1514 23.9983 20.554 23.9988 19.9485V14.7995C23.9966 13.7649 23.6744 12.7563 23.0764 11.912C22.4785 11.0677 21.634 10.429 20.6588 10.0835V10.0845ZM7.75684 4.68948C8.31309 4.13097 8.97417 3.68781 9.70212 3.38541C10.4301 3.08302 11.2106 2.92736 11.9988 2.92736C12.7871 2.92736 13.5676 3.08302 14.2956 3.38541C15.0235 3.68781 15.6846 4.13097 16.2408 4.68948C17.363 5.81863 17.9938 7.3453 17.9958 8.93722C17.9979 10.5291 17.3711 12.0574 16.2518 13.1895L12.6988 16.6445C12.5134 16.8263 12.264 16.9282 12.0043 16.9282C11.7446 16.9282 11.4953 16.8263 11.3098 16.6445L7.75684 13.2045C6.63231 12.0729 6.00114 10.5423 6.00114 8.94698C6.00114 7.35164 6.63231 5.82109 7.75684 4.68948ZM21.9988 19.9485C21.9994 20.2514 21.931 20.5504 21.7986 20.8228C21.6662 21.0952 21.4734 21.3338 21.2348 21.5205C21.0094 21.7017 20.7469 21.831 20.4659 21.8993C20.1849 21.9676 19.8922 21.9731 19.6088 21.9155L17.2638 21.1275C16.3768 20.8727 15.4368 20.8671 14.5468 21.1115L8.76284 22.8195C8.20711 22.9728 7.61899 22.9627 7.06884 22.7905L4.17484 21.8905C3.54849 21.7094 2.99779 21.3299 2.60543 20.8092C2.21307 20.2885 2.00022 19.6545 1.99884 19.0025V14.9275C1.99659 14.5233 2.07704 14.1229 2.23526 13.7509C2.39347 13.3789 2.6261 13.0432 2.91884 12.7645C3.37709 12.3277 3.96085 12.0458 4.58784 11.9585C4.99094 12.9577 5.59122 13.8654 6.35284 14.6275L9.91984 18.0805C10.4773 18.6264 11.2266 18.9321 12.0068 18.9321C12.7871 18.9321 13.5363 18.6264 14.0938 18.0805L17.6568 14.6175C18.4546 13.8165 19.0726 12.8549 19.4698 11.7965L20.0068 11.9745C20.5892 12.1832 21.093 12.5664 21.4495 13.072C21.806 13.5776 21.9978 14.1809 21.9988 14.7995V19.9485Z" fill="#374957"/>
</g>
<defs>
<clipPath id="clip0_507_2137">
<rect width="24" height="24" fill="white" transform="translate(0 0.92749)"/>
</clipPath>
</defs>
</svg>
