<svg width="24" height="25" viewBox="0 0 24 25" fill="none" xmlns="http://www.w3.org/2000/svg">
<g clip-path="url(#clip0_507_1900)">
<path d="M24 23.9275C24 24.1928 23.8947 24.4471 23.7071 24.6347C23.5196 24.8222 23.2652 24.9275 23 24.9275H1.00002C0.734808 24.9275 0.480454 24.8222 0.292918 24.6347C0.105381 24.4471 2.46239e-05 24.1928 2.46239e-05 23.9275C2.46239e-05 23.6623 0.105381 23.408 0.292918 23.2204C0.480454 23.0329 0.734808 22.9275 1.00002 22.9275H23C23.2652 22.9275 23.5196 23.0329 23.7071 23.2204C23.8947 23.408 24 23.6623 24 23.9275ZM0.291025 9.47955C0.0755469 9.07987 -0.0242807 8.62805 0.00274505 8.1748C0.0297708 7.72154 0.18258 7.28479 0.444025 6.91355C0.871283 6.28666 1.44347 5.77211 2.11202 5.41355L9.61303 1.50955C10.3503 1.12618 11.169 0.926025 12 0.926025C12.831 0.926025 13.6498 1.12618 14.387 1.50955L21.887 5.41655C22.5556 5.77511 23.1278 6.28966 23.555 6.91655C23.8165 7.28779 23.9693 7.72454 23.9963 8.1778C24.0233 8.63105 23.9235 9.08287 23.708 9.48255C23.476 9.92138 23.1281 10.2881 22.7021 10.5429C22.2761 10.7977 21.7884 10.9308 21.292 10.9275H21V18.9275H22C22.2652 18.9275 22.5196 19.0329 22.7071 19.2204C22.8947 19.408 23 19.6623 23 19.9275C23 20.1928 22.8947 20.4471 22.7071 20.6347C22.5196 20.8222 22.2652 20.9275 22 20.9275H2.00002C1.73481 20.9275 1.48045 20.8222 1.29292 20.6347C1.10538 20.4471 1.00002 20.1928 1.00002 19.9275C1.00002 19.6623 1.10538 19.408 1.29292 19.2204C1.48045 19.0329 1.73481 18.9275 2.00002 18.9275H3.00003V10.9275H2.70802C2.21118 10.9306 1.72303 10.7973 1.29681 10.5419C0.870596 10.2866 0.522683 9.91909 0.291025 9.47955ZM5.00003 18.9275H8.00003V10.9275H5.00003V18.9275ZM10 10.9275V18.9275H14V10.9275H10ZM19 10.9275H16V18.9275H19V10.9275ZM2.06302 8.55255C2.12577 8.66823 2.21914 8.76441 2.33291 8.83055C2.44668 8.89669 2.57645 8.93025 2.70802 8.92755H21.292C21.4236 8.93025 21.5534 8.89669 21.6671 8.83055C21.7809 8.76441 21.8743 8.66823 21.937 8.55255C21.9827 8.47611 22.0048 8.38788 22.0006 8.29892C21.9963 8.20997 21.9658 8.12425 21.913 8.05255C21.6707 7.69246 21.3452 7.39609 20.964 7.18855L13.464 3.28155C13.012 3.04697 12.5103 2.92452 12.001 2.92452C11.4918 2.92452 10.99 3.04697 10.538 3.28155L3.03803 7.18855C2.65701 7.39675 2.33155 7.6934 2.08902 8.05355C2.03611 8.12495 2.00543 8.21037 2.0008 8.29913C1.99618 8.38788 2.01782 8.47603 2.06302 8.55255Z" fill="#374957"/>
</g>
<defs>
<clipPath id="clip0_507_1900">
<rect width="24" height="24" fill="white" transform="translate(0 0.92749)"/>
</clipPath>
</defs>
</svg>
