<svg width="24" height="25" viewBox="0 0 24 25" fill="none" xmlns="http://www.w3.org/2000/svg">
<g clip-path="url(#clip0_507_1989)">
<path d="M22.375 4.71238C20.8791 3.86089 19.2336 3.30449 17.528 3.07338C17.2697 2.57646 16.9104 2.13908 16.473 1.78938C16.0019 1.41481 15.4518 1.15235 14.8643 1.02189C14.2768 0.891428 13.6673 0.896383 13.082 1.03638C11.831 1.35205 10.6176 1.80165 9.46297 2.37738C8.64329 1.98766 7.72774 1.84546 6.82847 1.96819C5.92919 2.09093 5.08524 2.47327 4.39997 3.06838C4.03297 3.38338 3.66397 3.71238 3.29997 4.05138C2.91797 4.41038 2.52897 4.81838 2.14097 5.26138C1.65481 5.8172 1.30785 6.48069 1.12876 7.19708C0.94966 7.91346 0.943563 8.66218 1.11097 9.38138C1.18825 9.72088 1.3026 10.0509 1.45197 10.3654C0.87233 11.5282 0.419071 12.7499 0.0999666 14.0094C-0.0406312 14.5947 -0.045888 15.2043 0.0845961 15.7919C0.21508 16.3795 0.477868 16.9296 0.852967 17.4004C1.20631 17.8423 1.6494 18.2043 2.15297 18.4624C2.38468 20.1656 2.94071 21.8085 3.79097 23.3024C4.12085 23.895 4.63222 24.3661 5.24984 24.6464C5.86747 24.9267 6.55874 25.0013 7.22197 24.8594C7.90802 24.7235 8.53216 24.3705 9.00217 23.8526C9.47217 23.3347 9.7631 22.6794 9.83197 21.9834C10.0186 20.696 10.357 19.4352 10.84 18.2274C10.84 18.2274 11.385 17.8914 11.634 17.6884C12.2335 17.1855 12.6591 16.5063 12.85 15.7474C13.3123 15.5943 13.7327 15.3358 14.078 14.9924C14.4143 14.6501 14.6686 14.2361 14.822 13.7814C15.5782 13.5895 16.2549 13.1644 16.756 12.5664C16.956 12.3174 17.296 11.7714 17.296 11.7714C18.5012 11.2754 19.7647 10.935 21.056 10.7584C21.7519 10.6895 22.4073 10.3986 22.9252 9.92858C23.4431 9.45858 23.7961 8.83443 23.932 8.14838C24.0762 7.48438 24.0027 6.79157 23.7222 6.17266C23.4417 5.55375 22.9693 5.04169 22.375 4.71238ZM7.83897 21.7604C7.8149 22.0362 7.70164 22.2966 7.51634 22.5023C7.33103 22.708 7.08377 22.8478 6.81197 22.9004C6.56186 22.9573 6.29997 22.9304 6.06667 22.8238C5.83337 22.7171 5.64162 22.5367 5.52097 22.3104C4.91957 21.2571 4.48857 20.1153 4.24397 18.9274H8.14397C8.25297 18.9274 8.35897 18.9054 8.46697 18.8994C8.18097 19.7824 7.83897 21.7564 7.83897 21.7604ZM10.369 16.1344C9.74111 16.6463 8.95608 16.9263 8.14597 16.9274H3.99997C3.69577 16.928 3.39544 16.8593 3.12182 16.7264C2.8482 16.5935 2.6085 16.3999 2.42097 16.1604C2.23391 15.926 2.10273 15.6521 2.0374 15.3594C1.97208 15.0668 1.97432 14.7631 2.04397 14.4714C2.24417 13.6641 2.51177 12.875 2.84397 12.1124C3.15268 12.354 3.49069 12.5556 3.84997 12.7124L10.527 15.6364C10.589 15.6654 10.655 15.6764 10.718 15.7004C10.6285 15.8647 10.5103 16.0117 10.369 16.1344ZM12.654 13.5824C12.4869 13.7518 12.2714 13.8653 12.0371 13.9072C11.8029 13.9491 11.5614 13.9174 11.346 13.8164L4.65297 10.8854C4.25391 10.7105 3.9021 10.4434 3.62653 10.1059C3.35096 9.76845 3.15951 9.37034 3.06797 8.94438C2.97091 8.53148 2.97343 8.10143 3.07532 7.68969C3.17721 7.27796 3.37555 6.89636 3.65397 6.57638C3.99997 6.18238 4.34197 5.82238 4.67697 5.50738C5.01197 5.19238 5.35897 4.88238 5.70397 4.58738C6.02236 4.31028 6.40159 4.11215 6.81089 4.00906C7.22019 3.90597 7.64803 3.90083 8.05969 3.99405C8.47135 4.08727 8.85523 4.27624 9.18019 4.5456C9.50515 4.81497 9.76202 5.15715 9.92997 5.54438L12.894 12.2344C12.9931 12.4574 13.0233 12.7049 12.9805 12.9452C12.9377 13.1854 12.824 13.4073 12.654 13.5824ZM16 9.07338C15.9993 9.88338 15.7196 10.6684 15.208 11.2964C15.0911 11.4318 14.9521 11.5464 14.797 11.6354C14.771 11.5654 14.752 11.4934 14.722 11.4244L11.759 4.73538C11.6092 4.39577 11.4206 4.07463 11.197 3.77838C11.9557 3.44703 12.7408 3.17944 13.544 2.97838C13.8356 2.90859 14.1394 2.90627 14.4321 2.9716C14.7247 3.03693 14.9987 3.16819 15.233 3.35538C15.473 3.54333 15.6669 3.78367 15.7998 4.05803C15.9328 4.33239 16.0012 4.63351 16 4.93838V9.07338ZM21.973 7.73938C21.9203 8.01118 21.7806 8.25845 21.5749 8.44375C21.3692 8.62905 21.1088 8.74231 20.833 8.76638C20.833 8.76638 18.855 9.10838 17.972 9.39638C17.979 9.28838 18 9.18238 18 9.07338V5.17338C19.1879 5.41799 20.3297 5.84898 21.383 6.45038C21.6086 6.57132 21.7884 6.7628 21.8949 6.99556C22.0015 7.22833 22.0289 7.48958 21.973 7.73938Z" fill="#374957"/>
</g>
<defs>
<clipPath id="clip0_507_1989">
<rect width="24" height="24" fill="white" transform="translate(0 0.92749)"/>
</clipPath>
</defs>
</svg>
