<svg width="24" height="25" viewBox="0 0 24 25" fill="none" xmlns="http://www.w3.org/2000/svg">
<g clip-path="url(#clip0_507_2068)">
<path d="M23.681 4.19449C23.4935 4.00702 23.2392 3.9017 22.974 3.9017C22.7088 3.9017 22.4545 4.00702 22.267 4.19449L19.293 7.16749C19.1054 7.35498 19.0001 7.6093 19 7.87449V18.9275C19 19.1927 18.8946 19.4471 18.7071 19.6346C18.5196 19.8221 18.2652 19.9275 18 19.9275H16V5.92749C15.9984 4.6019 15.4711 3.33105 14.5338 2.39371C13.5964 1.45637 12.3256 0.929078 11 0.92749L5 0.92749C3.67441 0.929078 2.40356 1.45637 1.46622 2.39371C0.528882 3.33105 0.00158786 4.6019 0 5.92749L0 19.9275C0.00158786 21.2531 0.528882 22.5239 1.46622 23.4613C2.40356 24.3986 3.67441 24.9259 5 24.9275H11C11.9718 24.9262 12.9221 24.6418 13.7348 24.109C14.5475 23.5762 15.1873 22.8181 15.576 21.9275H18C18.7956 21.9275 19.5587 21.6114 20.1213 21.0488C20.6839 20.4862 21 19.7231 21 18.9275V8.28849L23.681 5.60849C23.8685 5.42096 23.9738 5.16665 23.9738 4.90149C23.9738 4.63633 23.8685 4.38202 23.681 4.19449ZM5 2.92749H11C11.7956 2.92749 12.5587 3.24356 13.1213 3.80617C13.6839 4.36878 14 5.13184 14 5.92749V9.92749H12C11.9961 8.97038 11.6462 8.04695 11.015 7.32749L11.707 6.63449C11.8025 6.54224 11.8787 6.4319 11.9311 6.30989C11.9835 6.18789 12.0111 6.05667 12.0123 5.92389C12.0134 5.79111 11.9881 5.65943 11.9378 5.53654C11.8875 5.41364 11.8133 5.30199 11.7194 5.2081C11.6255 5.1142 11.5139 5.03995 11.391 4.98967C11.2681 4.93939 11.1364 4.91409 11.0036 4.91524C10.8708 4.91639 10.7396 4.94398 10.6176 4.99639C10.4956 5.0488 10.3852 5.12498 10.293 5.22049L9.339 6.17449C8.7369 5.95128 8.08957 5.87777 7.45275 5.96028C6.81593 6.04278 6.2087 6.27884 5.68337 6.64812C5.15803 7.0174 4.73032 7.50884 4.43708 8.08011C4.14383 8.65139 3.99383 9.28538 4 9.92749H2V5.92749C2 5.13184 2.31607 4.36878 2.87868 3.80617C3.44129 3.24356 4.20435 2.92749 5 2.92749ZM6 9.92749C6 9.39706 6.21071 8.88835 6.58579 8.51328C6.96086 8.1382 7.46957 7.92749 8 7.92749C8.53043 7.92749 9.03914 8.1382 9.41421 8.51328C9.78929 8.88835 10 9.39706 10 9.92749H6ZM11 22.9275H5C4.20435 22.9275 3.44129 22.6114 2.87868 22.0488C2.31607 21.4862 2 20.7231 2 19.9275V11.9275H14V19.9275C14 20.7231 13.6839 21.4862 13.1213 22.0488C12.5587 22.6114 11.7956 22.9275 11 22.9275Z" fill="#374957"/>
</g>
<defs>
<clipPath id="clip0_507_2068">
<rect width="24" height="24" fill="white" transform="translate(0 0.92749)"/>
</clipPath>
</defs>
</svg>
