<svg width="24" height="25" viewBox="0 0 24 25" fill="none" xmlns="http://www.w3.org/2000/svg">
<g clip-path="url(#clip0_507_2212)">
<path d="M0 23.9268V16.9268C0.00264685 14.5407 0.951708 12.253 2.63896 10.5658C4.32622 8.87852 6.61386 7.92946 9 7.92682H13.83V6.34082C13.8301 5.94532 13.9474 5.55872 14.1672 5.2299C14.387 4.90108 14.6993 4.64481 15.0647 4.49347C15.4301 4.34213 15.8322 4.30252 16.2201 4.37965C16.608 4.45679 16.9643 4.6472 17.244 4.92682L23.124 10.8058C23.6864 11.3684 24.0024 12.1313 24.0024 12.9268C24.0024 13.7223 23.6864 14.4852 23.124 15.0478L17.244 20.9268C16.9643 21.2064 16.608 21.3968 16.2201 21.474C15.8322 21.5511 15.4301 21.5115 15.0647 21.3602C14.6993 21.2088 14.387 20.9525 14.1672 20.6237C13.9474 20.2949 13.8301 19.9083 13.83 19.5128V17.9268H8C6.40919 17.9284 4.88399 18.561 3.75911 19.6859C2.63424 20.8108 2.00159 22.336 2 23.9268C2 24.192 1.89464 24.4464 1.70711 24.6339C1.51957 24.8214 1.26522 24.9268 1 24.9268C0.734784 24.9268 0.48043 24.8214 0.292893 24.6339C0.105357 24.4464 0 24.192 0 23.9268ZM15.83 8.92682C15.83 9.19203 15.7246 9.44638 15.5371 9.63392C15.3496 9.82146 15.0952 9.92681 14.83 9.92681H9C7.14414 9.92893 5.36489 10.6671 4.05259 11.9794C2.7403 13.2917 2.00212 15.0709 2 16.9268V18.6408C2.74957 17.7877 3.67249 17.1044 4.70715 16.6364C5.74182 16.1684 6.86441 15.9265 8 15.9268H14.83C15.0952 15.9268 15.3496 16.0322 15.5371 16.2197C15.7246 16.4072 15.83 16.6616 15.83 16.9268V19.5128L21.709 13.6338C21.8965 13.4463 22.0018 13.192 22.0018 12.9268C22.0018 12.6616 21.8965 12.4073 21.709 12.2198L15.83 6.34082V8.92682Z" fill="#374957"/>
</g>
<defs>
<clipPath id="clip0_507_2212">
<rect width="24" height="24" fill="white" transform="translate(0 0.92749)"/>
</clipPath>
</defs>
</svg>
