<svg width="24" height="25" viewBox="0 0 24 25" fill="none" xmlns="http://www.w3.org/2000/svg">
<g clip-path="url(#clip0_507_2022)">
<path d="M18.6563 1.85772L6.46426 14.0497C5.99861 14.5129 5.62944 15.0638 5.37815 15.6706C5.12685 16.2773 4.99841 16.928 5.00026 17.5847V18.9277C5.00026 19.1929 5.10562 19.4473 5.29316 19.6348C5.48069 19.8224 5.73505 19.9277 6.00026 19.9277H7.34326C8.00003 19.9296 8.65063 19.8011 9.25742 19.5498C9.86421 19.2985 10.4151 18.9294 10.8783 18.4637L23.0703 6.27171C23.6547 5.68588 23.9828 4.89219 23.9828 4.06472C23.9828 3.23724 23.6547 2.44354 23.0703 1.85772C22.4759 1.28961 21.6854 0.972565 20.8633 0.972565C20.0411 0.972565 19.2506 1.28961 18.6563 1.85772ZM21.6563 4.85772L9.46426 17.0497C8.90039 17.6101 8.13827 17.9256 7.34326 17.9277H7.00026V17.5847C7.00235 16.7897 7.31783 16.0276 7.87826 15.4637L20.0703 3.27172C20.2839 3.06767 20.5679 2.95381 20.8633 2.95381C21.1587 2.95381 21.4427 3.06767 21.6563 3.27172C21.8662 3.48223 21.9841 3.76741 21.9841 4.06472C21.9841 4.36202 21.8662 4.6472 21.6563 4.85772Z" fill="#374957"/>
<path d="M23 9.90649C22.7348 9.90649 22.4804 10.0118 22.2929 10.1994C22.1054 10.3869 22 10.6413 22 10.9065V15.9275H18C17.2044 15.9275 16.4413 16.2436 15.8787 16.8062C15.3161 17.3688 15 18.1318 15 18.9275V22.9275H5C4.20435 22.9275 3.44129 22.6114 2.87868 22.0488C2.31607 21.4862 2 20.7231 2 19.9275V5.92749C2 5.13184 2.31607 4.36878 2.87868 3.80617C3.44129 3.24356 4.20435 2.92749 5 2.92749H14.042C14.3072 2.92749 14.5616 2.82213 14.7491 2.6346C14.9366 2.44706 15.042 2.19271 15.042 1.92749C15.042 1.66227 14.9366 1.40792 14.7491 1.22038C14.5616 1.03285 14.3072 0.92749 14.042 0.92749H5C3.67441 0.929078 2.40356 1.45637 1.46622 2.39371C0.528882 3.33105 0.00158786 4.6019 0 5.92749L0 19.9275C0.00158786 21.2531 0.528882 22.5239 1.46622 23.4613C2.40356 24.3986 3.67441 24.9259 5 24.9275H16.343C16.9999 24.9294 17.6507 24.8009 18.2576 24.5496C18.8646 24.2984 19.4157 23.9292 19.879 23.4635L22.535 20.8055C23.0008 20.3424 23.37 19.7915 23.6215 19.1847C23.873 18.5779 24.0016 17.9273 24 17.2705V10.9065C24 10.6413 23.8946 10.3869 23.7071 10.1994C23.5196 10.0118 23.2652 9.90649 23 9.90649ZM18.465 22.0495C18.063 22.4505 17.5547 22.7281 17 22.8495V18.9275C17 18.6623 17.1054 18.4079 17.2929 18.2204C17.4804 18.0328 17.7348 17.9275 18 17.9275H21.925C21.8013 18.481 21.524 18.9884 21.125 19.3915L18.465 22.0495Z" fill="#374957"/>
</g>
<defs>
<clipPath id="clip0_507_2022">
<rect width="24" height="24" fill="white" transform="translate(0 0.92749)"/>
</clipPath>
</defs>
</svg>
