<svg width="24" height="25" viewBox="0 0 24 25" fill="none" xmlns="http://www.w3.org/2000/svg">
<g clip-path="url(#clip0_507_2214)">
<path d="M12.0002 2.92746C13.3267 2.93181 14.6392 3.1992 15.8617 3.71415C17.0842 4.2291 18.1924 4.98138 19.1222 5.92746H16.0002C15.735 5.92746 15.4806 6.03282 15.2931 6.22036C15.1056 6.40789 15.0002 6.66225 15.0002 6.92746C15.0002 7.19268 15.1056 7.44703 15.2931 7.63457C15.4806 7.8221 15.735 7.92746 16.0002 7.92746H20.1432C20.6356 7.9272 21.1078 7.73146 21.456 7.38327C21.8042 7.03507 21.9999 6.56289 22.0002 6.07046V1.92746C22.0002 1.66224 21.8948 1.40789 21.7073 1.22035C21.5198 1.03282 21.2654 0.927461 21.0002 0.927461C20.735 0.927461 20.4806 1.03282 20.2931 1.22035C20.1056 1.40789 20.0002 1.66224 20.0002 1.92746V4.00546C18.3474 2.51691 16.3128 1.51787 14.1243 1.12021C11.9358 0.722549 9.67983 0.941973 7.60899 1.75391C5.53815 2.56584 3.73422 3.93823 2.39921 5.71739C1.06421 7.49654 0.250844 9.6122 0.0502025 11.8275C0.0372859 11.9667 0.0535183 12.1071 0.0978654 12.2398C0.142213 12.3724 0.213702 12.4944 0.307779 12.5978C0.401856 12.7013 0.516457 12.7841 0.644281 12.8408C0.772104 12.8976 0.910348 12.9271 1.0502 12.9275C1.29479 12.9306 1.53174 12.8423 1.71466 12.6799C1.89759 12.5175 2.01332 12.2927 2.0392 12.0495C2.26182 9.56021 3.40718 7.24416 5.25028 5.5563C7.09339 3.86843 9.50102 2.93075 12.0002 2.92746Z" fill="#374957"/>
<path d="M22.9511 12.9277C22.7065 12.9246 22.4696 13.0129 22.2867 13.1753C22.1037 13.3377 21.988 13.5625 21.9621 13.8057C21.7968 15.709 21.089 17.5248 19.9228 19.0379C18.7565 20.551 17.1807 21.6978 15.3823 22.3423C13.5839 22.9868 11.6383 23.1018 9.77647 22.6738C7.91463 22.2459 6.21462 21.2928 4.87812 19.9277H8.00012C8.26534 19.9277 8.51969 19.8224 8.70723 19.6348C8.89477 19.4473 9.00012 19.193 9.00012 18.9277C9.00012 18.6625 8.89477 18.4082 8.70723 18.2206C8.51969 18.0331 8.26534 17.9277 8.00012 17.9277H3.85712C3.61322 17.9276 3.37168 17.9755 3.14632 18.0688C2.92096 18.1621 2.7162 18.2989 2.54373 18.4713C2.37127 18.6438 2.23449 18.8486 2.14121 19.0739C2.04793 19.2993 1.99999 19.5408 2.00012 19.7847V23.9278C2.00012 24.193 2.10548 24.4473 2.29302 24.6349C2.48055 24.8224 2.73491 24.9278 3.00012 24.9278C3.26534 24.9278 3.51969 24.8224 3.70723 24.6349C3.89477 24.4473 4.00012 24.193 4.00012 23.9278V21.8497C5.65295 23.3383 7.68753 24.3373 9.87602 24.735C12.0645 25.1327 14.3205 24.9132 16.3913 24.1013C18.4622 23.2894 20.2661 21.917 21.6011 20.1378C22.9361 18.3587 23.7495 16.243 23.9501 14.0277C23.963 13.8885 23.9468 13.748 23.9025 13.6154C23.8581 13.4828 23.7866 13.3608 23.6925 13.2573C23.5985 13.1539 23.4839 13.0711 23.356 13.0143C23.2282 12.9576 23.09 12.9281 22.9501 12.9277H22.9511Z" fill="#374957"/>
</g>
<defs>
<clipPath id="clip0_507_2214">
<rect width="24" height="24" fill="white" transform="translate(0 0.92749)"/>
</clipPath>
</defs>
</svg>
