<svg width="24" height="25" viewBox="0 0 24 25" fill="none" xmlns="http://www.w3.org/2000/svg">
<g clip-path="url(#clip0_507_2085)">
<path d="M22.1389 18.7058L13.5919 6.46183C14.9962 5.58259 15.4219 3.7314 14.5427 2.32708C13.6634 0.922747 11.8123 0.497076 10.4079 1.37636C9.0036 2.25564 8.57793 4.10678 9.45721 5.51111C9.6981 5.89586 10.0232 6.22093 10.4079 6.46183L1.86088 18.7058C0.930741 19.9239 0.753179 21.5574 1.39987 22.9468C2.16252 24.2642 3.60834 25.0327 5.1269 24.9278H18.8729C20.3915 25.0327 21.8373 24.2642 22.5999 22.9468C23.2466 21.5574 23.069 19.9239 22.1389 18.7058ZM11.7309 22.9278L17.1889 15.1088L18.5999 17.1358L14.5609 22.9278H11.7309V22.9278ZM6.53891 22.9278L14.5929 11.3898L15.9689 13.3618L9.29188 22.9278H6.53891ZM3.16991 22.0218C2.87333 21.292 2.99999 20.4585 3.49991 19.8498L11.9999 7.67481L13.3809 9.65279C13.3669 9.67079 13.3469 9.67979 13.3339 9.69779L4.1999 22.7868C3.76682 22.6825 3.39491 22.4063 3.16991 22.0218ZM20.8299 22.0218C20.4013 22.6695 19.644 23.0201 18.8729 22.9278H16.9999L19.8219 18.8838L20.4969 19.8498C20.9978 20.458 21.1257 21.2915 20.8299 22.0218Z" fill="#374957"/>
</g>
<defs>
<clipPath id="clip0_507_2085">
<rect width="24" height="24" fill="white" transform="translate(0 0.92749)"/>
</clipPath>
</defs>
</svg>
