<svg width="24" height="25" viewBox="0 0 24 25" fill="none" xmlns="http://www.w3.org/2000/svg">
<path d="M17 23.9274H7.00001C5.67441 23.9258 4.40356 23.3985 3.46623 22.4612C2.52889 21.5238 2.00159 20.253 2.00001 18.9274V11.3734C1.99198 11.2217 1.95318 11.0733 1.88596 10.9372C1.81874 10.801 1.72451 10.68 1.60901 10.5814C1.00139 10.0216 0.542306 9.3196 0.27299 8.53853C0.00367296 7.75746 -0.0674502 6.92173 0.0660064 6.10638C0.482006 3.52738 2.85001 1.92738 6.24201 1.92738H18.848C20.0517 1.91528 21.2212 2.32749 22.1512 3.09168C23.0813 3.85587 23.7125 4.92321 23.934 6.10638C24.0675 6.92245 23.9961 7.7589 23.7263 8.54054C23.4564 9.32219 22.9966 10.0245 22.388 10.5844C22.2732 10.6827 22.1797 10.8034 22.113 10.939C22.0463 11.0747 22.0078 11.2224 22 11.3734V18.9274C21.9984 20.253 21.4711 21.5238 20.5338 22.4612C19.5964 23.3985 18.3256 23.9258 17 23.9274ZM6.24201 3.92738C3.82801 3.92738 2.29701 4.83838 2.04201 6.42738C1.9578 6.91652 1.99832 7.419 2.15983 7.88833C2.32134 8.35765 2.59862 8.77865 2.96601 9.11238C3.2864 9.39639 3.54389 9.74424 3.72196 10.1336C3.90002 10.523 3.99473 10.9453 4.00001 11.3734V18.9274C4.00001 19.723 4.31608 20.4861 4.87869 21.0487C5.4413 21.6113 6.20436 21.9274 7.00001 21.9274H17C17.7957 21.9274 18.5587 21.6113 19.1213 21.0487C19.6839 20.4861 20 19.723 20 18.9274V11.3734C20.0046 10.9451 20.099 10.5226 20.2771 10.1332C20.4552 9.74371 20.7131 9.39595 21.034 9.11238C21.4015 8.7787 21.6789 8.35774 21.8406 7.88842C22.0023 7.41911 22.043 6.91661 21.959 6.42738C21.8168 5.71159 21.427 5.06873 20.8582 4.61159C20.2893 4.15445 19.5776 3.91221 18.848 3.92738H6.24201ZM8.00001 12.9274C7.73479 12.9274 7.48044 13.0327 7.2929 13.2203C7.10536 13.4078 7.00001 13.6622 7.00001 13.9274C7.00001 14.1926 7.10536 14.447 7.2929 14.6345C7.48044 14.822 7.73479 14.9274 8.00001 14.9274C8.26522 14.9274 8.51958 14.822 8.70711 14.6345C8.89465 14.447 9.00001 14.1926 9.00001 13.9274C9.00001 13.6622 8.89465 13.4078 8.70711 13.2203C8.51958 13.0327 8.26522 12.9274 8.00001 12.9274ZM12 16.9274C11.7348 16.9274 11.4804 17.0327 11.2929 17.2203C11.1054 17.4078 11 17.6622 11 17.9274C11 18.1926 11.1054 18.447 11.2929 18.6345C11.4804 18.822 11.7348 18.9274 12 18.9274C12.2652 18.9274 12.5196 18.822 12.7071 18.6345C12.8946 18.447 13 18.1926 13 17.9274C13 17.6622 12.8946 17.4078 12.7071 17.2203C12.5196 17.0327 12.2652 16.9274 12 16.9274ZM8.00001 16.9274C7.73479 16.9274 7.48044 17.0327 7.2929 17.2203C7.10536 17.4078 7.00001 17.6622 7.00001 17.9274C7.00001 18.1926 7.10536 18.447 7.2929 18.6345C7.48044 18.822 7.73479 18.9274 8.00001 18.9274C8.26522 18.9274 8.51958 18.822 8.70711 18.6345C8.89465 18.447 9.00001 18.1926 9.00001 17.9274C9.00001 17.6622 8.89465 17.4078 8.70711 17.2203C8.51958 17.0327 8.26522 16.9274 8.00001 16.9274Z" fill="#374957"/>
</svg>
