<svg width="24" height="25" viewBox="0 0 24 25" fill="none" xmlns="http://www.w3.org/2000/svg">
<g clip-path="url(#clip0_507_2045)">
<path d="M19.9491 6.46394L16.4651 2.97794C15.8164 2.32608 15.045 1.80927 14.1953 1.4574C13.3457 1.10553 12.4347 0.925574 11.5151 0.927941H7.00012C5.67453 0.929528 4.40368 1.45682 3.46634 2.39416C2.529 3.3315 2.00171 4.60235 2.00012 5.92794V19.9279C2.00171 21.2535 2.529 22.5244 3.46634 23.4617C4.40368 24.3991 5.67453 24.9264 7.00012 24.9279H17.0001C18.3257 24.9264 19.5966 24.3991 20.5339 23.4617C21.4712 22.5244 21.9985 21.2535 22.0001 19.9279V11.4129C22.0026 10.4934 21.8226 9.58243 21.4705 8.73291C21.1185 7.8834 20.6014 7.11218 19.9491 6.46394ZM18.5351 7.87794C18.8405 8.19209 19.1031 8.54513 19.3161 8.92794H15.0001C14.7349 8.92794 14.4806 8.82258 14.293 8.63505C14.1055 8.44751 14.0001 8.19316 14.0001 7.92794V3.61194C14.3831 3.82486 14.7364 4.0871 15.0511 4.39194L18.5351 7.87794ZM20.0001 19.9279C20.0001 20.7236 19.6841 21.4867 19.1214 22.0493C18.5588 22.6119 17.7958 22.9279 17.0001 22.9279H7.00012C6.20447 22.9279 5.44141 22.6119 4.8788 22.0493C4.31619 21.4867 4.00012 20.7236 4.00012 19.9279V5.92794C4.00012 5.13229 4.31619 4.36923 4.8788 3.80662C5.44141 3.24401 6.20447 2.92794 7.00012 2.92794H11.5151C11.6791 2.92794 11.8381 2.95994 12.0001 2.97494V7.92794C12.0001 8.72359 12.3162 9.48665 12.8788 10.0493C13.4414 10.6119 14.2045 10.9279 15.0001 10.9279H19.9531C19.9681 11.0899 20.0001 11.2479 20.0001 11.4129V19.9279Z" fill="#374957"/>
</g>
<defs>
<clipPath id="clip0_507_2045">
<rect width="24" height="24" fill="white" transform="translate(0 0.92749)"/>
</clipPath>
</defs>
</svg>
