<svg width="24" height="25" viewBox="0 0 24 25" fill="none" xmlns="http://www.w3.org/2000/svg">
<g clip-path="url(#clip0_507_1926)">
<path d="M21.4999 13.8595C23.0389 12.3756 23.9362 10.3484 23.9999 8.21149C23.9999 2.55749 21.2329 1.94749 20.0439 1.94749C17.0759 1.94749 14.1599 4.84749 12.0029 7.46849C9.86187 4.86949 6.93687 1.94749 3.96088 1.94749C-0.188118 1.68749 -1.70612 10.0185 2.50588 13.8605C2.68188 14.0345 2.86488 14.1975 3.04988 14.3505C2.16929 15.1946 1.54176 16.2677 1.23789 17.4491C0.934026 18.6305 0.965883 19.8732 1.32988 21.0375C1.49803 21.6104 1.7917 22.1387 2.18954 22.5839C2.58738 23.0292 3.07941 23.3802 3.62988 23.6115C4.16379 23.8399 4.74185 23.9467 5.32214 23.924C5.90242 23.9014 6.47039 23.7499 6.98487 23.4805C8.46458 22.7131 9.8185 21.7244 10.9999 20.5485V22.9275C10.9999 23.1927 11.1052 23.4471 11.2928 23.6346C11.4803 23.8221 11.7347 23.9275 11.9999 23.9275C12.2651 23.9275 12.5194 23.8221 12.707 23.6346C12.8945 23.4471 12.9999 23.1927 12.9999 22.9275V20.5485C14.1819 21.7247 15.5369 22.7131 17.0179 23.4795C17.5322 23.7492 18.1002 23.901 18.6805 23.9238C19.2608 23.9467 19.8389 23.84 20.3729 23.6115C20.9232 23.3802 21.4151 23.0293 21.8129 22.5843C22.2108 22.1392 22.5045 21.6112 22.6729 21.0385C23.0491 19.8728 23.0919 18.625 22.7962 17.4363C22.5006 16.2475 21.8784 15.1652 20.9999 14.3115C21.1709 14.1695 21.3379 14.0195 21.4999 13.8595ZM10.9999 16.5635C10.9999 18.0415 8.91987 20.2055 6.05288 21.7095C5.80067 21.8431 5.52149 21.918 5.23626 21.9284C4.95102 21.9387 4.66713 21.8844 4.40588 21.7695C4.12841 21.6524 3.88051 21.475 3.6802 21.2501C3.47989 21.0253 3.33221 20.7586 3.24788 20.4695C2.96056 19.5705 2.95671 18.6049 3.23685 17.7037C3.51699 16.8024 4.06756 16.0092 4.81388 15.4315C5.57082 15.7526 6.38368 15.9211 7.20587 15.9275C8.50487 15.9453 9.79449 15.705 10.9999 15.2205V16.5635ZM10.9999 12.9125C9.86839 13.6518 8.52912 14.0077 7.17987 13.9275C6.56231 13.9136 5.954 13.7744 5.39188 13.5183C4.82976 13.2621 4.32556 12.8944 3.90988 12.4375C2.75736 11.3255 2.077 9.8126 2.00988 8.21249C2.00988 5.50249 2.72288 3.94849 3.96488 3.94849C5.74588 3.94749 8.10587 5.78549 10.9999 9.41849V12.9125ZM12.9999 9.42749C15.8799 5.79749 18.2519 3.94749 20.0439 3.94749C21.2869 3.94749 21.9999 5.50149 21.9999 8.21149C21.9325 9.81155 21.2522 11.3244 20.0999 12.4365C19.2607 13.3383 18.1005 13.8739 16.8699 13.9275C15.5042 14.0075 14.1487 13.6502 12.9999 12.9075V9.42749ZM20.7519 20.4755C20.6677 20.7647 20.52 21.0314 20.3197 21.2563C20.1194 21.4812 19.8714 21.6586 19.5939 21.7755C19.3325 21.8902 19.0486 21.9443 18.7634 21.9338C18.4781 21.9232 18.199 21.8482 17.9469 21.7145C15.0799 20.2055 12.9999 18.0415 12.9999 16.5635V15.2185C14.207 15.7045 15.4987 15.9455 16.7999 15.9275C17.6343 15.9252 18.4593 15.7516 19.2239 15.4175C19.9743 15.9949 20.5252 16.7928 20.7992 17.6992C21.0732 18.6056 21.0567 19.575 20.7519 20.4715V20.4755ZM9.99987 2.92749C9.99987 2.39706 10.2106 1.88835 10.5857 1.51328C10.9607 1.1382 11.4694 0.92749 11.9999 0.92749C12.5303 0.92749 13.039 1.1382 13.4141 1.51328C13.7892 1.88835 13.9999 2.39706 13.9999 2.92749C13.9999 3.45792 13.7892 3.96663 13.4141 4.3417C13.039 4.71678 12.5303 4.92749 11.9999 4.92749C11.4694 4.92749 10.9607 4.71678 10.5857 4.3417C10.2106 3.96663 9.99987 3.45792 9.99987 2.92749Z" fill="#374957"/>
</g>
<defs>
<clipPath id="clip0_507_1926">
<rect width="24" height="24" fill="white" transform="translate(0 0.92749)"/>
</clipPath>
</defs>
</svg>
