<svg width="24" height="25" viewBox="0 0 24 25" fill="none" xmlns="http://www.w3.org/2000/svg">
<g clip-path="url(#clip0_507_2239)">
<path d="M12.0001 15.9276C11.7349 15.9276 11.4806 15.8222 11.293 15.6347C11.1055 15.4472 11.0001 15.1928 11.0001 14.9276V6.92761C11.0001 6.66239 11.1055 6.40804 11.293 6.2205C11.4806 6.03296 11.7349 5.92761 12.0001 5.92761C12.2653 5.92761 12.5197 6.03296 12.7072 6.2205C12.8948 6.40804 13.0001 6.66239 13.0001 6.92761V14.9276C13.0001 15.1928 12.8948 15.4472 12.7072 15.6347C12.5197 15.8222 12.2653 15.9276 12.0001 15.9276ZM12.7931 24.6876C14.9531 23.8196 22.0001 20.4066 22.0001 12.9706V7.79961C22.0012 6.74862 21.6707 5.72408 21.0555 4.87192C20.4404 4.01976 19.572 3.38345 18.5741 3.05361L12.3151 0.978606C12.1108 0.909638 11.8895 0.909638 11.6851 0.978606L5.42613 3.05361C4.42824 3.38345 3.55987 4.01976 2.94473 4.87192C2.32958 5.72408 1.99902 6.74862 2.00012 7.79961V12.9706C2.00012 19.5326 9.00513 23.5466 11.1531 24.6206C11.4248 24.7502 11.7085 24.8531 12.0001 24.9276C12.2713 24.8722 12.5367 24.7918 12.7931 24.6876ZM17.9441 4.95161C18.5427 5.15002 19.0634 5.53198 19.4325 6.04324C19.8016 6.5545 20.0002 7.16905 20.0001 7.79961V12.9706C20.0001 19.1536 13.9131 22.0816 12.0471 22.8316C10.1591 21.8876 4.00013 18.3866 4.00013 12.9706V7.79961C4.00004 7.16905 4.19865 6.5545 4.56773 6.04324C4.93681 5.53198 5.4576 5.15002 6.05613 4.95161L12.0001 2.98161L17.9441 4.95161ZM12.0001 17.9276C11.8023 17.9276 11.609 17.9863 11.4446 18.0961C11.2801 18.206 11.1519 18.3622 11.0762 18.5449C11.0006 18.7276 10.9808 18.9287 11.0193 19.1227C11.0579 19.3167 11.1532 19.4949 11.293 19.6347C11.4329 19.7746 11.6111 19.8698 11.805 19.9084C11.999 19.947 12.2001 19.9272 12.3828 19.8515C12.5655 19.7758 12.7217 19.6476 12.8316 19.4832C12.9415 19.3187 13.0001 19.1254 13.0001 18.9276C13.0001 18.6624 12.8948 18.408 12.7072 18.2205C12.5197 18.033 12.2653 17.9276 12.0001 17.9276Z" fill="#374957"/>
</g>
<defs>
<clipPath id="clip0_507_2239">
<rect width="24" height="24" fill="white" transform="translate(0 0.92749)"/>
</clipPath>
</defs>
</svg>
