<svg width="24" height="25" viewBox="0 0 24 25" fill="none" xmlns="http://www.w3.org/2000/svg">
<g clip-path="url(#clip0_507_2303)">
<path d="M9 24.9269H1C0.734784 24.9269 0.48043 24.8215 0.292893 24.634C0.105357 24.4464 0 24.1921 0 23.9269C0 23.6617 0.105357 23.4073 0.292893 23.2198C0.48043 23.0322 0.734784 22.9269 1 22.9269H9C9.26522 22.9269 9.51957 23.0322 9.70711 23.2198C9.89464 23.4073 10 23.6617 10 23.9269C10 24.1921 9.89464 24.4464 9.70711 24.634C9.51957 24.8215 9.26522 24.9269 9 24.9269Z" fill="#374957"/>
<path d="M7 20.9275H1C0.734784 20.9275 0.48043 20.8221 0.292893 20.6346C0.105357 20.4471 0 20.1927 0 19.9275C0 19.6623 0.105357 19.4079 0.292893 19.2204C0.48043 19.0328 0.734784 18.9275 1 18.9275H7C7.26522 18.9275 7.51957 19.0328 7.70711 19.2204C7.89464 19.4079 8 19.6623 8 19.9275C8 20.1927 7.89464 20.4471 7.70711 20.6346C7.51957 20.8221 7.26522 20.9275 7 20.9275Z" fill="#374957"/>
<path d="M5 16.9281H1C0.734784 16.9281 0.48043 16.8228 0.292893 16.6352C0.105357 16.4477 0 16.1933 0 15.9281C0 15.6629 0.105357 15.4085 0.292893 15.221C0.48043 15.0335 0.734784 14.9281 1 14.9281H5C5.26522 14.9281 5.51957 15.0335 5.70711 15.221C5.89464 15.4085 6 15.6629 6 15.9281C6 16.1933 5.89464 16.4477 5.70711 16.6352C5.51957 16.8228 5.26522 16.9281 5 16.9281Z" fill="#374957"/>
<path d="M13.0002 24.8821C12.735 24.8939 12.476 24.7998 12.2801 24.6206C12.0842 24.4414 11.9675 24.1918 11.9557 23.9266C11.9439 23.6613 12.0379 23.4023 12.2171 23.2064C12.3963 23.0105 12.646 22.8939 12.9112 22.8821C14.8037 22.7089 16.6076 22.0001 18.1117 20.8386C19.6159 19.6772 20.7579 18.1112 21.4041 16.3241C22.0503 14.537 22.1739 12.6027 21.7604 10.7479C21.347 8.89303 20.4135 7.19441 19.0695 5.85096C17.7254 4.50751 16.0264 3.57485 14.1713 3.16222C12.3163 2.7496 10.3821 2.87409 8.59529 3.52112C6.80847 4.16814 5.243 5.31091 4.08225 6.81558C2.92149 8.32025 2.21351 10.1245 2.04122 12.0171C2.01735 12.2812 1.88953 12.5251 1.68586 12.695C1.4822 12.8649 1.21938 12.9469 0.955226 12.9231C0.69107 12.8992 0.447216 12.7714 0.277309 12.5677C0.107401 12.364 0.0253573 12.1012 0.0492268 11.8371C0.328115 8.76036 1.78283 5.90976 4.11055 3.87862C6.43827 1.84749 9.45966 0.79232 12.5458 0.932768C15.6319 1.07322 18.5449 2.39846 20.6785 4.63262C22.8121 6.86679 24.0019 9.83775 24.0002 12.9271C24.0155 15.9254 22.9016 18.8196 20.8801 21.0341C18.8586 23.2485 16.0775 24.6208 13.0902 24.8781C13.0602 24.8811 13.0292 24.8821 13.0002 24.8821Z" fill="#374957"/>
<path d="M12.0001 6.92749C11.7349 6.92749 11.4806 7.03285 11.293 7.22038C11.1055 7.40792 11.0001 7.66227 11.0001 7.92749V12.9275C11.0002 13.1927 11.1056 13.447 11.2931 13.6345L14.2931 16.6345C14.4817 16.8166 14.7343 16.9174 14.9965 16.9152C15.2587 16.9129 15.5095 16.8077 15.6949 16.6223C15.8803 16.4369 15.9855 16.1861 15.9878 15.9239C15.9901 15.6617 15.8893 15.4091 15.7071 15.2205L13.0001 12.5135V7.92749C13.0001 7.66227 12.8948 7.40792 12.7072 7.22038C12.5197 7.03285 12.2653 6.92749 12.0001 6.92749Z" fill="#374957"/>
</g>
<defs>
<clipPath id="clip0_507_2303">
<rect width="24" height="24" fill="white" transform="translate(0 0.92749)"/>
</clipPath>
</defs>
</svg>
