<svg width="24" height="25" viewBox="0 0 24 25" fill="none" xmlns="http://www.w3.org/2000/svg">
<g clip-path="url(#clip0_507_2341)">
<path d="M24.0002 8.42688C24.0028 7.03358 23.6166 5.66718 22.8849 4.48145C22.1532 3.29571 21.1052 2.3377 19.8587 1.71522C18.6121 1.09274 17.2166 0.830492 15.8292 0.957985C14.4417 1.08548 13.1174 1.59765 12.0052 2.43688C11.1062 1.75904 10.0661 1.29228 8.96217 1.07125C7.85819 0.850211 6.71862 0.880561 5.62797 1.16005C4.53733 1.43953 3.5236 1.96098 2.66199 2.68571C1.80038 3.41045 1.11299 4.31987 0.650805 5.34651C0.188625 6.37316 -0.0364836 7.49069 -0.00782325 8.61621C0.0208371 9.74173 0.302531 10.8464 0.816364 11.8482C1.3302 12.8499 2.06298 13.7232 2.96036 14.4031C3.85775 15.0831 4.8967 15.5523 6.00015 15.7759V19.9269H4.00015C3.73494 19.9269 3.48058 20.0322 3.29305 20.2198C3.10551 20.4073 3.00015 20.6617 3.00015 20.9269C3.00015 21.1921 3.10551 21.4464 3.29305 21.634C3.48058 21.8215 3.73494 21.9269 4.00015 21.9269H6.00015V23.9269C6.00015 24.1921 6.10551 24.4464 6.29305 24.634C6.48058 24.8215 6.73494 24.9269 7.00015 24.9269C7.26537 24.9269 7.51972 24.8215 7.70726 24.634C7.8948 24.4464 8.00015 24.1921 8.00015 23.9269V21.9269H10.0002C10.2654 21.9269 10.5197 21.8215 10.7073 21.634C10.8948 21.4464 11.0002 21.1921 11.0002 20.9269C11.0002 20.6617 10.8948 20.4073 10.7073 20.2198C10.5197 20.0322 10.2654 19.9269 10.0002 19.9269H8.00015V15.9029C9.45168 15.8096 10.8441 15.293 12.0052 14.4169C13.164 15.2901 14.5524 15.8061 16.0002 15.9019V19.9269H14.0002C13.7349 19.9269 13.4806 20.0322 13.293 20.2198C13.1055 20.4073 13.0002 20.6617 13.0002 20.9269C13.0002 21.1921 13.1055 21.4464 13.293 21.634C13.4806 21.8215 13.7349 21.9269 14.0002 21.9269H16.0002V23.9269C16.0002 24.1921 16.1055 24.4464 16.293 24.634C16.4806 24.8215 16.7349 24.9269 17.0002 24.9269C17.2654 24.9269 17.5197 24.8215 17.7073 24.634C17.8948 24.4464 18.0002 24.1921 18.0002 23.9269V21.9269H20.0002C20.2654 21.9269 20.5197 21.8215 20.7073 21.634C20.8948 21.4464 21.0002 21.1921 21.0002 20.9269C21.0002 20.6617 20.8948 20.4073 20.7073 20.2198C20.5197 20.0322 20.2654 19.9269 20.0002 19.9269H18.0002V15.7759C19.6929 15.4279 21.2139 14.5069 22.3069 13.1682C23.3998 11.8296 23.9978 10.155 24.0002 8.42688ZM22.0002 8.42688C22.0002 9.51468 21.6776 10.578 21.0732 11.4825C20.4689 12.387 19.6099 13.0919 18.6049 13.5082C17.5999 13.9245 16.4941 14.0334 15.4272 13.8212C14.3603 13.609 13.3803 13.0852 12.6111 12.316C11.8419 11.5468 11.3181 10.5668 11.1058 9.49988C10.8936 8.43298 11.0025 7.32711 11.4188 6.32212C11.8351 5.31713 12.54 4.45814 13.4445 3.8538C14.349 3.24945 15.4124 2.92688 16.5002 2.92688C17.9584 2.92847 19.3564 3.50844 20.3875 4.53955C21.4186 5.57065 21.9986 6.96868 22.0002 8.42688ZM2.00015 8.42688C1.99841 7.42985 2.26821 6.45117 2.78059 5.59588C3.29298 4.74059 4.02861 4.04098 4.90852 3.57213C5.78844 3.10329 6.77942 2.88292 7.7751 2.93467C8.77079 2.98642 9.73358 3.30834 10.5602 3.86588C9.54899 5.17127 9.00027 6.77567 9.00027 8.42688C9.00027 10.0781 9.54899 11.6825 10.5602 12.9879C9.73358 13.5454 8.77079 13.8673 7.7751 13.9191C6.77942 13.9708 5.78844 13.7505 4.90852 13.2816C4.02861 12.8128 3.29298 12.1132 2.78059 11.2579C2.26821 10.4026 1.99841 9.42391 2.00015 8.42688Z" fill="#374957"/>
</g>
<defs>
<clipPath id="clip0_507_2341">
<rect width="24" height="24" fill="white" transform="translate(0 0.92749)"/>
</clipPath>
</defs>
</svg>
