<svg width="24" height="25" viewBox="0 0 24 25" fill="none" xmlns="http://www.w3.org/2000/svg">
<g clip-path="url(#clip0_507_2317)">
<path d="M19.99 15.9283H1C0.734784 15.9283 0.48043 16.0337 0.292893 16.2212C0.105357 16.4087 0 16.6631 0 16.9283C0 17.1935 0.105357 17.4479 0.292893 17.6354C0.48043 17.8229 0.734784 17.9283 1 17.9283H19.99C20.618 17.9294 21.2375 17.7826 21.7982 17.4998C22.359 17.217 22.8452 16.8062 23.2177 16.3005C23.5901 15.7949 23.8383 15.2086 23.9421 14.5892C24.0458 13.9699 24.0023 13.3347 23.815 12.7353C22.9307 9.88618 21.1556 7.39592 18.7508 5.63062C16.3459 3.86533 13.4382 2.91814 10.455 2.9283H1C0.734784 2.9283 0.48043 3.03366 0.292893 3.2212C0.105357 3.40873 0 3.66309 0 3.9283C0 4.19352 0.105357 4.44787 0.292893 4.63541C0.48043 4.82295 0.734784 4.9283 1 4.9283H4V7.9283H1C0.734784 7.9283 0.48043 8.03366 0.292893 8.2212C0.105357 8.40873 0 8.66309 0 8.9283C0 9.19352 0.105357 9.44787 0.292893 9.63541C0.48043 9.82295 0.734784 9.9283 1 9.9283H20.213C20.9545 10.9668 21.5263 12.1164 21.907 13.3343C22.0014 13.6324 22.0234 13.9487 21.9712 14.2571C21.9191 14.5654 21.7942 14.8568 21.607 15.1073C21.4217 15.3623 21.1785 15.5698 20.8973 15.7125C20.6162 15.8552 20.3053 15.9292 19.99 15.9283ZM9 7.9283H6V4.9283H9V7.9283ZM11 7.9283V4.9503C13.7373 5.06468 16.3523 6.11603 18.407 7.9283H11Z" fill="#374957"/>
<path d="M23 20.9281H1C0.734784 20.9281 0.48043 21.0335 0.292893 21.221C0.105357 21.4086 0 21.6629 0 21.9281C0 22.1934 0.105357 22.4477 0.292893 22.6352C0.48043 22.8228 0.734784 22.9281 1 22.9281H23C23.2652 22.9281 23.5196 22.8228 23.7071 22.6352C23.8946 22.4477 24 22.1934 24 21.9281C24 21.6629 23.8946 21.4086 23.7071 21.221C23.5196 21.0335 23.2652 20.9281 23 20.9281Z" fill="#374957"/>
</g>
<defs>
<clipPath id="clip0_507_2317">
<rect width="24" height="24" fill="white" transform="translate(0 0.92749)"/>
</clipPath>
</defs>
</svg>
