<svg width="24" height="25" viewBox="0 0 24 25" fill="none" xmlns="http://www.w3.org/2000/svg">
<g clip-path="url(#clip0_507_1864)">
<path d="M1 6.92749H23C23.2652 6.92749 23.5196 6.82213 23.7071 6.63459C23.8946 6.44706 24 6.1927 24 5.92749C24 5.66227 23.8946 5.40792 23.7071 5.22038C23.5196 5.03285 23.2652 4.92749 23 4.92749H1C0.734784 4.92749 0.48043 5.03285 0.292893 5.22038C0.105357 5.40792 0 5.66227 0 5.92749C0 6.1927 0.105357 6.44706 0.292893 6.63459C0.48043 6.82213 0.734784 6.92749 1 6.92749Z" fill="#374957"/>
<path d="M23.0001 9.92749H9.00012C8.73491 9.92749 8.48055 10.0328 8.29302 10.2204C8.10548 10.4079 8.00012 10.6623 8.00012 10.9275C8.00012 11.1927 8.10548 11.4471 8.29302 11.6346C8.48055 11.8221 8.73491 11.9275 9.00012 11.9275H23.0001C23.2653 11.9275 23.5197 11.8221 23.7072 11.6346C23.8948 11.4471 24.0001 11.1927 24.0001 10.9275C24.0001 10.6623 23.8948 10.4079 23.7072 10.2204C23.5197 10.0328 23.2653 9.92749 23.0001 9.92749Z" fill="#374957"/>
<path d="M23.0001 19.9275H9.00012C8.73491 19.9275 8.48055 20.0328 8.29302 20.2204C8.10548 20.4079 8.00012 20.6623 8.00012 20.9275C8.00012 21.1927 8.10548 21.4471 8.29302 21.6346C8.48055 21.8221 8.73491 21.9275 9.00012 21.9275H23.0001C23.2653 21.9275 23.5197 21.8221 23.7072 21.6346C23.8948 21.4471 24.0001 21.1927 24.0001 20.9275C24.0001 20.6623 23.8948 20.4079 23.7072 20.2204C23.5197 20.0328 23.2653 19.9275 23.0001 19.9275Z" fill="#374957"/>
<path d="M23 14.9275H1C0.734784 14.9275 0.48043 15.0328 0.292893 15.2204C0.105357 15.4079 0 15.6623 0 15.9275C0 16.1927 0.105357 16.4471 0.292893 16.6346C0.48043 16.8221 0.734784 16.9275 1 16.9275H23C23.2652 16.9275 23.5196 16.8221 23.7071 16.6346C23.8946 16.4471 24 16.1927 24 15.9275C24 15.6623 23.8946 15.4079 23.7071 15.2204C23.5196 15.0328 23.2652 14.9275 23 14.9275Z" fill="#374957"/>
</g>
<defs>
<clipPath id="clip0_507_1864">
<rect width="24" height="24" fill="white" transform="translate(0 0.92749)"/>
</clipPath>
</defs>
</svg>
