<svg width="24" height="25" viewBox="0 0 24 25" fill="none" xmlns="http://www.w3.org/2000/svg">
<g clip-path="url(#clip0_507_2154)">
<path d="M16 0.927483H8C6.67441 0.92907 5.40356 1.45636 4.46622 2.3937C3.52888 3.33104 3.00159 4.60189 3 5.92748V19.9275C3.00159 21.2531 3.52888 22.5239 4.46622 23.4613C5.40356 24.3986 6.67441 24.9259 8 24.9275H16C17.3256 24.9259 18.5964 24.3986 19.5338 23.4613C20.4711 22.5239 20.9984 21.2531 21 19.9275V5.92748C20.9984 4.60189 20.4711 3.33104 19.5338 2.3937C18.5964 1.45636 17.3256 0.92907 16 0.927483V0.927483ZM19 19.9275C19 20.7231 18.6839 21.4862 18.1213 22.0488C17.5587 22.6114 16.7956 22.9275 16 22.9275H13V21.9275C13 21.6623 12.8946 21.4079 12.7071 21.2204C12.5196 21.0328 12.2652 20.9275 12 20.9275C11.7348 20.9275 11.4804 21.0328 11.2929 21.2204C11.1054 21.4079 11 21.6623 11 21.9275V22.9275H8C7.20435 22.9275 6.44129 22.6114 5.87868 22.0488C5.31607 21.4862 5 20.7231 5 19.9275V5.92748C5 5.13183 5.31607 4.36877 5.87868 3.80616C6.44129 3.24355 7.20435 2.92748 8 2.92748H16C16.7956 2.92748 17.5587 3.24355 18.1213 3.80616C18.6839 4.36877 19 5.13183 19 5.92748V19.9275ZM16 16.9275C16 17.1927 15.8946 17.4471 15.7071 17.6346C15.5196 17.8221 15.2652 17.9275 15 17.9275H9C8.73478 17.9275 8.48043 17.8221 8.29289 17.6346C8.10536 17.4471 8 17.1927 8 16.9275C8 16.6623 8.10536 16.4079 8.29289 16.2204C8.48043 16.0328 8.73478 15.9275 9 15.9275H15C15.2652 15.9275 15.5196 16.0328 15.7071 16.2204C15.8946 16.4079 16 16.6623 16 16.9275ZM10 13.9275C10.2652 13.9275 10.5196 13.8221 10.7071 13.6346C10.8946 13.4471 11 13.1927 11 12.9275V11.9275H13V12.9275C13 13.1927 13.1054 13.4471 13.2929 13.6346C13.4804 13.8221 13.7348 13.9275 14 13.9275C14.2652 13.9275 14.5196 13.8221 14.7071 13.6346C14.8946 13.4471 15 13.1927 15 12.9275V8.92748C15 8.13183 14.6839 7.36877 14.1213 6.80616C13.5587 6.24355 12.7956 5.92748 12 5.92748C11.2044 5.92748 10.4413 6.24355 9.87868 6.80616C9.31607 7.36877 9 8.13183 9 8.92748V12.9275C9 13.1927 9.10536 13.4471 9.29289 13.6346C9.48043 13.8221 9.73478 13.9275 10 13.9275ZM12 7.92748C12.2652 7.92748 12.5196 8.03284 12.7071 8.22038C12.8946 8.40791 13 8.66227 13 8.92748V9.92748H11V8.92748C11 8.66227 11.1054 8.40791 11.2929 8.22038C11.4804 8.03284 11.7348 7.92748 12 7.92748Z" fill="#374957"/>
</g>
<defs>
<clipPath id="clip0_507_2154">
<rect width="24" height="24" fill="white" transform="translate(0 0.92749)"/>
</clipPath>
</defs>
</svg>
