<svg width="24" height="25" viewBox="0 0 24 25" fill="none" xmlns="http://www.w3.org/2000/svg">
<g clip-path="url(#clip0_507_2300)">
<path d="M23.0001 18.9281H20.0001V15.9281C20.0001 15.6629 19.8948 15.4085 19.7072 15.221C19.5197 15.0335 19.2653 14.9281 19.0001 14.9281C18.7349 14.9281 18.4806 15.0335 18.293 15.221C18.1055 15.4085 18.0001 15.6629 18.0001 15.9281V18.9281H15.0001C14.7349 18.9281 14.4806 19.0335 14.293 19.221C14.1055 19.4085 14.0001 19.6629 14.0001 19.9281C14.0001 20.1933 14.1055 20.4477 14.293 20.6352C14.4806 20.8227 14.7349 20.9281 15.0001 20.9281H18.0001V23.9281C18.0001 24.1933 18.1055 24.4477 18.293 24.6352C18.4806 24.8227 18.7349 24.9281 19.0001 24.9281C19.2653 24.9281 19.5197 24.8227 19.7072 24.6352C19.8948 24.4477 20.0001 24.1933 20.0001 23.9281V20.9281H23.0001C23.2653 20.9281 23.5197 20.8227 23.7072 20.6352C23.8948 20.4477 24.0001 20.1933 24.0001 19.9281C24.0001 19.6629 23.8948 19.4085 23.7072 19.221C23.5197 19.0335 23.2653 18.9281 23.0001 18.9281Z" fill="#374957"/>
<path d="M11.0002 7.92749V12.5135L8.2932 15.2205C8.19769 15.3127 8.12151 15.4231 8.0691 15.5451C8.01669 15.6671 7.98911 15.7983 7.98795 15.9311C7.9868 16.0639 8.0121 16.1955 8.06238 16.3184C8.11266 16.4413 8.18692 16.553 8.28081 16.6469C8.3747 16.7408 8.48635 16.815 8.60925 16.8653C8.73214 16.9156 8.86382 16.9409 8.9966 16.9397C9.12938 16.9386 9.2606 16.911 9.3826 16.8586C9.50461 16.8062 9.61495 16.73 9.7072 16.6345L12.7072 13.6345C12.8947 13.447 13.0001 13.1927 13.0002 12.9275V7.92749C13.0002 7.66227 12.8948 7.40792 12.7073 7.22038C12.5198 7.03285 12.2654 6.92749 12.0002 6.92749C11.735 6.92749 11.4806 7.03285 11.2931 7.22038C11.1056 7.40792 11.0002 7.66227 11.0002 7.92749Z" fill="#374957"/>
<path d="M14.7279 22.5518C12.6014 23.1512 10.3361 23.0283 8.28689 22.2024C6.23767 21.3765 4.52023 19.8943 3.40355 17.9879C2.28687 16.0815 1.83402 13.8585 2.11593 11.6672C2.39783 9.47587 3.39857 7.43992 4.96141 5.87822C6.52425 4.31651 8.56092 3.31725 10.7525 3.03693C12.944 2.75662 15.1666 3.21108 17.0722 4.32913C18.9778 5.44719 20.4588 7.16571 21.2832 9.21553C22.1076 11.2654 22.2288 13.5307 21.6279 15.6568C21.5873 15.7846 21.5727 15.9193 21.5852 16.0529C21.5977 16.1864 21.6369 16.3161 21.7005 16.4342C21.7641 16.5523 21.8508 16.6564 21.9555 16.7403C22.0601 16.8242 22.1806 16.8861 22.3097 16.9225C22.4388 16.9589 22.5739 16.9689 22.707 16.952C22.84 16.9351 22.9683 16.8915 23.0842 16.824C23.2001 16.7565 23.3013 16.6664 23.3816 16.559C23.462 16.4515 23.5199 16.3291 23.5519 16.1988C24.2733 13.6456 24.1274 10.9252 23.1371 8.46378C22.1467 6.00236 20.3679 3.93899 18.0792 2.5969C15.7904 1.25481 13.1212 0.709832 10.4896 1.04733C7.85794 1.38483 5.4126 2.58575 3.53663 4.46194C1.66066 6.33814 0.460044 8.78362 0.122862 11.4153C-0.21432 14.047 0.330985 16.7161 1.67335 19.0047C3.01571 21.2932 5.0793 23.0719 7.54084 24.0619C10.0024 25.052 12.7228 25.1975 15.2759 24.4758C15.4051 24.4426 15.5263 24.3839 15.6324 24.3032C15.7385 24.2225 15.8274 24.1213 15.8939 24.0058C15.9603 23.8902 16.003 23.7624 16.0194 23.6301C16.0357 23.4978 16.0255 23.3635 15.9892 23.2352C15.9529 23.1069 15.8914 22.9872 15.8081 22.883C15.7249 22.7789 15.6217 22.6924 15.5045 22.6287C15.3874 22.565 15.2587 22.5254 15.126 22.5122C14.9933 22.499 14.8593 22.5125 14.7319 22.5518H14.7279Z" fill="#374957"/>
</g>
<defs>
<clipPath id="clip0_507_2300">
<rect width="24" height="24" fill="white" transform="translate(0 0.92749)"/>
</clipPath>
</defs>
</svg>
