<svg width="24" height="25" viewBox="0 0 24 25" fill="none" xmlns="http://www.w3.org/2000/svg">
<g clip-path="url(#clip0_507_2125)">
<path d="M7 6.92779H23C23.2652 6.92779 23.5196 6.82243 23.7071 6.6349C23.8946 6.44736 24 6.19301 24 5.92779C24 5.66258 23.8946 5.40822 23.7071 5.22069C23.5196 5.03315 23.2652 4.9278 23 4.9278H7C6.73478 4.9278 6.48043 5.03315 6.29289 5.22069C6.10536 5.40822 6 5.66258 6 5.92779C6 6.19301 6.10536 6.44736 6.29289 6.6349C6.48043 6.82243 6.73478 6.92779 7 6.92779Z" fill="#374957"/>
<path d="M23 11.9272H7C6.73478 11.9272 6.48043 12.0325 6.29289 12.2201C6.10536 12.4076 6 12.662 6 12.9272C6 13.1924 6.10536 13.4468 6.29289 13.6343C6.48043 13.8218 6.73478 13.9272 7 13.9272H23C23.2652 13.9272 23.5196 13.8218 23.7071 13.6343C23.8946 13.4468 24 13.1924 24 12.9272C24 12.662 23.8946 12.4076 23.7071 12.2201C23.5196 12.0325 23.2652 11.9272 23 11.9272Z" fill="#374957"/>
<path d="M23 18.9275H7C6.73478 18.9275 6.48043 19.0328 6.29289 19.2204C6.10536 19.4079 6 19.6623 6 19.9275C6 20.1927 6.10536 20.4471 6.29289 20.6346C6.48043 20.8221 6.73478 20.9275 7 20.9275H23C23.2652 20.9275 23.5196 20.8221 23.7071 20.6346C23.8946 20.4471 24 20.1927 24 19.9275C24 19.6623 23.8946 19.4079 23.7071 19.2204C23.5196 19.0328 23.2652 18.9275 23 18.9275Z" fill="#374957"/>
<path d="M2 7.92748C3.10457 7.92748 4 7.03205 4 5.92748C4 4.82291 3.10457 3.92748 2 3.92748C0.89543 3.92748 0 4.82291 0 5.92748C0 7.03205 0.89543 7.92748 2 7.92748Z" fill="#374957"/>
<path d="M2 14.9278C3.10457 14.9278 4 14.0324 4 12.9278C4 11.8232 3.10457 10.9278 2 10.9278C0.89543 10.9278 0 11.8232 0 12.9278C0 14.0324 0.89543 14.9278 2 14.9278Z" fill="#374957"/>
<path d="M2 21.9272C3.10457 21.9272 4 21.0317 4 19.9272C4 18.8226 3.10457 17.9272 2 17.9272C0.89543 17.9272 0 18.8226 0 19.9272C0 21.0317 0.89543 21.9272 2 21.9272Z" fill="#374957"/>
</g>
<defs>
<clipPath id="clip0_507_2125">
<rect width="24" height="24" fill="white" transform="translate(0 0.92749)"/>
</clipPath>
</defs>
</svg>
