<svg width="24" height="25" viewBox="0 0 24 25" fill="none" xmlns="http://www.w3.org/2000/svg">
<g clip-path="url(#clip0_507_1913)">
<path d="M17.0001 0.92749H7.00012C5.67453 0.929078 4.40368 1.45637 3.46634 2.39371C2.529 3.33105 2.00171 4.6019 2.00012 5.92749V20.9275C2.00012 21.9884 2.42155 23.0058 3.17169 23.7559C3.92184 24.5061 4.93926 24.9275 6.00012 24.9275H17.0001C18.3257 24.9259 19.5966 24.3986 20.5339 23.4613C21.4712 22.5239 21.9985 21.2531 22.0001 19.9275V5.92749C21.9985 4.6019 21.4712 3.33105 20.5339 2.39371C19.5966 1.45637 18.3257 0.929078 17.0001 0.92749V0.92749ZM20.0001 5.92749V16.9275H8.00012V2.92749H17.0001C17.7958 2.92749 18.5588 3.24356 19.1214 3.80617C19.6841 4.36878 20.0001 5.13184 20.0001 5.92749ZM6.00012 3.09949V16.9275C5.29775 16.9269 4.60773 17.1122 4.00012 17.4645V5.92749C4.00021 5.30718 4.19258 4.70215 4.55076 4.19569C4.90893 3.68924 5.41529 3.30626 6.00012 3.09949ZM17.0001 22.9275H6.00012C5.46969 22.9275 4.96098 22.7168 4.58591 22.3417C4.21084 21.9666 4.00012 21.4579 4.00012 20.9275C4.00012 20.3971 4.21084 19.8883 4.58591 19.5133C4.96098 19.1382 5.46969 18.9275 6.00012 18.9275H20.0001V19.9275C20.0001 20.7231 19.6841 21.4862 19.1214 22.0488C18.5588 22.6114 17.7958 22.9275 17.0001 22.9275Z" fill="#374957"/>
</g>
<defs>
<clipPath id="clip0_507_1913">
<rect width="24" height="24" fill="white" transform="translate(0 0.92749)"/>
</clipPath>
</defs>
</svg>
