<svg width="24" height="25" viewBox="0 0 24 25" fill="none" xmlns="http://www.w3.org/2000/svg">
<g clip-path="url(#clip0_507_2039)">
<path d="M19.9499 6.46391L16.4639 2.97791C15.8155 2.32599 15.0442 1.80914 14.1947 1.45725C13.3452 1.10537 12.4344 0.925456 11.5149 0.927912H6.99988C5.67428 0.9295 4.40344 1.45679 3.4661 2.39413C2.52876 3.33147 2.00147 4.60232 1.99988 5.92791V19.9279C2.00147 21.2535 2.52876 22.5244 3.4661 23.4617C4.40344 24.399 5.67428 24.9263 6.99988 24.9279H16.9999C18.3255 24.9263 19.5963 24.399 20.5337 23.4617C21.471 22.5244 21.9983 21.2535 21.9999 19.9279V11.4129C22.0023 10.4934 21.8224 9.58259 21.4705 8.7331C21.1187 7.88361 20.6018 7.11234 19.9499 6.46391ZM18.5359 7.87791C18.8409 8.19232 19.1035 8.54532 19.3169 8.92791H14.9999C14.7347 8.92791 14.4803 8.82256 14.2928 8.63502C14.1052 8.44748 13.9999 8.19313 13.9999 7.92791V3.61091C14.3825 3.8243 14.7355 4.08686 15.0499 4.39191L18.5359 7.87791ZM19.9999 19.9279C19.9999 20.7236 19.6838 21.4866 19.1212 22.0492C18.5586 22.6118 17.7955 22.9279 16.9999 22.9279H6.99988C6.20423 22.9279 5.44117 22.6118 4.87856 22.0492C4.31595 21.4866 3.99988 20.7236 3.99988 19.9279V5.92791C3.99988 5.13226 4.31595 4.3692 4.87856 3.80659C5.44117 3.24398 6.20423 2.92791 6.99988 2.92791H11.5149C11.6799 2.92791 11.8379 2.95991 11.9999 2.97491V7.92791C11.9999 8.72356 12.3159 9.48662 12.8786 10.0492C13.4412 10.6118 14.2042 10.9279 14.9999 10.9279H19.9529C19.9679 11.0899 19.9999 11.2479 19.9999 11.4129V19.9279ZM16.7239 14.2389C16.9065 14.431 17.0054 14.6877 16.9988 14.9527C16.9922 15.2176 16.8808 15.4691 16.6889 15.6519L13.0999 19.0659C12.5357 19.6212 11.775 19.931 10.9834 19.9278C10.1918 19.9246 9.43355 19.6087 8.87388 19.0489L7.33388 17.6749C7.13576 17.4983 7.01593 17.2502 7.00074 16.9852C6.99321 16.854 7.01161 16.7226 7.05487 16.5985C7.09814 16.4744 7.16542 16.36 7.25288 16.2619C7.34034 16.1638 7.44626 16.0839 7.56461 16.0267C7.68295 15.9696 7.81139 15.9363 7.9426 15.9288C8.20759 15.9136 8.46776 16.0043 8.66588 16.1809L10.2509 17.5949C10.3416 17.6968 10.4522 17.7791 10.576 17.8366C10.6997 17.8941 10.8338 17.9258 10.9702 17.9295C11.1066 17.9333 11.2423 17.9091 11.369 17.8584C11.4957 17.8077 11.6107 17.7317 11.7069 17.6349L15.3069 14.2039C15.4021 14.1129 15.5143 14.0416 15.6371 13.9941C15.76 13.9465 15.891 13.9237 16.0226 13.927C16.1543 13.9302 16.284 13.9595 16.4044 14.013C16.5247 14.0665 16.6333 14.1433 16.7239 14.2389Z" fill="#374957"/>
</g>
<defs>
<clipPath id="clip0_507_2039">
<rect width="24" height="24" fill="white" transform="translate(0 0.92749)"/>
</clipPath>
</defs>
</svg>
