<svg width="24" height="25" viewBox="0 0 24 25" fill="none" xmlns="http://www.w3.org/2000/svg">
<g clip-path="url(#clip0_507_2320)">
<path d="M20.9999 4.92749H17.8999C17.6678 3.7989 17.0537 2.78484 16.1611 2.05621C15.2686 1.32758 14.1521 0.928945 12.9999 0.92749L10.9999 0.92749C9.84767 0.928945 8.7312 1.32758 7.83863 2.05621C6.94606 2.78484 6.33197 3.7989 6.09988 4.92749H2.99988C2.73466 4.92749 2.48031 5.03285 2.29277 5.22038C2.10523 5.40792 1.99988 5.66227 1.99988 5.92749C1.99988 6.19271 2.10523 6.44706 2.29277 6.6346C2.48031 6.82213 2.73466 6.92749 2.99988 6.92749H3.99988V19.9275C4.00147 21.2531 4.52876 22.5239 5.4661 23.4613C6.40344 24.3986 7.67428 24.9259 8.99988 24.9275H14.9999C16.3255 24.9259 17.5963 24.3986 18.5337 23.4613C19.471 22.5239 19.9983 21.2531 19.9999 19.9275V6.92749H20.9999C21.2651 6.92749 21.5194 6.82213 21.707 6.6346C21.8945 6.44706 21.9999 6.19271 21.9999 5.92749C21.9999 5.66227 21.8945 5.40792 21.707 5.22038C21.5194 5.03285 21.2651 4.92749 20.9999 4.92749ZM10.9999 2.92749H12.9999C13.6202 2.92825 14.225 3.12087 14.7315 3.47893C15.238 3.837 15.6213 4.34298 15.8289 4.92749H8.17088C8.37846 4.34298 8.76178 3.837 9.26826 3.47893C9.77475 3.12087 10.3796 2.92825 10.9999 2.92749ZM17.9999 19.9275C17.9999 20.7231 17.6838 21.4862 17.1212 22.0488C16.5586 22.6114 15.7955 22.9275 14.9999 22.9275H8.99988C8.20423 22.9275 7.44117 22.6114 6.87856 22.0488C6.31595 21.4862 5.99988 20.7231 5.99988 19.9275V6.92749H17.9999V19.9275Z" fill="#374957"/>
<path d="M10 18.9269C10.2652 18.9269 10.5196 18.8215 10.7071 18.634C10.8946 18.4464 11 18.1921 11 17.9269V11.9269C11 11.6617 10.8946 11.4073 10.7071 11.2198C10.5196 11.0322 10.2652 10.9269 10 10.9269C9.73478 10.9269 9.48043 11.0322 9.29289 11.2198C9.10536 11.4073 9 11.6617 9 11.9269V17.9269C9 18.1921 9.10536 18.4464 9.29289 18.634C9.48043 18.8215 9.73478 18.9269 10 18.9269Z" fill="#374957"/>
<path d="M13.9999 18.9269C14.2651 18.9269 14.5195 18.8215 14.707 18.634C14.8945 18.4464 14.9999 18.1921 14.9999 17.9269V11.9269C14.9999 11.6617 14.8945 11.4073 14.707 11.2198C14.5195 11.0322 14.2651 10.9269 13.9999 10.9269C13.7347 10.9269 13.4803 11.0322 13.2928 11.2198C13.1052 11.4073 12.9999 11.6617 12.9999 11.9269V17.9269C12.9999 18.1921 13.1052 18.4464 13.2928 18.634C13.4803 18.8215 13.7347 18.9269 13.9999 18.9269Z" fill="#374957"/>
</g>
<defs>
<clipPath id="clip0_507_2320">
<rect width="24" height="24" fill="white" transform="translate(0 0.92749)"/>
</clipPath>
</defs>
</svg>
