<svg width="24" height="25" viewBox="0 0 24 25" fill="none" xmlns="http://www.w3.org/2000/svg">
<g clip-path="url(#clip0_507_1881)">
<path d="M7 0.92749H4C2.93913 0.92749 1.92172 1.34892 1.17157 2.09906C0.421427 2.84921 0 3.86662 0 4.92749L0 7.92749C0 8.98836 0.421427 10.0058 1.17157 10.7559C1.92172 11.5061 2.93913 11.9275 4 11.9275H7C8.06087 11.9275 9.07828 11.5061 9.82843 10.7559C10.5786 10.0058 11 8.98836 11 7.92749V4.92749C11 3.86662 10.5786 2.84921 9.82843 2.09906C9.07828 1.34892 8.06087 0.92749 7 0.92749V0.92749ZM9 7.92749C9 8.45792 8.78929 8.96663 8.41421 9.3417C8.03914 9.71678 7.53043 9.92749 7 9.92749H4C3.46957 9.92749 2.96086 9.71678 2.58579 9.3417C2.21071 8.96663 2 8.45792 2 7.92749V4.92749C2 4.39706 2.21071 3.88835 2.58579 3.51328C2.96086 3.1382 3.46957 2.92749 4 2.92749H7C7.53043 2.92749 8.03914 3.1382 8.41421 3.51328C8.78929 3.88835 9 4.39706 9 4.92749V7.92749Z" fill="#374957"/>
<path d="M7 13.9275H4C2.93913 13.9275 1.92172 14.3489 1.17157 15.0991C0.421427 15.8492 0 16.8666 0 17.9275L0 20.9275C0 21.9884 0.421427 23.0058 1.17157 23.7559C1.92172 24.5061 2.93913 24.9275 4 24.9275H7C8.06087 24.9275 9.07828 24.5061 9.82843 23.7559C10.5786 23.0058 11 21.9884 11 20.9275V17.9275C11 16.8666 10.5786 15.8492 9.82843 15.0991C9.07828 14.3489 8.06087 13.9275 7 13.9275ZM9 20.9275C9 21.4579 8.78929 21.9666 8.41421 22.3417C8.03914 22.7168 7.53043 22.9275 7 22.9275H4C3.46957 22.9275 2.96086 22.7168 2.58579 22.3417C2.21071 21.9666 2 21.4579 2 20.9275V17.9275C2 17.3971 2.21071 16.8884 2.58579 16.5133C2.96086 16.1382 3.46957 15.9275 4 15.9275H7C7.53043 15.9275 8.03914 16.1382 8.41421 16.5133C8.78929 16.8884 9 17.3971 9 17.9275V20.9275Z" fill="#374957"/>
<path d="M22.2932 19.9765L20.0002 22.2665V3.56046L22.2932 5.85046C22.3861 5.94331 22.4964 6.01694 22.6178 6.06716C22.7391 6.11738 22.8692 6.14321 23.0005 6.14316C23.1319 6.14312 23.2619 6.1172 23.3833 6.06689C23.5046 6.01658 23.6148 5.94287 23.7077 5.84996C23.8005 5.75705 23.8742 5.64676 23.9244 5.52539C23.9746 5.40403 24.0004 5.27396 24.0004 5.14261C24.0003 5.01126 23.9744 4.88121 23.9241 4.75987C23.8738 4.63854 23.8001 4.5283 23.7072 4.43546L21.1202 1.85246C20.5577 1.29066 19.7952 0.975098 19.0002 0.975098C18.2052 0.975098 17.4427 1.29066 16.8802 1.85246L14.2932 4.43546C14.2003 4.5283 14.1266 4.63854 14.0763 4.75987C14.026 4.88121 14 5.01126 14 5.14261C14 5.27396 14.0258 5.40403 14.076 5.52539C14.1262 5.64676 14.1999 5.75705 14.2927 5.84996C14.3855 5.94287 14.4958 6.01658 14.6171 6.06689C14.7384 6.1172 14.8685 6.14312 14.9998 6.14316C15.1312 6.14321 15.2613 6.11738 15.3826 6.06716C15.504 6.01694 15.6143 5.94331 15.7072 5.85046L18.0002 3.56046V22.2665L15.7072 19.9765C15.6143 19.8836 15.504 19.81 15.3826 19.7598C15.2613 19.7095 15.1312 19.6837 14.9998 19.6838C14.8685 19.6838 14.7384 19.7097 14.6171 19.76C14.4958 19.8103 14.3855 19.8841 14.2927 19.977C14.1999 20.0699 14.1262 20.1802 14.076 20.3015C14.0258 20.4229 14 20.553 14 20.6843C14 20.8157 14.026 20.9457 14.0763 21.0671C14.1266 21.1884 14.2003 21.2986 14.2932 21.3915L16.8802 23.9745C17.4427 24.5363 18.2052 24.8518 19.0002 24.8518C19.7952 24.8518 20.5577 24.5363 21.1202 23.9745L23.7072 21.3915C23.8001 21.2986 23.8738 21.1884 23.9241 21.0671C23.9744 20.9457 24.0003 20.8157 24.0004 20.6843C24.0004 20.553 23.9746 20.4229 23.9244 20.3015C23.8742 20.1802 23.8005 20.0699 23.7077 19.977C23.6148 19.8841 23.5046 19.8103 23.3833 19.76C23.2619 19.7097 23.1319 19.6838 23.0005 19.6838C22.8692 19.6837 22.7391 19.7095 22.6178 19.7598C22.4964 19.81 22.3861 19.8836 22.2932 19.9765Z" fill="#374957"/>
</g>
<defs>
<clipPath id="clip0_507_1881">
<rect width="24" height="24" fill="white" transform="translate(0 0.92749)"/>
</clipPath>
</defs>
</svg>
