<svg width="24" height="25" viewBox="0 0 24 25" fill="none" xmlns="http://www.w3.org/2000/svg">
<g clip-path="url(#clip0_507_2328)">
<path d="M12.0001 20.9275C14.1211 20.9251 16.1546 20.0815 17.6543 18.5817C19.1541 17.0819 19.9977 15.0485 20.0001 12.9275V1.92749C20.0001 1.66227 19.8948 1.40792 19.7072 1.22038C19.5197 1.03285 19.2653 0.92749 19.0001 0.92749C18.7349 0.92749 18.4806 1.03285 18.293 1.22038C18.1055 1.40792 18.0001 1.66227 18.0001 1.92749V12.9275C18.0001 14.5188 17.368 16.0449 16.2428 17.1701C15.1175 18.2953 13.5914 18.9275 12.0001 18.9275C10.4088 18.9275 8.8827 18.2953 7.75748 17.1701C6.63226 16.0449 6.00012 14.5188 6.00012 12.9275V1.92749C6.00012 1.66227 5.89477 1.40792 5.70723 1.22038C5.51969 1.03285 5.26534 0.92749 5.00012 0.92749C4.73491 0.92749 4.48055 1.03285 4.29302 1.22038C4.10548 1.40792 4.00012 1.66227 4.00012 1.92749V12.9275C4.0025 15.0485 4.84612 17.0819 6.3459 18.5817C7.84567 20.0815 9.87912 20.9251 12.0001 20.9275Z" fill="#374957"/>
<path d="M23 22.9269H1C0.734784 22.9269 0.48043 23.0322 0.292893 23.2198C0.105357 23.4073 0 23.6617 0 23.9269C0 24.1921 0.105357 24.4464 0.292893 24.634C0.48043 24.8215 0.734784 24.9269 1 24.9269H23C23.2652 24.9269 23.5196 24.8215 23.7071 24.634C23.8946 24.4464 24 24.1921 24 23.9269C24 23.6617 23.8946 23.4073 23.7071 23.2198C23.5196 23.0322 23.2652 22.9269 23 22.9269Z" fill="#374957"/>
</g>
<defs>
<clipPath id="clip0_507_2328">
<rect width="24" height="24" fill="white" transform="translate(0 0.92749)"/>
</clipPath>
</defs>
</svg>
