<svg width="24" height="25" viewBox="0 0 24 25" fill="none" xmlns="http://www.w3.org/2000/svg">
<g clip-path="url(#clip0_507_2196)">
<path d="M23 14.9275H22V5.92749C21.9984 4.6019 21.4711 3.33105 20.5338 2.39371C19.5964 1.45637 18.3256 0.929078 17 0.92749L7 0.92749C5.67441 0.929078 4.40356 1.45637 3.46622 2.39371C2.52888 3.33105 2.00159 4.6019 2 5.92749V14.9275H1C0.734784 14.9275 0.48043 15.0328 0.292893 15.2204C0.105357 15.4079 0 15.6623 0 15.9275C0 16.1927 0.105357 16.4471 0.292893 16.6346C0.48043 16.8221 0.734784 16.9275 1 16.9275H11V20.9275H9C8.20435 20.9275 7.44129 21.2436 6.87868 21.8062C6.31607 22.3688 6 23.1318 6 23.9275C6 24.1927 6.10536 24.4471 6.29289 24.6346C6.48043 24.8221 6.73478 24.9275 7 24.9275C7.26522 24.9275 7.51957 24.8221 7.70711 24.6346C7.89464 24.4471 8 24.1927 8 23.9275C8 23.6623 8.10536 23.4079 8.29289 23.2204C8.48043 23.0328 8.73478 22.9275 9 22.9275H15C15.2652 22.9275 15.5196 23.0328 15.7071 23.2204C15.8946 23.4079 16 23.6623 16 23.9275C16 24.1927 16.1054 24.4471 16.2929 24.6346C16.4804 24.8221 16.7348 24.9275 17 24.9275C17.2652 24.9275 17.5196 24.8221 17.7071 24.6346C17.8946 24.4471 18 24.1927 18 23.9275C18 23.1318 17.6839 22.3688 17.1213 21.8062C16.5587 21.2436 15.7956 20.9275 15 20.9275H13V16.9275H23C23.2652 16.9275 23.5196 16.8221 23.7071 16.6346C23.8946 16.4471 24 16.1927 24 15.9275C24 15.6623 23.8946 15.4079 23.7071 15.2204C23.5196 15.0328 23.2652 14.9275 23 14.9275ZM4 5.92749C4 5.13184 4.31607 4.36878 4.87868 3.80617C5.44129 3.24356 6.20435 2.92749 7 2.92749H17C17.7956 2.92749 18.5587 3.24356 19.1213 3.80617C19.6839 4.36878 20 5.13184 20 5.92749V14.9275H4V5.92749Z" fill="#374957"/>
</g>
<defs>
<clipPath id="clip0_507_2196">
<rect width="24" height="24" fill="white" transform="translate(0 0.92749)"/>
</clipPath>
</defs>
</svg>
