<svg width="24" height="25" viewBox="0 0 24 25" fill="none" xmlns="http://www.w3.org/2000/svg">
<g clip-path="url(#clip0_507_2334)">
<path d="M22.9999 11.9281H20.9999V9.9281C20.9999 9.66288 20.8945 9.40853 20.707 9.22099C20.5194 9.03346 20.2651 8.9281 19.9999 8.9281C19.7347 8.9281 19.4803 9.03346 19.2928 9.22099C19.1052 9.40853 18.9999 9.66288 18.9999 9.9281V11.9281H16.9999C16.7347 11.9281 16.4803 12.0335 16.2928 12.221C16.1052 12.4085 15.9999 12.6629 15.9999 12.9281C15.9999 13.1933 16.1052 13.4477 16.2928 13.6352C16.4803 13.8227 16.7347 13.9281 16.9999 13.9281H18.9999V15.9281C18.9999 16.1933 19.1052 16.4477 19.2928 16.6352C19.4803 16.8227 19.7347 16.9281 19.9999 16.9281C20.2651 16.9281 20.5194 16.8227 20.707 16.6352C20.8945 16.4477 20.9999 16.1933 20.9999 15.9281V13.9281H22.9999C23.2651 13.9281 23.5194 13.8227 23.707 13.6352C23.8945 13.4477 23.9999 13.1933 23.9999 12.9281C23.9999 12.6629 23.8945 12.4085 23.707 12.221C23.5194 12.0335 23.2651 11.9281 22.9999 11.9281Z" fill="#374957"/>
<path d="M9 12.9274C10.1867 12.9274 11.3467 12.5755 12.3334 11.9162C13.3201 11.257 14.0892 10.3199 14.5433 9.22353C14.9974 8.12718 15.1162 6.92078 14.8847 5.75689C14.6532 4.593 14.0818 3.52391 13.2426 2.68479C12.4035 1.84568 11.3344 1.27423 10.1705 1.04272C9.00666 0.811209 7.80026 0.930029 6.7039 1.38415C5.60754 1.83828 4.67047 2.60732 4.01118 3.59401C3.35189 4.58071 3 5.74074 3 6.92743C3.00159 8.51824 3.63424 10.0434 4.75911 11.1683C5.88399 12.2932 7.40919 12.9258 9 12.9274ZM9 2.92743C9.79113 2.92743 10.5645 3.16203 11.2223 3.60155C11.8801 4.04108 12.3928 4.66579 12.6955 5.3967C12.9983 6.1276 13.0775 6.93187 12.9231 7.70779C12.7688 8.48372 12.3878 9.19645 11.8284 9.75586C11.269 10.3153 10.5563 10.6962 9.78036 10.8506C9.00444 11.0049 8.20017 10.9257 7.46927 10.623C6.73836 10.3202 6.11365 9.80751 5.67412 9.14971C5.2346 8.49192 5 7.71856 5 6.92743C5 5.86657 5.42143 4.84915 6.17157 4.099C6.92172 3.34886 7.93913 2.92743 9 2.92743Z" fill="#374957"/>
<path d="M9 14.9281C6.61386 14.9307 4.32622 15.8798 2.63896 17.5671C0.951708 19.2543 0.00264685 21.542 0 23.9281C0 24.1933 0.105357 24.4477 0.292893 24.6352C0.48043 24.8227 0.734784 24.9281 1 24.9281C1.26522 24.9281 1.51957 24.8227 1.70711 24.6352C1.89464 24.4477 2 24.1933 2 23.9281C2 22.0716 2.7375 20.2911 4.05025 18.9784C5.36301 17.6656 7.14348 16.9281 9 16.9281C10.8565 16.9281 12.637 17.6656 13.9497 18.9784C15.2625 20.2911 16 22.0716 16 23.9281C16 24.1933 16.1054 24.4477 16.2929 24.6352C16.4804 24.8227 16.7348 24.9281 17 24.9281C17.2652 24.9281 17.5196 24.8227 17.7071 24.6352C17.8946 24.4477 18 24.1933 18 23.9281C17.9974 21.542 17.0483 19.2543 15.361 17.5671C13.6738 15.8798 11.3861 14.9307 9 14.9281Z" fill="#374957"/>
</g>
<defs>
<clipPath id="clip0_507_2334">
<rect width="24" height="24" fill="white" transform="translate(0 0.92749)"/>
</clipPath>
</defs>
</svg>
