<svg width="24" height="25" viewBox="0 0 24 25" fill="none" xmlns="http://www.w3.org/2000/svg">
<g clip-path="url(#clip0_507_1955)">
<path d="M17 14.9274C16.4696 14.9274 15.9609 15.1381 15.5858 15.5132C15.2107 15.8883 15 16.397 15 16.9274C15 17.4579 15.2107 17.9666 15.5858 18.3416C15.9609 18.7167 16.4696 18.9274 17 18.9274C17.5304 18.9274 18.0391 18.7167 18.4142 18.3416C18.7893 17.9666 19 17.4579 19 16.9274C19 16.397 18.7893 15.8883 18.4142 15.5132C18.0391 15.1381 17.5304 14.9274 17 14.9274Z" fill="#374957"/>
<path d="M7.99987 11.9274C6.93901 11.9274 5.92159 12.3489 5.17145 13.099C4.4213 13.8491 3.99988 14.8666 3.99988 15.9274C3.99988 16.9883 4.4213 18.0057 5.17145 18.7558C5.92159 19.506 6.93901 19.9274 7.99987 19.9274C9.06073 19.9274 10.0781 19.506 10.8283 18.7558C11.5784 18.0057 11.9999 16.9883 11.9999 15.9274C11.9999 14.8666 11.5784 13.8491 10.8283 13.099C10.0781 12.3489 9.06073 11.9274 7.99987 11.9274ZM7.99987 17.9274C7.46944 17.9274 6.96073 17.7167 6.58566 17.3416C6.21059 16.9666 5.99987 16.4579 5.99987 15.9274C5.99987 15.397 6.21059 14.8883 6.58566 14.5132C6.96073 14.1381 7.46944 13.9274 7.99987 13.9274C8.5303 13.9274 9.03901 14.1381 9.41408 14.5132C9.78915 14.8883 9.99987 15.397 9.99987 15.9274C9.99987 16.4579 9.78915 16.9666 9.41408 17.3416C9.03901 17.7167 8.5303 17.9274 7.99987 17.9274Z" fill="#374957"/>
<path d="M21.5891 7.6276L13.7511 1.7766C12.9042 1.20471 11.9013 0.908437 10.8795 0.928306C9.85779 0.948175 8.86714 1.28322 8.04309 1.8876C4.80571 4.31028 2.38374 7.66225 1.10009 11.4966C1.0856 11.5477 1.07491 11.5999 1.06809 11.6526C0.957927 11.8686 0.863352 12.0921 0.785094 12.3216C-0.265441 15.3028 -0.265441 18.5534 0.785094 21.5346C1.12117 22.5248 1.75922 23.3847 2.60948 23.9933C3.45975 24.602 4.47944 24.9287 5.52509 24.9276H9.14909C9.58277 24.9207 10.003 24.7758 10.3486 24.5137C10.6943 24.2517 10.9473 23.8863 11.0711 23.4706C11.1724 23.172 11.3647 22.9126 11.621 22.7289C11.8773 22.5452 12.1848 22.4464 12.5001 22.4464C12.8154 22.4464 13.1228 22.5452 13.3792 22.7289C13.6355 22.9126 13.8278 23.172 13.9291 23.4706C14.0528 23.8863 14.3059 24.2517 14.6516 24.5137C14.9972 24.7758 15.4174 24.9207 15.8511 24.9276H19.0001C20.3257 24.926 21.5965 24.3987 22.5339 23.4614C23.4712 22.524 23.9985 21.2532 24.0001 19.9276V12.4346C23.9979 11.5014 23.779 10.5814 23.3606 9.74724C22.9422 8.91305 22.3357 8.18745 21.5891 7.6276ZM9.24009 3.4896C9.72481 3.13484 10.3065 2.93701 10.907 2.9227C11.5076 2.9084 12.098 3.07832 12.5991 3.4096L19.9891 8.9276H5.52609C5.13681 8.92722 4.74882 8.97253 4.37009 9.0626C5.59434 6.89081 7.25198 4.99389 9.24009 3.4896ZM22.0001 19.9276C22.0001 20.7233 21.684 21.4863 21.1214 22.0489C20.5588 22.6115 19.7957 22.9276 19.0001 22.9276L15.8341 22.8616C15.5997 22.1561 15.1474 21.5433 14.5424 21.1113C13.9374 20.6793 13.2109 20.4505 12.4675 20.4578C11.7242 20.4652 11.0023 20.7083 10.406 21.1521C9.80961 21.596 9.36952 22.2176 9.14909 22.9276H5.52509C4.8976 22.9279 4.28581 22.7314 3.77582 22.3658C3.26583 22.0003 2.88331 21.484 2.68209 20.8896C1.77459 18.3266 1.77459 15.5296 2.68209 12.9666C2.88398 12.3724 3.26677 11.8563 3.7768 11.4906C4.28684 11.1249 4.89852 10.9281 5.52609 10.9276H21.7001C21.8965 11.4058 21.9984 11.9176 22.0001 12.4346V19.9276Z" fill="#374957"/>
</g>
<defs>
<clipPath id="clip0_507_1955">
<rect width="24" height="24" fill="white" transform="translate(0 0.92749)"/>
</clipPath>
</defs>
</svg>
