<svg width="24" height="25" viewBox="0 0 24 25" fill="none" xmlns="http://www.w3.org/2000/svg">
<g clip-path="url(#clip0_507_2148)">
<path d="M12.0001 4.92748C13.1047 4.92748 14.0001 4.03205 14.0001 2.92748C14.0001 1.82291 13.1047 0.927483 12.0001 0.927483C10.8956 0.927483 10.0001 1.82291 10.0001 2.92748C10.0001 4.03205 10.8956 4.92748 12.0001 4.92748Z" fill="#374957"/>
<path d="M12.0001 14.9278C13.1047 14.9278 14.0001 14.0324 14.0001 12.9278C14.0001 11.8232 13.1047 10.9278 12.0001 10.9278C10.8956 10.9278 10.0001 11.8232 10.0001 12.9278C10.0001 14.0324 10.8956 14.9278 12.0001 14.9278Z" fill="#374957"/>
<path d="M12.0001 24.9272C13.1047 24.9272 14.0001 24.0318 14.0001 22.9272C14.0001 21.8226 13.1047 20.9272 12.0001 20.9272C10.8956 20.9272 10.0001 21.8226 10.0001 22.9272C10.0001 24.0318 10.8956 24.9272 12.0001 24.9272Z" fill="#374957"/>
</g>
<defs>
<clipPath id="clip0_507_2148">
<rect width="24" height="24" fill="white" transform="translate(0 0.92749)"/>
</clipPath>
</defs>
</svg>
