<svg width="24" height="25" viewBox="0 0 24 25" fill="none" xmlns="http://www.w3.org/2000/svg">
<g clip-path="url(#clip0_507_2036)">
<path d="M23.9999 11.9275C23.9969 11.1614 23.7009 10.4255 23.1726 9.87066C22.6444 9.31581 21.9239 8.98409 21.1589 8.94349C20.1567 6.62185 18.3055 4.7707 15.9839 3.76849C15.9433 3.00348 15.6115 2.28298 15.0567 1.75472C14.5019 1.22647 13.7659 0.9305 12.9999 0.92749H10.9999C10.2338 0.9305 9.49787 1.22647 8.94303 1.75472C8.38819 2.28298 8.05646 3.00348 8.01586 3.76849C5.69439 4.77095 3.84332 6.62202 2.84086 8.94349C2.13289 8.97804 1.46031 9.26339 0.943489 9.74849C0.426669 10.2336 0.0993378 10.8868 0.020072 11.5911C-0.0591938 12.2955 0.114779 13.0051 0.510858 13.5929C0.906937 14.1808 1.49927 14.6085 2.18186 14.7995C2.46563 16.309 3.09456 17.7325 4.0195 18.9588C4.94445 20.1851 6.14038 21.1809 7.51386 21.8685L7.03386 23.6685C6.96547 23.9247 7.00164 24.1976 7.13441 24.4271C7.26718 24.6566 7.48568 24.824 7.74186 24.8925C7.82599 24.9152 7.91271 24.927 7.99986 24.9275C8.22012 24.9275 8.4342 24.8547 8.60887 24.7205C8.78354 24.5864 8.90903 24.3983 8.96586 24.1855L9.39986 22.5795C11.1059 23.0435 12.9048 23.0435 14.6109 22.5795L15.0389 24.1855C15.1108 24.4378 15.2789 24.6517 15.5071 24.7811C15.7353 24.9105 16.0051 24.9451 16.2586 24.8775C16.512 24.8098 16.7287 24.6452 16.8619 24.4193C16.9952 24.1933 17.0343 23.924 16.9709 23.6695L16.4909 21.8695C17.8642 21.1813 19.06 20.1852 19.9851 18.9588C20.9101 17.7325 21.5394 16.309 21.8239 14.7995C22.4492 14.6219 22.9997 14.2456 23.3923 13.7275C23.7848 13.2093 23.9981 12.5775 23.9999 11.9275ZM10.9999 2.92749H12.9999C13.2651 2.92749 13.5194 3.03285 13.707 3.22038C13.8945 3.40792 13.9999 3.66227 13.9999 3.92749C13.9999 4.19271 13.8945 4.44706 13.707 4.6346C13.5194 4.82213 13.2651 4.92749 12.9999 4.92749H10.9999C10.7346 4.92749 10.4803 4.82213 10.2928 4.6346C10.1052 4.44706 9.99986 4.19271 9.99986 3.92749C9.99986 3.66227 10.1052 3.40792 10.2928 3.22038C10.4803 3.03285 10.7346 2.92749 10.9999 2.92749ZM2.99986 10.9275H4.99986C5.26508 10.9275 5.51943 11.0328 5.70697 11.2204C5.8945 11.4079 5.99986 11.6623 5.99986 11.9275C5.99986 12.1927 5.8945 12.4471 5.70697 12.6346C5.51943 12.8221 5.26508 12.9275 4.99986 12.9275H2.99986C2.73464 12.9275 2.48029 12.8221 2.29275 12.6346C2.10522 12.4471 1.99986 12.1927 1.99986 11.9275C1.99986 11.6623 2.10522 11.4079 2.29275 11.2204C2.48029 11.0328 2.73464 10.9275 2.99986 10.9275ZM11.9999 20.9275C11.2939 20.9265 10.5912 20.8324 9.90986 20.6475L11.6099 14.2835C11.6328 14.1966 11.6838 14.1198 11.755 14.065C11.8262 14.0102 11.9135 13.9804 12.0034 13.9804C12.0932 13.9804 12.1805 14.0102 12.2517 14.065C12.3229 14.1198 12.3739 14.1966 12.3969 14.2835L14.0969 20.6475C13.4133 20.8329 12.7081 20.927 11.9999 20.9275ZM15.9549 19.8785L14.3249 13.7685C14.1925 13.2538 13.8916 12.7982 13.4703 12.4744C13.0489 12.1505 12.5313 11.977 11.9999 11.9815C11.4683 11.9768 10.9504 12.1502 10.5289 12.4741C10.1073 12.798 9.8063 13.2536 9.67386 13.7685L8.04486 19.8785C7.11345 19.3502 6.29818 18.6394 5.64783 17.7887C4.99748 16.938 4.52541 15.9649 4.25986 14.9275H4.99986C5.76912 14.8995 6.49821 14.5769 7.03627 14.0265C7.57434 13.476 7.88022 12.7397 7.89062 11.97C7.90103 11.2003 7.61516 10.4561 7.09217 9.89124C6.56918 9.32641 5.84909 8.98423 5.08086 8.93549C5.89762 7.52729 7.11974 6.39786 8.58786 5.69449C8.86441 6.07542 9.22702 6.38565 9.64616 6.59992C10.0653 6.81418 10.5291 6.92642 10.9999 6.92749H12.9999C13.4706 6.9265 13.9345 6.8143 14.3536 6.60003C14.7728 6.38576 15.1354 6.07548 15.4119 5.69449C16.8798 6.39772 18.1017 7.5272 18.9179 8.93549C18.1496 8.98433 17.4295 9.32662 16.9066 9.89154C16.3837 10.4565 16.0979 11.2008 16.1085 11.9705C16.119 12.7402 16.425 13.4764 16.9632 14.0268C17.5014 14.5772 18.2306 14.8997 18.9999 14.9275H19.7399C19.474 15.9647 19.0018 16.9377 18.3515 17.7884C17.7012 18.639 16.8861 19.3499 15.9549 19.8785ZM20.9999 12.9275H18.9999C18.7346 12.9275 18.4803 12.8221 18.2928 12.6346C18.1052 12.4471 17.9999 12.1927 17.9999 11.9275C17.9999 11.6623 18.1052 11.4079 18.2928 11.2204C18.4803 11.0328 18.7346 10.9275 18.9999 10.9275H20.9999C21.2651 10.9275 21.5194 11.0328 21.707 11.2204C21.8945 11.4079 21.9999 11.6623 21.9999 11.9275C21.9999 12.1927 21.8945 12.4471 21.707 12.6346C21.5194 12.8221 21.2651 12.9275 20.9999 12.9275Z" fill="#374957"/>
</g>
<defs>
<clipPath id="clip0_507_2036">
<rect width="24" height="24" fill="white" transform="translate(0 0.92749)"/>
</clipPath>
</defs>
</svg>
