<svg width="24" height="25" viewBox="0 0 24 25" fill="none" xmlns="http://www.w3.org/2000/svg">
<g clip-path="url(#clip0_507_2169)">
<path d="M21 8.92728H17C16.2044 8.92728 15.4413 9.24335 14.8787 9.80596C14.3161 10.3686 14 11.1316 14 11.9273V16.9273H12V12.9273C11.9994 11.8538 11.7108 10.8002 11.1643 9.87623C10.6178 8.95228 9.83344 8.19186 8.893 7.67428C9.43391 7.10778 9.7966 6.39495 9.93607 5.62421C10.0755 4.85347 9.98567 4.05874 9.67759 3.33862C9.36952 2.61849 8.8568 2.00466 8.20304 1.57327C7.54928 1.14189 6.78326 0.91193 6 0.91193C5.21674 0.91193 4.45072 1.14189 3.79696 1.57327C3.1432 2.00466 2.63048 2.61849 2.32241 3.33862C2.01433 4.05874 1.92445 4.85347 2.06393 5.62421C2.2034 6.39495 2.56609 7.10778 3.107 7.67428C2.16656 8.19186 1.3822 8.95228 0.835712 9.87623C0.289224 10.8002 0.000622181 11.8538 0 12.9273L0 23.9273C0 24.1925 0.105357 24.4468 0.292893 24.6344C0.48043 24.8219 0.734784 24.9273 1 24.9273C1.26522 24.9273 1.51957 24.8219 1.70711 24.6344C1.89464 24.4468 2 24.1925 2 23.9273V18.9273H22V23.9273C22 24.1925 22.1054 24.4468 22.2929 24.6344C22.4804 24.8219 22.7348 24.9273 23 24.9273C23.2652 24.9273 23.5196 24.8219 23.7071 24.6344C23.8946 24.4468 24 24.1925 24 23.9273V11.9273C24 11.1316 23.6839 10.3686 23.1213 9.80596C22.5587 9.24335 21.7956 8.92728 21 8.92728ZM4 4.92728C4 4.53171 4.1173 4.14503 4.33706 3.81613C4.55682 3.48724 4.86918 3.23089 5.23463 3.07952C5.60009 2.92814 6.00222 2.88853 6.39018 2.9657C6.77814 3.04288 7.13451 3.23336 7.41421 3.51306C7.69392 3.79277 7.8844 4.14913 7.96157 4.5371C8.03874 4.92506 7.99913 5.32719 7.84776 5.69264C7.69638 6.05809 7.44004 6.37045 7.11114 6.59021C6.78224 6.80998 6.39556 6.92728 6 6.92728C5.46957 6.92728 4.96086 6.71656 4.58579 6.34149C4.21071 5.96642 4 5.45771 4 4.92728ZM6 8.92728C7.06087 8.92728 8.07828 9.3487 8.82843 10.0988C9.57857 10.849 10 11.8664 10 12.9273V16.9273H2V12.9273C2 11.8664 2.42143 10.849 3.17157 10.0988C3.92172 9.3487 4.93913 8.92728 6 8.92728ZM16 16.9273V11.9273C16 11.6621 16.1054 11.4077 16.2929 11.2202C16.4804 11.0326 16.7348 10.9273 17 10.9273H18V11.9273C18 12.1925 18.1054 12.4468 18.2929 12.6344C18.4804 12.8219 18.7348 12.9273 19 12.9273C19.2652 12.9273 19.5196 12.8219 19.7071 12.6344C19.8946 12.4468 20 12.1925 20 11.9273V10.9273H21C21.2652 10.9273 21.5196 11.0326 21.7071 11.2202C21.8946 11.4077 22 11.6621 22 11.9273V16.9273H16Z" fill="#374957"/>
</g>
<defs>
<clipPath id="clip0_507_2169">
<rect width="24" height="24" fill="white" transform="translate(0 0.92749)"/>
</clipPath>
</defs>
</svg>
