<svg width="24" height="25" viewBox="0 0 24 25" fill="none" xmlns="http://www.w3.org/2000/svg">
<g clip-path="url(#clip0_507_1978)">
<path d="M7.29292 3.01844L5.39992 4.91244L1.70692 1.22044C1.51832 1.03828 1.26571 0.937487 1.00352 0.939766C0.741321 0.942044 0.490508 1.04721 0.3051 1.23262C0.119692 1.41803 0.0145233 1.66884 0.0122448 1.93104C0.00996641 2.19324 0.110761 2.44584 0.292919 2.63444L3.98492 6.32744L2.09092 8.22044C1.95099 8.36041 1.85574 8.53876 1.81724 8.7329C1.77873 8.92704 1.7987 9.12824 1.87462 9.31102C1.95054 9.4938 2.07899 9.64994 2.24371 9.75968C2.40842 9.86941 2.602 9.92779 2.79992 9.92744H7.56392C7.94477 9.92744 8.31002 9.77615 8.57932 9.50685C8.84863 9.23754 8.99992 8.87229 8.99992 8.49144V3.72744C9.00027 3.52952 8.94189 3.33594 8.83216 3.17123C8.72242 3.00651 8.56628 2.87806 8.3835 2.80214C8.20072 2.72622 7.99952 2.70625 7.80538 2.74476C7.61124 2.78326 7.43289 2.87851 7.29292 3.01844Z" fill="#374957"/>
<path d="M20.015 19.5275L21.909 17.6335C22.0486 17.4935 22.1435 17.3152 22.1818 17.1212C22.2201 16.9273 22.2001 16.7263 22.1242 16.5437C22.0483 16.3611 21.92 16.2052 21.7555 16.0955C21.591 15.9858 21.3977 15.9273 21.2 15.9275H16.436C16.0552 15.9275 15.6899 16.0788 15.4206 16.3481C15.1513 16.6174 15 16.9826 15 17.3635V22.1275C14.9998 22.3253 15.0584 22.5188 15.1682 22.6833C15.278 22.8479 15.4341 22.9762 15.6169 23.052C15.7996 23.1278 16.0007 23.1477 16.1948 23.1091C16.3888 23.0706 16.5671 22.9754 16.707 22.8355L18.6 20.9425L22.292 24.6345C22.4806 24.8166 22.7332 24.9174 22.9954 24.9152C23.2576 24.9129 23.5084 24.8077 23.6938 24.6223C23.8792 24.4369 23.9844 24.1861 23.9867 23.9239C23.989 23.6617 23.8882 23.4091 23.706 23.2205L20.015 19.5275Z" fill="#374957"/>
<path d="M16.436 9.92747H21.2C21.3978 9.92762 21.5913 9.86909 21.7558 9.75929C21.9204 9.64948 22.0487 9.49332 22.1245 9.31058C22.2003 9.12784 22.2201 8.92673 22.1816 8.73268C22.1431 8.53863 22.0478 8.36038 21.908 8.22047L20.015 6.32747L23.707 2.63547C23.8946 2.44796 24.0001 2.19359 24.0002 1.92832C24.0003 1.66305 23.895 1.40861 23.7075 1.22097C23.52 1.03333 23.2656 0.927859 23.0003 0.927765C22.7351 0.927671 22.4806 1.03296 22.293 1.22047L18.6 4.91247L16.707 3.01847C16.567 2.87854 16.3887 2.78329 16.1945 2.74479C16.0004 2.70628 15.7992 2.72625 15.6164 2.80217C15.4336 2.87809 15.2775 3.00654 15.1678 3.17126C15.058 3.33597 14.9996 3.52955 15 3.72747V8.49147C15 8.87232 15.1513 9.23757 15.4206 9.50687C15.6899 9.77618 16.0551 9.92747 16.436 9.92747Z" fill="#374957"/>
<path d="M7.56402 15.9275H2.80002C2.60218 15.9273 2.40875 15.9859 2.24418 16.0957C2.07962 16.2055 1.95133 16.3616 1.87553 16.5444C1.79974 16.7271 1.77985 16.9282 1.81839 17.1223C1.85692 17.3163 1.95215 17.4946 2.09202 17.6345L3.98502 19.5275L0.29302 23.2205C0.19751 23.3127 0.121328 23.4231 0.0689187 23.5451C0.0165097 23.6671 -0.0110765 23.7983 -0.0122303 23.9311C-0.0133841 24.0638 0.0119176 24.1955 0.0621985 24.3184C0.112479 24.4413 0.186732 24.553 0.280625 24.6469C0.374518 24.7407 0.48617 24.815 0.609066 24.8653C0.731962 24.9156 0.863642 24.9409 0.996421 24.9397C1.1292 24.9386 1.26042 24.911 1.38242 24.8586C1.50443 24.8062 1.61477 24.73 1.70702 24.6345L5.40002 20.9425L7.29402 22.8365C7.43404 22.9761 7.6123 23.071 7.80627 23.1093C8.00024 23.1476 8.20121 23.1276 8.38379 23.0517C8.56637 22.9758 8.72235 22.8475 8.83204 22.683C8.94172 22.5185 9.00018 22.3252 9.00002 22.1275V17.3635C9.00002 16.9826 8.84873 16.6174 8.57943 16.3481C8.31012 16.0788 7.94487 15.9275 7.56402 15.9275Z" fill="#374957"/>
</g>
<defs>
<clipPath id="clip0_507_1978">
<rect width="24" height="24" fill="white" transform="translate(0 0.92749)"/>
</clipPath>
</defs>
</svg>
