<svg width="24" height="25" viewBox="0 0 24 25" fill="none" xmlns="http://www.w3.org/2000/svg">
<g clip-path="url(#clip0_507_2072)">
<path d="M20 0.92749C18.9391 0.92749 17.9217 1.34892 17.1716 2.09906C16.4214 2.84921 16 3.86662 16 4.92749C16 5.19271 16.1054 5.44706 16.2929 5.6346C16.4804 5.82213 16.7348 5.92749 17 5.92749C17.2652 5.92749 17.5196 5.82213 17.7071 5.6346C17.8946 5.44706 18 5.19271 18 4.92749C18 4.39706 18.2107 3.88835 18.5858 3.51328C18.9609 3.1382 19.4696 2.92749 20 2.92749C20.5304 2.92749 21.0391 3.1382 21.4142 3.51328C21.7893 3.88835 22 4.39706 22 4.92749V15.9535C21.1396 15.2917 20.0855 14.9312 19 14.9275C18.1812 14.9278 17.375 15.1293 16.6523 15.5141C15.9296 15.8989 15.3124 16.4553 14.855 17.1345C14.484 16.7526 14.0402 16.4489 13.5498 16.2416C13.0594 16.0343 12.5324 15.9275 12 15.9275C11.4676 15.9275 10.9406 16.0343 10.4502 16.2416C9.95977 16.4489 9.51595 16.7526 9.145 17.1345C8.68762 16.4553 8.07045 15.8989 7.34771 15.5141C6.62498 15.1293 5.8188 14.9278 5 14.9275C3.91453 14.9312 2.86039 15.2917 2 15.9535V4.92749C2 4.39706 2.21071 3.88835 2.58579 3.51328C2.96086 3.1382 3.46957 2.92749 4 2.92749C4.53043 2.92749 5.03914 3.1382 5.41421 3.51328C5.78929 3.88835 6 4.39706 6 4.92749C6 5.19271 6.10536 5.44706 6.29289 5.6346C6.48043 5.82213 6.73478 5.92749 7 5.92749C7.26522 5.92749 7.51957 5.82213 7.70711 5.6346C7.89464 5.44706 8 5.19271 8 4.92749C8 3.86662 7.57857 2.84921 6.82843 2.09906C6.07828 1.34892 5.06087 0.92749 4 0.92749C2.93913 0.92749 1.92172 1.34892 1.17157 2.09906C0.421427 2.84921 0 3.86662 0 4.92749L0 19.9275C0 21.2536 0.526784 22.5253 1.46447 23.463C2.40215 24.4007 3.67392 24.9275 5 24.9275C6.32608 24.9275 7.59785 24.4007 8.53553 23.463C9.47322 22.5253 10 21.2536 10 19.9275C10 19.3971 10.2107 18.8883 10.5858 18.5133C10.9609 18.1382 11.4696 17.9275 12 17.9275C12.5304 17.9275 13.0391 18.1382 13.4142 18.5133C13.7893 18.8883 14 19.3971 14 19.9275C14 21.2536 14.5268 22.5253 15.4645 23.463C16.4021 24.4007 17.6739 24.9275 19 24.9275C20.3261 24.9275 21.5979 24.4007 22.5355 23.463C23.4732 22.5253 24 21.2536 24 19.9275V4.92749C24 3.86662 23.5786 2.84921 22.8284 2.09906C22.0783 1.34892 21.0609 0.92749 20 0.92749V0.92749ZM5 22.9275C4.40666 22.9275 3.82664 22.7515 3.33329 22.4219C2.83994 22.0923 2.45542 21.6237 2.22836 21.0755C2.0013 20.5274 1.94189 19.9242 2.05764 19.3422C2.1734 18.7603 2.45912 18.2257 2.87868 17.8062C3.29824 17.3866 3.83279 17.1009 4.41473 16.9851C4.99667 16.8694 5.59987 16.9288 6.14805 17.1559C6.69623 17.3829 7.16476 17.7674 7.49441 18.2608C7.82405 18.7541 8 19.3341 8 19.9275C8 20.7231 7.68393 21.4862 7.12132 22.0488C6.55871 22.6114 5.79565 22.9275 5 22.9275ZM19 22.9275C18.4067 22.9275 17.8266 22.7515 17.3333 22.4219C16.8399 22.0923 16.4554 21.6237 16.2284 21.0755C16.0013 20.5274 15.9419 19.9242 16.0576 19.3422C16.1734 18.7603 16.4591 18.2257 16.8787 17.8062C17.2982 17.3866 17.8328 17.1009 18.4147 16.9851C18.9967 16.8694 19.5999 16.9288 20.1481 17.1559C20.6962 17.3829 21.1648 17.7674 21.4944 18.2608C21.8241 18.7541 22 19.3341 22 19.9275C22 20.7231 21.6839 21.4862 21.1213 22.0488C20.5587 22.6114 19.7956 22.9275 19 22.9275Z" fill="#374957"/>
</g>
<defs>
<clipPath id="clip0_507_2072">
<rect width="24" height="24" fill="white" transform="translate(0 0.92749)"/>
</clipPath>
</defs>
</svg>
