<svg width="24" height="25" viewBox="0 0 24 25" fill="none" xmlns="http://www.w3.org/2000/svg">
<g clip-path="url(#clip0_507_1947)">
<path d="M12 0.92749C9.62663 0.92749 7.30655 1.63128 5.33316 2.94986C3.35977 4.26843 1.8217 6.14258 0.913451 8.33529C0.00519943 10.528 -0.232441 12.9408 0.230582 15.2686C0.693605 17.5963 1.83649 19.7345 3.51472 21.4128C5.19295 23.091 7.33115 24.2339 9.65892 24.6969C11.9867 25.1599 14.3995 24.9223 16.5922 24.014C18.7849 23.1058 20.6591 21.5677 21.9776 19.5943C23.2962 17.6209 24 15.3009 24 12.9275C23.9966 9.74595 22.7312 6.6957 20.4815 4.44601C18.2318 2.19632 15.1815 0.930931 12 0.92749V0.92749ZM21.573 10.0475L12.665 11.7795C12.5248 11.5631 12.4018 11.3361 12.297 11.1005L8.95701 3.40049C10.2214 2.99521 11.554 2.84614 12.8767 2.962C14.1995 3.07786 15.4858 3.45632 16.6605 4.07525C17.8353 4.69418 18.8748 5.54115 19.7183 6.56661C20.5618 7.59207 21.1923 8.77544 21.573 10.0475ZM12 22.9275C9.78712 22.9283 7.63653 22.1947 5.88543 20.8418C4.13432 19.4888 2.8817 17.593 2.32398 15.4516C1.76626 13.3101 1.93496 11.0441 2.80364 9.0089C3.67232 6.97365 5.19186 5.28422 7.12401 4.20549L10.462 11.8965C10.937 12.9897 11.6828 13.9437 12.629 14.6685L19.282 19.7605C18.3501 20.7593 17.2228 21.5558 15.9701 22.1006C14.7174 22.6454 13.366 22.9269 12 22.9275ZM20.5 18.1725L14.375 13.4845L21.956 12.0115C21.983 12.3115 22.002 12.6185 22.002 12.9275C22.0011 14.7818 21.4808 16.5988 20.5 18.1725Z" fill="#374957"/>
</g>
<defs>
<clipPath id="clip0_507_1947">
<rect width="24" height="24" fill="white" transform="translate(0 0.92749)"/>
</clipPath>
</defs>
</svg>
