<svg width="24" height="25" viewBox="0 0 24 25" fill="none" xmlns="http://www.w3.org/2000/svg">
<g clip-path="url(#clip0_507_1972)">
<path d="M10.4998 17.9274C10.2369 17.9276 9.97643 17.8759 9.73346 17.7754C9.49048 17.6748 9.26972 17.5273 9.08381 17.3414L5.29981 13.6424C5.11018 13.4567 5.00207 13.2034 4.99925 12.938C4.99644 12.6726 5.09916 12.417 5.28481 12.2274C5.47046 12.0378 5.72384 11.9296 5.9892 11.9268C6.25457 11.924 6.51018 12.0267 6.69981 12.2124L10.4928 15.9194L17.2988 9.21938C17.4907 9.05051 17.7401 8.96155 17.9955 8.97079C18.251 8.98003 18.4933 9.08677 18.6725 9.26907C18.8517 9.45137 18.9543 9.69538 18.9592 9.95098C18.9641 10.2066 18.8709 10.4544 18.6988 10.6434L11.9058 17.3504C11.7209 17.5343 11.5015 17.6799 11.2603 17.7789C11.019 17.8779 10.7606 17.9284 10.4998 17.9274ZM23.9998 19.9274V13.2674C24.0371 10.1848 22.9069 7.20227 20.8361 4.91855C18.7653 2.63483 15.9073 1.21902 12.8358 0.95538C11.1215 0.835438 9.40134 1.08512 7.79185 1.68753C6.18235 2.28995 4.72102 3.23104 3.50672 4.44713C2.29243 5.66322 1.35351 7.12595 0.753484 8.73634C0.153457 10.3467 -0.0936746 12.0672 0.0288091 13.7814C0.470809 20.1354 6.08181 24.9274 13.0828 24.9274H18.9998C20.3254 24.9258 21.5963 24.3985 22.5336 23.4612C23.4709 22.5238 23.9982 21.253 23.9998 19.9274ZM12.6998 2.95138C15.2663 3.17842 17.6517 4.36829 19.3769 6.28193C21.1021 8.19558 22.0391 10.6912 21.9998 13.2674V19.9274C21.9998 20.723 21.6837 21.4861 21.1211 22.0487C20.5585 22.6113 19.7955 22.9274 18.9998 22.9274H13.0828C7.04881 22.9274 2.39981 19.0274 2.02481 13.6434C1.92636 12.272 2.11178 10.895 2.56949 9.59845C3.0272 8.30192 3.74736 7.11371 4.68498 6.10805C5.6226 5.10239 6.75754 4.30089 8.01888 3.75363C9.28022 3.20636 10.6409 2.92509 12.0158 2.92738C12.2428 2.92738 12.4718 2.93638 12.6998 2.95138Z" fill="#374957"/>
</g>
<defs>
<clipPath id="clip0_507_1972">
<rect width="24" height="24" fill="white" transform="translate(0 0.92749)"/>
</clipPath>
</defs>
</svg>
