<svg width="24" height="25" viewBox="0 0 24 25" fill="none" xmlns="http://www.w3.org/2000/svg">
<g clip-path="url(#clip0_507_1866)">
<path d="M11.9999 24.9275C11.8683 24.9283 11.7379 24.903 11.616 24.8533C11.4942 24.8035 11.3834 24.7302 11.2899 24.6375L3.11994 16.4675C2.65431 16.003 2.28488 15.4513 2.03281 14.8438C1.78075 14.2364 1.651 13.5852 1.651 12.9275C1.651 12.2698 1.78075 11.6186 2.03281 11.0112C2.28488 10.4037 2.65431 9.85195 3.11994 9.38749L11.2899 1.21749C11.4782 1.02919 11.7336 0.923401 11.9999 0.923401C12.2662 0.923401 12.5216 1.02919 12.7099 1.21749C12.8982 1.4058 13.004 1.66119 13.004 1.92749C13.004 2.19379 12.8982 2.44919 12.7099 2.63749L4.53994 10.8075C3.97814 11.37 3.66258 12.1325 3.66258 12.9275C3.66258 13.7225 3.97814 14.485 4.53994 15.0475L12.7099 23.2175C12.8037 23.3105 12.8781 23.4211 12.9288 23.5429C12.9796 23.6648 13.0057 23.7955 13.0057 23.9275C13.0057 24.0595 12.9796 24.1902 12.9288 24.3121C12.8781 24.4339 12.8037 24.5445 12.7099 24.6375C12.6165 24.7302 12.5057 24.8035 12.3838 24.8533C12.262 24.903 12.1315 24.9283 11.9999 24.9275Z" fill="#374957"/>
<path d="M22.0001 24.9275C21.8685 24.9283 21.7381 24.903 21.6162 24.8533C21.4944 24.8035 21.3836 24.7302 21.2901 24.6375L11.7101 15.0475C11.1483 14.485 10.8328 13.7225 10.8328 12.9275C10.8328 12.1325 11.1483 11.37 11.7101 10.8075L21.2901 1.21749C21.4784 1.02919 21.7338 0.923401 22.0001 0.923401C22.2664 0.923401 22.5218 1.02919 22.7101 1.21749C22.8984 1.4058 23.0042 1.66119 23.0042 1.92749C23.0042 2.19379 22.8984 2.44919 22.7101 2.63749L13.1201 12.2175C13.0264 12.3105 12.952 12.4211 12.9012 12.5429C12.8505 12.6648 12.8243 12.7955 12.8243 12.9275C12.8243 13.0595 12.8505 13.1902 12.9012 13.3121C12.952 13.4339 13.0264 13.5445 13.1201 13.6375L22.7101 23.2175C22.8039 23.3105 22.8782 23.4211 22.929 23.5429C22.9798 23.6648 23.0059 23.7955 23.0059 23.9275C23.0059 24.0595 22.9798 24.1902 22.929 24.3121C22.8782 24.4339 22.8039 24.5445 22.7101 24.6375C22.6167 24.7302 22.5059 24.8035 22.384 24.8533C22.2622 24.903 22.1317 24.9283 22.0001 24.9275Z" fill="#374957"/>
</g>
<defs>
<clipPath id="clip0_507_1866">
<rect width="24" height="24" fill="white" transform="translate(0 0.92749)"/>
</clipPath>
</defs>
</svg>
