<svg width="24" height="25" viewBox="0 0 24 25" fill="none" xmlns="http://www.w3.org/2000/svg">
<g clip-path="url(#clip0_507_1971)">
<path d="M20 0.92749H4C2.93913 0.92749 1.92172 1.34892 1.17157 2.09906C0.421427 2.84921 0 3.86662 0 4.92749L0 16.9275C0 17.9884 0.421427 19.0058 1.17157 19.7559C1.92172 20.5061 2.93913 20.9275 4 20.9275H6.9L11.351 24.6905C11.5316 24.8433 11.7605 24.9272 11.997 24.9272C12.2335 24.9272 12.4624 24.8433 12.643 24.6905L17.1 20.9275H20C21.0609 20.9275 22.0783 20.5061 22.8284 19.7559C23.5786 19.0058 24 17.9884 24 16.9275V4.92749C24 3.86662 23.5786 2.84921 22.8284 2.09906C22.0783 1.34892 21.0609 0.92749 20 0.92749V0.92749ZM22 16.9275C22 17.4579 21.7893 17.9666 21.4142 18.3417C21.0391 18.7168 20.5304 18.9275 20 18.9275H17.1C16.6273 18.9276 16.1699 19.0952 15.809 19.4005L12 22.6175L8.193 19.4005C7.83156 19.0948 7.3734 18.9272 6.9 18.9275H4C3.46957 18.9275 2.96086 18.7168 2.58579 18.3417C2.21071 17.9666 2 17.4579 2 16.9275V4.92749C2 4.39706 2.21071 3.88835 2.58579 3.51328C2.96086 3.1382 3.46957 2.92749 4 2.92749H20C20.5304 2.92749 21.0391 3.1382 21.4142 3.51328C21.7893 3.88835 22 4.39706 22 4.92749V16.9275Z" fill="#374957"/>
<path d="M7 7.92764H12C12.2652 7.92764 12.5196 7.82228 12.7071 7.63475C12.8946 7.44721 13 7.19286 13 6.92764C13 6.66242 12.8946 6.40807 12.7071 6.22054C12.5196 6.033 12.2652 5.92764 12 5.92764H7C6.73478 5.92764 6.48043 6.033 6.29289 6.22054C6.10536 6.40807 6 6.66242 6 6.92764C6 7.19286 6.10536 7.44721 6.29289 7.63475C6.48043 7.82228 6.73478 7.92764 7 7.92764Z" fill="#374957"/>
<path d="M17 9.92749H7C6.73478 9.92749 6.48043 10.0328 6.29289 10.2204C6.10536 10.4079 6 10.6623 6 10.9275C6 11.1927 6.10536 11.4471 6.29289 11.6346C6.48043 11.8221 6.73478 11.9275 7 11.9275H17C17.2652 11.9275 17.5196 11.8221 17.7071 11.6346C17.8946 11.4471 18 11.1927 18 10.9275C18 10.6623 17.8946 10.4079 17.7071 10.2204C17.5196 10.0328 17.2652 9.92749 17 9.92749Z" fill="#374957"/>
<path d="M17 13.9273H7C6.73478 13.9273 6.48043 14.0327 6.29289 14.2202C6.10536 14.4078 6 14.6621 6 14.9273C6 15.1926 6.10536 15.4469 6.29289 15.6345C6.48043 15.822 6.73478 15.9273 7 15.9273H17C17.2652 15.9273 17.5196 15.822 17.7071 15.6345C17.8946 15.4469 18 15.1926 18 14.9273C18 14.6621 17.8946 14.4078 17.7071 14.2202C17.5196 14.0327 17.2652 13.9273 17 13.9273Z" fill="#374957"/>
</g>
<defs>
<clipPath id="clip0_507_1971">
<rect width="24" height="24" fill="white" transform="translate(0 0.92749)"/>
</clipPath>
</defs>
</svg>
