<svg width="24" height="25" viewBox="0 0 24 25" fill="none" xmlns="http://www.w3.org/2000/svg">
<g clip-path="url(#clip0_507_2016)">
<path d="M21.341 6.05249C21.0608 5.70073 20.7047 5.41684 20.2993 5.22203C19.8939 5.02722 19.4498 4.92654 19 4.92749H14.673L14.8 3.81749C14.827 3.57349 14.9428 3.34794 15.1254 3.18382C15.308 3.01969 15.5445 2.92846 15.79 2.92749H20C20.2652 2.92749 20.5196 2.82213 20.7071 2.6346C20.8947 2.44706 21 2.19271 21 1.92749C21 1.66227 20.8947 1.40792 20.7071 1.22038C20.5196 1.03285 20.2652 0.92749 20 0.92749H15.79C15.0518 0.927659 14.3396 1.20001 13.7896 1.69243C13.2396 2.18486 12.8905 2.86278 12.809 3.59649L12.661 4.92749H5.00003C4.56041 4.93157 4.12699 5.03158 3.73004 5.22054C3.33309 5.40949 2.98218 5.68284 2.70182 6.02148C2.42146 6.36012 2.21842 6.75588 2.10688 7.18113C1.99533 7.60637 1.97798 8.05084 2.05603 8.48349L3.56803 20.5495C3.72123 21.7577 4.30943 22.8686 5.22257 23.6744C6.1357 24.4803 7.31118 24.9257 8.52903 24.9275H15.47C16.6881 24.9255 17.8637 24.4799 18.777 23.6739C19.6902 22.8679 20.2786 21.7568 20.432 20.5485L21.932 8.58049C22.0305 8.14182 22.0284 7.68657 21.9261 7.2488C21.8237 6.81103 21.6237 6.40206 21.341 6.05249ZM19 6.92749C19.15 6.92743 19.2981 6.96111 19.4332 7.02602C19.5684 7.09093 19.6873 7.18542 19.781 7.30249C19.8814 7.43411 19.9499 7.58728 19.981 7.74989C20.012 7.91251 20.0049 8.08012 19.96 8.23949L19.622 10.9275H14.006L14.451 6.92749H19ZM4.22103 7.30149C4.31464 7.18487 4.43323 7.09073 4.56804 7.026C4.70286 6.96128 4.85048 6.92761 5.00003 6.92749H12.437L11.992 10.9275H4.37403L4.02403 8.14349C3.99125 7.99737 3.99194 7.84573 4.02606 7.69992C4.06017 7.55411 4.12683 7.4179 4.22103 7.30149ZM18.447 20.3015C18.3549 21.0263 18.0018 21.6927 17.4539 22.176C16.9059 22.6594 16.2007 22.9265 15.47 22.9275H8.52903C7.79825 22.9273 7.09266 22.6605 6.54471 22.177C5.99676 21.6935 5.64413 21.0266 5.55303 20.3015L4.62603 12.9275H19.371L18.447 20.3015ZM13.438 16.0375L12.994 20.0375C12.9796 20.168 12.9396 20.2944 12.8763 20.4095C12.813 20.5246 12.7276 20.626 12.6251 20.7081C12.5226 20.7902 12.4049 20.8513 12.2788 20.8879C12.1527 20.9245 12.0206 20.9359 11.89 20.9215C11.7595 20.907 11.6331 20.867 11.518 20.8037C11.4029 20.7404 11.3015 20.6551 11.2194 20.5526C11.1373 20.4501 11.0762 20.3324 11.0396 20.2063C11.003 20.0801 10.9916 19.948 11.006 19.8175L11.45 15.8175C11.4827 15.5552 11.6164 15.316 11.8228 15.1509C12.0292 14.9857 12.292 14.9077 12.555 14.9335C12.8185 14.9629 13.0595 15.0957 13.2251 15.3027C13.3906 15.5097 13.4672 15.774 13.438 16.0375Z" fill="#374957"/>
</g>
<defs>
<clipPath id="clip0_507_2016">
<rect width="24" height="24" fill="white" transform="translate(0 0.92749)"/>
</clipPath>
</defs>
</svg>
