<svg width="24" height="25" viewBox="0 0 24 25" fill="none" xmlns="http://www.w3.org/2000/svg">
<g clip-path="url(#clip0_507_2049)">
<path d="M5.972 23.2114C5.75341 23.2114 5.54087 23.1397 5.3669 23.0074C5.19292 22.875 5.0671 22.6893 5.00869 22.4787C4.95027 22.2681 4.96248 22.0441 5.04345 21.841C5.12441 21.638 5.26967 21.4671 5.457 21.3544C9 19.2264 9 14.6564 9 11.9264C9 11.1308 9.31607 10.3677 9.87868 9.80512C10.4413 9.24251 11.2044 8.92644 12 8.92644C12.7956 8.92644 13.5587 9.24251 14.1213 9.80512C14.6839 10.3677 15 11.1308 15 11.9264C15 12.1917 14.8946 12.446 14.7071 12.6336C14.5196 12.8211 14.2652 12.9264 14 12.9264C13.7348 12.9264 13.4804 12.8211 13.2929 12.6336C13.1054 12.446 13 12.1917 13 11.9264C13 11.6612 12.8946 11.4069 12.7071 11.2193C12.5196 11.0318 12.2652 10.9264 12 10.9264C11.7348 10.9264 11.4804 11.0318 11.2929 11.2193C11.1054 11.4069 11 11.6612 11 11.9264C11 14.8734 11 20.3604 6.486 23.0694C6.33068 23.1624 6.15303 23.2115 5.972 23.2114ZM10.935 24.6324C13.217 22.3324 14.55 19.0984 14.896 15.0114C14.9077 14.8803 14.8933 14.7482 14.8538 14.6227C14.8143 14.4971 14.7504 14.3806 14.6658 14.2798C14.5811 14.179 14.4774 14.0959 14.3606 14.0353C14.2438 13.9746 14.1161 13.9376 13.985 13.9264C13.8538 13.913 13.7212 13.9261 13.5951 13.9649C13.4691 14.0038 13.3521 14.0676 13.2513 14.1526C13.1504 14.2376 13.0677 14.3421 13.008 14.4597C12.9483 14.5774 12.913 14.7058 12.904 14.8374C12.593 18.4944 11.485 21.2374 9.516 23.2184C9.32902 23.4066 9.22445 23.6614 9.2253 23.9266C9.22614 24.1919 9.33233 24.446 9.5205 24.6329C9.70867 24.8199 9.96341 24.9245 10.2287 24.9236C10.494 24.9228 10.748 24.8166 10.935 24.6284V24.6324ZM16.135 24.4464C16.7416 23.4386 17.2467 22.373 17.643 21.2654C17.7258 21.0177 17.7085 20.7474 17.5946 20.5124C17.4808 20.2773 17.2794 20.0961 17.0337 20.0075C16.788 19.919 16.5174 19.93 16.2797 20.0384C16.0421 20.1468 15.8562 20.3438 15.762 20.5874C15.4099 21.5695 14.9617 22.5144 14.424 23.4084C14.3558 23.5208 14.3105 23.6455 14.2905 23.7753C14.2705 23.9052 14.2763 24.0378 14.3076 24.1654C14.3388 24.293 14.3949 24.4132 14.4726 24.5192C14.5503 24.6252 14.6482 24.7148 14.7605 24.7829C14.9874 24.9206 15.2597 24.9625 15.5174 24.8994C15.6451 24.8681 15.7653 24.812 15.8713 24.7343C15.9772 24.6566 16.0668 24.5588 16.135 24.4464ZM18.5 18.1174C18.8705 16.0753 19.038 14.0016 19 11.9264C18.9991 10.5097 18.5683 9.12667 17.7646 7.96C16.9609 6.79334 15.8221 5.89799 14.4987 5.39228C13.1753 4.88658 11.7297 4.79432 10.3528 5.1277C8.97584 5.46108 7.73248 6.2044 6.787 7.25944C6.69492 7.35645 6.62323 7.47094 6.57618 7.59613C6.52913 7.72133 6.50768 7.8547 6.51308 7.98834C6.51849 8.12198 6.55065 8.25317 6.60766 8.37416C6.66467 8.49515 6.74537 8.60347 6.84499 8.69272C6.94461 8.78197 7.06111 8.85032 7.18762 8.89375C7.31412 8.93717 7.44805 8.95477 7.58148 8.94551C7.7149 8.93626 7.84512 8.90033 7.96441 8.83985C8.08371 8.77938 8.18966 8.69559 8.276 8.59344C8.95128 7.83972 9.83937 7.30865 10.8229 7.07041C11.8064 6.83217 12.8391 6.89798 13.7845 7.25915C14.7298 7.62031 15.5433 8.25983 16.1174 9.09317C16.6916 9.92652 16.9993 10.9145 17 11.9264C17.0369 13.8732 16.8821 15.8189 16.538 17.7354C16.4875 17.9956 16.5423 18.2652 16.6905 18.4849C16.8386 18.7047 17.0679 18.8566 17.328 18.9074C17.3915 18.9202 17.4562 18.9265 17.521 18.9264C17.7526 18.9258 17.9769 18.8449 18.1554 18.6973C18.334 18.5498 18.4558 18.3448 18.5 18.1174ZM7 11.9264C6.99971 11.6473 7.02279 11.3687 7.069 11.0934C7.09886 10.9609 7.10141 10.8237 7.0765 10.6902C7.05158 10.5567 6.99972 10.4296 6.92409 10.3168C6.84845 10.204 6.75062 10.1077 6.63657 10.034C6.52251 9.96018 6.39462 9.91042 6.2607 9.8877C6.12678 9.86499 5.98963 9.86979 5.85763 9.90182C5.72563 9.93386 5.60154 9.99245 5.49293 10.074C5.38431 10.1556 5.29346 10.2584 5.2259 10.3763C5.15835 10.4941 5.11551 10.6245 5.1 10.7594C5.03399 11.1449 5.00054 11.5353 5 11.9264C5 16.5714 3.654 18.9264 1 18.9264C0.734784 18.9264 0.48043 19.0318 0.292893 19.2193C0.105357 19.4069 0 19.6612 0 19.9264C0 20.1917 0.105357 20.446 0.292893 20.6336C0.48043 20.8211 0.734784 20.9264 1 20.9264C4.869 20.9264 7 17.7264 7 11.9264ZM20.7 24.3404C22.3457 20.4146 23.13 16.1813 23 11.9264C23.0046 10.2654 22.6283 8.62535 21.9 7.13244C21.8425 7.01425 21.7624 6.90854 21.6641 6.82133C21.5658 6.73412 21.4512 6.66714 21.327 6.62419C21.2028 6.58124 21.0714 6.56318 20.9402 6.57103C20.809 6.57888 20.6807 6.61249 20.5625 6.66994C20.4443 6.7274 20.3386 6.80757 20.2514 6.90588C20.1642 7.00419 20.0972 7.11871 20.0542 7.24291C20.0113 7.3671 19.9932 7.49855 20.0011 7.62973C20.0089 7.76091 20.0425 7.88925 20.1 8.00744C20.695 9.22801 21.0029 10.5686 21 11.9264C21.1259 15.8952 20.4035 19.8452 18.881 23.5124C18.8268 23.6322 18.7967 23.7615 18.7925 23.8928C18.7883 24.0242 18.8101 24.1551 18.8565 24.2781C18.9029 24.4011 18.9732 24.5137 19.0632 24.6095C19.1532 24.7053 19.2612 24.7824 19.381 24.8364C19.5105 24.896 19.6514 24.9267 19.794 24.9264C19.9852 24.9256 20.1722 24.87 20.3328 24.7661C20.4934 24.6623 20.6208 24.5145 20.7 24.3404ZM3 14.9264V11.9264C3.00265 9.54031 3.95171 7.25266 5.63896 5.56541C7.32622 3.87815 9.61386 2.92909 12 2.92644C13.9484 2.91995 15.8452 3.55222 17.4 4.72644C17.6122 4.88557 17.8789 4.9539 18.1414 4.91639C18.404 4.87889 18.6409 4.73862 18.8 4.52644C18.9591 4.31427 19.0275 4.04757 18.99 3.78502C18.9524 3.52247 18.8122 3.28557 18.6 3.12644C16.6994 1.69186 14.3812 0.919157 12 0.926443C9.08367 0.929883 6.28778 2.08991 4.22563 4.15207C2.16347 6.21422 1.00344 9.01012 1 11.9264V14.9264C1 15.1917 1.10536 15.446 1.29289 15.6336C1.48043 15.8211 1.73478 15.9264 2 15.9264C2.26522 15.9264 2.51957 15.8211 2.70711 15.6336C2.89464 15.446 3 15.1917 3 14.9264Z" fill="#374957"/>
</g>
<defs>
<clipPath id="clip0_507_2049">
<rect width="24" height="24" fill="white" transform="translate(0 0.92749)"/>
</clipPath>
</defs>
</svg>
