<svg width="24" height="25" viewBox="0 0 24 25" fill="none" xmlns="http://www.w3.org/2000/svg">
<g clip-path="url(#clip0_507_2159)">
<path d="M20.0001 8.92748C18.9392 8.92748 17.9218 8.50606 17.1717 7.75591C16.4215 7.00576 16.0001 5.98835 16.0001 4.92748C16.0001 3.86662 16.4215 2.8492 17.1717 2.09906C17.9218 1.34891 18.9392 0.927483 20.0001 0.927483C21.061 0.927483 22.0784 1.34891 22.8285 2.09906C23.5787 2.8492 24.0001 3.86662 24.0001 4.92748C24.0001 5.98835 23.5787 7.00576 22.8285 7.75591C22.0784 8.50606 21.061 8.92748 20.0001 8.92748ZM20.0001 2.92748C19.4697 2.92748 18.9609 3.1382 18.5859 3.51327C18.2108 3.88834 18.0001 4.39705 18.0001 4.92748C18.0001 5.45792 18.2108 5.96662 18.5859 6.3417C18.9609 6.71677 19.4697 6.92748 20.0001 6.92748C20.5305 6.92748 21.0392 6.71677 21.4143 6.3417C21.7894 5.96662 22.0001 5.45792 22.0001 4.92748C22.0001 4.39705 21.7894 3.88834 21.4143 3.51327C21.0392 3.1382 20.5305 2.92748 20.0001 2.92748ZM21.4521 24.9275H12.5891C12.1408 24.9314 11.6993 24.817 11.3094 24.5958C10.9194 24.3746 10.5947 24.0543 10.3681 23.6675C10.146 23.2947 10.0264 22.8698 10.0213 22.4359C10.0162 22.002 10.1258 21.5744 10.3391 21.1965L14.7751 13.2375C15.0035 12.843 15.3316 12.5155 15.7265 12.2879C16.1214 12.0602 16.5693 11.9404 17.0251 11.9404C17.4809 11.9404 17.9287 12.0602 18.3236 12.2879C18.7186 12.5155 19.0467 12.843 19.2751 13.2375L23.7001 21.1905C23.9138 21.569 24.0237 21.9971 24.0188 22.4317C24.0139 22.8663 23.8943 23.2919 23.6721 23.6655C23.4456 24.0524 23.1211 24.3727 22.7314 24.5943C22.3416 24.8158 21.9004 24.9307 21.4521 24.9275ZM17.0231 13.9275C16.922 13.9251 16.8221 13.9501 16.734 14C16.646 14.0498 16.5731 14.1225 16.5231 14.2105L12.0871 22.1695C12.0442 22.2433 12.0221 22.3274 12.0232 22.4128C12.0242 22.4982 12.0484 22.5817 12.0931 22.6545C12.1443 22.7406 12.2177 22.8114 12.3057 22.8595C12.3937 22.9075 12.4929 22.931 12.5931 22.9275H21.4561C21.5564 22.9305 21.6557 22.9065 21.7436 22.8582C21.8315 22.8098 21.9049 22.7388 21.9561 22.6525C22 22.5785 22.0232 22.494 22.0232 22.408C22.0232 22.3219 22 22.2375 21.9561 22.1635L17.5241 14.2115C17.4743 14.1231 17.4013 14.0499 17.3131 13.9999C17.2248 13.9498 17.1245 13.9248 17.0231 13.9275ZM8.00008 23.9275C8.00008 23.6623 7.89473 23.4079 7.70719 23.2204C7.51965 23.0328 7.2653 22.9275 7.00008 22.9275H3.35008C3.11622 22.9273 2.88641 22.8664 2.6832 22.7507C2.47999 22.6349 2.31037 22.4683 2.19097 22.2672C2.07156 22.0661 2.00649 21.8375 2.00213 21.6036C1.99777 21.3698 2.05427 21.1389 2.16608 20.9335L8.81808 8.63348C8.93186 8.41909 9.10217 8.23995 9.31054 8.11549C9.51891 7.99103 9.75738 7.92601 10.0001 7.92748C10.243 7.92549 10.4818 7.99029 10.6905 8.11479C10.8991 8.2393 11.0695 8.41872 11.1831 8.63348L12.4101 10.9005C12.4726 11.016 12.5573 11.1182 12.6592 11.201C12.7612 11.2839 12.8785 11.3458 13.0044 11.3833C13.1303 11.4208 13.2624 11.4332 13.3931 11.4197C13.5238 11.4061 13.6505 11.367 13.7661 11.3045C13.8816 11.242 13.9838 11.1573 14.0666 11.0553C14.1495 10.9534 14.2114 10.8361 14.2489 10.7102C14.2864 10.5842 14.2988 10.4522 14.2853 10.3215C14.2717 10.1908 14.2326 10.064 14.1701 9.94848L12.9441 7.68248C12.6575 7.15173 12.2327 6.70836 11.7147 6.39935C11.1967 6.09035 10.6048 5.9272 10.0016 5.9272C9.39841 5.9272 8.80646 6.09035 8.28845 6.39935C7.77044 6.70836 7.34565 7.15173 7.05908 7.68248L0.406084 19.9825C0.130187 20.4927 -0.0085649 21.0657 0.00339863 21.6456C0.0153622 22.2255 0.177632 22.7923 0.474335 23.2907C0.771039 23.7891 1.19202 24.2019 1.69609 24.4888C2.20017 24.7757 2.77008 24.9269 3.35008 24.9275H7.00008C7.2653 24.9275 7.51965 24.8221 7.70719 24.6346C7.89473 24.4471 8.00008 24.1927 8.00008 23.9275Z" fill="#374957"/>
</g>
<defs>
<clipPath id="clip0_507_2159">
<rect width="24" height="24" fill="white" transform="translate(0 0.92749)"/>
</clipPath>
</defs>
</svg>
