<svg width="24" height="25" viewBox="0 0 24 25" fill="none" xmlns="http://www.w3.org/2000/svg">
<g clip-path="url(#clip0_507_2082)">
<path d="M24.0001 14.9335C23.9989 14.5141 23.9092 14.0997 23.7369 13.7173C23.5646 13.3349 23.3135 12.9932 23.0001 12.7145V10.9275C22.9972 8.27622 21.9427 5.73437 20.0679 3.85964C18.1932 1.98491 15.6514 0.930402 13.0001 0.92749L11.0001 0.92749C8.34881 0.930402 5.80697 1.98491 3.93223 3.85964C2.0575 5.73437 1.003 8.27622 1.00009 10.9275V12.7645C0.689351 13.0577 0.441792 13.4113 0.272591 13.8037C0.10339 14.196 0.0161133 14.6187 0.0161133 15.046C0.0161133 15.4732 0.10339 15.896 0.272591 16.2883C0.441792 16.6806 0.689351 17.0343 1.00009 17.3275V17.9275C1.0022 19.7834 1.74038 21.5626 3.05268 22.8749C4.36497 24.1872 6.14422 24.9254 8.00009 24.9275H16.0001C17.856 24.9254 19.6352 24.1872 20.9475 22.8749C22.2598 21.5626 22.998 19.7834 23.0001 17.9275V17.1535C23.3136 16.8747 23.5648 16.5328 23.7371 16.1502C23.9094 15.7677 23.999 15.3531 24.0001 14.9335ZM2.81209 16.0855C2.56274 16.0099 2.34835 15.8482 2.20709 15.6292C2.06583 15.4103 2.00687 15.1483 2.04073 14.8899C2.07458 14.6316 2.19905 14.3936 2.39195 14.2185C2.58486 14.0433 2.83367 13.9423 3.09409 13.9335H21.0001C21.2653 13.9335 21.5197 14.0388 21.7072 14.2264C21.8947 14.4139 22.0001 14.6683 22.0001 14.9335C22.0001 15.1987 21.8947 15.4531 21.7072 15.6406C21.5197 15.8281 21.2653 15.9335 21.0001 15.9335H17.0001C15.0441 15.9335 13.0211 16.7215 10.6361 18.4145C10.1559 18.748 9.58523 18.9267 9.00059 18.9267C8.41594 18.9267 7.84527 18.748 7.36509 18.4145C7.13709 18.2525 6.91809 18.0835 6.69809 17.9145C5.60875 16.939 4.25802 16.3033 2.81209 16.0855ZM3.00009 10.9275C3.00247 8.80649 3.84609 6.77304 5.34586 5.27327C6.84564 3.77349 8.87909 2.92987 11.0001 2.92749H13.0001C15.1211 2.92987 17.1545 3.77349 18.6543 5.27327C20.1541 6.77304 20.9977 8.80649 21.0001 10.9275V11.9335L3.00009 11.9435V10.9275ZM16.0001 22.9275H8.00009C6.71927 22.9241 5.48872 22.4287 4.5628 21.5437C3.63688 20.6587 3.08638 19.4518 3.02509 18.1725C3.93275 18.424 4.77172 18.8776 5.47909 19.4995C5.71809 19.6845 5.95809 19.8685 6.20809 20.0455C7.02775 20.615 8.00198 20.9203 9.00009 20.9203C9.99819 20.9203 10.9724 20.615 11.7921 20.0455C13.2716 18.826 15.0891 18.089 17.0001 17.9335H21.0001C20.9985 19.2585 20.471 20.5288 19.5335 21.4651C18.596 22.4015 17.3251 22.9275 16.0001 22.9275ZM9.00009 5.92749C9.00009 5.66227 9.10544 5.40792 9.29298 5.22038C9.48052 5.03285 9.73487 4.92749 10.0001 4.92749C10.2653 4.92749 10.5197 5.03285 10.7072 5.22038C10.8947 5.40792 11.0001 5.66227 11.0001 5.92749C11.0001 6.19271 10.8947 6.44706 10.7072 6.6346C10.5197 6.82213 10.2653 6.92749 10.0001 6.92749C9.73487 6.92749 9.48052 6.82213 9.29298 6.6346C9.10544 6.44706 9.00009 6.19271 9.00009 5.92749ZM6.00009 8.92749C6.00009 8.66227 6.10544 8.40792 6.29298 8.22038C6.48052 8.03285 6.73487 7.92749 7.00009 7.92749C7.2653 7.92749 7.51966 8.03285 7.70719 8.22038C7.89473 8.40792 8.00009 8.66227 8.00009 8.92749C8.00009 9.19271 7.89473 9.44706 7.70719 9.6346C7.51966 9.82213 7.2653 9.92749 7.00009 9.92749C6.73487 9.92749 6.48052 9.82213 6.29298 9.6346C6.10544 9.44706 6.00009 9.19271 6.00009 8.92749Z" fill="#374957"/>
</g>
<defs>
<clipPath id="clip0_507_2082">
<rect width="24" height="24" fill="white" transform="translate(0 0.92749)"/>
</clipPath>
</defs>
</svg>
