<svg width="24" height="25" viewBox="0 0 24 25" fill="none" xmlns="http://www.w3.org/2000/svg">
<g clip-path="url(#clip0_507_1952)">
<path d="M22.4998 4.9035H19.4138C19.2161 4.90355 19.0228 4.96222 18.8584 5.0721C18.694 5.18199 18.5658 5.33815 18.4902 5.52085C18.4145 5.70355 18.3947 5.90458 18.4333 6.09853C18.4718 6.29249 18.567 6.47065 18.7068 6.6105L19.7928 7.6965L16.2068 11.2815C16.0163 11.4636 15.7629 11.5652 15.4993 11.5652C15.2358 11.5652 14.9824 11.4636 14.7918 11.2815L14.6218 11.1105C14.0505 10.5646 13.2906 10.2599 12.5003 10.2599C11.7101 10.2599 10.9502 10.5646 10.3788 11.1105L5.27885 16.2105C5.09094 16.3989 4.98559 16.6543 4.98596 16.9204C4.98634 17.1865 5.09241 17.4416 5.28085 17.6295C5.46928 17.8174 5.72465 17.9228 5.99076 17.9224C6.25688 17.922 6.51194 17.8159 6.69985 17.6275L11.7998 12.5275C11.9903 12.3452 12.2437 12.2434 12.5073 12.2434C12.771 12.2434 13.0244 12.3452 13.2148 12.5275L13.3848 12.6985C13.9565 13.244 14.7162 13.5483 15.5063 13.5483C16.2965 13.5483 17.0562 13.244 17.6278 12.6985L21.2138 9.1125L22.2998 10.1985C22.4402 10.3361 22.6179 10.4292 22.8109 10.4664C23.0038 10.5035 23.2034 10.483 23.3848 10.4073C23.5661 10.3317 23.7212 10.2043 23.8306 10.0411C23.94 9.87784 23.9988 9.686 23.9998 9.4895V6.4035C23.9998 6.00568 23.8418 5.62415 23.5605 5.34284C23.2792 5.06154 22.8977 4.9035 22.4998 4.9035Z" fill="#374957"/>
<path d="M23 22.9035H5C4.20435 22.9035 3.44129 22.5874 2.87868 22.0248C2.31607 21.4622 2 20.6991 2 19.9035V1.92749C2 1.66227 1.89464 1.40792 1.70711 1.22038C1.51957 1.03285 1.26522 0.92749 1 0.92749C0.734784 0.92749 0.48043 1.03285 0.292893 1.22038C0.105357 1.40792 0 1.66227 0 1.92749L0 19.9035C0.00158786 21.2291 0.528882 22.4999 1.46622 23.4373C2.40356 24.3746 3.67441 24.9019 5 24.9035H23C23.2652 24.9035 23.5196 24.7981 23.7071 24.6106C23.8946 24.4231 24 24.1687 24 23.9035C24 23.6383 23.8946 23.3839 23.7071 23.1964C23.5196 23.0088 23.2652 22.9035 23 22.9035Z" fill="#374957"/>
</g>
<defs>
<clipPath id="clip0_507_1952">
<rect width="24" height="24" fill="white" transform="translate(0 0.92749)"/>
</clipPath>
</defs>
</svg>
