<svg width="24" height="25" viewBox="0 0 24 25" fill="none" xmlns="http://www.w3.org/2000/svg">
<g clip-path="url(#clip0_507_2265)">
<path d="M13.861 24.9275H10.139C7.79817 24.9378 5.54703 24.0277 3.87102 22.3935C2.12435 20.633 0.849432 18.4608 0.164024 16.0775C-0.0129631 15.4799 -0.0482521 14.8493 0.0609571 14.2357C0.170166 13.622 0.420868 13.0423 0.793174 12.5425C1.16548 12.0426 1.64914 11.6364 2.2058 11.3561C2.76245 11.0758 3.37677 10.929 4.00002 10.9275H20C20.6234 10.9289 21.2378 11.0756 21.7946 11.3558C22.3514 11.6361 22.8353 12.0423 23.2077 12.5421C23.5802 13.0419 23.8311 13.6217 23.9405 14.2353C24.0499 14.849 24.0148 15.4797 23.838 16.0775C23.1531 18.4612 21.8777 20.6336 20.13 22.3935C18.454 24.0283 16.2023 24.9385 13.861 24.9275ZM4.00002 12.9275C3.68927 12.926 3.38253 12.9976 3.10458 13.1366C2.82664 13.2756 2.58528 13.478 2.40002 13.7275C2.20991 13.98 2.08174 14.2736 2.02581 14.5847C1.96988 14.8957 1.98777 15.2156 2.07802 15.5185C2.67606 17.5754 3.77565 19.4516 5.27802 20.9785C6.57968 22.2411 8.32567 22.9411 10.139 22.9275H13.861C15.6731 22.94 17.4173 22.2392 18.717 20.9765C20.2199 19.4499 21.3195 17.5736 21.917 15.5165C22.0073 15.2136 22.0252 14.8937 21.9692 14.5827C21.9133 14.2716 21.7851 13.978 21.595 13.7255C21.4102 13.4769 21.1696 13.2751 20.8926 13.1365C20.6155 12.9979 20.3098 12.9263 20 12.9275H4.00002ZM16 6.92749C16.0018 6.34758 15.8884 5.7731 15.6665 5.23735C15.4445 4.7016 15.1184 4.21524 14.707 3.80649C14.4818 3.58231 14.3033 3.31562 14.1819 3.0219C14.0605 2.72819 13.9987 2.41329 14 2.09549V1.92749C14 1.66227 13.8947 1.40792 13.7071 1.22038C13.5196 1.03285 13.2652 0.92749 13 0.92749C12.7348 0.92749 12.4805 1.03285 12.2929 1.22038C12.1054 1.40792 12 1.66227 12 1.92749V2.09549C11.9983 2.67553 12.1118 3.25014 12.3337 3.78604C12.5557 4.32194 12.8817 4.80849 13.293 5.21749C13.5182 5.44155 13.6966 5.70808 13.818 6.00161C13.9393 6.29515 14.0012 6.60986 14 6.92749C14 7.19271 14.1054 7.44706 14.2929 7.6346C14.4805 7.82213 14.7348 7.92749 15 7.92749C15.2652 7.92749 15.5196 7.82213 15.7071 7.6346C15.8947 7.44706 16 7.19271 16 6.92749ZM12 7.92749V7.61949C12.0016 7.0397 11.8882 6.46536 11.6664 5.92966C11.4447 5.39395 11.1189 4.90753 10.708 4.49849C10.4831 4.27487 10.3047 4.00886 10.1831 3.71587C10.0616 3.42287 9.99938 3.10869 10 2.79149V1.92749C10 1.66227 9.89467 1.40792 9.70713 1.22038C9.5196 1.03285 9.26524 0.92749 9.00002 0.92749C8.73481 0.92749 8.48045 1.03285 8.29292 1.22038C8.10538 1.40792 8.00002 1.66227 8.00002 1.92749V2.79149C7.99854 3.37136 8.11204 3.94576 8.33398 4.48147C8.55593 5.01719 8.88189 5.50357 9.29303 5.91249C9.51781 6.1362 9.69602 6.40224 9.81737 6.69523C9.93872 6.98822 10.0008 7.30236 10 7.61949V7.92749C10 8.19271 10.1054 8.44706 10.2929 8.6346C10.4805 8.82213 10.7348 8.92749 11 8.92749C11.2652 8.92749 11.5196 8.82213 11.7071 8.6346C11.8947 8.44706 12 8.19271 12 7.92749Z" fill="#374957"/>
</g>
<defs>
<clipPath id="clip0_507_2265">
<rect width="24" height="24" fill="white" transform="translate(0 0.92749)"/>
</clipPath>
</defs>
</svg>
