<svg width="24" height="25" viewBox="0 0 24 25" fill="none" xmlns="http://www.w3.org/2000/svg">
<g clip-path="url(#clip0_507_2199)">
<path d="M19 1.92686H5C3.67441 1.92845 2.40356 2.45575 1.46622 3.39308C0.528882 4.33042 0.00158786 5.60127 0 6.92686L0 14.9269C0.00158786 16.2525 0.528882 17.5233 1.46622 18.4606C2.40356 19.398 3.67441 19.9253 5 19.9269H11V21.9269H7C6.73478 21.9269 6.48043 22.0322 6.29289 22.2198C6.10536 22.4073 6 22.6616 6 22.9269C6 23.1921 6.10536 23.4464 6.29289 23.634C6.48043 23.8215 6.73478 23.9269 7 23.9269H17C17.2652 23.9269 17.5196 23.8215 17.7071 23.634C17.8946 23.4464 18 23.1921 18 22.9269C18 22.6616 17.8946 22.4073 17.7071 22.2198C17.5196 22.0322 17.2652 21.9269 17 21.9269H13V19.9269H19C20.3256 19.9253 21.5964 19.398 22.5338 18.4606C23.4711 17.5233 23.9984 16.2525 24 14.9269V6.92686C23.9984 5.60127 23.4711 4.33042 22.5338 3.39308C21.5964 2.45575 20.3256 1.92845 19 1.92686ZM22 14.9269C22 15.7225 21.6839 16.4856 21.1213 17.0482C20.5587 17.6108 19.7956 17.9269 19 17.9269H5C4.20435 17.9269 3.44129 17.6108 2.87868 17.0482C2.31607 16.4856 2 15.7225 2 14.9269V6.92686C2 6.13122 2.31607 5.36815 2.87868 4.80554C3.44129 4.24294 4.20435 3.92686 5 3.92686H19C19.7956 3.92686 20.5587 4.24294 21.1213 4.80554C21.6839 5.36815 22 6.13122 22 6.92686V14.9269ZM20 10.9269C20 11.1921 19.8946 11.4464 19.7071 11.634C19.5196 11.8215 19.2652 11.9269 19 11.9269H16.035L14.335 14.4819C14.2434 14.6192 14.1192 14.7317 13.9735 14.8094C13.8278 14.887 13.6651 14.9274 13.5 14.9269C13.479 14.9269 13.458 14.9269 13.438 14.9269C13.263 14.9161 13.094 14.8595 12.9478 14.7628C12.8016 14.6661 12.6834 14.5327 12.605 14.3759L10.376 9.91486L9.332 11.4819C9.24065 11.6188 9.11692 11.731 8.97178 11.8087C8.82665 11.8863 8.66459 11.9269 8.5 11.9269H5C4.73478 11.9269 4.48043 11.8215 4.29289 11.634C4.10536 11.4464 4 11.1921 4 10.9269C4 10.6616 4.10536 10.4073 4.29289 10.2198C4.48043 10.0322 4.73478 9.92686 5 9.92686H7.965L9.665 7.37186C9.76123 7.22443 9.89516 7.10542 10.0529 7.02717C10.2106 6.94892 10.3864 6.91429 10.562 6.92686C10.737 6.93764 10.906 6.99422 11.0522 7.09093C11.1984 7.18763 11.3166 7.32107 11.395 7.47786L13.624 11.9369L14.668 10.3699C14.7596 10.2333 14.8834 10.1215 15.0285 10.0442C15.1737 9.96692 15.3356 9.92662 15.5 9.92686H19C19.2652 9.92686 19.5196 10.0322 19.7071 10.2198C19.8946 10.4073 20 10.6616 20 10.9269Z" fill="#374957"/>
</g>
<defs>
<clipPath id="clip0_507_2199">
<rect width="24" height="24" fill="white" transform="translate(0 0.92749)"/>
</clipPath>
</defs>
</svg>
