<svg width="24" height="25" viewBox="0 0 24 25" fill="none" xmlns="http://www.w3.org/2000/svg">
<g clip-path="url(#clip0_507_2091)">
<path d="M23.9999 10.6512V19.9272C23.9983 21.2528 23.471 22.5237 22.5337 23.461C21.5963 24.3983 20.3255 24.9256 18.9999 24.9272H17.9999C17.7347 24.9272 17.4803 24.8219 17.2928 24.6343C17.1052 24.4468 16.9999 24.1924 16.9999 23.9272C16.9999 23.662 17.1052 23.4077 17.2928 23.2201C17.4803 23.0326 17.7347 22.9272 17.9999 22.9272H18.9999C19.7955 22.9272 20.5586 22.6112 21.1212 22.0486C21.6838 21.4859 21.9999 20.7229 21.9999 19.9272V10.6512C21.9999 10.1601 21.8794 9.67657 21.6489 9.24294C21.4184 8.80932 21.085 8.43891 20.6779 8.16423L13.6779 3.44123C13.1833 3.10403 12.5985 2.92368 11.9999 2.92368C11.4013 2.92368 10.8165 3.10403 10.3219 3.44123L3.32188 8.16423C2.9148 8.43891 2.58138 8.80932 2.35088 9.24294C2.12038 9.67657 1.99985 10.1601 1.99988 10.6512V19.9272C1.99988 20.7229 2.31595 21.4859 2.87856 22.0486C3.44117 22.6112 4.20423 22.9272 4.99988 22.9272H5.99988C6.2651 22.9272 6.51945 23.0326 6.70699 23.2201C6.89453 23.4077 6.99988 23.662 6.99988 23.9272C6.99988 24.1924 6.89453 24.4468 6.70699 24.6343C6.51945 24.8219 6.2651 24.9272 5.99988 24.9272H4.99988C3.67429 24.9256 2.40344 24.3983 1.4661 23.461C0.528764 22.5237 0.0014697 21.2528 -0.000118153 19.9272V10.6512C-0.00114303 9.83295 0.198961 9.02695 0.582586 8.30417C0.966211 7.58138 1.5216 6.96396 2.19988 6.50623L9.19988 1.78223C10.0251 1.22218 10.9995 0.922775 11.9969 0.922775C12.9942 0.922775 13.9686 1.22218 14.7939 1.78223L21.7939 6.50623C22.4728 6.96372 23.0291 7.58094 23.4137 8.30367C23.7984 9.0264 23.9996 9.83252 23.9999 10.6512ZM18.9999 15.9342C19.0024 16.8537 18.8226 17.7646 18.4707 18.6141C18.1188 19.4636 17.6019 20.2349 16.9499 20.8832L13.4349 24.3212C13.0501 24.6938 12.5355 24.9021 11.9999 24.9021C11.4643 24.9021 10.9497 24.6938 10.5649 24.3212L7.05788 20.8912C6.24228 20.0782 5.63987 19.0764 5.30407 17.9748C4.96827 16.8733 4.90944 15.7058 5.13281 14.5761C5.35618 13.4463 5.85484 12.3891 6.58459 11.4981C7.31433 10.6072 8.25262 9.9101 9.31627 9.46859C10.3799 9.02708 11.5361 8.85482 12.6822 8.96708C13.8284 9.07934 14.9291 9.47265 15.8869 10.1121C16.8447 10.7516 17.6299 11.6176 18.1729 12.6331C18.7159 13.6487 19 14.7826 18.9999 15.9342ZM16.9999 15.9342C16.9999 15.112 16.7971 14.3025 16.4096 13.5773C16.022 12.8521 15.4616 12.2338 14.7779 11.7769C14.0943 11.3201 13.3085 11.0389 12.4903 10.9583C11.672 10.8776 10.8465 11 10.0868 11.3146C9.32714 11.6292 8.65678 12.1263 8.13511 12.7619C7.61344 13.3974 7.25655 14.1518 7.09606 14.9582C6.93556 15.7646 6.97642 16.5982 7.21501 17.385C7.4536 18.1719 7.88255 18.8878 8.46388 19.4692L11.9639 22.8912L15.5439 19.4612C16.0075 18.9986 16.3749 18.4488 16.6248 17.8434C16.8747 17.238 17.0022 16.5892 16.9999 15.9342ZM14.9999 15.9272C14.9999 16.5206 14.8239 17.1006 14.4943 17.5939C14.1646 18.0873 13.6961 18.4718 13.1479 18.6989C12.5998 18.9259 11.9966 18.9853 11.4146 18.8696C10.8327 18.7538 10.2981 18.4681 9.87856 18.0486C9.459 17.629 9.17328 17.0944 9.05753 16.5125C8.94177 15.9306 9.00118 15.3274 9.22824 14.7792C9.45531 14.231 9.83982 13.7625 10.3332 13.4328C10.8265 13.1032 11.4065 12.9272 11.9999 12.9272C12.7955 12.9272 13.5586 13.2433 14.1212 13.8059C14.6838 14.3685 14.9999 15.1316 14.9999 15.9272Z" fill="#374957"/>
</g>
<defs>
<clipPath id="clip0_507_2091">
<rect width="24" height="24" fill="white" transform="translate(0 0.92749)"/>
</clipPath>
</defs>
</svg>
