<svg width="24" height="25" viewBox="0 0 24 25" fill="none" xmlns="http://www.w3.org/2000/svg">
<g clip-path="url(#clip0_507_1863)">
<path d="M1 6.92749H23C23.2652 6.92749 23.5196 6.82213 23.7071 6.63459C23.8946 6.44706 24 6.1927 24 5.92749C24 5.66227 23.8946 5.40792 23.7071 5.22038C23.5196 5.03285 23.2652 4.92749 23 4.92749H1C0.734784 4.92749 0.48043 5.03285 0.292893 5.22038C0.105357 5.40792 0 5.66227 0 5.92749C0 6.1927 0.105357 6.44706 0.292893 6.63459C0.48043 6.82213 0.734784 6.92749 1 6.92749Z" fill="#374957"/>
<path d="M1 11.9275H15C15.2652 11.9275 15.5196 11.8221 15.7071 11.6346C15.8946 11.4471 16 11.1927 16 10.9275C16 10.6623 15.8946 10.4079 15.7071 10.2204C15.5196 10.0328 15.2652 9.92749 15 9.92749H1C0.734784 9.92749 0.48043 10.0328 0.292893 10.2204C0.105357 10.4079 0 10.6623 0 10.9275C0 11.1927 0.105357 11.4471 0.292893 11.6346C0.48043 11.8221 0.734784 11.9275 1 11.9275Z" fill="#374957"/>
<path d="M15 19.9275H1C0.734784 19.9275 0.48043 20.0328 0.292893 20.2204C0.105357 20.4079 0 20.6623 0 20.9275C0 21.1927 0.105357 21.4471 0.292893 21.6346C0.48043 21.8221 0.734784 21.9275 1 21.9275H15C15.2652 21.9275 15.5196 21.8221 15.7071 21.6346C15.8946 21.4471 16 21.1927 16 20.9275C16 20.6623 15.8946 20.4079 15.7071 20.2204C15.5196 20.0328 15.2652 19.9275 15 19.9275Z" fill="#374957"/>
<path d="M23 14.9275H1C0.734784 14.9275 0.48043 15.0328 0.292893 15.2204C0.105357 15.4079 0 15.6623 0 15.9275C0 16.1927 0.105357 16.4471 0.292893 16.6346C0.48043 16.8221 0.734784 16.9275 1 16.9275H23C23.2652 16.9275 23.5196 16.8221 23.7071 16.6346C23.8946 16.4471 24 16.1927 24 15.9275C24 15.6623 23.8946 15.4079 23.7071 15.2204C23.5196 15.0328 23.2652 14.9275 23 14.9275Z" fill="#374957"/>
</g>
<defs>
<clipPath id="clip0_507_1863">
<rect width="24" height="24" fill="white" transform="translate(0 0.92749)"/>
</clipPath>
</defs>
</svg>
