<svg width="24" height="25" viewBox="0 0 24 25" fill="none" xmlns="http://www.w3.org/2000/svg">
<g clip-path="url(#clip0_507_2051)">
<path d="M20 4.92749H15C15 3.86662 14.5786 2.84921 13.8284 2.09906C13.0783 1.34892 12.0609 0.92749 11 0.92749L4 0.92749C2.93913 0.92749 1.92172 1.34892 1.17157 2.09906C0.421427 2.84921 0 3.86662 0 4.92749L0 23.9275C0 24.1927 0.105357 24.4471 0.292893 24.6346C0.48043 24.8221 0.734784 24.9275 1 24.9275C1.26522 24.9275 1.51957 24.8221 1.70711 24.6346C1.89464 24.4471 2 24.1927 2 23.9275V13.9275H10C10 14.9884 10.4214 16.0058 11.1716 16.7559C11.9217 17.5061 12.9391 17.9275 14 17.9275H20C21.0609 17.9275 22.0783 17.5061 22.8284 16.7559C23.5786 16.0058 24 14.9884 24 13.9275V8.92749C24 7.86662 23.5786 6.84921 22.8284 6.09906C22.0783 5.34892 21.0609 4.92749 20 4.92749ZM2 11.9275V4.92749C2 4.39706 2.21071 3.88835 2.58579 3.51328C2.96086 3.1382 3.46957 2.92749 4 2.92749H11C11.5304 2.92749 12.0391 3.1382 12.4142 3.51328C12.7893 3.88835 13 4.39706 13 4.92749V9.92749C13 10.4579 12.7893 10.9666 12.4142 11.3417C12.0391 11.7168 11.5304 11.9275 11 11.9275H2ZM22 13.9275C22 14.4579 21.7893 14.9666 21.4142 15.3417C21.0391 15.7168 20.5304 15.9275 20 15.9275H14C13.4696 15.9275 12.9609 15.7168 12.5858 15.3417C12.2107 14.9666 12 14.4579 12 13.9275V13.7855C12.8561 13.5644 13.6149 13.0659 14.1577 12.3679C14.7005 11.6699 14.9967 10.8117 15 9.92749V6.92749H20C20.5304 6.92749 21.0391 7.1382 21.4142 7.51328C21.7893 7.88835 22 8.39706 22 8.92749V13.9275Z" fill="#374957"/>
</g>
<defs>
<clipPath id="clip0_507_2051">
<rect width="24" height="24" fill="white" transform="translate(0 0.92749)"/>
</clipPath>
</defs>
</svg>
