<svg width="24" height="25" viewBox="0 0 24 25" fill="none" xmlns="http://www.w3.org/2000/svg">
<g clip-path="url(#clip0_507_2288)">
<path d="M22.9999 11.9275C23.2651 11.9275 23.5194 11.8221 23.707 11.6346C23.8945 11.4471 23.9999 11.1927 23.9999 10.9275C23.9999 10.6623 23.8945 10.4079 23.707 10.2204C23.5194 10.0328 23.2651 9.92749 22.9999 9.92749H21.5999L20.8299 7.44649C20.5487 6.53208 20.0094 5.71839 19.2767 5.10331C18.544 4.48823 17.6492 4.09798 16.6999 3.97949C16.3205 3.07664 15.6834 2.30563 14.8683 1.76281C14.0532 1.22 13.0962 0.929452 12.1169 0.92749L11.8829 0.92749C10.9036 0.929452 9.94654 1.22 9.13143 1.76281C8.31631 2.30563 7.67926 3.07664 7.29987 3.97949C6.35107 4.09826 5.45677 4.48854 4.72446 5.1034C3.99216 5.71827 3.45303 6.53155 3.17187 7.44549L2.39987 9.92749H0.999874C0.734657 9.92749 0.480303 10.0328 0.292767 10.2204C0.10523 10.4079 -0.000126382 10.6623 -0.000126382 10.9275C-0.000126382 11.1927 0.10523 11.4471 0.292767 11.6346C0.480303 11.8221 0.734657 11.9275 0.999874 11.9275H1.78087L1.06587 14.2275C0.657344 14.6643 0.353122 15.188 0.176066 15.7593C-0.000989243 16.3306 -0.0462743 16.9346 0.0436137 17.5259C0.133502 18.1172 0.356225 18.6804 0.69505 19.1733C1.03387 19.6661 1.47999 20.0758 1.99987 20.3715V21.9275C1.99987 22.7231 2.31594 23.4862 2.87855 24.0488C3.44116 24.6114 4.20422 24.9275 4.99987 24.9275C5.79552 24.9275 6.55859 24.6114 7.12119 24.0488C7.6838 23.4862 7.99987 22.7231 7.99987 21.9275V20.9275H15.9999V21.9275C15.9999 22.7231 16.3159 23.4862 16.8786 24.0488C17.4412 24.6114 18.2042 24.9275 18.9999 24.9275C19.7955 24.9275 20.5586 24.6114 21.1212 24.0488C21.6838 23.4862 21.9999 22.7231 21.9999 21.9275V20.3715C22.5194 20.0758 22.9652 19.6662 23.3038 19.1735C23.6424 18.6808 23.865 18.1178 23.9549 17.5268C24.0448 16.9357 23.9996 16.332 23.8228 15.761C23.6459 15.1899 23.342 14.6663 22.9339 14.2295L22.2189 11.9275H22.9999ZM11.8829 2.92749H12.1169C12.5374 2.92834 12.9529 3.01784 13.3365 3.19015C13.7201 3.36246 14.063 3.6137 14.3429 3.92749H9.65687C9.93665 3.61355 10.2795 3.36221 10.6631 3.18989C11.0467 3.01757 11.4624 2.92815 11.8829 2.92749ZM5.08287 8.03749C5.27079 7.42511 5.65066 6.8894 6.16637 6.50945C6.68209 6.12951 7.30632 5.92548 7.94687 5.92749H16.0529C16.6937 5.92533 17.3183 6.1294 17.8342 6.50956C18.3501 6.88971 18.7301 7.42576 18.9179 8.03849L20.4499 12.9725C20.3009 12.9489 20.1506 12.9339 19.9999 12.9275H3.99987C3.84914 12.9339 3.69889 12.9489 3.54987 12.9725L5.08287 8.03749ZM5.99987 21.9275C5.99987 22.1927 5.89452 22.4471 5.70698 22.6346C5.51944 22.8221 5.26509 22.9275 4.99987 22.9275C4.73466 22.9275 4.4803 22.8221 4.29277 22.6346C4.10523 22.4471 3.99987 22.1927 3.99987 21.9275V20.9275H5.99987V21.9275ZM19.9999 21.9275C19.9999 22.1927 19.8945 22.4471 19.707 22.6346C19.5194 22.8221 19.2651 22.9275 18.9999 22.9275C18.7347 22.9275 18.4803 22.8221 18.2928 22.6346C18.1052 22.4471 17.9999 22.1927 17.9999 21.9275V20.9275H19.9999V21.9275ZM19.9999 18.9275H3.99987C3.46944 18.9275 2.96073 18.7168 2.58566 18.3417C2.21059 17.9666 1.99987 17.4579 1.99987 16.9275C1.99987 16.3971 2.21059 15.8883 2.58566 15.5133C2.96073 15.1382 3.46944 14.9275 3.99987 14.9275V15.9275C3.99987 16.1927 4.10523 16.4471 4.29277 16.6346C4.4803 16.8221 4.73466 16.9275 4.99987 16.9275C5.26509 16.9275 5.51944 16.8221 5.70698 16.6346C5.89452 16.4471 5.99987 16.1927 5.99987 15.9275V14.9275H17.9999V15.9275C17.9999 16.1927 18.1052 16.4471 18.2928 16.6346C18.4803 16.8221 18.7347 16.9275 18.9999 16.9275C19.2651 16.9275 19.5194 16.8221 19.707 16.6346C19.8945 16.4471 19.9999 16.1927 19.9999 15.9275V14.9275C20.5303 14.9275 21.039 15.1382 21.4141 15.5133C21.7892 15.8883 21.9999 16.3971 21.9999 16.9275C21.9999 17.4579 21.7892 17.9666 21.4141 18.3417C21.039 18.7168 20.5303 18.9275 19.9999 18.9275Z" fill="#374957"/>
</g>
<defs>
<clipPath id="clip0_507_2288">
<rect width="24" height="24" fill="white" transform="translate(0 0.92749)"/>
</clipPath>
</defs>
</svg>
