<svg width="24" height="25" viewBox="0 0 24 25" fill="none" xmlns="http://www.w3.org/2000/svg">
<g clip-path="url(#clip0_507_2333)">
<path d="M19 9.95349V4.92749C19 3.86662 18.5786 2.84921 17.8284 2.09906C17.0783 1.34892 16.0609 0.92749 15 0.92749L9 0.92749C7.93913 0.92749 6.92172 1.34892 6.17157 2.09906C5.42143 2.84921 5 3.86662 5 4.92749V9.95349C4.38121 10.4153 3.87837 11.0149 3.53125 11.7046C3.18413 12.3943 3.00225 13.1553 3 13.9275V15.9275C3 18.3144 3.94821 20.6036 5.63604 22.2915C7.32387 23.9793 9.61305 24.9275 12 24.9275C14.3869 24.9275 16.6761 23.9793 18.364 22.2915C20.0518 20.6036 21 18.3144 21 15.9275V13.9275C20.9978 13.1553 20.8159 12.3943 20.4688 11.7046C20.1216 11.0149 19.6188 10.4153 19 9.95349ZM7 8.92749V4.92749C7 4.39706 7.21071 3.88835 7.58579 3.51328C7.96086 3.1382 8.46957 2.92749 9 2.92749H15C15.5304 2.92749 16.0391 3.1382 16.4142 3.51328C16.7893 3.88835 17 4.39706 17 4.92749V8.92749H7ZM19 15.9275C19 17.784 18.2625 19.5645 16.9497 20.8772C15.637 22.19 13.8565 22.9275 12 22.9275C10.1435 22.9275 8.36301 22.19 7.05025 20.8772C5.7375 19.5645 5 17.784 5 15.9275V13.9275C5 13.1318 5.31607 12.3688 5.87868 11.8062C6.44129 11.2436 7.20435 10.9275 8 10.9275H16C16.7956 10.9275 17.5587 11.2436 18.1213 11.8062C18.6839 12.3688 19 13.1318 19 13.9275V15.9275Z" fill="#374957"/>
<path d="M10 6.92688C10.5523 6.92688 11 6.47916 11 5.92688C11 5.37459 10.5523 4.92688 10 4.92688C9.44771 4.92688 9 5.37459 9 5.92688C9 6.47916 9.44771 6.92688 10 6.92688Z" fill="#374957"/>
<path d="M13.9999 6.92688C14.5522 6.92688 14.9999 6.47916 14.9999 5.92688C14.9999 5.37459 14.5522 4.92688 13.9999 4.92688C13.4476 4.92688 12.9999 5.37459 12.9999 5.92688C12.9999 6.47916 13.4476 6.92688 13.9999 6.92688Z" fill="#374957"/>
</g>
<defs>
<clipPath id="clip0_507_2333">
<rect width="24" height="24" fill="white" transform="translate(0 0.92749)"/>
</clipPath>
</defs>
</svg>
