<svg width="24" height="25" viewBox="0 0 24 25" fill="none" xmlns="http://www.w3.org/2000/svg">
<g clip-path="url(#clip0_507_2080)">
<path d="M10.0001 16.9275C11.1047 16.9275 12.0001 16.0321 12.0001 14.9275C12.0001 13.8229 11.1047 12.9275 10.0001 12.9275C8.89555 12.9275 8.00012 13.8229 8.00012 14.9275C8.00012 16.0321 8.89555 16.9275 10.0001 16.9275Z" fill="#374957"/>
<path d="M5.70704 17.2203C5.51844 17.0381 5.26584 16.9373 5.00364 16.9396C4.74144 16.9419 4.49063 17.047 4.30522 17.2324C4.11981 17.4178 4.01465 17.6687 4.01237 17.9309C4.01009 18.193 4.11088 18.4457 4.29304 18.6343L6.29304 20.6342C6.38529 20.7298 6.49563 20.8059 6.61764 20.8583C6.73964 20.9108 6.87086 20.9383 7.00364 20.9395C7.13642 20.9406 7.2681 20.9153 7.39099 20.8651C7.51389 20.8148 7.62554 20.7405 7.71944 20.6466C7.81333 20.5527 7.88758 20.4411 7.93786 20.3182C7.98814 20.1953 8.01345 20.0636 8.01229 19.9308C8.01114 19.7981 7.98355 19.6668 7.93114 19.5448C7.87873 19.4228 7.80255 19.3125 7.70704 19.2202L5.70704 17.2203Z" fill="#374957"/>
<path d="M23.482 1.44562C23.3179 1.28138 23.123 1.15108 22.9086 1.06219C22.6941 0.973292 22.4642 0.927536 22.232 0.927536C21.9998 0.927536 21.7699 0.973292 21.5554 1.06219C21.341 1.15108 21.1461 1.28138 20.982 1.44562L20.768 1.65962C20.0418 2.38796 19.5137 3.28984 19.234 4.27962L16.259 7.25462C15.1612 6.36308 13.7794 5.89599 12.3659 5.93858C10.9523 5.98117 9.60113 6.53061 8.559 7.48662C8.39923 7.64559 8.25055 7.81532 8.114 7.99462C7.93491 8.25281 7.70445 8.47124 7.43706 8.63626C7.16966 8.80128 6.87107 8.90932 6.56 8.95362C4.8634 9.06843 3.26537 9.79217 2.06 10.9916C-0.896004 13.9486 -0.640004 19.0166 2.635 22.2916C4.26505 23.9528 6.48679 24.9006 8.814 24.9276C9.7615 24.9402 10.7021 24.7647 11.5813 24.4113C12.4605 24.0579 13.2608 23.5335 13.936 22.8686C15.1355 21.6632 15.8592 20.0652 15.974 18.3686C16.0183 18.0575 16.1263 17.759 16.2914 17.4916C16.4564 17.2242 16.6748 16.9937 16.933 16.8146C17.1123 16.6781 17.282 16.5294 17.441 16.3696C18.3959 15.3269 18.9445 13.9759 18.9871 12.5627C19.0297 11.1495 18.5634 9.76794 17.673 8.66962L20.648 5.69462C21.6378 5.41491 22.5397 4.88686 23.268 4.16062L23.482 3.94662C23.6464 3.7825 23.7768 3.58758 23.8658 3.373C23.9548 3.15843 24.0006 2.92841 24.0006 2.69612C24.0006 2.46383 23.9548 2.23381 23.8658 2.01924C23.7768 1.80466 23.6464 1.60974 23.482 1.44562ZM16.027 14.9546C15.9332 15.0498 15.833 15.1383 15.727 15.2196C15.24 15.565 14.8324 16.0104 14.5314 16.5261C14.2305 17.0417 14.0432 17.6157 13.982 18.2096C13.9023 19.4297 13.3845 20.58 12.524 21.4486C10.349 23.6236 6.549 23.3686 4.056 20.8746C1.563 18.3806 1.3 14.5826 3.479 12.4066C4.34763 11.5461 5.49788 11.0283 6.718 10.9486C7.3119 10.8875 7.88589 10.7001 8.40155 10.3992C8.9172 10.0983 9.36262 9.69063 9.708 9.20362C9.78929 9.09761 9.87783 8.99737 9.973 8.90362C10.2956 8.58691 10.6781 8.33752 11.098 8.16996C11.5179 8.00241 11.9669 7.92003 12.419 7.92762C13.2799 7.93855 14.1191 8.19985 14.834 8.67962L13.293 10.2206C13.1975 10.3129 13.1213 10.4232 13.0689 10.5452C13.0165 10.6672 12.9889 10.7984 12.9877 10.9312C12.9866 11.064 13.0119 11.1957 13.0622 11.3186C13.1125 11.4415 13.1867 11.5531 13.2806 11.647C13.3745 11.7409 13.4861 11.8152 13.609 11.8654C13.7319 11.9157 13.8636 11.941 13.9964 11.9399C14.1292 11.9387 14.2604 11.9111 14.3824 11.8587C14.5044 11.8063 14.6148 11.7301 14.707 11.6346L16.245 10.0966C16.7717 10.8084 17.0375 11.6797 16.9978 12.5643C16.9581 13.4489 16.6153 14.2929 16.027 14.9546Z" fill="#374957"/>
</g>
<defs>
<clipPath id="clip0_507_2080">
<rect width="24" height="24" fill="white" transform="translate(0 0.92749)"/>
</clipPath>
</defs>
</svg>
