<svg width="24" height="25" viewBox="0 0 24 25" fill="none" xmlns="http://www.w3.org/2000/svg">
<g clip-path="url(#clip0_507_2296)">
<path d="M23.951 13.2275L23.246 8.22749C23.0727 7.03742 22.4783 5.949 21.5707 5.15996C20.6631 4.37092 19.5026 3.93361 18.3 3.92749H5C3.67441 3.92908 2.40356 4.45637 1.46622 5.39371C0.528882 6.33105 0.00158786 7.6019 0 8.92749L0 13.9275C0.00158786 15.2531 0.528882 16.5239 1.46622 17.4613C2.40356 18.3986 3.67441 18.9259 5 18.9275H7.712L9.626 22.8055C9.94777 23.4591 10.4938 23.9752 11.1644 24.2598C11.835 24.5444 12.5856 24.5784 13.2792 24.3557C13.9728 24.133 14.5633 23.6683 14.9429 23.0466C15.3225 22.4248 15.4659 21.6872 15.347 20.9685L15.011 18.9275H19C19.7158 18.9275 20.4232 18.7739 21.0745 18.4769C21.7258 18.18 22.3057 17.7467 22.7751 17.2063C23.2445 16.6659 23.5923 16.031 23.7952 15.3446C23.9981 14.6582 24.0512 13.9362 23.951 13.2275ZM5 5.92749H7V16.9275H5C4.20435 16.9275 3.44129 16.6114 2.87868 16.0488C2.31607 15.4862 2 14.7231 2 13.9275V8.92749C2 8.13184 2.31607 7.36878 2.87868 6.80617C3.44129 6.24356 4.20435 5.92749 5 5.92749ZM21.264 15.8955C20.9824 16.2195 20.6346 16.4792 20.244 16.6573C19.8535 16.8353 19.4292 16.9275 19 16.9275H13.833C13.688 16.9275 13.5446 16.959 13.413 17.0199C13.2814 17.0808 13.1645 17.1696 13.0706 17.2801C12.9767 17.3907 12.908 17.5203 12.8692 17.6601C12.8304 17.7998 12.8225 17.9464 12.846 18.0895L13.374 21.2895C13.3994 21.438 13.3916 21.5903 13.3513 21.7355C13.3111 21.8807 13.2392 22.0152 13.141 22.1295C13.0258 22.2537 12.8828 22.3487 12.7237 22.4069C12.5645 22.465 12.3939 22.4845 12.2258 22.4638C12.0577 22.4431 11.8969 22.3828 11.7566 22.2878C11.6163 22.1928 11.5006 22.0659 11.419 21.9175L9.23 17.4855C9.17226 17.3746 9.09424 17.2756 9 17.1935V5.92749H18.3C19.0223 5.93013 19.7195 6.19222 20.2647 6.66599C20.8099 7.13976 21.1667 7.79365 21.27 8.50849L21.976 13.5085C22.0352 13.9341 22.0023 14.3676 21.8795 14.7794C21.7566 15.1912 21.5467 15.5718 21.264 15.8955Z" fill="#374957"/>
</g>
<defs>
<clipPath id="clip0_507_2296">
<rect width="24" height="24" fill="white" transform="translate(0 0.92749)"/>
</clipPath>
</defs>
</svg>
