<svg width="24" height="25" viewBox="0 0 24 25" fill="none" xmlns="http://www.w3.org/2000/svg">
<g clip-path="url(#clip0_507_2120)">
<path d="M21.1549 20.6688C22.9915 18.5077 23.9999 15.764 23.9999 12.9278C23.9999 10.0917 22.9915 7.34799 21.1549 5.18684L22.0149 4.32684C22.2024 4.1392 22.3077 3.88476 22.3076 3.61949C22.3075 3.35421 22.2021 3.09985 22.0144 2.91234C21.8268 2.72483 21.5724 2.61954 21.3071 2.61964C21.0418 2.61973 20.7874 2.7252 20.5999 2.91284L19.7399 3.77284C17.5788 1.93627 14.8351 0.927902 11.9989 0.927902C9.16282 0.927902 6.41909 1.93627 4.25794 3.77284L3.39794 2.91284C3.20921 2.73081 2.95653 2.63019 2.69433 2.63265C2.43214 2.63511 2.1814 2.74046 1.99612 2.926C1.81084 3.11154 1.70585 3.36243 1.70376 3.62463C1.70166 3.88683 1.80264 4.13937 1.98494 4.32784L2.84494 5.18784C1.00836 7.34899 0 10.0927 0 12.9288C0 15.765 1.00836 18.5087 2.84494 20.6698L1.98494 21.5298C1.88949 21.6222 1.81339 21.7326 1.76107 21.8546C1.70875 21.9766 1.68126 22.1079 1.6802 22.2407C1.67914 22.3734 1.70454 22.5051 1.7549 22.6279C1.80527 22.7508 1.8796 22.8624 1.97356 22.9562C2.06752 23.0501 2.17922 23.1242 2.30215 23.1744C2.42508 23.2246 2.55678 23.2498 2.68956 23.2486C2.82233 23.2473 2.95353 23.2197 3.0755 23.1672C3.19747 23.1147 3.30776 23.0384 3.39994 22.9428L4.25994 22.0828C6.42109 23.9194 9.16482 24.9278 12.0009 24.9278C14.8371 24.9278 17.5808 23.9194 19.7419 22.0828L20.6019 22.9428C20.7907 23.1249 21.0433 23.2255 21.3055 23.223C21.5677 23.2206 21.8185 23.1152 22.0038 22.9297C22.189 22.7441 22.294 22.4932 22.2961 22.231C22.2982 21.9688 22.1972 21.7163 22.0149 21.5278L21.1549 20.6688ZM21.9999 12.9278C22.0018 15.2343 21.2022 17.4698 19.7379 19.2518L16.1669 15.6808C16.7101 14.8654 16.9999 13.9076 16.9999 12.9278C16.9999 11.9481 16.7101 10.9902 16.1669 10.1748L19.7379 6.60384C21.2022 8.38591 22.0018 10.6214 21.9999 12.9278ZM8.99994 12.9278C8.99994 12.3345 9.17588 11.7545 9.50553 11.2611C9.83517 10.7678 10.3037 10.3833 10.8519 10.1562C11.4001 9.92914 12.0033 9.86973 12.5852 9.98548C13.1672 10.1012 13.7017 10.387 14.1213 10.8065C14.5408 11.2261 14.8265 11.7606 14.9423 12.3426C15.058 12.9245 14.9986 13.5277 14.7716 14.0759C14.5445 14.6241 14.16 15.0926 13.6666 15.4222C13.1733 15.7519 12.5933 15.9278 11.9999 15.9278C11.2043 15.9278 10.4412 15.6118 9.87862 15.0492C9.31601 14.4866 8.99994 13.7235 8.99994 12.9278ZM11.9999 2.92784C14.3064 2.926 16.5419 3.72559 18.3239 5.18984L14.7529 8.76084C13.9375 8.2177 12.9797 7.92789 11.9999 7.92789C11.0202 7.92789 10.0623 8.2177 9.24694 8.76084L5.67594 5.18984C7.45801 3.72559 9.69347 2.926 11.9999 2.92784ZM1.99994 12.9278C1.9981 10.6214 2.79769 8.38591 4.26194 6.60384L7.83294 10.1748C7.2898 10.9902 6.99999 11.9481 6.99999 12.9278C6.99999 13.9076 7.2898 14.8654 7.83294 15.6808L4.26194 19.2518C2.79769 17.4698 1.9981 15.2343 1.99994 12.9278ZM11.9999 22.9278C9.69347 22.9297 7.45801 22.1301 5.67594 20.6658L9.24694 17.0948C10.0623 17.638 11.0202 17.9278 11.9999 17.9278C12.9797 17.9278 13.9375 17.638 14.7529 17.0948L18.3239 20.6658C16.5419 22.1301 14.3064 22.9297 11.9999 22.9278Z" fill="#374957"/>
</g>
<defs>
<clipPath id="clip0_507_2120">
<rect width="24" height="24" fill="white" transform="translate(0 0.92749)"/>
</clipPath>
</defs>
</svg>
