<svg width="24" height="25" viewBox="0 0 24 25" fill="none" xmlns="http://www.w3.org/2000/svg">
<g clip-path="url(#clip0_507_2189)">
<path d="M20.466 2.8943L14.78 1.1483C13.5249 0.766061 12.17 0.891294 11.0063 1.4971C9.84251 2.10291 8.96277 3.14096 8.556 4.3883L8.368 4.9273H5C3.67441 4.92888 2.40356 5.45618 1.46622 6.39351C0.528882 7.33085 0.00158786 8.6017 0 9.92729L0 19.9273C0.00158786 21.2529 0.528882 22.5237 1.46622 23.4611C2.40356 24.3984 3.67441 24.9257 5 24.9273H11C11.7575 24.9246 12.5044 24.749 13.1838 24.4139C13.8631 24.0787 14.457 23.5928 14.92 22.9933C15.1482 23.0264 15.3784 23.0438 15.609 23.0453C16.6828 23.0461 17.7281 22.6996 18.5887 22.0574C19.4493 21.4152 20.0791 20.5119 20.384 19.4823L23.8 9.08329C24.1649 7.82059 24.0202 6.46514 23.3968 5.30798C22.7735 4.15082 21.7212 3.28424 20.466 2.8943ZM11 22.9273H5C4.20435 22.9273 3.44129 22.6112 2.87868 22.0486C2.31607 21.486 2 20.7229 2 19.9273V9.92729C2 9.13164 2.31607 8.36858 2.87868 7.80597C3.44129 7.24336 4.20435 6.92729 5 6.92729H11C11.7956 6.92729 12.5587 7.24336 13.1213 7.80597C13.6839 8.36858 14 9.13164 14 9.92729V19.9273C14 20.7229 13.6839 21.486 13.1213 22.0486C12.5587 22.6112 11.7956 22.9273 11 22.9273ZM21.887 8.49029L18.475 18.8903C18.3054 19.4656 17.9669 19.9767 17.5033 20.3572C17.0396 20.7378 16.4723 20.9702 15.875 21.0243C15.9571 20.6644 15.999 20.2964 16 19.9273V9.92729C15.9984 8.6017 15.4711 7.33085 14.5338 6.39351C13.5964 5.45618 12.3256 4.92888 11 4.9273H10.493C10.7511 4.19987 11.2797 3.59993 11.9688 3.25221C12.6579 2.90449 13.4545 2.83576 14.193 3.0603L19.879 4.8063C20.6279 5.03739 21.2569 5.55185 21.632 6.24002C22.0071 6.92819 22.0986 7.73565 21.887 8.49029ZM12 13.9273C12 15.3773 10.456 17.3183 9.286 18.3053C8.92652 18.6094 8.47088 18.7763 8 18.7763C7.52912 18.7763 7.07348 18.6094 6.714 18.3053C5.544 17.3183 4 15.3773 4 13.9273C4 13.3969 4.21071 12.8881 4.58579 12.5131C4.96086 12.138 5.46957 11.9273 6 11.9273C6.53043 11.9273 7.03914 12.138 7.41421 12.5131C7.78929 12.8881 8 13.3969 8 13.9273C8 13.3969 8.21071 12.8881 8.58579 12.5131C8.96086 12.138 9.46957 11.9273 10 11.9273C10.5304 11.9273 11.0391 12.138 11.4142 12.5131C11.7893 12.8881 12 13.3969 12 13.9273Z" fill="#374957"/>
</g>
<defs>
<clipPath id="clip0_507_2189">
<rect width="24" height="24" fill="white" transform="translate(0 0.92749)"/>
</clipPath>
</defs>
</svg>
