<svg width="24" height="25" viewBox="0 0 24 25" fill="none" xmlns="http://www.w3.org/2000/svg">
<g clip-path="url(#clip0_507_2062)">
<path d="M3.787 21.5837C2.78296 21.5832 1.82018 21.1842 1.11013 20.4743C0.400068 19.7644 0.000794959 18.8018 1.34638e-07 17.7977V8.05772C-0.000186396 7.35845 0.193447 6.67281 0.559399 6.07695C0.92535 5.48108 1.4493 4.9983 2.07306 4.68222C2.69682 4.36615 3.39598 4.22915 4.0929 4.28643C4.78982 4.34371 5.45722 4.59304 6.021 5.00672L9.8 7.78072C9.8494 7.10694 10.0783 6.45868 10.463 5.9033C10.8477 5.34793 11.3741 4.9057 11.9875 4.62258C12.6009 4.33945 13.2789 4.22576 13.9511 4.29331C14.6233 4.36087 15.2652 4.6072 15.81 5.00672L22.451 9.87672C22.9297 10.2282 23.3189 10.6875 23.5872 11.2174C23.8555 11.7472 23.9953 12.3328 23.9953 12.9267C23.9953 13.5206 23.8555 14.1062 23.5872 14.6361C23.3189 15.1659 22.9297 15.6252 22.451 15.9767L15.81 20.8467C15.2653 21.2462 14.6237 21.4925 13.9516 21.5602C13.2796 21.6278 12.6017 21.5143 11.9883 21.2314C11.375 20.9485 10.8485 20.5066 10.4637 19.9515C10.0789 19.3963 9.84973 18.7483 9.8 18.0747L6.021 20.8487C5.37359 21.3254 4.59093 21.5829 3.787 21.5837ZM10.793 15.1087C11.0582 15.1087 11.3126 15.2141 11.5001 15.4016C11.6876 15.5892 11.793 15.8435 11.793 16.1087V17.7977C11.7933 18.1272 11.8847 18.4501 12.0573 18.7308C12.2299 19.0114 12.4768 19.2388 12.7707 19.3877C13.0645 19.5367 13.3939 19.6013 13.7223 19.5744C14.0507 19.5476 14.3652 19.4304 14.631 19.2357L21.271 14.3657C21.4969 14.2001 21.6806 13.9836 21.8072 13.7338C21.9339 13.484 21.9998 13.2078 21.9998 12.9277C21.9998 12.6476 21.9339 12.3715 21.8072 12.1216C21.6806 11.8718 21.4969 11.6553 21.271 11.4897L14.631 6.61972C14.3652 6.42507 14.0507 6.30784 13.7223 6.281C13.3939 6.25417 13.0645 6.31879 12.7707 6.4677C12.4768 6.61661 12.2299 6.844 12.0573 7.12465C11.8847 7.4053 11.7933 7.72826 11.793 8.05772V9.74672C11.7929 9.93143 11.7416 10.1125 11.6449 10.2698C11.5481 10.4272 11.4097 10.5546 11.2449 10.6381C11.0802 10.7216 10.8955 10.7578 10.7114 10.7427C10.5273 10.7276 10.351 10.6619 10.202 10.5527L4.838 6.61972C4.57219 6.42507 4.25766 6.30784 3.9293 6.281C3.60093 6.25417 3.27155 6.31879 2.97766 6.4677C2.68377 6.61661 2.43686 6.844 2.26429 7.12465C2.09173 7.4053 2.00025 7.72826 2 8.05772V17.7977C2.00025 18.1272 2.09173 18.4501 2.26429 18.7308C2.43686 19.0114 2.68377 19.2388 2.97766 19.3877C3.27155 19.5367 3.60093 19.6013 3.9293 19.5744C4.25766 19.5476 4.57219 19.4304 4.838 19.2357L10.2 15.3027C10.3719 15.1765 10.5797 15.1085 10.793 15.1087Z" fill="#374957"/>
</g>
<defs>
<clipPath id="clip0_507_2062">
<rect width="24" height="24" fill="white" transform="translate(0 0.92749)"/>
</clipPath>
</defs>
</svg>
