<svg width="24" height="25" viewBox="0 0 24 25" fill="none" xmlns="http://www.w3.org/2000/svg">
<g clip-path="url(#clip0_507_2298)">
<path d="M0.999909 24.9279C1.2651 24.9279 1.51942 24.8225 1.70691 24.6349L8.32591 18.0159L9.57391 19.3079C10.5145 20.3019 11.811 20.8824 13.1789 20.9219C13.6349 20.9233 14.0878 20.8465 14.5179 20.6949C15.1825 20.4661 15.7663 20.0493 16.1985 19.4951C16.6308 18.9409 16.8928 18.2732 16.9529 17.5729C17.0614 16.5588 16.9862 15.5334 16.7309 14.5459L16.5169 13.5039C16.4764 13.3373 16.4793 13.163 16.5256 12.9979C16.5718 12.8328 16.6597 12.6823 16.7809 12.5609L18.3679 10.9729C18.4305 10.9101 18.5152 10.8742 18.6039 10.8729C18.635 10.8671 18.6672 10.8702 18.6967 10.8816C18.7262 10.8931 18.7519 10.9126 18.7709 10.9379C19.2732 11.4706 19.9489 11.8067 20.6768 11.8859C21.4046 11.965 22.1368 11.7821 22.7419 11.3699C23.097 11.1168 23.3926 10.7893 23.6081 10.4103C23.8237 10.0313 23.9541 9.60987 23.9902 9.17533C24.0262 8.74079 23.9672 8.30361 23.817 7.89423C23.6669 7.48485 23.4294 7.11312 23.1209 6.80493L18.1999 1.88193C17.6946 1.36403 17.0234 1.04021 16.3035 0.967092C15.5837 0.893973 14.861 1.0762 14.2619 1.48193C13.9068 1.73496 13.6111 2.06236 13.3954 2.44134C13.1798 2.82031 13.0493 3.24175 13.0131 3.67629C12.9769 4.11083 13.0359 4.54804 13.186 4.95746C13.336 5.36687 13.5735 5.73866 13.8819 6.04693L13.9579 6.12293C14.0152 6.18062 14.0473 6.25863 14.0473 6.33993C14.0473 6.42123 14.0152 6.49923 13.9579 6.55693L12.3579 8.15693C12.2352 8.27941 12.0827 8.36787 11.9154 8.41363C11.7482 8.45938 11.5719 8.46087 11.4039 8.41793L10.5869 8.20893C9.58196 7.94647 8.53789 7.86754 7.50491 7.97593C6.77227 8.05181 6.07659 8.33556 5.49988 8.79374C4.92318 9.25191 4.48948 9.86542 4.24991 10.5619C3.98847 11.2777 3.93692 12.0532 4.10132 12.7973C4.26573 13.5413 4.63924 14.223 5.17791 14.7619L6.93591 16.5819L0.292909 23.2209C0.1531 23.3608 0.0578931 23.5389 0.0193256 23.7329C-0.019242 23.9268 0.000560977 24.1279 0.076231 24.3106C0.151901 24.4933 0.280041 24.6494 0.44445 24.7593C0.60886 24.8692 0.802159 24.9279 0.999909 24.9279ZM6.13491 11.2279C6.2476 10.8872 6.45662 10.5865 6.73669 10.3622C7.01675 10.1379 7.35584 9.99952 7.71291 9.96393C7.94313 9.93996 8.17444 9.92795 8.40591 9.92793C8.97322 9.92795 9.53819 10.0009 10.0869 10.1449L10.9099 10.3549C11.4141 10.4825 11.9428 10.4772 12.4444 10.3397C12.946 10.2021 13.4033 9.93689 13.7719 9.56993L15.3719 7.96993C15.8036 7.53691 16.0461 6.95039 16.0461 6.33893C16.0461 5.72746 15.8036 5.14094 15.3719 4.70793L15.2959 4.63193C15.1924 4.52863 15.1127 4.40388 15.0627 4.26646C15.0126 4.12905 14.9932 3.98232 15.006 3.83663C15.0188 3.69093 15.0634 3.54981 15.1366 3.42321C15.2098 3.29661 15.31 3.18762 15.4299 3.10393C15.6433 2.97475 15.8947 2.92311 16.1417 2.95773C16.3887 2.99234 16.6162 3.11108 16.7859 3.29393L21.7099 8.21793C21.8134 8.32122 21.8931 8.44598 21.9432 8.58339C21.9932 8.7208 22.0126 8.86753 21.9998 9.01322C21.987 9.15892 21.9425 9.30004 21.8692 9.42664C21.796 9.55324 21.6958 9.66223 21.5759 9.74593C21.3602 9.87687 21.1056 9.92853 20.8559 9.89203C20.6062 9.85552 20.3771 9.73314 20.2079 9.54593C20.0022 9.33378 19.756 9.16502 19.4839 9.0496C19.2119 8.93418 18.9194 8.87444 18.6239 8.87393C18.0005 8.87676 17.4026 9.12207 16.9569 9.55793L15.3709 11.1449C15.0108 11.5053 14.7484 11.9515 14.6084 12.4413C14.4684 12.9312 14.4555 13.4487 14.5709 13.9449L14.7899 15.0029C14.9917 15.7743 15.053 16.5758 14.9709 17.3689C14.947 17.6924 14.8286 18.0017 14.6303 18.2584C14.4321 18.5152 14.1628 18.708 13.8559 18.8129C13.3444 18.9474 12.8052 18.9343 12.3008 18.775C11.7964 18.6157 11.3474 18.3168 11.0059 17.9129L6.60591 13.3629C6.33154 13.0893 6.14136 12.7428 6.05788 12.3644C5.97441 11.986 6.00114 11.5916 6.13491 11.2279Z" fill="#374957"/>
</g>
<defs>
<clipPath id="clip0_507_2298">
<rect width="24" height="24" fill="white" transform="translate(0 0.92749)"/>
</clipPath>
</defs>
</svg>
